<?xml version="1.0" standalone="no"?>
<!DOCTYPE svg PUBLIC "-//W3C//DTD SVG 1.1//EN" "http://www.w3.org/Graphics/SVG/1.1/DTD/svg11.dtd" >
<svg xmlns="http://www.w3.org/2000/svg" xmlns:xlink="http://www.w3.org/1999/xlink" version="1.1">
<metadata>
Created by FontForge 20170731 at Thu Jun 23 15:37:39 2016
 By Aleksey,,,
Copyright (c) 2016 by Jonathan Ball. All rights reserved.
</metadata>
<defs>
<font id="Acre-Bold" horiz-adv-x="571" >
  <font-face 
    font-family="Acre-Bold"
    font-weight="400"
    font-stretch="normal"
    units-per-em="1000"
    panose-1="0 0 8 0 0 0 0 0 0 0"
    ascent="794"
    descent="-206"
    x-height="500"
    cap-height="700"
    bbox="-695 -216 1072 1061"
    underline-thickness="50"
    underline-position="-150"
    unicode-range="U+0020-FB02"
  />
<missing-glyph horiz-adv-x="500" 
d="M410 -200h-317v1000h317v-1000zM168 733v-33h65v-37h-66v-33h166v33h-66v37h66v33h-165zM167 604v-104h166v34h-66v70h-100zM233 534h-33v36h33v-36zM167 473v-33h66v-37h-66v-33h100v70h66v33h-166zM300 413v-66h-133v-34h166v100h-33zM233 291v-56h34v23h33v-47h-100
v80h-33v-113h166v113h-100zM167 118v-113h166v113h-166zM300 38h-100v47h100v-47zM167 -18v-33h70l-70 -47v-33h166v33h-102l70 47h32v33h-166z" />
    <glyph glyph-name="fi" unicode="fi" horiz-adv-x="631" 
d="M552 0h-144v365h-174v-365h-144v365h-65v135h65v146q0 75 35.5 117.5t104.5 42.5q29 0 57.5 -6.5t47.5 -16.5v-146q-36 15 -63 15q-17 0 -27.5 -11t-10.5 -32v-109h318v-500zM415.5 602.5q-26.5 26.5 -26.5 64.5t26.5 64t63.5 26q39 0 65 -26t26 -64t-26 -64.5t-65 -26.5
q-37 0 -63.5 26.5z" />
    <glyph glyph-name="fl" unicode="fl" horiz-adv-x="616" 
d="M244.5 641q-10.5 -11 -10.5 -32v-109h101v-135h-101v-365h-144v365h-65v135h65v146q0 75 35.5 117.5t104.5 42.5q29 0 57.5 -6.5t47.5 -16.5v-146q-36 15 -63 15q-17 0 -27.5 -11zM410 800h144v-800h-144v800z" />
    <glyph glyph-name=".notdef" horiz-adv-x="500" 
d="M410 -200h-317v1000h317v-1000zM168 733v-33h65v-37h-66v-33h166v33h-66v37h66v33h-165zM167 604v-104h166v34h-66v70h-100zM233 534h-33v36h33v-36zM167 473v-33h66v-37h-66v-33h100v70h66v33h-166zM300 413v-66h-133v-34h166v100h-33zM233 291v-56h34v23h33v-47h-100
v80h-33v-113h166v113h-100zM167 118v-113h166v113h-166zM300 38h-100v47h100v-47zM167 -18v-33h70l-70 -47v-33h166v33h-102l70 47h32v33h-166z" />
    <glyph glyph-name=".null" horiz-adv-x="0" 
 />
    <glyph glyph-name="nonmarkingreturn" horiz-adv-x="333" 
 />
    <glyph glyph-name="space" unicode=" " horiz-adv-x="322" 
 />
    <glyph glyph-name="exclam" unicode="!" horiz-adv-x="276" 
d="M53 700h167l-28 -491h-111zM77.5 16q-24.5 25 -24.5 61t25 61t61 25q35 0 60 -25.5t25 -60.5q0 -36 -25 -61t-60 -25q-37 0 -61.5 25z" />
    <glyph glyph-name="quotedbl" unicode="&#x22;" horiz-adv-x="321" 
d="M16 700h140l-20 -273h-103zM165 700h140l-20 -273h-103z" />
    <glyph glyph-name="numbersign" unicode="#" horiz-adv-x="594" 
d="M455 395l-17 -109h114v-103h-130l-29 -183h-102l29 183h-100l-29 -183h-101l29 183h-78v103h94l17 109h-111v104h127l32 201h101l-32 -201h100l32 201h102l-32 -201h81v-104h-97zM353 395h-100l-17 -109h100z" />
    <glyph glyph-name="dollar" unicode="$" horiz-adv-x="548" 
d="M239.5 457.5q27.5 -20.5 84.5 -45.5q60 -28 97.5 -51.5t65 -65t27.5 -102.5q0 -78 -50.5 -134t-139.5 -68v-59h-90v59q-60 9 -112.5 39t-87.5 72l90 112q30 -35 72.5 -58.5t81.5 -23.5q37 0 58.5 18.5t21.5 47.5q0 35 -28 56t-89 48q-58 26 -95 49t-63.5 63.5
t-26.5 100.5q0 72 48.5 126t129.5 67v63h90v-62q53 -8 98.5 -33.5t78.5 -59.5l-84 -111q-27 26 -62.5 44.5t-68.5 18.5t-53.5 -16.5t-20.5 -43.5q0 -30 27.5 -50.5z" />
    <glyph glyph-name="percent" unicode="%" horiz-adv-x="695" 
d="M102 427q-35 21 -56 56t-21 75q0 42 21 77t56 55.5t76 20.5q42 0 77 -20.5t55 -55.5t20 -77q0 -41 -20.5 -75.5t-55 -55.5t-76.5 -21q-41 0 -76 21zM520 700h115l-460 -700h-114zM212 525.5q14 13.5 14 33.5t-14 34t-34 14t-33.5 -14t-13.5 -34q0 -19 14 -33t33 -14
q20 0 34 13.5zM441.5 9q-35.5 21 -56.5 56t-21 76q0 42 21 76.5t56 55t76 20.5q42 0 77 -20t55.5 -55t20.5 -77q0 -41 -20.5 -76t-55.5 -56t-77 -21q-40 0 -75.5 21zM551.5 107.5q13.5 13.5 13.5 33.5t-13.5 34t-34.5 14q-19 0 -32.5 -14t-13.5 -34t13.5 -33.5t32.5 -13.5
q21 0 34.5 13.5z" />
    <glyph glyph-name="ampersand" unicode="&#x26;" horiz-adv-x="623" 
d="M470 0l-32 40q-68 -52 -158 -52q-67 0 -121.5 24t-86 69t-31.5 104q0 65 33.5 109.5t91.5 79.5q-35 44 -54.5 82.5t-19.5 81.5q0 42 21.5 82.5t64 66.5t102.5 26q57 0 98.5 -25.5t63 -66t21.5 -84.5q0 -62 -33 -105.5t-91 -82.5l83 -103q14 43 16 102h134
q0 -126 -56 -220l101 -128h-147zM236.5 479.5q11.5 -20.5 32.5 -45.5q31 20 48 40.5t17 45.5q0 23 -14.5 39.5t-39.5 16.5q-23 0 -39 -17t-16 -39q0 -20 11.5 -40.5zM353 144l-51 63l-61 74q-49 -41 -49 -83q0 -33 25.5 -54.5t62.5 -21.5q40 0 73 22z" />
    <glyph glyph-name="quotesingle" unicode="'" horiz-adv-x="172" 
d="M16 700h140l-20 -273h-103z" />
    <glyph glyph-name="parenleft" unicode="(" horiz-adv-x="285" 
d="M71.5 107.5q-16.5 109.5 -16.5 226.5q0 120 16 227.5t50 222.5h136q-28 -120 -42 -229t-14 -221q0 -214 56 -450h-136q-33 114 -49.5 223.5z" />
    <glyph glyph-name="parenright" unicode=")" horiz-adv-x="285" 
d="M28 -116q56 236 56 450q0 112 -14 221t-42 229h136q34 -115 50 -222.5t16 -227.5q0 -117 -16.5 -226.5t-49.5 -223.5h-136z" />
    <glyph glyph-name="asterisk" unicode="*" horiz-adv-x="307" 
d="M206 629l85 -23l-49 -85l-62 63l22 -86h-97l22 85l-62 -62l-49 85l86 23l-86 23l49 85l62 -62l-22 84h97l-22 -85l62 63l49 -85z" />
    <glyph glyph-name="plus" unicode="+" horiz-adv-x="454" 
d="M419 253h-137v-139h-113v139h-134v110h134v135h113v-135h137v-110z" />
    <glyph glyph-name="comma" unicode="," horiz-adv-x="207" 
d="M48 183h139l-73 -287h-93z" />
    <glyph glyph-name="hyphen" unicode="-" horiz-adv-x="394" 
d="M35 368h324v-122h-324v122z" />
    <glyph glyph-name="period" unicode="." horiz-adv-x="213" 
d="M45.5 16q-24.5 25 -24.5 61t25 61t61 25q35 0 60 -25.5t25 -60.5q0 -36 -25 -61t-60 -25q-37 0 -61.5 25z" />
    <glyph glyph-name="slash" unicode="/" horiz-adv-x="366" 
d="M0 -120l225 920h141l-225 -920h-141z" />
    <glyph glyph-name="zero" unicode="0" horiz-adv-x="559" 
d="M95.5 88.5q-58.5 99.5 -58.5 261.5q0 160 58.5 260.5t184.5 100.5q125 0 183.5 -100.5t58.5 -260.5q0 -162 -58.5 -261.5t-183.5 -99.5q-126 0 -184.5 99.5zM374 350q0 211 -95 211q-52 0 -73 -57t-21 -154q0 -98 21 -154.5t73 -56.5q95 0 95 211z" />
    <glyph glyph-name="one" unicode="1" horiz-adv-x="366" 
d="M304 709v-709h-147v498l-78 -42l-54 126l223 127h56z" />
    <glyph glyph-name="two" unicode="2" horiz-adv-x="555" 
d="M58 55q107 122 198 231l27 31q42 51 62 86t20 74q0 36 -26 62.5t-65 26.5q-44 0 -72.5 -35t-28.5 -86l-138 38q2 59 32.5 112t84 85.5t122.5 32.5q70 0 124.5 -31t84.5 -81.5t30 -108.5q0 -61 -26.5 -113.5t-78.5 -112.5q-29 -36 -89 -108q1 2 -13 -16h212v-142h-460v55z
" />
    <glyph glyph-name="three" unicode="3" horiz-adv-x="568" 
d="M485.5 363q46.5 -60 46.5 -137q0 -63 -31 -117.5t-87.5 -87t-128.5 -32.5q-99 0 -162 52.5t-87 130.5l130 64q13 -43 43.5 -72t73.5 -29q44 0 73 29t29 72q0 42 -30 70t-72 28q-24 0 -42.5 -6.5t-43.5 -20.5l-60 73l3 3l168 173h-233v144h411v-124l-128 -133
q81 -20 127.5 -80z" />
    <glyph glyph-name="four" unicode="4" horiz-adv-x="514" 
d="M494 113h-68v-113h-140v113h-283v115l253 472h170v-456h68v-131zM286 244v274l-131 -274h131z" />
    <glyph glyph-name="five" unicode="5" horiz-adv-x="558" 
d="M406.5 430.5q55.5 -33.5 85.5 -88t30 -116.5q0 -64 -30 -118t-85.5 -86.5t-127.5 -32.5q-92 0 -156.5 51.5t-86.5 130.5l131 59q11 -41 40 -67.5t69 -26.5q42 0 70.5 28.5t28.5 71.5q0 45 -30.5 74.5t-78.5 29.5q-60 0 -106 -46l-94 25l88 381h310v-141l-204 -1l-23 -98
q26 4 41 4q73 0 128.5 -33.5z" />
    <glyph glyph-name="six" unicode="6" horiz-adv-x="561" 
d="M408.5 437q55.5 -32 86 -86.5t30.5 -120.5t-30.5 -121t-86 -87.5t-128.5 -32.5q-71 0 -126.5 32t-86.5 87.5t-31 123.5v1v0q1 56 21.5 109.5t56.5 124.5q4 6 10 18l48 94l60 121h160l-121 -231h9q73 0 128.5 -32zM351.5 164q28.5 29 28.5 71t-28.5 71t-71.5 29t-71 -29
t-28 -71t28 -71t71 -29t71.5 29z" />
    <glyph glyph-name="seven" unicode="7" horiz-adv-x="455" 
d="M452 649l-195 -649h-155l180 559h-271v141h441v-51z" />
    <glyph glyph-name="eight" unicode="8" horiz-adv-x="559" 
d="M499 312.5q23 -44.5 23 -92.5q0 -64 -30.5 -117t-85.5 -83.5t-127 -30.5q-71 0 -126 30.5t-85.5 83.5t-30.5 117q0 48 23 92.5t62 74.5q-25 25 -38.5 58.5t-13.5 72.5q0 50 26.5 94.5t74 71t108.5 26.5t109 -26.5t74.5 -71t26.5 -94.5q0 -39 -13.5 -72.5t-39.5 -59.5
q40 -29 63 -73.5zM230.5 541q-19.5 -19 -19.5 -47q0 -26 19.5 -45.5t48.5 -19.5q31 0 50 19.5t19 45.5q0 28 -19 47t-50 19q-29 0 -48.5 -19zM348.5 162q27.5 28 27.5 67q0 38 -27.5 65.5t-69.5 27.5q-41 0 -68.5 -27.5t-27.5 -65.5t27.5 -66.5t68.5 -28.5q42 0 69.5 28z
" />
    <glyph glyph-name="nine" unicode="9" horiz-adv-x="529" 
d="M503.5 357.5q-20.5 -53.5 -56.5 -124.5q-4 -6 -10 -18l-48 -94l-60 -121h-160l121 231h-9q-73 0 -128.5 32t-86 86.5t-30.5 120.5t30.5 121t86 87.5t128.5 32.5q71 0 126.5 -32t86.5 -87.5t31 -123.5v-1v0q-1 -56 -21.5 -109.5zM209.5 394q28.5 -29 71.5 -29t71 29t28 71
t-28 71t-71 29t-71.5 -29t-28.5 -71t28.5 -71z" />
    <glyph glyph-name="colon" unicode=":" horiz-adv-x="290" 
d="M86.5 16q-24.5 25 -24.5 61t25 61t61 25q35 0 60 -25.5t25 -60.5q0 -36 -25 -61t-60 -25q-37 0 -61.5 25zM86.5 363q-24.5 25 -24.5 61t25 61t61 25q35 0 60 -25.5t25 -60.5q0 -36 -25 -61t-60 -25q-37 0 -61.5 25z" />
    <glyph glyph-name="semicolon" unicode=";" horiz-adv-x="213" 
d="M53 183h139l-73 -287h-93zM45.5 361q-24.5 25 -24.5 61t25 61t61 25q35 0 60 -25.5t25 -60.5q0 -36 -25 -61t-60 -25q-37 0 -61.5 25z" />
    <glyph glyph-name="less" unicode="&#x3c;" horiz-adv-x="424" 
d="M389 427l-205 -111l205 -112v-138l-354 216v71l354 215v-141z" />
    <glyph glyph-name="equal" unicode="=" horiz-adv-x="454" 
d="M35 439h384v-110h-384v110zM35 281h384v-110h-384v110z" />
    <glyph glyph-name="greater" unicode="&#x3e;" horiz-adv-x="424" 
d="M389 353v-71l-354 -216v138l205 112l-205 111v141z" />
    <glyph glyph-name="question" unicode="?" horiz-adv-x="473" 
d="M173 371q66 7 103.5 37.5t37.5 74.5q0 35 -21.5 57t-55.5 22q-36 0 -59.5 -24.5t-30.5 -64.5l-136 36q12 89 72 146.5t155 57.5q70 0 121 -29.5t77.5 -79.5t26.5 -109q0 -71 -44 -128.5t-116 -77.5l-8 -83h-111zM177.5 16q-24.5 25 -24.5 61t25 61t61 25q35 0 60 -25.5
t25 -60.5q0 -36 -25 -61t-60 -25q-37 0 -61.5 25z" />
    <glyph glyph-name="at" unicode="@" horiz-adv-x="930" 
d="M681 677.5q95 -56.5 147.5 -152t52.5 -207.5q0 -68 -22.5 -118t-62 -76.5t-91.5 -26.5q-48 0 -83 21.5t-51 59.5q-22 -36 -56 -55.5t-79 -19.5q-54 0 -97 27t-67.5 74.5t-24.5 106.5t24.5 106.5t67.5 74.5t97 27q78 0 123 -58v43h103l-1 -225q0 -39 14 -58.5t38 -19.5
q29 0 44.5 29.5t15.5 87.5q0 83 -39.5 154t-109.5 113t-159 42t-159 -42t-109.5 -113t-39.5 -154t39.5 -154t109.5 -113t159 -42q113 0 194 61l2 -122q-89 -46 -196 -46q-121 0 -216 56.5t-147.5 151.5t-52.5 208q0 112 52.5 207.5t147.5 152t216 56.5t216 -56.5zM531 236
q28 31 28 76q0 44 -28.5 75.5t-71.5 31.5t-71 -31.5t-28 -75.5t28 -75.5t71 -31.5q44 0 72 31z" />
    <glyph glyph-name="A" unicode="A" horiz-adv-x="659" 
d="M455 117h-249l-42 -117h-161l280 707h93l280 -707h-160zM408 248l-78 220l-78 -220h156z" />
    <glyph glyph-name="B" unicode="B" horiz-adv-x="608" 
d="M538 306.5q29 -45.5 29 -105.5q0 -52 -25.5 -98t-75 -74.5t-118.5 -28.5h-279v700h240q69 0 117 -25.5t71.5 -68t23.5 -93.5q0 -83 -63 -136q51 -25 80 -70.5zM216 558v-139h74q37 0 59.5 20t22.5 50q0 31 -21.5 50t-59.5 19h-75zM385.5 163.5q23.5 22.5 23.5 55.5
q0 32 -24 54t-63 22h-106v-154h106q40 0 63.5 22.5z" />
    <glyph glyph-name="C" unicode="C" horiz-adv-x="605" 
d="M222.5 36q-82.5 48 -128 130.5t-45.5 183.5t45.5 183.5t128 130.5t188.5 48q89 0 159 -34l1 -161q-28 23 -67.5 36.5t-88.5 13.5q-62 0 -111 -29.5t-76.5 -79.5t-27.5 -108t27.5 -108t76.5 -79.5t111 -29.5q49 0 89 13.5t67 36.5l-1 -162q-71 -33 -159 -33
q-106 0 -188.5 48z" />
    <glyph glyph-name="D" unicode="D" horiz-adv-x="678" 
d="M462.5 654q80.5 -46 123.5 -125.5t43 -176.5q0 -98 -43 -178.5t-123.5 -127t-187.5 -46.5h-206v700h206q107 0 187.5 -46zM383.5 170q45.5 28 70 76t24.5 106t-24 105t-70 74t-107 27h-61v-416h61q61 0 106.5 28z" />
    <glyph glyph-name="E" unicode="E" horiz-adv-x="525" 
d="M216 558v-138h202v-132h-202v-146h267v-142h-414v700h414v-142h-267z" />
    <glyph glyph-name="F" unicode="F" horiz-adv-x="480" 
d="M216 558v-165h182v-138h-182v-255h-147v700h404v-142h-257z" />
    <glyph glyph-name="G" unicode="G" horiz-adv-x="740" 
d="M684 391v-299q-47 -49 -118.5 -77t-154.5 -28q-108 0 -190.5 49.5t-127 132.5t-44.5 181t44.5 181t127 132.5t190.5 49.5q79 0 145 -27.5t114 -77.5l-101 -106q-29 30 -69.5 47t-88.5 17q-62 0 -110 -29.5t-74.5 -79t-26.5 -107.5q0 -59 26.5 -108.5t75 -78.5t110.5 -29
q73 0 131 32v101h-144v124h285z" />
    <glyph glyph-name="H" unicode="H" horiz-adv-x="699" 
d="M630 700v-700h-147v279h-267v-279h-147v700h147v-279h267v279h147z" />
    <glyph glyph-name="I" unicode="I" horiz-adv-x="285" 
d="M69 700h147v-700h-147v700z" />
    <glyph glyph-name="J" unicode="J" horiz-adv-x="455" 
d="M93 8.5q-47 20.5 -82 56.5l85 112q20 -21 42.5 -32.5t43.5 -11.5q38 0 54.5 23t16.5 64v480h147v-487q0 -105 -51.5 -165t-155.5 -60q-53 0 -100 20.5z" />
    <glyph glyph-name="K" unicode="K" horiz-adv-x="616" 
d="M432 0l-216 308v-308h-147v700h147v-328l213 328h171l-241 -357l249 -343h-176z" />
    <glyph glyph-name="L" unicode="L" horiz-adv-x="460" 
d="M449 142v-142h-380v700h147v-558h233z" />
    <glyph glyph-name="M" unicode="M" horiz-adv-x="842" 
d="M676 0l-78 368l-169 -375h-24l-166 371l-71 -364h-154l153 709h63l187 -434l187 434h64l160 -709h-152z" />
    <glyph glyph-name="N" unicode="N" horiz-adv-x="732" 
d="M663 700v-709h-78l-369 421v-412h-147v707h78l370 -432v425h146z" />
    <glyph glyph-name="O" unicode="O" horiz-adv-x="821" 
d="M221.5 36.5q-82.5 49.5 -127.5 132.5t-45 181t45 181t127.5 132.5t189.5 49.5t189.5 -49.5t127.5 -133t45 -180.5q0 -98 -45 -181t-127.5 -132.5t-189.5 -49.5t-189.5 49.5zM521 163q48 30 74.5 80t26.5 107t-26.5 106.5t-74.5 79.5t-110 30t-110 -29.5t-74.5 -79.5
t-26.5 -107t26.5 -107t74.5 -80t110 -30t110 30z" />
    <glyph glyph-name="P" unicode="P" horiz-adv-x="544" 
d="M415 666.5q56 -33.5 85.5 -88t29.5 -115.5q0 -66 -29 -119.5t-84.5 -84.5t-130.5 -31h-70v-228h-147v700h216q74 0 130 -33.5zM351 395q28 26 28 68q0 40 -28.5 67.5t-72.5 27.5h-62v-189h62q45 0 73 26z" />
    <glyph glyph-name="Q" unicode="Q" horiz-adv-x="833" 
d="M617 0l-25 31q-82 -44 -181 -44q-107 0 -189.5 49.5t-127.5 132.5t-45 181t45 181t127.5 132.5t189.5 49.5t189.5 -49.5t127.5 -133t45 -180.5q0 -68 -22.5 -130t-63.5 -110l90 -110h-160zM496 150l-125 154h157l60 -74q34 54 34 120q0 57 -26.5 106.5t-74.5 79.5
t-110 30t-110 -29.5t-74.5 -79.5t-26.5 -107t26.5 -107t74.5 -80t110 -30q45 0 85 17z" />
    <glyph glyph-name="R" unicode="R" horiz-adv-x="591" 
d="M278 237h-62v-237h-147v700h228q72 0 127 -32.5t84.5 -86t29.5 -113.5q0 -67 -32 -121.5t-90 -83.5l154 -263h-168zM216 378h73q44 0 71.5 25t27.5 65q0 39 -27.5 64.5t-71.5 25.5h-73v-180z" />
    <glyph glyph-name="S" unicode="S" horiz-adv-x="548" 
d="M141 20q-66 32 -107 82l90 112q30 -35 72.5 -58.5t81.5 -23.5q37 0 58.5 18.5t21.5 47.5q0 35 -28 56t-89 48q-58 26 -95 49t-63.5 63.5t-26.5 100.5q0 54 28 99t79 71.5t117 26.5t123.5 -27.5t97.5 -68.5l-84 -111q-27 26 -62.5 44.5t-68.5 18.5t-53.5 -16.5
t-20.5 -43.5q0 -30 27.5 -50.5t84.5 -45.5q60 -28 97.5 -51.5t65 -65t27.5 -102.5q0 -57 -28 -104t-81.5 -74t-125.5 -27t-138 32z" />
    <glyph glyph-name="T" unicode="T" horiz-adv-x="492" 
d="M481 558h-159v-558h-147v558h-164v142h470v-142z" />
    <glyph glyph-name="U" unicode="U" horiz-adv-x="627" 
d="M124 57.5q-69 69.5 -69 187.5v455h147v-440q0 -62 30 -94.5t82 -32.5t82 32.5t30 94.5v440h146v-455q0 -119 -68.5 -188t-189.5 -69t-190 69.5z" />
    <glyph glyph-name="V" unicode="V" horiz-adv-x="636" 
d="M633 700l-268 -708h-94l-268 708h157l158 -469l158 469h157z" />
    <glyph glyph-name="W" unicode="W" horiz-adv-x="1055" 
d="M1053 700l-327 -712h-80l-119 266l-119 -266h-79l-327 712l159 1l216 -489l76 166l-140 322l142 1l73 -186l72 186l143 -1l-142 -322l76 -166l217 489z" />
    <glyph glyph-name="X" unicode="X" horiz-adv-x="636" 
d="M455 0l-137 245l-137 -245h-174l213 348l-205 352h171l132 -248l132 248h170l-205 -352l214 -348h-174z" />
    <glyph glyph-name="Y" unicode="Y" horiz-adv-x="607" 
d="M379 235v-235h-150v233l-226 467h164l137 -313l136 313h164z" />
    <glyph glyph-name="Z" unicode="Z" horiz-adv-x="522" 
d="M494 689l-252 -547h240v-142h-454v13l256 545h-253v142h463v-11z" />
    <glyph glyph-name="bracketleft" unicode="[" horiz-adv-x="318" 
d="M207 651v-633h83v-134h-221v900h221v-133h-83z" />
    <glyph glyph-name="backslash" unicode="\" horiz-adv-x="366" 
d="M0 800h141l225 -920h-141z" />
    <glyph glyph-name="bracketright" unicode="]" horiz-adv-x="318" 
d="M249 -116h-221v134h83v633h-83v133h221v-900z" />
    <glyph glyph-name="asciicircum" unicode="^" horiz-adv-x="487" 
d="M326 410l-82 175l-83 -175h-145l154 290h148l153 -290h-145z" />
    <glyph glyph-name="underscore" unicode="_" horiz-adv-x="479" 
d="M21 -30h438v-92h-438v92z" />
    <glyph glyph-name="grave" unicode="`" horiz-adv-x="265" 
d="M16 762h150l83 -189h-111z" />
    <glyph glyph-name="a" unicode="a" horiz-adv-x="615" 
d="M554 500v-500h-144v64q-58 -71 -150 -71q-67 0 -118 34t-79 93t-28 131t28 130.5t79 92.5t118 34q92 0 150 -71v63h144zM377 168q32 35 32 83t-32 83t-80 35q-49 0 -80 -34t-31 -84t31 -84t80 -34q48 0 80 35z" />
    <glyph glyph-name="b" unicode="b" horiz-adv-x="615" 
d="M473 474q51 -34 79 -93t28 -131t-28 -130.5t-79 -92.5t-118 -34q-46 0 -84 18.5t-65 51.5v-63h-144v800h144v-362q27 33 65 51.5t84 18.5q67 0 118 -34zM398 166q31 34 31 84t-31 84t-80 34q-48 0 -80 -35t-32 -83t32 -83t80 -35q49 0 80 34z" />
    <glyph glyph-name="c" unicode="c" horiz-adv-x="487" 
d="M160.5 26q-59.5 35 -92 94t-32.5 130t32.5 130t92 94t135.5 35q47 0 82 -10.5t66 -29.5v-154q-67 50 -138 50q-54 0 -89 -33t-35 -82t35 -82t89 -33q71 0 138 50v-154q-31 -19 -66 -29.5t-82 -10.5q-76 0 -135.5 35z" />
    <glyph glyph-name="d" unicode="d" horiz-adv-x="615" 
d="M553 800v-800h-144v63q-27 -33 -65 -51.5t-84 -18.5q-67 0 -118 34t-79 93t-28 131t28 130.5t79 92.5t118 34q46 0 84 -18.5t65 -51.5v362h144zM377 168q32 35 32 83t-32 83t-80 35q-49 0 -80 -34t-31 -84t31 -84t80 -34q48 0 80 35z" />
    <glyph glyph-name="e" unicode="e" horiz-adv-x="557" 
d="M413 472q54 -36 82.5 -97.5t28.5 -136.5q0 -23 -1 -34h-343q13 -40 46.5 -61.5t80.5 -21.5q75 0 158 40l1 -129q-72 -40 -170 -40q-79 0 -138 34.5t-90.5 93.5t-31.5 130q0 70 31 129t88 94t130 35q74 0 128 -36zM219 353q-28 -22 -39 -59h203q-11 38 -37 59.5t-61 21.5
q-38 0 -66 -22z" />
    <glyph glyph-name="f" unicode="f" horiz-adv-x="348" 
d="M244.5 641q-10.5 -11 -10.5 -32v-109h101v-135h-101v-365h-144v365h-65v135h65v146q0 75 35.5 117.5t104.5 42.5q29 0 57.5 -6.5t47.5 -16.5v-146q-36 15 -63 15q-17 0 -27.5 -11z" />
    <glyph glyph-name="g" unicode="g" horiz-adv-x="615" 
d="M553 27q0 -74 -34.5 -127.5t-92.5 -81t-127 -27.5q-53 0 -98.5 12t-93.5 34l1 136q88 -55 166 -55q62 0 99.5 33t37.5 100v14q-27 -34 -65.5 -53t-85.5 -19q-67 0 -118 34t-79 93t-28 131t28 130.5t79 92.5t118 34q46 0 84 -18.5t65 -51.5v62h143zM377 168q32 35 32 83
t-32 83t-80 35q-49 0 -80 -34t-31 -84t31 -84t80 -34q48 0 80 35z" />
    <glyph glyph-name="h" unicode="h" horiz-adv-x="577" 
d="M473.5 455.5q47.5 -54.5 47.5 -152.5v-303h-144v270q0 50 -24 78t-62 28t-61.5 -28t-23.5 -78v-270h-144v800h144v-361q25 33 62 52t83 19q75 0 122.5 -54.5z" />
    <glyph glyph-name="i" unicode="i" horiz-adv-x="305" 
d="M88.5 602.5q-26.5 26.5 -26.5 64.5t26 64t64 26q39 0 65 -26t26 -64t-26 -64.5t-65 -26.5q-37 0 -63.5 26.5zM81 500h144v-500h-144v500z" />
    <glyph glyph-name="j" unicode="j" horiz-adv-x="305" 
d="M88.5 602.5q-26.5 26.5 -26.5 64.5t26 64t64 26q39 0 65 -26t26 -64t-26 -64.5t-65 -26.5q-37 0 -63.5 26.5zM80 500h144v-700h-144v700z" />
    <glyph glyph-name="k" unicode="k" horiz-adv-x="548" 
d="M365 0l-159 219v-219h-144v800h144v-524l152 224h169l-179 -252l194 -248h-177z" />
    <glyph glyph-name="l" unicode="l" horiz-adv-x="268" 
d="M62 800h144v-800h-144v800z" />
    <glyph glyph-name="m" unicode="m" horiz-adv-x="887" 
d="M785 455q46 -55 46 -155v-300h-143v267q0 50 -23.5 79.5t-61.5 29.5t-61.5 -29.5t-23.5 -79.5v-267h-143v267q0 50 -23.5 79.5t-61.5 29.5t-61 -29.5t-23 -79.5v-267h-144v500h144v-64q26 34 62.5 54t80.5 20q48 0 85.5 -23t59.5 -67q28 42 70 66t96 24q79 0 125 -55z
" />
    <glyph glyph-name="n" unicode="n" horiz-adv-x="576" 
d="M472.5 455.5q47.5 -54.5 47.5 -152.5v-303h-144v270q0 50 -24 78t-62 28q-34 0 -57 -23t-27 -64v-289h-144v500h144v-60q25 32 62 51t82 19q75 0 122.5 -54.5z" />
    <glyph glyph-name="o" unicode="o" horiz-adv-x="589" 
d="M161 25.5q-59 35.5 -92 95t-33 129.5t33 130t92 95t133 35q75 0 134 -35t92 -95t33 -130t-33 -129.5t-92.5 -95t-133.5 -35.5t-133 35.5zM375 168q31 34 31 83q0 48 -31 81.5t-81 33.5q-48 0 -79.5 -33.5t-31.5 -81.5t31.5 -82.5t79.5 -34.5q50 0 81 34z" />
    <glyph glyph-name="p" unicode="p" horiz-adv-x="615" 
d="M473 474q51 -34 79 -93t28 -131t-28 -130.5t-79 -92.5t-118 -34q-92 0 -150 71v-264h-144v700h144v-63q58 71 150 71q67 0 118 -34zM398 166q31 34 31 84t-31 84t-80 34q-48 0 -80 -35t-32 -83t32 -83t80 -35q49 0 80 34z" />
    <glyph glyph-name="q" unicode="q" horiz-adv-x="615" 
d="M554 500v-700h-144v264q-58 -71 -150 -71q-67 0 -118 34t-79 92.5t-28 130.5t28 131t79 93t118 34q92 0 150 -71v63h144zM377 167q32 35 32 83t-32 83t-80 35q-49 0 -80 -34t-31 -84t31 -84t80 -34q48 0 80 35z" />
    <glyph glyph-name="r" unicode="r" horiz-adv-x="358" 
d="M266.5 487.5q35.5 23.5 78.5 23.5v-166q-22 5 -40 5q-44 0 -71.5 -25.5t-27.5 -82.5v-242h-144v500h144v-75q25 39 60.5 62.5z" />
    <glyph glyph-name="s" unicode="s" horiz-adv-x="449" 
d="M123.5 12q-54.5 21 -90.5 55l70 103q28 -23 62.5 -38.5t63.5 -15.5q21 0 33.5 9t12.5 23q0 17 -17.5 27.5t-55.5 23.5q-46 17 -76.5 33t-53 47t-22.5 80q0 42 22 76t62 54.5t94 20.5q51 0 97 -20t75 -48l-68 -102q-22 16 -50 29.5t-52 13.5q-19 0 -30.5 -8.5t-11.5 -21.5
q0 -16 17.5 -26t55.5 -23q47 -17 78 -33.5t54 -47.5t23 -80q0 -43 -23.5 -77.5t-66 -54.5t-98.5 -20q-50 0 -104.5 21z" />
    <glyph glyph-name="t" unicode="t" horiz-adv-x="345" 
d="M332 365h-100v-365h-144v365h-63v135h63v134h144v-134h100v-135z" />
    <glyph glyph-name="u" unicode="u" horiz-adv-x="576" 
d="M514 500v-500h-144v60q-25 -32 -62 -51t-82 -19q-75 0 -122.5 54.5t-47.5 152.5v303h144v-270q0 -50 24 -78t62 -28q34 0 57 23t27 64v289h144z" />
    <glyph glyph-name="v" unicode="v" horiz-adv-x="526" 
d="M519 500l-188 -502h-135l-190 502h152l106 -324l106 324h149z" />
    <glyph glyph-name="w" unicode="w" horiz-adv-x="878" 
d="M874 500l-231 -500h-136l-69 161l-67 -161h-138l-230 500h152l156 -352l53 124l-101 228h127l49 -125l49 125h127l-103 -228l55 -124l156 352h151z" />
    <glyph glyph-name="x" unicode="x" horiz-adv-x="541" 
d="M366 0l-95 158l-96 -158h-169l174 248l-172 252h161l102 -164l101 164h161l-173 -252l175 -248h-169z" />
    <glyph glyph-name="y" unicode="y" horiz-adv-x="548" 
d="M541 500l-273 -700h-146l80 198l-196 502h153l114 -343l116 343h152z" />
    <glyph glyph-name="z" unicode="z" horiz-adv-x="469" 
d="M450 488l-206 -353h197v-135h-419v14l206 352h-207v134h429v-12z" />
    <glyph glyph-name="braceleft" unicode="{" horiz-adv-x="314" 
d="M209.5 380.5q-9.5 -27.5 -33.5 -46.5q23 -19 33 -47t10 -65v-108q0 -39 21 -67.5t63 -31.5v-132q-102 0 -162 57.5t-60 165.5v136q0 27 -12.5 50t-35.5 39v6q23 16 35.5 39t12.5 49v136q0 108 60 165.5t162 57.5v-132q-42 -3 -63 -31.5t-21 -67.5v-108q0 -37 -9.5 -64.5z
" />
    <glyph glyph-name="bar" unicode="|" horiz-adv-x="285" 
d="M69 800h147v-900h-147v900z" />
    <glyph glyph-name="braceright" unicode="}" horiz-adv-x="314" 
d="M245.5 376q12.5 -23 35.5 -39v-6q-23 -16 -35.5 -39t-12.5 -50v-136q0 -108 -60 -165.5t-162 -57.5v132q42 3 63 31.5t21 67.5v108q0 37 10 65t33 47q-24 19 -33.5 46.5t-9.5 64.5v108q0 39 -21 67.5t-63 31.5v132q102 0 162 -57.5t60 -165.5v-136q0 -26 12.5 -49z" />
    <glyph glyph-name="asciitilde" unicode="~" horiz-adv-x="395" 
d="M35 356q41 31 93 31q22 0 37 -4t38 -13q20 -8 35 -12t34 -4q49 0 88 33v-121q-39 -31 -93 -31q-22 0 -37 4t-38 13q-21 8 -35 12t-33 4q-48 0 -89 -33v121z" />
    <glyph glyph-name="exclamdown" unicode="&#xa1;" horiz-adv-x="276" 
d="M198.5 527q24.5 -25 24.5 -61t-25 -61t-61 -25q-35 0 -60 25.5t-25 60.5q0 36 25 61t60 25q37 0 61.5 -25zM223 -157h-167l28 491h111z" />
    <glyph glyph-name="cent" unicode="&#xa2;" horiz-adv-x="487" 
d="M217 432q-35 -33 -35 -82t35 -82t89 -33q71 0 138 50v-154q-55 -35 -124 -39v-92h-90v98q-88 21 -141 91t-53 161t53 161t141 91v98h90v-92q69 -4 124 -39v-154q-67 50 -138 50q-54 0 -89 -33z" />
    <glyph glyph-name="sterling" unicode="&#xa3;" horiz-adv-x="536" 
d="M238 142h245v-142h-439v40q42 52 65 96t23 86q0 10 -1 15h-96v86h69l-14 25q-23 39 -35 70.5t-12 76.5q0 57 27.5 107t79 80.5t120.5 30.5q66 0 116.5 -30t79.5 -80t35 -111l-137 -38q-5 46 -30.5 77t-63.5 31q-34 0 -56.5 -23.5t-22.5 -58.5q0 -28 7.5 -49.5t24.5 -54.5
q18 -34 25 -53h132v-86h-120q-3 -51 -22 -95z" />
    <glyph glyph-name="currency" unicode="&#xa4;" horiz-adv-x="577" 
d="M505 203l62 -62l-64 -64l-63 63q-65 -43 -146 -43q-86 0 -153 48l-68 -68l-64 64l70 70q-43 65 -43 146q0 80 42 145l-69 69l64 64l67 -67q66 49 154 49q84 0 147 -44l62 62l64 -64l-61 -61q47 -67 47 -153t-48 -154zM375 275q31 34 31 83q0 48 -31 81.5t-81 33.5
q-48 0 -79.5 -33.5t-31.5 -81.5t31.5 -82.5t79.5 -34.5q50 0 81 34z" />
    <glyph glyph-name="yen" unicode="&#xa5;" horiz-adv-x="607" 
d="M418 316h102v-84h-141v-41h141v-84h-141v-107h-150v107h-126v84h126v41h-126v84h86l-186 384h164l137 -313l136 313h164z" />
    <glyph glyph-name="brokenbar" unicode="&#xa6;" horiz-adv-x="285" 
d="M69 800h147v-365h-147v365zM69 265h147v-365h-147v365z" />
    <glyph glyph-name="section" unicode="&#xa7;" horiz-adv-x="504" 
d="M221.5 478.5q23.5 -16.5 74.5 -37.5q54 -22 89 -42.5t60 -57t25 -92.5q0 -61 -33 -105q28 -40 28 -98q-1 -52 -27 -94t-74.5 -66t-113.5 -24q-64 0 -121.5 28.5t-94.5 73.5l80 109q31 -34 66 -54.5t69 -20.5q31 0 50.5 17t19.5 43q0 32 -25.5 50.5t-79.5 39.5
q-52 21 -85 40.5t-56.5 55t-23.5 90.5t35 101q-30 42 -30 99q0 49 27 89.5t74 64t106 23.5t109.5 -24.5t86.5 -61.5l-76 -106q-23 23 -55.5 39.5t-60.5 16.5q-29 0 -48 -15.5t-19 -38.5q0 -26 23.5 -42.5zM196 295.5q14 -16.5 35 -27.5t60 -28l41 -18q4 9 4 23q0 26 -15 44
t-37 29.5t-62 28.5l-33 14q-7 -14 -7 -27q0 -22 14 -38.5z" />
    <glyph glyph-name="dieresis" unicode="&#xa8;" horiz-adv-x="414" 
d="M42.5 602.5q-26.5 26.5 -26.5 64.5t26 64t64 26q39 0 65 -26t26 -64t-26 -64.5t-65 -26.5q-37 0 -63.5 26.5zM243.5 602.5q-26.5 26.5 -26.5 64.5t26.5 64t64.5 26t64 -26t26 -64t-26 -64.5t-64 -26.5t-64.5 26.5z" />
    <glyph glyph-name="copyright" unicode="&#xa9;" horiz-adv-x="816" 
d="M220 35.5q-82 49.5 -126.5 133t-44.5 181.5t44.5 181t126.5 132.5t189 49.5q106 0 187.5 -49.5t126.5 -133t45 -180.5q0 -98 -45 -181.5t-126.5 -133t-187.5 -49.5q-107 0 -189 49.5zM546 115.5q60 37.5 93.5 100t33.5 134.5t-33.5 134.5t-93.5 99.5t-137 37t-137.5 -37
t-94 -99.5t-33.5 -134.5t33.5 -134.5t94 -100t137.5 -37.5t137 37.5zM322 194.5q-41 24.5 -63 66t-22 90.5t22 90t63 65.5t93 24.5q68 0 119 -44v-105q-23 22 -52.5 36.5t-60.5 14.5q-39 0 -63.5 -24t-24.5 -58t24.5 -58t63.5 -24q31 0 62.5 16t50.5 35v-106
q-49 -44 -119 -44q-52 0 -93 24.5z" />
    <glyph glyph-name="ordfeminine" unicode="&#xaa;" horiz-adv-x="316" 
d="M300 700v-245h-87v32q-15 -18 -35.5 -28t-44.5 -10q-53 0 -85 37t-32 92q0 54 32 91t85 37q24 0 44.5 -10t35.5 -28v32h87zM199 543.5q14 14.5 14 34.5t-14 34.5t-33 14.5q-21 0 -34 -14.5t-13 -34.5t13 -34.5t34 -14.5q19 0 33 14.5z" />
    <glyph glyph-name="guillemotleft" unicode="&#xab;" horiz-adv-x="564" 
d="M168 290l163 -210h-139l-157 208v4l157 208h139zM394 290l163 -210h-139l-157 208v4l157 208h139z" />
    <glyph glyph-name="logicalnot" unicode="&#xac;" horiz-adv-x="502" 
d="M440 90h-121v165h-284v121h405v-286z" />
    <glyph glyph-name="uni00AD" unicode="&#xad;" horiz-adv-x="394" 
d="M35 368h324v-122h-324v122z" />
    <glyph glyph-name="registered" unicode="&#xae;" horiz-adv-x="816" 
d="M596.5 663.5q81.5 -49.5 126.5 -133t45 -180.5q0 -98 -45 -181.5t-126.5 -133t-187.5 -49.5q-107 0 -189 49.5t-126.5 133t-44.5 181.5t44.5 181t126.5 132.5t189 49.5q106 0 187.5 -49.5zM546 115.5q60 37.5 93.5 100t33.5 134.5t-33.5 134.5t-93.5 99.5t-137 37
t-137.5 -37t-94 -99.5t-33.5 -134.5t33.5 -134.5t94 -100t137.5 -37.5t137 37.5zM541.5 345q-17.5 -29 -48.5 -45l78 -130h-98l-58 112h-42v-114h-86v371h128q65 0 104.5 -36.5t39.5 -92.5q0 -36 -17.5 -65zM373 365l45 1q22 0 35.5 12t13.5 32t-13.5 32t-35.5 12h-45v-89z
" />
    <glyph glyph-name="macron" unicode="&#xaf;" horiz-adv-x="354" 
d="M16 712h322v-104h-322v104z" />
    <glyph glyph-name="degree" unicode="&#xb0;" horiz-adv-x="349" 
d="M95.5 419q-36.5 22 -58 58.5t-21.5 78.5q0 43 21.5 79.5t58 57.5t78.5 21q44 0 80.5 -21t57.5 -57.5t21 -79.5q0 -42 -21 -79t-57.5 -58.5t-80.5 -21.5q-42 0 -78.5 22zM209.5 520.5q14.5 14.5 14.5 35.5q0 22 -14 35.5t-36 13.5q-20 0 -34.5 -14t-14.5 -35
q0 -20 14.5 -35t34.5 -15q21 0 35.5 14.5z" />
    <glyph glyph-name="plusminus" unicode="&#xb1;" horiz-adv-x="417" 
d="M382 434v-111h-120v-118h-107v118h-120v111h120v118h107v-118h120zM35 159h347v-101h-347v101z" />
    <glyph glyph-name="uni00B2" unicode="&#xb2;" horiz-adv-x="271" 
d="M25 531l97 125q16 22 22.5 32t6.5 19t-5.5 15t-14.5 6q-20 0 -27 -29l-89 35q6 39 39 67t79 28q52 0 84.5 -30t32.5 -74q0 -34 -14.5 -58.5t-44.5 -61.5l-11 -16h72v-89h-227v31z" />
    <glyph glyph-name="uni00B3" unicode="&#xb3;" horiz-adv-x="270" 
d="M234.5 661q17.5 -26 17.5 -59q0 -44 -32.5 -76t-86.5 -32q-43 0 -74.5 22.5t-43.5 61.5l85 35q4 -12 13 -19.5t20 -7.5q12 0 19.5 7.5t7.5 17.5q0 11 -7.5 18.5t-19.5 7.5q-7 0 -17 -5l-51 46l58 55h-92v89h203v-80l-48 -42q31 -13 48.5 -39z" />
    <glyph glyph-name="acute" unicode="&#xb4;" horiz-adv-x="265" 
d="M16 573l83 189h150l-122 -189h-111z" />
    <glyph glyph-name="uni00B5" unicode="&#xb5;" horiz-adv-x="576" 
d="M514 500v-500h-144v60q-25 -32 -62 -51t-82 -19q-9 0 -27 2v-192h-143v700h144v-270q0 -50 24 -78t62 -28q34 0 57 23t27 64v289h144z" />
    <glyph glyph-name="paragraph" unicode="&#xb6;" horiz-adv-x="675" 
d="M396 -129h-147v366h-1q-71 0 -124 31t-81.5 83t-28.5 115q0 60 28 114t81.5 87t124.5 33h148v-829zM606 700v-829h-147v829h147z" />
    <glyph glyph-name="periodcentered" unicode="&#xb7;" horiz-adv-x="296" 
d="M86.5 266q-24.5 25 -24.5 61t25 61t61 25q35 0 60 -25.5t25 -60.5q0 -36 -25 -61t-60 -25q-37 0 -61.5 25z" />
    <glyph glyph-name="cedilla" unicode="&#xb8;" horiz-adv-x="239" 
d="M202 -54.5q21 -22.5 21 -56.5q0 -44 -32 -71t-83 -27q-54 0 -92 22v104q41 -26 79 -26q17 0 27.5 6.5t10.5 15.5q0 10 -9.5 15.5t-24.5 5.5q-21 0 -42 -7l-2 2l26 77h73l-4 -32q31 -6 52 -28.5z" />
    <glyph glyph-name="uni00B9" unicode="&#xb9;" horiz-adv-x="217" 
d="M180 826v-326h-92v194l-36 -15l-33 81l130 66h31z" />
    <glyph glyph-name="ordmasculine" unicode="&#xba;" horiz-adv-x="288" 
d="M51.5 487q-35.5 38 -35.5 91t35.5 90.5t92.5 37.5t92.5 -37.5t35.5 -90.5t-35.5 -91t-92.5 -38t-92.5 38zM177 544.5q13 13.5 13 33.5q0 19 -13 33t-33 14q-19 0 -32.5 -14t-13.5 -33q0 -20 13.5 -33.5t32.5 -13.5q20 0 33 13.5z" />
    <glyph glyph-name="guillemotright" unicode="&#xbb;" horiz-adv-x="564" 
d="M146 80h-139l163 210l-163 210h139l157 -208v-4zM529 292v-4l-157 -208h-139l163 210l-163 210h139z" />
    <glyph glyph-name="onequarter" unicode="&#xbc;" horiz-adv-x="592" 
d="M180 704v-326h-92v194l-36 -15l-33 81l130 66h31zM458 700h89l-399 -700h-89zM577 40h-30v-40h-89v40h-134v63l106 219h117v-198h30v-84zM458 124v87l-36 -87h36z" />
    <glyph glyph-name="onehalf" unicode="&#xbd;" horiz-adv-x="642" 
d="M180 704v-326h-92v194l-36 -15l-33 81l130 66h31zM458 700h89l-399 -700h-89zM396 31l97 125q16 22 22.5 32t6.5 19t-5.5 15t-14.5 6q-20 0 -27 -29l-89 35q6 39 39 67t79 28q52 0 84.5 -30t32.5 -74q0 -34 -14.5 -58.5t-44.5 -61.5l-11 -16h72v-89h-227v31z" />
    <glyph glyph-name="threequarters" unicode="&#xbe;" horiz-adv-x="628" 
d="M234.5 539q17.5 -26 17.5 -59q0 -44 -32.5 -76t-86.5 -32q-43 0 -74.5 22.5t-43.5 61.5l85 35q4 -12 13 -19.5t20 -7.5q12 0 19.5 7.5t7.5 17.5q0 11 -7.5 18.5t-19.5 7.5q-7 0 -17 -5l-51 46l58 55h-92v89h203v-80l-48 -42q31 -13 48.5 -39zM494 700h89l-399 -700h-89z
M613 40h-30v-40h-89v40h-134v63l106 219h117v-198h30v-84zM494 124v87l-36 -87h36z" />
    <glyph glyph-name="questiondown" unicode="&#xbf;" horiz-adv-x="483" 
d="M305.5 526q24.5 -25 24.5 -61t-25 -61t-61 -25q-35 0 -60 25.5t-25 60.5q0 36 25 61t60 25q37 0 61.5 -25zM310 171q-66 -7 -103.5 -37.5t-37.5 -74.5q0 -35 21.5 -57t55.5 -22q36 0 59.5 24.5t30.5 64.5l136 -36q-12 -89 -72 -146.5t-155 -57.5q-70 0 -121 29.5
t-77.5 79.5t-26.5 109q0 71 44 128.5t116 77.5l8 83h111z" />
    <glyph glyph-name="Agrave" unicode="&#xc0;" horiz-adv-x="659" 
d="M455 117h-249l-42 -117h-161l280 707h93l280 -707h-160zM408 248l-78 220l-78 -220h156zM153 962h150l83 -189h-111z" />
    <glyph glyph-name="Aacute" unicode="&#xc1;" horiz-adv-x="659" 
d="M455 117h-249l-42 -117h-161l280 707h93l280 -707h-160zM408 248l-78 220l-78 -220h156zM272 773l83 189h150l-122 -189h-111z" />
    <glyph glyph-name="Acircumflex" unicode="&#xc2;" horiz-adv-x="659" 
d="M455 117h-249l-42 -117h-161l280 707h93l280 -707h-160zM408 248l-78 220l-78 -220h156zM380 772l-50 102l-50 -102h-135l120 189h129l121 -189h-135z" />
    <glyph glyph-name="Atilde" unicode="&#xc3;" horiz-adv-x="659" 
d="M455 117h-249l-42 -117h-161l280 707h93l280 -707h-160zM408 248l-78 220l-78 -220h156zM167 907q41 31 93 31q22 0 37 -4t38 -13q20 -8 35 -12t34 -4q49 0 88 33v-121q-39 -31 -93 -31q-22 0 -37 4t-38 13q-21 8 -35 12t-33 4q-48 0 -89 -33v121z" />
    <glyph glyph-name="Adieresis" unicode="&#xc4;" horiz-adv-x="659" 
d="M455 117h-249l-42 -117h-161l280 707h93l280 -707h-160zM408 248l-78 220l-78 -220h156zM165.5 802.5q-26.5 26.5 -26.5 64.5t26 64t64 26q39 0 65 -26t26 -64t-26 -64.5t-65 -26.5q-37 0 -63.5 26.5zM366.5 802.5q-26.5 26.5 -26.5 64.5t26.5 64t64.5 26t64 -26t26 -64
t-26 -64.5t-64 -26.5t-64.5 26.5z" />
    <glyph glyph-name="Aring" unicode="&#xc5;" horiz-adv-x="659" 
d="M455 117h-249l-42 -117h-161l280 707h93l280 -707h-160zM408 248l-78 220l-78 -220h156zM267 768.5q-29 17.5 -46.5 46.5t-17.5 63q0 35 17.5 64t46.5 46t63 17q53 0 90 -37t37 -90q0 -34 -17 -63t-46 -46.5t-64 -17.5q-34 0 -63 17.5zM353.5 854.5q9.5 9.5 9.5 23.5
t-9.5 23.5t-23.5 9.5t-23.5 -9.5t-9.5 -23.5q0 -13 9.5 -23t23.5 -10t23.5 9.5z" />
    <glyph glyph-name="AE" unicode="&#xc6;" horiz-adv-x="848" 
d="M540 558v-138h202v-132h-202v-146h267v-142h-414v117h-172l-49 -117h-169l324 700h480v-142h-267zM393 248v278l-117 -278h117z" />
    <glyph glyph-name="Ccedilla" unicode="&#xc7;" horiz-adv-x="605" 
d="M227.5 242q27.5 -50 76.5 -79.5t111 -29.5q49 0 89 13.5t67 36.5l-1 -162q-60 -28 -139 -33l-2 -14q31 -6 52 -28.5t21 -56.5q0 -44 -32 -71t-83 -27q-54 0 -92 22v104q41 -26 79 -26q17 0 27.5 6.5t10.5 15.5q0 10 -9.5 15.5t-24.5 5.5q-21 0 -42 -7l-2 2l21 63
q-91 12 -160.5 62t-107.5 127t-38 169q0 101 45.5 183.5t128 130.5t188.5 48q89 0 159 -34l1 -161q-28 23 -67.5 36.5t-88.5 13.5q-62 0 -111 -29.5t-76.5 -79.5t-27.5 -108t27.5 -108z" />
    <glyph glyph-name="Egrave" unicode="&#xc8;" horiz-adv-x="525" 
d="M216 558v-138h202v-132h-202v-146h267v-142h-414v700h414v-142h-267zM102 962h150l83 -189h-111z" />
    <glyph glyph-name="Eacute" unicode="&#xc9;" horiz-adv-x="525" 
d="M216 558v-138h202v-132h-202v-146h267v-142h-414v700h414v-142h-267zM221 773l83 189h150l-122 -189h-111z" />
    <glyph glyph-name="Ecircumflex" unicode="&#xca;" horiz-adv-x="525" 
d="M216 558v-138h202v-132h-202v-146h267v-142h-414v700h414v-142h-267zM329 772l-50 102l-50 -102h-135l120 189h129l121 -189h-135z" />
    <glyph glyph-name="Edieresis" unicode="&#xcb;" horiz-adv-x="525" 
d="M216 558v-138h202v-132h-202v-146h267v-142h-414v700h414v-142h-267zM114.5 802.5q-26.5 26.5 -26.5 64.5t26 64t64 26q39 0 65 -26t26 -64t-26 -64.5t-65 -26.5q-37 0 -63.5 26.5zM315.5 802.5q-26.5 26.5 -26.5 64.5t26.5 64t64.5 26t64 -26t26 -64t-26 -64.5
t-64 -26.5t-64.5 26.5z" />
    <glyph glyph-name="Igrave" unicode="&#xcc;" horiz-adv-x="285" 
d="M69 700h147v-700h-147v700zM-34 962h150l83 -189h-111z" />
    <glyph glyph-name="Iacute" unicode="&#xcd;" horiz-adv-x="285" 
d="M69 700h147v-700h-147v700zM85 773l83 189h150l-122 -189h-111z" />
    <glyph glyph-name="Icircumflex" unicode="&#xce;" horiz-adv-x="285" 
d="M69 700h147v-700h-147v700zM193 772l-50 102l-50 -102h-135l120 189h129l121 -189h-135z" />
    <glyph glyph-name="Idieresis" unicode="&#xcf;" horiz-adv-x="285" 
d="M69 700h147v-700h-147v700zM-21.5 802.5q-26.5 26.5 -26.5 64.5t26 64t64 26q39 0 65 -26t26 -64t-26 -64.5t-65 -26.5q-37 0 -63.5 26.5zM179.5 802.5q-26.5 26.5 -26.5 64.5t26.5 64t64.5 26t64 -26t26 -64t-26 -64.5t-64 -26.5t-64.5 26.5z" />
    <glyph glyph-name="Eth" unicode="&#xd0;" horiz-adv-x="678" 
d="M462.5 654q80.5 -46 123.5 -125.5t43 -176.5q0 -98 -43 -178.5t-123.5 -127t-187.5 -46.5h-206v285h-79v130h79v285h206q107 0 187.5 -46zM383.5 170q45.5 28 70 76t24.5 106t-24 105t-70 74t-107 27h-61v-143h81v-130h-81v-143h61q61 0 106.5 28z" />
    <glyph glyph-name="Ntilde" unicode="&#xd1;" horiz-adv-x="732" 
d="M663 700v-709h-78l-369 421v-412h-147v707h78l370 -432v425h146zM203 907q41 31 93 31q22 0 37 -4t38 -13q20 -8 35 -12t34 -4q49 0 88 33v-121q-39 -31 -93 -31q-22 0 -37 4t-38 13q-21 8 -35 12t-33 4q-48 0 -89 -33v121z" />
    <glyph glyph-name="Ograve" unicode="&#xd2;" horiz-adv-x="821" 
d="M221.5 36.5q-82.5 49.5 -127.5 132.5t-45 181t45 181t127.5 132.5t189.5 49.5t189.5 -49.5t127.5 -133t45 -180.5q0 -98 -45 -181t-127.5 -132.5t-189.5 -49.5t-189.5 49.5zM521 163q48 30 74.5 80t26.5 107t-26.5 106.5t-74.5 79.5t-110 30t-110 -29.5t-74.5 -79.5
t-26.5 -107t26.5 -107t74.5 -80t110 -30t110 30zM234 962h150l83 -189h-111z" />
    <glyph glyph-name="Oacute" unicode="&#xd3;" horiz-adv-x="821" 
d="M221.5 36.5q-82.5 49.5 -127.5 132.5t-45 181t45 181t127.5 132.5t189.5 49.5t189.5 -49.5t127.5 -133t45 -180.5q0 -98 -45 -181t-127.5 -132.5t-189.5 -49.5t-189.5 49.5zM521 163q48 30 74.5 80t26.5 107t-26.5 106.5t-74.5 79.5t-110 30t-110 -29.5t-74.5 -79.5
t-26.5 -107t26.5 -107t74.5 -80t110 -30t110 30zM353 773l83 189h150l-122 -189h-111z" />
    <glyph glyph-name="Ocircumflex" unicode="&#xd4;" horiz-adv-x="821" 
d="M221.5 36.5q-82.5 49.5 -127.5 132.5t-45 181t45 181t127.5 132.5t189.5 49.5t189.5 -49.5t127.5 -133t45 -180.5q0 -98 -45 -181t-127.5 -132.5t-189.5 -49.5t-189.5 49.5zM521 163q48 30 74.5 80t26.5 107t-26.5 106.5t-74.5 79.5t-110 30t-110 -29.5t-74.5 -79.5
t-26.5 -107t26.5 -107t74.5 -80t110 -30t110 30zM461 772l-50 102l-50 -102h-135l120 189h129l121 -189h-135z" />
    <glyph glyph-name="Otilde" unicode="&#xd5;" horiz-adv-x="821" 
d="M221.5 36.5q-82.5 49.5 -127.5 132.5t-45 181t45 181t127.5 132.5t189.5 49.5t189.5 -49.5t127.5 -133t45 -180.5q0 -98 -45 -181t-127.5 -132.5t-189.5 -49.5t-189.5 49.5zM521 163q48 30 74.5 80t26.5 107t-26.5 106.5t-74.5 79.5t-110 30t-110 -29.5t-74.5 -79.5
t-26.5 -107t26.5 -107t74.5 -80t110 -30t110 30zM248 907q41 31 93 31q22 0 37 -4t38 -13q20 -8 35 -12t34 -4q49 0 88 33v-121q-39 -31 -93 -31q-22 0 -37 4t-38 13q-21 8 -35 12t-33 4q-48 0 -89 -33v121z" />
    <glyph glyph-name="Odieresis" unicode="&#xd6;" horiz-adv-x="821" 
d="M221.5 36.5q-82.5 49.5 -127.5 132.5t-45 181t45 181t127.5 132.5t189.5 49.5t189.5 -49.5t127.5 -133t45 -180.5q0 -98 -45 -181t-127.5 -132.5t-189.5 -49.5t-189.5 49.5zM521 163q48 30 74.5 80t26.5 107t-26.5 106.5t-74.5 79.5t-110 30t-110 -29.5t-74.5 -79.5
t-26.5 -107t26.5 -107t74.5 -80t110 -30t110 30zM246.5 802.5q-26.5 26.5 -26.5 64.5t26 64t64 26q39 0 65 -26t26 -64t-26 -64.5t-65 -26.5q-37 0 -63.5 26.5zM447.5 802.5q-26.5 26.5 -26.5 64.5t26.5 64t64.5 26t64 -26t26 -64t-26 -64.5t-64 -26.5t-64.5 26.5z" />
    <glyph glyph-name="multiply" unicode="&#xd7;" horiz-adv-x="452" 
d="M306 303l111 -106l-81 -82l-110 111l-110 -111l-81 82l111 106l-111 105l81 81l110 -110l110 110l81 -81z" />
    <glyph glyph-name="Oslash" unicode="&#xd8;" horiz-adv-x="821" 
d="M748.5 484.5q24.5 -64.5 24.5 -134.5q0 -98 -45 -181t-127.5 -132.5t-189.5 -49.5q-93 0 -173 40l-21 -27h-154l78 102q-44 49 -68 113t-24 135q0 98 45 181t127.5 132.5t189.5 49.5q94 0 172 -40l21 27h154l-78 -101q44 -50 68.5 -114.5zM237 225l252 327q-36 14 -78 14
q-62 0 -110 -29.5t-74.5 -79.5t-26.5 -107q0 -69 37 -125zM521 163q48 30 74.5 80t26.5 107q0 70 -38 125l-253 -327q36 -15 80 -15q62 0 110 30z" />
    <glyph glyph-name="Ugrave" unicode="&#xd9;" horiz-adv-x="627" 
d="M124 57.5q-69 69.5 -69 187.5v455h147v-440q0 -62 30 -94.5t82 -32.5t82 32.5t30 94.5v440h146v-455q0 -119 -68.5 -188t-189.5 -69t-190 69.5zM137 962h150l83 -189h-111z" />
    <glyph glyph-name="Uacute" unicode="&#xda;" horiz-adv-x="627" 
d="M124 57.5q-69 69.5 -69 187.5v455h147v-440q0 -62 30 -94.5t82 -32.5t82 32.5t30 94.5v440h146v-455q0 -119 -68.5 -188t-189.5 -69t-190 69.5zM256 773l83 189h150l-122 -189h-111z" />
    <glyph glyph-name="Ucircumflex" unicode="&#xdb;" horiz-adv-x="627" 
d="M124 57.5q-69 69.5 -69 187.5v455h147v-440q0 -62 30 -94.5t82 -32.5t82 32.5t30 94.5v440h146v-455q0 -119 -68.5 -188t-189.5 -69t-190 69.5zM364 772l-50 102l-50 -102h-135l120 189h129l121 -189h-135z" />
    <glyph glyph-name="Udieresis" unicode="&#xdc;" horiz-adv-x="627" 
d="M124 57.5q-69 69.5 -69 187.5v455h147v-440q0 -62 30 -94.5t82 -32.5t82 32.5t30 94.5v440h146v-455q0 -119 -68.5 -188t-189.5 -69t-190 69.5zM149.5 802.5q-26.5 26.5 -26.5 64.5t26 64t64 26q39 0 65 -26t26 -64t-26 -64.5t-65 -26.5q-37 0 -63.5 26.5zM350.5 802.5
q-26.5 26.5 -26.5 64.5t26.5 64t64.5 26t64 -26t26 -64t-26 -64.5t-64 -26.5t-64.5 26.5z" />
    <glyph glyph-name="Yacute" unicode="&#xdd;" horiz-adv-x="607" 
d="M379 235v-235h-150v233l-226 467h164l137 -313l136 313h164zM245 773l83 189h150l-122 -189h-111z" />
    <glyph glyph-name="Thorn" unicode="&#xde;" horiz-adv-x="550" 
d="M423.5 562q54.5 -33 83.5 -86.5t29 -114.5q0 -64 -29 -117t-83 -83.5t-126 -30.5h-82v-130h-147v700h147v-105h82q71 0 125.5 -33zM358.5 296q27.5 25 27.5 65t-27.5 65.5t-71.5 25.5h-71v-181h71q44 0 71.5 25z" />
    <glyph glyph-name="germandbls" unicode="&#xdf;" horiz-adv-x="599" 
d="M529 305.5q28 -45.5 28 -104.5q0 -52 -25 -98t-74 -74.5t-118 -28.5h-79v140h54q40 0 64 23t24 57q0 32 -24 54.5t-64 22.5h-54v119h26q36 0 59 21.5t23 51.5q0 32 -20.5 53.5t-53.5 21.5q-37 0 -59 -25.5t-22 -64.5v-474h-145v501q0 60 27.5 107.5t78.5 74.5t118 27
q71 0 121 -27t75.5 -71.5t25.5 -96.5q0 -42 -16.5 -77.5t-47.5 -61.5q50 -25 78 -70.5z" />
    <glyph glyph-name="agrave" unicode="&#xe0;" horiz-adv-x="615" 
d="M554 500v-500h-144v64q-58 -71 -150 -71q-67 0 -118 34t-79 93t-28 131t28 130.5t79 92.5t118 34q92 0 150 -71v63h144zM377 168q32 35 32 83t-32 83t-80 35q-49 0 -80 -34t-31 -84t31 -84t80 -34q48 0 80 35zM141 762h150l83 -189h-111z" />
    <glyph glyph-name="aacute" unicode="&#xe1;" horiz-adv-x="615" 
d="M554 500v-500h-144v64q-58 -71 -150 -71q-67 0 -118 34t-79 93t-28 131t28 130.5t79 92.5t118 34q92 0 150 -71v63h144zM377 168q32 35 32 83t-32 83t-80 35q-49 0 -80 -34t-31 -84t31 -84t80 -34q48 0 80 35zM260 573l83 189h150l-122 -189h-111z" />
    <glyph glyph-name="acircumflex" unicode="&#xe2;" horiz-adv-x="615" 
d="M554 500v-500h-144v64q-58 -71 -150 -71q-67 0 -118 34t-79 93t-28 131t28 130.5t79 92.5t118 34q92 0 150 -71v63h144zM377 168q32 35 32 83t-32 83t-80 35q-49 0 -80 -34t-31 -84t31 -84t80 -34q48 0 80 35zM368 572l-50 102l-50 -102h-135l120 189h129l121 -189h-135z
" />
    <glyph glyph-name="atilde" unicode="&#xe3;" horiz-adv-x="615" 
d="M554 500v-500h-144v64q-58 -71 -150 -71q-67 0 -118 34t-79 93t-28 131t28 130.5t79 92.5t118 34q92 0 150 -71v63h144zM377 168q32 35 32 83t-32 83t-80 35q-49 0 -80 -34t-31 -84t31 -84t80 -34q48 0 80 35zM155 707q41 31 93 31q22 0 37 -4t38 -13q20 -8 35 -12t34 -4
q49 0 88 33v-121q-39 -31 -93 -31q-22 0 -37 4t-38 13q-21 8 -35 12t-33 4q-48 0 -89 -33v121z" />
    <glyph glyph-name="adieresis" unicode="&#xe4;" horiz-adv-x="615" 
d="M554 500v-500h-144v64q-58 -71 -150 -71q-67 0 -118 34t-79 93t-28 131t28 130.5t79 92.5t118 34q92 0 150 -71v63h144zM377 168q32 35 32 83t-32 83t-80 35q-49 0 -80 -34t-31 -84t31 -84t80 -34q48 0 80 35zM153.5 602.5q-26.5 26.5 -26.5 64.5t26 64t64 26
q39 0 65 -26t26 -64t-26 -64.5t-65 -26.5q-37 0 -63.5 26.5zM354.5 602.5q-26.5 26.5 -26.5 64.5t26.5 64t64.5 26t64 -26t26 -64t-26 -64.5t-64 -26.5t-64.5 26.5z" />
    <glyph glyph-name="aring" unicode="&#xe5;" horiz-adv-x="615" 
d="M554 500v-500h-144v64q-58 -71 -150 -71q-67 0 -118 34t-79 93t-28 131t28 130.5t79 92.5t118 34q92 0 150 -71v63h144zM377 168q32 35 32 83t-32 83t-80 35q-49 0 -80 -34t-31 -84t31 -84t80 -34q48 0 80 35zM255 568.5q-29 17.5 -46.5 46.5t-17.5 63q0 35 17.5 64
t46.5 46t63 17q53 0 90 -37t37 -90q0 -34 -17 -63t-46 -46.5t-64 -17.5q-34 0 -63 17.5zM341.5 654.5q9.5 9.5 9.5 23.5t-9.5 23.5t-23.5 9.5t-23.5 -9.5t-9.5 -23.5q0 -13 9.5 -23t23.5 -10t23.5 9.5z" />
    <glyph glyph-name="ae" unicode="&#xe6;" horiz-adv-x="996" 
d="M852 472q54 -36 82.5 -97.5t28.5 -136.5q0 -23 -1 -34h-343q13 -40 46.5 -61.5t80.5 -21.5q75 0 158 40l1 -129q-72 -40 -170 -40q-62 0 -112 22t-85 61v-75h-128v64q-58 -71 -150 -71q-67 0 -118 34t-79 93t-28 131t28 130.5t79 92.5t118 34q92 0 150 -71v63h128v-74
q34 39 81.5 60.5t104.5 21.5q74 0 128 -36zM658 353q-28 -22 -39 -59h203q-11 38 -37 59.5t-61 21.5q-38 0 -66 -22zM377 168q32 35 32 83t-32 83t-80 35q-49 0 -80 -34t-31 -84t31 -84t80 -34q48 0 80 35z" />
    <glyph glyph-name="ccedilla" unicode="&#xe7;" horiz-adv-x="487" 
d="M217 332q-35 -33 -35 -82t35 -82t89 -33q71 0 138 50v-154q-55 -35 -124 -39l-2 -18q31 -6 52 -28.5t21 -56.5q0 -44 -32 -71t-83 -27q-54 0 -92 22v104q41 -26 79 -26q17 0 27.5 6.5t10.5 15.5q0 10 -9.5 15.5t-24.5 5.5q-21 0 -42 -7l-2 2l22 66q-63 11 -110.5 47.5
t-73 91t-25.5 116.5q0 71 32.5 130t92 94t135.5 35q47 0 82 -10.5t66 -29.5v-154q-67 50 -138 50q-54 0 -89 -33z" />
    <glyph glyph-name="egrave" unicode="&#xe8;" horiz-adv-x="557" 
d="M413 472q54 -36 82.5 -97.5t28.5 -136.5q0 -23 -1 -34h-343q13 -40 46.5 -61.5t80.5 -21.5q75 0 158 40l1 -129q-72 -40 -170 -40q-79 0 -138 34.5t-90.5 93.5t-31.5 130q0 70 31 129t88 94t130 35q74 0 128 -36zM219 353q-28 -22 -39 -59h203q-11 38 -37 59.5t-61 21.5
q-38 0 -66 -22zM111 762h150l83 -189h-111z" />
    <glyph glyph-name="eacute" unicode="&#xe9;" horiz-adv-x="557" 
d="M413 472q54 -36 82.5 -97.5t28.5 -136.5q0 -23 -1 -34h-343q13 -40 46.5 -61.5t80.5 -21.5q75 0 158 40l1 -129q-72 -40 -170 -40q-79 0 -138 34.5t-90.5 93.5t-31.5 130q0 70 31 129t88 94t130 35q74 0 128 -36zM219 353q-28 -22 -39 -59h203q-11 38 -37 59.5t-61 21.5
q-38 0 -66 -22zM230 573l83 189h150l-122 -189h-111z" />
    <glyph glyph-name="ecircumflex" unicode="&#xea;" horiz-adv-x="557" 
d="M413 472q54 -36 82.5 -97.5t28.5 -136.5q0 -23 -1 -34h-343q13 -40 46.5 -61.5t80.5 -21.5q75 0 158 40l1 -129q-72 -40 -170 -40q-79 0 -138 34.5t-90.5 93.5t-31.5 130q0 70 31 129t88 94t130 35q74 0 128 -36zM219 353q-28 -22 -39 -59h203q-11 38 -37 59.5t-61 21.5
q-38 0 -66 -22zM338 572l-50 102l-50 -102h-135l120 189h129l121 -189h-135z" />
    <glyph glyph-name="edieresis" unicode="&#xeb;" horiz-adv-x="557" 
d="M413 472q54 -36 82.5 -97.5t28.5 -136.5q0 -23 -1 -34h-343q13 -40 46.5 -61.5t80.5 -21.5q75 0 158 40l1 -129q-72 -40 -170 -40q-79 0 -138 34.5t-90.5 93.5t-31.5 130q0 70 31 129t88 94t130 35q74 0 128 -36zM219 353q-28 -22 -39 -59h203q-11 38 -37 59.5t-61 21.5
q-38 0 -66 -22zM123.5 602.5q-26.5 26.5 -26.5 64.5t26 64t64 26q39 0 65 -26t26 -64t-26 -64.5t-65 -26.5q-37 0 -63.5 26.5zM324.5 602.5q-26.5 26.5 -26.5 64.5t26.5 64t64.5 26t64 -26t26 -64t-26 -64.5t-64 -26.5t-64.5 26.5z" />
    <glyph glyph-name="igrave" unicode="&#xec;" horiz-adv-x="321" 
d="M133 573l-122 189h150l83 -189h-111zM259 500v-500h-144v500h144z" />
    <glyph glyph-name="iacute" unicode="&#xed;" horiz-adv-x="161" 
d="M9 500h144v-500h-144v500zM23 573l83 189h150l-122 -189h-111z" />
    <glyph glyph-name="icircumflex" unicode="&#xee;" horiz-adv-x="391" 
d="M146 572h-135l120 189h129l121 -189h-135l-50 102zM124 500h144v-500h-144v500z" />
    <glyph glyph-name="idieresis" unicode="&#xef;" horiz-adv-x="403" 
d="M166 602.5q-26 -26.5 -65 -26.5q-37 0 -63.5 26.5t-26.5 64.5t26.5 64t63.5 26q39 0 65 -26t26 -64t-26 -64.5zM367 731q26 -26 26 -64t-26 -64.5t-64 -26.5t-64.5 26.5t-26.5 64.5t26.5 64t64.5 26t64 -26zM125 500h144v-500h-144v500z" />
    <glyph glyph-name="eth" unicode="&#xf0;" horiz-adv-x="590" 
d="M523 460q31 -88 31 -183q0 -71 -28 -137t-86.5 -108t-145.5 -42q-74 0 -133 35.5t-92 95t-33 129.5t33 130t91.5 95t133.5 35q43 0 76 -12q-29 45 -63 77l-126 -46v58l78 29q-58 43 -137 75l69 117q115 -50 203 -141l114 43v-60l-75 -28q59 -74 90 -162zM373.5 168.5
q30.5 33.5 30.5 82.5q0 48 -30.5 81.5t-79.5 33.5q-48 0 -79.5 -33.5t-31.5 -81.5t31 -82t80 -34t79.5 33.5z" />
    <glyph glyph-name="ntilde" unicode="&#xf1;" horiz-adv-x="576" 
d="M472.5 455.5q47.5 -54.5 47.5 -152.5v-303h-144v270q0 50 -24 78t-62 28q-34 0 -57 -23t-27 -64v-289h-144v500h144v-60q25 32 62 51t82 19q75 0 122.5 -54.5zM126 707q41 31 93 31q22 0 37 -4t38 -13q20 -8 35 -12t34 -4q49 0 88 33v-121q-39 -31 -93 -31q-22 0 -37 4
t-38 13q-21 8 -35 12t-33 4q-48 0 -89 -33v121z" />
    <glyph glyph-name="ograve" unicode="&#xf2;" horiz-adv-x="589" 
d="M161 25.5q-59 35.5 -92 95t-33 129.5t33 130t92 95t133 35q75 0 134 -35t92 -95t33 -130t-33 -129.5t-92.5 -95t-133.5 -35.5t-133 35.5zM375 168q31 34 31 83q0 48 -31 81.5t-81 33.5q-48 0 -79.5 -33.5t-31.5 -81.5t31.5 -82.5t79.5 -34.5q50 0 81 34zM117 762h150
l83 -189h-111z" />
    <glyph glyph-name="oacute" unicode="&#xf3;" horiz-adv-x="589" 
d="M161 25.5q-59 35.5 -92 95t-33 129.5t33 130t92 95t133 35q75 0 134 -35t92 -95t33 -130t-33 -129.5t-92.5 -95t-133.5 -35.5t-133 35.5zM375 168q31 34 31 83q0 48 -31 81.5t-81 33.5q-48 0 -79.5 -33.5t-31.5 -81.5t31.5 -82.5t79.5 -34.5q50 0 81 34zM236 573l83 189
h150l-122 -189h-111z" />
    <glyph glyph-name="ocircumflex" unicode="&#xf4;" horiz-adv-x="589" 
d="M161 25.5q-59 35.5 -92 95t-33 129.5t33 130t92 95t133 35q75 0 134 -35t92 -95t33 -130t-33 -129.5t-92.5 -95t-133.5 -35.5t-133 35.5zM375 168q31 34 31 83q0 48 -31 81.5t-81 33.5q-48 0 -79.5 -33.5t-31.5 -81.5t31.5 -82.5t79.5 -34.5q50 0 81 34zM344 572l-50 102
l-50 -102h-135l120 189h129l121 -189h-135z" />
    <glyph glyph-name="otilde" unicode="&#xf5;" horiz-adv-x="589" 
d="M161 25.5q-59 35.5 -92 95t-33 129.5t33 130t92 95t133 35q75 0 134 -35t92 -95t33 -130t-33 -129.5t-92.5 -95t-133.5 -35.5t-133 35.5zM375 168q31 34 31 83q0 48 -31 81.5t-81 33.5q-48 0 -79.5 -33.5t-31.5 -81.5t31.5 -82.5t79.5 -34.5q50 0 81 34zM131 707
q41 31 93 31q22 0 37 -4t38 -13q20 -8 35 -12t34 -4q49 0 88 33v-121q-39 -31 -93 -31q-22 0 -37 4t-38 13q-21 8 -35 12t-33 4q-48 0 -89 -33v121z" />
    <glyph glyph-name="odieresis" unicode="&#xf6;" horiz-adv-x="589" 
d="M161 25.5q-59 35.5 -92 95t-33 129.5t33 130t92 95t133 35q75 0 134 -35t92 -95t33 -130t-33 -129.5t-92.5 -95t-133.5 -35.5t-133 35.5zM375 168q31 34 31 83q0 48 -31 81.5t-81 33.5q-48 0 -79.5 -33.5t-31.5 -81.5t31.5 -82.5t79.5 -34.5q50 0 81 34zM129.5 602.5
q-26.5 26.5 -26.5 64.5t26 64t64 26q39 0 65 -26t26 -64t-26 -64.5t-65 -26.5q-37 0 -63.5 26.5zM330.5 602.5q-26.5 26.5 -26.5 64.5t26.5 64t64.5 26t64 -26t26 -64t-26 -64.5t-64 -26.5t-64.5 26.5z" />
    <glyph glyph-name="divide" unicode="&#xf7;" horiz-adv-x="454" 
d="M172.5 429q-22.5 23 -22.5 56t23 56t56 23q32 0 55 -23.5t23 -55.5q0 -33 -23 -56t-55 -23q-34 0 -56.5 23zM35 362h384v-110h-384v110zM172.5 81q-22.5 23 -22.5 56t23 56t56 23q32 0 55 -23.5t23 -55.5q0 -33 -23 -56t-55 -23q-34 0 -56.5 23z" />
    <glyph glyph-name="oslash" unicode="&#xf8;" horiz-adv-x="610" 
d="M504 425q31 -36 48 -80.5t17 -94.5q0 -70 -33 -129.5t-92.5 -95t-133.5 -35.5q-81 0 -143 42l-27 -32h-102l72 83q-28 35 -43 78t-15 89q0 70 33 130t92 95t133 35t137 -37l23 27h99zM210 199l139 161q-18 6 -39 6q-48 0 -79.5 -33.5t-31.5 -81.5q0 -27 11 -52zM407 311
l-143 -167q22 -10 46 -10q50 0 81 34t31 83q0 33 -15 60z" />
    <glyph glyph-name="ugrave" unicode="&#xf9;" horiz-adv-x="576" 
d="M514 500v-500h-144v60q-25 -32 -62 -51t-82 -19q-75 0 -122.5 54.5t-47.5 152.5v303h144v-270q0 -50 24 -78t62 -28q34 0 57 23t27 64v289h144zM105 762h150l83 -189h-111z" />
    <glyph glyph-name="uacute" unicode="&#xfa;" horiz-adv-x="576" 
d="M514 500v-500h-144v60q-25 -32 -62 -51t-82 -19q-75 0 -122.5 54.5t-47.5 152.5v303h144v-270q0 -50 24 -78t62 -28q34 0 57 23t27 64v289h144zM224 573l83 189h150l-122 -189h-111z" />
    <glyph glyph-name="ucircumflex" unicode="&#xfb;" horiz-adv-x="576" 
d="M514 500v-500h-144v60q-25 -32 -62 -51t-82 -19q-75 0 -122.5 54.5t-47.5 152.5v303h144v-270q0 -50 24 -78t62 -28q34 0 57 23t27 64v289h144zM332 572l-50 102l-50 -102h-135l120 189h129l121 -189h-135z" />
    <glyph glyph-name="udieresis" unicode="&#xfc;" horiz-adv-x="576" 
d="M514 500v-500h-144v60q-25 -32 -62 -51t-82 -19q-75 0 -122.5 54.5t-47.5 152.5v303h144v-270q0 -50 24 -78t62 -28q34 0 57 23t27 64v289h144zM117.5 602.5q-26.5 26.5 -26.5 64.5t26 64t64 26q39 0 65 -26t26 -64t-26 -64.5t-65 -26.5q-37 0 -63.5 26.5zM318.5 602.5
q-26.5 26.5 -26.5 64.5t26.5 64t64.5 26t64 -26t26 -64t-26 -64.5t-64 -26.5t-64.5 26.5z" />
    <glyph glyph-name="yacute" unicode="&#xfd;" horiz-adv-x="548" 
d="M541 500l-273 -700h-146l80 198l-196 502h153l114 -343l116 343h152zM216 573l83 189h150l-122 -189h-111z" />
    <glyph glyph-name="thorn" unicode="&#xfe;" horiz-adv-x="615" 
d="M473 474q51 -34 79 -93t28 -131t-28 -130.5t-79 -92.5t-118 -34q-46 0 -84 18.5t-65 51.5v-263h-145v700h1v200h144v-262q27 33 65 51.5t84 18.5q67 0 118 -34zM398 166q31 34 31 84t-31 84t-80 34q-48 0 -80 -35t-32 -83t32 -83t80 -35q49 0 80 34z" />
    <glyph glyph-name="ydieresis" unicode="&#xff;" horiz-adv-x="548" 
d="M541 500l-273 -700h-146l80 198l-196 502h153l114 -343l116 343h152zM109.5 602.5q-26.5 26.5 -26.5 64.5t26 64t64 26q39 0 65 -26t26 -64t-26 -64.5t-65 -26.5q-37 0 -63.5 26.5zM310.5 602.5q-26.5 26.5 -26.5 64.5t26.5 64t64.5 26t64 -26t26 -64t-26 -64.5
t-64 -26.5t-64.5 26.5z" />
    <glyph glyph-name="Amacron" unicode="&#x100;" horiz-adv-x="659" 
d="M455 117h-249l-42 -117h-161l280 707h93l280 -707h-160zM408 248l-78 220l-78 -220h156zM169 912h322v-104h-322v104z" />
    <glyph glyph-name="amacron" unicode="&#x101;" horiz-adv-x="615" 
d="M554 500v-500h-144v64q-58 -71 -150 -71q-67 0 -118 34t-79 93t-28 131t28 130.5t79 92.5t118 34q92 0 150 -71v63h144zM377 168q32 35 32 83t-32 83t-80 35q-49 0 -80 -34t-31 -84t31 -84t80 -34q48 0 80 35zM157 712h322v-104h-322v104z" />
    <glyph glyph-name="Abreve" unicode="&#x102;" horiz-adv-x="659" 
d="M455 117h-249l-42 -117h-161l280 707h93l280 -707h-160zM408 248l-78 220l-78 -220h156zM247.5 801q-35.5 20 -55.5 55.5t-20 78.5h105q2 -21 16.5 -35t36.5 -14q23 0 37.5 14t15.5 35h105q0 -43 -20 -78.5t-55.5 -55.5t-82.5 -20t-82.5 20z" />
    <glyph glyph-name="abreve" unicode="&#x103;" horiz-adv-x="615" 
d="M554 500v-500h-144v64q-58 -71 -150 -71q-67 0 -118 34t-79 93t-28 131t28 130.5t79 92.5t118 34q92 0 150 -71v63h144zM377 168q32 35 32 83t-32 83t-80 35q-49 0 -80 -34t-31 -84t31 -84t80 -34q48 0 80 35zM235.5 601q-35.5 20 -55.5 55.5t-20 78.5h105
q2 -21 16.5 -35t36.5 -14q23 0 37.5 14t15.5 35h105q0 -43 -20 -78.5t-55.5 -55.5t-82.5 -20t-82.5 20z" />
    <glyph glyph-name="Aogonek" unicode="&#x104;" horiz-adv-x="659" 
d="M455 117h-249l-42 -117h-161l280 707h93l280 -707h-160zM408 248l-78 220l-78 -220h156zM491.5 -184.5q-31.5 24.5 -31.5 72.5q0 31 15.5 60.5t40.5 51.5h140q-25 -25 -36.5 -40t-11.5 -30q0 -8 5 -13t13 -5q11 0 21 4.5t13 5.5v-108q-36 -23 -88 -23q-49 0 -80.5 24.5z
" />
    <glyph glyph-name="aogonek" unicode="&#x105;" horiz-adv-x="615" 
d="M544 -83.5q10 4.5 13 5.5v-108q-36 -23 -88 -23q-49 0 -80.5 24.5t-31.5 72.5q0 31 15.5 60.5t40.5 51.5h-3v64q-58 -71 -150 -71q-67 0 -118 34t-79 93t-28 131t28 130.5t79 92.5t118 34q92 0 150 -71v63h144v-500h-1q-25 -25 -36.5 -40t-11.5 -30q0 -8 5 -13t13 -5
q11 0 21 4.5zM377 168q32 35 32 83t-32 83t-80 35q-49 0 -80 -34t-31 -84t31 -84t80 -34q48 0 80 35z" />
    <glyph glyph-name="Cacute" unicode="&#x106;" horiz-adv-x="605" 
d="M222.5 36q-82.5 48 -128 130.5t-45.5 183.5t45.5 183.5t128 130.5t188.5 48q89 0 159 -34l1 -161q-28 23 -67.5 36.5t-88.5 13.5q-62 0 -111 -29.5t-76.5 -79.5t-27.5 -108t27.5 -108t76.5 -79.5t111 -29.5q49 0 89 13.5t67 36.5l-1 -162q-71 -33 -159 -33
q-106 0 -188.5 48zM315 773l83 189h150l-122 -189h-111z" />
    <glyph glyph-name="cacute" unicode="&#x107;" horiz-adv-x="487" 
d="M160.5 26q-59.5 35 -92 94t-32.5 130t32.5 130t92 94t135.5 35q47 0 82 -10.5t66 -29.5v-154q-67 50 -138 50q-54 0 -89 -33t-35 -82t35 -82t89 -33q71 0 138 50v-154q-31 -19 -66 -29.5t-82 -10.5q-76 0 -135.5 35zM224 573l83 189h150l-122 -189h-111z" />
    <glyph glyph-name="Cdotaccent" unicode="&#x10a;" horiz-adv-x="605" 
d="M222.5 36q-82.5 48 -128 130.5t-45.5 183.5t45.5 183.5t128 130.5t188.5 48q89 0 159 -34l1 -161q-28 23 -67.5 36.5t-88.5 13.5q-62 0 -111 -29.5t-76.5 -79.5t-27.5 -108t27.5 -108t76.5 -79.5t111 -29.5q49 0 89 13.5t67 36.5l-1 -162q-71 -33 -159 -33
q-106 0 -188.5 48zM309.5 802.5q-26.5 26.5 -26.5 64.5t26 64t64 26q39 0 65 -26t26 -64t-26 -64.5t-65 -26.5q-37 0 -63.5 26.5z" />
    <glyph glyph-name="cdotaccent" unicode="&#x10b;" horiz-adv-x="487" 
d="M160.5 26q-59.5 35 -92 94t-32.5 130t32.5 130t92 94t135.5 35q47 0 82 -10.5t66 -29.5v-154q-67 50 -138 50q-54 0 -89 -33t-35 -82t35 -82t89 -33q71 0 138 50v-154q-31 -19 -66 -29.5t-82 -10.5q-76 0 -135.5 35zM218.5 602.5q-26.5 26.5 -26.5 64.5t26 64t64 26
q39 0 65 -26t26 -64t-26 -64.5t-65 -26.5q-37 0 -63.5 26.5z" />
    <glyph glyph-name="Ccaron" unicode="&#x10c;" horiz-adv-x="605" 
d="M222.5 36q-82.5 48 -128 130.5t-45.5 183.5t45.5 183.5t128 130.5t188.5 48q89 0 159 -34l1 -161q-28 23 -67.5 36.5t-88.5 13.5q-62 0 -111 -29.5t-76.5 -79.5t-27.5 -108t27.5 -108t76.5 -79.5t111 -29.5q49 0 89 13.5t67 36.5l-1 -162q-71 -33 -159 -33
q-106 0 -188.5 48zM558 962l-121 -189h-129l-120 189h135l50 -102l50 102h135z" />
    <glyph glyph-name="ccaron" unicode="&#x10d;" horiz-adv-x="487" 
d="M160.5 26q-59.5 35 -92 94t-32.5 130t32.5 130t92 94t135.5 35q47 0 82 -10.5t66 -29.5v-154q-67 50 -138 50q-54 0 -89 -33t-35 -82t35 -82t89 -33q71 0 138 50v-154q-31 -19 -66 -29.5t-82 -10.5q-76 0 -135.5 35zM467 762l-121 -189h-129l-120 189h135l50 -102l50 102
h135z" />
    <glyph glyph-name="Dcaron" unicode="&#x10e;" horiz-adv-x="678" 
d="M462.5 654q80.5 -46 123.5 -125.5t43 -176.5q0 -98 -43 -178.5t-123.5 -127t-187.5 -46.5h-206v700h206q107 0 187.5 -46zM383.5 170q45.5 28 70 76t24.5 106t-24 105t-70 74t-107 27h-61v-416h61q61 0 106.5 28zM486 962l-121 -189h-129l-120 189h135l50 -102l50 102
h135z" />
    <glyph glyph-name="dcaron" unicode="&#x10f;" horiz-adv-x="731" 
d="M409 800h144v-800h-144v63q-27 -33 -65 -51.5t-84 -18.5q-67 0 -118 34t-79 93t-28 131t28 130.5t79 92.5t118 34q46 0 84 -18.5t65 -51.5v362zM718 728l-52 -216l-86 10l20 222zM377 168q32 35 32 83t-32 83t-80 35q-49 0 -80 -34t-31 -84t31 -84t80 -34q48 0 80 35z
" />
    <glyph glyph-name="Dcroat" unicode="&#x110;" horiz-adv-x="678" 
d="M462.5 654q80.5 -46 123.5 -125.5t43 -176.5q0 -98 -43 -178.5t-123.5 -127t-187.5 -46.5h-206v285h-79v130h79v285h206q107 0 187.5 -46zM383.5 170q45.5 28 70 76t24.5 106t-24 105t-70 74t-107 27h-61v-143h81v-130h-81v-143h61q61 0 106.5 28z" />
    <glyph glyph-name="dcroat" unicode="&#x111;" horiz-adv-x="647" 
d="M634 552h-81v-552h-144v63q-27 -33 -65 -51.5t-84 -18.5q-67 0 -118 34t-79 93t-28 131t28 130.5t79 92.5t118 34q46 0 84 -18.5t65 -51.5v114h-82v130h82v118h144v-118h81v-130zM377 168q32 35 32 83t-32 83t-80 35q-49 0 -80 -34t-31 -84t31 -84t80 -34q48 0 80 35z
" />
    <glyph glyph-name="Emacron" unicode="&#x112;" horiz-adv-x="525" 
d="M216 558v-138h202v-132h-202v-146h267v-142h-414v700h414v-142h-267zM118 912h322v-104h-322v104z" />
    <glyph glyph-name="emacron" unicode="&#x113;" horiz-adv-x="557" 
d="M413 472q54 -36 82.5 -97.5t28.5 -136.5q0 -23 -1 -34h-343q13 -40 46.5 -61.5t80.5 -21.5q75 0 158 40l1 -129q-72 -40 -170 -40q-79 0 -138 34.5t-90.5 93.5t-31.5 130q0 70 31 129t88 94t130 35q74 0 128 -36zM219 353q-28 -22 -39 -59h203q-11 38 -37 59.5t-61 21.5
q-38 0 -66 -22zM127 712h322v-104h-322v104z" />
    <glyph glyph-name="Edotaccent" unicode="&#x116;" horiz-adv-x="525" 
d="M216 558v-138h202v-132h-202v-146h267v-142h-414v700h414v-142h-267zM215.5 802.5q-26.5 26.5 -26.5 64.5t26 64t64 26q39 0 65 -26t26 -64t-26 -64.5t-65 -26.5q-37 0 -63.5 26.5z" />
    <glyph glyph-name="edotaccent" unicode="&#x117;" horiz-adv-x="557" 
d="M413 472q54 -36 82.5 -97.5t28.5 -136.5q0 -23 -1 -34h-343q13 -40 46.5 -61.5t80.5 -21.5q75 0 158 40l1 -129q-72 -40 -170 -40q-79 0 -138 34.5t-90.5 93.5t-31.5 130q0 70 31 129t88 94t130 35q74 0 128 -36zM219 353q-28 -22 -39 -59h203q-11 38 -37 59.5t-61 21.5
q-38 0 -66 -22zM224.5 602.5q-26.5 26.5 -26.5 64.5t26 64t64 26q39 0 65 -26t26 -64t-26 -64.5t-65 -26.5q-37 0 -63.5 26.5z" />
    <glyph glyph-name="Eogonek" unicode="&#x118;" horiz-adv-x="525" 
d="M216 558v-138h202v-132h-202v-146h267v-142h-414v700h414v-142h-267zM318.5 -184.5q-31.5 24.5 -31.5 72.5q0 31 15.5 60.5t40.5 51.5h140q-25 -25 -36.5 -40t-11.5 -30q0 -8 5 -13t13 -5q11 0 21 4.5t13 5.5v-108q-36 -23 -88 -23q-49 0 -80.5 24.5z" />
    <glyph glyph-name="eogonek" unicode="&#x119;" horiz-adv-x="531" 
d="M413 472q54 -36 82.5 -97.5t28.5 -136.5q0 -23 -1 -34h-343q13 -40 46.5 -61.5t80.5 -21.5q75 0 158 40l1 -129l-3 -1q-23 -21 -37.5 -45t-14.5 -45q0 -12 7 -19.5t17 -7.5q17 0 31 10v-110q-35 -23 -89 -23q-51 0 -84.5 28t-33.5 77t38 96h-1q-79 0 -138 34.5
t-90.5 93.5t-31.5 130q0 70 31 129t88 94t130 35q74 0 128 -36zM219 353q-28 -22 -39 -59h203q-11 38 -37 59.5t-61 21.5q-38 0 -66 -22z" />
    <glyph glyph-name="Ecaron" unicode="&#x11a;" horiz-adv-x="525" 
d="M216 558v-138h202v-132h-202v-146h267v-142h-414v700h414v-142h-267zM464 962l-121 -189h-129l-120 189h135l50 -102l50 102h135z" />
    <glyph glyph-name="ecaron" unicode="&#x11b;" horiz-adv-x="557" 
d="M413 472q54 -36 82.5 -97.5t28.5 -136.5q0 -23 -1 -34h-343q13 -40 46.5 -61.5t80.5 -21.5q75 0 158 40l1 -129q-72 -40 -170 -40q-79 0 -138 34.5t-90.5 93.5t-31.5 130q0 70 31 129t88 94t130 35q74 0 128 -36zM219 353q-28 -22 -39 -59h203q-11 38 -37 59.5t-61 21.5
q-38 0 -66 -22zM473 762l-121 -189h-129l-120 189h135l50 -102l50 102h135z" />
    <glyph glyph-name="Gbreve" unicode="&#x11e;" horiz-adv-x="740" 
d="M684 391v-299q-47 -49 -118.5 -77t-154.5 -28q-108 0 -190.5 49.5t-127 132.5t-44.5 181t44.5 181t127 132.5t190.5 49.5q79 0 145 -27.5t114 -77.5l-101 -106q-29 30 -69.5 47t-88.5 17q-62 0 -110 -29.5t-74.5 -79t-26.5 -107.5q0 -59 26.5 -108.5t75 -78.5t110.5 -29
q73 0 131 32v101h-144v124h285zM314.5 801q-35.5 20 -55.5 55.5t-20 78.5h105q2 -21 16.5 -35t36.5 -14q23 0 37.5 14t15.5 35h105q0 -43 -20 -78.5t-55.5 -55.5t-82.5 -20t-82.5 20z" />
    <glyph glyph-name="gbreve" unicode="&#x11f;" horiz-adv-x="615" 
d="M553 27q0 -74 -34.5 -127.5t-92.5 -81t-127 -27.5q-53 0 -98.5 12t-93.5 34l1 136q88 -55 166 -55q62 0 99.5 33t37.5 100v14q-27 -34 -65.5 -53t-85.5 -19q-67 0 -118 34t-79 93t-28 131t28 130.5t79 92.5t118 34q46 0 84 -18.5t65 -51.5v62h143zM377 168q32 35 32 83
t-32 83t-80 35q-49 0 -80 -34t-31 -84t31 -84t80 -34q48 0 80 35zM241.5 601q-35.5 20 -55.5 55.5t-20 78.5h105q2 -21 16.5 -35t36.5 -14q23 0 37.5 14t15.5 35h105q0 -43 -20 -78.5t-55.5 -55.5t-82.5 -20t-82.5 20z" />
    <glyph glyph-name="Gdotaccent" unicode="&#x120;" horiz-adv-x="740" 
d="M684 391v-299q-47 -49 -118.5 -77t-154.5 -28q-108 0 -190.5 49.5t-127 132.5t-44.5 181t44.5 181t127 132.5t190.5 49.5q79 0 145 -27.5t114 -77.5l-101 -106q-29 30 -69.5 47t-88.5 17q-62 0 -110 -29.5t-74.5 -79t-26.5 -107.5q0 -59 26.5 -108.5t75 -78.5t110.5 -29
q73 0 131 32v101h-144v124h285zM333.5 802.5q-26.5 26.5 -26.5 64.5t26 64t64 26q39 0 65 -26t26 -64t-26 -64.5t-65 -26.5q-37 0 -63.5 26.5z" />
    <glyph glyph-name="gdotaccent" unicode="&#x121;" horiz-adv-x="615" 
d="M553 27q0 -74 -34.5 -127.5t-92.5 -81t-127 -27.5q-53 0 -98.5 12t-93.5 34l1 136q88 -55 166 -55q62 0 99.5 33t37.5 100v14q-27 -34 -65.5 -53t-85.5 -19q-67 0 -118 34t-79 93t-28 131t28 130.5t79 92.5t118 34q46 0 84 -18.5t65 -51.5v62h143zM377 168q32 35 32 83
t-32 83t-80 35q-49 0 -80 -34t-31 -84t31 -84t80 -34q48 0 80 35zM260.5 602.5q-26.5 26.5 -26.5 64.5t26 64t64 26q39 0 65 -26t26 -64t-26 -64.5t-65 -26.5q-37 0 -63.5 26.5z" />
    <glyph glyph-name="Gcommaaccent" unicode="&#x122;" horiz-adv-x="740" 
d="M684 391v-299q-47 -49 -118.5 -77t-154.5 -28q-108 0 -190.5 49.5t-127 132.5t-44.5 181t44.5 181t127 132.5t190.5 49.5q79 0 145 -27.5t114 -77.5l-101 -106q-29 30 -69.5 47t-88.5 17q-62 0 -110 -29.5t-74.5 -79t-26.5 -107.5q0 -59 26.5 -108.5t75 -78.5t110.5 -29
q73 0 131 32v101h-144v124h285zM358 -51h136l-79 -165h-107z" />
    <glyph glyph-name="gcommaaccent" unicode="&#x123;" horiz-adv-x="615" 
d="M553 27q0 -74 -34.5 -127.5t-92.5 -81t-127 -27.5q-53 0 -98.5 12t-93.5 34l1 136q88 -55 166 -55q62 0 99.5 33t37.5 100v14q-27 -34 -65.5 -53t-85.5 -19q-67 0 -118 34t-79 93t-28 131t28 130.5t79 92.5t118 34q46 0 84 -18.5t65 -51.5v62h143zM377 168q32 35 32 83
t-32 83t-80 35q-49 0 -80 -34t-31 -84t31 -84t80 -34q48 0 80 35zM309 755h107l-48 -165h-136z" />
    <glyph glyph-name="Hbar" unicode="&#x126;" horiz-adv-x="699" 
d="M678 500h-48v-500h-147v279h-267v-279h-147v500h-48v118h48v82h147v-82h267v82h147v-82h48v-118zM483 500h-267v-79h267v79z" />
    <glyph glyph-name="hbar" unicode="&#x127;" horiz-adv-x="613" 
d="M509.5 455.5q47.5 -54.5 47.5 -152.5v-303h-144v270q0 50 -24 78t-62 28t-61.5 -28t-23.5 -78v-270h-144v578h-73v130h73v92h144v-92h90v-130h-90v-139q25 33 62 52t83 19q75 0 122.5 -54.5z" />
    <glyph glyph-name="Imacron" unicode="&#x12a;" horiz-adv-x="285" 
d="M69 700h147v-700h-147v700zM-18 912h322v-104h-322v104z" />
    <glyph glyph-name="imacron" unicode="&#x12b;" horiz-adv-x="343" 
d="M333 712v-104h-322v104h322zM101 500h144v-500h-144v500z" />
    <glyph glyph-name="Iogonek" unicode="&#x12e;" horiz-adv-x="285" 
d="M69 700h147v-700h-147v700zM51.5 -184.5q-31.5 24.5 -31.5 72.5q0 31 15.5 60.5t40.5 51.5h140q-25 -25 -36.5 -40t-11.5 -30q0 -8 5 -13t13 -5q11 0 21 4.5t13 5.5v-108q-36 -23 -88 -23q-49 0 -80.5 24.5z" />
    <glyph glyph-name="iogonek" unicode="&#x12f;" horiz-adv-x="161" 
d="M16.5 602.5q-26.5 26.5 -26.5 64.5t26.5 64t63.5 26q39 0 65 -26t26 -64t-26 -64.5t-65 -26.5q-37 0 -63.5 26.5zM109 -83q5 -5 13 -5q11 0 21 4.5t13 5.5v-108q-36 -23 -88 -23q-49 0 -80.5 24.5t-31.5 72.5q0 31 15.5 60.5t40.5 51.5h-3v500h144v-500h-1
q-25 -25 -36.5 -40t-11.5 -30q0 -8 5 -13z" />
    <glyph glyph-name="Idotaccent" unicode="&#x130;" horiz-adv-x="285" 
d="M69 700h147v-700h-147v700zM79.5 802.5q-26.5 26.5 -26.5 64.5t26 64t64 26q39 0 65 -26t26 -64t-26 -64.5t-65 -26.5q-37 0 -63.5 26.5z" />
    <glyph glyph-name="dotlessi" unicode="&#x131;" horiz-adv-x="161" 
d="M9 500h144v-500h-144v500z" />
    <glyph glyph-name="Kcommaaccent" unicode="&#x136;" horiz-adv-x="616" 
d="M432 0l-216 308v-308h-147v700h147v-328l213 328h171l-241 -357l249 -343h-176zM279 -51h136l-79 -165h-107z" />
    <glyph glyph-name="kcommaaccent" unicode="&#x137;" horiz-adv-x="548" 
d="M365 0l-159 219v-219h-144v800h144v-524l152 224h169l-179 -252l194 -248h-177zM236 -51h136l-79 -165h-107z" />
    <glyph glyph-name="Lacute" unicode="&#x139;" horiz-adv-x="460" 
d="M449 142v-142h-380v700h147v-558h233zM87 773l83 189h150l-122 -189h-111z" />
    <glyph glyph-name="lacute" unicode="&#x13a;" horiz-adv-x="268" 
d="M62 800h144v-800h-144v800zM76 872l83 189h150l-122 -189h-111z" />
    <glyph glyph-name="Lcommaaccent" unicode="&#x13b;" horiz-adv-x="460" 
d="M449 142v-142h-380v700h147v-558h233zM200 -51h136l-79 -165h-107z" />
    <glyph glyph-name="lcommaaccent" unicode="&#x13c;" horiz-adv-x="268" 
d="M62 800h144v-800h-144v800zM91 -51h136l-79 -165h-107z" />
    <glyph glyph-name="Lcaron" unicode="&#x13d;" horiz-adv-x="460" 
d="M449 142v-142h-380v700h147v-558h233zM293 522l20 222l118 -16l-52 -216z" />
    <glyph glyph-name="lcaron" unicode="&#x13e;" horiz-adv-x="389" 
d="M62 800h144v-800h-144v800zM373 728l-52 -216l-86 10l20 222z" />
    <glyph glyph-name="Lslash" unicode="&#x141;" horiz-adv-x="492" 
d="M481 142v-142h-380v306l-76 -24v142l76 24v252h147v-206l100 31v-142l-100 -31v-210h233z" />
    <glyph glyph-name="lslash" unicode="&#x142;" horiz-adv-x="329" 
d="M304 365l-62 -28v-337h-144v273l-73 -32v146l73 32v381h144v-317l62 28v-146z" />
    <glyph glyph-name="Nacute" unicode="&#x143;" horiz-adv-x="732" 
d="M663 700v-709h-78l-369 421v-412h-147v707h78l370 -432v425h146zM308 773l83 189h150l-122 -189h-111z" />
    <glyph glyph-name="nacute" unicode="&#x144;" horiz-adv-x="576" 
d="M472.5 455.5q47.5 -54.5 47.5 -152.5v-303h-144v270q0 50 -24 78t-62 28q-34 0 -57 -23t-27 -64v-289h-144v500h144v-60q25 32 62 51t82 19q75 0 122.5 -54.5zM231 573l83 189h150l-122 -189h-111z" />
    <glyph glyph-name="Ncommaaccent" unicode="&#x145;" horiz-adv-x="732" 
d="M663 700v-709h-78l-369 421v-412h-147v707h78l370 -432v425h146zM323 -51h136l-79 -165h-107z" />
    <glyph glyph-name="ncommaaccent" unicode="&#x146;" horiz-adv-x="576" 
d="M472.5 455.5q47.5 -54.5 47.5 -152.5v-303h-144v270q0 50 -24 78t-62 28q-34 0 -57 -23t-27 -64v-289h-144v500h144v-60q25 32 62 51t82 19q75 0 122.5 -54.5zM246 -51h136l-79 -165h-107z" />
    <glyph glyph-name="Ncaron" unicode="&#x147;" horiz-adv-x="732" 
d="M663 700v-709h-78l-369 421v-412h-147v707h78l370 -432v425h146zM551 962l-121 -189h-129l-120 189h135l50 -102l50 102h135z" />
    <glyph glyph-name="ncaron" unicode="&#x148;" horiz-adv-x="576" 
d="M472.5 455.5q47.5 -54.5 47.5 -152.5v-303h-144v270q0 50 -24 78t-62 28q-34 0 -57 -23t-27 -64v-289h-144v500h144v-60q25 32 62 51t82 19q75 0 122.5 -54.5zM474 762l-121 -189h-129l-120 189h135l50 -102l50 102h135z" />
    <glyph glyph-name="Eng" unicode="&#x14a;" horiz-adv-x="732" 
d="M663 -60q0 -62 -38 -103.5t-111 -41.5q-45 0 -93 16v125q28 -11 58 -11q19 0 29 12.5t10 35.5v94l-302 345v-412h-147v707h78l370 -432v425h146v-760z" />
    <glyph glyph-name="eng" unicode="&#x14b;" horiz-adv-x="582" 
d="M521 145v-205q0 -61 -38.5 -103t-111.5 -42q-43 0 -91 16v125q28 -11 58 -11q19 0 29 12.5t10 35.5v27h-1v270q0 50 -24 78t-62 28q-34 0 -57 -23t-27 -64v-289h-144v500h144v-60q25 32 62 51t82 19q75 0 122.5 -54.5t47.5 -152.5v-158h1z" />
    <glyph glyph-name="Omacron" unicode="&#x14c;" horiz-adv-x="821" 
d="M221.5 36.5q-82.5 49.5 -127.5 132.5t-45 181t45 181t127.5 132.5t189.5 49.5t189.5 -49.5t127.5 -133t45 -180.5q0 -98 -45 -181t-127.5 -132.5t-189.5 -49.5t-189.5 49.5zM521 163q48 30 74.5 80t26.5 107t-26.5 106.5t-74.5 79.5t-110 30t-110 -29.5t-74.5 -79.5
t-26.5 -107t26.5 -107t74.5 -80t110 -30t110 30zM250 912h322v-104h-322v104z" />
    <glyph glyph-name="omacron" unicode="&#x14d;" horiz-adv-x="589" 
d="M161 25.5q-59 35.5 -92 95t-33 129.5t33 130t92 95t133 35q75 0 134 -35t92 -95t33 -130t-33 -129.5t-92.5 -95t-133.5 -35.5t-133 35.5zM375 168q31 34 31 83q0 48 -31 81.5t-81 33.5q-48 0 -79.5 -33.5t-31.5 -81.5t31.5 -82.5t79.5 -34.5q50 0 81 34zM133 712h322
v-104h-322v104z" />
    <glyph glyph-name="Ohungarumlaut" unicode="&#x150;" horiz-adv-x="821" 
d="M221.5 36.5q-82.5 49.5 -127.5 132.5t-45 181t45 181t127.5 132.5t189.5 49.5t189.5 -49.5t127.5 -133t45 -180.5q0 -98 -45 -181t-127.5 -132.5t-189.5 -49.5t-189.5 49.5zM521 163q48 30 74.5 80t26.5 107t-26.5 106.5t-74.5 79.5t-110 30t-110 -29.5t-74.5 -79.5
t-26.5 -107t26.5 -107t74.5 -80t110 -30t110 30zM252 773l83 189h150l-122 -189h-111zM506 962h150l-122 -189h-111z" />
    <glyph glyph-name="ohungarumlaut" unicode="&#x151;" horiz-adv-x="589" 
d="M161 25.5q-59 35.5 -92 95t-33 129.5t33 130t92 95t133 35q75 0 134 -35t92 -95t33 -130t-33 -129.5t-92.5 -95t-133.5 -35.5t-133 35.5zM375 168q31 34 31 83q0 48 -31 81.5t-81 33.5q-48 0 -79.5 -33.5t-31.5 -81.5t31.5 -82.5t79.5 -34.5q50 0 81 34zM135 573l83 189
h150l-122 -189h-111zM389 762h150l-122 -189h-111z" />
    <glyph glyph-name="OE" unicode="&#x152;" horiz-adv-x="1113" 
d="M805 558v-138h202v-132h-202v-146h267v-142h-414v79q-48 -44 -110.5 -68t-136.5 -24q-107 0 -189.5 49.5t-127.5 132.5t-45 181t45 181t127.5 132.5t189.5 49.5q74 0 136.5 -24t110.5 -68v79h414v-142h-267zM521 163q48 30 74.5 80t26.5 107t-26.5 106.5t-74.5 79.5
t-110 30t-110 -29.5t-74.5 -79.5t-26.5 -107t26.5 -107t74.5 -80t110 -30t110 30z" />
    <glyph glyph-name="oe" unicode="&#x153;" horiz-adv-x="937" 
d="M793 472q54 -36 82.5 -97.5t28.5 -136.5q0 -23 -1 -34h-343q13 -40 46.5 -61.5t80.5 -21.5q75 0 158 40l1 -129q-72 -40 -170 -40q-61 0 -109.5 20.5t-83.5 57.5q-36 -38 -84 -59t-105 -21q-74 0 -133 35.5t-92 95t-33 129.5t33 130t92 95t133 35q57 0 105 -21t84 -59
q34 37 80 57.5t102 20.5q74 0 128 -36zM599 353q-28 -22 -39 -59h203q-11 38 -37 59.5t-61 21.5q-38 0 -66 -22zM375 168q31 34 31 83q0 48 -31 81.5t-81 33.5q-48 0 -79.5 -33.5t-31.5 -81.5t31.5 -82.5t79.5 -34.5q50 0 81 34z" />
    <glyph glyph-name="Racute" unicode="&#x154;" horiz-adv-x="591" 
d="M278 237h-62v-237h-147v700h228q72 0 127 -32.5t84.5 -86t29.5 -113.5q0 -67 -32 -121.5t-90 -83.5l154 -263h-168zM216 378h73q44 0 71.5 25t27.5 65q0 39 -27.5 64.5t-71.5 25.5h-73v-180zM220 773l83 189h150l-122 -189h-111z" />
    <glyph glyph-name="racute" unicode="&#x155;" horiz-adv-x="358" 
d="M266.5 487.5q35.5 23.5 78.5 23.5v-166q-22 5 -40 5q-44 0 -71.5 -25.5t-27.5 -82.5v-242h-144v500h144v-75q25 39 60.5 62.5zM126 573l83 189h150l-122 -189h-111z" />
    <glyph glyph-name="Rcommaaccent" unicode="&#x156;" horiz-adv-x="591" 
d="M278 237h-62v-237h-147v700h228q72 0 127 -32.5t84.5 -86t29.5 -113.5q0 -67 -32 -121.5t-90 -83.5l154 -263h-168zM216 378h73q44 0 71.5 25t27.5 65q0 39 -27.5 64.5t-71.5 25.5h-73v-180zM253 -51h136l-79 -165h-107z" />
    <glyph glyph-name="rcommaaccent" unicode="&#x157;" horiz-adv-x="358" 
d="M266.5 487.5q35.5 23.5 78.5 23.5v-166q-22 5 -40 5q-44 0 -71.5 -25.5t-27.5 -82.5v-242h-144v500h144v-75q25 39 60.5 62.5zM117 -51h136l-79 -165h-107z" />
    <glyph glyph-name="Rcaron" unicode="&#x158;" horiz-adv-x="591" 
d="M278 237h-62v-237h-147v700h228q72 0 127 -32.5t84.5 -86t29.5 -113.5q0 -67 -32 -121.5t-90 -83.5l154 -263h-168zM216 378h73q44 0 71.5 25t27.5 65q0 39 -27.5 64.5t-71.5 25.5h-73v-180zM463 962l-121 -189h-129l-120 189h135l50 -102l50 102h135z" />
    <glyph glyph-name="rcaron" unicode="&#x159;" horiz-adv-x="358" 
d="M266.5 487.5q35.5 23.5 78.5 23.5v-166q-22 5 -40 5q-44 0 -71.5 -25.5t-27.5 -82.5v-242h-144v500h144v-75q25 39 60.5 62.5zM369 762l-121 -189h-129l-120 189h135l50 -102l50 102h135z" />
    <glyph glyph-name="Sacute" unicode="&#x15a;" horiz-adv-x="548" 
d="M141 20q-66 32 -107 82l90 112q30 -35 72.5 -58.5t81.5 -23.5q37 0 58.5 18.5t21.5 47.5q0 35 -28 56t-89 48q-58 26 -95 49t-63.5 63.5t-26.5 100.5q0 54 28 99t79 71.5t117 26.5t123.5 -27.5t97.5 -68.5l-84 -111q-27 26 -62.5 44.5t-68.5 18.5t-53.5 -16.5
t-20.5 -43.5q0 -30 27.5 -50.5t84.5 -45.5q60 -28 97.5 -51.5t65 -65t27.5 -102.5q0 -57 -28 -104t-81.5 -74t-125.5 -27t-138 32zM215 773l83 189h150l-122 -189h-111z" />
    <glyph glyph-name="sacute" unicode="&#x15b;" horiz-adv-x="449" 
d="M123.5 12q-54.5 21 -90.5 55l70 103q28 -23 62.5 -38.5t63.5 -15.5q21 0 33.5 9t12.5 23q0 17 -17.5 27.5t-55.5 23.5q-46 17 -76.5 33t-53 47t-22.5 80q0 42 22 76t62 54.5t94 20.5q51 0 97 -20t75 -48l-68 -102q-22 16 -50 29.5t-52 13.5q-19 0 -30.5 -8.5t-11.5 -21.5
q0 -16 17.5 -26t55.5 -23q47 -17 78 -33.5t54 -47.5t23 -80q0 -43 -23.5 -77.5t-66 -54.5t-98.5 -20q-50 0 -104.5 21zM168 573l83 189h150l-122 -189h-111z" />
    <glyph glyph-name="Scedilla" unicode="&#x15e;" horiz-adv-x="548" 
d="M239.5 457.5q27.5 -20.5 84.5 -45.5q60 -28 97.5 -51.5t65 -65t27.5 -102.5q0 -80 -52.5 -136t-143.5 -67l-2 -16q31 -6 52 -28.5t21 -56.5q0 -44 -32 -71t-83 -27q-54 0 -92 22v104q41 -26 79 -26q17 0 27.5 6.5t10.5 15.5q0 10 -9.5 15.5t-24.5 5.5q-21 0 -42 -7l-2 2
l21 61q-63 8 -118 38t-90 74l90 112q30 -35 72.5 -58.5t81.5 -23.5q37 0 58.5 18.5t21.5 47.5q0 35 -28 56t-89 48q-58 26 -95 49t-63.5 63.5t-26.5 100.5q0 54 28 99t79 71.5t117 26.5t123.5 -27.5t97.5 -68.5l-84 -111q-27 26 -62.5 44.5t-68.5 18.5t-53.5 -16.5
t-20.5 -43.5q0 -30 27.5 -50.5z" />
    <glyph glyph-name="scedilla" unicode="&#x15f;" horiz-adv-x="449" 
d="M205.5 327q17.5 -10 55.5 -23q47 -17 78 -33.5t54 -47.5t23 -80q0 -58 -42 -99.5t-113 -50.5l-2 -19q31 -6 52 -28.5t21 -56.5q0 -44 -32 -71t-83 -27q-54 0 -92 22v104q41 -26 79 -26q17 0 27.5 6.5t10.5 15.5q0 10 -9.5 15.5t-24.5 5.5q-21 0 -42 -7l-2 2l22 66
q-42 7 -83.5 26t-69.5 46l70 103q28 -23 62.5 -38.5t63.5 -15.5q21 0 33.5 9t12.5 23q0 17 -17.5 27.5t-55.5 23.5q-46 17 -76.5 33t-53 47t-22.5 80q0 42 22 76t62 54.5t94 20.5q51 0 97 -20t75 -48l-68 -102q-22 16 -50 29.5t-52 13.5q-19 0 -30.5 -8.5t-11.5 -21.5
q0 -16 17.5 -26z" />
    <glyph glyph-name="Scaron" unicode="&#x160;" horiz-adv-x="548" 
d="M141 20q-66 32 -107 82l90 112q30 -35 72.5 -58.5t81.5 -23.5q37 0 58.5 18.5t21.5 47.5q0 35 -28 56t-89 48q-58 26 -95 49t-63.5 63.5t-26.5 100.5q0 54 28 99t79 71.5t117 26.5t123.5 -27.5t97.5 -68.5l-84 -111q-27 26 -62.5 44.5t-68.5 18.5t-53.5 -16.5
t-20.5 -43.5q0 -30 27.5 -50.5t84.5 -45.5q60 -28 97.5 -51.5t65 -65t27.5 -102.5q0 -57 -28 -104t-81.5 -74t-125.5 -27t-138 32zM458 962l-121 -189h-129l-120 189h135l50 -102l50 102h135z" />
    <glyph glyph-name="scaron" unicode="&#x161;" horiz-adv-x="449" 
d="M123.5 12q-54.5 21 -90.5 55l70 103q28 -23 62.5 -38.5t63.5 -15.5q21 0 33.5 9t12.5 23q0 17 -17.5 27.5t-55.5 23.5q-46 17 -76.5 33t-53 47t-22.5 80q0 42 22 76t62 54.5t94 20.5q51 0 97 -20t75 -48l-68 -102q-22 16 -50 29.5t-52 13.5q-19 0 -30.5 -8.5t-11.5 -21.5
q0 -16 17.5 -26t55.5 -23q47 -17 78 -33.5t54 -47.5t23 -80q0 -43 -23.5 -77.5t-66 -54.5t-98.5 -20q-50 0 -104.5 21zM411 762l-121 -189h-129l-120 189h135l50 -102l50 102h135z" />
    <glyph glyph-name="uni0162" unicode="&#x162;" horiz-adv-x="492" 
d="M481 558h-159v-558h-147v558h-164v142h470v-142zM331 -54.5q21 -22.5 21 -56.5q0 -44 -32 -71t-83 -27q-54 0 -92 22v104q41 -26 79 -26q17 0 27.5 6.5t10.5 15.5q0 10 -9.5 15.5t-24.5 5.5q-21 0 -42 -7l-2 2l26 77h73l-4 -32q31 -6 52 -28.5z" />
    <glyph glyph-name="uni0163" unicode="&#x163;" horiz-adv-x="345" 
d="M202 0l-3 -26q31 -6 52 -28.5t21 -56.5q0 -44 -32 -71t-83 -27q-54 0 -92 22v104q41 -26 79 -26q17 0 27.5 6.5t10.5 15.5q0 10 -9.5 15.5t-24.5 5.5q-21 0 -42 -7l-2 2l24 71h-40v365h-63v135h63v134h144v-134h100v-135h-100v-365h-30z" />
    <glyph glyph-name="Tcaron" unicode="&#x164;" horiz-adv-x="492" 
d="M481 558h-159v-558h-147v558h-164v142h470v-142zM431 962l-121 -189h-129l-120 189h135l50 -102l50 102h135z" />
    <glyph glyph-name="tcaron" unicode="&#x165;" horiz-adv-x="345" 
d="M332 365h-100v-365h-144v365h-63v135h63v134h144v-134h100v-135zM266 558l20 222l118 -16l-52 -216z" />
    <glyph glyph-name="Tbar" unicode="&#x166;" horiz-adv-x="492" 
d="M322 558v-161h120v-130h-120v-267h-147v267h-124v130h124v161h-164v142h470v-142h-159z" />
    <glyph glyph-name="tbar" unicode="&#x167;" horiz-adv-x="345" 
d="M232 365v-65h99v-130h-99v-170h-144v170h-64v130h64v65h-63v135h63v134h144v-134h100v-135h-100z" />
    <glyph glyph-name="Umacron" unicode="&#x16a;" horiz-adv-x="627" 
d="M124 57.5q-69 69.5 -69 187.5v455h147v-440q0 -62 30 -94.5t82 -32.5t82 32.5t30 94.5v440h146v-455q0 -119 -68.5 -188t-189.5 -69t-190 69.5zM153 912h322v-104h-322v104z" />
    <glyph glyph-name="umacron" unicode="&#x16b;" horiz-adv-x="576" 
d="M514 500v-500h-144v60q-25 -32 -62 -51t-82 -19q-75 0 -122.5 54.5t-47.5 152.5v303h144v-270q0 -50 24 -78t62 -28q34 0 57 23t27 64v289h144zM121 712h322v-104h-322v104z" />
    <glyph glyph-name="Uring" unicode="&#x16e;" horiz-adv-x="627" 
d="M124 57.5q-69 69.5 -69 187.5v455h147v-440q0 -62 30 -94.5t82 -32.5t82 32.5t30 94.5v440h146v-455q0 -119 -68.5 -188t-189.5 -69t-190 69.5zM251 768.5q-29 17.5 -46.5 46.5t-17.5 63q0 35 17.5 64t46.5 46t63 17q53 0 90 -37t37 -90q0 -34 -17 -63t-46 -46.5
t-64 -17.5q-34 0 -63 17.5zM337.5 854.5q9.5 9.5 9.5 23.5t-9.5 23.5t-23.5 9.5t-23.5 -9.5t-9.5 -23.5q0 -13 9.5 -23t23.5 -10t23.5 9.5z" />
    <glyph glyph-name="uring" unicode="&#x16f;" horiz-adv-x="576" 
d="M514 500v-500h-144v60q-25 -32 -62 -51t-82 -19q-75 0 -122.5 54.5t-47.5 152.5v303h144v-270q0 -50 24 -78t62 -28q34 0 57 23t27 64v289h144zM219 568.5q-29 17.5 -46.5 46.5t-17.5 63q0 35 17.5 64t46.5 46t63 17q53 0 90 -37t37 -90q0 -34 -17 -63t-46 -46.5
t-64 -17.5q-34 0 -63 17.5zM305.5 654.5q9.5 9.5 9.5 23.5t-9.5 23.5t-23.5 9.5t-23.5 -9.5t-9.5 -23.5q0 -13 9.5 -23t23.5 -10t23.5 9.5z" />
    <glyph glyph-name="Uhungarumlaut" unicode="&#x170;" horiz-adv-x="627" 
d="M124 57.5q-69 69.5 -69 187.5v455h147v-440q0 -62 30 -94.5t82 -32.5t82 32.5t30 94.5v440h146v-455q0 -119 -68.5 -188t-189.5 -69t-190 69.5zM155 773l83 189h150l-122 -189h-111zM409 962h150l-122 -189h-111z" />
    <glyph glyph-name="uhungarumlaut" unicode="&#x171;" horiz-adv-x="576" 
d="M514 500v-500h-144v60q-25 -32 -62 -51t-82 -19q-75 0 -122.5 54.5t-47.5 152.5v303h144v-270q0 -50 24 -78t62 -28q34 0 57 23t27 64v289h144zM123 573l83 189h150l-122 -189h-111zM377 762h150l-122 -189h-111z" />
    <glyph glyph-name="Uogonek" unicode="&#x172;" horiz-adv-x="626" 
d="M572 700v-455q0 -72 -26 -126.5t-75 -87.5q-23 -19 -37 -44t-14 -46q0 -12 7 -19.5t18 -7.5q16 0 30 10v-110q-35 -23 -89 -23q-51 0 -84.5 28t-33.5 77q0 46 35 92q-116 4 -182 73t-66 184v455h147v-440q0 -62 30 -94.5t82 -32.5t82 32.5t30 94.5v440h146z" />
    <glyph glyph-name="uogonek" unicode="&#x173;" horiz-adv-x="576" 
d="M504 -83.5q10 4.5 13 5.5v-108q-36 -23 -88 -23q-49 0 -80.5 24.5t-31.5 72.5q0 31 15.5 60.5t40.5 51.5h-3v60q-25 -32 -62 -51t-82 -19q-75 0 -122.5 54.5t-47.5 152.5v303h144v-270q0 -50 24 -78t62 -28q34 0 57 23t27 64v289h144v-500h-1q-25 -25 -36.5 -40
t-11.5 -30q0 -8 5 -13t13 -5q11 0 21 4.5z" />
    <glyph glyph-name="Wcircumflex" unicode="&#x174;" horiz-adv-x="1055" 
d="M1053 700l-327 -712h-80l-119 266l-119 -266h-79l-327 712l159 1l216 -489l76 166l-140 322l142 1l73 -186l72 186l143 -1l-142 -322l76 -166l217 489zM581 772l-50 102l-50 -102h-135l120 189h129l121 -189h-135z" />
    <glyph glyph-name="wcircumflex" unicode="&#x175;" horiz-adv-x="878" 
d="M874 500l-231 -500h-136l-69 161l-67 -161h-138l-230 500h152l156 -352l53 124l-101 228h127l49 -125l49 125h127l-103 -228l55 -124l156 352h151zM488 572l-50 102l-50 -102h-135l120 189h129l121 -189h-135z" />
    <glyph glyph-name="Ycircumflex" unicode="&#x176;" horiz-adv-x="607" 
d="M379 235v-235h-150v233l-226 467h164l137 -313l136 313h164zM353 772l-50 102l-50 -102h-135l120 189h129l121 -189h-135z" />
    <glyph glyph-name="ycircumflex" unicode="&#x177;" horiz-adv-x="548" 
d="M541 500l-273 -700h-146l80 198l-196 502h153l114 -343l116 343h152zM324 572l-50 102l-50 -102h-135l120 189h129l121 -189h-135z" />
    <glyph glyph-name="Ydieresis" unicode="&#x178;" horiz-adv-x="607" 
d="M379 235v-235h-150v233l-226 467h164l137 -313l136 313h164zM138.5 802.5q-26.5 26.5 -26.5 64.5t26 64t64 26q39 0 65 -26t26 -64t-26 -64.5t-65 -26.5q-37 0 -63.5 26.5zM339.5 802.5q-26.5 26.5 -26.5 64.5t26.5 64t64.5 26t64 -26t26 -64t-26 -64.5t-64 -26.5
t-64.5 26.5z" />
    <glyph glyph-name="Zacute" unicode="&#x179;" horiz-adv-x="522" 
d="M494 689l-252 -547h240v-142h-454v13l256 545h-253v142h463v-11zM201 773l83 189h150l-122 -189h-111z" />
    <glyph glyph-name="zacute" unicode="&#x17a;" horiz-adv-x="469" 
d="M450 488l-206 -353h197v-135h-419v14l206 352h-207v134h429v-12zM179 573l83 189h150l-122 -189h-111z" />
    <glyph glyph-name="Zdotaccent" unicode="&#x17b;" horiz-adv-x="522" 
d="M494 689l-252 -547h240v-142h-454v13l256 545h-253v142h463v-11zM195.5 802.5q-26.5 26.5 -26.5 64.5t26 64t64 26q39 0 65 -26t26 -64t-26 -64.5t-65 -26.5q-37 0 -63.5 26.5z" />
    <glyph glyph-name="zdotaccent" unicode="&#x17c;" horiz-adv-x="469" 
d="M450 488l-206 -353h197v-135h-419v14l206 352h-207v134h429v-12zM173.5 602.5q-26.5 26.5 -26.5 64.5t26 64t64 26q39 0 65 -26t26 -64t-26 -64.5t-65 -26.5q-37 0 -63.5 26.5z" />
    <glyph glyph-name="Zcaron" unicode="&#x17d;" horiz-adv-x="522" 
d="M494 689l-252 -547h240v-142h-454v13l256 545h-253v142h463v-11zM444 962l-121 -189h-129l-120 189h135l50 -102l50 102h135z" />
    <glyph glyph-name="zcaron" unicode="&#x17e;" horiz-adv-x="469" 
d="M450 488l-206 -353h197v-135h-419v14l206 352h-207v134h429v-12zM422 762l-121 -189h-129l-120 189h135l50 -102l50 102h135z" />
    <glyph glyph-name="florin" unicode="&#x192;" horiz-adv-x="477" 
d="M397 565q-32 0 -51 -19t-22 -55l-5 -59h92v-99h-101l-6 -60q-12 -126 -12 -127q-8 -79 -57 -118.5t-120 -39.5q-50 0 -102 20v141q38 -16 68 -16q32 0 50.5 19t21.5 55l11 126h-95v99h104l12 120q8 79 56.5 118.5t119.5 39.5q51 0 103 -20v-140q-39 15 -67 15z" />
    <glyph glyph-name="Scommaaccent" unicode="&#x218;" horiz-adv-x="548" 
d="M141 20q-66 32 -107 82l90 112q30 -35 72.5 -58.5t81.5 -23.5q37 0 58.5 18.5t21.5 47.5q0 35 -28 56t-89 48q-58 26 -95 49t-63.5 63.5t-26.5 100.5q0 54 28 99t79 71.5t117 26.5t123.5 -27.5t97.5 -68.5l-84 -111q-27 26 -62.5 44.5t-68.5 18.5t-53.5 -16.5
t-20.5 -43.5q0 -30 27.5 -50.5t84.5 -45.5q60 -28 97.5 -51.5t65 -65t27.5 -102.5q0 -57 -28 -104t-81.5 -74t-125.5 -27t-138 32zM240 -51h136l-79 -165h-107z" />
    <glyph glyph-name="scommaaccent" unicode="&#x219;" horiz-adv-x="449" 
d="M123.5 12q-54.5 21 -90.5 55l70 103q28 -23 62.5 -38.5t63.5 -15.5q21 0 33.5 9t12.5 23q0 17 -17.5 27.5t-55.5 23.5q-46 17 -76.5 33t-53 47t-22.5 80q0 42 22 76t62 54.5t94 20.5q51 0 97 -20t75 -48l-68 -102q-22 16 -50 29.5t-52 13.5q-19 0 -30.5 -8.5t-11.5 -21.5
q0 -16 17.5 -26t55.5 -23q47 -17 78 -33.5t54 -47.5t23 -80q0 -43 -23.5 -77.5t-66 -54.5t-98.5 -20q-50 0 -104.5 21zM183 -51h136l-79 -165h-107z" />
    <glyph glyph-name="uni021A" unicode="&#x21a;" horiz-adv-x="492" 
d="M481 558h-159v-558h-147v558h-164v142h470v-142zM203 -51h136l-79 -165h-107z" />
    <glyph glyph-name="uni021B" unicode="&#x21b;" horiz-adv-x="345" 
d="M332 365h-100v-365h-144v365h-63v135h63v134h144v-134h100v-135zM123 -51h136l-79 -165h-107z" />
    <glyph glyph-name="uni0237" unicode="&#x237;" horiz-adv-x="144" 
d="M-1 500h144v-700h-144v700z" />
    <glyph glyph-name="circumflex" unicode="&#x2c6;" horiz-adv-x="402" 
d="M251 572l-50 102l-50 -102h-135l120 189h129l121 -189h-135z" />
    <glyph glyph-name="caron" unicode="&#x2c7;" horiz-adv-x="402" 
d="M386 762l-121 -189h-129l-120 189h135l50 -102l50 102h135z" />
    <glyph glyph-name="breve" unicode="&#x2d8;" horiz-adv-x="349" 
d="M91.5 601q-35.5 20 -55.5 55.5t-20 78.5h105q2 -21 16.5 -35t36.5 -14q23 0 37.5 14t15.5 35h105q0 -43 -20 -78.5t-55.5 -55.5t-82.5 -20t-82.5 20z" />
    <glyph glyph-name="dotaccent" unicode="&#x2d9;" horiz-adv-x="213" 
d="M42.5 602.5q-26.5 26.5 -26.5 64.5t26 64t64 26q39 0 65 -26t26 -64t-26 -64.5t-65 -26.5q-37 0 -63.5 26.5z" />
    <glyph glyph-name="ring" unicode="&#x2da;" horiz-adv-x="286" 
d="M80 568.5q-29 17.5 -46.5 46.5t-17.5 63q0 35 17.5 64t46.5 46t63 17q53 0 90 -37t37 -90q0 -34 -17 -63t-46 -46.5t-64 -17.5q-34 0 -63 17.5zM166.5 654.5q9.5 9.5 9.5 23.5t-9.5 23.5t-23.5 9.5t-23.5 -9.5t-9.5 -23.5q0 -13 9.5 -23t23.5 -10t23.5 9.5z" />
    <glyph glyph-name="ogonek" unicode="&#x2db;" horiz-adv-x="232" 
d="M47.5 -184.5q-31.5 24.5 -31.5 72.5q0 31 15.5 60.5t40.5 51.5h140q-25 -25 -36.5 -40t-11.5 -30q0 -8 5 -13t13 -5q11 0 21 4.5t13 5.5v-108q-36 -23 -88 -23q-49 0 -80.5 24.5z" />
    <glyph glyph-name="tilde" unicode="&#x2dc;" horiz-adv-x="357" 
d="M16 707q41 31 93 31q22 0 37 -4t38 -13q20 -8 35 -12t34 -4q49 0 88 33v-121q-39 -31 -93 -31q-22 0 -37 4t-38 13q-21 8 -35 12t-33 4q-48 0 -89 -33v121z" />
    <glyph glyph-name="hungarumlaut" unicode="&#x2dd;" horiz-adv-x="436" 
d="M16 573l83 189h150l-122 -189h-111zM270 762h150l-122 -189h-111z" />
    <glyph glyph-name="gravecomb" unicode="&#x300;" horiz-adv-x="0" 
d="M-233 762h150l83 -189h-111z" />
    <glyph glyph-name="acutecomb" unicode="&#x301;" horiz-adv-x="0" 
d="M-233 573l83 189h150l-122 -189h-111z" />
    <glyph glyph-name="uni0302" unicode="&#x302;" horiz-adv-x="0" 
d="M-135 572l-50 102l-50 -102h-135l120 189h129l121 -189h-135z" />
    <glyph glyph-name="tildecomb" unicode="&#x303;" horiz-adv-x="0" 
d="M-325 707q41 31 93 31q22 0 37 -4t38 -13q20 -8 35 -12t34 -4q49 0 88 33v-121q-39 -31 -93 -31q-22 0 -37 4t-38 13q-21 8 -35 12t-33 4q-48 0 -89 -33v121z" />
    <glyph glyph-name="uni0304" unicode="&#x304;" horiz-adv-x="0" 
d="M-322 712h322v-104h-322v104z" />
    <glyph glyph-name="uni0306" unicode="&#x306;" horiz-adv-x="0" 
d="M-240.5 601q-35.5 20 -55.5 55.5t-20 78.5h105q2 -21 16.5 -35t36.5 -14q23 0 37.5 14t15.5 35h105q0 -43 -20 -78.5t-55.5 -55.5t-82.5 -20t-82.5 20z" />
    <glyph glyph-name="uni0307" unicode="&#x307;" horiz-adv-x="0" 
d="M-154.5 602.5q-26.5 26.5 -26.5 64.5t26 64t64 26q39 0 65 -26t26 -64t-26 -64.5t-65 -26.5q-37 0 -63.5 26.5z" />
    <glyph glyph-name="uni0308" unicode="&#x308;" horiz-adv-x="0" 
d="M-355.5 602.5q-26.5 26.5 -26.5 64.5t26 64t64 26q39 0 65 -26t26 -64t-26 -64.5t-65 -26.5q-37 0 -63.5 26.5zM-154.5 602.5q-26.5 26.5 -26.5 64.5t26.5 64t64.5 26t64 -26t26 -64t-26 -64.5t-64 -26.5t-64.5 26.5z" />
    <glyph glyph-name="uni030A" unicode="&#x30a;" horiz-adv-x="0" 
d="M-190 568.5q-29 17.5 -46.5 46.5t-17.5 63q0 35 17.5 64t46.5 46t63 17q53 0 90 -37t37 -90q0 -34 -17 -63t-46 -46.5t-64 -17.5q-34 0 -63 17.5zM-103.5 654.5q9.5 9.5 9.5 23.5t-9.5 23.5t-23.5 9.5t-23.5 -9.5t-9.5 -23.5q0 -13 9.5 -23t23.5 -10t23.5 9.5z" />
    <glyph glyph-name="uni030B" unicode="&#x30b;" horiz-adv-x="0" 
d="M-404 573l83 189h150l-122 -189h-111zM-150 762h150l-122 -189h-111z" />
    <glyph glyph-name="uni030C" unicode="&#x30c;" horiz-adv-x="0" 
d="M0 762l-121 -189h-129l-120 189h135l50 -102l50 102h135z" />
    <glyph glyph-name="uni0312" unicode="&#x312;" horiz-adv-x="0" 
d="M-107 755h107l-48 -165h-136z" />
    <glyph glyph-name="uni0326" unicode="&#x326;" horiz-adv-x="0" 
d="M-136 -51h136l-79 -165h-107z" />
    <glyph glyph-name="uni0327" unicode="&#x327;" horiz-adv-x="0" 
d="M-21 -54.5q21 -22.5 21 -56.5q0 -44 -32 -71t-83 -27q-54 0 -92 22v104q41 -26 79 -26q17 0 27.5 6.5t10.5 15.5q0 10 -9.5 15.5t-24.5 5.5q-21 0 -42 -7l-2 2l26 77h73l-4 -32q31 -6 52 -28.5z" />
    <glyph glyph-name="uni0328" unicode="&#x328;" horiz-adv-x="0" 
d="M-168.5 -184.5q-31.5 24.5 -31.5 72.5q0 31 15.5 60.5t40.5 51.5h140q-25 -25 -36.5 -40t-11.5 -30q0 -8 5 -13t13 -5q11 0 21 4.5t13 5.5v-108q-36 -23 -88 -23q-49 0 -80.5 24.5z" />
    <glyph glyph-name="uni0335" unicode="&#x335;" horiz-adv-x="0" 
d="M-307 322h307v-130h-307v130z" />
    <glyph glyph-name="uni0336" unicode="&#x336;" horiz-adv-x="0" 
d="M-657 316h657v-118h-657v118z" />
    <glyph glyph-name="uni0337" unicode="&#x337;" horiz-adv-x="0" 
d="M-323 422l323 101v-142l-323 -101v142z" />
    <glyph glyph-name="uni0338" unicode="&#x338;" horiz-adv-x="0" 
d="M-154 700h154l-541 -700h-154z" />
    <glyph glyph-name="uni0394" unicode="&#x394;" horiz-adv-x="631" 
d="M627 10v-10h-624v10l239 690h147zM430 144l-114 358l-115 -358h229z" />
    <glyph glyph-name="uni03A9" unicode="&#x3a9;" horiz-adv-x="747" 
d="M680.5 264q-32.5 -66 -85.5 -120h90v-144h-276v126q77 68 115 125t38 131q0 50 -23.5 91.5t-66.5 65.5t-98 24t-98 -24t-67 -65.5t-24 -91.5q0 -74 38 -131t115 -125l1 -126h-277v144h90q-53 54 -85 120t-32 137q0 85 41.5 156.5t118.5 113.5t179 42t179 -42
t118.5 -113.5t41.5 -156.5q0 -71 -32.5 -137z" />
    <glyph glyph-name="uni03BC" unicode="&#x3bc;" horiz-adv-x="576" 
d="M514 500v-500h-144v60q-25 -32 -62 -51t-82 -19q-9 0 -27 2v-192h-143v700h144v-270q0 -50 24 -78t62 -28q34 0 57 23t27 64v289h144z" />
    <glyph glyph-name="pi" unicode="&#x3c0;" horiz-adv-x="625" 
d="M504 464v-285q0 -34 28 -34q13 0 24 3t23 8v-146q-27 -9 -42.5 -12.5t-40.5 -3.5q-65 0 -99 35.5t-34 95.5v339h-118v-464h-141v464h-79v144h557v-144h-78z" />
    <glyph glyph-name="Wgrave" unicode="&#x1e80;" horiz-adv-x="1055" 
d="M1053 700l-327 -712h-80l-119 266l-119 -266h-79l-327 712l159 1l216 -489l76 166l-140 322l142 1l73 -186l72 186l143 -1l-142 -322l76 -166l217 489zM354 962h150l83 -189h-111z" />
    <glyph glyph-name="wgrave" unicode="&#x1e81;" horiz-adv-x="878" 
d="M874 500l-231 -500h-136l-69 161l-67 -161h-138l-230 500h152l156 -352l53 124l-101 228h127l49 -125l49 125h127l-103 -228l55 -124l156 352h151zM261 762h150l83 -189h-111z" />
    <glyph glyph-name="Wacute" unicode="&#x1e82;" horiz-adv-x="1055" 
d="M1053 700l-327 -712h-80l-119 266l-119 -266h-79l-327 712l159 1l216 -489l76 166l-140 322l142 1l73 -186l72 186l143 -1l-142 -322l76 -166l217 489zM473 773l83 189h150l-122 -189h-111z" />
    <glyph glyph-name="wacute" unicode="&#x1e83;" horiz-adv-x="878" 
d="M874 500l-231 -500h-136l-69 161l-67 -161h-138l-230 500h152l156 -352l53 124l-101 228h127l49 -125l49 125h127l-103 -228l55 -124l156 352h151zM380 573l83 189h150l-122 -189h-111z" />
    <glyph glyph-name="Wdieresis" unicode="&#x1e84;" horiz-adv-x="1055" 
d="M1053 700l-327 -712h-80l-119 266l-119 -266h-79l-327 712l159 1l216 -489l76 166l-140 322l142 1l73 -186l72 186l143 -1l-142 -322l76 -166l217 489zM366.5 802.5q-26.5 26.5 -26.5 64.5t26 64t64 26q39 0 65 -26t26 -64t-26 -64.5t-65 -26.5q-37 0 -63.5 26.5z
M567.5 802.5q-26.5 26.5 -26.5 64.5t26.5 64t64.5 26t64 -26t26 -64t-26 -64.5t-64 -26.5t-64.5 26.5z" />
    <glyph glyph-name="wdieresis" unicode="&#x1e85;" horiz-adv-x="878" 
d="M874 500l-231 -500h-136l-69 161l-67 -161h-138l-230 500h152l156 -352l53 124l-101 228h127l49 -125l49 125h127l-103 -228l55 -124l156 352h151zM273.5 602.5q-26.5 26.5 -26.5 64.5t26 64t64 26q39 0 65 -26t26 -64t-26 -64.5t-65 -26.5q-37 0 -63.5 26.5z
M474.5 602.5q-26.5 26.5 -26.5 64.5t26.5 64t64.5 26t64 -26t26 -64t-26 -64.5t-64 -26.5t-64.5 26.5z" />
    <glyph glyph-name="Ygrave" unicode="&#x1ef2;" horiz-adv-x="607" 
d="M379 235v-235h-150v233l-226 467h164l137 -313l136 313h164zM126 962h150l83 -189h-111z" />
    <glyph glyph-name="ygrave" unicode="&#x1ef3;" horiz-adv-x="548" 
d="M541 500l-273 -700h-146l80 198l-196 502h153l114 -343l116 343h152zM97 762h150l83 -189h-111z" />
    <glyph glyph-name="endash" unicode="&#x2013;" horiz-adv-x="498" 
d="M35 371h428v-122h-428v122z" />
    <glyph glyph-name="emdash" unicode="&#x2014;" horiz-adv-x="770" 
d="M35 371h700v-122h-700v122z" />
    <glyph glyph-name="quoteleft" unicode="&#x2018;" horiz-adv-x="203" 
d="M81 700h106l-33 -273h-141z" />
    <glyph glyph-name="quoteright" unicode="&#x2019;" horiz-adv-x="203" 
d="M122 427h-106l33 273h141z" />
    <glyph glyph-name="quotesinglbase" unicode="&#x201a;" horiz-adv-x="207" 
d="M48 183h139l-73 -287h-93z" />
    <glyph glyph-name="quotedblleft" unicode="&#x201c;" horiz-adv-x="361" 
d="M81 700h106l-33 -273h-141zM240 700h106l-33 -273h-141z" />
    <glyph glyph-name="quotedblright" unicode="&#x201d;" horiz-adv-x="361" 
d="M121 427h-106l33 273h141zM280 427h-106l33 273h141z" />
    <glyph glyph-name="quotedblbase" unicode="&#x201e;" horiz-adv-x="207" 
d="M187 183l-73 -287h-93l27 287h139z" />
    <glyph glyph-name="dagger" unicode="&#x2020;" horiz-adv-x="323" 
d="M307 537h-92v-192h-106v192h-93v107h93v119h106v-119h92v-107z" />
    <glyph glyph-name="daggerdbl" unicode="&#x2021;" horiz-adv-x="323" 
d="M215 578v-51h92v-107h-92v-75h-106v75h-93v107h93v51h-93v107h93v78h106v-78h92v-107h-92z" />
    <glyph glyph-name="bullet" unicode="&#x2022;" horiz-adv-x="391" 
d="M130.5 211.5q-31.5 18.5 -50 50.5t-18.5 71q0 38 18.5 69.5t50 50.5t70.5 19q37 0 69 -19t50.5 -51t18.5 -69q0 -38 -18.5 -70.5t-50.5 -51t-69 -18.5q-39 0 -70.5 18.5z" />
    <glyph glyph-name="ellipsis" unicode="&#x2026;" horiz-adv-x="749" 
d="M313.5 16q-24.5 25 -24.5 61t25 61t61 25q35 0 60 -25.5t25 -60.5q0 -36 -25 -61t-60 -25q-37 0 -61.5 25zM581.5 16q-24.5 25 -24.5 61t25 61t61 25q35 0 60 -25.5t25 -60.5q0 -36 -25 -61t-60 -25q-37 0 -61.5 25zM45.5 16q-24.5 25 -24.5 61t25 61t61 25
q35 0 60 -25.5t25 -60.5q0 -36 -25 -61t-60 -25q-37 0 -61.5 25z" />
    <glyph glyph-name="perthousand" unicode="&#x2030;" horiz-adv-x="1004" 
d="M49.5 417.5q-30.5 46.5 -30.5 120.5q0 76 30.5 122.5t95.5 46.5t95.5 -46.5t30.5 -122.5q0 -74 -31 -120.5t-95 -46.5q-65 0 -95.5 46.5zM169 482.5q8 21.5 8 56.5q0 34 -8 54.5t-24 20.5t-24 -20.5t-8 -54.5q0 -35 8 -56.5t24 -21.5t24 21.5zM513 700h89l-399 -700h-89z
M475.5 39.5q-30.5 46.5 -30.5 120.5q0 76 30.5 122.5t95.5 46.5t95.5 -46.5t30.5 -122.5q0 -74 -31 -120.5t-95 -46.5q-65 0 -95.5 46.5zM595 104.5q8 21.5 8 56.5q0 34 -8 54.5t-24 20.5t-24 -20.5t-8 -54.5q0 -35 8 -56.5t24 -21.5t24 21.5zM764.5 39.5
q-30.5 46.5 -30.5 120.5q0 76 30.5 122.5t95.5 46.5t95.5 -46.5t30.5 -122.5q0 -74 -31 -120.5t-95 -46.5q-65 0 -95.5 46.5zM884 104.5q8 21.5 8 56.5q0 34 -8 54.5t-24 20.5t-24 -20.5t-8 -54.5q0 -35 8 -56.5t24 -21.5t24 21.5z" />
    <glyph glyph-name="guilsinglleft" unicode="&#x2039;" horiz-adv-x="337" 
d="M168 290l163 -210h-139l-157 208v4l157 208h139z" />
    <glyph glyph-name="guilsinglright" unicode="&#x203a;" horiz-adv-x="337" 
d="M302 292v-4l-157 -208h-139l163 210l-163 210h139z" />
    <glyph glyph-name="fraction" unicode="&#x2044;" horiz-adv-x="137" 
d="M224 700h89l-399 -700h-89z" />
    <glyph glyph-name="Euro" unicode="&#x20ac;" horiz-adv-x="577" 
d="M322.5 534.5q-38.5 -29.5 -60.5 -79.5h180v-84h-199q-1 -7 -1 -21t1 -21h199v-84h-180q21 -50 60 -80t89 -30q40 0 71 12.5t60 34.5v-161q-61 -33 -138 -33q-114 0 -195 70.5t-108 186.5h-76v84h64v21v21h-64v84h76q27 116 108 186.5t195 70.5q78 0 138 -34v-160
q-28 22 -59.5 34t-71.5 12q-50 0 -88.5 -29.5z" />
    <glyph glyph-name="trademark" unicode="&#x2122;" horiz-adv-x="543" 
d="M219 630h-65v-160h-73v160h-65v70h203v-70zM527 470h-75l-17 105l-56 -107h-5l-56 108l-17 -106h-75l42 230h52l56 -104l57 104h52z" />
    <glyph glyph-name="oneeighth" unicode="&#x215b;" horiz-adv-x="651" 
d="M180 704v-326h-92v194l-36 -15l-33 81l130 66h31zM458 700h89l-399 -700h-89zM633 97q0 -46 -35.5 -74.5t-86.5 -28.5t-86 28t-35 75q0 48 43 76q-26 24 -26 62q0 39 30.5 66t73.5 27t74 -27t31 -66q0 -38 -27 -63q44 -26 44 -75zM491 215q0 -6 4.5 -11t10.5 -7
q2 -1 6 -1q6 0 11.5 4t6.5 10q1 2 1 5q0 7 -4 11.5t-11 6.5q-2 1 -5 1q-7 0 -12 -4t-7 -10zM530.5 92q7.5 8 7.5 19t-7.5 19t-19.5 8t-19.5 -8t-7.5 -19t7.5 -19t19.5 -8t19.5 8z" />
    <glyph glyph-name="threeeighths" unicode="&#x215c;" horiz-adv-x="687" 
d="M234.5 539q17.5 -26 17.5 -59q0 -44 -32.5 -76t-86.5 -32q-43 0 -74.5 22.5t-43.5 61.5l85 35q4 -12 13 -19.5t20 -7.5q12 0 19.5 7.5t7.5 17.5q0 11 -7.5 18.5t-19.5 7.5q-7 0 -17 -5l-51 46l58 55h-92v89h203v-80l-48 -42q31 -13 48.5 -39zM494 700h89l-399 -700h-89z
M669 97q0 -46 -35.5 -74.5t-86.5 -28.5t-86 28t-35 75q0 48 43 76q-26 24 -26 62q0 39 30.5 66t73.5 27t74 -27t31 -66q0 -38 -27 -63q44 -26 44 -75zM527 215q0 -6 4.5 -11t10.5 -7q2 -1 6 -1q6 0 11.5 4t6.5 10q1 2 1 5q0 7 -4 11.5t-11 6.5q-2 1 -5 1q-7 0 -12 -4t-7 -10
zM566.5 92q7.5 8 7.5 19t-7.5 19t-19.5 8t-19.5 -8t-7.5 -19t7.5 -19t19.5 -8t19.5 8z" />
    <glyph glyph-name="fiveeighths" unicode="&#x215d;" horiz-adv-x="687" 
d="M218.5 555.5q32.5 -30.5 32.5 -76.5q0 -43 -32.5 -75t-86.5 -32q-43 0 -74 22.5t-43 58.5l85 33q4 -10 12.5 -17t19.5 -7t18.5 7.5t7.5 17.5q0 12 -9 19.5t-24 7.5q-14 0 -34 -11l-65 16l42 181h159v-89h-97l-6 -25h8q54 0 86.5 -30.5zM494 700h89l-399 -700h-89zM669 97
q0 -46 -35.5 -74.5t-86.5 -28.5t-86 28t-35 75q0 48 43 76q-26 24 -26 62q0 39 30.5 66t73.5 27t74 -27t31 -66q0 -38 -27 -63q44 -26 44 -75zM527 215q0 -6 4.5 -11t10.5 -7q2 -1 6 -1q6 0 11.5 4t6.5 10q1 2 1 5q0 7 -4 11.5t-11 6.5q-2 1 -5 1q-7 0 -12 -4t-7 -10z
M566.5 92q7.5 8 7.5 19t-7.5 19t-19.5 8t-19.5 -8t-7.5 -19t7.5 -19t19.5 -8t19.5 8z" />
    <glyph glyph-name="seveneighths" unicode="&#x215e;" horiz-adv-x="652" 
d="M229 677l-79 -299h-100l75 233h-114v89h218v-23zM459 700h89l-399 -700h-89zM634 97q0 -46 -35.5 -74.5t-86.5 -28.5t-86 28t-35 75q0 48 43 76q-26 24 -26 62q0 39 30.5 66t73.5 27t74 -27t31 -66q0 -38 -27 -63q44 -26 44 -75zM492 215q0 -6 4.5 -11t10.5 -7q2 -1 6 -1
q6 0 11.5 4t6.5 10q1 2 1 5q0 7 -4 11.5t-11 6.5q-2 1 -5 1q-7 0 -12 -4t-7 -10zM531.5 92q7.5 8 7.5 19t-7.5 19t-19.5 8t-19.5 -8t-7.5 -19t7.5 -19t19.5 -8t19.5 8z" />
    <glyph glyph-name="arrowleft" unicode="&#x2190;" horiz-adv-x="758" 
d="M722 251h-496v-131l-191 191l191 192v-130h496v-122z" />
    <glyph glyph-name="arrowup" unicode="&#x2191;" horiz-adv-x="454" 
d="M288 495v-496h-122v496h-130l192 191l191 -191h-131z" />
    <glyph glyph-name="arrowright" unicode="&#x2192;" horiz-adv-x="758" 
d="M532 120v131h-496v122h496v130l191 -192z" />
    <glyph glyph-name="arrowdown" unicode="&#x2193;" horiz-adv-x="454" 
d="M419 183l-191 -191l-192 191h130v496h122v-496h131z" />
    <glyph glyph-name="arrowboth" unicode="&#x2194;" horiz-adv-x="845" 
d="M619 123v128h-393v-131l-191 191l191 192v-130h393v133l191 -192z" />
    <glyph glyph-name="arrowupdn" unicode="&#x2195;" horiz-adv-x="456" 
d="M421 151l-192 -191l-191 191h128v393h-131l191 191l192 -191h-130v-393h133z" />
    <glyph glyph-name="uni2196" unicode="&#x2196;" horiz-adv-x="600" 
d="M480 87l-351 351l-93 -93v270l271 1l-92 -92l351 -351z" />
    <glyph glyph-name="uni2197" unicode="&#x2197;" horiz-adv-x="600" 
d="M564 345l-93 93l-351 -351l-86 86l351 351l-92 92l271 -1v-270z" />
    <glyph glyph-name="uni2198" unicode="&#x2198;" horiz-adv-x="600" 
d="M564 362v-270l-271 -1l92 92l-351 351l86 86l351 -351z" />
    <glyph glyph-name="uni2199" unicode="&#x2199;" horiz-adv-x="600" 
d="M215 183l92 -92l-271 1v270l93 -93l351 351l86 -86z" />
    <glyph glyph-name="partialdiff" unicode="&#x2202;" horiz-adv-x="587" 
d="M473.5 537.5q77.5 -119.5 77.5 -257.5q0 -71 -28 -137t-87 -108.5t-148 -42.5q-74 0 -131.5 34t-89 93t-31.5 131q0 73 31 132t86 93t126 34q23 0 46 -5q-61 61 -168 119l84 116q155 -82 232.5 -201.5zM216 168q31 -33 79 -33q47 0 76.5 34t29.5 81q0 48 -29.5 82
t-76.5 34q-48 0 -79 -33.5t-31 -82.5t31 -82z" />
    <glyph glyph-name="emptyset" unicode="&#x2205;" horiz-adv-x="662" 
d="M552 470q33 -38 51 -87.5t18 -103.5q0 -78 -36.5 -144.5t-103 -106t-150.5 -39.5q-82 0 -151 40l-24 -29h-120l74 88q-33 38 -51 87.5t-18 103.5q0 78 37 144.5t103 106t150 39.5q82 0 151 -40l24 29h120zM202 197l188 223q-27 12 -59 12q-43 0 -78 -21t-54.5 -56.5
t-19.5 -75.5q0 -45 23 -82zM460 361l-188 -223q27 -12 59 -12q43 0 78 21t54.5 56.5t19.5 75.5q0 45 -23 82z" />
    <glyph glyph-name="product" unicode="&#x220f;" horiz-adv-x="640" 
d="M630 578h-98v-707h-147v707h-120v-707h-148v707h-106v122h619v-122z" />
    <glyph glyph-name="summation" unicode="&#x2211;" horiz-adv-x="485" 
d="M457 556h-228l139 -267v-8l-139 -266h228v-144h-429v66l187 348l-187 349v66h429v-144z" />
    <glyph glyph-name="minus" unicode="&#x2212;" horiz-adv-x="454" 
d="M35 362h384v-110h-384v110z" />
    <glyph glyph-name="radical" unicode="&#x221a;" horiz-adv-x="681" 
d="M670 556h-199l-160 -685h-195l-110 419h136l69 -291l153 701h306v-144z" />
    <glyph glyph-name="infinity" unicode="&#x221e;" horiz-adv-x="920" 
d="M134 98q-48 30 -73 78t-25 100q0 51 25.5 99.5t73 79t111.5 30.5q69 0 119 -31t95 -86q45 54 95.5 85.5t118.5 31.5q64 0 111.5 -30.5t73 -79t25.5 -99.5q0 -52 -25 -100t-73 -78t-112 -30q-68 0 -118.5 31.5t-95.5 85.5q-45 -55 -95 -86t-119 -31q-64 0 -112 30z
M331 214.5q29 21.5 60 62.5q-32 41 -60.5 63t-64.5 22q-37 0 -61.5 -24t-24.5 -61q0 -33 25 -58.5t61 -25.5t65 21.5zM716 216.5q24 23.5 24 60.5t-24.5 61t-61.5 24q-36 0 -64 -21.5t-61 -63.5q33 -41 61 -62.5t64 -21.5q38 0 62 23.5z" />
    <glyph glyph-name="integral" unicode="&#x222b;" horiz-adv-x="479" 
d="M13 20q43 -17 70 -17q28 0 43 17t18 52l48 487q7 76 52.5 114t113.5 38q54 0 108 -21v-140q-45 17 -71 17q-28 0 -42.5 -17t-18.5 -52l-49 -487q-8 -77 -53 -115t-113 -38q-48 0 -106 21v141z" />
    <glyph glyph-name="approxequal" unicode="&#x2248;" horiz-adv-x="426" 
d="M35 433q45 31 102 31q24 0 40.5 -4t41.5 -13q23 -8 38.5 -12t36.5 -4q55 0 97 33v-109q-43 -31 -102 -31q-24 0 -41 4t-42 13q-23 8 -38.5 12t-36.5 4q-51 0 -96 -33v109zM35 271q43 31 101 31q24 0 41 -4t42 -13q23 -8 38.5 -12t36.5 -4q28 0 51 8.5t46 24.5v-109
q-43 -31 -102 -31q-24 0 -41 4t-42 13q-23 8 -38.5 12t-36.5 4q-51 0 -96 -33v109z" />
    <glyph glyph-name="notequal" unicode="&#x2260;" horiz-adv-x="454" 
d="M269 329l-18 -48h168v-110h-209l-38 -103h-74l38 103h-101v110h142l18 48h-160v110h200l40 107h74l-40 -107h110v-110h-150z" />
    <glyph glyph-name="lessequal" unicode="&#x2264;" horiz-adv-x="431" 
d="M396 455l-196 -76l196 -76v-119l-361 171v50l361 171v-121zM35 159h361v-101h-361v101z" />
    <glyph glyph-name="greaterequal" unicode="&#x2265;" horiz-adv-x="431" 
d="M396 405v-50l-361 -171v119l196 76l-196 76v121zM35 159h361v-101h-361v101z" />
    <glyph glyph-name="lozenge" unicode="&#x25ca;" horiz-adv-x="518" 
d="M495 350l-155 -350h-163l-154 350l154 350h163zM351 350l-92 223l-93 -223l93 -223z" />
    <glyph glyph-name="i.loclTRK" horiz-adv-x="305" 
d="M88.5 602.5q-26.5 26.5 -26.5 64.5t26.5 64t63.5 26q39 0 65 -26t26 -64t-26 -64.5t-65 -26.5q-37 0 -63.5 26.5zM81 500h144v-500h-144v500z" />
    <glyph glyph-name="zero.lf" horiz-adv-x="559" 
d="M95.5 88.5q-58.5 99.5 -58.5 261.5q0 160 58.5 260.5t184.5 100.5q125 0 183.5 -100.5t58.5 -260.5q0 -162 -58.5 -261.5t-183.5 -99.5q-126 0 -184.5 99.5zM374 350q0 211 -95 211q-52 0 -73 -57t-21 -154q0 -98 21 -154.5t73 -56.5q95 0 95 211z" />
    <glyph glyph-name="one.lf" horiz-adv-x="366" 
d="M304 709v-709h-147v498l-78 -42l-54 126l223 127h56z" />
    <glyph glyph-name="two.lf" horiz-adv-x="555" 
d="M58 55q107 122 198 231l27 31q42 51 62 86t20 74q0 36 -26 62.5t-65 26.5q-44 0 -72.5 -35t-28.5 -86l-138 38q2 59 32.5 112t84 85.5t122.5 32.5q70 0 124.5 -31t84.5 -81.5t30 -108.5q0 -61 -26.5 -113.5t-78.5 -112.5q-29 -36 -89 -108q1 2 -13 -16h212v-142h-460v55z
" />
    <glyph glyph-name="three.lf" horiz-adv-x="568" 
d="M485.5 363q46.5 -60 46.5 -137q0 -63 -31 -117.5t-87.5 -87t-128.5 -32.5q-99 0 -162 52.5t-87 130.5l130 64q13 -43 43.5 -72t73.5 -29q44 0 73 29t29 72q0 42 -30 70t-72 28q-24 0 -42.5 -6.5t-43.5 -20.5l-60 73l3 3l168 173h-233v144h411v-124l-128 -133
q81 -20 127.5 -80z" />
    <glyph glyph-name="four.lf" horiz-adv-x="514" 
d="M494 113h-68v-113h-140v113h-283v115l253 472h170v-456h68v-131zM286 244v274l-131 -274h131z" />
    <glyph glyph-name="five.lf" horiz-adv-x="558" 
d="M406.5 430.5q55.5 -33.5 85.5 -88t30 -116.5q0 -64 -30 -118t-85.5 -86.5t-127.5 -32.5q-92 0 -156.5 51.5t-86.5 130.5l131 59q11 -41 40 -67.5t69 -26.5q42 0 70.5 28.5t28.5 71.5q0 45 -30.5 74.5t-78.5 29.5q-60 0 -106 -46l-94 25l88 381h310v-141l-204 -1l-23 -98
q26 4 41 4q73 0 128.5 -33.5z" />
    <glyph glyph-name="six.lf" horiz-adv-x="561" 
d="M408.5 437q55.5 -32 86 -86.5t30.5 -120.5t-30.5 -121t-86 -87.5t-128.5 -32.5q-71 0 -126.5 32t-86.5 87.5t-31 123.5v1v0q1 56 21.5 109.5t56.5 124.5q4 6 10 18l48 94l60 121h160l-121 -231h9q73 0 128.5 -32zM351.5 164q28.5 29 28.5 71t-28.5 71t-71.5 29t-71 -29
t-28 -71t28 -71t71 -29t71.5 29z" />
    <glyph glyph-name="seven.lf" horiz-adv-x="455" 
d="M452 649l-195 -649h-155l180 559h-271v141h441v-51z" />
    <glyph glyph-name="eight.lf" horiz-adv-x="559" 
d="M499 312.5q23 -44.5 23 -92.5q0 -64 -30.5 -117t-85.5 -83.5t-127 -30.5q-71 0 -126 30.5t-85.5 83.5t-30.5 117q0 48 23 92.5t62 74.5q-25 25 -38.5 58.5t-13.5 72.5q0 50 26.5 94.5t74 71t108.5 26.5t109 -26.5t74.5 -71t26.5 -94.5q0 -39 -13.5 -72.5t-39.5 -59.5
q40 -29 63 -73.5zM230.5 541q-19.5 -19 -19.5 -47q0 -26 19.5 -45.5t48.5 -19.5q31 0 50 19.5t19 45.5q0 28 -19 47t-50 19q-29 0 -48.5 -19zM348.5 162q27.5 28 27.5 67q0 38 -27.5 65.5t-69.5 27.5q-41 0 -68.5 -27.5t-27.5 -65.5t27.5 -66.5t68.5 -28.5q42 0 69.5 28z
" />
    <glyph glyph-name="nine.lf" horiz-adv-x="529" 
d="M503.5 357.5q-20.5 -53.5 -56.5 -124.5q-4 -6 -10 -18l-48 -94l-60 -121h-160l121 231h-9q-73 0 -128.5 32t-86 86.5t-30.5 120.5t30.5 121t86 87.5t128.5 32.5q71 0 126.5 -32t86.5 -87.5t31 -123.5v-1v0q-1 -56 -21.5 -109.5zM209.5 394q28.5 -29 71.5 -29t71 29t28 71
t-28 71t-71 29t-71.5 -29t-28.5 -71t28.5 -71z" />
    <glyph glyph-name="zero.osf" horiz-adv-x="521" 
d="M90.5 60.5q-54.5 75.5 -54.5 186.5q0 65 23 125t73.5 99t128.5 39t128 -39t73 -99t23 -125q0 -111 -54.5 -186.5t-169.5 -75.5q-116 0 -170.5 75.5zM323 157q19 38 19 90t-19 90.5t-62 38.5t-62.5 -38.5t-19.5 -90.5t19.5 -90t62.5 -38t62 38z" />
    <glyph glyph-name="one.osf" horiz-adv-x="356" 
d="M294 509v-509h-144v332l-83 -32l-42 116l219 93h50z" />
    <glyph glyph-name="two.osf" horiz-adv-x="532" 
d="M79 107q39 27 103 73l60 43q6 5 33 25t40.5 38.5t13.5 35.5q0 23 -16.5 38.5t-43.5 15.5q-32 0 -52 -24t-20 -63l-135 23q2 52 26.5 97.5t70.5 73.5t110 28t110 -24.5t69 -65t23 -86.5q0 -59 -41 -103.5t-106 -83.5l-23 -15h176v-133h-398v107z" />
    <glyph glyph-name="three.osf" horiz-adv-x="509" 
d="M428.5 203q44.5 -56 44.5 -128q0 -57 -28 -106t-79 -78.5t-117 -29.5q-84 0 -144 49t-80 123l122 57q10 -39 36.5 -64.5t63.5 -25.5q36 0 61.5 24.5t25.5 58.5q0 37 -26 60t-62 23q-22 0 -38 -5.5t-37 -17.5l-13 23l-49 60l150 139h-198v135h369v-118l-119 -106
q73 -17 117.5 -73z" />
    <glyph glyph-name="four.osf" horiz-adv-x="487" 
d="M474 0h-74v-128h-133v128h-261v109l221 391h173v-369h74v-131zM267 131v224l-110 -224h110z" />
    <glyph glyph-name="five.osf" horiz-adv-x="503" 
d="M361.5 260q50.5 -29 78 -78t27.5 -108q0 -58 -28 -106.5t-78 -77.5t-115 -29q-84 0 -143.5 47t-77.5 122l125 50q8 -36 33 -60t60 -24q37 0 62 24.5t25 58.5q0 38 -27.5 63t-67.5 25q-30 0 -51 -8t-50 -26l-80 18l78 349h290v-133h-195l-20 -82q16 4 39 4q65 0 115.5 -29
z" />
    <glyph glyph-name="six.osf" horiz-adv-x="526" 
d="M382.5 394.5q51.5 -29.5 79.5 -79.5t28 -108q0 -59 -28 -109.5t-79.5 -81t-119.5 -30.5t-119.5 30.5t-79.5 81t-28 109.5q0 58 19 109t54 110q4 6 42 74q48 82 71 124h157l-123 -200h7q68 0 119.5 -29.5zM326 146q25 25 25 62q0 36 -25.5 61.5t-62.5 25.5t-62.5 -25.5
t-25.5 -61.5q0 -37 25 -62t63 -25t63 25z" />
    <glyph glyph-name="seven.osf" horiz-adv-x="437" 
d="M431 448l-183 -576h-148l171 495h-246v133h406v-52z" />
    <glyph glyph-name="eight.osf" horiz-adv-x="508" 
d="M451.5 273.5q21.5 -39.5 21.5 -85.5q0 -56 -28 -102t-77.5 -73t-113.5 -27t-113.5 27t-77 73t-27.5 102q0 46 21.5 85.5t60.5 66.5q-53 47 -53 118q0 46 24 85t67 62.5t98 23.5t98.5 -23.5t67.5 -62.5t24 -85q0 -35 -14 -65t-39 -53q39 -27 60.5 -66.5zM209.5 483
q-17.5 -17 -17.5 -41t18 -42t44 -18q28 0 45.5 17.5t17.5 42.5q0 24 -17.5 41t-45.5 17q-27 0 -44.5 -17zM311 144.5q22 22.5 22 53.5q0 30 -22.5 52.5t-56.5 22.5t-56 -22.5t-22 -52.5q0 -31 22 -53.5t56 -22.5q35 0 57 22.5z" />
    <glyph glyph-name="nine.osf" horiz-adv-x="526" 
d="M382.5 478.5q51.5 -30.5 79.5 -81t28 -109.5q0 -58 -19 -109t-54 -110q-4 -6 -42 -74q-48 -82 -71 -124h-157l123 200h-7q-68 0 -119.5 29.5t-79.5 79.5t-28 108q0 59 28 109.5t79.5 81t119.5 30.5t119.5 -30.5zM200.5 225.5q25.5 -25.5 62.5 -25.5t62.5 25.5t25.5 61.5
q0 37 -25 62t-63 25t-63 -25t-25 -62q0 -36 25.5 -61.5z" />
    <glyph glyph-name="zero.tf" 
d="M104.5 88.5q-58.5 99.5 -58.5 261.5q0 160 58.5 260.5t184.5 100.5q125 0 183.5 -100.5t58.5 -260.5q0 -162 -58.5 -261.5t-183.5 -99.5q-126 0 -184.5 99.5zM383 350q0 211 -95 211q-52 0 -73 -57t-21 -154q0 -98 21 -154.5t73 -56.5q95 0 95 211z" />
    <glyph glyph-name="one.tf" 
d="M490 142v-142h-382v142h116v356l-78 -42l-54 126l223 127h56v-567h119z" />
    <glyph glyph-name="two.tf" 
d="M72 55q107 122 198 231l27 31q42 51 62 86t20 74q0 36 -26 62.5t-65 26.5q-44 0 -72.5 -35t-28.5 -86l-138 38q2 59 32.5 112t84 85.5t122.5 32.5q70 0 124.5 -31t84.5 -81.5t30 -108.5q0 -61 -26.5 -113.5t-78.5 -112.5q-29 -36 -89 -108q1 2 -13 -16h212v-142h-460v55z
" />
    <glyph glyph-name="three.tf" 
d="M496.5 363q46.5 -60 46.5 -137q0 -63 -31 -117.5t-87.5 -87t-128.5 -32.5q-99 0 -162 52.5t-87 130.5l130 64q13 -43 43.5 -72t73.5 -29q44 0 73 29t29 72q0 42 -30 70t-72 28q-24 0 -42.5 -6.5t-43.5 -20.5l-60 73l3 3l168 173h-233v144h411v-124l-128 -133
q81 -20 127.5 -80z" />
    <glyph glyph-name="four.tf" 
d="M543 113h-68v-113h-140v113h-283v115l253 472h170v-456h68v-131zM335 244v274l-131 -274h131z" />
    <glyph glyph-name="five.tf" 
d="M419.5 430.5q55.5 -33.5 85.5 -88t30 -116.5q0 -64 -30 -118t-85.5 -86.5t-127.5 -32.5q-92 0 -156.5 51.5t-86.5 130.5l131 59q11 -41 40 -67.5t69 -26.5q42 0 70.5 28.5t28.5 71.5q0 45 -30.5 74.5t-78.5 29.5q-60 0 -106 -46l-94 25l88 381h310v-141l-204 -1l-23 -98
q26 4 41 4q73 0 128.5 -33.5z" />
    <glyph glyph-name="six.tf" 
d="M414.5 437q55.5 -32 86 -86.5t30.5 -120.5t-30.5 -121t-86 -87.5t-128.5 -32.5q-71 0 -126.5 32t-86.5 87.5t-31 123.5v1v0q1 56 21.5 109.5t56.5 124.5q4 6 10 18l48 94l60 121h160l-121 -231h9q73 0 128.5 -32zM357.5 164q28.5 29 28.5 71t-28.5 71t-71.5 29t-71 -29
t-28 -71t28 -71t71 -29t71.5 29z" />
    <glyph glyph-name="seven.tf" 
d="M518 649l-195 -649h-155l180 559h-271v141h441v-51z" />
    <glyph glyph-name="eight.tf" 
d="M506 312.5q23 -44.5 23 -92.5q0 -64 -30.5 -117t-85.5 -83.5t-127 -30.5q-71 0 -126 30.5t-85.5 83.5t-30.5 117q0 48 23 92.5t62 74.5q-25 25 -38.5 58.5t-13.5 72.5q0 50 26.5 94.5t74 71t108.5 26.5t109 -26.5t74.5 -71t26.5 -94.5q0 -39 -13.5 -72.5t-39.5 -59.5
q40 -29 63 -73.5zM237.5 541q-19.5 -19 -19.5 -47q0 -26 19.5 -45.5t48.5 -19.5q31 0 50 19.5t19 45.5q0 28 -19 47t-50 19q-29 0 -48.5 -19zM355.5 162q27.5 28 27.5 67q0 38 -27.5 65.5t-69.5 27.5q-41 0 -68.5 -27.5t-27.5 -65.5t27.5 -66.5t68.5 -28.5q42 0 69.5 28z
" />
    <glyph glyph-name="nine.tf" 
d="M513.5 357.5q-20.5 -53.5 -56.5 -124.5q-4 -6 -10 -18l-48 -94l-60 -121h-160l121 231h-9q-73 0 -128.5 32t-86 86.5t-30.5 120.5t30.5 121t86 87.5t128.5 32.5q71 0 126.5 -32t86.5 -87.5t31 -123.5v-1v0q-1 -56 -21.5 -109.5zM219.5 394q28.5 -29 71.5 -29t71 29t28 71
t-28 71t-71 29t-71.5 -29t-28.5 -71t28.5 -71z" />
    <glyph glyph-name="zero.tosf" 
d="M115.5 60.5q-54.5 75.5 -54.5 186.5q0 65 23 125t73.5 99t128.5 39t128 -39t73 -99t23 -125q0 -111 -54.5 -186.5t-169.5 -75.5q-116 0 -170.5 75.5zM348 157q19 38 19 90t-19 90.5t-62 38.5t-62.5 -38.5t-19.5 -90.5t19.5 -90t62.5 -38t62 38z" />
    <glyph glyph-name="one.tosf" 
d="M470 133v-133h-354v133h110v199l-83 -32l-42 116l219 93h50v-376h100z" />
    <glyph glyph-name="two.tosf" 
d="M121 107q39 27 103 73l60 43q6 5 33 25t40.5 38.5t13.5 35.5q0 23 -16.5 38.5t-43.5 15.5q-32 0 -52 -24t-20 -63l-135 23q2 52 26.5 97.5t70.5 73.5t110 28t110 -24.5t69 -65t23 -86.5q0 -59 -41 -103.5t-106 -83.5l-23 -15h176v-133h-398v107z" />
    <glyph glyph-name="three.tosf" 
d="M466.5 203q44.5 -56 44.5 -128q0 -57 -28 -106t-79 -78.5t-117 -29.5q-84 0 -144 49t-80 123l122 57q10 -39 36.5 -64.5t63.5 -25.5q36 0 61.5 24.5t25.5 58.5q0 37 -26 60t-62 23q-22 0 -38 -5.5t-37 -17.5l-13 23l-49 60l150 139h-198v135h369v-118l-119 -106
q73 -17 117.5 -73z" />
    <glyph glyph-name="four.tosf" 
d="M519 0h-74v-128h-133v128h-261v109l221 391h173v-369h74v-131zM312 131v224l-110 -224h110z" />
    <glyph glyph-name="five.tosf" 
d="M401.5 260q50.5 -29 78 -78t27.5 -108q0 -58 -28 -106.5t-78 -77.5t-115 -29q-84 0 -143.5 47t-77.5 122l125 50q8 -36 33 -60t60 -24q37 0 62 24.5t25 58.5q0 38 -27.5 63t-67.5 25q-30 0 -51 -8t-50 -26l-80 18l78 349h290v-133h-195l-20 -82q16 4 39 4q65 0 115.5 -29
z" />
    <glyph glyph-name="six.tosf" 
d="M408.5 394.5q51.5 -29.5 79.5 -79.5t28 -108q0 -59 -28 -109.5t-79.5 -81t-119.5 -30.5t-119.5 30.5t-79.5 81t-28 109.5q0 58 19 109t54 110q4 6 42 74q48 82 71 124h157l-123 -200h7q68 0 119.5 -29.5zM352 146q25 25 25 62q0 36 -25.5 61.5t-62.5 25.5t-62.5 -25.5
t-25.5 -61.5q0 -37 25 -62t63 -25t63 25z" />
    <glyph glyph-name="seven.tosf" 
d="M491 448l-183 -576h-148l171 495h-246v133h406v-52z" />
    <glyph glyph-name="eight.tosf" 
d="M483.5 273.5q21.5 -39.5 21.5 -85.5q0 -56 -28 -102t-77.5 -73t-113.5 -27t-113.5 27t-77 73t-27.5 102q0 46 21.5 85.5t60.5 66.5q-53 47 -53 118q0 46 24 85t67 62.5t98 23.5t98.5 -23.5t67.5 -62.5t24 -85q0 -35 -14 -65t-39 -53q39 -27 60.5 -66.5zM241.5 483
q-17.5 -17 -17.5 -41t18 -42t44 -18q28 0 45.5 17.5t17.5 42.5q0 24 -17.5 41t-45.5 17q-27 0 -44.5 -17zM343 144.5q22 22.5 22 53.5q0 30 -22.5 52.5t-56.5 22.5t-56 -22.5t-22 -52.5q0 -31 22 -53.5t56 -22.5q35 0 57 22.5z" />
    <glyph glyph-name="nine.tosf" 
d="M415.5 478.5q51.5 -30.5 79.5 -81t28 -109.5q0 -58 -19 -109t-54 -110q-4 -6 -42 -74q-48 -82 -71 -124h-157l123 200h-7q-68 0 -119.5 29.5t-79.5 79.5t-28 108q0 59 28 109.5t79.5 81t119.5 30.5t119.5 -30.5zM233.5 225.5q25.5 -25.5 62.5 -25.5t62.5 25.5t25.5 61.5
q0 37 -25 62t-63 25t-63 -25t-25 -62q0 -36 25.5 -61.5z" />
    <glyph glyph-name="zero.subs" horiz-adv-x="289" 
d="M49.5 -80.5q-30.5 46.5 -30.5 120.5q0 76 30.5 122.5t95.5 46.5t95.5 -46.5t30.5 -122.5q0 -74 -31 -120.5t-95 -46.5q-65 0 -95.5 46.5zM169 -15.5q8 21.5 8 56.5q0 34 -8 54.5t-24 20.5t-24 -20.5t-8 -54.5q0 -35 8 -56.5t24 -21.5t24 21.5z" />
    <glyph glyph-name="one.subs" horiz-adv-x="217" 
d="M180 206v-326h-92v194l-36 -15l-33 81l130 66h31z" />
    <glyph glyph-name="two.subs" horiz-adv-x="271" 
d="M25 -89l97 125q16 22 22.5 32t6.5 19t-5.5 15t-14.5 6q-20 0 -27 -29l-89 35q6 39 39 67t79 28q52 0 84.5 -30t32.5 -74q0 -34 -14.5 -58.5t-44.5 -61.5l-11 -16h72v-89h-227v31z" />
    <glyph glyph-name="three.subs" horiz-adv-x="270" 
d="M234.5 41q17.5 -26 17.5 -59q0 -44 -32.5 -76t-86.5 -32q-43 0 -74.5 22.5t-43.5 61.5l85 35q4 -12 13 -19.5t20 -7.5q12 0 19.5 7.5t7.5 17.5q0 11 -7.5 18.5t-19.5 7.5q-7 0 -17 -5l-51 46l58 55h-92v89h203v-80l-48 -42q31 -13 48.5 -39z" />
    <glyph glyph-name="four.subs" horiz-adv-x="273" 
d="M258 -80h-30v-40h-89v40h-134v63l106 219h117v-198h30v-84zM139 4v87l-36 -87h36z" />
    <glyph glyph-name="five.subs" horiz-adv-x="270" 
d="M218.5 57.5q32.5 -30.5 32.5 -76.5q0 -43 -32.5 -75t-86.5 -32q-43 0 -74 22.5t-43 58.5l85 33q4 -10 12.5 -17t19.5 -7t18.5 7.5t7.5 17.5q0 12 -9 19.5t-24 7.5q-14 0 -34 -11l-65 16l42 181h159v-89h-97l-6 -25h8q54 0 86.5 -30.5z" />
    <glyph glyph-name="six.subs" horiz-adv-x="271" 
d="M225 64.5q31 -31.5 31 -74.5q0 -47 -33.5 -81.5t-86.5 -34.5t-87 34.5t-34 82.5q0 24 6.5 47t19.5 50q10 23 33 64l25 50h102l-57 -103q50 -3 81 -34.5zM155.5 -28q7.5 8 7.5 19q0 12 -7.5 20t-19.5 8t-20 -8t-8 -20q0 -11 8 -19t20 -8t19.5 8z" />
    <glyph glyph-name="seven.subs" horiz-adv-x="235" 
d="M229 179l-79 -299h-100l75 233h-114v89h218v-23z" />
    <glyph glyph-name="eight.subs" horiz-adv-x="280" 
d="M262 -23q0 -46 -35.5 -74.5t-86.5 -28.5t-86 28t-35 75q0 48 43 76q-26 24 -26 62q0 39 30.5 66t73.5 27t74 -27t31 -66q0 -38 -27 -63q44 -26 44 -75zM120 95q0 -6 4.5 -11t10.5 -7q2 -1 6 -1q6 0 11.5 4t6.5 10q1 2 1 5q0 7 -4 11.5t-11 6.5q-2 1 -5 1q-7 0 -12 -4
t-7 -10zM159.5 -28q7.5 8 7.5 19t-7.5 19t-19.5 8t-19.5 -8t-7.5 -19t7.5 -19t19.5 -8t19.5 8z" />
    <glyph glyph-name="nine.subs" horiz-adv-x="271" 
d="M222 173.5q34 -34.5 34 -82.5q0 -24 -6.5 -47t-19.5 -50q-10 -23 -33 -64l-25 -50h-102l57 103q-50 3 -81 34.5t-31 74.5q0 47 33.5 81.5t86.5 34.5t87 -34.5zM115.5 71q7.5 -8 19.5 -8t20 8t8 20q0 11 -8 19t-20 8t-19.5 -8t-7.5 -19q0 -12 7.5 -20z" />
    <glyph glyph-name="zero.dnom" horiz-adv-x="289" 
d="M49.5 39.5q-30.5 46.5 -30.5 120.5q0 76 30.5 122.5t95.5 46.5t95.5 -46.5t30.5 -122.5q0 -74 -31 -120.5t-95 -46.5q-65 0 -95.5 46.5zM169 104.5q8 21.5 8 56.5q0 34 -8 54.5t-24 20.5t-24 -20.5t-8 -54.5q0 -35 8 -56.5t24 -21.5t24 21.5z" />
    <glyph glyph-name="one.dnom" horiz-adv-x="217" 
d="M180 326v-326h-92v194l-36 -15l-33 81l130 66h31z" />
    <glyph glyph-name="two.dnom" horiz-adv-x="271" 
d="M25 31l97 125q16 22 22.5 32t6.5 19t-5.5 15t-14.5 6q-20 0 -27 -29l-89 35q6 39 39 67t79 28q52 0 84.5 -30t32.5 -74q0 -34 -14.5 -58.5t-44.5 -61.5l-11 -16h72v-89h-227v31z" />
    <glyph glyph-name="three.dnom" horiz-adv-x="270" 
d="M234.5 161q17.5 -26 17.5 -59q0 -44 -32.5 -76t-86.5 -32q-43 0 -74.5 22.5t-43.5 61.5l85 35q4 -12 13 -19.5t20 -7.5q12 0 19.5 7.5t7.5 17.5q0 11 -7.5 18.5t-19.5 7.5q-7 0 -17 -5l-51 46l58 55h-92v89h203v-80l-48 -42q31 -13 48.5 -39z" />
    <glyph glyph-name="four.dnom" horiz-adv-x="273" 
d="M258 40h-30v-40h-89v40h-134v63l106 219h117v-198h30v-84zM139 124v87l-36 -87h36z" />
    <glyph glyph-name="five.dnom" horiz-adv-x="270" 
d="M218.5 177.5q32.5 -30.5 32.5 -76.5q0 -43 -32.5 -75t-86.5 -32q-43 0 -74 22.5t-43 58.5l85 33q4 -10 12.5 -17t19.5 -7t18.5 7.5t7.5 17.5q0 12 -9 19.5t-24 7.5q-14 0 -34 -11l-65 16l42 181h159v-89h-97l-6 -25h8q54 0 86.5 -30.5z" />
    <glyph glyph-name="six.dnom" horiz-adv-x="271" 
d="M225 184.5q31 -31.5 31 -74.5q0 -47 -33.5 -81.5t-86.5 -34.5t-87 34.5t-34 82.5q0 24 6.5 47t19.5 50q10 23 33 64l25 50h102l-57 -103q50 -3 81 -34.5zM155.5 92q7.5 8 7.5 19q0 12 -7.5 20t-19.5 8t-20 -8t-8 -20q0 -11 8 -19t20 -8t19.5 8z" />
    <glyph glyph-name="seven.dnom" horiz-adv-x="235" 
d="M229 299l-79 -299h-100l75 233h-114v89h218v-23z" />
    <glyph glyph-name="eight.dnom" horiz-adv-x="280" 
d="M262 97q0 -46 -35.5 -74.5t-86.5 -28.5t-86 28t-35 75q0 48 43 76q-26 24 -26 62q0 39 30.5 66t73.5 27t74 -27t31 -66q0 -38 -27 -63q44 -26 44 -75zM120 215q0 -6 4.5 -11t10.5 -7q2 -1 6 -1q6 0 11.5 4t6.5 10q1 2 1 5q0 7 -4 11.5t-11 6.5q-2 1 -5 1q-7 0 -12 -4
t-7 -10zM159.5 92q7.5 8 7.5 19t-7.5 19t-19.5 8t-19.5 -8t-7.5 -19t7.5 -19t19.5 -8t19.5 8z" />
    <glyph glyph-name="nine.dnom" horiz-adv-x="271" 
d="M222 293.5q34 -34.5 34 -82.5q0 -24 -6.5 -47t-19.5 -50q-10 -23 -33 -64l-25 -50h-102l57 103q-50 3 -81 34.5t-31 74.5q0 47 33.5 81.5t86.5 34.5t87 -34.5zM115.5 191q7.5 -8 19.5 -8t20 8t8 20q0 11 -8 19t-20 8t-19.5 -8t-7.5 -19q0 -12 7.5 -20z" />
    <glyph glyph-name="zero.numr" horiz-adv-x="289" 
d="M49.5 417.5q-30.5 46.5 -30.5 120.5q0 76 30.5 122.5t95.5 46.5t95.5 -46.5t30.5 -122.5q0 -74 -31 -120.5t-95 -46.5q-65 0 -95.5 46.5zM169 482.5q8 21.5 8 56.5q0 34 -8 54.5t-24 20.5t-24 -20.5t-8 -54.5q0 -35 8 -56.5t24 -21.5t24 21.5z" />
    <glyph glyph-name="one.numr" horiz-adv-x="217" 
d="M180 704v-326h-92v194l-36 -15l-33 81l130 66h31z" />
    <glyph glyph-name="two.numr" horiz-adv-x="271" 
d="M25 409l97 125q16 22 22.5 32t6.5 19t-5.5 15t-14.5 6q-20 0 -27 -29l-89 35q6 39 39 67t79 28q52 0 84.5 -30t32.5 -74q0 -34 -14.5 -58.5t-44.5 -61.5l-11 -16h72v-89h-227v31z" />
    <glyph glyph-name="three.numr" horiz-adv-x="270" 
d="M234.5 539q17.5 -26 17.5 -59q0 -44 -32.5 -76t-86.5 -32q-43 0 -74.5 22.5t-43.5 61.5l85 35q4 -12 13 -19.5t20 -7.5q12 0 19.5 7.5t7.5 17.5q0 11 -7.5 18.5t-19.5 7.5q-7 0 -17 -5l-51 46l58 55h-92v89h203v-80l-48 -42q31 -13 48.5 -39z" />
    <glyph glyph-name="four.numr" horiz-adv-x="273" 
d="M258 418h-30v-40h-89v40h-134v63l106 219h117v-198h30v-84zM139 502v87l-36 -87h36z" />
    <glyph glyph-name="five.numr" horiz-adv-x="270" 
d="M218.5 555.5q32.5 -30.5 32.5 -76.5q0 -43 -32.5 -75t-86.5 -32q-43 0 -74 22.5t-43 58.5l85 33q4 -10 12.5 -17t19.5 -7t18.5 7.5t7.5 17.5q0 12 -9 19.5t-24 7.5q-14 0 -34 -11l-65 16l42 181h159v-89h-97l-6 -25h8q54 0 86.5 -30.5z" />
    <glyph glyph-name="six.numr" horiz-adv-x="271" 
d="M225 562.5q31 -31.5 31 -74.5q0 -47 -33.5 -81.5t-86.5 -34.5t-87 34.5t-34 82.5q0 24 6.5 47t19.5 50q10 23 33 64l25 50h102l-57 -103q50 -3 81 -34.5zM155.5 470q7.5 8 7.5 19q0 12 -7.5 20t-19.5 8t-20 -8t-8 -20q0 -11 8 -19t20 -8t19.5 8z" />
    <glyph glyph-name="seven.numr" horiz-adv-x="235" 
d="M229 677l-79 -299h-100l75 233h-114v89h218v-23z" />
    <glyph glyph-name="eight.numr" horiz-adv-x="280" 
d="M262 475q0 -46 -35.5 -74.5t-86.5 -28.5t-86 28t-35 75q0 48 43 76q-26 24 -26 62q0 39 30.5 66t73.5 27t74 -27t31 -66q0 -38 -27 -63q44 -26 44 -75zM120 593q0 -6 4.5 -11t10.5 -7q2 -1 6 -1q6 0 11.5 4t6.5 10q1 2 1 5q0 7 -4 11.5t-11 6.5q-2 1 -5 1q-7 0 -12 -4
t-7 -10zM159.5 470q7.5 8 7.5 19t-7.5 19t-19.5 8t-19.5 -8t-7.5 -19t7.5 -19t19.5 -8t19.5 8z" />
    <glyph glyph-name="nine.numr" horiz-adv-x="271" 
d="M222 671.5q34 -34.5 34 -82.5q0 -24 -6.5 -47t-19.5 -50q-10 -23 -33 -64l-25 -50h-102l57 103q-50 3 -81 34.5t-31 74.5q0 47 33.5 81.5t86.5 34.5t87 -34.5zM115.5 569q7.5 -8 19.5 -8t20 8t8 20q0 11 -8 19t-20 8t-19.5 -8t-7.5 -19q0 -12 7.5 -20z" />
    <glyph glyph-name="zero.sups" horiz-adv-x="289" 
d="M49.5 539.5q-30.5 46.5 -30.5 120.5q0 76 30.5 122.5t95.5 46.5t95.5 -46.5t30.5 -122.5q0 -74 -31 -120.5t-95 -46.5q-65 0 -95.5 46.5zM169 604.5q8 21.5 8 56.5q0 34 -8 54.5t-24 20.5t-24 -20.5t-8 -54.5q0 -35 8 -56.5t24 -21.5t24 21.5z" />
    <glyph glyph-name="one.sups" horiz-adv-x="217" 
d="M180 826v-326h-92v194l-36 -15l-33 81l130 66h31z" />
    <glyph glyph-name="two.sups" horiz-adv-x="271" 
d="M25 531l97 125q16 22 22.5 32t6.5 19t-5.5 15t-14.5 6q-20 0 -27 -29l-89 35q6 39 39 67t79 28q52 0 84.5 -30t32.5 -74q0 -34 -14.5 -58.5t-44.5 -61.5l-11 -16h72v-89h-227v31z" />
    <glyph glyph-name="three.sups" horiz-adv-x="270" 
d="M234.5 661q17.5 -26 17.5 -59q0 -44 -32.5 -76t-86.5 -32q-43 0 -74.5 22.5t-43.5 61.5l85 35q4 -12 13 -19.5t20 -7.5q12 0 19.5 7.5t7.5 17.5q0 11 -7.5 18.5t-19.5 7.5q-7 0 -17 -5l-51 46l58 55h-92v89h203v-80l-48 -42q31 -13 48.5 -39z" />
    <glyph glyph-name="four.sups" horiz-adv-x="273" 
d="M258 540h-30v-40h-89v40h-134v63l106 219h117v-198h30v-84zM139 624v87l-36 -87h36z" />
    <glyph glyph-name="five.sups" horiz-adv-x="270" 
d="M218.5 677.5q32.5 -30.5 32.5 -76.5q0 -43 -32.5 -75t-86.5 -32q-43 0 -74 22.5t-43 58.5l85 33q4 -10 12.5 -17t19.5 -7t18.5 7.5t7.5 17.5q0 12 -9 19.5t-24 7.5q-14 0 -34 -11l-65 16l42 181h159v-89h-97l-6 -25h8q54 0 86.5 -30.5z" />
    <glyph glyph-name="six.sups" horiz-adv-x="271" 
d="M225 684.5q31 -31.5 31 -74.5q0 -47 -33.5 -81.5t-86.5 -34.5t-87 34.5t-34 82.5q0 24 6.5 47t19.5 50q10 23 33 64l25 50h102l-57 -103q50 -3 81 -34.5zM155.5 592q7.5 8 7.5 19q0 12 -7.5 20t-19.5 8t-20 -8t-8 -20q0 -11 8 -19t20 -8t19.5 8z" />
    <glyph glyph-name="seven.sups" horiz-adv-x="235" 
d="M229 799l-79 -299h-100l75 233h-114v89h218v-23z" />
    <glyph glyph-name="eight.sups" horiz-adv-x="280" 
d="M262 597q0 -46 -35.5 -74.5t-86.5 -28.5t-86 28t-35 75q0 48 43 76q-26 24 -26 62q0 39 30.5 66t73.5 27t74 -27t31 -66q0 -38 -27 -63q44 -26 44 -75zM120 715q0 -6 4.5 -11t10.5 -7q2 -1 6 -1q6 0 11.5 4t6.5 10q1 2 1 5q0 7 -4 11.5t-11 6.5q-2 1 -5 1q-7 0 -12 -4
t-7 -10zM159.5 592q7.5 8 7.5 19t-7.5 19t-19.5 8t-19.5 -8t-7.5 -19t7.5 -19t19.5 -8t19.5 8z" />
    <glyph glyph-name="nine.sups" horiz-adv-x="271" 
d="M222 793.5q34 -34.5 34 -82.5q0 -24 -6.5 -47t-19.5 -50q-10 -23 -33 -64l-25 -50h-102l57 103q-50 3 -81 34.5t-31 74.5q0 47 33.5 81.5t86.5 34.5t87 -34.5zM115.5 691q7.5 -8 19.5 -8t20 8t8 20q0 11 -8 19t-20 8t-19.5 -8t-7.5 -19q0 -12 7.5 -20z" />
    <glyph glyph-name="space.tf" 
 />
    <glyph glyph-name="cent.tf" 
d="M254 432q-35 -33 -35 -82t35 -82t89 -33q71 0 138 50v-154q-55 -35 -124 -39v-92h-90v98q-88 21 -141 91t-53 161t53 161t141 91v98h90v-92q69 -4 124 -39v-154q-67 50 -138 50q-54 0 -89 -33z" />
    <glyph glyph-name="currency.tf" 
d="M502 203l62 -62l-64 -64l-63 63q-65 -43 -146 -43q-86 0 -153 48l-68 -68l-64 64l70 70q-43 65 -43 146q0 80 42 145l-69 69l64 64l67 -67q66 49 154 49q84 0 147 -44l62 62l64 -64l-61 -61q47 -67 47 -153t-48 -154zM372 275q31 34 31 83q0 48 -31 81.5t-81 33.5
q-48 0 -79.5 -33.5t-31.5 -81.5t31.5 -82.5t79.5 -34.5q50 0 81 34z" />
    <glyph glyph-name="dollar.tf" 
d="M252.5 457.5q27.5 -20.5 84.5 -45.5q60 -28 97.5 -51.5t65 -65t27.5 -102.5q0 -78 -50.5 -134t-139.5 -68v-59h-90v59q-60 9 -112.5 39t-87.5 72l90 112q30 -35 72.5 -58.5t81.5 -23.5q37 0 58.5 18.5t21.5 47.5q0 35 -28 56t-89 48q-58 26 -95 49t-63.5 63.5
t-26.5 100.5q0 72 48.5 126t129.5 67v63h90v-62q53 -8 98.5 -33.5t78.5 -59.5l-84 -111q-27 26 -62.5 44.5t-68.5 18.5t-53.5 -16.5t-20.5 -43.5q0 -30 27.5 -50.5z" />
    <glyph glyph-name="Euro.tf" 
d="M331.5 534.5q-38.5 -29.5 -60.5 -79.5h180v-84h-199q-1 -7 -1 -21t1 -21h199v-84h-180q21 -50 60 -80t89 -30q40 0 71 12.5t60 34.5v-161q-61 -33 -138 -33q-114 0 -195 70.5t-108 186.5h-76v84h64v21v21h-64v84h76q27 116 108 186.5t195 70.5q78 0 138 -34v-160
q-28 22 -59.5 34t-71.5 12q-50 0 -88.5 -29.5z" />
    <glyph glyph-name="florin.tf" 
d="M445 565q-32 0 -51 -19t-22 -55l-5 -59h92v-99h-101l-6 -60q-12 -126 -12 -127q-8 -79 -57 -118.5t-120 -39.5q-50 0 -102 20v141q38 -16 68 -16q32 0 50.5 19t21.5 55l11 126h-95v99h104l12 120q8 79 56.5 118.5t119.5 39.5q51 0 103 -20v-140q-39 15 -67 15z" />
    <glyph glyph-name="sterling.tf" 
d="M264 142h245v-142h-439v40q42 52 65 96t23 86q0 10 -1 15h-96v86h69l-14 25q-23 39 -35 70.5t-12 76.5q0 57 27.5 107t79 80.5t120.5 30.5q66 0 116.5 -30t79.5 -80t35 -111l-137 -38q-5 46 -30.5 77t-63.5 31q-34 0 -56.5 -23.5t-22.5 -58.5q0 -28 7.5 -49.5t24.5 -54.5
q18 -34 25 -53h132v-86h-120q-3 -51 -22 -95z" />
    <glyph glyph-name="yen.tf" 
d="M400 316h102v-84h-141v-41h141v-84h-141v-107h-150v107h-126v84h126v41h-126v84h86l-186 384h164l137 -313l136 313h164z" />
    <glyph glyph-name="caroncomb.alt" horiz-adv-x="0" 
d="M-138 522l20 222l118 -16l-52 -216z" />
    </font>
</defs>
</svg>
