<?xml version="1.0" standalone="no"?>
<!DOCTYPE svg PUBLIC "-//W3C//DTD SVG 1.1//EN" "http://www.w3.org/Graphics/SVG/1.1/DTD/svg11.dtd" >
<svg xmlns="http://www.w3.org/2000/svg" xmlns:xlink="http://www.w3.org/1999/xlink" version="1.1">
<metadata>
Created by FontForge 20170731 at Thu Jun 23 15:37:47 2016
 By Aleksey,,,
Copyright (c) 2016 by Jonathan Ball. All rights reserved.
</metadata>
<defs>
<font id="Acre-Regular" horiz-adv-x="546" >
  <font-face 
    font-family="Acre-Regular"
    font-weight="400"
    font-stretch="normal"
    units-per-em="1000"
    panose-1="0 0 5 0 0 0 0 0 0 0"
    ascent="795"
    descent="-205"
    x-height="500"
    cap-height="700"
    bbox="-647 -212 1079 1035"
    underline-thickness="50"
    underline-position="-150"
    unicode-range="U+0020-FB02"
  />
<missing-glyph horiz-adv-x="500" 
d="M410 -200h-317v1000h317v-1000zM168 733v-33h65v-37h-66v-33h166v33h-66v37h66v33h-165zM167 604v-104h166v34h-66v70h-100zM233 534h-33v36h33v-36zM167 473v-33h66v-37h-66v-33h100v70h66v33h-166zM300 413v-66h-133v-34h166v100h-33zM233 291v-56h34v23h33v-47h-100
v80h-33v-113h166v113h-100zM167 118v-113h166v113h-166zM300 38h-100v47h100v-47zM167 -18v-33h70l-70 -47v-33h166v33h-102l70 47h32v33h-166z" />
    <glyph glyph-name="fi" unicode="fi" horiz-adv-x="529" 
d="M435 0h-79v424h-181v-424h-80v424h-64v76h64v193q0 52 28 82t75 30q42 0 80 -20v-82q-17 9 -30.5 14t-29.5 5q-19 0 -31 -12.5t-12 -35.5v-174h260v-500zM357 612.5q-16 15.5 -16 39.5q0 23 16 38.5t39 15.5t38.5 -15.5t15.5 -38.5q0 -24 -15.5 -39.5t-38.5 -15.5
t-39 15.5z" />
    <glyph glyph-name="fl" unicode="fl" horiz-adv-x="529" 
d="M187 709.5q-12 -12.5 -12 -35.5v-174h103v-76h-103v-424h-80v424h-64v76h64v193q0 52 28 82t75 30q42 0 80 -20v-82q-17 9 -30.5 14t-29.5 5q-19 0 -31 -12.5zM372 800h79v-800h-79v800z" />
    <glyph glyph-name=".notdef" horiz-adv-x="500" 
d="M410 -200h-317v1000h317v-1000zM168 733v-33h65v-37h-66v-33h166v33h-66v37h66v33h-165zM167 604v-104h166v34h-66v70h-100zM233 534h-33v36h33v-36zM167 473v-33h66v-37h-66v-33h100v70h66v33h-166zM300 413v-66h-133v-34h166v100h-33zM233 291v-56h34v23h33v-47h-100
v80h-33v-113h166v113h-100zM167 118v-113h166v113h-166zM300 38h-100v47h100v-47zM167 -18v-33h70l-70 -47v-33h166v33h-102l70 47h32v33h-166z" />
    <glyph glyph-name=".null" horiz-adv-x="0" 
 />
    <glyph glyph-name="nonmarkingreturn" horiz-adv-x="333" 
 />
    <glyph glyph-name="space" unicode=" " horiz-adv-x="339" 
 />
    <glyph glyph-name="exclam" unicode="!" horiz-adv-x="230" 
d="M69 700h92l-15 -547h-62zM76.5 9.5q-15.5 15.5 -15.5 38.5q0 22 15.5 38t38.5 16q22 0 37.5 -16t15.5 -38q0 -23 -15.5 -38.5t-37.5 -15.5q-23 0 -38.5 15.5z" />
    <glyph glyph-name="quotedbl" unicode="&#x22;" horiz-adv-x="231" 
d="M20 700h81l-13 -261h-56zM129 700h81l-13 -261h-56z" />
    <glyph glyph-name="numbersign" unicode="#" horiz-adv-x="578" 
d="M423 430l-26 -160h129v-61h-138l-33 -209h-60l33 209h-126l-33 -209h-60l33 209h-90v61h99l26 160h-125v61h134l33 209h60l-33 -209h126l33 209h60l-33 -209h94v-61h-103zM363 430h-126l-26 -160h126z" />
    <glyph glyph-name="dollar" unicode="$" horiz-adv-x="517" 
d="M161.5 473.5q18.5 -24.5 46.5 -41t77 -38.5q62 -29 99 -52.5t63.5 -63.5t26.5 -99q0 -71 -46.5 -123t-126.5 -63v-61h-71v60q-58 7 -107 40t-80 79l59 55q30 -45 73.5 -71.5t90.5 -26.5q56 0 91.5 31t35.5 78q0 40 -20 67.5t-50 45.5t-81 41q-58 27 -94 49.5t-61 60
t-25 92.5q0 68 47 117t121 58v63h71v-65q47 -8 86.5 -33.5t68.5 -60.5l-52 -54q-28 32 -65.5 53.5t-78.5 21.5q-51 -1 -84 -29.5t-33 -71.5q0 -34 18.5 -58.5z" />
    <glyph glyph-name="percent" unicode="%" horiz-adv-x="658" 
d="M103 443.5q-33 19.5 -52.5 52.5t-19.5 71q0 39 19.5 72t52.5 52t71 19q39 0 72 -19t52 -52t19 -72q0 -38 -19 -71t-52 -52.5t-72 -19.5q-38 0 -71 19.5zM527 700h74l-468 -700h-75zM228.5 514q21.5 21 21.5 52q0 33 -21.5 55t-54.5 22q-31 0 -52.5 -22t-21.5 -55
q0 -31 21.5 -52t52.5 -21q33 0 54.5 21zM413 9.5q-33 19.5 -52.5 52.5t-19.5 71q0 39 19.5 72t52.5 52t71 19q39 0 72 -19t52 -52t19 -72q0 -38 -19 -71t-52 -52.5t-72 -19.5q-38 0 -71 19.5zM538 80q22 21 22 52q0 33 -22 55t-55 22q-31 0 -52 -22t-21 -55q0 -31 21 -52
t52 -21q33 0 55 21z" />
    <glyph glyph-name="ampersand" unicode="&#x26;" horiz-adv-x="611" 
d="M511 0l-58 68q-34 -38 -79.5 -58.5t-100.5 -20.5q-59 0 -109.5 23t-81 66t-30.5 101q0 67 36 111t100 83q-42 47 -67.5 89t-25.5 86q0 40 20 78t59.5 62.5t94.5 24.5q53 0 91.5 -23.5t59 -61t20.5 -79.5q0 -63 -37 -105t-105 -84l144 -169q25 63 25 158h76
q1 -61 -11.5 -117.5t-36.5 -102.5q49 -60 108 -129h-92zM196 482.5q20 -30.5 57 -71.5q53 31 81.5 61.5t28.5 72.5q0 39 -25.5 65.5t-68.5 26.5q-39 0 -66 -27t-27 -65q0 -32 20 -62.5zM404 124l-169 196q-49 -31 -75 -62.5t-26 -72.5q0 -36 19.5 -63.5t52 -42t68.5 -14.5
q80 0 130 59z" />
    <glyph glyph-name="quotesingle" unicode="'" horiz-adv-x="122" 
d="M20 700h81l-13 -261h-56z" />
    <glyph glyph-name="parenleft" unicode="(" horiz-adv-x="253" 
d="M70 339q0 221 68 440h80q-65 -237 -65 -440q0 -202 65 -439h-80q-68 219 -68 439z" />
    <glyph glyph-name="parenright" unicode=")" horiz-adv-x="253" 
d="M35 -100q65 237 65 439q0 203 -65 440h80q68 -219 68 -440q0 -220 -68 -439h-80z" />
    <glyph glyph-name="asterisk" unicode="*" horiz-adv-x="282" 
d="M178 639l84 -32l-33 -57l-70 58l15 -90h-66l15 89l-70 -57l-33 57l85 32l-85 31l33 58l70 -57l-15 88h66l-15 -89l70 58l33 -58z" />
    <glyph glyph-name="plus" unicode="+" horiz-adv-x="469" 
d="M425 271h-155v-155h-73v155h-153v71h153v149h73v-149h155v-71z" />
    <glyph glyph-name="comma" unicode="," horiz-adv-x="163" 
d="M55 140h82l-55 -248h-56z" />
    <glyph glyph-name="hyphen" unicode="-" horiz-adv-x="411" 
d="M44 341h324v-71h-324v71z" />
    <glyph glyph-name="period" unicode="." horiz-adv-x="159" 
d="M41.5 9.5q-15.5 15.5 -15.5 38.5q0 22 15.5 38t38.5 16q22 0 37.5 -16t15.5 -38q0 -23 -15.5 -38.5t-37.5 -15.5q-23 0 -38.5 15.5z" />
    <glyph glyph-name="slash" unicode="/" horiz-adv-x="314" 
d="M0 -120l234 920h80l-235 -920h-79z" />
    <glyph glyph-name="zero" unicode="0" horiz-adv-x="541" 
d="M101 90q-54 100 -54 260q0 159 54 259.5t170 100.5q115 0 169.5 -100.5t54.5 -259.5t-54.5 -259.5t-169.5 -100.5q-116 0 -170 100zM382.5 149.5q33.5 80.5 33.5 200.5q0 119 -33.5 200t-111.5 81t-111.5 -81t-33.5 -200q0 -120 33.5 -200.5t111.5 -80.5t111.5 80.5z" />
    <glyph glyph-name="one" unicode="1" horiz-adv-x="323" 
d="M245 710v-710h-79v575l-98 -62l-37 65l204 132h10z" />
    <glyph glyph-name="two" unicode="2" horiz-adv-x="532" 
d="M67 11q114 140 228 285q38 47 57.5 74t33.5 61t14 70q0 33 -16.5 63.5t-47 50t-70.5 19.5q-62 0 -101.5 -43t-45.5 -110l-75 22q5 56 33 104t76.5 76.5t112.5 28.5q63 0 112 -29.5t76 -77t27 -101.5q0 -61 -27.5 -113.5t-80.5 -118.5l-157 -195h272v-77h-421v11z" />
    <glyph glyph-name="three" unicode="3" horiz-adv-x="557" 
d="M407 413q50 -31 77.5 -81.5t27.5 -109.5q0 -61 -29.5 -114t-83 -85.5t-122.5 -32.5q-90 0 -150.5 50t-81.5 126l75 32q14 -56 56 -92.5t101 -36.5q44 0 79 20.5t55 55.5t20 77q0 43 -20 77.5t-56 54.5t-80 20q-49 0 -98 -28l-37 40l207 235h-267v79h385v-58l-175 -195
q67 -3 117 -34z" />
    <glyph glyph-name="four" unicode="4" horiz-adv-x="485" 
d="M461 122h-75v-122h-79v122h-303v52l308 530h74v-505h75v-77zM307 199v359l-202 -359h202z" />
    <glyph glyph-name="five" unicode="5" horiz-adv-x="551" 
d="M394 422.5q53 -32.5 82.5 -86t29.5 -114.5q0 -62 -29 -115t-82 -85t-122 -32q-85 0 -147 49.5t-81 125.5l73 32q14 -56 56 -92t99 -36q44 0 78.5 20t54 55t19.5 78t-20 78.5t-55.5 56t-81.5 20.5q-45 0 -81 -20t-60 -54l-48 10l83 387h282v-78h-222l-37 -186q38 19 88 19
q68 0 121 -32.5z" />
    <glyph glyph-name="six" unicode="6" horiz-adv-x="554" 
d="M397 423q53 -31 82.5 -84t29.5 -117t-29.5 -116.5t-82.5 -83.5t-120 -31t-120 31t-82.5 83.5t-29.5 116.5v1v0v1q1 51 20 99t56 116q4 9 14 27l62 115l64 119h90l-139 -255q30 9 65 9q67 0 120 -31zM355 89.5q35 20.5 54.5 56t19.5 76.5t-19.5 76.5t-54 56t-78.5 20.5
q-43 0 -78 -20.5t-54.5 -56t-19.5 -76.5t19.5 -76.5t54.5 -56t78 -20.5t78 20.5z" />
    <glyph glyph-name="seven" unicode="7" horiz-adv-x="438" 
d="M433 690l-232 -690h-86l217 622h-319v78h420v-10z" />
    <glyph glyph-name="eight" unicode="8" horiz-adv-x="548" 
d="M472 312.5q29 -48.5 29 -104.5q0 -60 -28.5 -110t-80.5 -79t-118 -29t-118 29t-80.5 79t-28.5 110q0 57 28.5 106t78.5 77q-33 24 -51.5 60.5t-18.5 79.5q0 47 24.5 88t68 66t97.5 25t97.5 -25t68 -66t24.5 -88q0 -43 -18.5 -80t-52.5 -61q50 -29 79 -77.5zM195.5 452
q30.5 -31 78.5 -31t79 31t31 75t-30.5 74t-79.5 30q-48 0 -78.5 -30t-30.5 -74t30.5 -75zM350.5 86q33.5 19 52.5 51.5t19 70.5t-19 71t-52.5 52.5t-76.5 19.5q-42 0 -76 -19.5t-53 -52.5t-19 -71t19 -70.5t53 -51.5t76 -19q43 0 76.5 19z" />
    <glyph glyph-name="nine" unicode="9" horiz-adv-x="513" 
d="M509 476q-1 -51 -20 -99t-56 -116q-4 -9 -14 -27l-62 -115l-64 -119h-90l139 255q-30 -9 -65 -9q-67 0 -120 31t-82.5 84t-29.5 117t29.5 116.5t82.5 83.5t120 31t120 -31t82.5 -83.5t29.5 -116.5v-1v0v-1zM144.5 401.5q19.5 -35.5 54 -56t78.5 -20.5q43 0 78 20.5
t54.5 56t19.5 76.5t-19.5 76.5t-54.5 56t-78 20.5t-78 -20.5t-54.5 -56t-19.5 -76.5t19.5 -76.5z" />
    <glyph glyph-name="colon" unicode=":" horiz-adv-x="255" 
d="M93.5 9.5q-15.5 15.5 -15.5 38.5q0 22 15.5 38t38.5 16q22 0 37.5 -16t15.5 -38q0 -23 -15.5 -38.5t-37.5 -15.5q-23 0 -38.5 15.5zM93.5 413.5q-15.5 15.5 -15.5 38.5q0 22 15.5 38t38.5 16q22 0 37.5 -16t15.5 -38q0 -23 -15.5 -38.5t-37.5 -15.5q-23 0 -38.5 15.5z
" />
    <glyph glyph-name="semicolon" unicode=";" horiz-adv-x="165" 
d="M57 140h82l-55 -248h-56zM41.5 413.5q-15.5 15.5 -15.5 38.5q0 22 15.5 38t38.5 16q22 0 37.5 -16t15.5 -38q0 -23 -15.5 -38.5t-37.5 -15.5q-23 0 -38.5 15.5z" />
    <glyph glyph-name="less" unicode="&#x3c;" horiz-adv-x="435" 
d="M391 461l-241 -160l241 -160v-83l-347 240v8l347 238v-83z" />
    <glyph glyph-name="equal" unicode="=" horiz-adv-x="469" 
d="M44 408h381v-71h-381v71zM44 273h381v-71h-381v71z" />
    <glyph glyph-name="greater" unicode="&#x3e;" horiz-adv-x="435" 
d="M391 306v-8l-347 -240v83l241 160l-241 160v83z" />
    <glyph glyph-name="question" unicode="?" horiz-adv-x="446" 
d="M186 358q76 9 120 49.5t44 100.5q0 32 -15 60.5t-43.5 46.5t-67.5 18q-53 0 -89.5 -34.5t-46.5 -93.5l-75 21q13 80 69 133t142 53q64 0 111.5 -28.5t72.5 -75.5t25 -100q0 -73 -46.5 -130t-122.5 -76l-7 -149h-62zM186.5 9.5q-15.5 15.5 -15.5 38.5q0 22 15.5 38
t38.5 16q22 0 37.5 -16t15.5 -38q0 -23 -15.5 -38.5t-37.5 -15.5q-23 0 -38.5 15.5z" />
    <glyph glyph-name="at" unicode="@" horiz-adv-x="915" 
d="M662.5 660q90.5 -54 141 -144.5t50.5 -197.5q0 -63 -19.5 -111.5t-54 -75.5t-79.5 -27q-46 0 -77.5 23.5t-42.5 64.5q-23 -38 -59.5 -59t-82.5 -21q-53 0 -96 26.5t-67 72.5t-24 102t24 102t67 72t96 26q42 0 77 -18.5t58 -50.5v56h67l-1 -232q0 -49 17.5 -72.5
t47.5 -23.5q36 0 56.5 38.5t20.5 107.5q0 87 -41.5 162t-116 119.5t-167.5 44.5t-167 -44.5t-115.5 -119.5t-41.5 -162t41.5 -162t115.5 -119.5t167 -44.5q116 0 201 66l2 -83q-90 -53 -203 -53q-115 0 -205.5 53.5t-140.5 144.5t-50 198t50 197.5t140.5 144.5t205.5 54
t205.5 -54zM538.5 216.5q35.5 39.5 35.5 96.5t-35.5 96.5t-90.5 39.5q-53 0 -88.5 -40t-35.5 -96t35.5 -96t88.5 -40q55 0 90.5 39.5z" />
    <glyph glyph-name="A" unicode="A" horiz-adv-x="636" 
d="M476 161h-316l-67 -161h-89l307 710h13l307 -710h-88zM444 238l-126 304l-126 -304h252z" />
    <glyph glyph-name="B" unicode="B" horiz-adv-x="574" 
d="M488.5 311q33.5 -48 33.5 -111q0 -53 -25.5 -99t-75.5 -73.5t-118 -27.5h-216v700h185q64 0 109.5 -24.5t68 -65t22.5 -88.5q0 -44 -19.5 -81t-54.5 -61q57 -21 90.5 -69zM167 622v-218h98q58 0 92.5 32.5t34.5 79.5t-33.5 76.5t-91.5 29.5h-100zM401 113.5
q38 35.5 38 89.5q0 53 -37.5 88t-102.5 35h-132v-248h132q64 0 102 35.5z" />
    <glyph glyph-name="C" unicode="C" horiz-adv-x="625" 
d="M231.5 37.5q-81.5 49.5 -126 132.5t-44.5 180t44.5 180t126 132.5t186.5 49.5q91 0 163 -37v-88q-68 47 -162 47q-80 0 -143.5 -39t-98.5 -104t-35 -141t35 -141t98.5 -104t143.5 -39q94 0 162 47v-88q-72 -37 -163 -37q-105 0 -186.5 49.5z" />
    <glyph glyph-name="D" unicode="D" horiz-adv-x="676" 
d="M450.5 654q79.5 -46 122 -125.5t42.5 -176.5q0 -98 -42.5 -178t-122.5 -127t-187 -47h-176v700h176q108 0 187.5 -46zM408 115.5q61 37.5 93.5 100t32.5 136.5q0 76 -32 137.5t-93 97t-144 35.5h-98v-544h98q82 0 143 37.5z" />
    <glyph glyph-name="E" unicode="E" horiz-adv-x="516" 
d="M167 623v-227h232v-77h-232v-242h297v-77h-377v700h377v-77h-297z" />
    <glyph glyph-name="F" unicode="F" horiz-adv-x="461" 
d="M167 622v-253h202v-78h-202v-291h-80v700h365v-78h-285z" />
    <glyph glyph-name="G" unicode="G" horiz-adv-x="763" 
d="M693 366v-274q-47 -49 -118 -76.5t-155 -27.5q-105 0 -187 49.5t-127 132.5t-45 180t45 180t127 132.5t187 49.5q79 0 145 -27.5t114 -76.5l-54 -57q-80 82 -204 82q-80 0 -144 -38t-99.5 -103t-35.5 -142t36 -141.5t99.5 -103t143.5 -38.5q54 0 104 15t88 42v165h-191
v77h271z" />
    <glyph glyph-name="H" unicode="H" horiz-adv-x="702" 
d="M615 700v-700h-80v315h-368v-315h-80v700h80v-308h368v308h80z" />
    <glyph glyph-name="I" unicode="I" horiz-adv-x="254" 
d="M87 700h80v-700h-80v700z" />
    <glyph glyph-name="J" unicode="J" horiz-adv-x="421" 
d="M85 8.5q-41 19.5 -72 52.5l51 59q23 -25 50.5 -39t55.5 -14q53 0 77.5 31.5t24.5 87.5v514h80v-516q0 -90 -45.5 -142.5t-136.5 -52.5q-44 0 -85 19.5z" />
    <glyph glyph-name="K" unicode="K" horiz-adv-x="566" 
d="M455 0l-288 323v-323h-80v700h80v-348l286 348h96l-296 -359l304 -341h-102z" />
    <glyph glyph-name="L" unicode="L" horiz-adv-x="447" 
d="M434 78v-78h-347v700h80v-622h267z" />
    <glyph glyph-name="M" unicode="M" horiz-adv-x="813" 
d="M714 0l-103 486l-201 -494h-12l-200 491l-99 -483h-82l152 710h13l222 -557l221 557h13l157 -710h-81z" />
    <glyph glyph-name="N" unicode="N" horiz-adv-x="737" 
d="M650 700v-712h-11l-473 527v-515h-79v712h12l472 -534v522h79z" />
    <glyph glyph-name="O" unicode="O" horiz-adv-x="842" 
d="M233 37q-82 49 -127 132t-45 181q0 97 45 180t127 132.5t188 49.5q105 0 187.5 -49.5t127.5 -132.5t45 -180q0 -98 -45 -181t-127.5 -132t-187.5 -49q-106 0 -188 49zM565.5 106q63.5 39 99 103.5t35.5 140.5t-35.5 140.5t-99 103.5t-144.5 39t-144.5 -39t-99 -103.5
t-35.5 -140.5t35.5 -140.5t99 -103.5t144.5 -39t144.5 39z" />
    <glyph glyph-name="P" unicode="P" horiz-adv-x="504" 
d="M375.5 669q54.5 -31 83 -81.5t28.5 -107.5q0 -62 -28 -112t-82.5 -79t-129.5 -29h-80v-260h-80v700h160q74 0 128.5 -31zM361.5 376q43.5 38 43.5 104q0 62 -44 102t-118 40h-76v-284h76q75 0 118.5 38z" />
    <glyph glyph-name="Q" unicode="Q" horiz-adv-x="848" 
d="M756 213q-25 -65 -71 -115l86 -98h-102l-43 48q-88 -60 -205 -60q-106 0 -188 49t-127 132t-45 181q0 97 45 180t127 132.5t188 49.5q105 0 187.5 -49.5t127.5 -132.5t45 -180q0 -72 -25 -137zM572 110l-152 173h102l108 -123q34 38 52 87t18 103q0 76 -35.5 140.5
t-99 103.5t-144.5 39t-144.5 -39t-99 -103.5t-35.5 -140.5t35.5 -140.5t99 -103.5t144.5 -39q84 0 151 43z" />
    <glyph glyph-name="R" unicode="R" horiz-adv-x="545" 
d="M428 0l-161 275h-1h-99v-275h-80v700h180q69 0 120.5 -29.5t79 -78t27.5 -104.5q0 -72 -39.5 -126.5t-109.5 -75.5l175 -286h-92zM167 353h98q66 0 107 37.5t41 97.5q0 59 -41 96.5t-107 37.5h-98v-269z" />
    <glyph glyph-name="S" unicode="S" horiz-adv-x="517" 
d="M136 24q-58 34 -93 87l59 55q30 -45 73.5 -71.5t90.5 -26.5q56 0 91.5 31t35.5 78q0 40 -20 67.5t-50 45.5t-81 41q-58 27 -94 49.5t-61 60t-25 92.5q0 49 25.5 89.5t70.5 64t101 23.5q60 0 110.5 -28t86.5 -70l-52 -54q-28 32 -65.5 53.5t-78.5 21.5q-51 -1 -84 -29.5
t-33 -71.5q0 -34 18.5 -58.5t46.5 -41t77 -38.5q62 -29 99 -52.5t63.5 -63.5t26.5 -99q0 -52 -26 -95t-74 -68.5t-113 -25.5q-67 0 -125 34z" />
    <glyph glyph-name="T" unicode="T" horiz-adv-x="467" 
d="M454 622h-178v-622h-80v622h-183v78h441v-78z" />
    <glyph glyph-name="U" unicode="U" horiz-adv-x="615" 
d="M182 19q-54 30 -83 84.5t-29 126.5v470h79v-460q0 -83 43 -128t116 -45q72 0 115 44.5t43 128.5v460h80v-470q0 -72 -29 -126.5t-83 -84.5t-126 -30t-126 30z" />
    <glyph glyph-name="V" unicode="V" horiz-adv-x="613" 
d="M608 700l-295 -711h-13l-296 711h87l215 -543l216 543h86z" />
    <glyph glyph-name="W" unicode="W" horiz-adv-x="1012" 
d="M1009 700l-338 -715h-16l-149 322l-149 -322h-15l-340 715l88 1l260 -562l115 249l-143 312l83 1l101 -233l102 233l83 -1l-143 -314l114 -250l261 565z" />
    <glyph glyph-name="X" unicode="X" horiz-adv-x="602" 
d="M497 0l-196 293l-196 -293h-96l243 351l-236 349h93l192 -290l192 290h93l-237 -349l244 -351h-96z" />
    <glyph glyph-name="Y" unicode="Y" horiz-adv-x="572" 
d="M326 247v-247h-80v247l-242 453h91l191 -372l191 372h90z" />
    <glyph glyph-name="Z" unicode="Z" horiz-adv-x="500" 
d="M466 688l-313 -611h303v-77h-421v14l313 609h-309v77h427v-12z" />
    <glyph glyph-name="bracketleft" unicode="[" horiz-adv-x="284" 
d="M166 692v-706h83v-78h-162v861h162v-77h-83z" />
    <glyph glyph-name="backslash" unicode="\" horiz-adv-x="314" 
d="M0 800h80l234 -920h-79z" />
    <glyph glyph-name="bracketright" unicode="]" horiz-adv-x="284" 
d="M197 -92h-162v78h83v706h-83v77h162v-861z" />
    <glyph glyph-name="asciicircum" unicode="^" horiz-adv-x="442" 
d="M334 431l-113 200l-114 -200h-87l162 269h78l162 -269h-88z" />
    <glyph glyph-name="underscore" unicode="_" horiz-adv-x="490" 
d="M26 -30h438v-60h-438v60z" />
    <glyph glyph-name="grave" unicode="`" horiz-adv-x="223" 
d="M20 736h88l95 -163h-70z" />
    <glyph glyph-name="a" unicode="a" horiz-adv-x="617" 
d="M539 500v-500h-79v90q-30 -45 -76.5 -71t-103.5 -26q-68 0 -121.5 34t-83.5 93t-30 130t30 130t83.5 93t121.5 34q57 0 103.5 -26t76.5 -71v90h79zM377.5 94.5q38.5 24.5 60.5 66t22 89.5t-22 89.5t-60.5 66t-85.5 24.5t-85 -24t-59 -65.5t-21 -90.5t21 -90.5t59 -65.5
t85 -24t85.5 24.5z" />
    <glyph glyph-name="b" unicode="b" horiz-adv-x="617" 
d="M458.5 473q53.5 -34 83.5 -93t30 -130t-30 -130t-83.5 -93t-121.5 -34q-57 0 -103.5 26t-76.5 71v-90h-79v800h79v-390q30 45 76.5 71t103.5 26q68 0 121.5 -34zM410 94q38 24 59 65.5t21 90.5t-21 90.5t-59 65.5t-85 24t-85.5 -24.5t-60.5 -66t-22 -89.5t22 -89.5
t60.5 -66t85.5 -24.5t85 24z" />
    <glyph glyph-name="c" unicode="c" horiz-adv-x="516" 
d="M167 27q-58 35 -90 94t-32 129t32 129t90 94t133 35q94 0 161 -54v-94q-27 31 -67 50t-88 19q-53 0 -94 -24t-63.5 -65t-22.5 -90t22.5 -90t63.5 -65t94 -24q48 0 88 19t67 50v-94q-67 -54 -161 -54q-75 0 -133 35z" />
    <glyph glyph-name="d" unicode="d" horiz-adv-x="616" 
d="M538 800v-800h-79v89q-30 -44 -76 -70t-103 -26q-68 0 -121.5 34t-83.5 93t-30 130t30 130t83.5 93t121.5 34q57 0 103 -26t76 -70v389h79zM372.5 91.5q36.5 21.5 59.5 58.5t27 80v40q-4 43 -27 80t-59.5 58.5t-80.5 21.5q-47 0 -85 -24t-59 -65.5t-21 -90.5t21 -90.5
t59 -65.5t85 -24q44 0 80.5 21.5z" />
    <glyph glyph-name="e" unicode="e" horiz-adv-x="564" 
d="M417.5 468q54.5 -39 81.5 -105t23 -143h-395q9 -68 56 -109.5t119 -41.5q93 0 167 61v-84q-32 -25 -76 -39.5t-95 -14.5q-77 0 -134.5 34.5t-88 93.5t-30.5 130q0 69 31 128t86 94t126 35q75 0 129.5 -39zM181.5 389q-42.5 -39 -53.5 -102h310q-11 63 -51 102t-100 39
q-63 0 -105.5 -39z" />
    <glyph glyph-name="f" unicode="f" horiz-adv-x="294" 
d="M187 709.5q-12 -12.5 -12 -35.5v-174h103v-76h-103v-424h-80v424h-64v76h64v193q0 52 28 82t75 30q42 0 80 -20v-82q-17 9 -30.5 14t-29.5 5q-19 0 -31 -12.5z" />
    <glyph glyph-name="g" unicode="g" horiz-adv-x="616" 
d="M538 21q0 -74 -33.5 -125.5t-87.5 -77t-116 -25.5q-53 0 -98.5 14t-89.5 40l1 85q90 -64 179 -64q76 0 122.5 44.5t45.5 128.5v51q-30 -46 -77 -72.5t-104 -26.5q-68 0 -121.5 34t-83.5 93t-30 130t30 130t83.5 93t121.5 34q57 0 103 -26t76 -70v89h78zM377.5 94.5
q38.5 24.5 60.5 66t22 89.5t-22 89.5t-60.5 66t-85.5 24.5t-85 -24t-59 -65.5t-21 -90.5t21 -90.5t59 -65.5t85 -24t85.5 24.5z" />
    <glyph glyph-name="h" unicode="h" horiz-adv-x="572" 
d="M408 484.5q43 -25.5 68.5 -76t25.5 -123.5v-285h-80v272q0 79 -36 121.5t-95 42.5t-96.5 -43t-37.5 -121v-272h-79v800h79v-376q23 39 63.5 62.5t92.5 23.5t95 -25.5z" />
    <glyph glyph-name="i" unicode="i" horiz-adv-x="265" 
d="M94 612.5q-16 15.5 -16 39.5q0 23 16 38.5t39 15.5t38.5 -15.5t15.5 -38.5q0 -24 -15.5 -39.5t-38.5 -15.5t-39 15.5zM93 500h79v-500h-79v500z" />
    <glyph glyph-name="j" unicode="j" horiz-adv-x="265" 
d="M94 611.5q-16 15.5 -16 39.5q0 23 16 38.5t39 15.5t38.5 -15.5t15.5 -38.5q0 -24 -15.5 -39.5t-38.5 -15.5t-39 15.5zM93 500h79v-700h-79v700z" />
    <glyph glyph-name="k" unicode="k" horiz-adv-x="496" 
d="M384 0l-227 231v-231h-79v800h79v-538l220 238h98l-237 -253l250 -247h-104z" />
    <glyph glyph-name="l" unicode="l" horiz-adv-x="235" 
d="M78 800h79v-800h-79v800z" />
    <glyph glyph-name="m" unicode="m" horiz-adv-x="883" 
d="M723.5 485q41.5 -25 65.5 -74t24 -118v-293h-80v279q0 72 -33.5 114.5t-90.5 42.5t-90.5 -43.5t-33.5 -118.5v-274h-80v279q0 72 -33.5 114.5t-90.5 42.5t-90.5 -43.5t-33.5 -118.5v-274h-79v500h79v-72q23 36 60.5 59t86.5 23q52 0 94.5 -27.5t65.5 -79.5q24 47 66.5 77
t100.5 30q51 0 92.5 -25z" />
    <glyph glyph-name="n" unicode="n" horiz-adv-x="572" 
d="M408 484.5q43 -25.5 68.5 -76t25.5 -123.5v-285h-80v272q0 79 -36 121.5t-95 42.5t-96.5 -43t-37.5 -121v-272h-79v500h79v-76q23 39 63.5 62.5t92.5 23.5t95 -25.5z" />
    <glyph glyph-name="o" unicode="o" horiz-adv-x="599" 
d="M168 27q-58 35 -90.5 94.5t-32.5 128.5t32.5 128.5t90.5 94.5t131 35t131 -35t90.5 -94.5t32.5 -128.5t-32.5 -128.5t-90.5 -94.5t-131 -35t-131 35zM388.5 95.5q39.5 24.5 61.5 66t22 89.5t-22 89t-61 65t-90 24q-50 0 -89.5 -24t-61.5 -65t-22 -89t22 -89.5t61.5 -66
t89.5 -24.5t89.5 24.5z" />
    <glyph glyph-name="p" unicode="p" horiz-adv-x="617" 
d="M458.5 473q53.5 -34 83.5 -93t30 -130t-30 -130t-83.5 -93t-121.5 -34q-57 0 -103.5 26t-76.5 71v-290h-79v700h79v-90q30 45 76.5 71t103.5 26q68 0 121.5 -34zM410 94q38 24 59 65.5t21 90.5t-21 90.5t-59 65.5t-85 24t-85.5 -24.5t-60.5 -66t-22 -89.5t22 -89.5
t60.5 -66t85.5 -24.5t85 24z" />
    <glyph glyph-name="q" unicode="q" horiz-adv-x="617" 
d="M539 500v-700h-79v290q-30 -45 -76.5 -71t-103.5 -26q-68 0 -121.5 34t-83.5 93t-30 130t30 130t83.5 93t121.5 34q57 0 103.5 -26t76.5 -71v90h79zM377.5 94.5q38.5 24.5 60.5 66t22 89.5t-22 89.5t-60.5 66t-85.5 24.5t-85 -24t-59 -65.5t-21 -90.5t21 -90.5t59 -65.5
t85 -24t85.5 24.5z" />
    <glyph glyph-name="r" unicode="r" horiz-adv-x="318" 
d="M216 481q38 28 86 28v-92q-6 1 -17 1q-54 0 -91 -39.5t-37 -109.5v-269h-79v500h79v-89q21 42 59 70z" />
    <glyph glyph-name="s" unicode="s" horiz-adv-x="421" 
d="M118 14.5q-47 22.5 -76 56.5l51 59q26 -27 57 -44t65 -17q36 0 59.5 18t23.5 47q0 33 -25.5 51.5t-77.5 38.5q-45 18 -73 34t-47.5 44t-19.5 71q0 37 20 68t56 49t82 18q47 0 87 -20.5t66 -50.5l-47 -58q-54 52 -108 52q-33 0 -53.5 -16.5t-20.5 -42.5q0 -29 23 -45.5
t74 -37.5q46 -19 75 -35t49.5 -45.5t20.5 -74.5q0 -40 -21 -72.5t-59 -51t-87 -18.5q-47 0 -94 22.5z" />
    <glyph glyph-name="t" unicode="t" horiz-adv-x="294" 
d="M278 424h-103v-424h-80v424h-64v76h64v134h80v-134h103v-76z" />
    <glyph glyph-name="u" unicode="u" horiz-adv-x="572" 
d="M494 500v-500h-79v76q-23 -39 -63.5 -62.5t-92.5 -23.5t-95 25.5t-68.5 76t-25.5 123.5v285h80v-272q0 -79 36 -121.5t95 -42.5t96.5 43t37.5 121v272h79z" />
    <glyph glyph-name="v" unicode="v" horiz-adv-x="510" 
d="M502 500l-222 -502h-49l-223 502h86l161 -382l162 382h85z" />
    <glyph glyph-name="w" unicode="w" horiz-adv-x="821" 
d="M817 500l-256 -504h-55l-97 196l-95 -196h-55l-255 504h85l199 -401l83 168l-117 233h82l74 -158l74 158h82l-117 -233l83 -168l199 401h86z" />
    <glyph glyph-name="x" unicode="x" horiz-adv-x="503" 
d="M398 0l-146 195l-147 -195h-97l197 251l-194 249h94l147 -193l146 193h94l-194 -249l197 -251h-97z" />
    <glyph glyph-name="y" unicode="y" horiz-adv-x="512" 
d="M504 500l-295 -700h-81l89 207l-209 493h86l162 -405l162 405h86z" />
    <glyph glyph-name="z" unicode="z" horiz-adv-x="453" 
d="M430 488l-273 -412h267v-76h-398v14l272 410h-275v76h407v-12z" />
    <glyph glyph-name="braceleft" unicode="{" horiz-adv-x="271" 
d="M159 387q-8 -29 -30 -48q22 -20 30 -49t8 -71v-133q0 -44 22.5 -72t67.5 -30v-76q-80 0 -124.5 49.5t-44.5 136.5v151q0 28 -11.5 52t-34.5 39v6q23 15 34.5 38.5t11.5 51.5v151q0 87 44.5 136.5t124.5 49.5v-76q-45 -1 -67.5 -29t-22.5 -73v-133q0 -42 -8 -71z" />
    <glyph glyph-name="bar" unicode="|" horiz-adv-x="253" 
d="M87 800h79v-900h-79v900z" />
    <glyph glyph-name="braceright" unicode="}" horiz-adv-x="271" 
d="M194.5 380.5q11.5 -23.5 34.5 -38.5v-6q-23 -15 -34.5 -39t-11.5 -52v-151q0 -87 -44.5 -136.5t-124.5 -49.5v76q45 2 67.5 30t22.5 72v133q0 42 8 71t30 49q-22 19 -30 48t-8 71v133q0 45 -22.5 73t-67.5 29v76q80 0 124.5 -49.5t44.5 -136.5v-151q0 -28 11.5 -51.5z
" />
    <glyph glyph-name="asciitilde" unicode="~" horiz-adv-x="407" 
d="M44 330q41 33 90 33q22 0 38.5 -4.5t37.5 -13.5q19 -8 34 -12.5t35 -4.5q48 0 85 35v-72q-39 -31 -90 -31q-22 0 -38.5 4.5t-37.5 13.5q-19 8 -34 12.5t-35 4.5q-47 0 -85 -36v71z" />
    <glyph glyph-name="exclamdown" unicode="&#xa1;" horiz-adv-x="230" 
d="M153.5 533.5q15.5 -15.5 15.5 -38.5q0 -22 -15.5 -38t-38.5 -16q-22 0 -37.5 16t-15.5 38q0 23 15.5 38.5t37.5 15.5q23 0 38.5 -15.5zM161 -157h-92l15 547h62z" />
    <glyph glyph-name="cent" unicode="&#xa2;" horiz-adv-x="516" 
d="M212 504q-41 -24 -63.5 -65t-22.5 -90t22.5 -90t63.5 -65t94 -24q48 0 88 19t67 50v-94q-59 -48 -138 -53v-92h-71v95q-62 11 -109 47.5t-72.5 90.5t-25.5 116t25.5 116t72.5 90.5t109 47.5v97h71v-94q79 -5 138 -53v-94q-27 31 -67 50t-88 19q-53 0 -94 -24z" />
    <glyph glyph-name="sterling" unicode="&#xa3;" horiz-adv-x="521" 
d="M174 77h288v-77h-412v12q36 49 54 76.5t31.5 61t13.5 68.5v7h-105v68h91q-10 25 -32 64q-24 41 -36.5 73.5t-12.5 76.5q0 53 25 100t72.5 76t111.5 29q60 0 106.5 -27t73.5 -73t34 -101l-74 -21q-8 65 -46 104.5t-94 39.5q-39 0 -67.5 -18.5t-43.5 -47.5t-15 -61
q0 -36 11 -66t32 -68l15.5 -31t19.5 -49h165v-68h-156q-3 -73 -50 -148z" />
    <glyph glyph-name="currency" unicode="&#xa4;" horiz-adv-x="586" 
d="M503 198l58 -58l-50 -50l-58 58q-65 -51 -154 -51q-91 0 -158 53l-60 -60l-50 50l62 62q-48 67 -48 153t48 153l-62 62l50 50l60 -60q67 53 158 53q88 0 155 -51l57 58l50 -50l-58 -59q24 -32 37 -72.5t13 -83.5q0 -88 -50 -157zM388.5 200.5q39.5 24.5 61.5 66t22 89.5
t-22 89t-61 65t-90 24q-50 0 -89.5 -24t-61.5 -65t-22 -89t22 -89.5t61.5 -66t89.5 -24.5t89.5 24.5z" />
    <glyph glyph-name="yen" unicode="&#xa5;" horiz-adv-x="572" 
d="M354 299h136v-65h-164v-56h164v-65h-164v-113h-80v113h-143v65h143v56h-143v65h115l-214 401h91l191 -372l191 372h90z" />
    <glyph glyph-name="brokenbar" unicode="&#xa6;" horiz-adv-x="253" 
d="M87 800h79v-355h-79v355zM87 255h79v-355h-79v355z" />
    <glyph glyph-name="section" unicode="&#xa7;" horiz-adv-x="494" 
d="M157 491.5q18 -21.5 45 -35t73 -31.5q58 -23 92.5 -41.5t59 -52.5t24.5 -87q0 -23 -8 -47.5t-22 -45.5q27 -40 27 -92q0 -49 -24 -89.5t-69 -64.5t-106 -24q-63 0 -118 32.5t-88 81.5l54 54q31 -42 71.5 -68t84.5 -26q52 0 86 29t34 73q0 37 -19 61.5t-47 39t-76 32.5
q-54 20 -87.5 38t-56.5 51t-23 85q0 46 31 87q-31 39 -31 95q0 46 25.5 83t68.5 59t95 22q57 0 104.5 -26.5t80.5 -66.5l-48 -53q-28 31 -63 51t-72 20q-50 0 -83 -26t-33 -65q0 -31 18 -52.5zM156 312q17 -21 43 -34t71 -31q25 -10 51 -21t46 -24q9 18 9 39q0 35 -18.5 58
t-46.5 37.5t-76 32.5q-60 23 -83 36q-13 -17 -13 -41q0 -31 17 -52z" />
    <glyph glyph-name="dieresis" unicode="&#xa8;" horiz-adv-x="325" 
d="M36 611.5q-16 15.5 -16 39.5q0 23 16 38.5t39 15.5t38.5 -15.5t15.5 -38.5q0 -24 -15.5 -39.5t-38.5 -15.5t-39 15.5zM211 611.5q-16 15.5 -16 39.5q0 23 16 38.5t39 15.5t39 -15.5t16 -38.5q0 -24 -16 -39.5t-39 -15.5t-39 15.5z" />
    <glyph glyph-name="copyright" unicode="&#xa9;" horiz-adv-x="842" 
d="M233 37q-82 49 -127 132t-45 181q0 97 45 180t127 132.5t188 49.5q105 0 187.5 -49.5t127.5 -132.5t45 -180q0 -98 -45 -181t-127.5 -132t-187.5 -49q-106 0 -188 49zM573 93q67 41 104.5 109t37.5 148t-37.5 148t-104.5 109t-152 41t-152 -41t-104.5 -109t-37.5 -148
t37.5 -148t104.5 -109t152 -41t152 41zM328.5 187q-42.5 26 -65.5 69.5t-23 94.5t23 94.5t65.5 69t97.5 25.5q75 0 126 -48v-74q-21 24 -54.5 40t-69.5 16q-55 0 -89.5 -36t-34.5 -87t34.5 -87t89.5 -36q36 0 70.5 16.5t53.5 39.5v-75q-53 -48 -126 -48q-55 0 -97.5 26z" />
    <glyph glyph-name="ordfeminine" unicode="&#xaa;" horiz-adv-x="307" 
d="M287 700v-245h-58v37q-16 -20 -39 -31.5t-49 -11.5q-54 0 -87.5 37.5t-33.5 91.5t33.5 91t87.5 37q26 0 49 -11.5t39 -31.5v37h58zM208 524.5q21 22.5 21 53.5t-21 53t-51 22q-32 0 -52 -22t-20 -53q0 -32 20 -54t52 -22q30 0 51 22.5z" />
    <glyph glyph-name="guillemotleft" unicode="&#xab;" horiz-adv-x="504" 
d="M126 290l178 -210h-86l-174 208v4l174 208h86zM318 290l178 -210h-86l-174 208v4l174 208h86z" />
    <glyph glyph-name="logicalnot" unicode="&#xac;" horiz-adv-x="526" 
d="M448 90h-68v185h-336v70h404v-255z" />
    <glyph glyph-name="uni00AD" unicode="&#xad;" horiz-adv-x="411" 
d="M44 341h324v-71h-324v71z" />
    <glyph glyph-name="registered" unicode="&#xae;" horiz-adv-x="842" 
d="M608.5 662.5q82.5 -49.5 127.5 -132.5t45 -180q0 -98 -45 -181t-127.5 -132t-187.5 -49q-106 0 -188 49t-127 132t-45 181q0 97 45 180t127 132.5t188 49.5q105 0 187.5 -49.5zM573 93q67 41 104.5 109t37.5 148t-37.5 148t-104.5 109t-152 41t-152 -41t-104.5 -109
t-37.5 -148t37.5 -148t104.5 -109t152 -41t152 41zM543 347.5q-21 -30.5 -59 -44.5l85 -139h-68l-73 129h-5h-52v-131h-60v383h112q64 0 102.5 -36t38.5 -91q0 -40 -21 -70.5zM371 351h56q33 0 53.5 19t20.5 48q0 31 -20.5 49t-53.5 18l-56 1v-135z" />
    <glyph glyph-name="macron" unicode="&#xaf;" horiz-adv-x="327" 
d="M20 677h286v-65h-286v65z" />
    <glyph glyph-name="degree" unicode="&#xb0;" horiz-adv-x="308" 
d="M88 462.5q-31 18.5 -49.5 49.5t-18.5 66q0 36 18.5 66.5t49 48.5t66.5 18t66.5 -18t48.5 -48.5t18 -66.5t-18 -66.5t-48.5 -49t-66.5 -18.5q-35 0 -66 18.5zM202 530.5q19 19.5 19 47.5q0 30 -18.5 48.5t-48.5 18.5q-28 0 -47.5 -19t-19.5 -48q0 -28 19.5 -47.5
t47.5 -19.5q29 0 48 19.5z" />
    <glyph glyph-name="plusminus" unicode="&#xb1;" horiz-adv-x="444" 
d="M400 392v-65h-145v-141h-65v141h-146v65h146v141h65v-141h145zM44 128h356v-64h-356v64z" />
    <glyph glyph-name="uni00B2" unicode="&#xb2;" horiz-adv-x="256" 
d="M28 510q30 43 99 137q4 5 15 20.5t17 28.5t6 25q0 16 -10.5 28.5t-29.5 12.5t-31.5 -13.5t-16.5 -35.5l-58 24q6 38 35 65t72 27q47 0 75.5 -29t28.5 -69q0 -29 -12 -52.5t-26 -42.5t-18 -25l-38 -52h96v-59h-204v10z" />
    <glyph glyph-name="uni00B3" unicode="&#xb3;" horiz-adv-x="266" 
d="M219.5 666.5q22.5 -28.5 22.5 -66.5q0 -43 -31 -74.5t-82 -31.5q-41 0 -70.5 22t-39.5 58l59 22q5 -18 19 -30t33 -12q22 0 36.5 14t14.5 35t-14.5 35.5t-36.5 14.5q-15 0 -31 -7l-34 32l80 85h-112v59h190v-51l-64 -68q38 -8 60.5 -36.5z" />
    <glyph glyph-name="acute" unicode="&#xb4;" horiz-adv-x="223" 
d="M20 573l95 163h88l-113 -163h-70z" />
    <glyph glyph-name="uni00B5" unicode="&#xb5;" horiz-adv-x="572" 
d="M494 500v-500h-79v76q-23 -39 -63.5 -62.5t-92.5 -23.5q-62 0 -109 35v-225h-80v700h80v-272q0 -79 36 -121.5t95 -42.5t96.5 43t37.5 121v272h79z" />
    <glyph glyph-name="paragraph" unicode="&#xb6;" horiz-adv-x="566" 
d="M326 -113h-80v388h-3q-70 0 -121 28t-78 76.5t-27 108.5q0 56 27 105t78.5 78t120.5 29h83v-813zM479 700v-813h-80v813h80z" />
    <glyph glyph-name="periodcentered" unicode="&#xb7;" horiz-adv-x="263" 
d="M93.5 287.5q-15.5 15.5 -15.5 38.5q0 22 15.5 38t38.5 16q22 0 37.5 -16t15.5 -38q0 -23 -15.5 -38.5t-37.5 -15.5q-23 0 -38.5 15.5z" />
    <glyph glyph-name="cedilla" unicode="&#xb8;" horiz-adv-x="228" 
d="M184.5 -59.5q23.5 -22.5 23.5 -56.5q0 -39 -29.5 -65t-74.5 -26q-47 0 -84 26v69q40 -32 80 -32q21 0 35.5 10.5t14.5 26.5t-13 26t-34 10q-24 0 -44 -11l-3 2l31 83h52l-11 -37q33 -3 56.5 -25.5z" />
    <glyph glyph-name="uni00B9" unicode="&#xb9;" horiz-adv-x="195" 
d="M148 825v-325h-60v228l-40 -20l-24 52l114 65h10z" />
    <glyph glyph-name="ordmasculine" unicode="&#xba;" horiz-adv-x="295" 
d="M81.5 466.5q-29.5 17.5 -45.5 47.5t-16 64t16.5 63.5t45.5 47t65 17.5q56 0 91.5 -37.5t35.5 -90.5t-35.5 -91t-91.5 -38q-36 0 -65.5 17.5zM199 526q21 22 21 52t-21 52t-52 22t-51.5 -22t-20.5 -52q0 -31 20.5 -52.5t51.5 -21.5t52 22z" />
    <glyph glyph-name="guillemotright" unicode="&#xbb;" horiz-adv-x="504" 
d="M94 80h-86l178 210l-178 210h86l174 -208v-4zM460 292v-4l-174 -208h-86l178 210l-178 210h86z" />
    <glyph glyph-name="onequarter" unicode="&#xbc;" horiz-adv-x="531" 
d="M148 703v-325h-60v228l-40 -20l-24 52l114 65h10zM441 700h62l-396 -700h-62zM512 41h-32v-41h-60v41h-136v35l134 253h62v-228h32v-60zM420 101v121l-60 -121h60z" />
    <glyph glyph-name="onehalf" unicode="&#xbd;" horiz-adv-x="593" 
d="M148 703v-325h-60v228l-40 -20l-24 52l114 65h10zM441 700h62l-396 -700h-62zM365 10q30 43 99 137q4 5 15 20.5t17 28.5t6 25q0 16 -10.5 28.5t-29.5 12.5t-31.5 -13.5t-16.5 -35.5l-58 24q6 38 35 65t72 27q47 0 75.5 -29t28.5 -69q0 -29 -12 -52.5t-26 -42.5t-18 -25
l-38 -52h96v-59h-204v10z" />
    <glyph glyph-name="threequarters" unicode="&#xbe;" horiz-adv-x="587" 
d="M219.5 544.5q22.5 -28.5 22.5 -66.5q0 -43 -31 -74.5t-82 -31.5q-41 0 -70.5 22t-39.5 58l59 22q5 -18 19 -30t33 -12q22 0 36.5 14t14.5 35t-14.5 35.5t-36.5 14.5q-15 0 -31 -7l-34 32l80 85h-112v59h190v-51l-64 -68q38 -8 60.5 -36.5zM497 700h62l-396 -700h-62z
M568 41h-32v-41h-60v41h-136v35l134 253h62v-228h32v-60zM476 101v121l-60 -121h60z" />
    <glyph glyph-name="questiondown" unicode="&#xbf;" horiz-adv-x="459" 
d="M272.5 531.5q15.5 -15.5 15.5 -38.5q0 -22 -15.5 -38t-38.5 -16q-22 0 -37.5 16t-15.5 38q0 23 15.5 38.5t37.5 15.5q23 0 38.5 -15.5zM273 183q-76 -9 -120 -49.5t-44 -100.5q0 -32 15 -60.5t43.5 -46.5t67.5 -18q53 0 89.5 34.5t46.5 93.5l75 -21q-13 -80 -69 -133
t-142 -53q-64 0 -111.5 28.5t-72.5 75.5t-25 100q0 73 46.5 130t122.5 76l7 149h62z" />
    <glyph glyph-name="Agrave" unicode="&#xc0;" horiz-adv-x="636" 
d="M476 161h-316l-67 -161h-89l307 710h13l307 -710h-88zM444 238l-126 304l-126 -304h252zM181 936h88l95 -163h-70z" />
    <glyph glyph-name="Aacute" unicode="&#xc1;" horiz-adv-x="636" 
d="M476 161h-316l-67 -161h-89l307 710h13l307 -710h-88zM444 238l-126 304l-126 -304h252zM268 773l95 163h88l-113 -163h-70z" />
    <glyph glyph-name="Acircumflex" unicode="&#xc2;" horiz-adv-x="636" 
d="M476 161h-316l-67 -161h-89l307 710h13l307 -710h-88zM444 238l-126 304l-126 -304h252zM390 774l-72 106l-72 -106h-82l119 158h71l118 -158h-82z" />
    <glyph glyph-name="Atilde" unicode="&#xc3;" horiz-adv-x="636" 
d="M476 161h-316l-67 -161h-89l307 710h13l307 -710h-88zM444 238l-126 304l-126 -304h252zM158 864q41 33 90 33q22 0 38.5 -4.5t37.5 -13.5q19 -8 34 -12.5t35 -4.5q48 0 85 35v-72q-39 -31 -90 -31q-22 0 -38.5 4.5t-37.5 13.5q-19 8 -34 12.5t-35 4.5q-47 0 -85 -36v71z
" />
    <glyph glyph-name="Adieresis" unicode="&#xc4;" horiz-adv-x="636" 
d="M476 161h-316l-67 -161h-89l307 710h13l307 -710h-88zM444 238l-126 304l-126 -304h252zM192 811.5q-16 15.5 -16 39.5q0 23 16 38.5t39 15.5t38.5 -15.5t15.5 -38.5q0 -24 -15.5 -39.5t-38.5 -15.5t-39 15.5zM367 811.5q-16 15.5 -16 39.5q0 23 16 38.5t39 15.5
t39 -15.5t16 -38.5q0 -24 -16 -39.5t-39 -15.5t-39 15.5z" />
    <glyph glyph-name="Aring" unicode="&#xc5;" horiz-adv-x="636" 
d="M476 161h-316l-67 -161h-89l307 710h13l307 -710h-88zM444 238l-126 304l-126 -304h252zM243 785.5q-31 31.5 -31 74.5q0 44 31 74.5t75 30.5t75 -30.5t31 -74.5t-31 -75t-75 -31t-75 31.5zM350.5 826.5q13.5 13.5 13.5 33.5t-13.5 33t-32.5 13t-33 -13.5t-14 -32.5
t14 -33t33 -14t32.5 13.5z" />
    <glyph glyph-name="AE" unicode="&#xc6;" horiz-adv-x="844" 
d="M494 623v-227h232v-77h-232v-242h297v-77h-377v161h-230l-85 -161h-95l387 700h400v-77h-297zM414 238v361l-190 -361h190z" />
    <glyph glyph-name="Ccedilla" unicode="&#xc7;" horiz-adv-x="625" 
d="M275.5 595q-63.5 -39 -98.5 -104t-35 -141t35 -141t98.5 -104t143.5 -39q94 0 162 47v-88q-69 -34 -149 -37l-7 -22q33 -3 56.5 -25.5t23.5 -56.5q0 -39 -29.5 -65t-74.5 -26q-47 0 -84 26v69q40 -32 80 -32q21 0 35.5 10.5t14.5 26.5t-13 26t-34 10q-24 0 -44 -11l-3 2
l26 70q-95 9 -167.5 60t-111.5 130t-39 170q0 97 44.5 180t126 132.5t186.5 49.5q91 0 163 -37v-88q-68 47 -162 47q-80 0 -143.5 -39z" />
    <glyph glyph-name="Egrave" unicode="&#xc8;" horiz-adv-x="516" 
d="M167 623v-227h232v-77h-232v-242h297v-77h-377v700h377v-77h-297zM143 936h88l95 -163h-70z" />
    <glyph glyph-name="Eacute" unicode="&#xc9;" horiz-adv-x="516" 
d="M167 623v-227h232v-77h-232v-242h297v-77h-377v700h377v-77h-297zM230 773l95 163h88l-113 -163h-70z" />
    <glyph glyph-name="Ecircumflex" unicode="&#xca;" horiz-adv-x="516" 
d="M167 623v-227h232v-77h-232v-242h297v-77h-377v700h377v-77h-297zM352 774l-72 106l-72 -106h-82l119 158h71l118 -158h-82z" />
    <glyph glyph-name="Edieresis" unicode="&#xcb;" horiz-adv-x="516" 
d="M167 623v-227h232v-77h-232v-242h297v-77h-377v700h377v-77h-297zM154 811.5q-16 15.5 -16 39.5q0 23 16 38.5t39 15.5t38.5 -15.5t15.5 -38.5q0 -24 -15.5 -39.5t-38.5 -15.5t-39 15.5zM329 811.5q-16 15.5 -16 39.5q0 23 16 38.5t39 15.5t39 -15.5t16 -38.5
q0 -24 -16 -39.5t-39 -15.5t-39 15.5z" />
    <glyph glyph-name="Igrave" unicode="&#xcc;" horiz-adv-x="254" 
d="M87 700h80v-700h-80v700zM-10 936h88l95 -163h-70z" />
    <glyph glyph-name="Iacute" unicode="&#xcd;" horiz-adv-x="254" 
d="M87 700h80v-700h-80v700zM77 773l95 163h88l-113 -163h-70z" />
    <glyph glyph-name="Icircumflex" unicode="&#xce;" horiz-adv-x="254" 
d="M87 700h80v-700h-80v700zM199 774l-72 106l-72 -106h-82l119 158h71l118 -158h-82z" />
    <glyph glyph-name="Idieresis" unicode="&#xcf;" horiz-adv-x="254" 
d="M87 700h80v-700h-80v700zM1 811.5q-16 15.5 -16 39.5q0 23 16 38.5t39 15.5t38.5 -15.5t15.5 -38.5q0 -24 -15.5 -39.5t-38.5 -15.5t-39 15.5zM176 811.5q-16 15.5 -16 39.5q0 23 16 38.5t39 15.5t39 -15.5t16 -38.5q0 -24 -16 -39.5t-39 -15.5t-39 15.5z" />
    <glyph glyph-name="Eth" unicode="&#xd0;" horiz-adv-x="676" 
d="M450.5 654q79.5 -46 122 -125.5t42.5 -176.5q0 -98 -42.5 -178t-122.5 -127t-187 -47h-176v312h-83v76h83v312h176q108 0 187.5 -46zM408 115.5q61 37.5 93.5 100t32.5 136.5q0 76 -32 137.5t-93 97t-144 35.5h-98v-234h83v-76h-83v-234h98q82 0 143 37.5z" />
    <glyph glyph-name="Ntilde" unicode="&#xd1;" horiz-adv-x="737" 
d="M650 700v-712h-11l-473 527v-515h-79v712h12l472 -534v522h79zM209 864q41 33 90 33q22 0 38.5 -4.5t37.5 -13.5q19 -8 34 -12.5t35 -4.5q48 0 85 35v-72q-39 -31 -90 -31q-22 0 -38.5 4.5t-37.5 13.5q-19 8 -34 12.5t-35 4.5q-47 0 -85 -36v71z" />
    <glyph glyph-name="Ograve" unicode="&#xd2;" horiz-adv-x="842" 
d="M233 37q-82 49 -127 132t-45 181q0 97 45 180t127 132.5t188 49.5q105 0 187.5 -49.5t127.5 -132.5t45 -180q0 -98 -45 -181t-127.5 -132t-187.5 -49q-106 0 -188 49zM565.5 106q63.5 39 99 103.5t35.5 140.5t-35.5 140.5t-99 103.5t-144.5 39t-144.5 -39t-99 -103.5
t-35.5 -140.5t35.5 -140.5t99 -103.5t144.5 -39t144.5 39zM284 936h88l95 -163h-70z" />
    <glyph glyph-name="Oacute" unicode="&#xd3;" horiz-adv-x="842" 
d="M233 37q-82 49 -127 132t-45 181q0 97 45 180t127 132.5t188 49.5q105 0 187.5 -49.5t127.5 -132.5t45 -180q0 -98 -45 -181t-127.5 -132t-187.5 -49q-106 0 -188 49zM565.5 106q63.5 39 99 103.5t35.5 140.5t-35.5 140.5t-99 103.5t-144.5 39t-144.5 -39t-99 -103.5
t-35.5 -140.5t35.5 -140.5t99 -103.5t144.5 -39t144.5 39zM371 773l95 163h88l-113 -163h-70z" />
    <glyph glyph-name="Ocircumflex" unicode="&#xd4;" horiz-adv-x="842" 
d="M233 37q-82 49 -127 132t-45 181q0 97 45 180t127 132.5t188 49.5q105 0 187.5 -49.5t127.5 -132.5t45 -180q0 -98 -45 -181t-127.5 -132t-187.5 -49q-106 0 -188 49zM565.5 106q63.5 39 99 103.5t35.5 140.5t-35.5 140.5t-99 103.5t-144.5 39t-144.5 -39t-99 -103.5
t-35.5 -140.5t35.5 -140.5t99 -103.5t144.5 -39t144.5 39zM493 774l-72 106l-72 -106h-82l119 158h71l118 -158h-82z" />
    <glyph glyph-name="Otilde" unicode="&#xd5;" horiz-adv-x="842" 
d="M233 37q-82 49 -127 132t-45 181q0 97 45 180t127 132.5t188 49.5q105 0 187.5 -49.5t127.5 -132.5t45 -180q0 -98 -45 -181t-127.5 -132t-187.5 -49q-106 0 -188 49zM565.5 106q63.5 39 99 103.5t35.5 140.5t-35.5 140.5t-99 103.5t-144.5 39t-144.5 -39t-99 -103.5
t-35.5 -140.5t35.5 -140.5t99 -103.5t144.5 -39t144.5 39zM261 864q41 33 90 33q22 0 38.5 -4.5t37.5 -13.5q19 -8 34 -12.5t35 -4.5q48 0 85 35v-72q-39 -31 -90 -31q-22 0 -38.5 4.5t-37.5 13.5q-19 8 -34 12.5t-35 4.5q-47 0 -85 -36v71z" />
    <glyph glyph-name="Odieresis" unicode="&#xd6;" horiz-adv-x="842" 
d="M233 37q-82 49 -127 132t-45 181q0 97 45 180t127 132.5t188 49.5q105 0 187.5 -49.5t127.5 -132.5t45 -180q0 -98 -45 -181t-127.5 -132t-187.5 -49q-106 0 -188 49zM565.5 106q63.5 39 99 103.5t35.5 140.5t-35.5 140.5t-99 103.5t-144.5 39t-144.5 -39t-99 -103.5
t-35.5 -140.5t35.5 -140.5t99 -103.5t144.5 -39t144.5 39zM295 811.5q-16 15.5 -16 39.5q0 23 16 38.5t39 15.5t38.5 -15.5t15.5 -38.5q0 -24 -15.5 -39.5t-38.5 -15.5t-39 15.5zM470 811.5q-16 15.5 -16 39.5q0 23 16 38.5t39 15.5t39 -15.5t16 -38.5q0 -24 -16 -39.5
t-39 -15.5t-39 15.5z" />
    <glyph glyph-name="multiply" unicode="&#xd7;" horiz-adv-x="434" 
d="M267 300l124 -121l-51 -50l-123 124l-124 -124l-49 50l124 121l-124 120l49 50l124 -124l123 124l51 -50z" />
    <glyph glyph-name="Oslash" unicode="&#xd8;" horiz-adv-x="842" 
d="M753 493.5q28 -68.5 28 -143.5q0 -98 -45 -181t-127.5 -132t-187.5 -49q-107 0 -192 52l-31 -40h-102l70 89q-50 50 -77.5 118t-27.5 143q0 97 45 180t127 132.5t188 49.5q107 0 191 -52l31 40h100l-69 -88q51 -50 79 -118.5zM161.5 244q19.5 -51 55.5 -89l345 441
q-62 37 -141 37q-81 0 -144.5 -39t-99 -103.5t-35.5 -140.5q0 -55 19.5 -106zM565.5 106q63.5 39 99 103.5t35.5 140.5q0 56 -20 107t-56 90l-345 -443q66 -37 142 -37q81 0 144.5 39z" />
    <glyph glyph-name="Ugrave" unicode="&#xd9;" horiz-adv-x="615" 
d="M182 19q-54 30 -83 84.5t-29 126.5v470h79v-460q0 -83 43 -128t116 -45q72 0 115 44.5t43 128.5v460h80v-470q0 -72 -29 -126.5t-83 -84.5t-126 -30t-126 30zM171 936h88l95 -163h-70z" />
    <glyph glyph-name="Uacute" unicode="&#xda;" horiz-adv-x="615" 
d="M182 19q-54 30 -83 84.5t-29 126.5v470h79v-460q0 -83 43 -128t116 -45q72 0 115 44.5t43 128.5v460h80v-470q0 -72 -29 -126.5t-83 -84.5t-126 -30t-126 30zM258 773l95 163h88l-113 -163h-70z" />
    <glyph glyph-name="Ucircumflex" unicode="&#xdb;" horiz-adv-x="615" 
d="M182 19q-54 30 -83 84.5t-29 126.5v470h79v-460q0 -83 43 -128t116 -45q72 0 115 44.5t43 128.5v460h80v-470q0 -72 -29 -126.5t-83 -84.5t-126 -30t-126 30zM380 774l-72 106l-72 -106h-82l119 158h71l118 -158h-82z" />
    <glyph glyph-name="Udieresis" unicode="&#xdc;" horiz-adv-x="615" 
d="M182 19q-54 30 -83 84.5t-29 126.5v470h79v-460q0 -83 43 -128t116 -45q72 0 115 44.5t43 128.5v460h80v-470q0 -72 -29 -126.5t-83 -84.5t-126 -30t-126 30zM182 811.5q-16 15.5 -16 39.5q0 23 16 38.5t39 15.5t38.5 -15.5t15.5 -38.5q0 -24 -15.5 -39.5t-38.5 -15.5
t-39 15.5zM357 811.5q-16 15.5 -16 39.5q0 23 16 38.5t39 15.5t39 -15.5t16 -38.5q0 -24 -16 -39.5t-39 -15.5t-39 15.5z" />
    <glyph glyph-name="Yacute" unicode="&#xdd;" horiz-adv-x="572" 
d="M326 247v-247h-80v247l-242 453h91l191 -372l191 372h90zM235 773l95 163h88l-113 -163h-70z" />
    <glyph glyph-name="Thorn" unicode="&#xde;" horiz-adv-x="503" 
d="M380 544q51 -29 78 -77.5t27 -105.5q0 -59 -27 -107.5t-78 -76.5t-120 -28h-93v-149h-80v700h80v-127h93q69 0 120 -29zM363.5 263.5q40.5 37.5 40.5 97.5t-40.5 97t-106.5 37h-90v-269h90q66 0 106.5 37.5z" />
    <glyph glyph-name="germandbls" unicode="&#xdf;" horiz-adv-x="571" 
d="M486 310q33 -48 33 -110q0 -53 -25 -99t-73.5 -73.5t-114.5 -27.5h-83v78h73q64 0 102 35.5t38 89.5t-37 88.5t-103 34.5h-73v78h41q57 0 92.5 33t35.5 80q0 49 -30.5 81.5t-81.5 32.5t-82.5 -34.5t-31.5 -87.5v-509h-79v516q0 57 26 101t70 68t97 24q61 0 104.5 -26
t66 -68.5t22.5 -90.5q0 -45 -20 -82.5t-56 -62.5q56 -21 89 -69z" />
    <glyph glyph-name="agrave" unicode="&#xe0;" horiz-adv-x="617" 
d="M539 500v-500h-79v90q-30 -45 -76.5 -71t-103.5 -26q-68 0 -121.5 34t-83.5 93t-30 130t30 130t83.5 93t121.5 34q57 0 103.5 -26t76.5 -71v90h79zM377.5 94.5q38.5 24.5 60.5 66t22 89.5t-22 89.5t-60.5 66t-85.5 24.5t-85 -24t-59 -65.5t-21 -90.5t21 -90.5t59 -65.5
t85 -24t85.5 24.5zM177 736h88l95 -163h-70z" />
    <glyph glyph-name="aacute" unicode="&#xe1;" horiz-adv-x="617" 
d="M539 500v-500h-79v90q-30 -45 -76.5 -71t-103.5 -26q-68 0 -121.5 34t-83.5 93t-30 130t30 130t83.5 93t121.5 34q57 0 103.5 -26t76.5 -71v90h79zM377.5 94.5q38.5 24.5 60.5 66t22 89.5t-22 89.5t-60.5 66t-85.5 24.5t-85 -24t-59 -65.5t-21 -90.5t21 -90.5t59 -65.5
t85 -24t85.5 24.5zM264 573l95 163h88l-113 -163h-70z" />
    <glyph glyph-name="acircumflex" unicode="&#xe2;" horiz-adv-x="617" 
d="M539 500v-500h-79v90q-30 -45 -76.5 -71t-103.5 -26q-68 0 -121.5 34t-83.5 93t-30 130t30 130t83.5 93t121.5 34q57 0 103.5 -26t76.5 -71v90h79zM377.5 94.5q38.5 24.5 60.5 66t22 89.5t-22 89.5t-60.5 66t-85.5 24.5t-85 -24t-59 -65.5t-21 -90.5t21 -90.5t59 -65.5
t85 -24t85.5 24.5zM386 574l-72 106l-72 -106h-82l119 158h71l118 -158h-82z" />
    <glyph glyph-name="atilde" unicode="&#xe3;" horiz-adv-x="617" 
d="M539 500v-500h-79v90q-30 -45 -76.5 -71t-103.5 -26q-68 0 -121.5 34t-83.5 93t-30 130t30 130t83.5 93t121.5 34q57 0 103.5 -26t76.5 -71v90h79zM377.5 94.5q38.5 24.5 60.5 66t22 89.5t-22 89.5t-60.5 66t-85.5 24.5t-85 -24t-59 -65.5t-21 -90.5t21 -90.5t59 -65.5
t85 -24t85.5 24.5zM154 664q41 33 90 33q22 0 38.5 -4.5t37.5 -13.5q19 -8 34 -12.5t35 -4.5q48 0 85 35v-72q-39 -31 -90 -31q-22 0 -38.5 4.5t-37.5 13.5q-19 8 -34 12.5t-35 4.5q-47 0 -85 -36v71z" />
    <glyph glyph-name="adieresis" unicode="&#xe4;" horiz-adv-x="617" 
d="M539 500v-500h-79v90q-30 -45 -76.5 -71t-103.5 -26q-68 0 -121.5 34t-83.5 93t-30 130t30 130t83.5 93t121.5 34q57 0 103.5 -26t76.5 -71v90h79zM377.5 94.5q38.5 24.5 60.5 66t22 89.5t-22 89.5t-60.5 66t-85.5 24.5t-85 -24t-59 -65.5t-21 -90.5t21 -90.5t59 -65.5
t85 -24t85.5 24.5zM188 611.5q-16 15.5 -16 39.5q0 23 16 38.5t39 15.5t38.5 -15.5t15.5 -38.5q0 -24 -15.5 -39.5t-38.5 -15.5t-39 15.5zM363 611.5q-16 15.5 -16 39.5q0 23 16 38.5t39 15.5t39 -15.5t16 -38.5q0 -24 -16 -39.5t-39 -15.5t-39 15.5z" />
    <glyph glyph-name="aring" unicode="&#xe5;" horiz-adv-x="617" 
d="M539 500v-500h-79v90q-30 -45 -76.5 -71t-103.5 -26q-68 0 -121.5 34t-83.5 93t-30 130t30 130t83.5 93t121.5 34q57 0 103.5 -26t76.5 -71v90h79zM377.5 94.5q38.5 24.5 60.5 66t22 89.5t-22 89.5t-60.5 66t-85.5 24.5t-85 -24t-59 -65.5t-21 -90.5t21 -90.5t59 -65.5
t85 -24t85.5 24.5zM239 585.5q-31 31.5 -31 74.5q0 44 31 74.5t75 30.5t75 -30.5t31 -74.5t-31 -75t-75 -31t-75 31.5zM346.5 626.5q13.5 13.5 13.5 33.5t-13.5 33t-32.5 13t-33 -13.5t-14 -32.5t14 -33t33 -14t32.5 13.5z" />
    <glyph glyph-name="ae" unicode="&#xe6;" horiz-adv-x="998" 
d="M852.5 468q54.5 -39 81.5 -105t23 -143h-395q9 -68 56 -109.5t119 -41.5q93 0 167 61v-84q-32 -25 -76 -39.5t-95 -14.5q-66 0 -118.5 26.5t-85.5 72.5v-91h-68v92q-30 -46 -77 -72.5t-104 -26.5q-68 0 -121.5 34t-83.5 93t-30 130t30 130t83.5 93t121.5 34
q57 0 104 -26.5t77 -72.5v92h68v-92q33 46 83 72.5t111 26.5q75 0 129.5 -39zM377.5 94.5q38.5 24.5 60.5 66t22 89.5t-22 89.5t-60.5 66t-85.5 24.5t-85 -24t-59 -65.5t-21 -90.5t21 -90.5t59 -65.5t85 -24t85.5 24.5zM616.5 389q-42.5 -39 -53.5 -102h310q-11 63 -51 102
t-100 39q-63 0 -105.5 -39z" />
    <glyph glyph-name="ccedilla" unicode="&#xe7;" horiz-adv-x="516" 
d="M212 405q-41 -24 -63.5 -65t-22.5 -90t22.5 -90t63.5 -65t94 -24q48 0 88 19t67 50v-94q-60 -48 -143 -54l-8 -26q33 -3 56.5 -25.5t23.5 -56.5q0 -39 -29.5 -65t-74.5 -26q-47 0 -84 26v69q40 -32 80 -32q21 0 35.5 10.5t14.5 26.5t-13 26t-34 10q-24 0 -44 -11l-3 2
l28 74q-66 8 -116.5 44t-77.5 92t-27 120q0 70 32 129t90 94t133 35q94 0 161 -54v-94q-27 31 -67 50t-88 19q-53 0 -94 -24z" />
    <glyph glyph-name="egrave" unicode="&#xe8;" horiz-adv-x="564" 
d="M417.5 468q54.5 -39 81.5 -105t23 -143h-395q9 -68 56 -109.5t119 -41.5q93 0 167 61v-84q-32 -25 -76 -39.5t-95 -14.5q-77 0 -134.5 34.5t-88 93.5t-30.5 130q0 69 31 128t86 94t126 35q75 0 129.5 -39zM181.5 389q-42.5 -39 -53.5 -102h310q-11 63 -51 102t-100 39
q-63 0 -105.5 -39zM154 736h88l95 -163h-70z" />
    <glyph glyph-name="eacute" unicode="&#xe9;" horiz-adv-x="564" 
d="M417.5 468q54.5 -39 81.5 -105t23 -143h-395q9 -68 56 -109.5t119 -41.5q93 0 167 61v-84q-32 -25 -76 -39.5t-95 -14.5q-77 0 -134.5 34.5t-88 93.5t-30.5 130q0 69 31 128t86 94t126 35q75 0 129.5 -39zM181.5 389q-42.5 -39 -53.5 -102h310q-11 63 -51 102t-100 39
q-63 0 -105.5 -39zM241 573l95 163h88l-113 -163h-70z" />
    <glyph glyph-name="ecircumflex" unicode="&#xea;" horiz-adv-x="564" 
d="M417.5 468q54.5 -39 81.5 -105t23 -143h-395q9 -68 56 -109.5t119 -41.5q93 0 167 61v-84q-32 -25 -76 -39.5t-95 -14.5q-77 0 -134.5 34.5t-88 93.5t-30.5 130q0 69 31 128t86 94t126 35q75 0 129.5 -39zM181.5 389q-42.5 -39 -53.5 -102h310q-11 63 -51 102t-100 39
q-63 0 -105.5 -39zM363 574l-72 106l-72 -106h-82l119 158h71l118 -158h-82z" />
    <glyph glyph-name="edieresis" unicode="&#xeb;" horiz-adv-x="564" 
d="M417.5 468q54.5 -39 81.5 -105t23 -143h-395q9 -68 56 -109.5t119 -41.5q93 0 167 61v-84q-32 -25 -76 -39.5t-95 -14.5q-77 0 -134.5 34.5t-88 93.5t-30.5 130q0 69 31 128t86 94t126 35q75 0 129.5 -39zM181.5 389q-42.5 -39 -53.5 -102h310q-11 63 -51 102t-100 39
q-63 0 -105.5 -39zM165 611.5q-16 15.5 -16 39.5q0 23 16 38.5t39 15.5t38.5 -15.5t15.5 -38.5q0 -24 -15.5 -39.5t-38.5 -15.5t-39 15.5zM340 611.5q-16 15.5 -16 39.5q0 23 16 38.5t39 15.5t39 -15.5t16 -38.5q0 -24 -16 -39.5t-39 -15.5t-39 15.5z" />
    <glyph glyph-name="igrave" unicode="&#xec;" horiz-adv-x="278" 
d="M126 573l-113 163h88l95 -163h-70zM111 500h79v-500h-79v500z" />
    <glyph glyph-name="iacute" unicode="&#xed;" horiz-adv-x="146" 
d="M33 500h79v-500h-79v500zM23 573l95 163h88l-113 -163h-70z" />
    <glyph glyph-name="icircumflex" unicode="&#xee;" horiz-adv-x="335" 
d="M321 574h-82l-72 106l-72 -106h-82l119 158h71zM132 500h79v-500h-79v500z" />
    <glyph glyph-name="idieresis" unicode="&#xef;" horiz-adv-x="311" 
d="M106.5 689.5q15.5 -15.5 15.5 -38.5q0 -24 -15.5 -39.5t-38.5 -15.5t-39 15.5t-16 39.5q0 23 16 38.5t39 15.5t38.5 -15.5zM282 689.5q16 -15.5 16 -38.5q0 -24 -16 -39.5t-39 -15.5t-39 15.5t-16 39.5q0 23 16 38.5t39 15.5t39 -15.5zM114 500h79v-500h-79v500z" />
    <glyph glyph-name="eth" unicode="&#xf0;" horiz-adv-x="598" 
d="M518.5 460.5q33.5 -90.5 33.5 -195.5q0 -71 -30 -133.5t-87.5 -101t-135.5 -38.5q-73 0 -131 35t-90.5 94.5t-32.5 128.5t32.5 128.5t90.5 94.5t131 35q83 0 141 -47q-36 77 -93 139l-126 -42l-1 46l91 31q-68 59 -156 103l40 66q112 -56 195 -142l127 43v-48l-94 -31
q62 -75 95.5 -165.5zM388.5 95.5q39.5 24.5 61 66t21.5 89.5t-21.5 89t-60.5 65t-90 24q-50 0 -89.5 -24t-61.5 -65t-22 -89t22 -89.5t61.5 -66t89.5 -24.5t89.5 24.5z" />
    <glyph glyph-name="ntilde" unicode="&#xf1;" horiz-adv-x="572" 
d="M408 484.5q43 -25.5 68.5 -76t25.5 -123.5v-285h-80v272q0 79 -36 121.5t-95 42.5t-96.5 -43t-37.5 -121v-272h-79v500h79v-76q23 39 63.5 62.5t92.5 23.5t95 -25.5zM127 664q41 33 90 33q22 0 38.5 -4.5t37.5 -13.5q19 -8 34 -12.5t35 -4.5q48 0 85 35v-72
q-39 -31 -90 -31q-22 0 -38.5 4.5t-37.5 13.5q-19 8 -34 12.5t-35 4.5q-47 0 -85 -36v71z" />
    <glyph glyph-name="ograve" unicode="&#xf2;" horiz-adv-x="599" 
d="M168 27q-58 35 -90.5 94.5t-32.5 128.5t32.5 128.5t90.5 94.5t131 35t131 -35t90.5 -94.5t32.5 -128.5t-32.5 -128.5t-90.5 -94.5t-131 -35t-131 35zM388.5 95.5q39.5 24.5 61.5 66t22 89.5t-22 89t-61 65t-90 24q-50 0 -89.5 -24t-61.5 -65t-22 -89t22 -89.5t61.5 -66
t89.5 -24.5t89.5 24.5zM162 736h88l95 -163h-70z" />
    <glyph glyph-name="oacute" unicode="&#xf3;" horiz-adv-x="599" 
d="M168 27q-58 35 -90.5 94.5t-32.5 128.5t32.5 128.5t90.5 94.5t131 35t131 -35t90.5 -94.5t32.5 -128.5t-32.5 -128.5t-90.5 -94.5t-131 -35t-131 35zM388.5 95.5q39.5 24.5 61.5 66t22 89.5t-22 89t-61 65t-90 24q-50 0 -89.5 -24t-61.5 -65t-22 -89t22 -89.5t61.5 -66
t89.5 -24.5t89.5 24.5zM249 573l95 163h88l-113 -163h-70z" />
    <glyph glyph-name="ocircumflex" unicode="&#xf4;" horiz-adv-x="599" 
d="M168 27q-58 35 -90.5 94.5t-32.5 128.5t32.5 128.5t90.5 94.5t131 35t131 -35t90.5 -94.5t32.5 -128.5t-32.5 -128.5t-90.5 -94.5t-131 -35t-131 35zM388.5 95.5q39.5 24.5 61.5 66t22 89.5t-22 89t-61 65t-90 24q-50 0 -89.5 -24t-61.5 -65t-22 -89t22 -89.5t61.5 -66
t89.5 -24.5t89.5 24.5zM371 574l-72 106l-72 -106h-82l119 158h71l118 -158h-82z" />
    <glyph glyph-name="otilde" unicode="&#xf5;" horiz-adv-x="599" 
d="M168 27q-58 35 -90.5 94.5t-32.5 128.5t32.5 128.5t90.5 94.5t131 35t131 -35t90.5 -94.5t32.5 -128.5t-32.5 -128.5t-90.5 -94.5t-131 -35t-131 35zM388.5 95.5q39.5 24.5 61.5 66t22 89.5t-22 89t-61 65t-90 24q-50 0 -89.5 -24t-61.5 -65t-22 -89t22 -89.5t61.5 -66
t89.5 -24.5t89.5 24.5zM139 664q41 33 90 33q22 0 38.5 -4.5t37.5 -13.5q19 -8 34 -12.5t35 -4.5q48 0 85 35v-72q-39 -31 -90 -31q-22 0 -38.5 4.5t-37.5 13.5q-19 8 -34 12.5t-35 4.5q-47 0 -85 -36v71z" />
    <glyph glyph-name="odieresis" unicode="&#xf6;" horiz-adv-x="599" 
d="M168 27q-58 35 -90.5 94.5t-32.5 128.5t32.5 128.5t90.5 94.5t131 35t131 -35t90.5 -94.5t32.5 -128.5t-32.5 -128.5t-90.5 -94.5t-131 -35t-131 35zM388.5 95.5q39.5 24.5 61.5 66t22 89.5t-22 89t-61 65t-90 24q-50 0 -89.5 -24t-61.5 -65t-22 -89t22 -89.5t61.5 -66
t89.5 -24.5t89.5 24.5zM173 611.5q-16 15.5 -16 39.5q0 23 16 38.5t39 15.5t38.5 -15.5t15.5 -38.5q0 -24 -15.5 -39.5t-38.5 -15.5t-39 15.5zM348 611.5q-16 15.5 -16 39.5q0 23 16 38.5t39 15.5t39 -15.5t16 -38.5q0 -24 -16 -39.5t-39 -15.5t-39 15.5z" />
    <glyph glyph-name="divide" unicode="&#xf7;" horiz-adv-x="469" 
d="M44 341h381v-71h-381v71zM193.5 417.5q-15.5 15.5 -15.5 38.5q0 22 15.5 38t38.5 16q22 0 37.5 -16t15.5 -38q0 -23 -15.5 -38.5t-37.5 -15.5q-23 0 -38.5 15.5zM193.5 120.5q-15.5 15.5 -15.5 38.5q0 22 15.5 38t38.5 16q22 0 37.5 -16t15.5 -38q0 -23 -15.5 -38.5
t-37.5 -15.5q-23 0 -38.5 15.5z" />
    <glyph glyph-name="oslash" unicode="&#xf8;" horiz-adv-x="614" 
d="M547.5 346q17.5 -46 17.5 -96q0 -69 -32.5 -128.5t-90.5 -94.5t-131 -35q-79 0 -143 43l-29 -35h-85l66 78q-30 35 -46.5 79.5t-16.5 92.5q0 69 32.5 128.5t90.5 94.5t131 35q77 0 138 -39l26 31h83l-60 -72q32 -36 49.5 -82zM173 141l224 266q-39 22 -86 22
q-50 0 -89.5 -24t-61.5 -65t-22 -89q0 -61 35 -110zM400.5 95.5q39.5 24.5 61.5 66t22 89.5q0 65 -39 115l-225 -269q42 -26 91 -26q50 0 89.5 24.5z" />
    <glyph glyph-name="ugrave" unicode="&#xf9;" horiz-adv-x="572" 
d="M494 500v-500h-79v76q-23 -39 -63.5 -62.5t-92.5 -23.5t-95 25.5t-68.5 76t-25.5 123.5v285h80v-272q0 -79 36 -121.5t95 -42.5t96.5 43t37.5 121v272h79zM144 736h88l95 -163h-70z" />
    <glyph glyph-name="uacute" unicode="&#xfa;" horiz-adv-x="572" 
d="M494 500v-500h-79v76q-23 -39 -63.5 -62.5t-92.5 -23.5t-95 25.5t-68.5 76t-25.5 123.5v285h80v-272q0 -79 36 -121.5t95 -42.5t96.5 43t37.5 121v272h79zM231 573l95 163h88l-113 -163h-70z" />
    <glyph glyph-name="ucircumflex" unicode="&#xfb;" horiz-adv-x="572" 
d="M494 500v-500h-79v76q-23 -39 -63.5 -62.5t-92.5 -23.5t-95 25.5t-68.5 76t-25.5 123.5v285h80v-272q0 -79 36 -121.5t95 -42.5t96.5 43t37.5 121v272h79zM353 574l-72 106l-72 -106h-82l119 158h71l118 -158h-82z" />
    <glyph glyph-name="udieresis" unicode="&#xfc;" horiz-adv-x="572" 
d="M494 500v-500h-79v76q-23 -39 -63.5 -62.5t-92.5 -23.5t-95 25.5t-68.5 76t-25.5 123.5v285h80v-272q0 -79 36 -121.5t95 -42.5t96.5 43t37.5 121v272h79zM155 611.5q-16 15.5 -16 39.5q0 23 16 38.5t39 15.5t38.5 -15.5t15.5 -38.5q0 -24 -15.5 -39.5t-38.5 -15.5
t-39 15.5zM330 611.5q-16 15.5 -16 39.5q0 23 16 38.5t39 15.5t39 -15.5t16 -38.5q0 -24 -16 -39.5t-39 -15.5t-39 15.5z" />
    <glyph glyph-name="yacute" unicode="&#xfd;" horiz-adv-x="512" 
d="M504 500l-295 -700h-81l89 207l-209 493h86l162 -405l162 405h86zM206 573l95 163h88l-113 -163h-70z" />
    <glyph glyph-name="thorn" unicode="&#xfe;" horiz-adv-x="617" 
d="M458.5 473q53.5 -34 83.5 -93t30 -130t-30 -130t-83.5 -93t-121.5 -34q-57 0 -103.5 26t-76.5 71v-290h-79v900h79v-290q30 45 76.5 71t103.5 26q68 0 121.5 -34zM410 94q38 24 59 65.5t21 90.5t-21 90.5t-59 65.5t-85 24t-85.5 -24.5t-60.5 -66t-22 -89.5t22 -89.5
t60.5 -66t85.5 -24.5t85 24z" />
    <glyph glyph-name="ydieresis" unicode="&#xff;" horiz-adv-x="512" 
d="M504 500l-295 -700h-81l89 207l-209 493h86l162 -405l162 405h86zM130 611.5q-16 15.5 -16 39.5q0 23 16 38.5t39 15.5t38.5 -15.5t15.5 -38.5q0 -24 -15.5 -39.5t-38.5 -15.5t-39 15.5zM305 611.5q-16 15.5 -16 39.5q0 23 16 38.5t39 15.5t39 -15.5t16 -38.5
q0 -24 -16 -39.5t-39 -15.5t-39 15.5z" />
    <glyph glyph-name="Amacron" unicode="&#x100;" horiz-adv-x="636" 
d="M476 161h-316l-67 -161h-89l307 710h13l307 -710h-88zM444 238l-126 304l-126 -304h252zM175 877h286v-65h-286v65z" />
    <glyph glyph-name="amacron" unicode="&#x101;" horiz-adv-x="617" 
d="M539 500v-500h-79v90q-30 -45 -76.5 -71t-103.5 -26q-68 0 -121.5 34t-83.5 93t-30 130t30 130t83.5 93t121.5 34q57 0 103.5 -26t76.5 -71v90h79zM377.5 94.5q38.5 24.5 60.5 66t22 89.5t-22 89.5t-60.5 66t-85.5 24.5t-85 -24t-59 -65.5t-21 -90.5t21 -90.5t59 -65.5
t85 -24t85.5 24.5zM171 677h286v-65h-286v65z" />
    <glyph glyph-name="Abreve" unicode="&#x102;" horiz-adv-x="636" 
d="M476 161h-316l-67 -161h-89l307 710h13l307 -710h-88zM444 238l-126 304l-126 -304h252zM218.5 818.5q-38.5 38.5 -38.5 95.5h63q2 -31 23 -50.5t52 -19.5q32 0 52 19.5t22 50.5h63q0 -57 -38.5 -95.5t-98.5 -38.5q-61 0 -99.5 38.5z" />
    <glyph glyph-name="abreve" unicode="&#x103;" horiz-adv-x="617" 
d="M539 500v-500h-79v90q-30 -45 -76.5 -71t-103.5 -26q-68 0 -121.5 34t-83.5 93t-30 130t30 130t83.5 93t121.5 34q57 0 103.5 -26t76.5 -71v90h79zM377.5 94.5q38.5 24.5 60.5 66t22 89.5t-22 89.5t-60.5 66t-85.5 24.5t-85 -24t-59 -65.5t-21 -90.5t21 -90.5t59 -65.5
t85 -24t85.5 24.5zM214.5 618.5q-38.5 38.5 -38.5 95.5h63q2 -31 23 -50.5t52 -19.5q32 0 52 19.5t22 50.5h63q0 -57 -38.5 -95.5t-98.5 -38.5q-61 0 -99.5 38.5z" />
    <glyph glyph-name="Aogonek" unicode="&#x104;" horiz-adv-x="636" 
d="M476 161h-316l-67 -161h-89l307 710h13l307 -710h-88zM444 238l-126 304l-126 -304h252zM514.5 -184q-26.5 23 -26.5 63q0 59 64 121h79q-34 -37 -49 -58.5t-15 -43.5q0 -15 9.5 -24t24.5 -9q22 0 48 21v-71q-29 -22 -70 -22q-38 0 -64.5 23z" />
    <glyph glyph-name="aogonek" unicode="&#x105;" horiz-adv-x="617" 
d="M557 -114v-71q-29 -22 -70 -22q-38 0 -64.5 23t-26.5 63q0 59 64 121v90q-30 -45 -76.5 -71t-103.5 -26q-68 0 -121.5 34t-83.5 93t-30 130t30 130t83.5 93t121.5 34q57 0 103.5 -26t76.5 -71v90h79v-500q-34 -37 -49 -58.5t-15 -43.5q0 -15 9.5 -24t24.5 -9q23 0 48 21z
M377.5 94.5q38.5 24.5 60.5 66t22 89.5t-22 89.5t-60.5 66t-85.5 24.5t-85 -24t-59 -65.5t-21 -90.5t21 -90.5t59 -65.5t85 -24t85.5 24.5z" />
    <glyph glyph-name="Cacute" unicode="&#x106;" horiz-adv-x="625" 
d="M231.5 37.5q-81.5 49.5 -126 132.5t-44.5 180t44.5 180t126 132.5t186.5 49.5q91 0 163 -37v-88q-68 47 -162 47q-80 0 -143.5 -39t-98.5 -104t-35 -141t35 -141t98.5 -104t143.5 -39q94 0 162 47v-88q-72 -37 -163 -37q-105 0 -186.5 49.5zM340 773l95 163h88l-113 -163
h-70z" />
    <glyph glyph-name="cacute" unicode="&#x107;" horiz-adv-x="516" 
d="M167 27q-58 35 -90 94t-32 129t32 129t90 94t133 35q94 0 161 -54v-94q-27 31 -67 50t-88 19q-53 0 -94 -24t-63.5 -65t-22.5 -90t22.5 -90t63.5 -65t94 -24q48 0 88 19t67 50v-94q-67 -54 -161 -54q-75 0 -133 35zM240 573l95 163h88l-113 -163h-70z" />
    <glyph glyph-name="Cdotaccent" unicode="&#x10a;" horiz-adv-x="625" 
d="M231.5 37.5q-81.5 49.5 -126 132.5t-44.5 180t44.5 180t126 132.5t186.5 49.5q91 0 163 -37v-88q-68 47 -162 47q-80 0 -143.5 -39t-98.5 -104t-35 -141t35 -141t98.5 -104t143.5 -39q94 0 162 47v-88q-72 -37 -163 -37q-105 0 -186.5 49.5zM351 811.5q-16 15.5 -16 39.5
q0 23 16 38.5t39 15.5t38.5 -15.5t15.5 -38.5q0 -24 -15.5 -39.5t-38.5 -15.5t-39 15.5z" />
    <glyph glyph-name="cdotaccent" unicode="&#x10b;" horiz-adv-x="516" 
d="M167 27q-58 35 -90 94t-32 129t32 129t90 94t133 35q94 0 161 -54v-94q-27 31 -67 50t-88 19q-53 0 -94 -24t-63.5 -65t-22.5 -90t22.5 -90t63.5 -65t94 -24q48 0 88 19t67 50v-94q-67 -54 -161 -54q-75 0 -133 35zM251 611.5q-16 15.5 -16 39.5q0 23 16 38.5t39 15.5
t38.5 -15.5t15.5 -38.5q0 -24 -15.5 -39.5t-38.5 -15.5t-39 15.5z" />
    <glyph glyph-name="Ccaron" unicode="&#x10c;" horiz-adv-x="625" 
d="M231.5 37.5q-81.5 49.5 -126 132.5t-44.5 180t44.5 180t126 132.5t186.5 49.5q91 0 163 -37v-88q-68 47 -162 47q-80 0 -143.5 -39t-98.5 -104t-35 -141t35 -141t98.5 -104t143.5 -39q94 0 162 47v-88q-72 -37 -163 -37q-105 0 -186.5 49.5zM540 932l-118 -158h-71
l-119 158h82l72 -106l72 106h82z" />
    <glyph glyph-name="ccaron" unicode="&#x10d;" horiz-adv-x="516" 
d="M167 27q-58 35 -90 94t-32 129t32 129t90 94t133 35q94 0 161 -54v-94q-27 31 -67 50t-88 19q-53 0 -94 -24t-63.5 -65t-22.5 -90t22.5 -90t63.5 -65t94 -24q48 0 88 19t67 50v-94q-67 -54 -161 -54q-75 0 -133 35zM440 732l-118 -158h-71l-119 158h82l72 -106l72 106h82
z" />
    <glyph glyph-name="Dcaron" unicode="&#x10e;" horiz-adv-x="676" 
d="M450.5 654q79.5 -46 122 -125.5t42.5 -176.5q0 -98 -42.5 -178t-122.5 -127t-187 -47h-176v700h176q108 0 187.5 -46zM408 115.5q61 37.5 93.5 100t32.5 136.5q0 76 -32 137.5t-93 97t-144 35.5h-98v-544h98q82 0 143 37.5zM456 932l-118 -158h-71l-119 158h82l72 -106
l72 106h82z" />
    <glyph glyph-name="dcaron" unicode="&#x10f;" horiz-adv-x="681" 
d="M459 800h79v-800h-79v89q-30 -44 -76 -70t-103 -26q-68 0 -121.5 34t-83.5 93t-30 130t30 130t83.5 93t121.5 34q57 0 103 -26t76 -70v389zM665 710l-48 -193l-53 7l27 196zM372.5 91.5q36.5 21.5 59.5 58.5t27 80v40q-4 43 -27 80t-59.5 58.5t-80.5 21.5q-47 0 -85 -24
t-59 -65.5t-21 -90.5t21 -90.5t59 -65.5t85 -24q44 0 80.5 21.5z" />
    <glyph glyph-name="Dcroat" unicode="&#x110;" horiz-adv-x="676" 
d="M450.5 654q79.5 -46 122 -125.5t42.5 -176.5q0 -98 -42.5 -178t-122.5 -127t-187 -47h-176v312h-83v76h83v312h176q108 0 187.5 -46zM408 115.5q61 37.5 93.5 100t32.5 136.5q0 76 -32 137.5t-93 97t-144 35.5h-98v-234h83v-76h-83v-234h98q82 0 143 37.5z" />
    <glyph glyph-name="dcroat" unicode="&#x111;" horiz-adv-x="624" 
d="M608 579h-70v-579h-79v89q-30 -44 -76 -70t-103 -26q-68 0 -121.5 34t-83.5 93t-30 130t30 130t83.5 93t121.5 34q57 0 103 -26t76 -70v168h-97v76h97v145h79v-145h70v-76zM372.5 91.5q36.5 21.5 59.5 58.5t27 80v40q-4 43 -27 80t-59.5 58.5t-80.5 21.5q-47 0 -85 -24
t-59 -65.5t-21 -90.5t21 -90.5t59 -65.5t85 -24q44 0 80.5 21.5z" />
    <glyph glyph-name="Emacron" unicode="&#x112;" horiz-adv-x="516" 
d="M167 623v-227h232v-77h-232v-242h297v-77h-377v700h377v-77h-297zM137 877h286v-65h-286v65z" />
    <glyph glyph-name="emacron" unicode="&#x113;" horiz-adv-x="564" 
d="M417.5 468q54.5 -39 81.5 -105t23 -143h-395q9 -68 56 -109.5t119 -41.5q93 0 167 61v-84q-32 -25 -76 -39.5t-95 -14.5q-77 0 -134.5 34.5t-88 93.5t-30.5 130q0 69 31 128t86 94t126 35q75 0 129.5 -39zM181.5 389q-42.5 -39 -53.5 -102h310q-11 63 -51 102t-100 39
q-63 0 -105.5 -39zM148 677h286v-65h-286v65z" />
    <glyph glyph-name="Edotaccent" unicode="&#x116;" horiz-adv-x="516" 
d="M167 623v-227h232v-77h-232v-242h297v-77h-377v700h377v-77h-297zM241 811.5q-16 15.5 -16 39.5q0 23 16 38.5t39 15.5t38.5 -15.5t15.5 -38.5q0 -24 -15.5 -39.5t-38.5 -15.5t-39 15.5z" />
    <glyph glyph-name="edotaccent" unicode="&#x117;" horiz-adv-x="564" 
d="M417.5 468q54.5 -39 81.5 -105t23 -143h-395q9 -68 56 -109.5t119 -41.5q93 0 167 61v-84q-32 -25 -76 -39.5t-95 -14.5q-77 0 -134.5 34.5t-88 93.5t-30.5 130q0 69 31 128t86 94t126 35q75 0 129.5 -39zM181.5 389q-42.5 -39 -53.5 -102h310q-11 63 -51 102t-100 39
q-63 0 -105.5 -39zM252 611.5q-16 15.5 -16 39.5q0 23 16 38.5t39 15.5t38.5 -15.5t15.5 -38.5q0 -24 -15.5 -39.5t-38.5 -15.5t-39 15.5z" />
    <glyph glyph-name="Eogonek" unicode="&#x118;" horiz-adv-x="516" 
d="M167 623v-227h232v-77h-232v-242h297v-77h-377v700h377v-77h-297zM347.5 -184q-26.5 23 -26.5 63q0 59 64 121h79q-34 -37 -49 -58.5t-15 -43.5q0 -15 9.5 -24t24.5 -9q22 0 48 21v-71q-29 -22 -70 -22q-38 0 -64.5 23z" />
    <glyph glyph-name="eogonek" unicode="&#x119;" horiz-adv-x="537" 
d="M417.5 468q54.5 -39 81.5 -105t23 -143h-395q9 -68 56 -109.5t119 -41.5q93 0 167 61v-84q-37 -31 -63 -69.5t-26 -68.5q0 -20 10 -31t25 -11q21 0 45 19v-69q-30 -23 -70 -23t-66.5 25.5t-26.5 69.5q0 54 43 107q-21 -3 -42 -3q-77 0 -134.5 34.5t-88 93.5t-30.5 130
q0 69 31 128t86 94t126 35q75 0 129.5 -39zM181.5 389q-42.5 -39 -53.5 -102h310q-11 63 -51 102t-100 39q-63 0 -105.5 -39z" />
    <glyph glyph-name="Ecaron" unicode="&#x11a;" horiz-adv-x="516" 
d="M167 623v-227h232v-77h-232v-242h297v-77h-377v700h377v-77h-297zM430 932l-118 -158h-71l-119 158h82l72 -106l72 106h82z" />
    <glyph glyph-name="ecaron" unicode="&#x11b;" horiz-adv-x="564" 
d="M417.5 468q54.5 -39 81.5 -105t23 -143h-395q9 -68 56 -109.5t119 -41.5q93 0 167 61v-84q-32 -25 -76 -39.5t-95 -14.5q-77 0 -134.5 34.5t-88 93.5t-30.5 130q0 69 31 128t86 94t126 35q75 0 129.5 -39zM181.5 389q-42.5 -39 -53.5 -102h310q-11 63 -51 102t-100 39
q-63 0 -105.5 -39zM441 732l-118 -158h-71l-119 158h82l72 -106l72 106h82z" />
    <glyph glyph-name="Gbreve" unicode="&#x11e;" horiz-adv-x="763" 
d="M693 366v-274q-47 -49 -118 -76.5t-155 -27.5q-105 0 -187 49.5t-127 132.5t-45 180t45 180t127 132.5t187 49.5q79 0 145 -27.5t114 -76.5l-54 -57q-80 82 -204 82q-80 0 -144 -38t-99.5 -103t-35.5 -142t36 -141.5t99.5 -103t143.5 -38.5q54 0 104 15t88 42v165h-191
v77h271zM308.5 818.5q-38.5 38.5 -38.5 95.5h63q2 -31 23 -50.5t52 -19.5q32 0 52 19.5t22 50.5h63q0 -57 -38.5 -95.5t-98.5 -38.5q-61 0 -99.5 38.5z" />
    <glyph glyph-name="gbreve" unicode="&#x11f;" horiz-adv-x="616" 
d="M538 21q0 -74 -33.5 -125.5t-87.5 -77t-116 -25.5q-53 0 -98.5 14t-89.5 40l1 85q90 -64 179 -64q76 0 122.5 44.5t45.5 128.5v51q-30 -46 -77 -72.5t-104 -26.5q-68 0 -121.5 34t-83.5 93t-30 130t30 130t83.5 93t121.5 34q57 0 103 -26t76 -70v89h78zM377.5 94.5
q38.5 24.5 60.5 66t22 89.5t-22 89.5t-60.5 66t-85.5 24.5t-85 -24t-59 -65.5t-21 -90.5t21 -90.5t59 -65.5t85 -24t85.5 24.5zM217.5 618.5q-38.5 38.5 -38.5 95.5h63q2 -31 23 -50.5t52 -19.5q32 0 52 19.5t22 50.5h63q0 -57 -38.5 -95.5t-98.5 -38.5q-61 0 -99.5 38.5z
" />
    <glyph glyph-name="Gdotaccent" unicode="&#x120;" horiz-adv-x="763" 
d="M693 366v-274q-47 -49 -118 -76.5t-155 -27.5q-105 0 -187 49.5t-127 132.5t-45 180t45 180t127 132.5t187 49.5q79 0 145 -27.5t114 -76.5l-54 -57q-80 82 -204 82q-80 0 -144 -38t-99.5 -103t-35.5 -142t36 -141.5t99.5 -103t143.5 -38.5q54 0 104 15t88 42v165h-191
v77h271zM369 811.5q-16 15.5 -16 39.5q0 23 16 38.5t39 15.5t38.5 -15.5t15.5 -38.5q0 -24 -15.5 -39.5t-38.5 -15.5t-39 15.5z" />
    <glyph glyph-name="gdotaccent" unicode="&#x121;" horiz-adv-x="616" 
d="M538 21q0 -74 -33.5 -125.5t-87.5 -77t-116 -25.5q-53 0 -98.5 14t-89.5 40l1 85q90 -64 179 -64q76 0 122.5 44.5t45.5 128.5v51q-30 -46 -77 -72.5t-104 -26.5q-68 0 -121.5 34t-83.5 93t-30 130t30 130t83.5 93t121.5 34q57 0 103 -26t76 -70v89h78zM377.5 94.5
q38.5 24.5 60.5 66t22 89.5t-22 89.5t-60.5 66t-85.5 24.5t-85 -24t-59 -65.5t-21 -90.5t21 -90.5t59 -65.5t85 -24t85.5 24.5zM278 611.5q-16 15.5 -16 39.5q0 23 16 38.5t39 15.5t38.5 -15.5t15.5 -38.5q0 -24 -15.5 -39.5t-38.5 -15.5t-39 15.5z" />
    <glyph glyph-name="Gcommaaccent" unicode="&#x122;" horiz-adv-x="763" 
d="M693 366v-274q-47 -49 -118 -76.5t-155 -27.5q-105 0 -187 49.5t-127 132.5t-45 180t45 180t127 132.5t187 49.5q79 0 145 -27.5t114 -76.5l-54 -57q-80 82 -204 82q-80 0 -144 -38t-99.5 -103t-35.5 -142t36 -141.5t99.5 -103t143.5 -38.5q54 0 104 15t88 42v165h-191
v77h271zM400 -50h83l-71 -162h-65z" />
    <glyph glyph-name="gcommaaccent" unicode="&#x123;" horiz-adv-x="616" 
d="M538 21q0 -74 -33.5 -125.5t-87.5 -77t-116 -25.5q-53 0 -98.5 14t-89.5 40l1 85q90 -64 179 -64q76 0 122.5 44.5t45.5 128.5v51q-30 -46 -77 -72.5t-104 -26.5q-68 0 -121.5 34t-83.5 93t-30 130t30 130t83.5 93t121.5 34q57 0 103 -26t76 -70v89h78zM377.5 94.5
q38.5 24.5 60.5 66t22 89.5t-22 89.5t-60.5 66t-85.5 24.5t-85 -24t-59 -65.5t-21 -90.5t21 -90.5t59 -65.5t85 -24t85.5 24.5zM320 745h65l-53 -161h-83z" />
    <glyph glyph-name="Hbar" unicode="&#x126;" horiz-adv-x="702" 
d="M664 497h-49v-497h-80v315h-368v-315h-80v497h-49v76h49v127h80v-127h368v127h80v-127h49v-76zM535 497h-368v-105h368v105z" />
    <glyph glyph-name="hbar" unicode="&#x127;" horiz-adv-x="594" 
d="M430 484.5q43 -25.5 68.5 -76t25.5 -123.5v-285h-80v272q0 79 -36 121.5t-95 42.5t-96.5 -43t-37.5 -121v-272h-79v604h-69v76h69v120h79v-120h98v-76h-98v-180q23 39 63.5 62.5t92.5 23.5t95 -25.5z" />
    <glyph glyph-name="Imacron" unicode="&#x12a;" horiz-adv-x="254" 
d="M87 700h80v-700h-80v700zM-16 877h286v-65h-286v65z" />
    <glyph glyph-name="imacron" unicode="&#x12b;" horiz-adv-x="313" 
d="M299 677v-65h-286v65h286zM117 500h79v-500h-79v500z" />
    <glyph glyph-name="Iogonek" unicode="&#x12e;" horiz-adv-x="254" 
d="M87 700h80v-700h-80v700zM50.5 -184q-26.5 23 -26.5 63q0 59 64 121h79q-34 -37 -49 -58.5t-15 -43.5q0 -15 9.5 -24t24.5 -9q22 0 48 21v-71q-29 -22 -70 -22q-38 0 -64.5 23z" />
    <glyph glyph-name="iogonek" unicode="&#x12f;" horiz-adv-x="146" 
d="M34 611.5q-16 15.5 -16 39.5q0 23 16 38.5t39 15.5t38.5 -15.5t15.5 -38.5q0 -24 -15.5 -39.5t-38.5 -15.5t-39 15.5zM130 -114v-71q-29 -22 -70 -22q-38 0 -64.5 23t-26.5 63q0 59 64 121v500h79v-500q-34 -37 -49 -58.5t-15 -43.5q0 -15 9.5 -24t24.5 -9q23 0 48 21z
" />
    <glyph glyph-name="Idotaccent" unicode="&#x130;" horiz-adv-x="254" 
d="M87 700h80v-700h-80v700zM88 811.5q-16 15.5 -16 39.5q0 23 16 38.5t39 15.5t38.5 -15.5t15.5 -38.5q0 -24 -15.5 -39.5t-38.5 -15.5t-39 15.5z" />
    <glyph glyph-name="dotlessi" unicode="&#x131;" horiz-adv-x="146" 
d="M33 500h79v-500h-79v500z" />
    <glyph glyph-name="Kcommaaccent" unicode="&#x136;" horiz-adv-x="566" 
d="M455 0l-288 323v-323h-80v700h80v-348l286 348h96l-296 -359l304 -341h-102zM280 -50h83l-71 -162h-65z" />
    <glyph glyph-name="kcommaaccent" unicode="&#x137;" horiz-adv-x="496" 
d="M384 0l-227 231v-231h-79v800h79v-538l220 238h98l-237 -253l250 -247h-104zM239 -50h83l-71 -162h-65z" />
    <glyph glyph-name="Lacute" unicode="&#x139;" horiz-adv-x="447" 
d="M434 78v-78h-347v700h80v-622h267zM113 773l95 163h88l-113 -163h-70z" />
    <glyph glyph-name="lacute" unicode="&#x13a;" horiz-adv-x="235" 
d="M78 800h79v-800h-79v800zM68 872l95 163h88l-113 -163h-70z" />
    <glyph glyph-name="Lcommaaccent" unicode="&#x13b;" horiz-adv-x="447" 
d="M434 78v-78h-347v700h80v-622h267zM219 -50h83l-71 -162h-65z" />
    <glyph glyph-name="lcommaaccent" unicode="&#x13c;" horiz-adv-x="235" 
d="M78 800h79v-800h-79v800zM103 -50h83l-71 -162h-65z" />
    <glyph glyph-name="Lcaron" unicode="&#x13d;" horiz-adv-x="447" 
d="M434 78v-78h-347v700h80v-622h267zM255 532l27 196l74 -10l-48 -193z" />
    <glyph glyph-name="lcaron" unicode="&#x13e;" horiz-adv-x="311" 
d="M78 800h79v-800h-79v800zM291 718l-48 -193l-53 7l27 196z" />
    <glyph glyph-name="Lslash" unicode="&#x141;" horiz-adv-x="460" 
d="M447 78v-78h-347v341l-69 -31v80l69 31v279h80v-244l127 56v-80l-127 -56v-298h267z" />
    <glyph glyph-name="lslash" unicode="&#x142;" horiz-adv-x="286" 
d="M255 424l-70 -37v-387h-79v344l-75 -40v84l75 40v372h79v-330l70 37v-83z" />
    <glyph glyph-name="Nacute" unicode="&#x143;" horiz-adv-x="737" 
d="M650 700v-712h-11l-473 527v-515h-79v712h12l472 -534v522h79zM319 773l95 163h88l-113 -163h-70z" />
    <glyph glyph-name="nacute" unicode="&#x144;" horiz-adv-x="572" 
d="M408 484.5q43 -25.5 68.5 -76t25.5 -123.5v-285h-80v272q0 79 -36 121.5t-95 42.5t-96.5 -43t-37.5 -121v-272h-79v500h79v-76q23 39 63.5 62.5t92.5 23.5t95 -25.5zM237 573l95 163h88l-113 -163h-70z" />
    <glyph glyph-name="Ncommaaccent" unicode="&#x145;" horiz-adv-x="737" 
d="M650 700v-712h-11l-473 527v-515h-79v712h12l472 -534v522h79zM354 -50h83l-71 -162h-65z" />
    <glyph glyph-name="ncommaaccent" unicode="&#x146;" horiz-adv-x="572" 
d="M408 484.5q43 -25.5 68.5 -76t25.5 -123.5v-285h-80v272q0 79 -36 121.5t-95 42.5t-96.5 -43t-37.5 -121v-272h-79v500h79v-76q23 39 63.5 62.5t92.5 23.5t95 -25.5zM272 -50h83l-71 -162h-65z" />
    <glyph glyph-name="Ncaron" unicode="&#x147;" horiz-adv-x="737" 
d="M650 700v-712h-11l-473 527v-515h-79v712h12l472 -534v522h79zM519 932l-118 -158h-71l-119 158h82l72 -106l72 106h82z" />
    <glyph glyph-name="ncaron" unicode="&#x148;" horiz-adv-x="572" 
d="M408 484.5q43 -25.5 68.5 -76t25.5 -123.5v-285h-80v272q0 79 -36 121.5t-95 42.5t-96.5 -43t-37.5 -121v-272h-79v500h79v-76q23 39 63.5 62.5t92.5 23.5t95 -25.5zM437 732l-118 -158h-71l-119 158h82l72 -106l72 106h82z" />
    <glyph glyph-name="Eng" unicode="&#x14a;" horiz-adv-x="737" 
d="M650 700v-794q0 -46 -30.5 -78.5t-81.5 -32.5q-21 0 -38 4t-36 12v80q34 -15 62 -15q22 0 33.5 14.5t11.5 41.5v132l-405 451v-515h-79v712h12l472 -534v522h79z" />
    <glyph glyph-name="eng" unicode="&#x14b;" horiz-adv-x="580" 
d="M408 484.5q43 -25.5 68.5 -76t25.5 -123.5v-379q0 -46 -30.5 -78.5t-81.5 -32.5q-37 0 -74 16v80q32 -15 61 -15q22 0 33.5 14.5t11.5 41.5v340q0 79 -36 121.5t-95 42.5t-96.5 -43t-37.5 -121v-272h-79v500h79v-76q23 39 63.5 62.5t92.5 23.5t95 -25.5z" />
    <glyph glyph-name="Omacron" unicode="&#x14c;" horiz-adv-x="842" 
d="M233 37q-82 49 -127 132t-45 181q0 97 45 180t127 132.5t188 49.5q105 0 187.5 -49.5t127.5 -132.5t45 -180q0 -98 -45 -181t-127.5 -132t-187.5 -49q-106 0 -188 49zM565.5 106q63.5 39 99 103.5t35.5 140.5t-35.5 140.5t-99 103.5t-144.5 39t-144.5 -39t-99 -103.5
t-35.5 -140.5t35.5 -140.5t99 -103.5t144.5 -39t144.5 39zM278 877h286v-65h-286v65z" />
    <glyph glyph-name="omacron" unicode="&#x14d;" horiz-adv-x="599" 
d="M168 27q-58 35 -90.5 94.5t-32.5 128.5t32.5 128.5t90.5 94.5t131 35t131 -35t90.5 -94.5t32.5 -128.5t-32.5 -128.5t-90.5 -94.5t-131 -35t-131 35zM388.5 95.5q39.5 24.5 61.5 66t22 89.5t-22 89t-61 65t-90 24q-50 0 -89.5 -24t-61.5 -65t-22 -89t22 -89.5t61.5 -66
t89.5 -24.5t89.5 24.5zM156 677h286v-65h-286v65z" />
    <glyph glyph-name="Ohungarumlaut" unicode="&#x150;" horiz-adv-x="842" 
d="M233 37q-82 49 -127 132t-45 181q0 97 45 180t127 132.5t188 49.5q105 0 187.5 -49.5t127.5 -132.5t45 -180q0 -98 -45 -181t-127.5 -132t-187.5 -49q-106 0 -188 49zM565.5 106q63.5 39 99 103.5t35.5 140.5t-35.5 140.5t-99 103.5t-144.5 39t-144.5 -39t-99 -103.5
t-35.5 -140.5t35.5 -140.5t99 -103.5t144.5 -39t144.5 39zM525 932h88l-113 -164h-69zM307 768l95 163h88l-113 -163h-70z" />
    <glyph glyph-name="ohungarumlaut" unicode="&#x151;" horiz-adv-x="599" 
d="M168 27q-58 35 -90.5 94.5t-32.5 128.5t32.5 128.5t90.5 94.5t131 35t131 -35t90.5 -94.5t32.5 -128.5t-32.5 -128.5t-90.5 -94.5t-131 -35t-131 35zM388.5 95.5q39.5 24.5 61.5 66t22 89.5t-22 89t-61 65t-90 24q-50 0 -89.5 -24t-61.5 -65t-22 -89t22 -89.5t61.5 -66
t89.5 -24.5t89.5 24.5zM403 732h88l-113 -164h-69zM185 568l95 163h88l-113 -163h-70z" />
    <glyph glyph-name="OE" unicode="&#x152;" horiz-adv-x="1132" 
d="M782 623v-227h232v-77h-232v-242h297v-77h-377v118q-49 -61 -121 -95.5t-160 -34.5q-106 0 -188 49t-127 132t-45 181q0 97 45 180t127 132.5t188 49.5q88 0 160 -35t121 -96v119h377v-77h-297zM565.5 106q63.5 39 99 103.5t35.5 140.5t-35.5 140.5t-99 103.5t-144.5 39
t-144.5 -39t-99 -103.5t-35.5 -140.5t35.5 -140.5t99 -103.5t144.5 -39t144.5 39z" />
    <glyph glyph-name="oe" unicode="&#x153;" horiz-adv-x="991" 
d="M844.5 468q54.5 -39 81.5 -105t23 -143h-395q9 -68 56 -109.5t119 -41.5q93 0 167 61v-84q-32 -25 -76 -39.5t-95 -14.5q-71 0 -126 30t-88 83q-33 -52 -88.5 -82.5t-123.5 -30.5q-73 0 -131 35t-90.5 94.5t-32.5 128.5t32.5 128.5t90.5 94.5t131 35q69 0 124 -30.5
t89 -83.5q32 52 84.5 82.5t118.5 30.5q75 0 129.5 -39zM388.5 95.5q39.5 24.5 61.5 66t22 89.5t-22 89t-61 65t-90 24q-50 0 -89.5 -24t-61.5 -65t-22 -89t22 -89.5t61.5 -66t89.5 -24.5t89.5 24.5zM608.5 389q-42.5 -39 -53.5 -102h310q-11 63 -51 102t-100 39
q-63 0 -105.5 -39z" />
    <glyph glyph-name="Racute" unicode="&#x154;" horiz-adv-x="545" 
d="M428 0l-161 275h-1h-99v-275h-80v700h180q69 0 120.5 -29.5t79 -78t27.5 -104.5q0 -72 -39.5 -126.5t-109.5 -75.5l175 -286h-92zM167 353h98q66 0 107 37.5t41 97.5q0 59 -41 96.5t-107 37.5h-98v-269zM215 773l95 163h88l-113 -163h-70z" />
    <glyph glyph-name="racute" unicode="&#x155;" horiz-adv-x="318" 
d="M216 481q38 28 86 28v-92q-6 1 -17 1q-54 0 -91 -39.5t-37 -109.5v-269h-79v500h79v-89q21 42 59 70zM115 573l95 163h88l-113 -163h-70z" />
    <glyph glyph-name="Rcommaaccent" unicode="&#x156;" horiz-adv-x="545" 
d="M428 0l-161 275h-1h-99v-275h-80v700h180q69 0 120.5 -29.5t79 -78t27.5 -104.5q0 -72 -39.5 -126.5t-109.5 -75.5l175 -286h-92zM167 353h98q66 0 107 37.5t41 97.5q0 59 -41 96.5t-107 37.5h-98v-269zM252 -50h83l-71 -162h-65z" />
    <glyph glyph-name="rcommaaccent" unicode="&#x157;" horiz-adv-x="318" 
d="M216 481q38 28 86 28v-92q-6 1 -17 1q-54 0 -91 -39.5t-37 -109.5v-269h-79v500h79v-89q21 42 59 70zM127 -50h83l-71 -162h-65z" />
    <glyph glyph-name="Rcaron" unicode="&#x158;" horiz-adv-x="545" 
d="M428 0l-161 275h-1h-99v-275h-80v700h180q69 0 120.5 -29.5t79 -78t27.5 -104.5q0 -72 -39.5 -126.5t-109.5 -75.5l175 -286h-92zM167 353h98q66 0 107 37.5t41 97.5q0 59 -41 96.5t-107 37.5h-98v-269zM415 932l-118 -158h-71l-119 158h82l72 -106l72 106h82z" />
    <glyph glyph-name="rcaron" unicode="&#x159;" horiz-adv-x="318" 
d="M216 481q38 28 86 28v-92q-6 1 -17 1q-54 0 -91 -39.5t-37 -109.5v-269h-79v500h79v-89q21 42 59 70zM315 732l-118 -158h-71l-119 158h82l72 -106l72 106h82z" />
    <glyph glyph-name="Sacute" unicode="&#x15a;" horiz-adv-x="517" 
d="M136 24q-58 34 -93 87l59 55q30 -45 73.5 -71.5t90.5 -26.5q56 0 91.5 31t35.5 78q0 40 -20 67.5t-50 45.5t-81 41q-58 27 -94 49.5t-61 60t-25 92.5q0 49 25.5 89.5t70.5 64t101 23.5q60 0 110.5 -28t86.5 -70l-52 -54q-28 32 -65.5 53.5t-78.5 21.5q-51 -1 -84 -29.5
t-33 -71.5q0 -34 18.5 -58.5t46.5 -41t77 -38.5q62 -29 99 -52.5t63.5 -63.5t26.5 -99q0 -52 -26 -95t-74 -68.5t-113 -25.5q-67 0 -125 34zM209 773l95 163h88l-113 -163h-70z" />
    <glyph glyph-name="sacute" unicode="&#x15b;" horiz-adv-x="421" 
d="M118 14.5q-47 22.5 -76 56.5l51 59q26 -27 57 -44t65 -17q36 0 59.5 18t23.5 47q0 33 -25.5 51.5t-77.5 38.5q-45 18 -73 34t-47.5 44t-19.5 71q0 37 20 68t56 49t82 18q47 0 87 -20.5t66 -50.5l-47 -58q-54 52 -108 52q-33 0 -53.5 -16.5t-20.5 -42.5q0 -29 23 -45.5
t74 -37.5q46 -19 75 -35t49.5 -45.5t20.5 -74.5q0 -40 -21 -72.5t-59 -51t-87 -18.5q-47 0 -94 22.5zM162 573l95 163h88l-113 -163h-70z" />
    <glyph glyph-name="Scedilla" unicode="&#x15e;" horiz-adv-x="517" 
d="M161.5 473.5q18.5 -24.5 46.5 -41t77 -38.5q62 -29 99 -52.5t63.5 -63.5t26.5 -99q0 -48 -22.5 -89t-64.5 -67.5t-99 -31.5l-8 -25q33 -3 56.5 -25.5t23.5 -56.5q0 -39 -29.5 -65t-74.5 -26q-47 0 -84 26v69q40 -32 80 -32q21 0 35.5 10.5t14.5 26.5t-13 26t-34 10
q-24 0 -44 -11l-3 2l27 71q-59 7 -110 39.5t-82 80.5l59 55q30 -45 73.5 -71.5t90.5 -26.5q56 0 91.5 31t35.5 78q0 40 -20 67.5t-50 45.5t-81 41q-58 27 -94 49.5t-61 60t-25 92.5q0 49 25.5 89.5t70.5 64t101 23.5q60 0 110.5 -28t86.5 -70l-52 -54q-28 32 -65.5 53.5
t-78.5 21.5q-51 -1 -84 -29.5t-33 -71.5q0 -34 18.5 -58.5z" />
    <glyph glyph-name="scedilla" unicode="&#x15f;" horiz-adv-x="421" 
d="M160 326.5q23 -16.5 74 -37.5q46 -19 75 -35t49.5 -45.5t20.5 -74.5q0 -56 -39.5 -95t-104.5 -46l-8 -27q33 -3 56.5 -25.5t23.5 -56.5q0 -39 -29.5 -65t-74.5 -26q-47 0 -84 26v69q40 -32 80 -32q21 0 35.5 10.5t14.5 26.5t-13 26t-34 10q-24 0 -44 -11l-3 2l28 74
q-41 7 -79 28t-62 49l51 59q26 -27 57 -44t65 -17q36 0 59.5 18t23.5 47q0 33 -25.5 51.5t-77.5 38.5q-45 18 -73 34t-47.5 44t-19.5 71q0 37 20 68t56 49t82 18q47 0 87 -20.5t66 -50.5l-47 -58q-54 52 -108 52q-33 0 -53.5 -16.5t-20.5 -42.5q0 -29 23 -45.5z" />
    <glyph glyph-name="Scaron" unicode="&#x160;" horiz-adv-x="517" 
d="M136 24q-58 34 -93 87l59 55q30 -45 73.5 -71.5t90.5 -26.5q56 0 91.5 31t35.5 78q0 40 -20 67.5t-50 45.5t-81 41q-58 27 -94 49.5t-61 60t-25 92.5q0 49 25.5 89.5t70.5 64t101 23.5q60 0 110.5 -28t86.5 -70l-52 -54q-28 32 -65.5 53.5t-78.5 21.5q-51 -1 -84 -29.5
t-33 -71.5q0 -34 18.5 -58.5t46.5 -41t77 -38.5q62 -29 99 -52.5t63.5 -63.5t26.5 -99q0 -52 -26 -95t-74 -68.5t-113 -25.5q-67 0 -125 34zM409 932l-118 -158h-71l-119 158h82l72 -106l72 106h82z" />
    <glyph glyph-name="scaron" unicode="&#x161;" horiz-adv-x="421" 
d="M118 14.5q-47 22.5 -76 56.5l51 59q26 -27 57 -44t65 -17q36 0 59.5 18t23.5 47q0 33 -25.5 51.5t-77.5 38.5q-45 18 -73 34t-47.5 44t-19.5 71q0 37 20 68t56 49t82 18q47 0 87 -20.5t66 -50.5l-47 -58q-54 52 -108 52q-33 0 -53.5 -16.5t-20.5 -42.5q0 -29 23 -45.5
t74 -37.5q46 -19 75 -35t49.5 -45.5t20.5 -74.5q0 -40 -21 -72.5t-59 -51t-87 -18.5q-47 0 -94 22.5zM362 732l-118 -158h-71l-119 158h82l72 -106l72 106h82z" />
    <glyph glyph-name="uni0162" unicode="&#x162;" horiz-adv-x="467" 
d="M454 622h-178v-622h-80v622h-183v78h441v-78zM305.5 -59.5q23.5 -22.5 23.5 -56.5q0 -39 -29.5 -65t-74.5 -26q-47 0 -84 26v69q40 -32 80 -32q21 0 35.5 10.5t14.5 26.5t-13 26t-34 10q-24 0 -44 -11l-3 2l31 83h52l-11 -37q33 -3 56.5 -25.5z" />
    <glyph glyph-name="uni0163" unicode="&#x163;" horiz-adv-x="294" 
d="M165 0l-10 -34q33 -3 56.5 -25.5t23.5 -56.5q0 -39 -29.5 -65t-74.5 -26q-47 0 -84 26v69q40 -32 80 -32q21 0 35.5 10.5t14.5 26.5t-13 26t-34 10q-24 0 -44 -11l-3 2l30 80h-18v424h-64v76h64v134h80v-134h103v-76h-103v-424h-10z" />
    <glyph glyph-name="Tcaron" unicode="&#x164;" horiz-adv-x="467" 
d="M454 622h-178v-622h-80v622h-183v78h441v-78zM384 932l-118 -158h-71l-119 158h82l72 -106l72 106h82z" />
    <glyph glyph-name="tcaron" unicode="&#x165;" horiz-adv-x="294" 
d="M278 424h-103v-424h-80v424h-64v76h64v134h80v-134h103v-76zM208 558l27 196l74 -10l-48 -193z" />
    <glyph glyph-name="Tbar" unicode="&#x166;" horiz-adv-x="467" 
d="M276 622v-234h119v-76h-119v-312h-80v312h-121v76h121v234h-183v78h441v-78h-178z" />
    <glyph glyph-name="tbar" unicode="&#x167;" horiz-adv-x="294" 
d="M175 424v-99h102v-76h-102v-249h-80v249h-64v76h64v99h-64v76h64v134h80v-134h103v-76h-103z" />
    <glyph glyph-name="Umacron" unicode="&#x16a;" horiz-adv-x="615" 
d="M182 19q-54 30 -83 84.5t-29 126.5v470h79v-460q0 -83 43 -128t116 -45q72 0 115 44.5t43 128.5v460h80v-470q0 -72 -29 -126.5t-83 -84.5t-126 -30t-126 30zM165 877h286v-65h-286v65z" />
    <glyph glyph-name="umacron" unicode="&#x16b;" horiz-adv-x="572" 
d="M494 500v-500h-79v76q-23 -39 -63.5 -62.5t-92.5 -23.5t-95 25.5t-68.5 76t-25.5 123.5v285h80v-272q0 -79 36 -121.5t95 -42.5t96.5 43t37.5 121v272h79zM138 677h286v-65h-286v65z" />
    <glyph glyph-name="Uring" unicode="&#x16e;" horiz-adv-x="615" 
d="M182 19q-54 30 -83 84.5t-29 126.5v470h79v-460q0 -83 43 -128t116 -45q72 0 115 44.5t43 128.5v460h80v-470q0 -72 -29 -126.5t-83 -84.5t-126 -30t-126 30zM233 785.5q-31 31.5 -31 74.5q0 44 31 74.5t75 30.5t75 -30.5t31 -74.5t-31 -75t-75 -31t-75 31.5z
M340.5 826.5q13.5 13.5 13.5 33.5t-13.5 33t-32.5 13t-33 -13.5t-14 -32.5t14 -33t33 -14t32.5 13.5z" />
    <glyph glyph-name="uring" unicode="&#x16f;" horiz-adv-x="572" 
d="M494 500v-500h-79v76q-23 -39 -63.5 -62.5t-92.5 -23.5t-95 25.5t-68.5 76t-25.5 123.5v285h80v-272q0 -79 36 -121.5t95 -42.5t96.5 43t37.5 121v272h79zM206 585.5q-31 31.5 -31 74.5q0 44 31 74.5t75 30.5t75 -30.5t31 -74.5t-31 -75t-75 -31t-75 31.5zM313.5 626.5
q13.5 13.5 13.5 33.5t-13.5 33t-32.5 13t-33 -13.5t-14 -32.5t14 -33t33 -14t32.5 13.5z" />
    <glyph glyph-name="Uhungarumlaut" unicode="&#x170;" horiz-adv-x="615" 
d="M182 19q-54 30 -83 84.5t-29 126.5v470h79v-460q0 -83 43 -128t116 -45q72 0 115 44.5t43 128.5v460h80v-470q0 -72 -29 -126.5t-83 -84.5t-126 -30t-126 30zM412 932h88l-113 -164h-69zM194 768l95 163h88l-113 -163h-70z" />
    <glyph glyph-name="uhungarumlaut" unicode="&#x171;" horiz-adv-x="572" 
d="M494 500v-500h-79v76q-23 -39 -63.5 -62.5t-92.5 -23.5t-95 25.5t-68.5 76t-25.5 123.5v285h80v-272q0 -79 36 -121.5t95 -42.5t96.5 43t37.5 121v272h79zM385 732h88l-113 -164h-69zM167 568l95 163h88l-113 -163h-70z" />
    <glyph glyph-name="Uogonek" unicode="&#x172;" horiz-adv-x="624" 
d="M546 700v-470q0 -65 -23.5 -115.5t-67.5 -82.5q-33 -29 -51 -61.5t-18 -62.5q0 -20 10 -31t25 -11q22 0 45 20v-70q-30 -23 -70 -23t-67 25.5t-27 69.5q0 51 38 103q-20 -2 -32 -2q-72 0 -126 30t-83 84.5t-29 126.5v470h79v-460q0 -83 43 -128t116 -45q72 0 115 44.5
t43 128.5v460h80z" />
    <glyph glyph-name="uogonek" unicode="&#x173;" horiz-adv-x="572" 
d="M511 -114v-71q-29 -22 -70 -22q-38 0 -64.5 23t-26.5 63q0 59 64 121h1v76q-23 -39 -63.5 -62.5t-92.5 -23.5t-95 25.5t-68.5 76t-25.5 123.5v285h80v-272q0 -79 36 -121.5t95 -42.5t96.5 43t37.5 121v272h79v-500h-1q-34 -37 -49 -58.5t-15 -43.5q0 -15 9.5 -24t24.5 -9
q22 0 48 21z" />
    <glyph glyph-name="Wcircumflex" unicode="&#x174;" horiz-adv-x="1012" 
d="M1009 700l-338 -715h-16l-149 322l-149 -322h-15l-340 715l88 1l260 -562l115 249l-143 312l83 1l101 -233l102 233l83 -1l-143 -314l114 -250l261 565zM581 774l-72 106l-72 -106h-82l119 158h71l118 -158h-82z" />
    <glyph glyph-name="wcircumflex" unicode="&#x175;" horiz-adv-x="821" 
d="M817 500l-256 -504h-55l-97 196l-95 -196h-55l-255 504h85l199 -401l83 168l-117 233h82l74 -158l74 158h82l-117 -233l83 -168l199 401h86zM482 574l-72 106l-72 -106h-82l119 158h71l118 -158h-82z" />
    <glyph glyph-name="Ycircumflex" unicode="&#x176;" horiz-adv-x="572" 
d="M326 247v-247h-80v247l-242 453h91l191 -372l191 372h90zM357 774l-72 106l-72 -106h-82l119 158h71l118 -158h-82z" />
    <glyph glyph-name="ycircumflex" unicode="&#x177;" horiz-adv-x="512" 
d="M504 500l-295 -700h-81l89 207l-209 493h86l162 -405l162 405h86zM328 574l-72 106l-72 -106h-82l119 158h71l118 -158h-82z" />
    <glyph glyph-name="Ydieresis" unicode="&#x178;" horiz-adv-x="572" 
d="M326 247v-247h-80v247l-242 453h91l191 -372l191 372h90zM159 811.5q-16 15.5 -16 39.5q0 23 16 38.5t39 15.5t38.5 -15.5t15.5 -38.5q0 -24 -15.5 -39.5t-38.5 -15.5t-39 15.5zM334 811.5q-16 15.5 -16 39.5q0 23 16 38.5t39 15.5t39 -15.5t16 -38.5q0 -24 -16 -39.5
t-39 -15.5t-39 15.5z" />
    <glyph glyph-name="Zacute" unicode="&#x179;" horiz-adv-x="500" 
d="M466 688l-313 -611h303v-77h-421v14l313 609h-309v77h427v-12zM201 773l95 163h88l-113 -163h-70z" />
    <glyph glyph-name="zacute" unicode="&#x17a;" horiz-adv-x="453" 
d="M430 488l-273 -412h267v-76h-398v14l272 410h-275v76h407v-12zM178 573l95 163h88l-113 -163h-70z" />
    <glyph glyph-name="Zdotaccent" unicode="&#x17b;" horiz-adv-x="500" 
d="M466 688l-313 -611h303v-77h-421v14l313 609h-309v77h427v-12zM212 811.5q-16 15.5 -16 39.5q0 23 16 38.5t39 15.5t38.5 -15.5t15.5 -38.5q0 -24 -15.5 -39.5t-38.5 -15.5t-39 15.5z" />
    <glyph glyph-name="zdotaccent" unicode="&#x17c;" horiz-adv-x="453" 
d="M430 488l-273 -412h267v-76h-398v14l272 410h-275v76h407v-12zM189 611.5q-16 15.5 -16 39.5q0 23 16 38.5t39 15.5t38.5 -15.5t15.5 -38.5q0 -24 -15.5 -39.5t-38.5 -15.5t-39 15.5z" />
    <glyph glyph-name="Zcaron" unicode="&#x17d;" horiz-adv-x="500" 
d="M466 688l-313 -611h303v-77h-421v14l313 609h-309v77h427v-12zM401 932l-118 -158h-71l-119 158h82l72 -106l72 106h82z" />
    <glyph glyph-name="zcaron" unicode="&#x17e;" horiz-adv-x="453" 
d="M430 488l-273 -412h267v-76h-398v14l272 410h-275v76h407v-12zM378 732l-118 -158h-71l-119 158h82l72 -106l72 106h82z" />
    <glyph glyph-name="florin" unicode="&#x192;" horiz-adv-x="462" 
d="M377 632q-37 0 -59 -22t-26 -66l-11 -103h124v-76h-132q-11 -122 -24 -235q-7 -69 -49 -104.5t-104 -35.5q-38 0 -80 14v77q39 -14 68 -14q38 0 60.5 22.5t26.5 66.5l21 209h-123v76h131l14 129q7 68 48 103.5t103 35.5q37 0 81 -14v-77q-36 14 -69 14z" />
    <glyph glyph-name="Scommaaccent" unicode="&#x218;" horiz-adv-x="517" 
d="M136 24q-58 34 -93 87l59 55q30 -45 73.5 -71.5t90.5 -26.5q56 0 91.5 31t35.5 78q0 40 -20 67.5t-50 45.5t-81 41q-58 27 -94 49.5t-61 60t-25 92.5q0 49 25.5 89.5t70.5 64t101 23.5q60 0 110.5 -28t86.5 -70l-52 -54q-28 32 -65.5 53.5t-78.5 21.5q-51 -1 -84 -29.5
t-33 -71.5q0 -34 18.5 -58.5t46.5 -41t77 -38.5q62 -29 99 -52.5t63.5 -63.5t26.5 -99q0 -52 -26 -95t-74 -68.5t-113 -25.5q-67 0 -125 34zM250 -50h83l-71 -162h-65z" />
    <glyph glyph-name="scommaaccent" unicode="&#x219;" horiz-adv-x="421" 
d="M118 14.5q-47 22.5 -76 56.5l51 59q26 -27 57 -44t65 -17q36 0 59.5 18t23.5 47q0 33 -25.5 51.5t-77.5 38.5q-45 18 -73 34t-47.5 44t-19.5 71q0 37 20 68t56 49t82 18q47 0 87 -20.5t66 -50.5l-47 -58q-54 52 -108 52q-33 0 -53.5 -16.5t-20.5 -42.5q0 -29 23 -45.5
t74 -37.5q46 -19 75 -35t49.5 -45.5t20.5 -74.5q0 -40 -21 -72.5t-59 -51t-87 -18.5q-47 0 -94 22.5zM197 -50h83l-71 -162h-65z" />
    <glyph glyph-name="uni021A" unicode="&#x21a;" horiz-adv-x="467" 
d="M454 622h-178v-622h-80v622h-183v78h441v-78zM219 -50h83l-71 -162h-65z" />
    <glyph glyph-name="uni021B" unicode="&#x21b;" horiz-adv-x="294" 
d="M278 424h-103v-424h-80v424h-64v76h64v134h80v-134h103v-76zM125 -50h83l-71 -162h-65z" />
    <glyph glyph-name="uni0237" unicode="&#x237;" horiz-adv-x="79" 
d="M0 500h79v-700h-79v700z" />
    <glyph glyph-name="circumflex" unicode="&#x2c6;" horiz-adv-x="349" 
d="M246 574l-72 106l-72 -106h-82l119 158h71l118 -158h-82z" />
    <glyph glyph-name="caron" unicode="&#x2c7;" horiz-adv-x="349" 
d="M328 732l-118 -158h-71l-119 158h82l72 -106l72 106h82z" />
    <glyph glyph-name="breve" unicode="&#x2d8;" horiz-adv-x="316" 
d="M58.5 618.5q-38.5 38.5 -38.5 95.5h63q2 -31 23 -50.5t52 -19.5q32 0 52 19.5t22 50.5h63q0 -57 -38.5 -95.5t-98.5 -38.5q-61 0 -99.5 38.5z" />
    <glyph glyph-name="dotaccent" unicode="&#x2d9;" horiz-adv-x="150" 
d="M36 611.5q-16 15.5 -16 39.5q0 23 16 38.5t39 15.5t38.5 -15.5t15.5 -38.5q0 -24 -15.5 -39.5t-38.5 -15.5t-39 15.5z" />
    <glyph glyph-name="ring" unicode="&#x2da;" horiz-adv-x="252" 
d="M51 585.5q-31 31.5 -31 74.5q0 44 31 74.5t75 30.5t75 -30.5t31 -74.5t-31 -75t-75 -31t-75 31.5zM158.5 626.5q13.5 13.5 13.5 33.5t-13.5 33t-32.5 13t-33 -13.5t-14 -32.5t14 -33t33 -14t32.5 13.5z" />
    <glyph glyph-name="ogonek" unicode="&#x2db;" horiz-adv-x="202" 
d="M46.5 -184q-26.5 23 -26.5 63q0 59 64 121h79q-34 -37 -49 -58.5t-15 -43.5q0 -15 9.5 -24t24.5 -9q22 0 48 21v-71q-29 -22 -70 -22q-38 0 -64.5 23z" />
    <glyph glyph-name="tilde" unicode="&#x2dc;" horiz-adv-x="361" 
d="M20 664q41 33 90 33q22 0 38.5 -4.5t37.5 -13.5q19 -8 34 -12.5t35 -4.5q48 0 85 35v-72q-39 -31 -90 -31q-22 0 -38.5 4.5t-37.5 13.5q-19 8 -34 12.5t-35 4.5q-47 0 -85 -36v71z" />
    <glyph glyph-name="hungarumlaut" unicode="&#x2dd;" horiz-adv-x="347" 
d="M238 732h88l-113 -164h-69zM20 568l95 163h88l-113 -163h-70z" />
    <glyph glyph-name="gravecomb" unicode="&#x300;" horiz-adv-x="0" 
d="M-183 736h88l95 -163h-70z" />
    <glyph glyph-name="acutecomb" unicode="&#x301;" horiz-adv-x="0" 
d="M-183 573l95 163h88l-113 -163h-70z" />
    <glyph glyph-name="uni0302" unicode="&#x302;" horiz-adv-x="0" 
d="M-82 574l-72 106l-72 -106h-82l119 158h71l118 -158h-82z" />
    <glyph glyph-name="tildecomb" unicode="&#x303;" horiz-adv-x="0" 
d="M-320 664q41 33 90 33q22 0 38.5 -4.5t37.5 -13.5q19 -8 34 -12.5t35 -4.5q48 0 85 35v-72q-39 -31 -90 -31q-22 0 -38.5 4.5t-37.5 13.5q-19 8 -34 12.5t-35 4.5q-47 0 -85 -36v71z" />
    <glyph glyph-name="uni0304" unicode="&#x304;" horiz-adv-x="0" 
d="M-286 677h286v-65h-286v65z" />
    <glyph glyph-name="uni0306" unicode="&#x306;" horiz-adv-x="0" 
d="M-236.5 618.5q-38.5 38.5 -38.5 95.5h63q2 -31 23 -50.5t52 -19.5q32 0 52 19.5t22 50.5h63q0 -57 -38.5 -95.5t-98.5 -38.5q-61 0 -99.5 38.5z" />
    <glyph glyph-name="uni0307" unicode="&#x307;" horiz-adv-x="0" 
d="M-93 611.5q-16 15.5 -16 39.5q0 23 16 38.5t39 15.5t38.5 -15.5t15.5 -38.5q0 -24 -15.5 -39.5t-38.5 -15.5t-39 15.5z" />
    <glyph glyph-name="uni0308" unicode="&#x308;" horiz-adv-x="0" 
d="M-269 611.5q-16 15.5 -16 39.5q0 23 16 38.5t39 15.5t38.5 -15.5t15.5 -38.5q0 -24 -15.5 -39.5t-38.5 -15.5t-39 15.5zM-94 611.5q-16 15.5 -16 39.5q0 23 16 38.5t39 15.5t39 -15.5t16 -38.5q0 -24 -16 -39.5t-39 -15.5t-39 15.5z" />
    <glyph glyph-name="uni030A" unicode="&#x30a;" horiz-adv-x="0" 
d="M-181 585.5q-31 31.5 -31 74.5q0 44 31 74.5t75 30.5t75 -30.5t31 -74.5t-31 -75t-75 -31t-75 31.5zM-73.5 626.5q13.5 13.5 13.5 33.5t-13.5 33t-32.5 13t-33 -13.5t-14 -32.5t14 -33t33 -14t32.5 13.5z" />
    <glyph glyph-name="uni030B" unicode="&#x30b;" horiz-adv-x="0" 
d="M-88 732h88l-113 -164h-69zM-306 568l95 163h88l-113 -163h-70z" />
    <glyph glyph-name="uni030C" unicode="&#x30c;" horiz-adv-x="0" 
d="M0 732l-118 -158h-71l-119 158h82l72 -106l72 106h82z" />
    <glyph glyph-name="uni0312" unicode="&#x312;" horiz-adv-x="0" 
d="M-65 745h65l-53 -161h-83z" />
    <glyph glyph-name="uni0326" unicode="&#x326;" horiz-adv-x="0" 
d="M-83 -50h83l-71 -162h-65z" />
    <glyph glyph-name="uni0327" unicode="&#x327;" horiz-adv-x="0" 
d="M-23.5 -59.5q23.5 -22.5 23.5 -56.5q0 -39 -29.5 -65t-74.5 -26q-47 0 -84 26v69q40 -32 80 -32q21 0 35.5 10.5t14.5 26.5t-13 26t-34 10q-24 0 -44 -11l-3 2l31 83h52l-11 -37q33 -3 56.5 -25.5z" />
    <glyph glyph-name="uni0328" unicode="&#x328;" horiz-adv-x="0" 
d="M-134.5 -184q-26.5 23 -26.5 63q0 59 64 121h79q-34 -37 -49 -58.5t-15 -43.5q0 -15 9.5 -24t24.5 -9q22 0 48 21v-71q-29 -22 -70 -22q-38 0 -64.5 23z" />
    <glyph glyph-name="uni0335" unicode="&#x335;" horiz-adv-x="0" 
d="M-246 295h246v-76h-246v76z" />
    <glyph glyph-name="uni0336" unicode="&#x336;" horiz-adv-x="0" 
d="M-626 295h626v-76h-626v76z" />
    <glyph glyph-name="uni0337" unicode="&#x337;" horiz-adv-x="0" 
d="M-276 390l276 122v-80l-276 -122v80z" />
    <glyph glyph-name="uni0338" unicode="&#x338;" horiz-adv-x="0" 
d="M-100 700h100l-545 -700h-102z" />
    <glyph glyph-name="uni0394" unicode="&#x394;" horiz-adv-x="588" 
d="M583 10v-10h-579v10l248 690h84zM472 78l-178 519l-179 -519h357z" />
    <glyph glyph-name="uni03A9" unicode="&#x3a9;" horiz-adv-x="756" 
d="M666 215q-46 -80 -121 -137h139v-78h-257v66q64 50 107 95.5t69.5 102t26.5 126.5q0 63 -31 119t-88.5 90t-132.5 34t-132.5 -34t-88.5 -90t-31 -119q0 -70 26.5 -126.5t69.5 -102t107 -95.5v-66h-257v78h139q-75 57 -121 137t-46 175q0 83 41 157t117 119.5t176 45.5
t176 -45.5t117 -119.5t41 -157q0 -95 -46 -175z" />
    <glyph glyph-name="uni03BC" unicode="&#x3bc;" horiz-adv-x="572" 
d="M494 500v-500h-79v76q-23 -39 -63.5 -62.5t-92.5 -23.5q-62 0 -109 35v-225h-80v700h80v-272q0 -79 36 -121.5t95 -42.5t96.5 43t37.5 121v272h79z" />
    <glyph glyph-name="pi" unicode="&#x3c0;" horiz-adv-x="593" 
d="M459 512v-401q0 -35 29 -35q13 0 23.5 3.5t24.5 10.5v-80q-19 -8 -32 -11.5t-33 -3.5q-41 0 -66 24.5t-25 65.5v427h-189v-512h-80v512h-80v77h507v-77h-79z" />
    <glyph glyph-name="Wgrave" unicode="&#x1e80;" horiz-adv-x="1012" 
d="M1009 700l-338 -715h-16l-149 322l-149 -322h-15l-340 715l88 1l260 -562l115 249l-143 312l83 1l101 -233l102 233l83 -1l-143 -314l114 -250l261 565zM372 936h88l95 -163h-70z" />
    <glyph glyph-name="wgrave" unicode="&#x1e81;" horiz-adv-x="821" 
d="M817 500l-256 -504h-55l-97 196l-95 -196h-55l-255 504h85l199 -401l83 168l-117 233h82l74 -158l74 158h82l-117 -233l83 -168l199 401h86zM273 736h88l95 -163h-70z" />
    <glyph glyph-name="Wacute" unicode="&#x1e82;" horiz-adv-x="1012" 
d="M1009 700l-338 -715h-16l-149 322l-149 -322h-15l-340 715l88 1l260 -562l115 249l-143 312l83 1l101 -233l102 233l83 -1l-143 -314l114 -250l261 565zM459 773l95 163h88l-113 -163h-70z" />
    <glyph glyph-name="wacute" unicode="&#x1e83;" horiz-adv-x="821" 
d="M817 500l-256 -504h-55l-97 196l-95 -196h-55l-255 504h85l199 -401l83 168l-117 233h82l74 -158l74 158h82l-117 -233l83 -168l199 401h86zM360 573l95 163h88l-113 -163h-70z" />
    <glyph glyph-name="Wdieresis" unicode="&#x1e84;" horiz-adv-x="1012" 
d="M1009 700l-338 -715h-16l-149 322l-149 -322h-15l-340 715l88 1l260 -562l115 249l-143 312l83 1l101 -233l102 233l83 -1l-143 -314l114 -250l261 565zM383 811.5q-16 15.5 -16 39.5q0 23 16 38.5t39 15.5t38.5 -15.5t15.5 -38.5q0 -24 -15.5 -39.5t-38.5 -15.5
t-39 15.5zM558 811.5q-16 15.5 -16 39.5q0 23 16 38.5t39 15.5t39 -15.5t16 -38.5q0 -24 -16 -39.5t-39 -15.5t-39 15.5z" />
    <glyph glyph-name="wdieresis" unicode="&#x1e85;" horiz-adv-x="821" 
d="M817 500l-256 -504h-55l-97 196l-95 -196h-55l-255 504h85l199 -401l83 168l-117 233h82l74 -158l74 158h82l-117 -233l83 -168l199 401h86zM284 611.5q-16 15.5 -16 39.5q0 23 16 38.5t39 15.5t38.5 -15.5t15.5 -38.5q0 -24 -15.5 -39.5t-38.5 -15.5t-39 15.5z
M459 611.5q-16 15.5 -16 39.5q0 23 16 38.5t39 15.5t39 -15.5t16 -38.5q0 -24 -16 -39.5t-39 -15.5t-39 15.5z" />
    <glyph glyph-name="Ygrave" unicode="&#x1ef2;" horiz-adv-x="572" 
d="M326 247v-247h-80v247l-242 453h91l191 -372l191 372h90zM148 936h88l95 -163h-70z" />
    <glyph glyph-name="ygrave" unicode="&#x1ef3;" horiz-adv-x="512" 
d="M504 500l-295 -700h-81l89 207l-209 493h86l162 -405l162 405h86zM119 736h88l95 -163h-70z" />
    <glyph glyph-name="endash" unicode="&#x2013;" horiz-adv-x="515" 
d="M44 341h428v-71h-428v71z" />
    <glyph glyph-name="emdash" unicode="&#x2014;" horiz-adv-x="787" 
d="M44 341h700v-71h-700v71z" />
    <glyph glyph-name="quoteleft" unicode="&#x2018;" horiz-adv-x="151" 
d="M69 700h62l-34 -261h-81z" />
    <glyph glyph-name="quoteright" unicode="&#x2019;" horiz-adv-x="151" 
d="M82 439h-62l34 261h81z" />
    <glyph glyph-name="quotesinglbase" unicode="&#x201a;" horiz-adv-x="163" 
d="M55 140h82l-55 -248h-56z" />
    <glyph glyph-name="quotedblleft" unicode="&#x201c;" horiz-adv-x="268" 
d="M69 700h62l-34 -261h-81zM186 700h62l-34 -261h-81z" />
    <glyph glyph-name="quotedblright" unicode="&#x201d;" horiz-adv-x="268" 
d="M82 439h-62l34 261h81zM199 439h-62l34 261h81z" />
    <glyph glyph-name="quotedblbase" unicode="&#x201e;" horiz-adv-x="163" 
d="M137 140l-55 -248h-56l29 248h82z" />
    <glyph glyph-name="dagger" unicode="&#x2020;" horiz-adv-x="306" 
d="M285 569h-96v-210h-71v210h-98v70h98v121h71v-121h96v-70z" />
    <glyph glyph-name="daggerdbl" unicode="&#x2021;" horiz-adv-x="306" 
d="M189 592v-64h96v-71h-96v-98h-71v98h-98v71h98v64h-98v70h98v98h71v-98h96v-70h-96z" />
    <glyph glyph-name="bullet" unicode="&#x2022;" horiz-adv-x="339" 
d="M106 262q-28 28 -28 71q0 41 28.5 70.5t70.5 29.5q40 0 69 -29.5t29 -70.5q0 -42 -28.5 -70.5t-69.5 -28.5q-43 0 -71 28z" />
    <glyph glyph-name="ellipsis" unicode="&#x2026;" horiz-adv-x="579" 
d="M253.5 9.5q-15.5 15.5 -15.5 38.5q0 22 15.5 38t38.5 16q22 0 37.5 -16t15.5 -38q0 -23 -15.5 -38.5t-37.5 -15.5q-23 0 -38.5 15.5zM461.5 9.5q-15.5 15.5 -15.5 38.5q0 22 15.5 38t38.5 16q22 0 37.5 -16t15.5 -38q0 -23 -15.5 -38.5t-37.5 -15.5q-23 0 -38.5 15.5z
M41.5 9.5q-15.5 15.5 -15.5 38.5q0 22 15.5 38t38.5 16q22 0 37.5 -16t15.5 -38q0 -23 -15.5 -38.5t-37.5 -15.5q-23 0 -38.5 15.5z" />
    <glyph glyph-name="perthousand" unicode="&#x2030;" horiz-adv-x="967" 
d="M52.5 417.5q-28.5 46.5 -28.5 120.5q0 76 28 122.5t88 46.5q59 0 87.5 -47t28.5 -122q0 -73 -28.5 -120t-87.5 -47t-87.5 46.5zM181 462.5q13 30.5 13 76.5q0 47 -12.5 77t-41.5 30t-41.5 -30t-12.5 -77q0 -46 13 -76.5t41 -30.5t41 30.5zM511 700h62l-396 -700h-62z
M459.5 39.5q-28.5 46.5 -28.5 120.5q0 76 28 122.5t88 46.5q59 0 87.5 -47t28.5 -122q0 -73 -28.5 -120t-87.5 -47t-87.5 46.5zM588 84.5q13 30.5 13 76.5q0 47 -12.5 77t-41.5 30t-41.5 -30t-12.5 -77q0 -46 13 -76.5t41 -30.5t41 30.5zM739.5 39.5q-28.5 46.5 -28.5 120.5
q0 76 28 122.5t88 46.5q59 0 87.5 -47t28.5 -122q0 -73 -28.5 -120t-87.5 -47t-87.5 46.5zM868 84.5q13 30.5 13 76.5q0 47 -12.5 77t-41.5 30t-41.5 -30t-12.5 -77q0 -46 13 -76.5t41 -30.5t41 30.5z" />
    <glyph glyph-name="guilsinglleft" unicode="&#x2039;" horiz-adv-x="312" 
d="M126 290l178 -210h-86l-174 208v4l174 208h86z" />
    <glyph glyph-name="guilsinglright" unicode="&#x203a;" horiz-adv-x="312" 
d="M268 292v-4l-174 -208h-86l178 210l-178 210h86z" />
    <glyph glyph-name="fraction" unicode="&#x2044;" horiz-adv-x="127" 
d="M231 700h62l-396 -700h-62z" />
    <glyph glyph-name="Euro" unicode="&#x20ac;" horiz-adv-x="574" 
d="M267.5 581.5q-53.5 -52.5 -75.5 -136.5h226v-66h-236q-1 -10 -1 -29q0 -17 1 -26h236v-66h-226q20 -85 74 -138.5t128 -53.5t136 45v-86q-60 -37 -134 -37q-113 0 -189.5 75t-99.5 195h-76v66h69q-1 9 -1 26q0 19 1 29h-69v66h77q23 119 99.5 193t188.5 74q74 0 134 -37
v-86q-62 45 -136 45q-73 0 -126.5 -52.5z" />
    <glyph glyph-name="trademark" unicode="&#x2122;" horiz-adv-x="516" 
d="M495 469h-52l-24 124l-60 -126h-5l-60 126l-22 -124h-53l47 232h27l64 -135l64 135h26zM207 651h-67v-182h-51v182h-69v49h187v-49z" />
    <glyph glyph-name="oneeighth" unicode="&#x215b;" horiz-adv-x="608" 
d="M148 703v-325h-60v228l-40 -20l-24 52l114 65h10zM441 700h62l-396 -700h-62zM571 142q13 -21 13 -47q0 -44 -32 -72.5t-80 -28.5q-47 0 -79 28.5t-32 72.5q0 26 13 47t35 34q-30 27 -30 65q0 36 27.5 61.5t65.5 25.5q39 0 67 -25.5t28 -61.5q0 -41 -32 -65
q23 -13 36 -34zM445 258q-11 -11 -11 -26q0 -16 11 -27.5t27 -11.5q17 0 28 11.5t11 27.5q0 15 -11 26t-28 11q-16 0 -27 -11zM506.5 67q13.5 14 13.5 34q0 19 -13.5 33.5t-34.5 14.5q-20 0 -34 -14.5t-14 -33.5q0 -20 13.5 -34t34.5 -14t34.5 14z" />
    <glyph glyph-name="threeeighths" unicode="&#x215c;" horiz-adv-x="664" 
d="M219.5 544.5q22.5 -28.5 22.5 -66.5q0 -43 -31 -74.5t-82 -31.5q-41 0 -70.5 22t-39.5 58l59 22q5 -18 19 -30t33 -12q22 0 36.5 14t14.5 35t-14.5 35.5t-36.5 14.5q-15 0 -31 -7l-34 32l80 85h-112v59h190v-51l-64 -68q38 -8 60.5 -36.5zM497 700h62l-396 -700h-62z
M627 142q13 -21 13 -47q0 -44 -32 -72.5t-80 -28.5q-47 0 -79 28.5t-32 72.5q0 26 13 47t35 34q-30 27 -30 65q0 36 27.5 61.5t65.5 25.5q39 0 67 -25.5t28 -61.5q0 -41 -32 -65q23 -13 36 -34zM501 258q-11 -11 -11 -26q0 -16 11 -27.5t27 -11.5q17 0 28 11.5t11 27.5
q0 15 -11 26t-28 11q-16 0 -27 -11zM562.5 67q13.5 14 13.5 34q0 19 -13.5 33.5t-34.5 14.5q-20 0 -34 -14.5t-14 -33.5q0 -20 13.5 -34t34.5 -14t34.5 14z" />
    <glyph glyph-name="fiveeighths" unicode="&#x215d;" horiz-adv-x="662" 
d="M209 553q31 -31 31 -75q0 -43 -30.5 -74.5t-80.5 -31.5q-41 0 -70.5 22t-39.5 58l58 21q5 -18 19.5 -29.5t32.5 -11.5q22 0 36 14t14 34q0 21 -15 35.5t-39 14.5q-30 0 -56 -22l-35 10l40 182h142v-59h-98l-14 -60q10 3 24 3q50 0 81 -31zM495 700h62l-396 -700h-62z
M625 142q13 -21 13 -47q0 -44 -32 -72.5t-80 -28.5q-47 0 -79 28.5t-32 72.5q0 26 13 47t35 34q-30 27 -30 65q0 36 27.5 61.5t65.5 25.5q39 0 67 -25.5t28 -61.5q0 -41 -32 -65q23 -13 36 -34zM499 258q-11 -11 -11 -26q0 -16 11 -27.5t27 -11.5q17 0 28 11.5t11 27.5
q0 15 -11 26t-28 11q-16 0 -27 -11zM560.5 67q13.5 14 13.5 34q0 19 -13.5 33.5t-34.5 14.5q-20 0 -34 -14.5t-14 -33.5q0 -20 13.5 -34t34.5 -14t34.5 14z" />
    <glyph glyph-name="seveneighths" unicode="&#x215e;" horiz-adv-x="620" 
d="M220 690l-94 -312h-67l88 263h-133v59h206v-10zM453 700h62l-396 -700h-62zM583 142q13 -21 13 -47q0 -44 -32 -72.5t-80 -28.5q-47 0 -79 28.5t-32 72.5q0 26 13 47t35 34q-30 27 -30 65q0 36 27.5 61.5t65.5 25.5q39 0 67 -25.5t28 -61.5q0 -41 -32 -65q23 -13 36 -34z
M457 258q-11 -11 -11 -26q0 -16 11 -27.5t27 -11.5q17 0 28 11.5t11 27.5q0 15 -11 26t-28 11q-16 0 -27 -11zM518.5 67q13.5 14 13.5 34q0 19 -13.5 33.5t-34.5 14.5q-20 0 -34 -14.5t-14 -33.5q0 -20 13.5 -34t34.5 -14t34.5 14z" />
    <glyph glyph-name="arrowleft" unicode="&#x2190;" horiz-adv-x="736" 
d="M693 274h-516v-99l-133 134l133 134v-98h516v-71z" />
    <glyph glyph-name="arrowup" unicode="&#x2191;" horiz-adv-x="355" 
d="M212 541v-516h-71v516h-98l134 133l134 -133h-99z" />
    <glyph glyph-name="arrowright" unicode="&#x2192;" horiz-adv-x="736" 
d="M559 175v99h-516v71h516v98l133 -134z" />
    <glyph glyph-name="arrowdown" unicode="&#x2193;" horiz-adv-x="355" 
d="M311 137l-134 -133l-134 133h98v516h71v-516h99z" />
    <glyph glyph-name="arrowboth" unicode="&#x2194;" horiz-adv-x="804" 
d="M627 175v99h-450v-99l-133 134l133 134v-98h450v98l133 -134z" />
    <glyph glyph-name="arrowupdn" unicode="&#x2195;" horiz-adv-x="355" 
d="M213 125h98l-134 -133l-134 133h99v450h-99l134 133l134 -133h-98v-450z" />
    <glyph glyph-name="uni2196" unicode="&#x2196;" horiz-adv-x="572" 
d="M479 105l-365 366l-70 -70v188l189 1l-68 -68l365 -366z" />
    <glyph glyph-name="uni2197" unicode="&#x2197;" horiz-adv-x="572" 
d="M528 401l-69 70l-366 -366l-51 51l366 366l-69 68l189 -1v-188z" />
    <glyph glyph-name="uni2198" unicode="&#x2198;" horiz-adv-x="572" 
d="M528 292v-188l-189 -1l69 69l-366 365l51 51l366 -365z" />
    <glyph glyph-name="uni2199" unicode="&#x2199;" horiz-adv-x="572" 
d="M165 172l68 -69l-189 1v188l70 -69l365 365l51 -51z" />
    <glyph glyph-name="partialdiff" unicode="&#x2202;" horiz-adv-x="582" 
d="M460.5 516q75.5 -111 75.5 -248q0 -67 -26.5 -130t-83 -104.5t-140.5 -41.5q-70 0 -125 34.5t-85.5 93.5t-30.5 130t30 130t83.5 93.5t121.5 34.5q75 0 130 -44q-70 100 -227 177l44 64q158 -78 233.5 -189zM147.5 160q21.5 -41 59 -65t83.5 -24q47 0 84.5 24.5t58 65.5
t20.5 89t-20.5 89t-58 65.5t-84.5 24.5t-84.5 -24t-58.5 -65t-21 -90t21.5 -90z" />
    <glyph glyph-name="emptyset" unicode="&#x2205;" horiz-adv-x="676" 
d="M608 387.5q20 -51.5 20 -108.5q0 -78 -36.5 -144.5t-103 -106t-150.5 -39.5q-92 0 -163 47l-31 -36h-88l68 80q-36 39 -56 90.5t-20 108.5q0 78 37 144.5t103 106t150 39.5q90 0 163 -47l31 36h88l-68 -80q36 -39 56 -90.5zM141 205.5q13 -35.5 36 -63.5l271 318
q-49 30 -110 30q-60 0 -108 -29t-75 -77.5t-27 -104.5q0 -38 13 -73.5zM446 97q48 29 75 77.5t27 104.5q0 38 -13 73.5t-36 63.5l-271 -318q49 -30 110 -30q60 0 108 29z" />
    <glyph glyph-name="product" unicode="&#x220f;" horiz-adv-x="568" 
d="M556 629h-108v-742h-80v742h-158v-742h-80v742h-116v71h542v-71z" />
    <glyph glyph-name="summation" unicode="&#x2211;" horiz-adv-x="497" 
d="M462 623h-301l180 -325v-8l-180 -325h301v-78h-427v12l222 395l-222 394v12h427v-77z" />
    <glyph glyph-name="minus" unicode="&#x2212;" horiz-adv-x="469" 
d="M44 341h381v-71h-381v71z" />
    <glyph glyph-name="radical" unicode="&#x221a;" horiz-adv-x="616" 
d="M603 623h-220l-176 -736h-92l-107 403h78l74 -301l162 711h281v-77z" />
    <glyph glyph-name="infinity" unicode="&#x221e;" horiz-adv-x="949" 
d="M141.5 103q-46.5 28 -71.5 73t-25 96q0 50 25 95.5t71.5 73.5t106.5 28q72 0 123.5 -35.5t103.5 -100.5q51 64 103 100t124 36q60 0 106 -28t71 -73.5t25 -95.5q0 -51 -25 -96t-71 -73t-106 -28q-72 0 -124 36t-103 101q-52 -65 -103.5 -101t-123.5 -36q-60 0 -106.5 28z
M342 182q40 31 87 91q-47 60 -87 91t-93 31q-55 0 -91 -34.5t-36 -87.5q0 -51 36.5 -86.5t90.5 -35.5q53 0 93 31zM792 185q36 34 36 88q0 53 -36 87.5t-92 34.5q-53 0 -93 -31t-86 -91q46 -60 86 -91t93 -31q56 0 92 34z" />
    <glyph glyph-name="integral" unicode="&#x222b;" horiz-adv-x="456" 
d="M16 -30q41 -15 69 -15q67 0 76 85l57 534q7 68 43.5 101.5t95.5 33.5q38 0 83 -14v-77q-41 15 -70 15q-67 0 -76 -84l-57 -535q-7 -67 -44 -101t-95 -34q-37 0 -82 14v77z" />
    <glyph glyph-name="approxequal" unicode="&#x2248;" horiz-adv-x="447" 
d="M44 405q44 32 102 32q25 0 43 -4.5t41 -13.5q22 -8 39 -12.5t39 -4.5q53 0 96 36v-71q-43 -31 -102 -31q-25 0 -43 4.5t-42 13.5q-20 8 -37.5 12.5t-39.5 4.5q-55 0 -96 -36v70zM44 269q44 32 101 32q25 0 44 -4.5t41 -13.5q22 -8 39 -12.5t39 -4.5q53 0 96 36v-71
q-43 -31 -102 -31q-25 0 -43 4.5t-42 13.5q-20 8 -37.5 12.5t-39.5 4.5q-55 0 -96 -36v70z" />
    <glyph glyph-name="notequal" unicode="&#x2260;" horiz-adv-x="469" 
d="M271 337l-25 -64h179v-71h-207l-43 -112h-52l43 112h-122v71h150l25 64h-175v71h202l46 118h52l-46 -118h127v-71h-154z" />
    <glyph glyph-name="lessequal" unicode="&#x2264;" horiz-adv-x="454" 
d="M411 478l-247 -123l247 -123v-73l-367 191v10l367 191v-73zM44 128h367v-64h-367v64z" />
    <glyph glyph-name="greaterequal" unicode="&#x2265;" horiz-adv-x="454" 
d="M410 360v-10l-367 -191v73l247 123l-247 123v73zM43 128h367v-64h-367v64z" />
    <glyph glyph-name="lozenge" unicode="&#x25ca;" horiz-adv-x="484" 
d="M456 350l-168 -350h-93l-167 350l167 350h93zM372 350l-130 281l-131 -281l131 -281z" />
    <glyph glyph-name="i.loclTRK" horiz-adv-x="265" 
d="M94 611.5q-16 15.5 -16 39.5q0 23 16 38.5t39 15.5t38.5 -15.5t15.5 -38.5q0 -24 -15.5 -39.5t-38.5 -15.5t-39 15.5zM93 500h79v-500h-79v500z" />
    <glyph glyph-name="zero.lf" horiz-adv-x="541" 
d="M101 90q-54 100 -54 260q0 159 54 259.5t170 100.5q115 0 169.5 -100.5t54.5 -259.5t-54.5 -259.5t-169.5 -100.5q-116 0 -170 100zM382.5 149.5q33.5 80.5 33.5 200.5q0 119 -33.5 200t-111.5 81t-111.5 -81t-33.5 -200q0 -120 33.5 -200.5t111.5 -80.5t111.5 80.5z" />
    <glyph glyph-name="one.lf" horiz-adv-x="323" 
d="M245 710v-710h-79v575l-98 -62l-37 65l204 132h10z" />
    <glyph glyph-name="two.lf" horiz-adv-x="532" 
d="M67 11q114 140 228 285q38 47 57.5 74t33.5 61t14 70q0 33 -16.5 63.5t-47 50t-70.5 19.5q-62 0 -101.5 -43t-45.5 -110l-75 22q5 56 33 104t76.5 76.5t112.5 28.5q63 0 112 -29.5t76 -77t27 -101.5q0 -61 -27.5 -113.5t-80.5 -118.5l-157 -195h272v-77h-421v11z" />
    <glyph glyph-name="three.lf" horiz-adv-x="557" 
d="M407 413q50 -31 77.5 -81.5t27.5 -109.5q0 -61 -29.5 -114t-83 -85.5t-122.5 -32.5q-90 0 -150.5 50t-81.5 126l75 32q14 -56 56 -92.5t101 -36.5q44 0 79 20.5t55 55.5t20 77q0 43 -20 77.5t-56 54.5t-80 20q-49 0 -98 -28l-37 40l207 235h-267v79h385v-58l-175 -195
q67 -3 117 -34z" />
    <glyph glyph-name="four.lf" horiz-adv-x="485" 
d="M461 122h-75v-122h-79v122h-303v52l308 530h74v-505h75v-77zM307 199v359l-202 -359h202z" />
    <glyph glyph-name="five.lf" horiz-adv-x="551" 
d="M394 422.5q53 -32.5 82.5 -86t29.5 -114.5q0 -62 -29 -115t-82 -85t-122 -32q-85 0 -147 49.5t-81 125.5l73 32q14 -56 56 -92t99 -36q44 0 78.5 20t54 55t19.5 78t-20 78.5t-55.5 56t-81.5 20.5q-45 0 -81 -20t-60 -54l-48 10l83 387h282v-78h-222l-37 -186q38 19 88 19
q68 0 121 -32.5z" />
    <glyph glyph-name="six.lf" horiz-adv-x="554" 
d="M397 423q53 -31 82.5 -84t29.5 -117t-29.5 -116.5t-82.5 -83.5t-120 -31t-120 31t-82.5 83.5t-29.5 116.5v1v0v1q1 51 20 99t56 116q4 9 14 27l62 115l64 119h90l-139 -255q30 9 65 9q67 0 120 -31zM355 89.5q35 20.5 54.5 56t19.5 76.5t-19.5 76.5t-54 56t-78.5 20.5
q-43 0 -78 -20.5t-54.5 -56t-19.5 -76.5t19.5 -76.5t54.5 -56t78 -20.5t78 20.5z" />
    <glyph glyph-name="seven.lf" horiz-adv-x="438" 
d="M433 690l-232 -690h-86l217 622h-319v78h420v-10z" />
    <glyph glyph-name="eight.lf" horiz-adv-x="548" 
d="M472 312.5q29 -48.5 29 -104.5q0 -60 -28.5 -110t-80.5 -79t-118 -29t-118 29t-80.5 79t-28.5 110q0 57 28.5 106t78.5 77q-33 24 -51.5 60.5t-18.5 79.5q0 47 24.5 88t68 66t97.5 25t97.5 -25t68 -66t24.5 -88q0 -43 -18.5 -80t-52.5 -61q50 -29 79 -77.5zM195.5 452
q30.5 -31 78.5 -31t79 31t31 75t-30.5 74t-79.5 30q-48 0 -78.5 -30t-30.5 -74t30.5 -75zM350.5 86q33.5 19 52.5 51.5t19 70.5t-19 71t-52.5 52.5t-76.5 19.5q-42 0 -76 -19.5t-53 -52.5t-19 -71t19 -70.5t53 -51.5t76 -19q43 0 76.5 19z" />
    <glyph glyph-name="nine.lf" horiz-adv-x="513" 
d="M509 476q-1 -51 -20 -99t-56 -116q-4 -9 -14 -27l-62 -115l-64 -119h-90l139 255q-30 -9 -65 -9q-67 0 -120 31t-82.5 84t-29.5 117t29.5 116.5t82.5 83.5t120 31t120 -31t82.5 -83.5t29.5 -116.5v-1v0v-1zM144.5 401.5q19.5 -35.5 54 -56t78.5 -20.5q43 0 78 20.5
t54.5 56t19.5 76.5t-19.5 76.5t-54.5 56t-78 20.5t-78 -20.5t-54.5 -56t-19.5 -76.5t19.5 -76.5z" />
    <glyph glyph-name="zero.osf" horiz-adv-x="495" 
d="M94 63q-49 76 -49 184q0 64 20.5 123.5t66 99t116.5 39.5q70 0 115.5 -39.5t66 -99t20.5 -123.5q0 -68 -20.5 -127t-65.5 -96t-116 -37q-105 0 -154 76zM342.5 123q28.5 57 28.5 124q0 68 -28.5 125.5t-94.5 57.5q-67 0 -95.5 -57.5t-28.5 -125.5q0 -67 28.5 -124
t95.5 -57q66 0 94.5 57z" />
    <glyph glyph-name="one.osf" horiz-adv-x="304" 
d="M226 510v-510h-80v394l-85 -41l-30 64l185 93h10z" />
    <glyph glyph-name="two.osf" horiz-adv-x="541" 
d="M94 57l151 118l17 13q62 47 90 77t28 69q0 42 -29.5 69t-75.5 27q-49 0 -82.5 -34.5t-34.5 -93.5l-80 13q3 54 28 98t69 70t100 26q57 0 99.5 -24t65.5 -63.5t23 -86.5q0 -43 -22.5 -79t-50.5 -60t-79 -61l-77 -57h237v-78h-377v57z" />
    <glyph glyph-name="three.osf" horiz-adv-x="514" 
d="M366.5 254.5q48.5 -28.5 75.5 -76.5t27 -104t-27 -105.5t-77 -80t-114 -30.5q-84 0 -141.5 48t-78.5 121l73 34q15 -56 53 -90t94 -34q39 0 70.5 18.5t49.5 50t18 68.5q0 58 -40 96t-99 38q-33 0 -56 -7.5t-47 -22.5l-42 50l201 193h-241v79h356v-68l-164 -149
q61 0 109.5 -28.5z" />
    <glyph glyph-name="four.osf" horiz-adv-x="472" 
d="M457 0h-80v-128h-79v128h-290v52l293 459h76v-435h80v-76zM298 76v304l-186 -304h186z" />
    <glyph glyph-name="five.osf" horiz-adv-x="514" 
d="M365 258q50 -29 77 -78t27 -106q0 -56 -27 -105.5t-77 -80t-114 -30.5q-85 0 -142 48t-78 121l73 34q15 -56 52.5 -90.5t94.5 -34.5q39 0 70.5 19t49.5 50.5t18 68.5q0 58 -41.5 97t-102.5 39q-42 0 -71.5 -11.5t-60.5 -33.5l-40 10l72 325h275v-77h-217l-34 -151
q42 15 82 15q64 0 114 -29z" />
    <glyph glyph-name="six.osf" horiz-adv-x="527" 
d="M379 386.5q50 -29.5 76.5 -78.5t26.5 -106q0 -59 -26.5 -108t-76.5 -78t-116 -29t-115.5 29t-76 78t-26.5 108v1q0 58 22 108.5t61 116.5l120 196h91l-140 -220q30 12 64 12q66 0 116 -29.5zM362.5 104q39.5 39 39.5 98q0 37 -18 68.5t-49.5 50t-71.5 18.5
q-39 0 -70.5 -18.5t-49.5 -50t-18 -68.5q0 -59 39 -98t99 -39t99.5 39z" />
    <glyph glyph-name="seven.osf" horiz-adv-x="436" 
d="M428 490l-207 -618h-85l194 551h-299v77h397v-10z" />
    <glyph glyph-name="eight.osf" horiz-adv-x="500" 
d="M429 275.5q26 -42.5 26 -92.5q0 -54 -26.5 -98.5t-73 -71t-105.5 -26.5t-105.5 26.5t-73 71t-26.5 98.5q0 51 26 93.5t72 67.5q-31 21 -48.5 53.5t-17.5 70.5q0 43 22.5 80t62 59.5t89.5 22.5q49 0 88.5 -22.5t62 -59.5t22.5 -80q0 -38 -17.5 -70.5t-48.5 -54.5
q45 -25 71 -67.5zM181 525.5q-27 -26.5 -27 -63.5q0 -38 27 -64.5t69 -26.5q43 0 69.5 26.5t26.5 64.5q0 37 -27 63.5t-69 26.5t-69 -26.5zM339 100q35 35 35 84q0 31 -15.5 58t-44 43.5t-64.5 16.5q-35 0 -63.5 -16.5t-44.5 -43.5t-16 -58q0 -49 35 -84t89 -35t89 35z" />
    <glyph glyph-name="nine.osf" horiz-adv-x="527" 
d="M482 293q0 -58 -22 -108.5t-61 -116.5l-120 -196h-91l140 220q-30 -12 -64 -12q-66 0 -116 29.5t-76.5 78.5t-26.5 106q0 59 26.5 108t76.5 78t116 29t115.5 -29t76 -78t26.5 -108v-1zM143 225.5q18 -31.5 49.5 -50t71.5 -18.5q39 0 70.5 18.5t49.5 50t18 68.5
q0 59 -39 98t-99 39t-99.5 -39t-39.5 -98q0 -37 18 -68.5z" />
    <glyph glyph-name="zero.tf" 
d="M105 90q-54 100 -54 260q0 159 54 259.5t170 100.5q115 0 169.5 -100.5t54.5 -259.5t-54.5 -259.5t-169.5 -100.5q-116 0 -170 100zM386.5 149.5q33.5 80.5 33.5 200.5q0 119 -33.5 200t-111.5 81t-111.5 -81t-33.5 -200q0 -120 33.5 -200.5t111.5 -80.5t111.5 80.5z" />
    <glyph glyph-name="one.tf" 
d="M455 78v-78h-348v78h132v497l-98 -62l-37 65l204 132h10v-632h137z" />
    <glyph glyph-name="two.tf" 
d="M78 11q114 140 228 285q38 47 57.5 74t33.5 61t14 70q0 33 -16.5 63.5t-47 50t-70.5 19.5q-62 0 -101.5 -43t-45.5 -110l-75 22q5 56 33 104t76.5 76.5t112.5 28.5q63 0 112 -29.5t76 -77t27 -101.5q0 -61 -27.5 -113.5t-80.5 -118.5l-157 -195h272v-77h-421v11z" />
    <glyph glyph-name="three.tf" 
d="M410 413q50 -31 77.5 -81.5t27.5 -109.5q0 -61 -29.5 -114t-83 -85.5t-122.5 -32.5q-90 0 -150.5 50t-81.5 126l75 32q14 -56 56 -92.5t101 -36.5q44 0 79 20.5t55 55.5t20 77q0 43 -20 77.5t-56 54.5t-80 20q-49 0 -98 -28l-37 40l207 235h-267v79h385v-58l-175 -195
q67 -3 117 -34z" />
    <glyph glyph-name="four.tf" 
d="M513 122h-75v-122h-79v122h-303v52l308 530h74v-505h75v-77zM359 199v359l-202 -359h202z" />
    <glyph glyph-name="five.tf" 
d="M397 422.5q53 -32.5 82.5 -86t29.5 -114.5q0 -62 -29 -115t-82 -85t-122 -32q-85 0 -147 49.5t-81 125.5l73 32q14 -56 56 -92t99 -36q44 0 78.5 20t54 55t19.5 78t-20 78.5t-55.5 56t-81.5 20.5q-45 0 -81 -20t-60 -54l-48 10l83 387h282v-78h-222l-37 -186q38 19 88 19
q68 0 121 -32.5z" />
    <glyph glyph-name="six.tf" 
d="M393 423q53 -31 82.5 -84t29.5 -117t-29.5 -116.5t-82.5 -83.5t-120 -31t-120 31t-82.5 83.5t-29.5 116.5v1v0v1q1 51 20 99t56 116q4 9 14 27l62 115l64 119h90l-139 -255q30 9 65 9q67 0 120 -31zM351 89.5q35 20.5 54.5 56t19.5 76.5t-19.5 76.5t-54 56t-78.5 20.5
q-43 0 -78 -20.5t-54.5 -56t-19.5 -76.5t19.5 -76.5t54.5 -56t78 -20.5t78 20.5z" />
    <glyph glyph-name="seven.tf" 
d="M498 690l-232 -690h-86l217 622h-319v78h420v-10z" />
    <glyph glyph-name="eight.tf" 
d="M471 312.5q29 -48.5 29 -104.5q0 -60 -28.5 -110t-80.5 -79t-118 -29t-118 29t-80.5 79t-28.5 110q0 57 28.5 106t78.5 77q-33 24 -51.5 60.5t-18.5 79.5q0 47 24.5 88t68 66t97.5 25t97.5 -25t68 -66t24.5 -88q0 -43 -18.5 -80t-52.5 -61q50 -29 79 -77.5zM194.5 452
q30.5 -31 78.5 -31t79 31t31 75t-30.5 74t-79.5 30q-48 0 -78.5 -30t-30.5 -74t30.5 -75zM349.5 86q33.5 19 52.5 51.5t19 70.5t-19 71t-52.5 52.5t-76.5 19.5q-42 0 -76 -19.5t-53 -52.5t-19 -71t19 -70.5t53 -51.5t76 -19q43 0 76.5 19z" />
    <glyph glyph-name="nine.tf" 
d="M514 476q-1 -51 -20 -99t-56 -116q-4 -9 -14 -27l-62 -115l-64 -119h-90l139 255q-30 -9 -65 -9q-67 0 -120 31t-82.5 84t-29.5 117t29.5 116.5t82.5 83.5t120 31t120 -31t82.5 -83.5t29.5 -116.5v-1v0v-1zM149.5 401.5q19.5 -35.5 54 -56t78.5 -20.5q43 0 78 20.5
t54.5 56t19.5 76.5t-19.5 76.5t-54.5 56t-78 20.5t-78 -20.5t-54.5 -56t-19.5 -76.5t19.5 -76.5z" />
    <glyph glyph-name="zero.tosf" 
d="M119 63q-49 76 -49 184q0 64 20.5 123.5t66 99t116.5 39.5q70 0 115.5 -39.5t66 -99t20.5 -123.5q0 -68 -20.5 -127t-65.5 -96t-116 -37q-105 0 -154 76zM367.5 123q28.5 57 28.5 124q0 68 -28.5 125.5t-94.5 57.5q-67 0 -95.5 -57.5t-28.5 -125.5q0 -67 28.5 -124
t95.5 -57q66 0 94.5 57z" />
    <glyph glyph-name="one.tosf" 
d="M437 78v-78h-320v78h121v316l-85 -41l-30 64l185 93h10v-432h119z" />
    <glyph glyph-name="two.tosf" 
d="M128 57l151 118l17 13q62 47 90 77t28 69q0 42 -29.5 69t-75.5 27q-49 0 -82.5 -34.5t-34.5 -93.5l-80 13q3 54 28 98t69 70t100 26q57 0 99.5 -24t65.5 -63.5t23 -86.5q0 -43 -22.5 -79t-50.5 -60t-79 -61l-77 -57h237v-78h-377v57z" />
    <glyph glyph-name="three.tosf" 
d="M389.5 254.5q48.5 -28.5 75.5 -76.5t27 -104t-27 -105.5t-77 -80t-114 -30.5q-84 0 -141.5 48t-78.5 121l73 34q15 -56 53 -90t94 -34q39 0 70.5 18.5t49.5 50t18 68.5q0 58 -40 96t-99 38q-33 0 -56 -7.5t-47 -22.5l-42 50l201 193h-241v79h356v-68l-164 -149
q61 0 109.5 -28.5z" />
    <glyph glyph-name="four.tosf" 
d="M497 0h-80v-128h-79v128h-290v52l293 459h76v-435h80v-76zM338 76v304l-186 -304h186z" />
    <glyph glyph-name="five.tosf" 
d="M389 258q50 -29 77 -78t27 -106q0 -56 -27 -105.5t-77 -80t-114 -30.5q-85 0 -142 48t-78 121l73 34q15 -56 52.5 -90.5t94.5 -34.5q39 0 70.5 19t49.5 50.5t18 68.5q0 58 -41.5 97t-102.5 39q-42 0 -71.5 -11.5t-60.5 -33.5l-40 10l72 325h275v-77h-217l-34 -151
q42 15 82 15q64 0 114 -29z" />
    <glyph glyph-name="six.tosf" 
d="M388 386.5q50 -29.5 76.5 -78.5t26.5 -106q0 -59 -26.5 -108t-76.5 -78t-116 -29t-115.5 29t-76 78t-26.5 108v1q0 58 22 108.5t61 116.5l120 196h91l-140 -220q30 12 64 12q66 0 116 -29.5zM371.5 104q39.5 39 39.5 98q0 37 -18 68.5t-49.5 50t-71.5 18.5
q-39 0 -70.5 -18.5t-49.5 -50t-18 -68.5q0 -59 39 -98t99 -39t99.5 39z" />
    <glyph glyph-name="seven.tosf" 
d="M474 490l-207 -618h-85l194 551h-299v77h397v-10z" />
    <glyph glyph-name="eight.tosf" 
d="M452 275.5q26 -42.5 26 -92.5q0 -54 -26.5 -98.5t-73 -71t-105.5 -26.5t-105.5 26.5t-73 71t-26.5 98.5q0 51 26 93.5t72 67.5q-31 21 -48.5 53.5t-17.5 70.5q0 43 22.5 80t62 59.5t89.5 22.5q49 0 88.5 -22.5t62 -59.5t22.5 -80q0 -38 -17.5 -70.5t-48.5 -54.5
q45 -25 71 -67.5zM204 525.5q-27 -26.5 -27 -63.5q0 -38 27 -64.5t69 -26.5q43 0 69.5 26.5t26.5 64.5q0 37 -27 63.5t-69 26.5t-69 -26.5zM362 100q35 35 35 84q0 31 -15.5 58t-44 43.5t-64.5 16.5q-35 0 -63.5 -16.5t-44.5 -43.5t-16 -58q0 -49 35 -84t89 -35t89 35z" />
    <glyph glyph-name="nine.tosf" 
d="M491 293q0 -58 -22 -108.5t-61 -116.5l-120 -196h-91l140 220q-30 -12 -64 -12q-66 0 -116 29.5t-76.5 78.5t-26.5 106q0 59 26.5 108t76.5 78t116 29t115.5 -29t76 -78t26.5 -108v-1zM152 225.5q18 -31.5 49.5 -50t71.5 -18.5q39 0 70.5 18.5t49.5 50t18 68.5
q0 59 -39 98t-99 39t-99.5 -39t-39.5 -98q0 -37 18 -68.5z" />
    <glyph glyph-name="zero.subs" horiz-adv-x="280" 
d="M52.5 -80.5q-28.5 46.5 -28.5 120.5q0 76 28 122.5t88 46.5q59 0 87.5 -47t28.5 -122q0 -73 -28.5 -120t-87.5 -47t-87.5 46.5zM181 -35.5q13 30.5 13 76.5q0 47 -12.5 77t-41.5 30t-41.5 -30t-12.5 -77q0 -46 13 -76.5t41 -30.5t41 30.5z" />
    <glyph glyph-name="one.subs" horiz-adv-x="195" 
d="M148 205v-325h-60v228l-40 -20l-24 52l114 65h10z" />
    <glyph glyph-name="two.subs" horiz-adv-x="256" 
d="M28 -110q30 43 99 137q4 5 15 20.5t17 28.5t6 25q0 16 -10.5 28.5t-29.5 12.5t-31.5 -13.5t-16.5 -35.5l-58 24q6 38 35 65t72 27q47 0 75.5 -29t28.5 -69q0 -29 -12 -52.5t-26 -42.5t-18 -25l-38 -52h96v-59h-204v10z" />
    <glyph glyph-name="three.subs" horiz-adv-x="266" 
d="M219.5 46.5q22.5 -28.5 22.5 -66.5q0 -43 -31 -74.5t-82 -31.5q-41 0 -70.5 22t-39.5 58l59 22q5 -18 19 -30t33 -12q22 0 36.5 14t14.5 35t-14.5 35.5t-36.5 14.5q-15 0 -31 -7l-34 32l80 85h-112v59h190v-51l-64 -68q38 -8 60.5 -36.5z" />
    <glyph glyph-name="four.subs" horiz-adv-x="254" 
d="M235 -84h-32v-41h-60v41h-136v35l134 253h62v-228h32v-60zM143 -24v121l-60 -121h60z" />
    <glyph glyph-name="five.subs" horiz-adv-x="264" 
d="M209 55q31 -31 31 -75q0 -43 -30.5 -74.5t-80.5 -31.5q-41 0 -70.5 22t-39.5 58l58 21q5 -18 19.5 -29.5t32.5 -11.5q22 0 36 14t14 34q0 21 -15 35.5t-39 14.5q-30 0 -56 -22l-35 10l40 182h142v-59h-98l-14 -60q11 3 24 3q50 0 81 -31z" />
    <glyph glyph-name="six.subs" horiz-adv-x="262" 
d="M211.5 58q31.5 -31 31.5 -75q0 -45 -31.5 -77t-80.5 -32q-48 0 -80 32.5t-32 77.5q0 23 8 45.5t24 53.5q14 30 37 70l26 49h68l-63 -114q4 1 13 1q48 0 79.5 -31zM166.5 -52q14.5 15 14.5 35q0 21 -14 35.5t-36 14.5q-21 0 -35 -14.5t-14 -35.5q0 -20 14 -35t35 -15
t35.5 15z" />
    <glyph glyph-name="seven.subs" horiz-adv-x="227" 
d="M220 192l-94 -312h-67l88 263h-133v59h206v-10z" />
    <glyph glyph-name="eight.subs" horiz-adv-x="271" 
d="M234 22q13 -21 13 -47q0 -44 -32 -72.5t-80 -28.5q-47 0 -79 28.5t-32 72.5q0 26 13 47t35 34q-30 27 -30 65q0 36 27.5 61.5t65.5 25.5q39 0 67 -25.5t28 -61.5q0 -41 -32 -65q23 -13 36 -34zM108 138q-11 -11 -11 -26q0 -16 11 -27.5t27 -11.5q17 0 28 11.5t11 27.5
q0 15 -11 26t-28 11q-16 0 -27 -11zM169.5 -53q13.5 14 13.5 34q0 19 -13.5 33.5t-34.5 14.5q-20 0 -34 -14.5t-14 -33.5q0 -20 13.5 -34t34.5 -14t34.5 14z" />
    <glyph glyph-name="nine.subs" horiz-adv-x="262" 
d="M211 175.5q32 -32.5 32 -77.5q0 -23 -8 -45.5t-24 -53.5q-14 -29 -37 -70l-26 -49h-68l63 114q-4 -1 -13 -1q-48 0 -79.5 31t-31.5 75q0 45 31.5 77t80.5 32q48 0 80 -32.5zM95 63.5q14 -14.5 36 -14.5q21 0 35 14.5t14 35.5q0 20 -14 35t-35 15t-35.5 -15t-14.5 -35
q0 -21 14 -35.5z" />
    <glyph glyph-name="zero.dnom" horiz-adv-x="280" 
d="M52.5 39.5q-28.5 46.5 -28.5 120.5q0 76 28 122.5t88 46.5q59 0 87.5 -47t28.5 -122q0 -73 -28.5 -120t-87.5 -47t-87.5 46.5zM181 84.5q13 30.5 13 76.5q0 47 -12.5 77t-41.5 30t-41.5 -30t-12.5 -77q0 -46 13 -76.5t41 -30.5t41 30.5z" />
    <glyph glyph-name="one.dnom" horiz-adv-x="195" 
d="M148 325v-325h-60v228l-40 -20l-24 52l114 65h10z" />
    <glyph glyph-name="two.dnom" horiz-adv-x="256" 
d="M28 10q30 43 99 137q4 5 15 20.5t17 28.5t6 25q0 16 -10.5 28.5t-29.5 12.5t-31.5 -13.5t-16.5 -35.5l-58 24q6 38 35 65t72 27q47 0 75.5 -29t28.5 -69q0 -29 -12 -52.5t-26 -42.5t-18 -25l-38 -52h96v-59h-204v10z" />
    <glyph glyph-name="three.dnom" horiz-adv-x="266" 
d="M219.5 166.5q22.5 -28.5 22.5 -66.5q0 -43 -31 -74.5t-82 -31.5q-41 0 -70.5 22t-39.5 58l59 22q5 -18 19 -30t33 -12q22 0 36.5 14t14.5 35t-14.5 35.5t-36.5 14.5q-15 0 -31 -7l-34 32l80 85h-112v59h190v-51l-64 -68q38 -8 60.5 -36.5z" />
    <glyph glyph-name="four.dnom" horiz-adv-x="254" 
d="M235 41h-32v-41h-60v41h-136v35l134 253h62v-228h32v-60zM143 101v121l-60 -121h60z" />
    <glyph glyph-name="five.dnom" horiz-adv-x="264" 
d="M209 175q31 -31 31 -75q0 -43 -30.5 -74.5t-80.5 -31.5q-41 0 -70.5 22t-39.5 58l58 21q5 -18 19.5 -29.5t32.5 -11.5q22 0 36 14t14 34q0 21 -15 35.5t-39 14.5q-30 0 -56 -22l-35 10l40 182h142v-59h-98l-14 -60q11 3 24 3q50 0 81 -31z" />
    <glyph glyph-name="six.dnom" horiz-adv-x="262" 
d="M211.5 178q31.5 -31 31.5 -75q0 -45 -31.5 -77t-80.5 -32q-48 0 -80 32.5t-32 77.5q0 23 8 45.5t24 53.5q14 30 37 70l26 49h68l-63 -114q4 1 13 1q48 0 79.5 -31zM166.5 68q14.5 15 14.5 35q0 21 -14 35.5t-36 14.5q-21 0 -35 -14.5t-14 -35.5q0 -20 14 -35t35 -15
t35.5 15z" />
    <glyph glyph-name="seven.dnom" horiz-adv-x="227" 
d="M220 312l-94 -312h-67l88 263h-133v59h206v-10z" />
    <glyph glyph-name="eight.dnom" horiz-adv-x="271" 
d="M234 142q13 -21 13 -47q0 -44 -32 -72.5t-80 -28.5q-47 0 -79 28.5t-32 72.5q0 26 13 47t35 34q-30 27 -30 65q0 36 27.5 61.5t65.5 25.5q39 0 67 -25.5t28 -61.5q0 -41 -32 -65q23 -13 36 -34zM108 258q-11 -11 -11 -26q0 -16 11 -27.5t27 -11.5q17 0 28 11.5t11 27.5
q0 15 -11 26t-28 11q-16 0 -27 -11zM169.5 67q13.5 14 13.5 34q0 19 -13.5 33.5t-34.5 14.5q-20 0 -34 -14.5t-14 -33.5q0 -20 13.5 -34t34.5 -14t34.5 14z" />
    <glyph glyph-name="nine.dnom" horiz-adv-x="262" 
d="M211 295.5q32 -32.5 32 -77.5q0 -23 -8 -45.5t-24 -53.5q-14 -29 -37 -70l-26 -49h-68l63 114q-4 -1 -13 -1q-48 0 -79.5 31t-31.5 75q0 45 31.5 77t80.5 32q48 0 80 -32.5zM95 183.5q14 -14.5 36 -14.5q21 0 35 14.5t14 35.5q0 20 -14 35t-35 15t-35.5 -15t-14.5 -35
q0 -21 14 -35.5z" />
    <glyph glyph-name="zero.numr" horiz-adv-x="280" 
d="M52.5 417.5q-28.5 46.5 -28.5 120.5q0 76 28 122.5t88 46.5q59 0 87.5 -47t28.5 -122q0 -73 -28.5 -120t-87.5 -47t-87.5 46.5zM181 462.5q13 30.5 13 76.5q0 47 -12.5 77t-41.5 30t-41.5 -30t-12.5 -77q0 -46 13 -76.5t41 -30.5t41 30.5z" />
    <glyph glyph-name="one.numr" horiz-adv-x="195" 
d="M148 703v-325h-60v228l-40 -20l-24 52l114 65h10z" />
    <glyph glyph-name="two.numr" horiz-adv-x="256" 
d="M28 388q30 43 99 137q4 5 15 20.5t17 28.5t6 25q0 16 -10.5 28.5t-29.5 12.5t-31.5 -13.5t-16.5 -35.5l-58 24q6 38 35 65t72 27q47 0 75.5 -29t28.5 -69q0 -29 -12 -52.5t-26 -42.5t-18 -25l-38 -52h96v-59h-204v10z" />
    <glyph glyph-name="three.numr" horiz-adv-x="266" 
d="M219.5 544.5q22.5 -28.5 22.5 -66.5q0 -43 -31 -74.5t-82 -31.5q-41 0 -70.5 22t-39.5 58l59 22q5 -18 19 -30t33 -12q22 0 36.5 14t14.5 35t-14.5 35.5t-36.5 14.5q-15 0 -31 -7l-34 32l80 85h-112v59h190v-51l-64 -68q38 -8 60.5 -36.5z" />
    <glyph glyph-name="four.numr" horiz-adv-x="254" 
d="M235 419h-32v-41h-60v41h-136v35l134 253h62v-228h32v-60zM143 479v121l-60 -121h60z" />
    <glyph glyph-name="five.numr" horiz-adv-x="264" 
d="M209 553q31 -31 31 -75q0 -43 -30.5 -74.5t-80.5 -31.5q-41 0 -70.5 22t-39.5 58l58 21q5 -18 19.5 -29.5t32.5 -11.5q22 0 36 14t14 34q0 21 -15 35.5t-39 14.5q-30 0 -56 -22l-35 10l40 182h142v-59h-98l-14 -60q10 3 24 3q50 0 81 -31z" />
    <glyph glyph-name="six.numr" horiz-adv-x="262" 
d="M211.5 556q31.5 -31 31.5 -75q0 -45 -31.5 -77t-80.5 -32q-48 0 -80 32.5t-32 77.5q0 23 8 45.5t24 53.5q14 30 37 70l26 49h68l-63 -114q4 1 13 1q48 0 79.5 -31zM166.5 446q14.5 15 14.5 35q0 21 -14 35.5t-36 14.5q-21 0 -35 -14.5t-14 -35.5q0 -20 14 -35t35 -15
t35.5 15z" />
    <glyph glyph-name="seven.numr" horiz-adv-x="227" 
d="M220 690l-94 -312h-67l88 263h-133v59h206v-10z" />
    <glyph glyph-name="eight.numr" horiz-adv-x="271" 
d="M234 520q13 -21 13 -47q0 -44 -32 -72.5t-80 -28.5q-47 0 -79 28.5t-32 72.5q0 26 13 47t35 34q-30 27 -30 65q0 36 27.5 61.5t65.5 25.5q39 0 67 -25.5t28 -61.5q0 -41 -32 -65q23 -13 36 -34zM108 636q-11 -11 -11 -26q0 -16 11 -27.5t27 -11.5q17 0 28 11.5t11 27.5
q0 15 -11 26t-28 11q-16 0 -27 -11zM169.5 445q13.5 14 13.5 34q0 19 -13.5 33.5t-34.5 14.5q-20 0 -34 -14.5t-14 -33.5q0 -20 13.5 -34t34.5 -14t34.5 14z" />
    <glyph glyph-name="nine.numr" horiz-adv-x="262" 
d="M211 673.5q32 -32.5 32 -77.5q0 -23 -8 -45.5t-24 -53.5q-14 -29 -37 -70l-26 -49h-68l63 114q-4 -1 -13 -1q-48 0 -79.5 31t-31.5 75q0 45 31.5 77t80.5 32q48 0 80 -32.5zM95 561.5q14 -14.5 36 -14.5q21 0 35 14.5t14 35.5q0 20 -14 35t-35 15t-35.5 -15t-14.5 -35
q0 -21 14 -35.5z" />
    <glyph glyph-name="zero.sups" horiz-adv-x="280" 
d="M52.5 539.5q-28.5 46.5 -28.5 120.5q0 76 28 122.5t88 46.5q59 0 87.5 -47t28.5 -122q0 -73 -28.5 -120t-87.5 -47t-87.5 46.5zM181 584.5q13 30.5 13 76.5q0 47 -12.5 77t-41.5 30t-41.5 -30t-12.5 -77q0 -46 13 -76.5t41 -30.5t41 30.5z" />
    <glyph glyph-name="one.sups" horiz-adv-x="195" 
d="M148 825v-325h-60v228l-40 -20l-24 52l114 65h10z" />
    <glyph glyph-name="two.sups" horiz-adv-x="256" 
d="M28 510q30 43 99 137q4 5 15 20.5t17 28.5t6 25q0 16 -10.5 28.5t-29.5 12.5t-31.5 -13.5t-16.5 -35.5l-58 24q6 38 35 65t72 27q47 0 75.5 -29t28.5 -69q0 -29 -12 -52.5t-26 -42.5t-18 -25l-38 -52h96v-59h-204v10z" />
    <glyph glyph-name="three.sups" horiz-adv-x="266" 
d="M219.5 666.5q22.5 -28.5 22.5 -66.5q0 -43 -31 -74.5t-82 -31.5q-41 0 -70.5 22t-39.5 58l59 22q5 -18 19 -30t33 -12q22 0 36.5 14t14.5 35t-14.5 35.5t-36.5 14.5q-15 0 -31 -7l-34 32l80 85h-112v59h190v-51l-64 -68q38 -8 60.5 -36.5z" />
    <glyph glyph-name="four.sups" horiz-adv-x="254" 
d="M235 541h-32v-41h-60v41h-136v35l134 253h62v-228h32v-60zM143 601v121l-60 -121h60z" />
    <glyph glyph-name="five.sups" horiz-adv-x="264" 
d="M209 675q31 -31 31 -75q0 -43 -30.5 -74.5t-80.5 -31.5q-41 0 -70.5 22t-39.5 58l58 21q5 -18 19.5 -29.5t32.5 -11.5q22 0 36 14t14 34q0 21 -15 35.5t-39 14.5q-30 0 -56 -22l-35 10l40 182h142v-59h-98l-14 -60q11 3 24 3q50 0 81 -31z" />
    <glyph glyph-name="six.sups" horiz-adv-x="262" 
d="M211.5 678q31.5 -31 31.5 -75q0 -45 -31.5 -77t-80.5 -32q-48 0 -80 32.5t-32 77.5q0 23 8 45.5t24 53.5q14 30 37 70l26 49h68l-63 -114q4 1 13 1q48 0 79.5 -31zM166.5 568q14.5 15 14.5 35q0 21 -14 35.5t-36 14.5q-21 0 -35 -14.5t-14 -35.5q0 -20 14 -35t35 -15
t35.5 15z" />
    <glyph glyph-name="seven.sups" horiz-adv-x="227" 
d="M220 812l-94 -312h-67l88 263h-133v59h206v-10z" />
    <glyph glyph-name="eight.sups" horiz-adv-x="271" 
d="M234 642q13 -21 13 -47q0 -44 -32 -72.5t-80 -28.5q-47 0 -79 28.5t-32 72.5q0 26 13 47t35 34q-30 27 -30 65q0 36 27.5 61.5t65.5 25.5q39 0 67 -25.5t28 -61.5q0 -41 -32 -65q23 -13 36 -34zM108 758q-11 -11 -11 -26q0 -16 11 -27.5t27 -11.5q17 0 28 11.5t11 27.5
q0 15 -11 26t-28 11q-16 0 -27 -11zM169.5 567q13.5 14 13.5 34q0 19 -13.5 33.5t-34.5 14.5q-20 0 -34 -14.5t-14 -33.5q0 -20 13.5 -34t34.5 -14t34.5 14z" />
    <glyph glyph-name="nine.sups" horiz-adv-x="262" 
d="M211 795.5q32 -32.5 32 -77.5q0 -23 -8 -45.5t-24 -53.5q-14 -29 -37 -70l-26 -49h-68l63 114q-4 -1 -13 -1q-48 0 -79.5 31t-31.5 75q0 45 31.5 77t80.5 32q48 0 80 -32.5zM95 683.5q14 -14.5 36 -14.5q21 0 35 14.5t14 35.5q0 20 -14 35t-35 15t-35.5 -15t-14.5 -35
q0 -21 14 -35.5z" />
    <glyph glyph-name="space.tf" 
 />
    <glyph glyph-name="cent.tf" 
d="M227 504q-41 -24 -63.5 -65t-22.5 -90t22.5 -90t63.5 -65t94 -24q48 0 88 19t67 50v-94q-59 -48 -138 -53v-92h-71v95q-62 11 -109 47.5t-72.5 90.5t-25.5 116t25.5 116t72.5 90.5t109 47.5v97h71v-94q79 -5 138 -53v-94q-27 31 -67 50t-88 19q-53 0 -94 -24z" />
    <glyph glyph-name="currency.tf" 
d="M484 198l58 -58l-50 -50l-58 58q-65 -51 -154 -51q-91 0 -158 53l-60 -60l-50 50l62 62q-48 67 -48 153t48 153l-62 62l50 50l60 -60q67 53 158 53q88 0 155 -51l57 58l50 -50l-58 -59q24 -32 37 -72.5t13 -83.5q0 -88 -50 -157zM369.5 200.5q39.5 24.5 61.5 66t22 89.5
t-22 89t-61 65t-90 24q-50 0 -89.5 -24t-61.5 -65t-22 -89t22 -89.5t61.5 -66t89.5 -24.5t89.5 24.5z" />
    <glyph glyph-name="dollar.tf" 
d="M181.5 473.5q18.5 -24.5 46.5 -41t77 -38.5q62 -29 99 -52.5t63.5 -63.5t26.5 -99q0 -71 -46.5 -123t-126.5 -63v-61h-71v60q-58 7 -107 40t-80 79l59 55q30 -45 73.5 -71.5t90.5 -26.5q56 0 91.5 31t35.5 78q0 40 -20 67.5t-50 45.5t-81 41q-58 27 -94 49.5t-61 60
t-25 92.5q0 68 47 117t121 58v63h71v-65q47 -8 86.5 -33.5t68.5 -60.5l-52 -54q-28 32 -65.5 53.5t-78.5 21.5q-51 -1 -84 -29.5t-33 -71.5q0 -34 18.5 -58.5z" />
    <glyph glyph-name="Euro.tf" 
d="M279.5 581.5q-53.5 -52.5 -75.5 -136.5h226v-66h-236q-1 -10 -1 -29q0 -17 1 -26h236v-66h-226q20 -85 74 -138.5t128 -53.5t136 45v-86q-60 -37 -134 -37q-113 0 -189.5 75t-99.5 195h-76v66h69q-1 9 -1 26q0 19 1 29h-69v66h77q23 119 99.5 193t188.5 74q74 0 134 -37
v-86q-62 45 -136 45q-73 0 -126.5 -52.5z" />
    <glyph glyph-name="florin.tf" 
d="M424 632q-37 0 -59 -22t-26 -66l-11 -103h124v-76h-132q-11 -122 -24 -235q-7 -69 -49 -104.5t-104 -35.5q-38 0 -80 14v77q39 -14 68 -14q38 0 60.5 22.5t26.5 66.5l21 209h-123v76h131l14 129q7 68 48 103.5t103 35.5q37 0 81 -14v-77q-36 14 -69 14z" />
    <glyph glyph-name="sterling.tf" 
d="M204 77h288v-77h-412v12q36 49 54 76.5t31.5 61t13.5 68.5v7h-105v68h91q-10 25 -32 64q-24 41 -36.5 73.5t-12.5 76.5q0 53 25 100t72.5 76t111.5 29q60 0 106.5 -27t73.5 -73t34 -101l-74 -21q-8 65 -46 104.5t-94 39.5q-39 0 -67.5 -18.5t-43.5 -47.5t-15 -61
q0 -36 11 -66t32 -68l15.5 -31t19.5 -49h165v-68h-156q-3 -73 -50 -148z" />
    <glyph glyph-name="yen.tf" 
d="M346 299h136v-65h-164v-56h164v-65h-164v-113h-80v113h-143v65h143v56h-143v65h115l-214 401h91l191 -372l191 372h90z" />
    <glyph glyph-name="caroncomb.alt" horiz-adv-x="0" 
d="M-101 532l27 196l74 -10l-48 -193z" />
    </font>
</defs>
</svg>
