<?xml version="1.0" standalone="no"?>
<!DOCTYPE svg PUBLIC "-//W3C//DTD SVG 1.1//EN" "http://www.w3.org/Graphics/SVG/1.1/DTD/svg11.dtd" >
<svg xmlns="http://www.w3.org/2000/svg" xmlns:xlink="http://www.w3.org/1999/xlink" version="1.1">
<metadata>
Created by FontForge 20170731 at Thu Jun 23 15:37:39 2016
 By Aleksey,,,
Copyright (c) 2016 by Jonathan Ball. All rights reserved.
</metadata>
<defs>
<font id="Acre-Thin" horiz-adv-x="530" >
  <font-face 
    font-family="Acre-Thin"
    font-weight="400"
    font-stretch="normal"
    units-per-em="1000"
    panose-1="0 0 3 0 0 0 0 0 0 0"
    ascent="796"
    descent="-204"
    x-height="500"
    cap-height="700"
    bbox="-600 -210 1108 1010"
    underline-thickness="50"
    underline-position="-150"
    unicode-range="U+0020-FB02"
  />
<missing-glyph horiz-adv-x="500" 
d="M410 -200h-317v1000h317v-1000zM168 733v-33h65v-37h-66v-33h166v33h-66v37h66v33h-165zM167 604v-104h166v34h-66v70h-100zM233 534h-33v36h33v-36zM167 473v-33h66v-37h-66v-33h100v70h66v33h-166zM300 413v-66h-133v-34h166v100h-33zM233 291v-56h34v23h33v-47h-100
v80h-33v-113h166v113h-100zM167 118v-113h166v113h-166zM300 38h-100v47h100v-47zM167 -18v-33h70l-70 -47v-33h166v33h-102l70 47h32v33h-166z" />
    <glyph glyph-name="fi" unicode="fi" horiz-adv-x="452" 
d="M354 0h-40v461h-176v-461h-40v461h-63v39h63v220q0 40 25 63.5t60 23.5q32 0 59 -20v-43q-16 11 -27.5 17t-28.5 6q-20 0 -34 -14t-14 -38v-215h216v-500zM355.5 655.5q8.5 -8.5 8.5 -21.5t-8.5 -21.5t-21.5 -8.5t-21.5 8.5t-8.5 21.5t8.5 21.5t21.5 8.5t21.5 -8.5z" />
    <glyph glyph-name="fl" unicode="fl" horiz-adv-x="476" 
d="M152 753q-14 -14 -14 -38v-215h104v-39h-104v-461h-40v461h-63v39h63v220q0 40 25 63.5t60 23.5q32 0 59 -20v-43q-16 11 -27.5 17t-28.5 6q-20 0 -34 -14zM348 800h40v-800h-40v800z" />
    <glyph glyph-name=".notdef" horiz-adv-x="500" 
d="M410 -200h-317v1000h317v-1000zM168 733v-33h65v-37h-66v-33h166v33h-66v37h66v33h-165zM167 604v-104h166v34h-66v70h-100zM233 534h-33v36h33v-36zM167 473v-33h66v-37h-66v-33h100v70h66v33h-166zM300 413v-66h-133v-34h166v100h-33zM233 291v-56h34v23h33v-47h-100
v80h-33v-113h166v113h-100zM167 118v-113h166v113h-166zM300 38h-100v47h100v-47zM167 -18v-33h70l-70 -47v-33h166v33h-102l70 47h32v33h-166z" />
    <glyph glyph-name=".null" horiz-adv-x="0" 
 />
    <glyph glyph-name="nonmarkingreturn" horiz-adv-x="333" 
 />
    <glyph glyph-name="space" unicode=" " horiz-adv-x="350" 
 />
    <glyph glyph-name="exclam" unicode="!" horiz-adv-x="198" 
d="M80 700h44l-8 -591h-28zM77.5 4.5q-8.5 8.5 -8.5 21.5t8.5 22t21.5 9t21.5 -9t8.5 -22t-8.5 -21.5t-21.5 -8.5t-21.5 8.5z" />
    <glyph glyph-name="quotedbl" unicode="&#x22;" horiz-adv-x="172" 
d="M23 700h42l-8 -250h-26zM107 700h42l-8 -250h-26z" />
    <glyph glyph-name="numbersign" unicode="#" horiz-adv-x="576" 
d="M412 460l-32 -206h137v-40h-143l-34 -214h-38l34 214h-142l-34 -214h-38l34 214h-97v40h103l32 206h-135v40h142l31 200h38l-31 -200h142l31 200h38l-31 -200h98v-40h-105zM374 460h-142l-32 -206h142z" />
    <glyph glyph-name="dollar" unicode="$" horiz-adv-x="497" 
d="M127 473q21 -29 51.5 -47t83.5 -43q60 -27 97 -50.5t63 -63t26 -98.5q0 -68 -45.5 -118.5t-123.5 -59.5v-61h-39v60q-59 4 -109 36.5t-82 79.5l30 27q33 -48 79 -76t96 -28q66 0 110.5 38.5t44.5 98.5q0 49 -23 82.5t-56.5 54t-89.5 46.5q-58 27 -92 48t-57.5 56
t-23.5 87q0 47 23 84t62.5 58t87.5 24v63h39v-65q82 -11 152 -89l-25 -28q-31 35 -71 57.5t-84 22.5q-62 0 -103.5 -36t-41.5 -90q0 -41 21 -70z" />
    <glyph glyph-name="percent" unicode="%" horiz-adv-x="627" 
d="M103 456.5q-31 18.5 -49.5 49.5t-18.5 67q0 37 18.5 68t49.5 49t67 18q57 0 96 -39t39 -96q0 -36 -18 -67t-49 -49.5t-68 -18.5q-36 0 -67 18.5zM530 700h43l-473 -700h-43zM239.5 504.5q28.5 27.5 28.5 67.5q0 43 -28 71t-71 28q-40 0 -67.5 -28.5t-27.5 -70.5
q0 -40 27.5 -67.5t67.5 -27.5q42 0 70.5 27.5zM390 10.5q-31 18.5 -49.5 49.5t-18.5 67q0 37 18.5 68t49.5 49t67 18q57 0 96 -39t39 -96q0 -36 -18 -67t-49 -49.5t-68 -18.5q-36 0 -67 18.5zM526.5 58.5q28.5 27.5 28.5 67.5q0 43 -28 71t-71 28q-40 0 -67.5 -28.5
t-27.5 -70.5q0 -40 27.5 -67.5t67.5 -27.5q42 0 70.5 27.5z" />
    <glyph glyph-name="ampersand" unicode="&#x26;" horiz-adv-x="615" 
d="M556 0l-86 94q-34 -50 -84 -77t-113 -27q-55 0 -104 21.5t-79.5 63.5t-30.5 101q0 67 39 110.5t110 85.5q-48 48 -78 93.5t-30 90.5q0 41 19.5 77t56.5 58t88 22q49 0 86 -21t57.5 -57t20.5 -78q0 -45 -22 -79t-55 -58.5t-85 -54.5l7 -7l190 -205q35 78 35 195h36
q5 -127 -45 -223l117 -125h-50zM166 478.5q26 -37.5 75 -87.5q49 28 79 49t50 50.5t20 67.5q0 52 -34 85t-92 33q-53 0 -88.5 -33.5t-35.5 -85.5q0 -41 26 -78.5zM372.5 51q43.5 24 72.5 70q-85 93 -187 200l-25 25q-66 -40 -100.5 -77t-34.5 -92q0 -47 25.5 -81t65.5 -51.5
t84 -17.5q56 0 99.5 24z" />
    <glyph glyph-name="quotesingle" unicode="'" horiz-adv-x="88" 
d="M23 700h42l-8 -250h-26z" />
    <glyph glyph-name="parenleft" unicode="(" horiz-adv-x="229" 
d="M78 340q0 207 72 440h40q-36 -121 -54 -228t-18 -212t18 -212t54 -228h-40q-72 233 -72 440z" />
    <glyph glyph-name="parenright" unicode=")" horiz-adv-x="229" 
d="M39 -100q36 121 54 228t18 212t-18 212t-54 228h40q72 -233 72 -440t-72 -440h-40z" />
    <glyph glyph-name="asterisk" unicode="*" horiz-adv-x="262" 
d="M155 642l84 -39l-20 -35l-76 53l8 -92h-40l8 92l-76 -53l-20 35l84 39l-84 39l20 35l76 -53l-8 92h40l-8 -92l76 53l20 -35z" />
    <glyph glyph-name="plus" unicode="+" horiz-adv-x="478" 
d="M429 283h-171v-166h-40v166h-169v38h169v159h40v-159h171v-38z" />
    <glyph glyph-name="comma" unicode="," horiz-adv-x="131" 
d="M61 112h41l-43 -222h-30z" />
    <glyph glyph-name="hyphen" unicode="-" horiz-adv-x="422" 
d="M49 319h324v-38h-324v38z" />
    <glyph glyph-name="period" unicode="." horiz-adv-x="118" 
d="M37.5 4.5q-8.5 8.5 -8.5 21.5t8.5 22t21.5 9t21.5 -9t8.5 -22t-8.5 -21.5t-21.5 -8.5t-21.5 8.5z" />
    <glyph glyph-name="slash" unicode="/" horiz-adv-x="279" 
d="M0 -120l240 920h39l-240 -920h-39z" />
    <glyph glyph-name="zero" unicode="0" horiz-adv-x="536" 
d="M106 90.5q-53 100.5 -53 258.5t53 259t162 101q108 0 161.5 -101t53.5 -259t-53 -258.5t-162 -100.5t-162 100.5zM402 123q41 94 41 226t-41.5 226.5t-133.5 94.5t-133.5 -94.5t-41.5 -226.5t41 -226t134 -94t134 94z" />
    <glyph glyph-name="one" unicode="1" horiz-adv-x="294" 
d="M206 708v-708h-40v639l-110 -78l-21 32l161 115h10z" />
    <glyph glyph-name="two" unicode="2" horiz-adv-x="516" 
d="M76 10q145 174 233 283l13 16q51 63 76 106.5t25 96.5q0 38 -19.5 75t-56 61t-84.5 24q-73 0 -117.5 -46.5t-56.5 -119.5l-40 13q14 82 69.5 136.5t144.5 54.5q60 0 105.5 -28t70 -74t24.5 -96q0 -45 -17 -86t-39.5 -72.5t-63.5 -80.5l-192 -234h316v-39h-391v10z" />
    <glyph glyph-name="three" unicode="3" horiz-adv-x="549" 
d="M389 407q52 -31 80.5 -82t28.5 -110t-28.5 -110.5t-79.5 -83t-117 -31.5q-83 0 -143 47.5t-79 121.5l38 13q14 -63 65 -103t119 -40q54 0 96 25t65.5 67.5t23.5 93.5t-24 93.5t-66.5 67t-97.5 24.5q-54 0 -92 -22l-17 17l227 265h-303v40h367v-23l-212 -243q18 4 30 4
q67 0 119 -31z" />
    <glyph glyph-name="four" unicode="4" horiz-adv-x="466" 
d="M438 123h-77v-123h-40v123h-316v9l346 576h10v-545h77v-40zM321 163v424l-254 -424h254z" />
    <glyph glyph-name="five" unicode="5" horiz-adv-x="545" 
d="M386 406.5q51 -31.5 79.5 -83t28.5 -109.5q0 -59 -28 -110.5t-79.5 -82.5t-116.5 -31q-82 0 -141 48t-78 121l38 13q15 -63 64.5 -103t116.5 -40q54 0 96 24.5t65 67t23 93.5t-23 93.5t-65 67t-96 24.5t-96.5 -25.5t-67.5 -69.5l-24 7l79 389h269v-40h-239l-53 -268
q24 21 57.5 33.5t74.5 12.5q65 0 116 -31.5z" />
    <glyph glyph-name="six" unicode="6" horiz-adv-x="552" 
d="M391.5 410q51.5 -31 80.5 -83t29 -112q0 -61 -28.5 -111.5t-80 -80.5t-116.5 -30t-116.5 30t-80 80.5t-28.5 111.5v1q0 49 17.5 91t60.5 121q33 63 79 142l71 130h47l-162 -289q52 30 112 30q64 0 115.5 -31zM371 56q42 25 65.5 67.5t23.5 91.5q0 50 -23.5 92.5t-65.5 68
t-95 25.5t-95 -25.5t-65.5 -68t-23.5 -92.5q0 -49 24 -91.5t66 -67.5t94 -25q53 0 95 25z" />
    <glyph glyph-name="seven" unicode="7" horiz-adv-x="423" 
d="M418 690l-253 -690h-45l245 660h-350v40h403v-10z" />
    <glyph glyph-name="eight" unicode="8" horiz-adv-x="546" 
d="M456 313.5q37 -52.5 37 -117.5q0 -57 -28 -104.5t-78 -75t-114 -27.5t-114 27.5t-78 75t-28 104.5q0 66 36.5 118.5t99.5 75.5q-44 20 -69 60.5t-25 89.5q0 45 23 84.5t63.5 63t91.5 23.5t91.5 -23.5t63.5 -63t23 -84.5q0 -49 -25 -89.5t-69 -61.5q62 -23 99 -75.5z
M152 473q18 -31 49.5 -49.5t71.5 -18.5t72 18.5t49.5 49.5t17.5 67t-17.5 66t-49.5 48t-72 18t-71.5 -18t-49.5 -48t-18 -66t18 -67zM366 50.5q41 22.5 64 61t23 84.5t-23 86t-64 63.5t-93 23.5t-93 -23.5t-64 -63.5t-23 -86t23 -84.5t64 -61t93 -22.5t93 22.5z" />
    <glyph glyph-name="nine" unicode="9" horiz-adv-x="506" 
d="M501 484q0 -49 -17.5 -91t-60.5 -121q-33 -63 -79 -142l-71 -130h-47l162 289q-52 -30 -112 -30q-64 0 -115.5 31t-80.5 83t-29 112q0 61 28.5 111.5t80 80.5t116.5 30t116.5 -30t80 -80.5t28.5 -111.5v-1zM115.5 392.5q23.5 -42.5 65.5 -68t95 -25.5t95 25.5t65.5 68
t23.5 92.5q0 49 -24 91.5t-66 67.5t-94 25q-53 0 -95 -25t-65.5 -67.5t-23.5 -91.5q0 -50 23.5 -92.5z" />
    <glyph glyph-name="colon" unicode=":" horiz-adv-x="227" 
d="M96.5 4.5q-8.5 8.5 -8.5 21.5t8.5 22t21.5 9t21.5 -9t8.5 -22t-8.5 -21.5t-21.5 -8.5t-21.5 8.5zM96.5 452.5q-8.5 8.5 -8.5 21.5t8.5 22t21.5 9t21.5 -9t8.5 -22t-8.5 -21.5t-21.5 -8.5t-21.5 8.5z" />
    <glyph glyph-name="semicolon" unicode=";" horiz-adv-x="131" 
d="M61 112h41l-43 -222h-30zM37.5 452.5q-8.5 8.5 -8.5 21.5t8.5 22t21.5 9t21.5 -9t8.5 -22t-8.5 -21.5t-21.5 -8.5t-21.5 8.5z" />
    <glyph glyph-name="less" unicode="&#x3c;" horiz-adv-x="435" 
d="M386 486l-283 -195l283 -196v-44l-337 236v8l337 235v-44z" />
    <glyph glyph-name="equal" unicode="=" horiz-adv-x="478" 
d="M49 381h380v-38h-380v38zM49 263h380v-38h-380v38z" />
    <glyph glyph-name="greater" unicode="&#x3e;" horiz-adv-x="435" 
d="M386 295v-8l-337 -236v44l283 196l-283 195v44z" />
    <glyph glyph-name="question" unicode="?" horiz-adv-x="430" 
d="M200 339q82 14 128.5 60.5t46.5 116.5q0 35 -17.5 71t-53 60t-86.5 24q-65 0 -110 -43.5t-55 -116.5l-38 11q7 51 33 94t70 68.5t100 25.5q60 0 104.5 -28t68.5 -73t24 -93q0 -75 -48 -130.5t-128 -74.5l-4 -202h-28zM196.5 4.5q-8.5 8.5 -8.5 21.5t8.5 22t21.5 9
t21.5 -9t8.5 -22t-8.5 -21.5t-21.5 -8.5t-21.5 8.5z" />
    <glyph glyph-name="at" unicode="@" horiz-adv-x="922" 
d="M664.5 656.5q89.5 -53.5 139 -143t49.5 -195.5q0 -89 -36 -149.5t-98 -60.5q-45 0 -74 25.5t-38 73.5q-25 -43 -65.5 -68t-91.5 -25q-54 0 -97 27.5t-67 73.5t-24 100t24 100t67 73t97 27q49 0 88 -22.5t64 -62.5v70h40l-2 -234q-1 -61 20.5 -90.5t59.5 -29.5
q43 0 68 47.5t25 124.5q0 95 -45 176t-125.5 129t-181.5 48t-181.5 -48t-125.5 -129t-45 -176t45 -176t125.5 -129t181.5 -48q63 0 118.5 19.5t100.5 54.5v-51q-97 -62 -219 -62q-114 0 -203.5 53t-139 143t-49.5 196t49.5 195.5t139 143t203.5 53.5t203.5 -53.5zM528.5 175
q34.5 22 54 59t19.5 81t-19.5 81t-54 58.5t-77.5 21.5t-77 -21.5t-53 -58.5t-19 -81t19 -81t53.5 -59t76.5 -22q43 0 77.5 22z" />
    <glyph glyph-name="A" unicode="A" horiz-adv-x="620" 
d="M490 193h-360l-80 -193h-45l301 711h7l302 -711h-45zM473 232l-163 393l-163 -393h326z" />
    <glyph glyph-name="B" unicode="B" horiz-adv-x="559" 
d="M457.5 318q42.5 -51 42.5 -122q0 -54 -26.5 -99t-76.5 -71t-118 -26h-181v700h163q59 0 101.5 -23t64.5 -61.5t22 -84.5q0 -52 -27.5 -93t-75.5 -59q69 -10 111.5 -61zM138 661v-270h116q71 0 113 40t42 100q0 59 -40.5 94.5t-112.5 35.5h-118zM412 83q48 44 48 113
q0 70 -46 113.5t-131 43.5h-145v-314h145q81 0 129 44z" />
    <glyph glyph-name="C" unicode="C" horiz-adv-x="630" 
d="M239 39q-81 49 -125.5 131.5t-44.5 179.5t44.5 179.5t125.5 131.5t185 49q87 0 157 -34v-41q-37 20 -72.5 28.5t-84.5 8.5q-91 0 -162.5 -43.5t-112 -117.5t-40.5 -161t40.5 -161t112 -117.5t162.5 -43.5q49 0 84.5 8.5t72.5 28.5v-41q-70 -34 -157 -34q-104 0 -185 49z
" />
    <glyph glyph-name="D" unicode="D" horiz-adv-x="675" 
d="M442.5 653.5q79.5 -46.5 121.5 -125.5t42 -176t-42 -177.5t-121.5 -127.5t-187.5 -47h-157v700h157q108 0 187.5 -46.5zM423 82.5q70 43.5 106.5 115t36.5 154.5q0 87 -36.5 157.5t-106 111t-165.5 40.5h-120v-622h120q95 0 165 43.5z" />
    <glyph glyph-name="E" unicode="E" horiz-adv-x="517" 
d="M138 661v-281h257v-39h-257v-302h320v-39h-360v700h360v-39h-320z" />
    <glyph glyph-name="F" unicode="F" horiz-adv-x="448" 
d="M138 659v-313h212v-39h-212v-307h-40v700h340v-41h-300z" />
    <glyph glyph-name="G" unicode="G" horiz-adv-x="779" 
d="M701 352v-260q-47 -49 -117.5 -75.5t-155.5 -26.5q-105 0 -187 49t-127 131.5t-45 179.5t45 179.5t127 131.5t187 49q79 0 145 -27t114 -75l-27 -26q-91 89 -232 89q-90 0 -163 -42.5t-114.5 -116t-41.5 -162.5q0 -88 42 -162t115 -116.5t163 -42.5q68 0 128.5 19.5
t103.5 56.5v208h-221v39h261z" />
    <glyph glyph-name="H" unicode="H" horiz-adv-x="703" 
d="M605 700v-700h-40v336h-427v-336h-40v700h40v-325h427v325h40z" />
    <glyph glyph-name="I" unicode="I" horiz-adv-x="236" 
d="M98 700h40v-700h-40v700z" />
    <glyph glyph-name="J" unicode="J" horiz-adv-x="396" 
d="M80.5 8.5q-36.5 17.5 -65.5 49.5l28 29q24 -26 54 -41.5t62 -15.5q59 0 89 35t30 97v538h40v-548q0 -71 -42 -116t-119 -45q-40 0 -76.5 17.5z" />
    <glyph glyph-name="K" unicode="K" horiz-adv-x="535" 
d="M469 0l-331 323v-323h-40v700h40v-350l329 350h52l-342 -362l348 -338h-56z" />
    <glyph glyph-name="L" unicode="L" horiz-adv-x="441" 
d="M426 39v-39h-328v700h40v-661h288z" />
    <glyph glyph-name="M" unicode="M" horiz-adv-x="802" 
d="M741 0l-119 592l-216 -599h-10l-217 599l-118 -592h-41l146 708h11l224 -624l224 624h11l146 -708h-41z" />
    <glyph glyph-name="N" unicode="N" horiz-adv-x="741" 
d="M643 700v-711h-8l-497 622v-611h-40v714h8l497 -623v609h40z" />
    <glyph glyph-name="O" unicode="O" horiz-adv-x="858" 
d="M242 39q-82 49 -127.5 131.5t-45.5 179.5t45.5 179.5t127.5 131.5t187 49t187 -49t127.5 -131.5t45.5 -179.5t-45.5 -179.5t-127.5 -131.5t-187 -49t-187 49zM594 73q73 44 114 117.5t41 159.5t-41 159.5t-114 117.5t-165 44t-165 -44t-114 -117.5t-41 -159.5t41 -159.5
t114 -117.5t165 -44t165 44z" />
    <glyph glyph-name="P" unicode="P" horiz-adv-x="491" 
d="M359 670.5q55 -29.5 83.5 -78.5t28.5 -106q0 -62 -28.5 -110.5t-83 -76t-131.5 -27.5h-90v-272h-40v700h130q76 0 131 -29.5zM376.5 357.5q54.5 46.5 54.5 128.5q0 50 -24.5 89.5t-72 62.5t-114.5 23h-82v-350h82q102 0 156.5 46.5z" />
    <glyph glyph-name="Q" unicode="Q" horiz-adv-x="865" 
d="M762.5 211q-26.5 -66 -74.5 -115l86 -96h-51l-63 70q-46 -38 -104.5 -59t-126.5 -21q-105 0 -187 49t-127.5 131.5t-45.5 179.5t45.5 179.5t127.5 131.5t187 49t187 -49t127.5 -131.5t45.5 -179.5q0 -73 -26.5 -139zM539.5 47.5q51.5 18.5 93.5 52.5l-155 173h51
l132 -147q42 44 65 102.5t23 121.5q0 86 -41 159.5t-114 117.5t-165 44t-165 -44t-114 -117.5t-41 -159.5t41 -159.5t114 -117.5t165 -44q59 0 110.5 18.5z" />
    <glyph glyph-name="R" unicode="R" horiz-adv-x="526" 
d="M450 0l-181 293q-6 -1 -20 -1h-111v-292h-40v700h152q69 0 120.5 -26.5t79.5 -73t28 -104.5q0 -74 -45 -128t-124 -70l188 -298h-47zM254 331q81 0 132 46t51 119t-51 119t-132 46h-116v-330h116z" />
    <glyph glyph-name="S" unicode="S" horiz-adv-x="497" 
d="M136 25q-54 33 -87 83l30 27q33 -48 79 -76t96 -28q66 0 110.5 38.5t44.5 98.5q0 49 -23 82.5t-56.5 54t-89.5 46.5q-58 27 -92 48t-57.5 56t-23.5 87q0 49 24.5 86.5t66.5 58.5t93 21q99 0 180 -91l-25 -28q-31 35 -71 57.5t-84 22.5q-62 0 -103.5 -36t-41.5 -90
q0 -41 21 -70t51.5 -47t83.5 -43q60 -27 97 -50.5t63 -63t26 -98.5q0 -48 -23.5 -89t-68 -65.5t-104.5 -24.5q-62 0 -116 33z" />
    <glyph glyph-name="T" unicode="T" horiz-adv-x="458" 
d="M443 661h-193v-661h-40v661h-195v39h428v-39z" />
    <glyph glyph-name="U" unicode="U" horiz-adv-x="608" 
d="M186.5 19q-51.5 28 -80 78.5t-28.5 116.5v486h40v-477q0 -93 51.5 -143t134.5 -50t134.5 50t51.5 143v477h40v-486q0 -66 -28.5 -116.5t-79.5 -78.5t-118 -28q-66 0 -117.5 28z" />
    <glyph glyph-name="V" unicode="V" horiz-adv-x="594" 
d="M589 700l-288 -711h-10l-286 711h42l249 -628l251 628h42z" />
    <glyph glyph-name="W" unicode="W" horiz-adv-x="986" 
d="M983 700l-325 -713h-15l-149 338l-150 -338h-15l-326 713l43 1l291 -634l134 305l-142 328l42 1l123 -286l122 286l42 -1l-142 -328l134 -310l291 639z" />
    <glyph glyph-name="X" unicode="X" horiz-adv-x="581" 
d="M522 0l-232 323l-231 -323h-49l255 352l-249 348h46l228 -319l229 319h46l-251 -348l257 -352h-49z" />
    <glyph glyph-name="Y" unicode="Y" horiz-adv-x="554" 
d="M297 247v-247h-40v247l-252 453h46l226 -416l226 416h46z" />
    <glyph glyph-name="Z" unicode="Z" horiz-adv-x="493" 
d="M454 688l-356 -649h350v-39h-409v14l355 647h-351v39h411v-12z" />
    <glyph glyph-name="bracketleft" unicode="[" horiz-adv-x="260" 
d="M138 721v-766h83v-39h-123v844h123v-39h-83z" />
    <glyph glyph-name="backslash" unicode="\" horiz-adv-x="279" 
d="M0 800h39l240 -920h-39z" />
    <glyph glyph-name="bracketright" unicode="]" horiz-adv-x="260" 
d="M162 -84h-123v39h83v766h-83v39h123v-844z" />
    <glyph glyph-name="asciicircum" unicode="^" horiz-adv-x="413" 
d="M345 442l-138 227l-139 -227h-45l164 259h39l164 -259h-45z" />
    <glyph glyph-name="underscore" unicode="_" horiz-adv-x="496" 
d="M29 -30h438v-38h-438v38z" />
    <glyph glyph-name="grave" unicode="`" horiz-adv-x="188" 
d="M23 710h48l94 -145h-40z" />
    <glyph glyph-name="a" unicode="a" horiz-adv-x="617" 
d="M529 500v-500h-40v120q-29 -58 -82 -92.5t-120 -34.5q-68 0 -122 34.5t-84 93.5t-30 128q0 70 30 129t84 93.5t122 34.5q67 0 120 -34.5t82 -92.5v121h40zM391 61.5q46 29.5 72 79t26 108.5t-26 109t-72 79.5t-103 29.5t-102 -29.5t-70 -79.5t-25 -109t25 -108.5t70 -79
t102 -29.5t103 29.5z" />
    <glyph glyph-name="b" unicode="b" horiz-adv-x="617" 
d="M452 471.5q54 -34.5 84 -93.5t30 -128q0 -70 -30 -129t-84 -93.5t-122 -34.5q-67 0 -120 34.5t-82 92.5v-120h-40v800h40v-421q29 58 82 92.5t120 34.5q68 0 122 -34.5zM431 61.5q45 29.5 70 79.5t25 109t-25 108.5t-70 79t-102 29.5t-103 -29.5t-72 -79t-26 -108.5
t26 -109t72 -79.5t103 -29.5t102 29.5z" />
    <glyph glyph-name="c" unicode="c" horiz-adv-x="541" 
d="M172 28q-58 35 -89.5 93.5t-31.5 128.5t31.5 128.5t89.5 93.5t133 35q52 0 96 -16.5t78 -47.5v-54q-29 36 -74.5 57.5t-99.5 21.5q-63 0 -112 -29.5t-75.5 -79.5t-26.5 -109t26.5 -109t75.5 -79.5t112 -29.5q54 0 99.5 21.5t74.5 57.5v-54q-34 -31 -78 -47.5t-96 -16.5
q-75 0 -133 35z" />
    <glyph glyph-name="d" unicode="d" horiz-adv-x="617" 
d="M529 800v-800h-40v120q-29 -58 -82 -92.5t-120 -34.5q-68 0 -122 34.5t-84 93.5t-30 128q0 70 30 129t84 93.5t122 34.5q67 0 120 -34.5t82 -92.5v421h40zM391 61.5q46 29.5 72 79t26 108.5t-26 109t-72 79.5t-103 29.5t-102 -29.5t-70 -79.5t-25 -109t25 -108.5t70 -79
t102 -29.5t103 29.5z" />
    <glyph glyph-name="e" unicode="e" horiz-adv-x="567" 
d="M91 239q3 -57 29 -104.5t72.5 -75t106.5 -27.5q53 0 97.5 21t76.5 56v-52q-34 -30 -78.5 -47t-95.5 -17q-75 0 -131.5 34.5t-86.5 93.5t-30 129q0 69 30.5 128t85 93.5t123.5 34.5q70 0 122.5 -36.5t80.5 -98t28 -132.5h-430zM478 278q-10 81 -60 135t-128 54
q-54 0 -96.5 -25t-68.5 -68t-32 -96h385z" />
    <glyph glyph-name="f" unicode="f" horiz-adv-x="260" 
d="M152 753q-14 -14 -14 -38v-215h104v-39h-104v-461h-40v461h-63v39h63v220q0 40 25 63.5t60 23.5q32 0 59 -20v-43q-16 11 -27.5 17t-28.5 6q-20 0 -34 -14z" />
    <glyph glyph-name="g" unicode="g" horiz-adv-x="617" 
d="M529 23q0 -75 -33 -127t-86.5 -77.5t-114.5 -25.5q-99 0 -186 58l1 46q88 -66 180 -66q57 0 102.5 23t71.5 68t26 108v91q-29 -59 -82.5 -93.5t-120.5 -34.5q-68 0 -122 34.5t-84 93.5t-30 128q0 70 30 129t84 93.5t122 34.5q67 0 119.5 -34t82.5 -92l-1 120h40z
M391 61.5q46 29.5 72 79t26 108.5t-26 109t-72 79.5t-103 29.5t-102 -29.5t-70 -79.5t-25 -109t25 -108.5t70 -79t102 -29.5t103 29.5z" />
    <glyph glyph-name="h" unicode="h" horiz-adv-x="569" 
d="M394 482.5q44 -25.5 70 -76.5t26 -126v-280h-40v270q0 97 -42.5 148.5t-116.5 51.5q-71 0 -117 -52.5t-46 -147.5v-270h-40v800h40v-392q23 43 67 71.5t100 28.5q55 0 99 -25.5z" />
    <glyph glyph-name="i" unicode="i" horiz-adv-x="236" 
d="M96.5 612.5q-8.5 8.5 -8.5 21.5t8.5 21.5t21.5 8.5t21.5 -8.5t8.5 -21.5t-8.5 -21.5t-21.5 -8.5t-21.5 8.5zM98 500h40v-500h-40v500z" />
    <glyph glyph-name="j" unicode="j" horiz-adv-x="236" 
d="M96.5 610.5q-8.5 8.5 -8.5 21.5t8.5 21.5t21.5 8.5t21.5 -8.5t8.5 -21.5t-8.5 -21.5t-21.5 -8.5t-21.5 8.5zM98 500h40v-700h-40v700z" />
    <glyph glyph-name="k" unicode="k" horiz-adv-x="460" 
d="M394 0l-266 230v-230h-40v800h40v-539l258 239h55l-275 -254l285 -246h-57z" />
    <glyph glyph-name="l" unicode="l" horiz-adv-x="216" 
d="M88 800h40v-800h-40v800z" />
    <glyph glyph-name="m" unicode="m" horiz-adv-x="865" 
d="M697 483q41 -25 65 -72.5t24 -112.5l-1 -298h-40v289q0 82 -38.5 131t-105.5 49q-68 0 -106 -50.5t-38 -139.5l-1 -279h-40v289q0 82 -38.5 131t-105.5 49q-68 0 -106 -50.5t-38 -139.5v-279h-40v500h40v-80q22 39 59.5 63.5t89.5 24.5q57 0 101.5 -32t64.5 -89
q18 51 59.5 86t103.5 35q50 0 91 -25z" />
    <glyph glyph-name="n" unicode="n" horiz-adv-x="569" 
d="M394 482.5q44 -25.5 70 -76.5t26 -126v-280h-40v270q0 97 -42.5 148.5t-116.5 51.5q-71 0 -117 -52.5t-46 -147.5v-270h-40v500h40v-92q23 43 67 71.5t100 28.5q55 0 99 -25.5z" />
    <glyph glyph-name="o" unicode="o" horiz-adv-x="606" 
d="M172.5 29q-57.5 35 -89.5 94t-32 128t32 127.5t89.5 93.5t130.5 35t130.5 -35t89.5 -93.5t32 -127.5t-32 -128t-89.5 -94t-130.5 -35t-130.5 35zM412.5 63q48.5 30 75.5 80.5t27 108.5t-27 107.5t-75.5 79t-109.5 29.5t-109.5 -29.5t-75.5 -79t-27 -107.5t27 -108.5
t75.5 -80.5t109.5 -30t109.5 30z" />
    <glyph glyph-name="p" unicode="p" horiz-adv-x="616" 
d="M451 471.5q54 -34.5 84 -93.5t30 -128q0 -70 -30 -129t-84 -93.5t-122 -34.5q-66 0 -119 34t-82 91v-318h-40v700h40v-119q29 57 82 91t119 34q68 0 122 -34.5zM430 61.5q45 29.5 70 79.5t25 109t-25 108.5t-70 79t-102 29.5q-53 0 -97 -26t-71 -70.5t-32 -98.5v-44
q5 -54 32 -99t71 -71t97 -26q57 0 102 29.5z" />
    <glyph glyph-name="q" unicode="q" horiz-adv-x="616" 
d="M528 500v-700h-40v318q-29 -57 -82 -91t-119 -34q-68 0 -122 34.5t-84 93.5t-30 129q0 69 30 128t84 93.5t122 34.5q66 0 119 -34t82 -91v119h40zM385 58q44 26 71 71t32 99v44q-5 54 -32 98.5t-71 70.5t-97 26q-57 0 -102 -29.5t-70 -79t-25 -108.5t25 -109t70 -79.5
t102 -29.5q53 0 97 26z" />
    <glyph glyph-name="r" unicode="r" horiz-adv-x="290" 
d="M184.5 476.5q36.5 29.5 87.5 29.5v-42q-42 1 -75 -23.5t-51 -67t-18 -92.5v-281h-40v500h40v-98q20 45 56.5 74.5z" />
    <glyph glyph-name="s" unicode="s" horiz-adv-x="395" 
d="M112 15.5q-42 22.5 -65 56.5l30 28q23 -31 55 -49.5t68 -18.5q47 0 78.5 25.5t31.5 67.5q0 32 -16 53.5t-39.5 35t-64.5 30.5q-44 19 -70 34.5t-44.5 41t-18.5 64.5q0 54 39.5 88.5t99.5 34.5q43 0 80.5 -20.5t63.5 -50.5l-26 -27q-53 59 -119 59q-43 0 -71 -24t-28 -59
q0 -40 27.5 -61.5t84.5 -44.5q46 -20 73.5 -36t47 -44.5t19.5 -71.5q0 -58 -41.5 -96t-108.5 -38q-44 0 -86 22.5z" />
    <glyph glyph-name="t" unicode="t" horiz-adv-x="260" 
d="M242 461h-103v-461h-40v461h-64v39h64v134h40v-134h103v-39z" />
    <glyph glyph-name="u" unicode="u" horiz-adv-x="569" 
d="M481 500v-500h-40v92q-23 -43 -67 -71.5t-100 -28.5q-55 0 -99 25.5t-70 76.5t-26 126v280h40v-270q0 -97 42.5 -148.5t116.5 -51.5q71 0 117 52.5t46 147.5v270h40z" />
    <glyph glyph-name="v" unicode="v" horiz-adv-x="494" 
d="M485 500l-229 -502h-18l-229 502h43l195 -432l195 432h43z" />
    <glyph glyph-name="w" unicode="w" horiz-adv-x="772" 
d="M768 500l-259 -508h-12l-112 226l-111 -226h-12l-258 508h44l221 -438l96 198l-117 240h44l94 -199l93 199h44l-117 -240l97 -198l220 438h45z" />
    <glyph glyph-name="x" unicode="x" horiz-adv-x="471" 
d="M416 0l-180 224l-181 -224h-46l203 253l-198 247h47l175 -218l174 218h47l-198 -247l203 -253h-46z" />
    <glyph glyph-name="y" unicode="y" horiz-adv-x="477" 
d="M468 500l-301 -700h-40l93 216l-211 484h43l187 -440l186 440h43z" />
    <glyph glyph-name="z" unicode="z" horiz-adv-x="438" 
d="M412 488l-319 -449h314v-39h-380v14l319 447h-320v39h386v-12z" />
    <glyph glyph-name="braceleft" unicode="{" horiz-adv-x="246" 
d="M126 389.5q-7 -30.5 -30 -51.5q23 -21 30 -51.5t7 -77.5v-149q0 -50 24 -77t73 -27v-40q-70 0 -103.5 40t-33.5 110v176q0 29 -11.5 53.5t-34.5 39.5v6q23 15 34.5 39.5t11.5 53.5v176q0 70 33.5 110t103.5 40v-40q-49 0 -73 -27t-24 -77v-149q0 -47 -7 -77.5z" />
    <glyph glyph-name="bar" unicode="|" horiz-adv-x="236" 
d="M98 800h40v-900h-40v900z" />
    <glyph glyph-name="braceright" unicode="}" horiz-adv-x="246" 
d="M164.5 380.5q11.5 -24.5 34.5 -39.5v-6q-23 -15 -34.5 -39.5t-11.5 -53.5v-176q0 -70 -33.5 -110t-103.5 -40v40q49 0 73 27t24 77v149q0 47 7 77.5t30 51.5q-23 21 -30 51.5t-7 77.5v149q0 50 -24 77t-73 27v40q70 0 103.5 -40t33.5 -110v-176q0 -29 11.5 -53.5z" />
    <glyph glyph-name="asciitilde" unicode="~" horiz-adv-x="418" 
d="M49 313q42 34 90 34q22 0 36 -4t38 -13q19 -9 34 -13t35 -4q50 0 87 35v-44q-36 -29 -90 -29q-22 0 -36 4t-38 13q-19 9 -34 13t-35 4q-49 0 -87 -36v40z" />
    <glyph glyph-name="exclamdown" unicode="&#xa1;" horiz-adv-x="198" 
d="M120.5 538.5q8.5 -8.5 8.5 -21.5t-8.5 -22t-21.5 -9t-21.5 9t-8.5 22t8.5 21.5t21.5 8.5t21.5 -8.5zM118 -157h-44l8 591h28z" />
    <glyph glyph-name="cent" unicode="&#xa2;" horiz-adv-x="541" 
d="M193 538.5q-49 -29.5 -75.5 -79.5t-26.5 -109t26.5 -109t75.5 -79.5t112 -29.5q54 0 99.5 21.5t74.5 57.5v-54q-31 -29 -72 -45.5t-89 -18.5v-93h-39v94q-68 6 -120 42t-80 92t-28 122t28 122t80 92t120 42v94h39v-93q48 -2 89 -18.5t72 -45.5v-54q-29 36 -74.5 57.5
t-99.5 21.5q-63 0 -112 -29.5z" />
    <glyph glyph-name="sterling" unicode="&#xa3;" horiz-adv-x="507" 
d="M171.5 130q-21.5 -49 -53.5 -91h329v-39h-392v12q5 7 36.5 50t47.5 82.5t16 75.5v13h-106v38h100q-9 35 -40 90q-25 44 -37.5 78t-12.5 77q0 49 23 93.5t67.5 72.5t105.5 28q57 0 100.5 -25.5t69.5 -68.5t33 -94l-37 -11q-11 74 -55.5 117.5t-110.5 43.5q-52 0 -87 -24
t-52 -60t-17 -72q0 -37 12 -69.5t36 -78.5q16 -30 26 -52t15 -45h197v-38h-192v-4q0 -50 -21.5 -99z" />
    <glyph glyph-name="currency" unicode="&#xa4;" horiz-adv-x="592" 
d="M540 263q-15 -43 -43 -77l49 -49l-28 -28l-48 48q-70 -62 -167 -62q-98 0 -167 61l-47 -47l-28 28l48 48q-28 35 -43 77.5t-15 89.5q0 46 15 89t43 77l-48 48l28 28l47 -47q69 61 167 61q97 0 167 -62l48 48l28 -28l-49 -49q28 -34 43 -76.5t15 -88.5t-15 -89zM412.5 164
q48.5 30 75.5 80.5t27 108.5t-27 107.5t-75.5 79t-109.5 29.5t-109.5 -29.5t-75.5 -79t-27 -107.5t27 -108.5t75.5 -80.5t109.5 -30t109.5 30z" />
    <glyph glyph-name="yen" unicode="&#xa5;" horiz-adv-x="554" 
d="M302 256h167v-38h-172v-66h172v-38h-172v-114h-40v114h-150v38h150v66h-150v38h145l-247 444h46l226 -416l226 416h46z" />
    <glyph glyph-name="brokenbar" unicode="&#xa6;" horiz-adv-x="236" 
d="M98 800h40v-342h-40v342zM98 242h40v-342h-40v342z" />
    <glyph glyph-name="section" unicode="&#xa7;" horiz-adv-x="505" 
d="M456 66q0 -46 -23 -85t-67.5 -62.5t-105.5 -23.5q-64 0 -121 33t-90 81l31 27q34 -46 82.5 -74.5t99.5 -28.5q67 0 110.5 35.5t43.5 92.5q0 46 -22.5 75.5t-55.5 46t-88 34.5q-57 19 -91 36t-57.5 48.5t-23.5 80.5q0 19 7.5 39.5t20.5 37.5q-34 37 -34 93q0 46 25.5 81.5
t68.5 55t94 19.5q56 0 103 -26t82 -66l-26 -27q-33 35 -73.5 57.5t-86.5 22.5q-41 0 -74.5 -15.5t-53 -42t-19.5 -58.5q0 -39 21.5 -64.5t54 -41t85.5 -33.5q59 -21 95.5 -39t61.5 -50t25 -82q0 -18 -8 -41.5t-20 -41.5q29 -39 29 -94zM138 322q20 -24 50 -38.5t81 -32.5
q49 -17 79 -30.5t54 -33.5q15 23 15 53q0 41 -22 67.5t-54.5 42t-87.5 33.5q-41 14 -69 25.5t-50 26.5q-16 -23 -16 -52q0 -37 20 -61z" />
    <glyph glyph-name="dieresis" unicode="&#xa8;" horiz-adv-x="258" 
d="M31.5 610.5q-8.5 8.5 -8.5 21.5t8.5 21.5t21.5 8.5t21.5 -8.5t8.5 -21.5t-8.5 -21.5t-21.5 -8.5t-21.5 8.5zM183.5 610.5q-8.5 8.5 -8.5 21.5t8.5 21.5t21.5 8.5t21.5 -8.5t8.5 -21.5t-8.5 -21.5t-21.5 -8.5t-21.5 8.5z" />
    <glyph glyph-name="copyright" unicode="&#xa9;" horiz-adv-x="858" 
d="M242 39q-82 49 -127.5 131.5t-45.5 179.5t45.5 179.5t127.5 131.5t187 49t187 -49t127.5 -131.5t45.5 -179.5t-45.5 -179.5t-127.5 -131.5t-187 -49t-187 49zM594 73q73 44 114 117.5t41 159.5t-41 159.5t-114 117.5t-165 44t-165 -44t-114 -117.5t-41 -159.5t41 -159.5
t114 -117.5t165 -44t165 44zM329.5 179q-44.5 27 -69 72.5t-24.5 99.5t24.5 99t69 72t102.5 27q40 0 74 -13t60 -37l-1 -47q-21 26 -57.5 42t-76.5 16q-46 0 -81.5 -21.5t-55 -58t-19.5 -79.5t19.5 -79.5t55 -58t81.5 -21.5q40 0 76.5 15.5t57.5 41.5l1 -47
q-26 -24 -60.5 -37t-73.5 -13q-58 0 -102.5 27z" />
    <glyph glyph-name="ordfeminine" unicode="&#xaa;" horiz-adv-x="299" 
d="M276 700v-245h-34v44q-17 -24 -41.5 -37t-53.5 -13q-54 0 -89 37.5t-35 91.5q0 53 35 90.5t89 37.5q29 0 53.5 -13t41.5 -36v43h34zM216 510.5q26 28.5 26 67.5t-26 67t-65 28q-40 0 -66 -27.5t-26 -67.5t26 -68t66 -28q39 0 65 28.5z" />
    <glyph glyph-name="guillemotleft" unicode="&#xab;" horiz-adv-x="449" 
d="M95 290l184 -210h-49l-181 208v4l181 208h49zM256 290l184 -210h-49l-181 208v4l181 208h49z" />
    <glyph glyph-name="logicalnot" unicode="&#xac;" horiz-adv-x="547" 
d="M459 90h-36v201h-374v38h410v-239z" />
    <glyph glyph-name="uni00AD" unicode="&#xad;" horiz-adv-x="422" 
d="M49 319h324v-38h-324v38z" />
    <glyph glyph-name="registered" unicode="&#xae;" horiz-adv-x="858" 
d="M616 661q82 -49 127.5 -131.5t45.5 -179.5t-45.5 -179.5t-127.5 -131.5t-187 -49t-187 49t-127.5 131.5t-45.5 179.5t45.5 179.5t127.5 131.5t187 49t187 -49zM594 73q73 44 114 117.5t41 159.5t-41 159.5t-114 117.5t-165 44t-165 -44t-114 -117.5t-41 -159.5t41 -159.5
t114 -117.5t165 -44t165 44zM541.5 348q-25.5 -32 -70.5 -42l93 -146h-45l-86 141h-4h-63v-143h-39v390h102q63 0 100.5 -35t37.5 -89q0 -44 -25.5 -76zM501.5 361.5q26.5 24.5 26.5 62.5q0 39 -26.5 63t-69.5 24h-66v-174h66q43 0 69.5 24.5z" />
    <glyph glyph-name="macron" unicode="&#xaf;" horiz-adv-x="294" 
d="M23 651h248v-36h-248v36z" />
    <glyph glyph-name="degree" unicode="&#xb0;" horiz-adv-x="276" 
d="M57.5 512.5q-34.5 34.5 -34.5 80.5q0 48 34 81.5t81 33.5q48 0 81.5 -33.5t33.5 -81.5q0 -47 -33.5 -81t-81.5 -34q-46 0 -80.5 34.5zM195.5 536q22.5 23 22.5 57q0 36 -22 58t-58 22q-34 0 -57 -22.5t-23 -57.5q0 -33 23.5 -56.5t56.5 -23.5q35 0 57.5 23z" />
    <glyph glyph-name="plusminus" unicode="&#xb1;" horiz-adv-x="465" 
d="M416 362v-36h-165v-155h-36v155h-166v36h166v156h36v-156h165zM49 106h367v-36h-367v36z" />
    <glyph glyph-name="uni00B2" unicode="&#xb2;" horiz-adv-x="243" 
d="M31 510l101 130q5 6 19 24t21.5 35.5t7.5 34.5q0 24 -15.5 42.5t-44.5 18.5q-28 0 -45.5 -19.5t-21.5 -48.5l-31 10q5 38 31 65t67 27q44 0 69 -28.5t25 -65.5q0 -28 -11.5 -49.5t-26 -40t-18.5 -24.5l-66 -87h124v-34h-185v10z" />
    <glyph glyph-name="uni00B3" unicode="&#xb3;" horiz-adv-x="263" 
d="M206.5 671q29.5 -30 29.5 -73q0 -42 -30.5 -73.5t-78.5 -31.5q-39 0 -67.5 22.5t-37.5 56.5l31 13q7 -26 27 -42.5t47 -16.5q34 0 55 20.5t21 51.5t-21 52t-55 21q-25 0 -43 -9l-13 15l93 111h-129v34h180v-24l-83 -96q45 -1 74.5 -31z" />
    <glyph glyph-name="acute" unicode="&#xb4;" horiz-adv-x="188" 
d="M23 565l94 145h48l-102 -145h-40z" />
    <glyph glyph-name="uni00B5" unicode="&#xb5;" horiz-adv-x="569" 
d="M481 500v-500h-40v92q-23 -43 -67 -71.5t-100 -28.5q-48 0 -88.5 19.5t-66.5 58.5v-270h-40v700h40v-270q0 -97 42.5 -148.5t116.5 -51.5q71 0 117 52.5t46 147.5v270h40z" />
    <glyph glyph-name="paragraph" unicode="&#xb6;" horiz-adv-x="508" 
d="M289 -100h-40v392h-5q-69 0 -119.5 26.5t-77.5 73t-27 104.5t27 104.5t77.5 73t119.5 26.5h45v-800zM410 700v-800h-40v800h40z" />
    <glyph glyph-name="periodcentered" unicode="&#xb7;" horiz-adv-x="236" 
d="M96.5 298.5q-8.5 8.5 -8.5 21.5t8.5 22t21.5 9t21.5 -9t8.5 -22t-8.5 -21.5t-21.5 -8.5t-21.5 8.5z" />
    <glyph glyph-name="cedilla" unicode="&#xb8;" horiz-adv-x="222" 
d="M173 -64q26 -23 26 -58t-27 -59t-67 -24q-48 0 -82 29v40q38 -36 82 -36q25 0 42.5 14t17.5 36t-16 36t-44 14q-23 0 -44 -14l-4 2l34 84h40l-19 -42q35 1 61 -22z" />
    <glyph glyph-name="uni00B9" unicode="&#xb9;" horiz-adv-x="172" 
d="M119 823v-323h-34v267l-41 -27l-17 27l82 56h10z" />
    <glyph glyph-name="ordmasculine" unicode="&#xba;" horiz-adv-x="300" 
d="M84.5 466.5q-29.5 17.5 -45.5 47.5t-16 64t16.5 63.5t45.5 47t65 17.5t65 -17.5t45.5 -47t16.5 -63.5t-16 -64t-45.5 -47.5t-65.5 -17.5t-65.5 17.5zM216.5 510.5q26.5 28.5 26.5 67.5t-26.5 67t-66.5 28t-66.5 -28t-26.5 -67t26.5 -67.5t66.5 -28.5t66.5 28.5z" />
    <glyph glyph-name="guillemotright" unicode="&#xbb;" horiz-adv-x="449" 
d="M58 80h-49l184 210l-184 210h49l181 -208v-4zM400 292v-4l-181 -208h-49l184 210l-184 210h49z" />
    <glyph glyph-name="onequarter" unicode="&#xbc;" horiz-adv-x="471" 
d="M119 701v-323h-34v267l-41 -27l-17 27l82 56h10zM419 700h35l-397 -700h-35zM449 43h-33v-43h-34v43h-140v5l164 288h10v-259h33v-34zM382 77v158l-89 -158h89z" />
    <glyph glyph-name="onehalf" unicode="&#xbd;" horiz-adv-x="537" 
d="M119 701v-323h-34v267l-41 -27l-17 27l82 56h10zM419 700h35l-397 -700h-35zM325 10l101 130q5 6 19 24t21.5 35.5t7.5 34.5q0 24 -15.5 42.5t-44.5 18.5q-28 0 -45.5 -19.5t-21.5 -48.5l-31 10q5 38 31 65t67 27q44 0 69 -28.5t25 -65.5q0 -28 -11.5 -49.5t-26 -40
t-18.5 -24.5l-66 -87h124v-34h-185v10z" />
    <glyph glyph-name="threequarters" unicode="&#xbe;" horiz-adv-x="552" 
d="M206.5 549q29.5 -30 29.5 -73q0 -42 -30.5 -73.5t-78.5 -31.5q-39 0 -67.5 22.5t-37.5 56.5l31 13q7 -26 27 -42.5t47 -16.5q34 0 55 20.5t21 51.5t-21 52t-55 21q-25 0 -43 -9l-13 15l93 111h-129v34h180v-24l-83 -96q45 -1 74.5 -31zM500 700h35l-397 -700h-35zM530 43
h-33v-43h-34v43h-140v5l164 288h10v-259h33v-34zM463 77v158l-89 -158h89z" />
    <glyph glyph-name="questiondown" unicode="&#xbf;" horiz-adv-x="444" 
d="M247.5 534.5q8.5 -8.5 8.5 -21.5t-8.5 -22t-21.5 -9t-21.5 9t-8.5 22t8.5 21.5t21.5 8.5t21.5 -8.5zM244 200q-82 -14 -128.5 -60.5t-46.5 -116.5q0 -35 17.5 -71t53 -60t86.5 -24q65 0 110 43.5t55 116.5l38 -11q-7 -51 -33 -94t-70 -68.5t-100 -25.5q-60 0 -104.5 28
t-68.5 73t-24 93q0 75 48 130.5t128 74.5l4 202h28z" />
    <glyph glyph-name="Agrave" unicode="&#xc0;" horiz-adv-x="620" 
d="M490 193h-360l-80 -193h-45l301 711h7l302 -711h-45zM473 232l-163 393l-163 -393h326zM209 910h48l94 -145h-40z" />
    <glyph glyph-name="Aacute" unicode="&#xc1;" horiz-adv-x="620" 
d="M490 193h-360l-80 -193h-45l301 711h7l302 -711h-45zM473 232l-163 393l-163 -393h326zM259 765l94 145h48l-102 -145h-40z" />
    <glyph glyph-name="Acircumflex" unicode="&#xc2;" horiz-adv-x="620" 
d="M490 193h-360l-80 -193h-45l301 711h7l302 -711h-45zM473 232l-163 393l-163 -393h326zM397 768l-87 105l-88 -105h-47l112 132h45l112 -132h-47z" />
    <glyph glyph-name="Atilde" unicode="&#xc3;" horiz-adv-x="620" 
d="M490 193h-360l-80 -193h-45l301 711h7l302 -711h-45zM473 232l-163 393l-163 -393h326zM150 836q42 34 90 34q22 0 36 -4t38 -13q19 -9 34 -13t35 -4q50 0 87 35v-44q-36 -29 -90 -29q-22 0 -36 4t-38 13q-19 9 -34 13t-35 4q-49 0 -87 -36v40z" />
    <glyph glyph-name="Adieresis" unicode="&#xc4;" horiz-adv-x="620" 
d="M490 193h-360l-80 -193h-45l301 711h7l302 -711h-45zM473 232l-163 393l-163 -393h326zM212.5 810.5q-8.5 8.5 -8.5 21.5t8.5 21.5t21.5 8.5t21.5 -8.5t8.5 -21.5t-8.5 -21.5t-21.5 -8.5t-21.5 8.5zM364.5 810.5q-8.5 8.5 -8.5 21.5t8.5 21.5t21.5 8.5t21.5 -8.5
t8.5 -21.5t-8.5 -21.5t-21.5 -8.5t-21.5 8.5z" />
    <glyph glyph-name="Aring" unicode="&#xc5;" horiz-adv-x="620" 
d="M490 193h-360l-80 -193h-45l301 711h7l302 -711h-45zM473 232l-163 393l-163 -393h326zM246.5 774.5q-26.5 26.5 -26.5 63.5t26.5 63.5t63.5 26.5t63.5 -26t26.5 -64q0 -37 -26.5 -63.5t-63.5 -26.5t-63.5 26.5zM349.5 798.5q16.5 16.5 16.5 39.5t-16.5 39.5t-39.5 16.5
t-39.5 -16.5t-16.5 -39.5q0 -22 16.5 -39t39.5 -17t39.5 16.5z" />
    <glyph glyph-name="AE" unicode="&#xc6;" horiz-adv-x="862" 
d="M483 661v-281h257v-39h-257v-302h320v-39h-360v193h-276l-115 -193h-47l423 700h375v-39h-320zM443 232v423l-252 -423h252z" />
    <glyph glyph-name="Ccedilla" unicode="&#xc7;" horiz-adv-x="630" 
d="M261.5 628.5q-71.5 -43.5 -112 -117.5t-40.5 -161t40.5 -161t112 -117.5t162.5 -43.5q49 0 84.5 8.5t72.5 28.5v-41q-67 -33 -147 -34l-15 -32q35 1 61 -22t26 -58t-27 -59t-67 -24q-48 0 -82 29v40q38 -36 82 -36q25 0 42.5 14t17.5 36t-16 36t-44 14q-23 0 -44 -14
l-4 2l30 75q-97 7 -170.5 57t-114 129.5t-40.5 172.5q0 97 44.5 179.5t125.5 131.5t185 49q87 0 157 -34v-41q-37 20 -72.5 28.5t-84.5 8.5q-91 0 -162.5 -43.5z" />
    <glyph glyph-name="Egrave" unicode="&#xc8;" horiz-adv-x="517" 
d="M138 661v-281h257v-39h-257v-302h320v-39h-360v700h360v-39h-320zM182 910h48l94 -145h-40z" />
    <glyph glyph-name="Eacute" unicode="&#xc9;" horiz-adv-x="517" 
d="M138 661v-281h257v-39h-257v-302h320v-39h-360v700h360v-39h-320zM232 765l94 145h48l-102 -145h-40z" />
    <glyph glyph-name="Ecircumflex" unicode="&#xca;" horiz-adv-x="517" 
d="M138 661v-281h257v-39h-257v-302h320v-39h-360v700h360v-39h-320zM370 768l-87 105l-88 -105h-47l112 132h45l112 -132h-47z" />
    <glyph glyph-name="Edieresis" unicode="&#xcb;" horiz-adv-x="517" 
d="M138 661v-281h257v-39h-257v-302h320v-39h-360v700h360v-39h-320zM185.5 810.5q-8.5 8.5 -8.5 21.5t8.5 21.5t21.5 8.5t21.5 -8.5t8.5 -21.5t-8.5 -21.5t-21.5 -8.5t-21.5 8.5zM337.5 810.5q-8.5 8.5 -8.5 21.5t8.5 21.5t21.5 8.5t21.5 -8.5t8.5 -21.5t-8.5 -21.5
t-21.5 -8.5t-21.5 8.5z" />
    <glyph glyph-name="Igrave" unicode="&#xcc;" horiz-adv-x="236" 
d="M98 700h40v-700h-40v700zM17 910h48l94 -145h-40z" />
    <glyph glyph-name="Iacute" unicode="&#xcd;" horiz-adv-x="236" 
d="M98 700h40v-700h-40v700zM67 765l94 145h48l-102 -145h-40z" />
    <glyph glyph-name="Icircumflex" unicode="&#xce;" horiz-adv-x="236" 
d="M98 700h40v-700h-40v700zM205 768l-87 105l-88 -105h-47l112 132h45l112 -132h-47z" />
    <glyph glyph-name="Idieresis" unicode="&#xcf;" horiz-adv-x="236" 
d="M98 700h40v-700h-40v700zM20.5 810.5q-8.5 8.5 -8.5 21.5t8.5 21.5t21.5 8.5t21.5 -8.5t8.5 -21.5t-8.5 -21.5t-21.5 -8.5t-21.5 8.5zM172.5 810.5q-8.5 8.5 -8.5 21.5t8.5 21.5t21.5 8.5t21.5 -8.5t8.5 -21.5t-8.5 -21.5t-21.5 -8.5t-21.5 8.5z" />
    <glyph glyph-name="Eth" unicode="&#xd0;" horiz-adv-x="675" 
d="M442.5 653.5q79.5 -46.5 121.5 -125.5t42 -176t-42 -177.5t-121.5 -127.5t-187.5 -47h-157v332h-83v39h83v329h157q108 0 187.5 -46.5zM423 82.5q70 43.5 106.5 115t36.5 154.5q0 87 -36.5 157.5t-106 111t-165.5 40.5h-120v-290h84v-39h-84v-293h120q95 0 165 43.5z" />
    <glyph glyph-name="Ntilde" unicode="&#xd1;" horiz-adv-x="741" 
d="M643 700v-711h-8l-497 622v-611h-40v714h8l497 -623v609h40zM211 836q42 34 90 34q22 0 36 -4t38 -13q19 -9 34 -13t35 -4q50 0 87 35v-44q-36 -29 -90 -29q-22 0 -36 4t-38 13q-19 9 -34 13t-35 4q-49 0 -87 -36v40z" />
    <glyph glyph-name="Ograve" unicode="&#xd2;" horiz-adv-x="858" 
d="M242 39q-82 49 -127.5 131.5t-45.5 179.5t45.5 179.5t127.5 131.5t187 49t187 -49t127.5 -131.5t45.5 -179.5t-45.5 -179.5t-127.5 -131.5t-187 -49t-187 49zM594 73q73 44 114 117.5t41 159.5t-41 159.5t-114 117.5t-165 44t-165 -44t-114 -117.5t-41 -159.5t41 -159.5
t114 -117.5t165 -44t165 44zM328 910h48l94 -145h-40z" />
    <glyph glyph-name="Oacute" unicode="&#xd3;" horiz-adv-x="858" 
d="M242 39q-82 49 -127.5 131.5t-45.5 179.5t45.5 179.5t127.5 131.5t187 49t187 -49t127.5 -131.5t45.5 -179.5t-45.5 -179.5t-127.5 -131.5t-187 -49t-187 49zM594 73q73 44 114 117.5t41 159.5t-41 159.5t-114 117.5t-165 44t-165 -44t-114 -117.5t-41 -159.5t41 -159.5
t114 -117.5t165 -44t165 44zM378 765l94 145h48l-102 -145h-40z" />
    <glyph glyph-name="Ocircumflex" unicode="&#xd4;" horiz-adv-x="858" 
d="M242 39q-82 49 -127.5 131.5t-45.5 179.5t45.5 179.5t127.5 131.5t187 49t187 -49t127.5 -131.5t45.5 -179.5t-45.5 -179.5t-127.5 -131.5t-187 -49t-187 49zM594 73q73 44 114 117.5t41 159.5t-41 159.5t-114 117.5t-165 44t-165 -44t-114 -117.5t-41 -159.5t41 -159.5
t114 -117.5t165 -44t165 44zM516 768l-87 105l-88 -105h-47l112 132h45l112 -132h-47z" />
    <glyph glyph-name="Otilde" unicode="&#xd5;" horiz-adv-x="858" 
d="M242 39q-82 49 -127.5 131.5t-45.5 179.5t45.5 179.5t127.5 131.5t187 49t187 -49t127.5 -131.5t45.5 -179.5t-45.5 -179.5t-127.5 -131.5t-187 -49t-187 49zM594 73q73 44 114 117.5t41 159.5t-41 159.5t-114 117.5t-165 44t-165 -44t-114 -117.5t-41 -159.5t41 -159.5
t114 -117.5t165 -44t165 44zM269 836q42 34 90 34q22 0 36 -4t38 -13q19 -9 34 -13t35 -4q50 0 87 35v-44q-36 -29 -90 -29q-22 0 -36 4t-38 13q-19 9 -34 13t-35 4q-49 0 -87 -36v40z" />
    <glyph glyph-name="Odieresis" unicode="&#xd6;" horiz-adv-x="858" 
d="M242 39q-82 49 -127.5 131.5t-45.5 179.5t45.5 179.5t127.5 131.5t187 49t187 -49t127.5 -131.5t45.5 -179.5t-45.5 -179.5t-127.5 -131.5t-187 -49t-187 49zM594 73q73 44 114 117.5t41 159.5t-41 159.5t-114 117.5t-165 44t-165 -44t-114 -117.5t-41 -159.5t41 -159.5
t114 -117.5t165 -44t165 44zM331.5 810.5q-8.5 8.5 -8.5 21.5t8.5 21.5t21.5 8.5t21.5 -8.5t8.5 -21.5t-8.5 -21.5t-21.5 -8.5t-21.5 8.5zM483.5 810.5q-8.5 8.5 -8.5 21.5t8.5 21.5t21.5 8.5t21.5 -8.5t8.5 -21.5t-8.5 -21.5t-21.5 -8.5t-21.5 8.5z" />
    <glyph glyph-name="multiply" unicode="&#xd7;" horiz-adv-x="428" 
d="M241 294l138 -134l-28 -28l-137 138l-138 -138l-27 28l138 134l-138 134l27 28l138 -138l137 138l28 -28z" />
    <glyph glyph-name="Oslash" unicode="&#xd8;" horiz-adv-x="858" 
d="M757 503q32 -72 32 -153q0 -97 -45.5 -179.5t-127.5 -131.5t-187 -49q-114 0 -206 61l-39 -51h-53l59 76q-57 51 -89 122.5t-32 151.5q0 97 45.5 179.5t127.5 131.5t187 49q117 0 205 -60l39 50h51l-58 -75q59 -50 91 -122zM137 216.5q28 -63.5 78 -107.5l394 509
q-80 53 -180 53q-92 0 -165 -44t-114 -117.5t-41 -159.5q0 -70 28 -133.5zM594 73q73 44 114 117.5t41 159.5q0 71 -28.5 134.5t-79.5 108.5l-393 -510q79 -54 181 -54q92 0 165 44z" />
    <glyph glyph-name="Ugrave" unicode="&#xd9;" horiz-adv-x="608" 
d="M186.5 19q-51.5 28 -80 78.5t-28.5 116.5v486h40v-477q0 -93 51.5 -143t134.5 -50t134.5 50t51.5 143v477h40v-486q0 -66 -28.5 -116.5t-79.5 -78.5t-118 -28q-66 0 -117.5 28zM203 910h48l94 -145h-40z" />
    <glyph glyph-name="Uacute" unicode="&#xda;" horiz-adv-x="608" 
d="M186.5 19q-51.5 28 -80 78.5t-28.5 116.5v486h40v-477q0 -93 51.5 -143t134.5 -50t134.5 50t51.5 143v477h40v-486q0 -66 -28.5 -116.5t-79.5 -78.5t-118 -28q-66 0 -117.5 28zM253 765l94 145h48l-102 -145h-40z" />
    <glyph glyph-name="Ucircumflex" unicode="&#xdb;" horiz-adv-x="608" 
d="M186.5 19q-51.5 28 -80 78.5t-28.5 116.5v486h40v-477q0 -93 51.5 -143t134.5 -50t134.5 50t51.5 143v477h40v-486q0 -66 -28.5 -116.5t-79.5 -78.5t-118 -28q-66 0 -117.5 28zM391 768l-87 105l-88 -105h-47l112 132h45l112 -132h-47z" />
    <glyph glyph-name="Udieresis" unicode="&#xdc;" horiz-adv-x="608" 
d="M186.5 19q-51.5 28 -80 78.5t-28.5 116.5v486h40v-477q0 -93 51.5 -143t134.5 -50t134.5 50t51.5 143v477h40v-486q0 -66 -28.5 -116.5t-79.5 -78.5t-118 -28q-66 0 -117.5 28zM206.5 810.5q-8.5 8.5 -8.5 21.5t8.5 21.5t21.5 8.5t21.5 -8.5t8.5 -21.5t-8.5 -21.5
t-21.5 -8.5t-21.5 8.5zM358.5 810.5q-8.5 8.5 -8.5 21.5t8.5 21.5t21.5 8.5t21.5 -8.5t8.5 -21.5t-8.5 -21.5t-21.5 -8.5t-21.5 8.5z" />
    <glyph glyph-name="Yacute" unicode="&#xdd;" horiz-adv-x="554" 
d="M297 247v-247h-40v247l-252 453h46l226 -416l226 416h46zM226 765l94 145h48l-102 -145h-40z" />
    <glyph glyph-name="Thorn" unicode="&#xde;" horiz-adv-x="479" 
d="M354.5 539.5q50.5 -26.5 77.5 -73t27 -104.5t-27 -104.5t-77.5 -73t-119.5 -26.5h-97v-158h-40v700h40v-134h97q69 0 119.5 -26.5zM369 242.5q50 45.5 50 119.5t-50 119.5t-131 45.5h-100v-330h100q81 0 131 45.5z" />
    <glyph glyph-name="germandbls" unicode="&#xdf;" horiz-adv-x="555" 
d="M454.5 317q41.5 -50 41.5 -121q0 -54 -25 -98.5t-72 -71t-111 -26.5h-89v39h80q81 0 129 44.5t48 112.5q0 70 -46 113.5t-131 43.5h-80v38h50q47 0 83.5 18.5t56 50.5t19.5 71q0 60 -37 99t-99 39q-59 0 -96.5 -40t-37.5 -103v-526h-40v526q0 57 24 98.5t64 62.5t86 21
q54 0 94 -24.5t61 -65t21 -87.5q0 -52 -27.5 -93.5t-76.5 -59.5q69 -11 110.5 -61z" />
    <glyph glyph-name="agrave" unicode="&#xe0;" horiz-adv-x="617" 
d="M529 500v-500h-40v120q-29 -58 -82 -92.5t-120 -34.5q-68 0 -122 34.5t-84 93.5t-30 128q0 70 30 129t84 93.5t122 34.5q67 0 120 -34.5t82 -92.5v121h40zM391 61.5q46 29.5 72 79t26 108.5t-26 109t-72 79.5t-103 29.5t-102 -29.5t-70 -79.5t-25 -109t25 -108.5t70 -79
t102 -29.5t103 29.5zM214 710h48l94 -145h-40z" />
    <glyph glyph-name="aacute" unicode="&#xe1;" horiz-adv-x="617" 
d="M529 500v-500h-40v120q-29 -58 -82 -92.5t-120 -34.5q-68 0 -122 34.5t-84 93.5t-30 128q0 70 30 129t84 93.5t122 34.5q67 0 120 -34.5t82 -92.5v121h40zM391 61.5q46 29.5 72 79t26 108.5t-26 109t-72 79.5t-103 29.5t-102 -29.5t-70 -79.5t-25 -109t25 -108.5t70 -79
t102 -29.5t103 29.5zM264 565l94 145h48l-102 -145h-40z" />
    <glyph glyph-name="acircumflex" unicode="&#xe2;" horiz-adv-x="617" 
d="M529 500v-500h-40v120q-29 -58 -82 -92.5t-120 -34.5q-68 0 -122 34.5t-84 93.5t-30 128q0 70 30 129t84 93.5t122 34.5q67 0 120 -34.5t82 -92.5v121h40zM391 61.5q46 29.5 72 79t26 108.5t-26 109t-72 79.5t-103 29.5t-102 -29.5t-70 -79.5t-25 -109t25 -108.5t70 -79
t102 -29.5t103 29.5zM402 568l-87 105l-88 -105h-47l112 132h45l112 -132h-47z" />
    <glyph glyph-name="atilde" unicode="&#xe3;" horiz-adv-x="617" 
d="M529 500v-500h-40v120q-29 -58 -82 -92.5t-120 -34.5q-68 0 -122 34.5t-84 93.5t-30 128q0 70 30 129t84 93.5t122 34.5q67 0 120 -34.5t82 -92.5v121h40zM391 61.5q46 29.5 72 79t26 108.5t-26 109t-72 79.5t-103 29.5t-102 -29.5t-70 -79.5t-25 -109t25 -108.5t70 -79
t102 -29.5t103 29.5zM155 636q42 34 90 34q22 0 36 -4t38 -13q19 -9 34 -13t35 -4q50 0 87 35v-44q-36 -29 -90 -29q-22 0 -36 4t-38 13q-19 9 -34 13t-35 4q-49 0 -87 -36v40z" />
    <glyph glyph-name="adieresis" unicode="&#xe4;" horiz-adv-x="617" 
d="M529 500v-500h-40v120q-29 -58 -82 -92.5t-120 -34.5q-68 0 -122 34.5t-84 93.5t-30 128q0 70 30 129t84 93.5t122 34.5q67 0 120 -34.5t82 -92.5v121h40zM391 61.5q46 29.5 72 79t26 108.5t-26 109t-72 79.5t-103 29.5t-102 -29.5t-70 -79.5t-25 -109t25 -108.5t70 -79
t102 -29.5t103 29.5zM217.5 610.5q-8.5 8.5 -8.5 21.5t8.5 21.5t21.5 8.5t21.5 -8.5t8.5 -21.5t-8.5 -21.5t-21.5 -8.5t-21.5 8.5zM369.5 610.5q-8.5 8.5 -8.5 21.5t8.5 21.5t21.5 8.5t21.5 -8.5t8.5 -21.5t-8.5 -21.5t-21.5 -8.5t-21.5 8.5z" />
    <glyph glyph-name="aring" unicode="&#xe5;" horiz-adv-x="617" 
d="M529 500v-500h-40v120q-29 -58 -82 -92.5t-120 -34.5q-68 0 -122 34.5t-84 93.5t-30 128q0 70 30 129t84 93.5t122 34.5q67 0 120 -34.5t82 -92.5v121h40zM391 61.5q46 29.5 72 79t26 108.5t-26 109t-72 79.5t-103 29.5t-102 -29.5t-70 -79.5t-25 -109t25 -108.5t70 -79
t102 -29.5t103 29.5zM251.5 574.5q-26.5 26.5 -26.5 63.5t26.5 63.5t63.5 26.5t63.5 -26t26.5 -64q0 -37 -26.5 -63.5t-63.5 -26.5t-63.5 26.5zM354.5 598.5q16.5 16.5 16.5 39.5t-16.5 39.5t-39.5 16.5t-39.5 -16.5t-16.5 -39.5q0 -22 16.5 -39t39.5 -17t39.5 16.5z" />
    <glyph glyph-name="ae" unicode="&#xe6;" horiz-adv-x="1011" 
d="M535 239q3 -57 29 -104.5t72.5 -75t106.5 -27.5q53 0 97.5 21t76.5 56v-52q-34 -30 -78.5 -47t-95.5 -17q-72 0 -127 32t-86 87v-112h-38v127q-29 -61 -82.5 -97t-122.5 -36q-68 0 -122 34.5t-84 93.5t-30 128q0 70 30 129t84 93.5t122 34.5q69 0 122.5 -36t82.5 -97v126
h38v-114q31 55 84 87.5t120 32.5q70 0 122.5 -36.5t80.5 -98t28 -132.5h-430zM391 62.5q46 29.5 72 79t26 108.5t-26 109t-72 79.5t-103 29.5t-102 -29.5t-70 -79.5t-25 -109t25 -108.5t70 -79t102 -29.5t103 29.5zM922 278q-10 81 -60 135t-128 54q-54 0 -96.5 -25
t-68.5 -68t-32 -96h385z" />
    <glyph glyph-name="ccedilla" unicode="&#xe7;" horiz-adv-x="541" 
d="M193 438.5q-49 -29.5 -75.5 -79.5t-26.5 -109t26.5 -109t75.5 -79.5t112 -29.5q54 0 99.5 21.5t74.5 57.5v-54q-64 -58 -159 -64l-16 -35q35 1 61 -22t26 -58t-27 -59t-67 -24q-48 0 -82 29v40q38 -36 82 -36q25 0 42.5 14t17.5 36t-16 36t-44 14q-23 0 -44 -14l-4 2
l32 78q-69 6 -121 41.5t-80.5 92t-28.5 122.5q0 70 31.5 128.5t89.5 93.5t133 35q52 0 96 -16.5t78 -47.5v-54q-29 36 -74.5 57.5t-99.5 21.5q-63 0 -112 -29.5z" />
    <glyph glyph-name="egrave" unicode="&#xe8;" horiz-adv-x="567" 
d="M91 239q3 -57 29 -104.5t72.5 -75t106.5 -27.5q53 0 97.5 21t76.5 56v-52q-34 -30 -78.5 -47t-95.5 -17q-75 0 -131.5 34.5t-86.5 93.5t-30 129q0 69 30.5 128t85 93.5t123.5 34.5q70 0 122.5 -36.5t80.5 -98t28 -132.5h-430zM478 278q-10 81 -60 135t-128 54
q-54 0 -96.5 -25t-68.5 -68t-32 -96h385zM189 710h48l94 -145h-40z" />
    <glyph glyph-name="eacute" unicode="&#xe9;" horiz-adv-x="567" 
d="M91 239q3 -57 29 -104.5t72.5 -75t106.5 -27.5q53 0 97.5 21t76.5 56v-52q-34 -30 -78.5 -47t-95.5 -17q-75 0 -131.5 34.5t-86.5 93.5t-30 129q0 69 30.5 128t85 93.5t123.5 34.5q70 0 122.5 -36.5t80.5 -98t28 -132.5h-430zM478 278q-10 81 -60 135t-128 54
q-54 0 -96.5 -25t-68.5 -68t-32 -96h385zM239 565l94 145h48l-102 -145h-40z" />
    <glyph glyph-name="ecircumflex" unicode="&#xea;" horiz-adv-x="567" 
d="M91 239q3 -57 29 -104.5t72.5 -75t106.5 -27.5q53 0 97.5 21t76.5 56v-52q-34 -30 -78.5 -47t-95.5 -17q-75 0 -131.5 34.5t-86.5 93.5t-30 129q0 69 30.5 128t85 93.5t123.5 34.5q70 0 122.5 -36.5t80.5 -98t28 -132.5h-430zM478 278q-10 81 -60 135t-128 54
q-54 0 -96.5 -25t-68.5 -68t-32 -96h385zM377 568l-87 105l-88 -105h-47l112 132h45l112 -132h-47z" />
    <glyph glyph-name="edieresis" unicode="&#xeb;" horiz-adv-x="567" 
d="M91 239q3 -57 29 -104.5t72.5 -75t106.5 -27.5q53 0 97.5 21t76.5 56v-52q-34 -30 -78.5 -47t-95.5 -17q-75 0 -131.5 34.5t-86.5 93.5t-30 129q0 69 30.5 128t85 93.5t123.5 34.5q70 0 122.5 -36.5t80.5 -98t28 -132.5h-430zM478 278q-10 81 -60 135t-128 54
q-54 0 -96.5 -25t-68.5 -68t-32 -96h385zM192.5 610.5q-8.5 8.5 -8.5 21.5t8.5 21.5t21.5 8.5t21.5 -8.5t8.5 -21.5t-8.5 -21.5t-21.5 -8.5t-21.5 8.5zM344.5 610.5q-8.5 8.5 -8.5 21.5t8.5 21.5t21.5 8.5t21.5 -8.5t8.5 -21.5t-8.5 -21.5t-21.5 -8.5t-21.5 8.5z" />
    <glyph glyph-name="igrave" unicode="&#xec;" horiz-adv-x="245" 
d="M117 565l-102 145h48l94 -145h-40zM96 500h40v-500h-40v500z" />
    <glyph glyph-name="iacute" unicode="&#xed;" horiz-adv-x="180" 
d="M70 500h40v-500h-40v500zM39 565l94 145h48l-102 -145h-40z" />
    <glyph glyph-name="icircumflex" unicode="&#xee;" horiz-adv-x="299" 
d="M284 568h-47l-87 105l-88 -105h-47l112 132h45zM138 500h40v-500h-40v500z" />
    <glyph glyph-name="idieresis" unicode="&#xef;" horiz-adv-x="242" 
d="M66.5 653.5q8.5 -8.5 8.5 -21.5t-8.5 -21.5t-21.5 -8.5t-21.5 8.5t-8.5 21.5t8.5 21.5t21.5 8.5t21.5 -8.5zM218.5 653.5q8.5 -8.5 8.5 -21.5t-8.5 -21.5t-21.5 -8.5t-21.5 8.5t-8.5 21.5t8.5 21.5t21.5 8.5t21.5 -8.5zM101 500h40v-500h-40v500z" />
    <glyph glyph-name="eth" unicode="&#xf0;" horiz-adv-x="606" 
d="M555 257q0 -71 -32 -131.5t-89.5 -96t-130.5 -35.5t-130.5 35t-89.5 94t-32 128t32 127.5t89.5 93.5t130.5 35q63 0 113 -26.5t84 -73.5q-37 124 -120 214l-125 -37v37l97 30q-69 64 -169 122l20 32q113 -65 188 -142l129 39v-39l-102 -30q137 -161 137 -376zM412.5 63
q48.5 30 75.5 80.5t27 108.5t-27 107.5t-75.5 79t-109.5 29.5t-109.5 -29.5t-75.5 -79t-27 -107.5t27 -108.5t75.5 -80.5t109.5 -30t109.5 30z" />
    <glyph glyph-name="ntilde" unicode="&#xf1;" horiz-adv-x="569" 
d="M394 482.5q44 -25.5 70 -76.5t26 -126v-280h-40v270q0 97 -42.5 148.5t-116.5 51.5q-71 0 -117 -52.5t-46 -147.5v-270h-40v500h40v-92q23 43 67 71.5t100 28.5q55 0 99 -25.5zM122 636q42 34 90 34q22 0 36 -4t38 -13q19 -9 34 -13t35 -4q50 0 87 35v-44
q-36 -29 -90 -29q-22 0 -36 4t-38 13q-19 9 -34 13t-35 4q-49 0 -87 -36v40z" />
    <glyph glyph-name="ograve" unicode="&#xf2;" horiz-adv-x="606" 
d="M172.5 29q-57.5 35 -89.5 94t-32 128t32 127.5t89.5 93.5t130.5 35t130.5 -35t89.5 -93.5t32 -127.5t-32 -128t-89.5 -94t-130.5 -35t-130.5 35zM412.5 63q48.5 30 75.5 80.5t27 108.5t-27 107.5t-75.5 79t-109.5 29.5t-109.5 -29.5t-75.5 -79t-27 -107.5t27 -108.5
t75.5 -80.5t109.5 -30t109.5 30zM202 710h48l94 -145h-40z" />
    <glyph glyph-name="oacute" unicode="&#xf3;" horiz-adv-x="606" 
d="M172.5 29q-57.5 35 -89.5 94t-32 128t32 127.5t89.5 93.5t130.5 35t130.5 -35t89.5 -93.5t32 -127.5t-32 -128t-89.5 -94t-130.5 -35t-130.5 35zM412.5 63q48.5 30 75.5 80.5t27 108.5t-27 107.5t-75.5 79t-109.5 29.5t-109.5 -29.5t-75.5 -79t-27 -107.5t27 -108.5
t75.5 -80.5t109.5 -30t109.5 30zM252 565l94 145h48l-102 -145h-40z" />
    <glyph glyph-name="ocircumflex" unicode="&#xf4;" horiz-adv-x="606" 
d="M172.5 29q-57.5 35 -89.5 94t-32 128t32 127.5t89.5 93.5t130.5 35t130.5 -35t89.5 -93.5t32 -127.5t-32 -128t-89.5 -94t-130.5 -35t-130.5 35zM412.5 63q48.5 30 75.5 80.5t27 108.5t-27 107.5t-75.5 79t-109.5 29.5t-109.5 -29.5t-75.5 -79t-27 -107.5t27 -108.5
t75.5 -80.5t109.5 -30t109.5 30zM390 568l-87 105l-88 -105h-47l112 132h45l112 -132h-47z" />
    <glyph glyph-name="otilde" unicode="&#xf5;" horiz-adv-x="606" 
d="M172.5 29q-57.5 35 -89.5 94t-32 128t32 127.5t89.5 93.5t130.5 35t130.5 -35t89.5 -93.5t32 -127.5t-32 -128t-89.5 -94t-130.5 -35t-130.5 35zM412.5 63q48.5 30 75.5 80.5t27 108.5t-27 107.5t-75.5 79t-109.5 29.5t-109.5 -29.5t-75.5 -79t-27 -107.5t27 -108.5
t75.5 -80.5t109.5 -30t109.5 30zM143 636q42 34 90 34q22 0 36 -4t38 -13q19 -9 34 -13t35 -4q50 0 87 35v-44q-36 -29 -90 -29q-22 0 -36 4t-38 13q-19 9 -34 13t-35 4q-49 0 -87 -36v40z" />
    <glyph glyph-name="odieresis" unicode="&#xf6;" horiz-adv-x="606" 
d="M172.5 29q-57.5 35 -89.5 94t-32 128t32 127.5t89.5 93.5t130.5 35t130.5 -35t89.5 -93.5t32 -127.5t-32 -128t-89.5 -94t-130.5 -35t-130.5 35zM412.5 63q48.5 30 75.5 80.5t27 108.5t-27 107.5t-75.5 79t-109.5 29.5t-109.5 -29.5t-75.5 -79t-27 -107.5t27 -108.5
t75.5 -80.5t109.5 -30t109.5 30zM205.5 610.5q-8.5 8.5 -8.5 21.5t8.5 21.5t21.5 8.5t21.5 -8.5t8.5 -21.5t-8.5 -21.5t-21.5 -8.5t-21.5 8.5zM357.5 610.5q-8.5 8.5 -8.5 21.5t8.5 21.5t21.5 8.5t21.5 -8.5t8.5 -21.5t-8.5 -21.5t-21.5 -8.5t-21.5 8.5z" />
    <glyph glyph-name="divide" unicode="&#xf7;" horiz-adv-x="478" 
d="M49 320h380v-38h-380v38zM208.5 400.5q-8.5 8.5 -8.5 21.5t8.5 22t21.5 9t21.5 -9t8.5 -22t-8.5 -21.5t-21.5 -8.5t-21.5 8.5zM208.5 157.5q-8.5 8.5 -8.5 21.5t8.5 22t21.5 9t21.5 -9t8.5 -22t-8.5 -21.5t-21.5 -8.5t-21.5 8.5z" />
    <glyph glyph-name="oslash" unicode="&#xf8;" horiz-adv-x="606" 
d="M535.5 352q19.5 -48 19.5 -101q0 -69 -32 -128t-89.5 -94t-130.5 -35q-85 0 -149 48l-35 -42h-49l55 66q-35 36 -54.5 84t-19.5 101q0 69 32 127.5t89.5 93.5t130.5 35q85 0 149 -48l34 41h47l-53 -64q36 -36 55.5 -84zM106.5 168q15.5 -40 44.5 -70l276 331
q-55 39 -124 39q-61 0 -109.5 -29.5t-75.5 -79t-27 -107.5q0 -44 15.5 -84zM412.5 63q48.5 30 75.5 80.5t27 108.5q0 44 -15.5 84t-44.5 69l-276 -332q54 -40 124 -40q61 0 109.5 30z" />
    <glyph glyph-name="ugrave" unicode="&#xf9;" horiz-adv-x="569" 
d="M481 500v-500h-40v92q-23 -43 -67 -71.5t-100 -28.5q-55 0 -99 25.5t-70 76.5t-26 126v280h40v-270q0 -97 42.5 -148.5t116.5 -51.5q71 0 117 52.5t46 147.5v270h40zM180 710h48l94 -145h-40z" />
    <glyph glyph-name="uacute" unicode="&#xfa;" horiz-adv-x="569" 
d="M481 500v-500h-40v92q-23 -43 -67 -71.5t-100 -28.5q-55 0 -99 25.5t-70 76.5t-26 126v280h40v-270q0 -97 42.5 -148.5t116.5 -51.5q71 0 117 52.5t46 147.5v270h40zM230 565l94 145h48l-102 -145h-40z" />
    <glyph glyph-name="ucircumflex" unicode="&#xfb;" horiz-adv-x="569" 
d="M481 500v-500h-40v92q-23 -43 -67 -71.5t-100 -28.5q-55 0 -99 25.5t-70 76.5t-26 126v280h40v-270q0 -97 42.5 -148.5t116.5 -51.5q71 0 117 52.5t46 147.5v270h40zM368 568l-87 105l-88 -105h-47l112 132h45l112 -132h-47z" />
    <glyph glyph-name="udieresis" unicode="&#xfc;" horiz-adv-x="569" 
d="M481 500v-500h-40v92q-23 -43 -67 -71.5t-100 -28.5q-55 0 -99 25.5t-70 76.5t-26 126v280h40v-270q0 -97 42.5 -148.5t116.5 -51.5q71 0 117 52.5t46 147.5v270h40zM183.5 610.5q-8.5 8.5 -8.5 21.5t8.5 21.5t21.5 8.5t21.5 -8.5t8.5 -21.5t-8.5 -21.5t-21.5 -8.5
t-21.5 8.5zM335.5 610.5q-8.5 8.5 -8.5 21.5t8.5 21.5t21.5 8.5t21.5 -8.5t8.5 -21.5t-8.5 -21.5t-21.5 -8.5t-21.5 8.5z" />
    <glyph glyph-name="yacute" unicode="&#xfd;" horiz-adv-x="477" 
d="M468 500l-301 -700h-40l93 216l-211 484h43l187 -440l186 440h43zM188 565l94 145h48l-102 -145h-40z" />
    <glyph glyph-name="thorn" unicode="&#xfe;" horiz-adv-x="616" 
d="M451 471.5q54 -34.5 84 -93.5t30 -128q0 -70 -30 -129t-84 -93.5t-122 -34.5q-66 0 -119 34t-82 91v-318h-40v900h40v-319q29 57 82 91t119 34q68 0 122 -34.5zM430 61.5q45 29.5 70 79.5t25 109t-25 108.5t-70 79t-102 29.5q-53 0 -97 -26t-71 -70.5t-32 -98.5v-44
q5 -54 32 -99t71 -71t97 -26q57 0 102 29.5z" />
    <glyph glyph-name="ydieresis" unicode="&#xff;" horiz-adv-x="477" 
d="M468 500l-301 -700h-40l93 216l-211 484h43l187 -440l186 440h43zM141.5 610.5q-8.5 8.5 -8.5 21.5t8.5 21.5t21.5 8.5t21.5 -8.5t8.5 -21.5t-8.5 -21.5t-21.5 -8.5t-21.5 8.5zM293.5 610.5q-8.5 8.5 -8.5 21.5t8.5 21.5t21.5 8.5t21.5 -8.5t8.5 -21.5t-8.5 -21.5
t-21.5 -8.5t-21.5 8.5z" />
    <glyph glyph-name="Amacron" unicode="&#x100;" horiz-adv-x="620" 
d="M490 193h-360l-80 -193h-45l301 711h7l302 -711h-45zM473 232l-163 393l-163 -393h326zM186 851h248v-36h-248v36z" />
    <glyph glyph-name="amacron" unicode="&#x101;" horiz-adv-x="617" 
d="M529 500v-500h-40v120q-29 -58 -82 -92.5t-120 -34.5q-68 0 -122 34.5t-84 93.5t-30 128q0 70 30 129t84 93.5t122 34.5q67 0 120 -34.5t82 -92.5v121h40zM391 61.5q46 29.5 72 79t26 108.5t-26 109t-72 79.5t-103 29.5t-102 -29.5t-70 -79.5t-25 -109t25 -108.5t70 -79
t102 -29.5t103 29.5zM191 651h248v-36h-248v36z" />
    <glyph glyph-name="Abreve" unicode="&#x102;" horiz-adv-x="620" 
d="M490 193h-360l-80 -193h-45l301 711h7l302 -711h-45zM473 232l-163 393l-163 -393h326zM221 808q-35 34 -35 84h34q2 -38 27 -61.5t63 -23.5q39 0 63.5 23.5t26.5 61.5h34q0 -50 -35 -84t-89 -34t-89 34z" />
    <glyph glyph-name="abreve" unicode="&#x103;" horiz-adv-x="617" 
d="M529 500v-500h-40v120q-29 -58 -82 -92.5t-120 -34.5q-68 0 -122 34.5t-84 93.5t-30 128q0 70 30 129t84 93.5t122 34.5q67 0 120 -34.5t82 -92.5v121h40zM391 61.5q46 29.5 72 79t26 108.5t-26 109t-72 79.5t-103 29.5t-102 -29.5t-70 -79.5t-25 -109t25 -108.5t70 -79
t102 -29.5t103 29.5zM226 608q-35 34 -35 84h34q2 -38 27 -61.5t63 -23.5q39 0 63.5 23.5t26.5 61.5h34q0 -50 -35 -84t-89 -34t-89 34z" />
    <glyph glyph-name="Aogonek" unicode="&#x104;" horiz-adv-x="620" 
d="M490 193h-360l-80 -193h-45l301 711h7l302 -711h-45zM473 232l-163 393l-163 -393h326zM533.5 -183.5q-23.5 21.5 -23.5 56.5q0 31 17 60t48 67h40q-37 -43 -53.5 -70t-16.5 -54q0 -23 14 -35.5t33 -12.5q34 0 61 30v-41q-25 -22 -65 -22q-31 0 -54.5 21.5z" />
    <glyph glyph-name="aogonek" unicode="&#x105;" horiz-adv-x="617" 
d="M567 -142v-41q-25 -22 -65 -22q-31 0 -54.5 21.5t-23.5 56.5q0 31 17 60t48 67v120q-29 -58 -82 -92.5t-120 -34.5q-68 0 -122 34.5t-84 93.5t-30 128q0 70 30 129t84 93.5t122 34.5q67 0 120 -34.5t82 -92.5v121h40v-500q-37 -43 -53.5 -70t-16.5 -54q0 -23 14 -35.5
t33 -12.5q34 0 61 30zM391 61.5q46 29.5 72 79t26 108.5t-26 109t-72 79.5t-103 29.5t-102 -29.5t-70 -79.5t-25 -109t25 -108.5t70 -79t102 -29.5t103 29.5z" />
    <glyph glyph-name="Cacute" unicode="&#x106;" horiz-adv-x="630" 
d="M239 39q-81 49 -125.5 131.5t-44.5 179.5t44.5 179.5t125.5 131.5t185 49q87 0 157 -34v-41q-37 20 -72.5 28.5t-84.5 8.5q-91 0 -162.5 -43.5t-112 -117.5t-40.5 -161t40.5 -161t112 -117.5t162.5 -43.5q49 0 84.5 8.5t72.5 28.5v-41q-70 -34 -157 -34q-104 0 -185 49z
M346 765l94 145h48l-102 -145h-40z" />
    <glyph glyph-name="cacute" unicode="&#x107;" horiz-adv-x="541" 
d="M172 28q-58 35 -89.5 93.5t-31.5 128.5t31.5 128.5t89.5 93.5t133 35q52 0 96 -16.5t78 -47.5v-54q-29 36 -74.5 57.5t-99.5 21.5q-63 0 -112 -29.5t-75.5 -79.5t-26.5 -109t26.5 -109t75.5 -79.5t112 -29.5q54 0 99.5 21.5t74.5 57.5v-54q-34 -31 -78 -47.5t-96 -16.5
q-75 0 -133 35zM245 565l94 145h48l-102 -145h-40z" />
    <glyph glyph-name="Cdotaccent" unicode="&#x10a;" horiz-adv-x="630" 
d="M239 39q-81 49 -125.5 131.5t-44.5 179.5t44.5 179.5t125.5 131.5t185 49q87 0 157 -34v-41q-37 20 -72.5 28.5t-84.5 8.5q-91 0 -162.5 -43.5t-112 -117.5t-40.5 -161t40.5 -161t112 -117.5t162.5 -43.5q49 0 84.5 8.5t72.5 28.5v-41q-70 -34 -157 -34q-104 0 -185 49z
M375.5 810.5q-8.5 8.5 -8.5 21.5t8.5 21.5t21.5 8.5t21.5 -8.5t8.5 -21.5t-8.5 -21.5t-21.5 -8.5t-21.5 8.5z" />
    <glyph glyph-name="cdotaccent" unicode="&#x10b;" horiz-adv-x="541" 
d="M172 28q-58 35 -89.5 93.5t-31.5 128.5t31.5 128.5t89.5 93.5t133 35q52 0 96 -16.5t78 -47.5v-54q-29 36 -74.5 57.5t-99.5 21.5q-63 0 -112 -29.5t-75.5 -79.5t-26.5 -109t26.5 -109t75.5 -79.5t112 -29.5q54 0 99.5 21.5t74.5 57.5v-54q-34 -31 -78 -47.5t-96 -16.5
q-75 0 -133 35zM274.5 610.5q-8.5 8.5 -8.5 21.5t8.5 21.5t21.5 8.5t21.5 -8.5t8.5 -21.5t-8.5 -21.5t-21.5 -8.5t-21.5 8.5z" />
    <glyph glyph-name="Ccaron" unicode="&#x10c;" horiz-adv-x="630" 
d="M239 39q-81 49 -125.5 131.5t-44.5 179.5t44.5 179.5t125.5 131.5t185 49q87 0 157 -34v-41q-37 20 -72.5 28.5t-84.5 8.5q-91 0 -162.5 -43.5t-112 -117.5t-40.5 -161t40.5 -161t112 -117.5t162.5 -43.5q49 0 84.5 8.5t72.5 28.5v-41q-70 -34 -157 -34q-104 0 -185 49z
M523 900l-112 -132h-45l-112 132h47l88 -105l87 105h47z" />
    <glyph glyph-name="ccaron" unicode="&#x10d;" horiz-adv-x="541" 
d="M172 28q-58 35 -89.5 93.5t-31.5 128.5t31.5 128.5t89.5 93.5t133 35q52 0 96 -16.5t78 -47.5v-54q-29 36 -74.5 57.5t-99.5 21.5q-63 0 -112 -29.5t-75.5 -79.5t-26.5 -109t26.5 -109t75.5 -79.5t112 -29.5q54 0 99.5 21.5t74.5 57.5v-54q-34 -31 -78 -47.5t-96 -16.5
q-75 0 -133 35zM422 700l-112 -132h-45l-112 132h47l88 -105l87 105h47z" />
    <glyph glyph-name="Dcaron" unicode="&#x10e;" horiz-adv-x="675" 
d="M442.5 653.5q79.5 -46.5 121.5 -125.5t42 -176t-42 -177.5t-121.5 -127.5t-187.5 -47h-157v700h157q108 0 187.5 -46.5zM423 82.5q70 43.5 106.5 115t36.5 154.5q0 87 -36.5 157.5t-106 111t-165.5 40.5h-120v-622h120q95 0 165 43.5zM441 900l-112 -132h-45l-112 132h47
l88 -105l87 105h47z" />
    <glyph glyph-name="dcaron" unicode="&#x10f;" horiz-adv-x="653" 
d="M489 800h40v-800h-40v120q-29 -58 -82 -92.5t-120 -34.5q-68 0 -122 34.5t-84 93.5t-30 128q0 70 30 129t84 93.5t122 34.5q67 0 120 -34.5t82 -92.5v421zM635 696l-48 -174l-29 6l35 177zM391 61.5q46 29.5 72 79t26 108.5t-26 109t-72 79.5t-103 29.5t-102 -29.5
t-70 -79.5t-25 -109t25 -108.5t70 -79t102 -29.5t103 29.5z" />
    <glyph glyph-name="Dcroat" unicode="&#x110;" horiz-adv-x="675" 
d="M442.5 653.5q79.5 -46.5 121.5 -125.5t42 -176t-42 -177.5t-121.5 -127.5t-187.5 -47h-157v332h-83v39h83v329h157q108 0 187.5 -46.5zM423 82.5q70 43.5 106.5 115t36.5 154.5q0 87 -36.5 157.5t-106 111t-165.5 40.5h-120v-290h84v-39h-84v-293h120q95 0 165 43.5z" />
    <glyph glyph-name="dcroat" unicode="&#x111;" horiz-adv-x="606" 
d="M588 596h-59v-596h-40v120q-29 -58 -82 -92.5t-120 -34.5q-68 0 -122 34.5t-84 93.5t-30 128q0 70 30 129t84 93.5t122 34.5q67 0 120 -34.5t82 -92.5v217h-108v39h108v165h40v-165h59v-39zM391 61.5q46 29.5 72 79t26 108.5t-26 109t-72 79.5t-103 29.5t-102 -29.5
t-70 -79.5t-25 -109t25 -108.5t70 -79t102 -29.5t103 29.5z" />
    <glyph glyph-name="Emacron" unicode="&#x112;" horiz-adv-x="517" 
d="M138 661v-281h257v-39h-257v-302h320v-39h-360v700h360v-39h-320zM159 851h248v-36h-248v36z" />
    <glyph glyph-name="emacron" unicode="&#x113;" horiz-adv-x="567" 
d="M91 239q3 -57 29 -104.5t72.5 -75t106.5 -27.5q53 0 97.5 21t76.5 56v-52q-34 -30 -78.5 -47t-95.5 -17q-75 0 -131.5 34.5t-86.5 93.5t-30 129q0 69 30.5 128t85 93.5t123.5 34.5q70 0 122.5 -36.5t80.5 -98t28 -132.5h-430zM478 278q-10 81 -60 135t-128 54
q-54 0 -96.5 -25t-68.5 -68t-32 -96h385zM166 651h248v-36h-248v36z" />
    <glyph glyph-name="Edotaccent" unicode="&#x116;" horiz-adv-x="517" 
d="M138 661v-281h257v-39h-257v-302h320v-39h-360v700h360v-39h-320zM261.5 810.5q-8.5 8.5 -8.5 21.5t8.5 21.5t21.5 8.5t21.5 -8.5t8.5 -21.5t-8.5 -21.5t-21.5 -8.5t-21.5 8.5z" />
    <glyph glyph-name="edotaccent" unicode="&#x117;" horiz-adv-x="567" 
d="M91 239q3 -57 29 -104.5t72.5 -75t106.5 -27.5q53 0 97.5 21t76.5 56v-52q-34 -30 -78.5 -47t-95.5 -17q-75 0 -131.5 34.5t-86.5 93.5t-30 129q0 69 30.5 128t85 93.5t123.5 34.5q70 0 122.5 -36.5t80.5 -98t28 -132.5h-430zM478 278q-10 81 -60 135t-128 54
q-54 0 -96.5 -25t-68.5 -68t-32 -96h385zM268.5 610.5q-8.5 8.5 -8.5 21.5t8.5 21.5t21.5 8.5t21.5 -8.5t8.5 -21.5t-8.5 -21.5t-21.5 -8.5t-21.5 8.5z" />
    <glyph glyph-name="Eogonek" unicode="&#x118;" horiz-adv-x="517" 
d="M138 661v-281h257v-39h-257v-302h320v-39h-360v700h360v-39h-320zM376.5 -183.5q-23.5 21.5 -23.5 56.5q0 31 17 60t48 67h40q-37 -43 -53.5 -70t-16.5 -54q0 -23 14 -35.5t33 -12.5q34 0 61 30v-41q-25 -22 -65 -22q-31 0 -54.5 21.5z" />
    <glyph glyph-name="eogonek" unicode="&#x119;" horiz-adv-x="541" 
d="M91 239q3 -57 29 -104.5t72.5 -75t106.5 -27.5q53 0 97.5 21t76.5 56v-52q-4 -4 -12 -10q-44 -38 -75.5 -84t-31.5 -80q0 -28 13 -42t32 -14q29 0 58 29v-39q-26 -23 -63 -23q-32 0 -54 22t-22 63q0 30 15 62.5t41 61.5q-38 -10 -75 -10q-75 0 -131.5 34.5t-86.5 93.5
t-30 129q0 69 30.5 128t85 93.5t123.5 34.5q70 0 122.5 -36.5t80.5 -98t28 -132.5h-430zM478 278q-10 81 -60 135t-128 54q-54 0 -96.5 -25t-68.5 -68t-32 -96h385z" />
    <glyph glyph-name="Ecaron" unicode="&#x11a;" horiz-adv-x="517" 
d="M138 661v-281h257v-39h-257v-302h320v-39h-360v700h360v-39h-320zM409 900l-112 -132h-45l-112 132h47l88 -105l87 105h47z" />
    <glyph glyph-name="ecaron" unicode="&#x11b;" horiz-adv-x="567" 
d="M91 239q3 -57 29 -104.5t72.5 -75t106.5 -27.5q53 0 97.5 21t76.5 56v-52q-34 -30 -78.5 -47t-95.5 -17q-75 0 -131.5 34.5t-86.5 93.5t-30 129q0 69 30.5 128t85 93.5t123.5 34.5q70 0 122.5 -36.5t80.5 -98t28 -132.5h-430zM478 278q-10 81 -60 135t-128 54
q-54 0 -96.5 -25t-68.5 -68t-32 -96h385zM416 700l-112 -132h-45l-112 132h47l88 -105l87 105h47z" />
    <glyph glyph-name="Gbreve" unicode="&#x11e;" horiz-adv-x="779" 
d="M701 352v-260q-47 -49 -117.5 -75.5t-155.5 -26.5q-105 0 -187 49t-127 131.5t-45 179.5t45 179.5t127 131.5t187 49q79 0 145 -27t114 -75l-27 -26q-91 89 -232 89q-90 0 -163 -42.5t-114.5 -116t-41.5 -162.5q0 -88 42 -162t115 -116.5t163 -42.5q68 0 128.5 19.5
t103.5 56.5v208h-221v39h261zM331 808q-35 34 -35 84h34q2 -38 27 -61.5t63 -23.5q39 0 63.5 23.5t26.5 61.5h34q0 -50 -35 -84t-89 -34t-89 34z" />
    <glyph glyph-name="gbreve" unicode="&#x11f;" horiz-adv-x="617" 
d="M529 23q0 -75 -33 -127t-86.5 -77.5t-114.5 -25.5q-99 0 -186 58l1 46q88 -66 180 -66q57 0 102.5 23t71.5 68t26 108v91q-29 -59 -82.5 -93.5t-120.5 -34.5q-68 0 -122 34.5t-84 93.5t-30 128q0 70 30 129t84 93.5t122 34.5q67 0 119.5 -34t82.5 -92l-1 120h40z
M391 61.5q46 29.5 72 79t26 108.5t-26 109t-72 79.5t-103 29.5t-102 -29.5t-70 -79.5t-25 -109t25 -108.5t70 -79t102 -29.5t103 29.5zM216 608q-35 34 -35 84h34q2 -38 27 -61.5t63 -23.5q39 0 63.5 23.5t26.5 61.5h34q0 -50 -35 -84t-89 -34t-89 34z" />
    <glyph glyph-name="Gdotaccent" unicode="&#x120;" horiz-adv-x="779" 
d="M701 352v-260q-47 -49 -117.5 -75.5t-155.5 -26.5q-105 0 -187 49t-127 131.5t-45 179.5t45 179.5t127 131.5t187 49q79 0 145 -27t114 -75l-27 -26q-91 89 -232 89q-90 0 -163 -42.5t-114.5 -116t-41.5 -162.5q0 -88 42 -162t115 -116.5t163 -42.5q68 0 128.5 19.5
t103.5 56.5v208h-221v39h261zM398.5 810.5q-8.5 8.5 -8.5 21.5t8.5 21.5t21.5 8.5t21.5 -8.5t8.5 -21.5t-8.5 -21.5t-21.5 -8.5t-21.5 8.5z" />
    <glyph glyph-name="gdotaccent" unicode="&#x121;" horiz-adv-x="617" 
d="M529 23q0 -75 -33 -127t-86.5 -77.5t-114.5 -25.5q-99 0 -186 58l1 46q88 -66 180 -66q57 0 102.5 23t71.5 68t26 108v91q-29 -59 -82.5 -93.5t-120.5 -34.5q-68 0 -122 34.5t-84 93.5t-30 128q0 70 30 129t84 93.5t122 34.5q67 0 119.5 -34t82.5 -92l-1 120h40z
M391 61.5q46 29.5 72 79t26 108.5t-26 109t-72 79.5t-103 29.5t-102 -29.5t-70 -79.5t-25 -109t25 -108.5t70 -79t102 -29.5t103 29.5zM283.5 610.5q-8.5 8.5 -8.5 21.5t8.5 21.5t21.5 8.5t21.5 -8.5t8.5 -21.5t-8.5 -21.5t-21.5 -8.5t-21.5 8.5z" />
    <glyph glyph-name="Gcommaaccent" unicode="&#x122;" horiz-adv-x="779" 
d="M701 352v-260q-47 -49 -117.5 -75.5t-155.5 -26.5q-105 0 -187 49t-127 131.5t-45 179.5t45 179.5t127 131.5t187 49q79 0 145 -27t114 -75l-27 -26q-91 89 -232 89q-90 0 -163 -42.5t-114.5 -116t-41.5 -162.5q0 -88 42 -162t115 -116.5t163 -42.5q68 0 128.5 19.5
t103.5 56.5v208h-221v39h261zM427 -50h46l-67 -160h-33z" />
    <glyph glyph-name="gcommaaccent" unicode="&#x123;" horiz-adv-x="617" 
d="M529 23q0 -75 -33 -127t-86.5 -77.5t-114.5 -25.5q-99 0 -186 58l1 46q88 -66 180 -66q57 0 102.5 23t71.5 68t26 108v91q-29 -59 -82.5 -93.5t-120.5 -34.5q-68 0 -122 34.5t-84 93.5t-30 128q0 70 30 129t84 93.5t122 34.5q67 0 119.5 -34t82.5 -92l-1 120h40z
M391 61.5q46 29.5 72 79t26 108.5t-26 109t-72 79.5t-103 29.5t-102 -29.5t-70 -79.5t-25 -109t25 -108.5t70 -79t102 -29.5t103 29.5zM322 734h33l-54 -161h-46z" />
    <glyph glyph-name="Hbar" unicode="&#x126;" horiz-adv-x="703" 
d="M652 500h-47v-500h-40v336h-427v-336h-40v500h-46v39h46v161h40v-161h427v161h40v-161h47v-39zM565 500h-427v-125h427v125z" />
    <glyph glyph-name="hbar" unicode="&#x127;" horiz-adv-x="576" 
d="M401 482.5q44 -25.5 70 -76.5t26 -126v-280h-40v270q0 97 -42.5 148.5t-116.5 51.5q-71 0 -117 -52.5t-46 -147.5v-270h-40v619h-60v39h60v142h40v-142h107v-39h-107v-211q23 43 67 71.5t100 28.5q55 0 99 -25.5z" />
    <glyph glyph-name="Imacron" unicode="&#x12a;" horiz-adv-x="236" 
d="M98 700h40v-700h-40v700zM-6 851h248v-36h-248v36z" />
    <glyph glyph-name="imacron" unicode="&#x12b;" horiz-adv-x="278" 
d="M263 651v-36h-248v36h248zM119 500h40v-500h-40v500z" />
    <glyph glyph-name="Iogonek" unicode="&#x12e;" horiz-adv-x="236" 
d="M98 700h40v-700h-40v700zM56.5 -183.5q-23.5 21.5 -23.5 56.5q0 31 17 60t48 67h40q-37 -43 -53.5 -70t-16.5 -54q0 -23 14 -35.5t33 -12.5q34 0 61 30v-41q-25 -22 -65 -22q-31 0 -54.5 21.5z" />
    <glyph glyph-name="iogonek" unicode="&#x12f;" horiz-adv-x="180" 
d="M68.5 610.5q-8.5 8.5 -8.5 21.5t8.5 21.5t21.5 8.5t21.5 -8.5t8.5 -21.5t-8.5 -21.5t-21.5 -8.5t-21.5 8.5zM148 -142v-41q-25 -22 -65 -22q-31 0 -54.5 21.5t-23.5 56.5q0 31 17 60t48 67v500h40v-500q-37 -43 -53.5 -70t-16.5 -54q0 -23 14 -35.5t33 -12.5q34 0 61 30z
" />
    <glyph glyph-name="Idotaccent" unicode="&#x130;" horiz-adv-x="236" 
d="M98 700h40v-700h-40v700zM96.5 810.5q-8.5 8.5 -8.5 21.5t8.5 21.5t21.5 8.5t21.5 -8.5t8.5 -21.5t-8.5 -21.5t-21.5 -8.5t-21.5 8.5z" />
    <glyph glyph-name="dotlessi" unicode="&#x131;" horiz-adv-x="180" 
d="M70 500h40v-500h-40v500z" />
    <glyph glyph-name="Kcommaaccent" unicode="&#x136;" horiz-adv-x="535" 
d="M469 0l-331 323v-323h-40v700h40v-350l329 350h52l-342 -362l348 -338h-56zM277 -50h46l-67 -160h-33z" />
    <glyph glyph-name="kcommaaccent" unicode="&#x137;" horiz-adv-x="460" 
d="M394 0l-266 230v-230h-40v800h40v-539l258 239h55l-275 -254l285 -246h-57zM239 -50h46l-67 -160h-33z" />
    <glyph glyph-name="Lacute" unicode="&#x139;" horiz-adv-x="441" 
d="M426 39v-39h-328v700h40v-661h288zM141 765l94 145h48l-102 -145h-40z" />
    <glyph glyph-name="lacute" unicode="&#x13a;" horiz-adv-x="216" 
d="M88 800h40v-800h-40v800zM57 865l94 145h48l-102 -145h-40z" />
    <glyph glyph-name="Lcommaaccent" unicode="&#x13b;" horiz-adv-x="441" 
d="M426 39v-39h-328v700h40v-661h288zM231 -50h46l-67 -160h-33z" />
    <glyph glyph-name="lcommaaccent" unicode="&#x13c;" horiz-adv-x="216" 
d="M88 800h40v-800h-40v800zM112 -50h46l-67 -160h-33z" />
    <glyph glyph-name="Lcaron" unicode="&#x13d;" horiz-adv-x="441" 
d="M426 39v-39h-328v700h40v-661h288zM225 544l35 177l42 -9l-48 -174z" />
    <glyph glyph-name="lcaron" unicode="&#x13e;" horiz-adv-x="262" 
d="M88 800h40v-800h-40v800zM239 712l-48 -174l-29 6l35 177z" />
    <glyph glyph-name="Lslash" unicode="&#x141;" horiz-adv-x="441" 
d="M426 39v-39h-328v360l-63 -35v42l63 35v298h40v-275l158 88v-42l-158 -88v-344h288z" />
    <glyph glyph-name="lslash" unicode="&#x142;" horiz-adv-x="255" 
d="M220 462l-72 -44v-418h-40v393l-73 -45v42l73 45v365h40v-340l72 44v-42z" />
    <glyph glyph-name="Nacute" unicode="&#x143;" horiz-adv-x="741" 
d="M643 700v-711h-8l-497 622v-611h-40v714h8l497 -623v609h40zM320 765l94 145h48l-102 -145h-40z" />
    <glyph glyph-name="nacute" unicode="&#x144;" horiz-adv-x="569" 
d="M394 482.5q44 -25.5 70 -76.5t26 -126v-280h-40v270q0 97 -42.5 148.5t-116.5 51.5q-71 0 -117 -52.5t-46 -147.5v-270h-40v500h40v-92q23 43 67 71.5t100 28.5q55 0 99 -25.5zM231 565l94 145h48l-102 -145h-40z" />
    <glyph glyph-name="Ncommaaccent" unicode="&#x145;" horiz-adv-x="741" 
d="M643 700v-711h-8l-497 622v-611h-40v714h8l497 -623v609h40zM375 -50h46l-67 -160h-33z" />
    <glyph glyph-name="ncommaaccent" unicode="&#x146;" horiz-adv-x="569" 
d="M394 482.5q44 -25.5 70 -76.5t26 -126v-280h-40v270q0 97 -42.5 148.5t-116.5 51.5q-71 0 -117 -52.5t-46 -147.5v-270h-40v500h40v-92q23 43 67 71.5t100 28.5q55 0 99 -25.5zM286 -50h46l-67 -160h-33z" />
    <glyph glyph-name="Ncaron" unicode="&#x147;" horiz-adv-x="741" 
d="M643 700v-711h-8l-497 622v-611h-40v714h8l497 -623v609h40zM497 900l-112 -132h-45l-112 132h47l88 -105l87 105h47z" />
    <glyph glyph-name="ncaron" unicode="&#x148;" horiz-adv-x="569" 
d="M394 482.5q44 -25.5 70 -76.5t26 -126v-280h-40v270q0 97 -42.5 148.5t-116.5 51.5q-71 0 -117 -52.5t-46 -147.5v-270h-40v500h40v-92q23 43 67 71.5t100 28.5q55 0 99 -25.5zM408 700l-112 -132h-45l-112 132h47l88 -105l87 105h47z" />
    <glyph glyph-name="Eng" unicode="&#x14a;" horiz-adv-x="741" 
d="M643 700v-818q0 -35 -22.5 -60.5t-60.5 -25.5q-35 0 -65 17v41q32 -19 61 -19q23 0 35 15t12 44v135l-465 582v-611h-40v714h8l497 -623v609h40z" />
    <glyph glyph-name="eng" unicode="&#x14b;" horiz-adv-x="578" 
d="M394 482.5q44 -25.5 70 -76.5t26 -126v-398q0 -35 -22.5 -60.5t-60.5 -25.5q-35 0 -65 17v41q32 -19 61 -19q23 0 35 15t12 44v376q0 97 -42.5 148.5t-116.5 51.5q-71 0 -117 -52.5t-46 -147.5v-270h-40v500h40v-92q23 43 67 71.5t100 28.5q55 0 99 -25.5z" />
    <glyph glyph-name="Omacron" unicode="&#x14c;" horiz-adv-x="858" 
d="M242 39q-82 49 -127.5 131.5t-45.5 179.5t45.5 179.5t127.5 131.5t187 49t187 -49t127.5 -131.5t45.5 -179.5t-45.5 -179.5t-127.5 -131.5t-187 -49t-187 49zM594 73q73 44 114 117.5t41 159.5t-41 159.5t-114 117.5t-165 44t-165 -44t-114 -117.5t-41 -159.5t41 -159.5
t114 -117.5t165 -44t165 44zM305 851h248v-36h-248v36z" />
    <glyph glyph-name="omacron" unicode="&#x14d;" horiz-adv-x="606" 
d="M172.5 29q-57.5 35 -89.5 94t-32 128t32 127.5t89.5 93.5t130.5 35t130.5 -35t89.5 -93.5t32 -127.5t-32 -128t-89.5 -94t-130.5 -35t-130.5 35zM412.5 63q48.5 30 75.5 80.5t27 108.5t-27 107.5t-75.5 79t-109.5 29.5t-109.5 -29.5t-75.5 -79t-27 -107.5t27 -108.5
t75.5 -80.5t109.5 -30t109.5 30zM179 651h248v-36h-248v36z" />
    <glyph glyph-name="Ohungarumlaut" unicode="&#x150;" horiz-adv-x="858" 
d="M242 39q-82 49 -127.5 131.5t-45.5 179.5t45.5 179.5t127.5 131.5t187 49t187 -49t127.5 -131.5t45.5 -179.5t-45.5 -179.5t-127.5 -131.5t-187 -49t-187 49zM594 73q73 44 114 117.5t41 159.5t-41 159.5t-114 117.5t-165 44t-165 -44t-114 -117.5t-41 -159.5t41 -159.5
t114 -117.5t165 -44t165 44zM345 755l94 145h48l-102 -145h-40zM536 900h48l-102 -145h-40z" />
    <glyph glyph-name="ohungarumlaut" unicode="&#x151;" horiz-adv-x="606" 
d="M172.5 29q-57.5 35 -89.5 94t-32 128t32 127.5t89.5 93.5t130.5 35t130.5 -35t89.5 -93.5t32 -127.5t-32 -128t-89.5 -94t-130.5 -35t-130.5 35zM412.5 63q48.5 30 75.5 80.5t27 108.5t-27 107.5t-75.5 79t-109.5 29.5t-109.5 -29.5t-75.5 -79t-27 -107.5t27 -108.5
t75.5 -80.5t109.5 -30t109.5 30zM219 555l94 145h48l-102 -145h-40zM410 700h48l-102 -145h-40z" />
    <glyph glyph-name="OE" unicode="&#x152;" horiz-adv-x="1167" 
d="M788 661v-281h257v-39h-256l-1 -19v-283h320v-39h-360v179q-45 -87 -128.5 -138t-190.5 -51q-105 0 -187 49t-127.5 131.5t-45.5 179.5t45.5 179.5t127.5 131.5t187 49q107 0 190.5 -51.5t128.5 -137.5v179h360v-39h-320zM586.5 68.5q70.5 39.5 113 107t48.5 148.5v52
q-6 81 -48.5 148.5t-113 107t-157.5 39.5q-92 0 -165 -44t-114 -117.5t-41 -159.5t41 -159.5t114 -117.5t165 -44q87 0 157.5 39.5z" />
    <glyph glyph-name="oe" unicode="&#x153;" horiz-adv-x="1031" 
d="M555 239q3 -57 29 -104.5t72.5 -75t106.5 -27.5q53 0 97.5 21t76.5 56v-52q-34 -30 -78.5 -47t-95.5 -17q-83 0 -142.5 42t-86.5 111q-29 -68 -90 -110t-141 -42q-73 0 -130.5 35t-89.5 94t-32 128t32 127.5t89.5 93.5t130.5 35q80 0 141.5 -42t90.5 -111q27 69 85 110.5
t134 41.5q70 0 122.5 -36.5t80.5 -98t28 -132.5h-430zM412.5 63q48.5 30 75.5 80.5t27 108.5t-27 107.5t-75.5 79t-109.5 29.5t-109.5 -29.5t-75.5 -79t-27 -107.5t27 -108.5t75.5 -80.5t109.5 -30t109.5 30zM942 278q-10 81 -60 135t-128 54q-54 0 -96.5 -25t-68.5 -68
t-32 -96h385z" />
    <glyph glyph-name="Racute" unicode="&#x154;" horiz-adv-x="526" 
d="M450 0l-181 293q-6 -1 -20 -1h-111v-292h-40v700h152q69 0 120.5 -26.5t79.5 -73t28 -104.5q0 -74 -45 -128t-124 -70l188 -298h-47zM254 331q81 0 132 46t51 119t-51 119t-132 46h-116v-330h116zM212 765l94 145h48l-102 -145h-40z" />
    <glyph glyph-name="racute" unicode="&#x155;" horiz-adv-x="290" 
d="M184.5 476.5q36.5 29.5 87.5 29.5v-42q-42 1 -75 -23.5t-51 -67t-18 -92.5v-281h-40v500h40v-98q20 45 56.5 74.5zM101 565l94 145h48l-102 -145h-40z" />
    <glyph glyph-name="Rcommaaccent" unicode="&#x156;" horiz-adv-x="526" 
d="M450 0l-181 293q-6 -1 -20 -1h-111v-292h-40v700h152q69 0 120.5 -26.5t79.5 -73t28 -104.5q0 -74 -45 -128t-124 -70l188 -298h-47zM254 331q81 0 132 46t51 119t-51 119t-132 46h-116v-330h116zM255 -50h46l-67 -160h-33z" />
    <glyph glyph-name="rcommaaccent" unicode="&#x157;" horiz-adv-x="290" 
d="M184.5 476.5q36.5 29.5 87.5 29.5v-42q-42 1 -75 -23.5t-51 -67t-18 -92.5v-281h-40v500h40v-98q20 45 56.5 74.5zM135 -50h46l-67 -160h-33z" />
    <glyph glyph-name="Rcaron" unicode="&#x158;" horiz-adv-x="526" 
d="M450 0l-181 293q-6 -1 -20 -1h-111v-292h-40v700h152q69 0 120.5 -26.5t79.5 -73t28 -104.5q0 -74 -45 -128t-124 -70l188 -298h-47zM254 331q81 0 132 46t51 119t-51 119t-132 46h-116v-330h116zM389 900l-112 -132h-45l-112 132h47l88 -105l87 105h47z" />
    <glyph glyph-name="rcaron" unicode="&#x159;" horiz-adv-x="290" 
d="M184.5 476.5q36.5 29.5 87.5 29.5v-42q-42 1 -75 -23.5t-51 -67t-18 -92.5v-281h-40v500h40v-98q20 45 56.5 74.5zM278 700l-112 -132h-45l-112 132h47l88 -105l87 105h47z" />
    <glyph glyph-name="Sacute" unicode="&#x15a;" horiz-adv-x="497" 
d="M136 25q-54 33 -87 83l30 27q33 -48 79 -76t96 -28q66 0 110.5 38.5t44.5 98.5q0 49 -23 82.5t-56.5 54t-89.5 46.5q-58 27 -92 48t-57.5 56t-23.5 87q0 49 24.5 86.5t66.5 58.5t93 21q99 0 180 -91l-25 -28q-31 35 -71 57.5t-84 22.5q-62 0 -103.5 -36t-41.5 -90
q0 -41 21 -70t51.5 -47t83.5 -43q60 -27 97 -50.5t63 -63t26 -98.5q0 -48 -23.5 -89t-68 -65.5t-104.5 -24.5q-62 0 -116 33zM202 765l94 145h48l-102 -145h-40z" />
    <glyph glyph-name="sacute" unicode="&#x15b;" horiz-adv-x="395" 
d="M112 15.5q-42 22.5 -65 56.5l30 28q23 -31 55 -49.5t68 -18.5q47 0 78.5 25.5t31.5 67.5q0 32 -16 53.5t-39.5 35t-64.5 30.5q-44 19 -70 34.5t-44.5 41t-18.5 64.5q0 54 39.5 88.5t99.5 34.5q43 0 80.5 -20.5t63.5 -50.5l-26 -27q-53 59 -119 59q-43 0 -71 -24t-28 -59
q0 -40 27.5 -61.5t84.5 -44.5q46 -20 73.5 -36t47 -44.5t19.5 -71.5q0 -58 -41.5 -96t-108.5 -38q-44 0 -86 22.5zM149 565l94 145h48l-102 -145h-40z" />
    <glyph glyph-name="Scedilla" unicode="&#x15e;" horiz-adv-x="497" 
d="M127 473q21 -29 51.5 -47t83.5 -43q60 -27 97 -50.5t63 -63t26 -98.5q0 -45 -21.5 -84.5t-61.5 -64.5t-94 -29l-16 -35q35 1 61 -22t26 -58t-27 -59t-67 -24q-48 0 -82 29v40q38 -36 82 -36q25 0 42.5 14t17.5 36t-16 36t-44 14q-23 0 -44 -14l-4 2l31 77
q-56 6 -103.5 38t-78.5 77l30 27q33 -48 79 -76t96 -28q66 0 110.5 38.5t44.5 98.5q0 49 -23 82.5t-56.5 54t-89.5 46.5q-58 27 -92 48t-57.5 56t-23.5 87q0 49 24.5 86.5t66.5 58.5t93 21q99 0 180 -91l-25 -28q-31 35 -71 57.5t-84 22.5q-62 0 -103.5 -36t-41.5 -90
q0 -41 21 -70z" />
    <glyph glyph-name="scedilla" unicode="&#x15f;" horiz-adv-x="395" 
d="M123.5 323.5q27.5 -21.5 84.5 -44.5q46 -20 73.5 -36t47 -44.5t19.5 -71.5q0 -53 -35.5 -90t-94.5 -43l-16 -36q35 1 61 -22t26 -58t-27 -59t-67 -24q-48 0 -82 29v40q38 -36 82 -36q25 0 42.5 14t17.5 36t-16 36t-44 14q-23 0 -44 -14l-4 2l32 78q-39 5 -75 27t-57 51
l30 28q23 -31 55 -49.5t68 -18.5q47 0 78.5 25.5t31.5 67.5q0 32 -16 53.5t-39.5 35t-64.5 30.5q-44 19 -70 34.5t-44.5 41t-18.5 64.5q0 54 39.5 88.5t99.5 34.5q43 0 80.5 -20.5t63.5 -50.5l-26 -27q-53 59 -119 59q-43 0 -71 -24t-28 -59q0 -40 27.5 -61.5z" />
    <glyph glyph-name="Scaron" unicode="&#x160;" horiz-adv-x="497" 
d="M136 25q-54 33 -87 83l30 27q33 -48 79 -76t96 -28q66 0 110.5 38.5t44.5 98.5q0 49 -23 82.5t-56.5 54t-89.5 46.5q-58 27 -92 48t-57.5 56t-23.5 87q0 49 24.5 86.5t66.5 58.5t93 21q99 0 180 -91l-25 -28q-31 35 -71 57.5t-84 22.5q-62 0 -103.5 -36t-41.5 -90
q0 -41 21 -70t51.5 -47t83.5 -43q60 -27 97 -50.5t63 -63t26 -98.5q0 -48 -23.5 -89t-68 -65.5t-104.5 -24.5q-62 0 -116 33zM379 900l-112 -132h-45l-112 132h47l88 -105l87 105h47z" />
    <glyph glyph-name="scaron" unicode="&#x161;" horiz-adv-x="395" 
d="M112 15.5q-42 22.5 -65 56.5l30 28q23 -31 55 -49.5t68 -18.5q47 0 78.5 25.5t31.5 67.5q0 32 -16 53.5t-39.5 35t-64.5 30.5q-44 19 -70 34.5t-44.5 41t-18.5 64.5q0 54 39.5 88.5t99.5 34.5q43 0 80.5 -20.5t63.5 -50.5l-26 -27q-53 59 -119 59q-43 0 -71 -24t-28 -59
q0 -40 27.5 -61.5t84.5 -44.5q46 -20 73.5 -36t47 -44.5t19.5 -71.5q0 -58 -41.5 -96t-108.5 -38q-44 0 -86 22.5zM326 700l-112 -132h-45l-112 132h47l88 -105l87 105h47z" />
    <glyph glyph-name="uni0162" unicode="&#x162;" horiz-adv-x="458" 
d="M443 661h-193v-661h-40v661h-195v39h428v-39zM292 -64q26 -23 26 -58t-27 -59t-67 -24q-48 0 -82 29v40q38 -36 82 -36q25 0 42.5 14t17.5 36t-16 36t-44 14q-23 0 -44 -14l-4 2l34 84h40l-19 -42q35 1 61 -22z" />
    <glyph glyph-name="uni0163" unicode="&#x163;" horiz-adv-x="260" 
d="M242 461h-103v-461h-40v461h-64v39h64v134h40v-134h103v-39zM182 -64q26 -23 26 -58t-27 -59t-67 -24q-48 0 -82 29v40q38 -36 82 -36q25 0 42.5 14t17.5 36t-16 36t-44 14q-23 0 -44 -14l-4 2l34 84h40l-19 -42q35 1 61 -22z" />
    <glyph glyph-name="Tcaron" unicode="&#x164;" horiz-adv-x="458" 
d="M443 661h-193v-661h-40v661h-195v39h428v-39zM355 900l-112 -132h-45l-112 132h47l88 -105l87 105h47z" />
    <glyph glyph-name="tcaron" unicode="&#x165;" horiz-adv-x="260" 
d="M201 538l-29 6l35 177l42 -9zM139 500h103v-39h-103v-461h-40v461h-64v39h64v134h40v-134z" />
    <glyph glyph-name="Tbar" unicode="&#x166;" horiz-adv-x="458" 
d="M250 661v-290h114v-39h-114v-332h-40v332h-115v39h115v290h-195v39h428v-39h-193z" />
    <glyph glyph-name="tbar" unicode="&#x167;" horiz-adv-x="260" 
d="M139 461v-120h103v-39h-103v-302h-40v302h-64v39h64v120h-64v39h64v134h40v-134h103v-39h-103z" />
    <glyph glyph-name="Umacron" unicode="&#x16a;" horiz-adv-x="608" 
d="M186.5 19q-51.5 28 -80 78.5t-28.5 116.5v486h40v-477q0 -93 51.5 -143t134.5 -50t134.5 50t51.5 143v477h40v-486q0 -66 -28.5 -116.5t-79.5 -78.5t-118 -28q-66 0 -117.5 28zM180 851h248v-36h-248v36z" />
    <glyph glyph-name="umacron" unicode="&#x16b;" horiz-adv-x="569" 
d="M481 500v-500h-40v92q-23 -43 -67 -71.5t-100 -28.5q-55 0 -99 25.5t-70 76.5t-26 126v280h40v-270q0 -97 42.5 -148.5t116.5 -51.5q71 0 117 52.5t46 147.5v270h40zM157 651h248v-36h-248v36z" />
    <glyph glyph-name="Uring" unicode="&#x16e;" horiz-adv-x="608" 
d="M186.5 19q-51.5 28 -80 78.5t-28.5 116.5v486h40v-477q0 -93 51.5 -143t134.5 -50t134.5 50t51.5 143v477h40v-486q0 -66 -28.5 -116.5t-79.5 -78.5t-118 -28q-66 0 -117.5 28zM240.5 774.5q-26.5 26.5 -26.5 63.5t26.5 63.5t63.5 26.5t63.5 -26t26.5 -64
q0 -37 -26.5 -63.5t-63.5 -26.5t-63.5 26.5zM343.5 798.5q16.5 16.5 16.5 39.5t-16.5 39.5t-39.5 16.5t-39.5 -16.5t-16.5 -39.5q0 -22 16.5 -39t39.5 -17t39.5 16.5z" />
    <glyph glyph-name="uring" unicode="&#x16f;" horiz-adv-x="569" 
d="M481 500v-500h-40v92q-23 -43 -67 -71.5t-100 -28.5q-55 0 -99 25.5t-70 76.5t-26 126v280h40v-270q0 -97 42.5 -148.5t116.5 -51.5q71 0 117 52.5t46 147.5v270h40zM217.5 574.5q-26.5 26.5 -26.5 63.5t26.5 63.5t63.5 26.5t63.5 -26t26.5 -64q0 -37 -26.5 -63.5
t-63.5 -26.5t-63.5 26.5zM320.5 598.5q16.5 16.5 16.5 39.5t-16.5 39.5t-39.5 16.5t-39.5 -16.5t-16.5 -39.5q0 -22 16.5 -39t39.5 -17t39.5 16.5z" />
    <glyph glyph-name="Uhungarumlaut" unicode="&#x170;" horiz-adv-x="608" 
d="M186.5 19q-51.5 28 -80 78.5t-28.5 116.5v486h40v-477q0 -93 51.5 -143t134.5 -50t134.5 50t51.5 143v477h40v-486q0 -66 -28.5 -116.5t-79.5 -78.5t-118 -28q-66 0 -117.5 28zM220 755l94 145h48l-102 -145h-40zM411 900h48l-102 -145h-40z" />
    <glyph glyph-name="uhungarumlaut" unicode="&#x171;" horiz-adv-x="569" 
d="M481 500v-500h-40v92q-23 -43 -67 -71.5t-100 -28.5q-55 0 -99 25.5t-70 76.5t-26 126v280h40v-270q0 -97 42.5 -148.5t116.5 -51.5q71 0 117 52.5t46 147.5v270h40zM197 555l94 145h48l-102 -145h-40zM388 700h48l-102 -145h-40z" />
    <glyph glyph-name="Uogonek" unicode="&#x172;" horiz-adv-x="618" 
d="M530 700v-486q0 -54 -19 -98t-55 -74l-10 -8q-44 -36 -66 -74.5t-22 -76.5q0 -28 12.5 -41.5t32.5 -13.5q29 0 58 29v-40q-26 -23 -63 -23q-32 0 -55 22.5t-23 62.5q0 30 13 61.5t37 58.5q-32 -8 -66 -8q-66 0 -117.5 28t-80 78.5t-28.5 116.5v486h40v-477
q0 -93 51.5 -143t134.5 -50t134.5 50t51.5 143v477h40z" />
    <glyph glyph-name="uogonek" unicode="&#x173;" horiz-adv-x="569" 
d="M519 -142v-41q-25 -22 -65 -22q-31 0 -54.5 21.5t-23.5 56.5q0 31 17 60t48 67v92q-23 -43 -67 -71.5t-100 -28.5q-55 0 -99 25.5t-70 76.5t-26 126v280h40v-270q0 -97 42.5 -148.5t116.5 -51.5q71 0 117 52.5t46 147.5v270h40v-500q-37 -43 -53.5 -70t-16.5 -54
q0 -23 14 -35.5t33 -12.5q34 0 61 30z" />
    <glyph glyph-name="Wcircumflex" unicode="&#x174;" horiz-adv-x="986" 
d="M983 700l-325 -713h-15l-149 338l-150 -338h-15l-326 713l43 1l291 -634l134 305l-142 328l42 1l123 -286l122 286l42 -1l-142 -328l134 -310l291 639zM581 768l-87 105l-88 -105h-47l112 132h45l112 -132h-47z" />
    <glyph glyph-name="wcircumflex" unicode="&#x175;" horiz-adv-x="772" 
d="M768 500l-259 -508h-12l-112 226l-111 -226h-12l-258 508h44l221 -438l96 198l-117 240h44l94 -199l93 199h44l-117 -240l97 -198l220 438h45zM473 568l-87 105l-88 -105h-47l112 132h45l112 -132h-47z" />
    <glyph glyph-name="Ycircumflex" unicode="&#x176;" horiz-adv-x="554" 
d="M297 247v-247h-40v247l-252 453h46l226 -416l226 416h46zM364 768l-87 105l-88 -105h-47l112 132h45l112 -132h-47z" />
    <glyph glyph-name="ycircumflex" unicode="&#x177;" horiz-adv-x="477" 
d="M468 500l-301 -700h-40l93 216l-211 484h43l187 -440l186 440h43zM326 568l-87 105l-88 -105h-47l112 132h45l112 -132h-47z" />
    <glyph glyph-name="Ydieresis" unicode="&#x178;" horiz-adv-x="554" 
d="M297 247v-247h-40v247l-252 453h46l226 -416l226 416h46zM179.5 810.5q-8.5 8.5 -8.5 21.5t8.5 21.5t21.5 8.5t21.5 -8.5t8.5 -21.5t-8.5 -21.5t-21.5 -8.5t-21.5 8.5zM331.5 810.5q-8.5 8.5 -8.5 21.5t8.5 21.5t21.5 8.5t21.5 -8.5t8.5 -21.5t-8.5 -21.5t-21.5 -8.5
t-21.5 8.5z" />
    <glyph glyph-name="Zacute" unicode="&#x179;" horiz-adv-x="493" 
d="M454 688l-356 -649h350v-39h-409v14l355 647h-351v39h411v-12zM196 765l94 145h48l-102 -145h-40z" />
    <glyph glyph-name="zacute" unicode="&#x17a;" horiz-adv-x="438" 
d="M412 488l-319 -449h314v-39h-380v14l319 447h-320v39h386v-12zM169 565l94 145h48l-102 -145h-40z" />
    <glyph glyph-name="Zdotaccent" unicode="&#x17b;" horiz-adv-x="493" 
d="M454 688l-356 -649h350v-39h-409v14l355 647h-351v39h411v-12zM225.5 810.5q-8.5 8.5 -8.5 21.5t8.5 21.5t21.5 8.5t21.5 -8.5t8.5 -21.5t-8.5 -21.5t-21.5 -8.5t-21.5 8.5z" />
    <glyph glyph-name="zdotaccent" unicode="&#x17c;" horiz-adv-x="438" 
d="M412 488l-319 -449h314v-39h-380v14l319 447h-320v39h386v-12zM198.5 610.5q-8.5 8.5 -8.5 21.5t8.5 21.5t21.5 8.5t21.5 -8.5t8.5 -21.5t-8.5 -21.5t-21.5 -8.5t-21.5 8.5z" />
    <glyph glyph-name="Zcaron" unicode="&#x17d;" horiz-adv-x="493" 
d="M454 688l-356 -649h350v-39h-409v14l355 647h-351v39h411v-12zM373 900l-112 -132h-45l-112 132h47l88 -105l87 105h47z" />
    <glyph glyph-name="zcaron" unicode="&#x17e;" horiz-adv-x="438" 
d="M412 488l-319 -449h314v-39h-380v14l319 447h-320v39h386v-12zM346 700l-112 -132h-45l-112 132h47l88 -105l87 105h47z" />
    <glyph glyph-name="florin" unicode="&#x192;" horiz-adv-x="439" 
d="M362 672q-82 0 -94 -96l-17 -138h147v-38h-151l-35 -286q-7 -59 -42 -90.5t-90 -31.5q-29 0 -62 9v37q31 -10 59 -10q41 0 65.5 24.5t30.5 72.5l34 275h-145v38h149l18 149q7 59 41 90t89 31q29 0 62 -9v-37q-31 10 -59 10z" />
    <glyph glyph-name="Scommaaccent" unicode="&#x218;" horiz-adv-x="497" 
d="M136 25q-54 33 -87 83l30 27q33 -48 79 -76t96 -28q66 0 110.5 38.5t44.5 98.5q0 49 -23 82.5t-56.5 54t-89.5 46.5q-58 27 -92 48t-57.5 56t-23.5 87q0 49 24.5 86.5t66.5 58.5t93 21q99 0 180 -91l-25 -28q-31 35 -71 57.5t-84 22.5q-62 0 -103.5 -36t-41.5 -90
q0 -41 21 -70t51.5 -47t83.5 -43q60 -27 97 -50.5t63 -63t26 -98.5q0 -48 -23.5 -89t-68 -65.5t-104.5 -24.5q-62 0 -116 33zM257 -50h46l-67 -160h-33z" />
    <glyph glyph-name="scommaaccent" unicode="&#x219;" horiz-adv-x="395" 
d="M112 15.5q-42 22.5 -65 56.5l30 28q23 -31 55 -49.5t68 -18.5q47 0 78.5 25.5t31.5 67.5q0 32 -16 53.5t-39.5 35t-64.5 30.5q-44 19 -70 34.5t-44.5 41t-18.5 64.5q0 54 39.5 88.5t99.5 34.5q43 0 80.5 -20.5t63.5 -50.5l-26 -27q-53 59 -119 59q-43 0 -71 -24t-28 -59
q0 -40 27.5 -61.5t84.5 -44.5q46 -20 73.5 -36t47 -44.5t19.5 -71.5q0 -58 -41.5 -96t-108.5 -38q-44 0 -86 22.5zM204 -50h46l-67 -160h-33z" />
    <glyph glyph-name="uni021A" unicode="&#x21a;" horiz-adv-x="458" 
d="M443 661h-193v-661h-40v661h-195v39h428v-39zM233 -50h46l-67 -160h-33z" />
    <glyph glyph-name="uni021B" unicode="&#x21b;" horiz-adv-x="260" 
d="M242 461h-103v-461h-40v461h-64v39h64v134h40v-134h103v-39zM123 -50h46l-67 -160h-33z" />
    <glyph glyph-name="uni0237" unicode="&#x237;" horiz-adv-x="40" 
d="M0 500h40v-700h-40v700z" />
    <glyph glyph-name="circumflex" unicode="&#x2c6;" horiz-adv-x="315" 
d="M245 568l-87 105l-88 -105h-47l112 132h45l112 -132h-47z" />
    <glyph glyph-name="caron" unicode="&#x2c7;" horiz-adv-x="315" 
d="M292 700l-112 -132h-45l-112 132h47l88 -105l87 105h47z" />
    <glyph glyph-name="breve" unicode="&#x2d8;" horiz-adv-x="294" 
d="M58 608q-35 34 -35 84h34q2 -38 27 -61.5t63 -23.5q39 0 63.5 23.5t26.5 61.5h34q0 -50 -35 -84t-89 -34t-89 34z" />
    <glyph glyph-name="dotaccent" unicode="&#x2d9;" horiz-adv-x="106" 
d="M31.5 610.5q-8.5 8.5 -8.5 21.5t8.5 21.5t21.5 8.5t21.5 -8.5t8.5 -21.5t-8.5 -21.5t-21.5 -8.5t-21.5 8.5z" />
    <glyph glyph-name="ring" unicode="&#x2da;" horiz-adv-x="226" 
d="M49.5 574.5q-26.5 26.5 -26.5 63.5t26.5 63.5t63.5 26.5t63.5 -26t26.5 -64q0 -37 -26.5 -63.5t-63.5 -26.5t-63.5 26.5zM152.5 598.5q16.5 16.5 16.5 39.5t-16.5 39.5t-39.5 16.5t-39.5 -16.5t-16.5 -39.5q0 -22 16.5 -39t39.5 -17t39.5 16.5z" />
    <glyph glyph-name="ogonek" unicode="&#x2db;" horiz-adv-x="189" 
d="M46.5 -183.5q-23.5 21.5 -23.5 56.5q0 31 17 60t48 67h40q-37 -43 -53.5 -70t-16.5 -54q0 -23 14 -35.5t33 -12.5q34 0 61 30v-41q-25 -22 -65 -22q-31 0 -54.5 21.5z" />
    <glyph glyph-name="tilde" unicode="&#x2dc;" horiz-adv-x="366" 
d="M23 636q42 34 90 34q22 0 36 -4t38 -13q19 -9 34 -13t35 -4q50 0 87 35v-44q-36 -29 -90 -29q-22 0 -36 4t-38 13q-19 9 -34 13t-35 4q-49 0 -87 -36v40z" />
    <glyph glyph-name="hungarumlaut" unicode="&#x2dd;" horiz-adv-x="285" 
d="M23 555l94 145h48l-102 -145h-40zM214 700h48l-102 -145h-40z" />
    <glyph glyph-name="gravecomb" unicode="&#x300;" horiz-adv-x="0" 
d="M-142 710h48l94 -145h-40z" />
    <glyph glyph-name="acutecomb" unicode="&#x301;" horiz-adv-x="0" 
d="M-142 565l94 145h48l-102 -145h-40z" />
    <glyph glyph-name="uni0302" unicode="&#x302;" horiz-adv-x="0" 
d="M-47 568l-87 105l-88 -105h-47l112 132h45l112 -132h-47z" />
    <glyph glyph-name="tildecomb" unicode="&#x303;" horiz-adv-x="0" 
d="M-320 636q42 34 90 34q22 0 36 -4t38 -13q19 -9 34 -13t35 -4q50 0 87 35v-44q-36 -29 -90 -29q-22 0 -36 4t-38 13q-19 9 -34 13t-35 4q-49 0 -87 -36v40z" />
    <glyph glyph-name="uni0304" unicode="&#x304;" horiz-adv-x="0" 
d="M-248 651h248v-36h-248v36z" />
    <glyph glyph-name="uni0306" unicode="&#x306;" horiz-adv-x="0" 
d="M-213 608q-35 34 -35 84h34q2 -38 27 -61.5t63 -23.5q39 0 63.5 23.5t26.5 61.5h34q0 -50 -35 -84t-89 -34t-89 34z" />
    <glyph glyph-name="uni0307" unicode="&#x307;" horiz-adv-x="0" 
d="M-51.5 610.5q-8.5 8.5 -8.5 21.5t8.5 21.5t21.5 8.5t21.5 -8.5t8.5 -21.5t-8.5 -21.5t-21.5 -8.5t-21.5 8.5z" />
    <glyph glyph-name="uni0308" unicode="&#x308;" horiz-adv-x="0" 
d="M-203.5 610.5q-8.5 8.5 -8.5 21.5t8.5 21.5t21.5 8.5t21.5 -8.5t8.5 -21.5t-8.5 -21.5t-21.5 -8.5t-21.5 8.5zM-51.5 610.5q-8.5 8.5 -8.5 21.5t8.5 21.5t21.5 8.5t21.5 -8.5t8.5 -21.5t-8.5 -21.5t-21.5 -8.5t-21.5 8.5z" />
    <glyph glyph-name="uni030A" unicode="&#x30a;" horiz-adv-x="0" 
d="M-153.5 574.5q-26.5 26.5 -26.5 63.5t26.5 63.5t63.5 26.5t63.5 -26t26.5 -64q0 -37 -26.5 -63.5t-63.5 -26.5t-63.5 26.5zM-50.5 598.5q16.5 16.5 16.5 39.5t-16.5 39.5t-39.5 16.5t-39.5 -16.5t-16.5 -39.5q0 -22 16.5 -39t39.5 -17t39.5 16.5z" />
    <glyph glyph-name="uni030B" unicode="&#x30b;" horiz-adv-x="0" 
d="M-239 555l94 145h48l-102 -145h-40zM-48 700h48l-102 -145h-40z" />
    <glyph glyph-name="uni030C" unicode="&#x30c;" horiz-adv-x="0" 
d="M0 700l-112 -132h-45l-112 132h47l88 -105l87 105h47z" />
    <glyph glyph-name="uni0312" unicode="&#x312;" horiz-adv-x="0" 
d="M-33 734h33l-54 -161h-46z" />
    <glyph glyph-name="uni0326" unicode="&#x326;" horiz-adv-x="0" 
d="M-46 -50h46l-67 -160h-33z" />
    <glyph glyph-name="uni0327" unicode="&#x327;" horiz-adv-x="0" 
d="M-26 -64q26 -23 26 -58t-27 -59t-67 -24q-48 0 -82 29v40q38 -36 82 -36q25 0 42.5 14t17.5 36t-16 36t-44 14q-23 0 -44 -14l-4 2l34 84h40l-19 -42q35 1 61 -22z" />
    <glyph glyph-name="uni0328" unicode="&#x328;" horiz-adv-x="0" 
d="M-119.5 -183.5q-23.5 21.5 -23.5 56.5q0 31 17 60t48 67h40q-37 -43 -53.5 -70t-16.5 -54q0 -23 14 -35.5t33 -12.5q34 0 61 30v-41q-25 -22 -65 -22q-31 0 -54.5 21.5z" />
    <glyph glyph-name="uni0335" unicode="&#x335;" horiz-adv-x="0" 
d="M-207 276h207v-39h-207v39z" />
    <glyph glyph-name="uni0336" unicode="&#x336;" horiz-adv-x="0" 
d="M-600 276h600v-39h-600v39z" />
    <glyph glyph-name="uni0337" unicode="&#x337;" horiz-adv-x="0" 
d="M-261 367l261 146v-42l-261 -146v42z" />
    <glyph glyph-name="uni0338" unicode="&#x338;" horiz-adv-x="0" 
d="M-51 700h51l-540 -700h-53z" />
    <glyph glyph-name="uni0394" unicode="&#x394;" horiz-adv-x="566" 
d="M561 10v-10h-556v10l256 690h44zM505 40l-222 613l-222 -613h444z" />
    <glyph glyph-name="uni03A9" unicode="&#x3a9;" horiz-adv-x="758" 
d="M652 191q-57 -89 -149 -151h182v-40h-245v37q107 74 168 155.5t61 199.5q0 69 -35.5 133.5t-101.5 105t-153 40.5t-153 -40.5t-101.5 -105t-35.5 -133.5q0 -118 61 -199.5t168 -155.5v-37h-245v40h182q-92 62 -149 151t-57 201q0 80 41 153t116 119t173 46t173 -46
t116 -119t41 -153q0 -112 -57 -201z" />
    <glyph glyph-name="uni03BC" unicode="&#x3bc;" horiz-adv-x="569" 
d="M481 500v-500h-40v92q-23 -43 -67 -71.5t-100 -28.5q-48 0 -88.5 19.5t-66.5 58.5v-270h-40v700h40v-270q0 -97 42.5 -148.5t116.5 -51.5q71 0 117 52.5t46 147.5v270h40z" />
    <glyph glyph-name="pi" unicode="&#x3c0;" horiz-adv-x="581" 
d="M439 541v-469q0 -17 8 -27t23 -10q13 0 23.5 4t25.5 13v-41q-27 -15 -59 -15q-28 0 -44.5 18t-16.5 47v480h-244v-541h-40v541h-80v39h484v-39h-80z" />
    <glyph glyph-name="Wgrave" unicode="&#x1e80;" horiz-adv-x="986" 
d="M983 700l-325 -713h-15l-149 338l-150 -338h-15l-326 713l43 1l291 -634l134 305l-142 328l42 1l123 -286l122 286l42 -1l-142 -328l134 -310l291 639zM393 910h48l94 -145h-40z" />
    <glyph glyph-name="wgrave" unicode="&#x1e81;" horiz-adv-x="772" 
d="M768 500l-259 -508h-12l-112 226l-111 -226h-12l-258 508h44l221 -438l96 198l-117 240h44l94 -199l93 199h44l-117 -240l97 -198l220 438h45zM285 710h48l94 -145h-40z" />
    <glyph glyph-name="Wacute" unicode="&#x1e82;" horiz-adv-x="986" 
d="M983 700l-325 -713h-15l-149 338l-150 -338h-15l-326 713l43 1l291 -634l134 305l-142 328l42 1l123 -286l122 286l42 -1l-142 -328l134 -310l291 639zM443 765l94 145h48l-102 -145h-40z" />
    <glyph glyph-name="wacute" unicode="&#x1e83;" horiz-adv-x="772" 
d="M768 500l-259 -508h-12l-112 226l-111 -226h-12l-258 508h44l221 -438l96 198l-117 240h44l94 -199l93 199h44l-117 -240l97 -198l220 438h45zM335 565l94 145h48l-102 -145h-40z" />
    <glyph glyph-name="Wdieresis" unicode="&#x1e84;" horiz-adv-x="986" 
d="M983 700l-325 -713h-15l-149 338l-150 -338h-15l-326 713l43 1l291 -634l134 305l-142 328l42 1l123 -286l122 286l42 -1l-142 -328l134 -310l291 639zM396.5 810.5q-8.5 8.5 -8.5 21.5t8.5 21.5t21.5 8.5t21.5 -8.5t8.5 -21.5t-8.5 -21.5t-21.5 -8.5t-21.5 8.5z
M548.5 810.5q-8.5 8.5 -8.5 21.5t8.5 21.5t21.5 8.5t21.5 -8.5t8.5 -21.5t-8.5 -21.5t-21.5 -8.5t-21.5 8.5z" />
    <glyph glyph-name="wdieresis" unicode="&#x1e85;" horiz-adv-x="772" 
d="M768 500l-259 -508h-12l-112 226l-111 -226h-12l-258 508h44l221 -438l96 198l-117 240h44l94 -199l93 199h44l-117 -240l97 -198l220 438h45zM288.5 610.5q-8.5 8.5 -8.5 21.5t8.5 21.5t21.5 8.5t21.5 -8.5t8.5 -21.5t-8.5 -21.5t-21.5 -8.5t-21.5 8.5zM440.5 610.5
q-8.5 8.5 -8.5 21.5t8.5 21.5t21.5 8.5t21.5 -8.5t8.5 -21.5t-8.5 -21.5t-21.5 -8.5t-21.5 8.5z" />
    <glyph glyph-name="Ygrave" unicode="&#x1ef2;" horiz-adv-x="554" 
d="M297 247v-247h-40v247l-252 453h46l226 -416l226 416h46zM176 910h48l94 -145h-40z" />
    <glyph glyph-name="ygrave" unicode="&#x1ef3;" horiz-adv-x="477" 
d="M468 500l-301 -700h-40l93 216l-211 484h43l187 -440l186 440h43zM138 710h48l94 -145h-40z" />
    <glyph glyph-name="endash" unicode="&#x2013;" horiz-adv-x="526" 
d="M49 319h428v-38h-428v38z" />
    <glyph glyph-name="emdash" unicode="&#x2014;" horiz-adv-x="798" 
d="M49 319h700v-38h-700v38z" />
    <glyph glyph-name="quoteleft" unicode="&#x2018;" horiz-adv-x="113" 
d="M58 700h32l-32 -250h-40z" />
    <glyph glyph-name="quoteright" unicode="&#x2019;" horiz-adv-x="113" 
d="M55 450h-32l32 250h40z" />
    <glyph glyph-name="quotesinglbase" unicode="&#x201a;" horiz-adv-x="131" 
d="M61 112h41l-43 -222h-30z" />
    <glyph glyph-name="quotedblleft" unicode="&#x201c;" horiz-adv-x="202" 
d="M58 700h32l-32 -250h-40zM147 700h32l-32 -250h-40z" />
    <glyph glyph-name="quotedblright" unicode="&#x201d;" horiz-adv-x="202" 
d="M55 450h-32l32 250h40zM144 450h-32l32 250h40z" />
    <glyph glyph-name="quotedblbase" unicode="&#x201e;" horiz-adv-x="131" 
d="M102 112l-43 -222h-30l32 222h41z" />
    <glyph glyph-name="dagger" unicode="&#x2020;" horiz-adv-x="283" 
d="M260 596h-99v-226h-38v226h-100v38h100v126h38v-126h99v-38z" />
    <glyph glyph-name="daggerdbl" unicode="&#x2021;" horiz-adv-x="283" 
d="M161 606v-79h99v-38h-99v-119h-38v119h-100v38h100v79h-100v38h100v116h38v-116h99v-38h-99z" />
    <glyph glyph-name="bullet" unicode="&#x2022;" horiz-adv-x="287" 
d="M105.5 281.5q-17.5 17.5 -17.5 42.5q0 26 17.5 44t42.5 18t42.5 -18t17.5 -44q0 -25 -17 -42.5t-43 -17.5q-25 0 -42.5 17.5z" />
    <glyph glyph-name="ellipsis" unicode="&#x2026;" horiz-adv-x="445" 
d="M203.5 4.5q-8.5 8.5 -8.5 21.5t8.5 22t21.5 9t21.5 -9t8.5 -22t-8.5 -21.5t-21.5 -8.5t-21.5 8.5zM364.5 4.5q-8.5 8.5 -8.5 21.5t8.5 22t21.5 9t21.5 -9t8.5 -22t-8.5 -21.5t-21.5 -8.5t-21.5 8.5zM37.5 4.5q-8.5 8.5 -8.5 21.5t8.5 22t21.5 9t21.5 -9t8.5 -22
t-8.5 -21.5t-21.5 -8.5t-21.5 8.5z" />
    <glyph glyph-name="perthousand" unicode="&#x2030;" horiz-adv-x="916" 
d="M53.5 418q-26.5 47 -26.5 120q0 75 26.5 122t80.5 47q53 0 80 -47t27 -122q0 -73 -27 -120t-80 -47q-54 0 -80.5 47zM190 444.5q17 39.5 17 93.5q0 57 -16.5 96.5t-56.5 39.5t-56.5 -39.5t-16.5 -96.5q0 -54 17 -93.5t56 -39.5t56 39.5zM505 700h35l-397 -700h-35z
M433.5 40q-26.5 47 -26.5 120q0 75 26.5 122t80.5 47q53 0 80 -47t27 -122q0 -73 -27 -120t-80 -47q-54 0 -80.5 47zM570 66.5q17 39.5 17 93.5q0 57 -16.5 96.5t-56.5 39.5t-56.5 -39.5t-16.5 -96.5q0 -54 17 -93.5t56 -39.5t56 39.5zM701.5 40q-26.5 47 -26.5 120
q0 75 26.5 122t80.5 47q53 0 80 -47t27 -122q0 -73 -27 -120t-80 -47q-54 0 -80.5 47zM838 66.5q17 39.5 17 93.5q0 57 -16.5 96.5t-56.5 39.5t-56.5 -39.5t-16.5 -96.5q0 -54 17 -93.5t56 -39.5t56 39.5z" />
    <glyph glyph-name="guilsinglleft" unicode="&#x2039;" horiz-adv-x="288" 
d="M95 290l184 -210h-49l-181 208v4l181 208h49z" />
    <glyph glyph-name="guilsinglright" unicode="&#x203a;" horiz-adv-x="288" 
d="M239 292v-4l-181 -208h-49l184 210l-184 210h49z" />
    <glyph glyph-name="fraction" unicode="&#x2044;" horiz-adv-x="112" 
d="M237 700h35l-397 -700h-35z" />
    <glyph glyph-name="Euro" unicode="&#x20ac;" horiz-adv-x="561" 
d="M275.5 639.5q-49.5 -32.5 -82.5 -88.5t-45 -127h249v-38h-254q-1 -12 -1 -36q0 -20 1 -30h254v-38h-250q11 -72 43.5 -130t83 -91t111.5 -33q39 0 69 9t58 28v-41q-54 -34 -123 -34q-78 0 -138 38.5t-97 104.5t-48 149h-71v38h68q-1 10 -1 30q0 24 1 36h-68v38h72
q12 82 49 146.5t96.5 102t136.5 37.5q69 0 123 -34v-41q-28 19 -58 28t-69 9q-60 0 -109.5 -32.5z" />
    <glyph glyph-name="trademark" unicode="&#x2122;" horiz-adv-x="495" 
d="M472 468h-35l-30 140l-63 -142h-5l-63 140l-27 -138h-36l51 235h6l72 -162l71 162h5zM201 667h-71v-199h-34v199h-73v33h178v-33z" />
    <glyph glyph-name="oneeighth" unicode="&#x215b;" horiz-adv-x="552" 
d="M119 701v-323h-34v267l-41 -27l-17 27l82 56h10zM419 700h35l-397 -700h-35zM510 143q15 -24 15 -52q0 -41 -29 -69.5t-73 -28.5t-73 28.5t-29 69.5q0 29 15 52.5t40 36.5q-17 11 -26.5 29t-9.5 38q0 33 24 57.5t59 24.5t59.5 -24.5t24.5 -57.5q0 -20 -10 -38t-27 -29
q25 -13 40 -37zM386 283q-15 -15 -15 -36q0 -22 15 -38t37 -16q23 0 37.5 16t14.5 38q0 21 -14.5 36t-37.5 15q-22 0 -37 -15zM471.5 44.5q19.5 19.5 19.5 47.5q0 27 -19.5 47.5t-48.5 20.5t-48.5 -20.5t-19.5 -47.5q0 -28 19.5 -47.5t48.5 -19.5t48.5 19.5z" />
    <glyph glyph-name="threeeighths" unicode="&#x215c;" horiz-adv-x="633" 
d="M206.5 549q29.5 -30 29.5 -73q0 -42 -30.5 -73.5t-78.5 -31.5q-39 0 -67.5 22.5t-37.5 56.5l31 13q7 -26 27 -42.5t47 -16.5q34 0 55 20.5t21 51.5t-21 52t-55 21q-25 0 -43 -9l-13 15l93 111h-129v34h180v-24l-83 -96q45 -1 74.5 -31zM500 700h35l-397 -700h-35z
M591 143q15 -24 15 -52q0 -41 -29 -69.5t-73 -28.5t-73 28.5t-29 69.5q0 29 15 52.5t40 36.5q-17 11 -26.5 29t-9.5 38q0 33 24 57.5t59 24.5t59.5 -24.5t24.5 -57.5q0 -20 -10 -38t-27 -29q25 -13 40 -37zM467 283q-15 -15 -15 -36q0 -22 15 -38t37 -16q23 0 37.5 16
t14.5 38q0 21 -14.5 36t-37.5 15q-22 0 -37 -15zM552.5 44.5q19.5 19.5 19.5 47.5q0 27 -19.5 47.5t-48.5 20.5t-48.5 -20.5t-19.5 -47.5q0 -28 19.5 -47.5t48.5 -19.5t48.5 19.5z" />
    <glyph glyph-name="fiveeighths" unicode="&#x215d;" horiz-adv-x="629" 
d="M203.5 548.5q28.5 -31.5 28.5 -73.5t-29.5 -73t-76.5 -31q-39 0 -67 22.5t-37 56.5l31 12q7 -25 27 -41.5t46 -16.5q33 0 53.5 20.5t20.5 50.5t-20.5 51t-53.5 21q-22 0 -42 -8.5t-36 -23.5l-7 3l40 182h128v-34h-103l-22 -94q19 8 42 8q49 0 77.5 -31.5zM496 700h35
l-397 -700h-35zM587 143q15 -24 15 -52q0 -41 -29 -69.5t-73 -28.5t-73 28.5t-29 69.5q0 29 15 52.5t40 36.5q-17 11 -26.5 29t-9.5 38q0 33 24 57.5t59 24.5t59.5 -24.5t24.5 -57.5q0 -20 -10 -38t-27 -29q25 -13 40 -37zM463 283q-15 -15 -15 -36q0 -22 15 -38t37 -16
q23 0 37.5 16t14.5 38q0 21 -14.5 36t-37.5 15q-22 0 -37 -15zM548.5 44.5q19.5 19.5 19.5 47.5q0 27 -19.5 47.5t-48.5 20.5t-48.5 -20.5t-19.5 -47.5q0 -28 19.5 -47.5t48.5 -19.5t48.5 19.5z" />
    <glyph glyph-name="seveneighths" unicode="&#x215e;" horiz-adv-x="578" 
d="M210 690l-109 -312h-35l105 288h-155v34h194v-10zM445 700h35l-397 -700h-35zM536 143q15 -24 15 -52q0 -41 -29 -69.5t-73 -28.5t-73 28.5t-29 69.5q0 29 15 52.5t40 36.5q-17 11 -26.5 29t-9.5 38q0 33 24 57.5t59 24.5t59.5 -24.5t24.5 -57.5q0 -20 -10 -38t-27 -29
q25 -13 40 -37zM412 283q-15 -15 -15 -36q0 -22 15 -38t37 -16q23 0 37.5 16t14.5 38q0 21 -14.5 36t-37.5 15q-22 0 -37 -15zM497.5 44.5q19.5 19.5 19.5 47.5q0 27 -19.5 47.5t-48.5 20.5t-48.5 -20.5t-19.5 -47.5q0 -28 19.5 -47.5t48.5 -19.5t48.5 19.5z" />
    <glyph glyph-name="arrowleft" unicode="&#x2190;" horiz-adv-x="692" 
d="M643 290h-514v-62l-80 81l80 81v-62h514v-38z" />
    <glyph glyph-name="arrowup" unicode="&#x2191;" horiz-adv-x="260" 
d="M149 574v-514h-38v514h-62l81 80l81 -80h-62z" />
    <glyph glyph-name="arrowright" unicode="&#x2192;" horiz-adv-x="692" 
d="M563 228v62h-514v38h514v62l80 -81z" />
    <glyph glyph-name="arrowdown" unicode="&#x2193;" horiz-adv-x="260" 
d="M211 104l-81 -80l-81 80h62v514h38v-514h62z" />
    <glyph glyph-name="arrowboth" unicode="&#x2194;" horiz-adv-x="771" 
d="M642 228v62h-513v-62l-80 81l80 81v-62h513v62l80 -81z" />
    <glyph glyph-name="arrowupdn" unicode="&#x2195;" horiz-adv-x="260" 
d="M149 94h62l-81 -80l-81 80h62v513h-62l81 80l81 -80h-62v-513z" />
    <glyph glyph-name="uni2196" unicode="&#x2196;" horiz-adv-x="533" 
d="M456 133l-363 363l-43 -43v113l114 1l-44 -44l363 -363z" />
    <glyph glyph-name="uni2197" unicode="&#x2197;" horiz-adv-x="533" 
d="M483 453l-43 43l-363 -363l-27 27l363 363l-44 44l114 -1v-113z" />
    <glyph glyph-name="uni2198" unicode="&#x2198;" horiz-adv-x="533" 
d="M483 240v-113l-114 -1l44 44l-363 363l27 27l363 -363z" />
    <glyph glyph-name="uni2199" unicode="&#x2199;" horiz-adv-x="533" 
d="M120 170l44 -44l-114 1v113l43 -43l363 363l27 -27z" />
    <glyph glyph-name="partialdiff" unicode="&#x2202;" horiz-adv-x="578" 
d="M500.5 136q-26.5 -62 -81 -102.5t-133.5 -40.5h-1q-67 0 -120.5 34.5t-83.5 93.5t-30 129q0 69 30 128t83.5 93.5t120.5 34.5q54 0 98.5 -22.5t76.5 -63.5q-68 143 -268 228l19 32q165 -71 240.5 -176t75.5 -243q0 -63 -26.5 -125zM116 141q25 -50 69.5 -79.5
t100.5 -29.5q18 0 34 3q48 8 85.5 39t58.5 77t21 99q0 59 -25.5 108.5t-71 79t-102.5 29.5q-56 0 -100.5 -29.5t-69.5 -79t-25 -108.5t25 -109z" />
    <glyph glyph-name="emptyset" unicode="&#x2205;" horiz-adv-x="682" 
d="M609 392.5q22 -53.5 22 -113.5q0 -78 -36.5 -144.5t-103 -106t-150.5 -39.5q-101 0 -176 56l-39 -45h-53l62 71q-40 41 -62 95t-22 113q0 78 37 144.5t103 106t150 39.5q101 0 176 -56l39 45h53l-62 -72q40 -40 62 -93.5zM108.5 182.5q18.5 -45.5 52.5 -81.5l330 382
q-66 48 -150 48q-72 0 -129.5 -34.5t-89.5 -92.5t-32 -125q0 -51 18.5 -96.5zM470.5 61.5q57.5 34.5 89.5 92.5t32 125q0 51 -18.5 96.5t-52.5 81.5l-330 -382q66 -48 150 -48q72 0 129.5 34.5z" />
    <glyph glyph-name="product" unicode="&#x220f;" horiz-adv-x="520" 
d="M505 662h-114v-762h-40v762h-174v-762h-40v762h-122v38h490v-38z" />
    <glyph glyph-name="summation" unicode="&#x2211;" horiz-adv-x="505" 
d="M466 661h-363l216 -357v-8l-216 -357h363v-39h-427v12l237 388l-237 388v12h427v-39z" />
    <glyph glyph-name="minus" unicode="&#x2212;" horiz-adv-x="478" 
d="M49 320h380v-38h-380v38z" />
    <glyph glyph-name="radical" unicode="&#x221a;" horiz-adv-x="560" 
d="M545 661h-224l-189 -761h-18l-105 390h41l73 -288l167 698h255v-39z" />
    <glyph glyph-name="infinity" unicode="&#x221e;" horiz-adv-x="961" 
d="M145 106q-44 25 -69 67t-25 92q0 49 25 91.5t69.5 68t99.5 25.5q53 0 94.5 -20.5t73 -52t68.5 -79.5q36 48 67.5 79.5t73 52t94.5 20.5q55 0 99.5 -25.5t69.5 -68t25 -91.5q0 -50 -25 -92t-69 -67t-100 -25q-53 0 -94.5 20.5t-73 52.5t-67.5 80q-37 -48 -68.5 -80
t-73 -52.5t-94.5 -20.5q-56 0 -100 25zM326.5 141q36.5 19 65.5 49t64 76q-36 47 -64.5 76.5t-65 49t-81.5 19.5q-43 0 -78 -18.5t-55.5 -52t-20.5 -74.5q0 -63 44 -103.5t110 -40.5q45 0 81.5 19zM826 162.5q44 40.5 44 103.5q0 41 -20.5 74.5t-55.5 52t-78 18.5
q-45 0 -81.5 -19.5t-65 -49t-64.5 -76.5q35 -46 64 -76t65.5 -49t81.5 -19q66 0 110 40.5z" />
    <glyph glyph-name="integral" unicode="&#x222b;" horiz-adv-x="430" 
d="M18 -59q31 -10 58 -10q76 0 88 97l67 559q7 59 37.5 90t82.5 31q28 0 61 -9v-37q-31 10 -58 10q-76 0 -88 -97l-67 -559q-7 -59 -37.5 -90t-82.5 -31q-28 0 -61 9v37z" />
    <glyph glyph-name="approxequal" unicode="&#x2248;" horiz-adv-x="458" 
d="M49 378q44 32 102 32q24 0 40.5 -4t41.5 -13q22 -8 39 -12.5t39 -4.5q57 0 98 35v-39q-43 -31 -102 -31q-24 0 -40.5 4t-41.5 13q-22 8 -39 12.5t-39 4.5q-55 0 -98 -36v39zM49 266q44 32 102 32q24 0 40.5 -4t41.5 -13q22 -8 39 -12.5t39 -4.5q57 0 98 35v-39
q-43 -31 -102 -31q-24 0 -40.5 4t-41.5 13q-22 8 -39 12.5t-39 4.5q-55 0 -98 -36v39z" />
    <glyph glyph-name="notequal" unicode="&#x2260;" horiz-adv-x="478" 
d="M277 343l-35 -80h187v-38h-203l-48 -111h-37l48 111h-140v38h156l35 80h-191v38h208l51 119h37l-51 -119h135v-38h-152z" />
    <glyph glyph-name="lessequal" unicode="&#x2264;" horiz-adv-x="465" 
d="M416 493l-304 -155l304 -155v-41l-367 191v10l367 191v-41zM49 106h367v-36h-367v36z" />
    <glyph glyph-name="greaterequal" unicode="&#x2265;" horiz-adv-x="465" 
d="M416 343v-10l-367 -191v41l304 155l-304 155v41zM49 106h367v-36h-367v36z" />
    <glyph glyph-name="lozenge" unicode="&#x25ca;" horiz-adv-x="457" 
d="M425 350l-175 -350h-43l-175 350l175 350h43zM384 350l-155 316l-156 -316l156 -316z" />
    <glyph glyph-name="i.loclTRK" horiz-adv-x="236" 
d="M139.5 653.5q8.5 -8.5 8.5 -21.5t-8.5 -21.5t-21.5 -8.5t-21.5 8.5t-8.5 21.5t8.5 21.5t21.5 8.5t21.5 -8.5zM98 500h40v-500h-40v500z" />
    <glyph glyph-name="zero.lf" horiz-adv-x="536" 
d="M106 90.5q-53 100.5 -53 258.5t53 259t162 101q108 0 161.5 -101t53.5 -259t-53 -258.5t-162 -100.5t-162 100.5zM402 123q41 94 41 226t-41.5 226.5t-133.5 94.5t-133.5 -94.5t-41.5 -226.5t41 -226t134 -94t134 94z" />
    <glyph glyph-name="one.lf" horiz-adv-x="294" 
d="M206 708v-708h-40v639l-110 -78l-21 32l161 115h10z" />
    <glyph glyph-name="two.lf" horiz-adv-x="516" 
d="M76 10q145 174 233 283l13 16q51 63 76 106.5t25 96.5q0 38 -19.5 75t-56 61t-84.5 24q-73 0 -117.5 -46.5t-56.5 -119.5l-40 13q14 82 69.5 136.5t144.5 54.5q60 0 105.5 -28t70 -74t24.5 -96q0 -45 -17 -86t-39.5 -72.5t-63.5 -80.5l-192 -234h316v-39h-391v10z" />
    <glyph glyph-name="three.lf" horiz-adv-x="549" 
d="M389 407q52 -31 80.5 -82t28.5 -110t-28.5 -110.5t-79.5 -83t-117 -31.5q-83 0 -143 47.5t-79 121.5l38 13q14 -63 65 -103t119 -40q54 0 96 25t65.5 67.5t23.5 93.5t-24 93.5t-66.5 67t-97.5 24.5q-54 0 -92 -22l-17 17l227 265h-303v40h367v-23l-212 -243q18 4 30 4
q67 0 119 -31z" />
    <glyph glyph-name="four.lf" horiz-adv-x="466" 
d="M438 123h-77v-123h-40v123h-316v9l346 576h10v-545h77v-40zM321 163v424l-254 -424h254z" />
    <glyph glyph-name="five.lf" horiz-adv-x="545" 
d="M386 406.5q51 -31.5 79.5 -83t28.5 -109.5q0 -59 -28 -110.5t-79.5 -82.5t-116.5 -31q-82 0 -141 48t-78 121l38 13q15 -63 64.5 -103t116.5 -40q54 0 96 24.5t65 67t23 93.5t-23 93.5t-65 67t-96 24.5t-96.5 -25.5t-67.5 -69.5l-24 7l79 389h269v-40h-239l-53 -268
q24 21 57.5 33.5t74.5 12.5q65 0 116 -31.5z" />
    <glyph glyph-name="six.lf" horiz-adv-x="552" 
d="M391.5 410q51.5 -31 80.5 -83t29 -112q0 -61 -28.5 -111.5t-80 -80.5t-116.5 -30t-116.5 30t-80 80.5t-28.5 111.5v1q0 49 17.5 91t60.5 121q33 63 79 142l71 130h47l-162 -289q52 30 112 30q64 0 115.5 -31zM371 56q42 25 65.5 67.5t23.5 91.5q0 50 -23.5 92.5t-65.5 68
t-95 25.5t-95 -25.5t-65.5 -68t-23.5 -92.5q0 -49 24 -91.5t66 -67.5t94 -25q53 0 95 25z" />
    <glyph glyph-name="seven.lf" horiz-adv-x="423" 
d="M418 690l-253 -690h-45l245 660h-350v40h403v-10z" />
    <glyph glyph-name="eight.lf" horiz-adv-x="546" 
d="M456 313.5q37 -52.5 37 -117.5q0 -57 -28 -104.5t-78 -75t-114 -27.5t-114 27.5t-78 75t-28 104.5q0 66 36.5 118.5t99.5 75.5q-44 20 -69 60.5t-25 89.5q0 45 23 84.5t63.5 63t91.5 23.5t91.5 -23.5t63.5 -63t23 -84.5q0 -49 -25 -89.5t-69 -61.5q62 -23 99 -75.5z
M152 473q18 -31 49.5 -49.5t71.5 -18.5t72 18.5t49.5 49.5t17.5 67t-17.5 66t-49.5 48t-72 18t-71.5 -18t-49.5 -48t-18 -66t18 -67zM366 50.5q41 22.5 64 61t23 84.5t-23 86t-64 63.5t-93 23.5t-93 -23.5t-64 -63.5t-23 -86t23 -84.5t64 -61t93 -22.5t93 22.5z" />
    <glyph glyph-name="nine.lf" horiz-adv-x="506" 
d="M501 484q0 -49 -17.5 -91t-60.5 -121q-33 -63 -79 -142l-71 -130h-47l162 289q-52 -30 -112 -30q-64 0 -115.5 31t-80.5 83t-29 112q0 61 28.5 111.5t80 80.5t116.5 30t116.5 -30t80 -80.5t28.5 -111.5v-1zM115.5 392.5q23.5 -42.5 65.5 -68t95 -25.5t95 25.5t65.5 68
t23.5 92.5q0 49 -24 91.5t-66 67.5t-94 25q-53 0 -95 -25t-65.5 -67.5t-23.5 -91.5q0 -50 23.5 -92.5z" />
    <glyph glyph-name="zero.osf" horiz-adv-x="474" 
d="M96 65q-45 76 -45 183q0 63 18.5 122.5t60.5 98.5t107 39t107 -39t60.5 -98.5t18.5 -122.5q0 -107 -45 -183t-141 -76t-141 76zM324.5 64q32.5 36 45.5 86t13 98t-13 98.5t-45.5 86.5t-87.5 36t-87.5 -36t-45.5 -86.5t-13 -98.5t13 -98t45.5 -86t87.5 -36t87.5 36z" />
    <glyph glyph-name="one.osf" horiz-adv-x="267" 
d="M179 507v-507h-40v443l-83 -52l-21 32l134 84h10z" />
    <glyph glyph-name="two.osf" horiz-adv-x="550" 
d="M102 25q114 89 147 113l20 15q58 42 88 67.5t47.5 54.5t17.5 65q0 57 -39.5 93t-100.5 36q-62 0 -106.5 -41.5t-48.5 -115.5l-39 8q3 53 29.5 96t69.5 67.5t95 24.5t93.5 -23t64 -61.5t22.5 -83.5q0 -44 -21 -79t-49.5 -60.5t-78.5 -62.5l-132 -98h290v-40l-369 1v24z
" />
    <glyph glyph-name="three.osf" horiz-adv-x="523" 
d="M368.5 253.5q48.5 -28.5 76 -76.5t27.5 -103t-27.5 -105t-76.5 -80.5t-110 -30.5q-88 0 -144 48t-79 121l38 20q21 -70 67 -110t118 -40q49 0 88.5 24t62.5 65t23 88t-22.5 86t-62.5 61.5t-89 22.5q-38 0 -65.5 -9t-51.5 -25l-23 26l245 225h-294v39h351v-36l-209 -189
q20 7 47 7q62 0 110.5 -28.5z" />
    <glyph glyph-name="four.osf" horiz-adv-x="454" 
d="M436 0h-77v-128h-40v128h-310v9l340 514h10v-483h77v-40zM319 40v369l-245 -369h245z" />
    <glyph glyph-name="five.osf" horiz-adv-x="523" 
d="M368.5 254q48.5 -29 76 -77t27.5 -103t-27.5 -105t-76.5 -80.5t-110 -30.5q-88 0 -144 48t-79 121l38 20q21 -70 67 -110t118 -40q49 0 88.5 24t62.5 65t23 88t-22.5 86t-62.5 61.5t-89 22.5q-83 0 -143 -50l-28 10l67 297h264v-40h-235l-47 -210q24 15 57 23.5t65 8.5
q62 0 110.5 -29z" />
    <glyph glyph-name="six.osf" 
d="M378.5 382q48.5 -29 74.5 -77.5t26 -104.5q0 -57 -26 -105.5t-74.5 -77t-113.5 -28.5t-113.5 28.5t-74.5 77t-26 105.5v1q0 52 21.5 100.5t56.5 106.5l11 17l122 200h49l-160 -250q52 36 114 36q65 0 113.5 -29zM354.5 50.5q39.5 22.5 62 62t22.5 87.5q0 46 -22.5 85.5
t-62 63t-89.5 23.5t-89.5 -23.5t-62 -63t-22.5 -85.5q0 -48 22.5 -87.5t62 -62t89.5 -22.5t89.5 22.5z" />
    <glyph glyph-name="seven.osf" horiz-adv-x="439" 
d="M430 490l-219 -618h-46l216 589h-346v39h395v-10z" />
    <glyph glyph-name="eight.osf" horiz-adv-x="496" 
d="M412.5 281.5q32.5 -45.5 32.5 -103.5q0 -51 -25.5 -94.5t-70.5 -69t-101 -25.5t-101 25.5t-70.5 69t-25.5 94.5q0 59 32.5 105t87.5 66q-38 19 -60.5 54t-22.5 76t21 76.5t58 56.5t82 21t81.5 -21t57.5 -56.5t21 -76.5t-22.5 -76t-60.5 -55q54 -21 86.5 -66.5zM161 396.5
q34 -33.5 87 -33.5q54 0 87.5 33.5t33.5 82.5q0 48 -34 81.5t-87 33.5t-87 -33.5t-34 -81.5q0 -49 34 -82.5zM329.5 48.5q36.5 20.5 56.5 55t20 74.5t-20.5 74.5t-56.5 55t-81 20.5t-81 -20.5t-56 -55t-20 -74.5t20 -74.5t56 -55t81 -20.5t81.5 20.5z" />
    <glyph glyph-name="nine.osf" 
d="M479 296q0 -52 -21.5 -100.5t-56.5 -106.5l-11 -17l-122 -200h-49l160 250q-52 -36 -114 -36q-65 0 -113.5 29t-74.5 77.5t-26 104.5q0 57 26 105.5t74.5 77t113.5 28.5t113.5 -28.5t74.5 -77t26 -105.5v-1zM113.5 211.5q22.5 -39.5 62 -63t89.5 -23.5t89.5 23.5t62 63
t22.5 85.5q0 48 -22.5 87.5t-62 62t-89.5 22.5t-89.5 -22.5t-62 -62t-22.5 -87.5q0 -46 22.5 -85.5z" />
    <glyph glyph-name="zero.tf" 
d="M103 90.5q-53 100.5 -53 258.5t53 259t162 101q108 0 161.5 -101t53.5 -259t-53 -258.5t-162 -100.5t-162 100.5zM399 123q41 94 41 226t-41.5 226.5t-133.5 94.5t-133.5 -94.5t-41.5 -226.5t41 -226t134 -94t134 94z" />
    <glyph glyph-name="one.tf" 
d="M428 40v-40h-326v40h142v599l-110 -78l-21 32l161 115h10v-668h144z" />
    <glyph glyph-name="two.tf" 
d="M82 10q145 174 233 283l13 16q51 63 76 106.5t25 96.5q0 38 -19.5 75t-56 61t-84.5 24q-73 0 -117.5 -46.5t-56.5 -119.5l-40 13q14 82 69.5 136.5t144.5 54.5q60 0 105.5 -28t70 -74t24.5 -96q0 -45 -17 -86t-39.5 -72.5t-63.5 -80.5l-192 -234h316v-39h-391v10z" />
    <glyph glyph-name="three.tf" 
d="M384 407q52 -31 80.5 -82t28.5 -110t-28.5 -110.5t-79.5 -83t-117 -31.5q-83 0 -143 47.5t-79 121.5l38 13q14 -63 65 -103t119 -40q54 0 96 25t65.5 67.5t23.5 93.5t-24 93.5t-66.5 67t-97.5 24.5q-54 0 -92 -22l-17 17l227 265h-303v40h367v-23l-212 -243q18 4 30 4
q67 0 119 -31z" />
    <glyph glyph-name="four.tf" 
d="M487 123h-77v-123h-40v123h-316v9l346 576h10v-545h77v-40zM370 163v424l-254 -424h254z" />
    <glyph glyph-name="five.tf" 
d="M383 406.5q51 -31.5 79.5 -83t28.5 -109.5q0 -59 -28 -110.5t-79.5 -82.5t-116.5 -31q-82 0 -141 48t-78 121l38 13q15 -63 64.5 -103t116.5 -40q54 0 96 24.5t65 67t23 93.5t-23 93.5t-65 67t-96 24.5t-96.5 -25.5t-67.5 -69.5l-24 7l79 389h269v-40h-239l-53 -268
q24 21 57.5 33.5t74.5 12.5q65 0 116 -31.5z" />
    <glyph glyph-name="six.tf" 
d="M380.5 410q51.5 -31 80.5 -83t29 -112q0 -61 -28.5 -111.5t-80 -80.5t-116.5 -30t-116.5 30t-80 80.5t-28.5 111.5v1q0 49 17.5 91t60.5 121q33 63 79 142l71 130h47l-162 -289q52 30 112 30q64 0 115.5 -31zM360 56q42 25 65.5 67.5t23.5 91.5q0 50 -23.5 92.5t-65.5 68
t-95 25.5t-95 -25.5t-65.5 -68t-23.5 -92.5q0 -49 24 -91.5t66 -67.5t94 -25q53 0 95 25z" />
    <glyph glyph-name="seven.tf" 
d="M481 690l-253 -690h-45l245 660h-350v40h403v-10z" />
    <glyph glyph-name="eight.tf" 
d="M448 313.5q37 -52.5 37 -117.5q0 -57 -28 -104.5t-78 -75t-114 -27.5t-114 27.5t-78 75t-28 104.5q0 66 36.5 118.5t99.5 75.5q-44 20 -69 60.5t-25 89.5q0 45 23 84.5t63.5 63t91.5 23.5t91.5 -23.5t63.5 -63t23 -84.5q0 -49 -25 -89.5t-69 -61.5q62 -23 99 -75.5z
M144 473q18 -31 49.5 -49.5t71.5 -18.5t72 18.5t49.5 49.5t17.5 67t-17.5 66t-49.5 48t-72 18t-71.5 -18t-49.5 -48t-18 -66t18 -67zM358 50.5q41 22.5 64 61t23 84.5t-23 86t-64 63.5t-93 23.5t-93 -23.5t-64 -63.5t-23 -86t23 -84.5t64 -61t93 -22.5t93 22.5z" />
    <glyph glyph-name="nine.tf" 
d="M502 484q0 -49 -17.5 -91t-60.5 -121q-33 -63 -79 -142l-71 -130h-47l162 289q-52 -30 -112 -30q-64 0 -115.5 31t-80.5 83t-29 112q0 61 28.5 111.5t80 80.5t116.5 30t116.5 -30t80 -80.5t28.5 -111.5v-1zM116.5 392.5q23.5 -42.5 65.5 -68t95 -25.5t95 25.5t65.5 68
t23.5 92.5q0 49 -24 91.5t-66 67.5t-94 25q-53 0 -95 -25t-65.5 -67.5t-23.5 -91.5q0 -50 23.5 -92.5z" />
    <glyph glyph-name="zero.tosf" 
d="M121 65q-45 76 -45 183q0 63 18.5 122.5t60.5 98.5t107 39t107 -39t60.5 -98.5t18.5 -122.5q0 -107 -45 -183t-141 -76t-141 76zM349.5 64q32.5 36 45.5 86t13 98t-13 98.5t-45.5 86.5t-87.5 36t-87.5 -36t-45.5 -86.5t-13 -98.5t13 -98t45.5 -86t87.5 -36t87.5 36z" />
    <glyph glyph-name="one.tosf" 
d="M420 40v-40h-310v40h134v403l-83 -52l-21 32l134 84h10v-467h136z" />
    <glyph glyph-name="two.tosf" 
d="M131 25q114 89 147 113l20 15q58 42 88 67.5t47.5 54.5t17.5 65q0 57 -39.5 93t-100.5 36q-62 0 -106.5 -41.5t-48.5 -115.5l-39 8q3 53 29.5 96t69.5 67.5t95 24.5t93.5 -23t64 -61.5t22.5 -83.5q0 -44 -21 -79t-49.5 -60.5t-78.5 -62.5l-132 -98h290v-40l-369 1v24z
" />
    <glyph glyph-name="three.tosf" 
d="M380.5 253.5q48.5 -28.5 76 -76.5t27.5 -103t-27.5 -105t-76.5 -80.5t-110 -30.5q-88 0 -144 48t-79 121l38 20q21 -70 67 -110t118 -40q49 0 88.5 24t62.5 65t23 88t-22.5 86t-62.5 61.5t-89 22.5q-38 0 -65.5 -9t-51.5 -25l-23 26l245 225h-294v39h351v-36l-209 -189
q20 7 47 7q62 0 110.5 -28.5z" />
    <glyph glyph-name="four.tosf" 
d="M478 0h-77v-128h-40v128h-310v9l340 514h10v-483h77v-40zM361 40v369l-245 -369h245z" />
    <glyph glyph-name="five.tosf" 
d="M383.5 254q48.5 -29 76 -77t27.5 -103t-27.5 -105t-76.5 -80.5t-110 -30.5q-88 0 -144 48t-79 121l38 20q21 -70 67 -110t118 -40q49 0 88.5 24t62.5 65t23 88t-22.5 86t-62.5 61.5t-89 22.5q-83 0 -143 -50l-28 10l67 297h264v-40h-235l-47 -210q24 15 57 23.5t65 8.5
q62 0 110.5 -29z" />
    <glyph glyph-name="six.tosf" 
d="M378.5 382q48.5 -29 74.5 -77.5t26 -104.5q0 -57 -26 -105.5t-74.5 -77t-113.5 -28.5t-113.5 28.5t-74.5 77t-26 105.5v1q0 52 21.5 100.5t56.5 106.5l11 17l122 200h49l-160 -250q52 36 114 36q65 0 113.5 -29zM354.5 50.5q39.5 22.5 62 62t22.5 87.5q0 46 -22.5 85.5
t-62 63t-89.5 23.5t-89.5 -23.5t-62 -63t-22.5 -85.5q0 -48 22.5 -87.5t62 -62t89.5 -22.5t89.5 22.5z" />
    <glyph glyph-name="seven.tosf" 
d="M468 490l-219 -618h-46l216 589h-346v39h395v-10z" />
    <glyph glyph-name="eight.tosf" 
d="M429.5 281.5q32.5 -45.5 32.5 -103.5q0 -51 -25.5 -94.5t-70.5 -69t-101 -25.5t-101 25.5t-70.5 69t-25.5 94.5q0 59 32.5 105t87.5 66q-38 19 -60.5 54t-22.5 76t21 76.5t58 56.5t82 21t81.5 -21t57.5 -56.5t21 -76.5t-22.5 -76t-60.5 -55q54 -21 86.5 -66.5zM178 396.5
q34 -33.5 87 -33.5q54 0 87.5 33.5t33.5 82.5q0 48 -34 81.5t-87 33.5t-87 -33.5t-34 -81.5q0 -49 34 -82.5zM346.5 48.5q36.5 20.5 56.5 55t20 74.5t-20.5 74.5t-56.5 55t-81 20.5t-81 -20.5t-56 -55t-20 -74.5t20 -74.5t56 -55t81 -20.5t81.5 20.5z" />
    <glyph glyph-name="nine.tosf" 
d="M479 296q0 -52 -21.5 -100.5t-56.5 -106.5l-11 -17l-122 -200h-49l160 250q-52 -36 -114 -36q-65 0 -113.5 29t-74.5 77.5t-26 104.5q0 57 26 105.5t74.5 77t113.5 28.5t113.5 -28.5t74.5 -77t26 -105.5v-1zM113.5 211.5q22.5 -39.5 62 -63t89.5 -23.5t89.5 23.5t62 63
t22.5 85.5q0 48 -22.5 87.5t-62 62t-89.5 22.5t-89.5 -22.5t-62 -62t-22.5 -87.5q0 -46 22.5 -85.5z" />
    <glyph glyph-name="zero.subs" horiz-adv-x="268" 
d="M53.5 -80q-26.5 47 -26.5 120q0 75 26.5 122t80.5 47q53 0 80 -47t27 -122q0 -73 -27 -120t-80 -47q-54 0 -80.5 47zM190 -53.5q17 39.5 17 93.5q0 57 -16.5 96.5t-56.5 39.5t-56.5 -39.5t-16.5 -96.5q0 -54 17 -93.5t56 -39.5t56 39.5z" />
    <glyph glyph-name="one.subs" horiz-adv-x="172" 
d="M119 203v-323h-34v267l-41 -27l-17 27l82 56h10z" />
    <glyph glyph-name="two.subs" horiz-adv-x="243" 
d="M31 -110l101 130q5 6 19 24t21.5 35.5t7.5 34.5q0 24 -15.5 42.5t-44.5 18.5q-28 0 -45.5 -19.5t-21.5 -48.5l-31 10q5 38 31 65t67 27q44 0 69 -28.5t25 -65.5q0 -28 -11.5 -49.5t-26 -40t-18.5 -24.5l-66 -87h124v-34h-185v10z" />
    <glyph glyph-name="three.subs" horiz-adv-x="263" 
d="M206.5 51q29.5 -30 29.5 -73q0 -42 -30.5 -73.5t-78.5 -31.5q-39 0 -67.5 22.5t-37.5 56.5l31 13q7 -26 27 -42.5t47 -16.5q34 0 55 20.5t21 51.5t-21 52t-55 21q-25 0 -43 -9l-13 15l93 111h-129v34h180v-24l-83 -96q45 -1 74.5 -31z" />
    <glyph glyph-name="four.subs" horiz-adv-x="237" 
d="M215 -87h-33v-43h-34v43h-140v5l164 288h10v-259h33v-34zM148 -53v158l-89 -158h89z" />
    <glyph glyph-name="five.subs" horiz-adv-x="259" 
d="M203.5 50.5q28.5 -31.5 28.5 -73.5t-29.5 -73t-76.5 -31q-39 0 -67 22.5t-37 56.5l31 12q7 -25 27 -41.5t46 -16.5q33 0 53.5 20.5t20.5 50.5t-20.5 51t-53.5 21q-22 0 -42 -8.5t-36 -23.5l-7 3l40 182h128v-34h-103l-22 -94q19 8 42 8q49 0 77.5 -31.5z" />
    <glyph glyph-name="six.subs" horiz-adv-x="253" 
d="M201.5 51.5q29.5 -30.5 29.5 -74.5q0 -43 -29.5 -73.5t-74.5 -30.5q-46 0 -75.5 30.5t-29.5 73.5v1q0 23 8.5 43t27.5 55l32 57l38 69h36l-70 -125q17 5 33 5q45 0 74.5 -30.5zM177.5 -73.5q20.5 21.5 20.5 50.5q0 30 -20 51t-51 21t-51 -21t-20 -51q0 -29 20 -50.5
t51 -21.5q30 0 50.5 21.5z" />
    <glyph glyph-name="seven.subs" horiz-adv-x="218" 
d="M210 192l-109 -312h-35l105 288h-155v34h194v-10z" />
    <glyph glyph-name="eight.subs" horiz-adv-x="258" 
d="M216 23q15 -24 15 -52q0 -41 -29 -69.5t-73 -28.5t-73 28.5t-29 69.5q0 29 15 52.5t40 36.5q-17 11 -26.5 29t-9.5 38q0 33 24 57.5t59 24.5t59.5 -24.5t24.5 -57.5q0 -20 -10 -38t-27 -29q25 -13 40 -37zM92 163q-15 -15 -15 -36q0 -22 15 -38t37 -16q23 0 37.5 16
t14.5 38q0 21 -14.5 36t-37.5 15q-22 0 -37 -15zM177.5 -75.5q19.5 19.5 19.5 47.5q0 27 -19.5 47.5t-48.5 20.5t-48.5 -20.5t-19.5 -47.5q0 -28 19.5 -47.5t48.5 -19.5t48.5 19.5z" />
    <glyph glyph-name="nine.subs" horiz-adv-x="253" 
d="M231 104q0 -23 -8.5 -43t-27.5 -55l-32 -57l-38 -69h-36l70 125q-17 -5 -33 -5q-45 0 -74.5 30.5t-29.5 74.5q0 43 29.5 73.5t74.5 30.5q46 0 75.5 -30.5t29.5 -73.5v-1zM75 54q20 -21 51 -21t51 21t20 51q0 29 -20 50.5t-51 21.5q-30 0 -50.5 -21.5t-20.5 -50.5
q0 -30 20 -51z" />
    <glyph glyph-name="zero.dnom" horiz-adv-x="268" 
d="M53.5 40q-26.5 47 -26.5 120q0 75 26.5 122t80.5 47q53 0 80 -47t27 -122q0 -73 -27 -120t-80 -47q-54 0 -80.5 47zM190 66.5q17 39.5 17 93.5q0 57 -16.5 96.5t-56.5 39.5t-56.5 -39.5t-16.5 -96.5q0 -54 17 -93.5t56 -39.5t56 39.5z" />
    <glyph glyph-name="one.dnom" horiz-adv-x="172" 
d="M119 323v-323h-34v267l-41 -27l-17 27l82 56h10z" />
    <glyph glyph-name="two.dnom" horiz-adv-x="243" 
d="M31 10l101 130q5 6 19 24t21.5 35.5t7.5 34.5q0 24 -15.5 42.5t-44.5 18.5q-28 0 -45.5 -19.5t-21.5 -48.5l-31 10q5 38 31 65t67 27q44 0 69 -28.5t25 -65.5q0 -28 -11.5 -49.5t-26 -40t-18.5 -24.5l-66 -87h124v-34h-185v10z" />
    <glyph glyph-name="three.dnom" horiz-adv-x="263" 
d="M206.5 171q29.5 -30 29.5 -73q0 -42 -30.5 -73.5t-78.5 -31.5q-39 0 -67.5 22.5t-37.5 56.5l31 13q7 -26 27 -42.5t47 -16.5q34 0 55 20.5t21 51.5t-21 52t-55 21q-25 0 -43 -9l-13 15l93 111h-129v34h180v-24l-83 -96q45 -1 74.5 -31z" />
    <glyph glyph-name="four.dnom" horiz-adv-x="237" 
d="M215 43h-33v-43h-34v43h-140v5l164 288h10v-259h33v-34zM148 77v158l-89 -158h89z" />
    <glyph glyph-name="five.dnom" horiz-adv-x="259" 
d="M203.5 170.5q28.5 -31.5 28.5 -73.5t-29.5 -73t-76.5 -31q-39 0 -67 22.5t-37 56.5l31 12q7 -25 27 -41.5t46 -16.5q33 0 53.5 20.5t20.5 50.5t-20.5 51t-53.5 21q-22 0 -42 -8.5t-36 -23.5l-7 3l40 182h128v-34h-103l-22 -94q19 8 42 8q49 0 77.5 -31.5z" />
    <glyph glyph-name="six.dnom" horiz-adv-x="253" 
d="M201.5 171.5q29.5 -30.5 29.5 -74.5q0 -43 -29.5 -73.5t-74.5 -30.5q-46 0 -75.5 30.5t-29.5 73.5v1q0 23 8.5 43t27.5 55l32 57l38 69h36l-70 -125q17 5 33 5q45 0 74.5 -30.5zM177.5 46.5q20.5 21.5 20.5 50.5q0 30 -20 51t-51 21t-51 -21t-20 -51q0 -29 20 -50.5
t51 -21.5q30 0 50.5 21.5z" />
    <glyph glyph-name="seven.dnom" horiz-adv-x="218" 
d="M210 312l-109 -312h-35l105 288h-155v34h194v-10z" />
    <glyph glyph-name="eight.dnom" horiz-adv-x="258" 
d="M216 143q15 -24 15 -52q0 -41 -29 -69.5t-73 -28.5t-73 28.5t-29 69.5q0 29 15 52.5t40 36.5q-17 11 -26.5 29t-9.5 38q0 33 24 57.5t59 24.5t59.5 -24.5t24.5 -57.5q0 -20 -10 -38t-27 -29q25 -13 40 -37zM92 283q-15 -15 -15 -36q0 -22 15 -38t37 -16q23 0 37.5 16
t14.5 38q0 21 -14.5 36t-37.5 15q-22 0 -37 -15zM177.5 44.5q19.5 19.5 19.5 47.5q0 27 -19.5 47.5t-48.5 20.5t-48.5 -20.5t-19.5 -47.5q0 -28 19.5 -47.5t48.5 -19.5t48.5 19.5z" />
    <glyph glyph-name="nine.dnom" horiz-adv-x="253" 
d="M231 224q0 -23 -8.5 -43t-27.5 -55l-32 -57l-38 -69h-36l70 125q-17 -5 -33 -5q-45 0 -74.5 30.5t-29.5 74.5q0 43 29.5 73.5t74.5 30.5q46 0 75.5 -30.5t29.5 -73.5v-1zM75 174q20 -21 51 -21t51 21t20 51q0 29 -20 50.5t-51 21.5q-30 0 -50.5 -21.5t-20.5 -50.5
q0 -30 20 -51z" />
    <glyph glyph-name="zero.numr" horiz-adv-x="268" 
d="M53.5 418q-26.5 47 -26.5 120q0 75 26.5 122t80.5 47q53 0 80 -47t27 -122q0 -73 -27 -120t-80 -47q-54 0 -80.5 47zM190 444.5q17 39.5 17 93.5q0 57 -16.5 96.5t-56.5 39.5t-56.5 -39.5t-16.5 -96.5q0 -54 17 -93.5t56 -39.5t56 39.5z" />
    <glyph glyph-name="one.numr" horiz-adv-x="172" 
d="M119 701v-323h-34v267l-41 -27l-17 27l82 56h10z" />
    <glyph glyph-name="two.numr" horiz-adv-x="243" 
d="M31 388l101 130q5 6 19 24t21.5 35.5t7.5 34.5q0 24 -15.5 42.5t-44.5 18.5q-28 0 -45.5 -19.5t-21.5 -48.5l-31 10q5 38 31 65t67 27q44 0 69 -28.5t25 -65.5q0 -28 -11.5 -49.5t-26 -40t-18.5 -24.5l-66 -87h124v-34h-185v10z" />
    <glyph glyph-name="three.numr" horiz-adv-x="263" 
d="M206.5 549q29.5 -30 29.5 -73q0 -42 -30.5 -73.5t-78.5 -31.5q-39 0 -67.5 22.5t-37.5 56.5l31 13q7 -26 27 -42.5t47 -16.5q34 0 55 20.5t21 51.5t-21 52t-55 21q-25 0 -43 -9l-13 15l93 111h-129v34h180v-24l-83 -96q45 -1 74.5 -31z" />
    <glyph glyph-name="four.numr" horiz-adv-x="237" 
d="M215 421h-33v-43h-34v43h-140v5l164 288h10v-259h33v-34zM148 455v158l-89 -158h89z" />
    <glyph glyph-name="five.numr" horiz-adv-x="259" 
d="M203.5 548.5q28.5 -31.5 28.5 -73.5t-29.5 -73t-76.5 -31q-39 0 -67 22.5t-37 56.5l31 12q7 -25 27 -41.5t46 -16.5q33 0 53.5 20.5t20.5 50.5t-20.5 51t-53.5 21q-22 0 -42 -8.5t-36 -23.5l-7 3l40 182h128v-34h-103l-22 -94q19 8 42 8q49 0 77.5 -31.5z" />
    <glyph glyph-name="six.numr" horiz-adv-x="253" 
d="M201.5 549.5q29.5 -30.5 29.5 -74.5q0 -43 -29.5 -73.5t-74.5 -30.5q-46 0 -75.5 30.5t-29.5 73.5v1q0 23 8.5 43t27.5 55l32 57l38 69h36l-70 -125q17 5 33 5q45 0 74.5 -30.5zM177.5 424.5q20.5 21.5 20.5 50.5q0 30 -20 51t-51 21t-51 -21t-20 -51q0 -29 20 -50.5
t51 -21.5q30 0 50.5 21.5z" />
    <glyph glyph-name="seven.numr" horiz-adv-x="218" 
d="M210 690l-109 -312h-35l105 288h-155v34h194v-10z" />
    <glyph glyph-name="eight.numr" horiz-adv-x="258" 
d="M216 521q15 -24 15 -52q0 -41 -29 -69.5t-73 -28.5t-73 28.5t-29 69.5q0 29 15 52.5t40 36.5q-17 11 -26.5 29t-9.5 38q0 33 24 57.5t59 24.5t59.5 -24.5t24.5 -57.5q0 -20 -10 -38t-27 -29q25 -13 40 -37zM92 661q-15 -15 -15 -36q0 -22 15 -38t37 -16q23 0 37.5 16
t14.5 38q0 21 -14.5 36t-37.5 15q-22 0 -37 -15zM177.5 422.5q19.5 19.5 19.5 47.5q0 27 -19.5 47.5t-48.5 20.5t-48.5 -20.5t-19.5 -47.5q0 -28 19.5 -47.5t48.5 -19.5t48.5 19.5z" />
    <glyph glyph-name="nine.numr" horiz-adv-x="253" 
d="M231 601q0 -23 -8.5 -43t-27.5 -55l-32 -57l-38 -69h-36l70 125q-17 -5 -33 -5q-45 0 -74.5 30.5t-29.5 74.5q0 43 29.5 73.5t74.5 30.5q46 0 75.5 -30.5t29.5 -73.5v-1zM75 551q20 -21 51 -21t51 21t20 51q0 29 -20 50.5t-51 21.5q-30 0 -50.5 -21.5t-20.5 -50.5
q0 -30 20 -51z" />
    <glyph glyph-name="zero.sups" horiz-adv-x="268" 
d="M53.5 540q-26.5 47 -26.5 120q0 75 26.5 122t80.5 47q53 0 80 -47t27 -122q0 -73 -27 -120t-80 -47q-54 0 -80.5 47zM190 566.5q17 39.5 17 93.5q0 57 -16.5 96.5t-56.5 39.5t-56.5 -39.5t-16.5 -96.5q0 -54 17 -93.5t56 -39.5t56 39.5z" />
    <glyph glyph-name="one.sups" horiz-adv-x="172" 
d="M119 823v-323h-34v267l-41 -27l-17 27l82 56h10z" />
    <glyph glyph-name="two.sups" horiz-adv-x="243" 
d="M31 510l101 130q5 6 19 24t21.5 35.5t7.5 34.5q0 24 -15.5 42.5t-44.5 18.5q-28 0 -45.5 -19.5t-21.5 -48.5l-31 10q5 38 31 65t67 27q44 0 69 -28.5t25 -65.5q0 -28 -11.5 -49.5t-26 -40t-18.5 -24.5l-66 -87h124v-34h-185v10z" />
    <glyph glyph-name="three.sups" horiz-adv-x="263" 
d="M206.5 671q29.5 -30 29.5 -73q0 -42 -30.5 -73.5t-78.5 -31.5q-39 0 -67.5 22.5t-37.5 56.5l31 13q7 -26 27 -42.5t47 -16.5q34 0 55 20.5t21 51.5t-21 52t-55 21q-25 0 -43 -9l-13 15l93 111h-129v34h180v-24l-83 -96q45 -1 74.5 -31z" />
    <glyph glyph-name="four.sups" horiz-adv-x="237" 
d="M215 543h-33v-43h-34v43h-140v5l164 288h10v-259h33v-34zM148 577v158l-89 -158h89z" />
    <glyph glyph-name="five.sups" horiz-adv-x="259" 
d="M203.5 670.5q28.5 -31.5 28.5 -73.5t-29.5 -73t-76.5 -31q-39 0 -67 22.5t-37 56.5l31 12q7 -25 27 -41.5t46 -16.5q33 0 53.5 20.5t20.5 50.5t-20.5 51t-53.5 21q-22 0 -42 -8.5t-36 -23.5l-7 3l40 182h128v-34h-103l-22 -94q19 8 42 8q49 0 77.5 -31.5z" />
    <glyph glyph-name="six.sups" horiz-adv-x="253" 
d="M201.5 671.5q29.5 -30.5 29.5 -74.5q0 -43 -29.5 -73.5t-74.5 -30.5q-46 0 -75.5 30.5t-29.5 73.5v1q0 23 8.5 43t27.5 55l32 57l38 69h36l-70 -125q17 5 33 5q45 0 74.5 -30.5zM177.5 546.5q20.5 21.5 20.5 50.5q0 30 -20 51t-51 21t-51 -21t-20 -51q0 -29 20 -50.5
t51 -21.5q30 0 50.5 21.5z" />
    <glyph glyph-name="seven.sups" horiz-adv-x="218" 
d="M210 812l-109 -312h-35l105 288h-155v34h194v-10z" />
    <glyph glyph-name="eight.sups" horiz-adv-x="258" 
d="M216 643q15 -24 15 -52q0 -41 -29 -69.5t-73 -28.5t-73 28.5t-29 69.5q0 29 15 52.5t40 36.5q-17 11 -26.5 29t-9.5 38q0 33 24 57.5t59 24.5t59.5 -24.5t24.5 -57.5q0 -20 -10 -38t-27 -29q25 -13 40 -37zM92 783q-15 -15 -15 -36q0 -22 15 -38t37 -16q23 0 37.5 16
t14.5 38q0 21 -14.5 36t-37.5 15q-22 0 -37 -15zM177.5 544.5q19.5 19.5 19.5 47.5q0 27 -19.5 47.5t-48.5 20.5t-48.5 -20.5t-19.5 -47.5q0 -28 19.5 -47.5t48.5 -19.5t48.5 19.5z" />
    <glyph glyph-name="nine.sups" horiz-adv-x="253" 
d="M231 724q0 -23 -8.5 -43t-27.5 -55l-32 -57l-38 -69h-36l70 125q-17 -5 -33 -5q-45 0 -74.5 30.5t-29.5 74.5q0 43 29.5 73.5t74.5 30.5q46 0 75.5 -30.5t29.5 -73.5v-1zM75 674q20 -21 51 -21t51 21t20 51q0 29 -20 50.5t-51 21.5q-30 0 -50.5 -21.5t-20.5 -50.5
q0 -30 20 -51z" />
    <glyph glyph-name="space.tf" 
 />
    <glyph glyph-name="cent.tf" 
d="M195 538.5q-49 -29.5 -75.5 -79.5t-26.5 -109t26.5 -109t75.5 -79.5t112 -29.5q54 0 99.5 21.5t74.5 57.5v-54q-31 -29 -72 -45.5t-89 -18.5v-93h-39v94q-68 6 -120 42t-80 92t-28 122t28 122t80 92t120 42v94h39v-93q48 -2 89 -18.5t72 -45.5v-54q-29 36 -74.5 57.5
t-99.5 21.5q-63 0 -112 -29.5z" />
    <glyph glyph-name="currency.tf" 
d="M512 263q-15 -43 -43 -77l49 -49l-28 -28l-48 48q-70 -62 -167 -62q-98 0 -167 61l-47 -47l-28 28l48 48q-28 35 -43 77.5t-15 89.5q0 46 15 89t43 77l-48 48l28 28l47 -47q69 61 167 61q97 0 167 -62l48 48l28 -28l-49 -49q28 -34 43 -76.5t15 -88.5t-15 -89zM384.5 164
q48.5 30 75.5 80.5t27 108.5t-27 107.5t-75.5 79t-109.5 29.5t-109.5 -29.5t-75.5 -79t-27 -107.5t27 -108.5t75.5 -80.5t109.5 -30t109.5 30z" />
    <glyph glyph-name="dollar.tf" 
d="M154 473q21 -29 51.5 -47t83.5 -43q60 -27 97 -50.5t63 -63t26 -98.5q0 -68 -45.5 -118.5t-123.5 -59.5v-61h-39v60q-59 4 -109 36.5t-82 79.5l30 27q33 -48 79 -76t96 -28q66 0 110.5 38.5t44.5 98.5q0 49 -23 82.5t-56.5 54t-89.5 46.5q-58 27 -92 48t-57.5 56
t-23.5 87q0 47 23 84t62.5 58t87.5 24v63h39v-65q82 -11 152 -89l-25 -28q-31 35 -71 57.5t-84 22.5q-62 0 -103.5 -36t-41.5 -90q0 -41 21 -70z" />
    <glyph glyph-name="Euro.tf" 
d="M291.5 639.5q-49.5 -32.5 -82.5 -88.5t-45 -127h249v-38h-254q-1 -12 -1 -36q0 -20 1 -30h254v-38h-250q11 -72 43.5 -130t83 -91t111.5 -33q39 0 69 9t58 28v-41q-54 -34 -123 -34q-78 0 -138 38.5t-97 104.5t-48 149h-71v38h68q-1 10 -1 30q0 24 1 36h-68v38h72
q12 82 49 146.5t96.5 102t136.5 37.5q69 0 123 -34v-41q-28 19 -58 28t-69 9q-60 0 -109.5 -32.5z" />
    <glyph glyph-name="florin.tf" 
d="M418 672q-82 0 -94 -96l-17 -138h147v-38h-151l-35 -286q-7 -59 -42 -90.5t-90 -31.5q-29 0 -62 9v37q31 -10 59 -10q41 0 65.5 24.5t30.5 72.5l34 275h-145v38h149l18 149q7 59 41 90t89 31q29 0 62 -9v-37q-31 10 -59 10z" />
    <glyph glyph-name="sterling.tf" 
d="M210.5 130q-21.5 -49 -53.5 -91h329v-39h-392v12q5 7 36.5 50t47.5 82.5t16 75.5v13h-106v38h100q-9 35 -40 90q-25 44 -37.5 78t-12.5 77q0 49 23 93.5t67.5 72.5t105.5 28q57 0 100.5 -25.5t69.5 -68.5t33 -94l-37 -11q-11 74 -55.5 117.5t-110.5 43.5q-52 0 -87 -24
t-52 -60t-17 -72q0 -37 12 -69.5t36 -78.5q16 -30 26 -52t15 -45h197v-38h-192v-4q0 -50 -21.5 -99z" />
    <glyph glyph-name="yen.tf" 
d="M300 256h167v-38h-172v-66h172v-38h-172v-114h-40v114h-150v38h150v66h-150v38h145l-247 444h46l226 -416l226 416h46z" />
    <glyph glyph-name="caroncomb.alt" horiz-adv-x="0" 
d="M-77 544l35 177l42 -9l-48 -174z" />
    </font>
</defs>
</svg>
