<?xml version="1.0" standalone="no"?>
<!DOCTYPE svg PUBLIC "-//W3C//DTD SVG 1.1//EN" "http://www.w3.org/Graphics/SVG/1.1/DTD/svg11.dtd" >
<svg xmlns="http://www.w3.org/2000/svg" xmlns:xlink="http://www.w3.org/1999/xlink" version="1.1">
<metadata>
Created by FontForge 20170731 at Thu Jun 23 15:37:39 2016
 By Aleksey,,,
Copyright (c) 2016 by Jonathan Ball. All rights reserved.
</metadata>
<defs>
<font id="Acre-Black" horiz-adv-x="597" >
  <font-face 
    font-family="Acre-Black"
    font-weight="400"
    font-stretch="normal"
    units-per-em="1000"
    panose-1="0 0 10 0 0 0 0 0 0 0"
    ascent="792"
    descent="-208"
    x-height="500"
    cap-height="700"
    bbox="-692 -222 1114 1068"
    underline-thickness="50"
    underline-position="-150"
    unicode-range="U+0020-FB02"
  />
<missing-glyph horiz-adv-x="500" 
d="M410 -200h-317v1000h317v-1000zM168 733v-33h65v-37h-66v-33h166v33h-66v37h66v33h-165zM167 604v-104h166v34h-66v70h-100zM233 534h-33v36h33v-36zM167 473v-33h66v-37h-66v-33h100v70h66v33h-166zM300 413v-66h-133v-34h166v100h-33zM233 291v-56h34v23h33v-47h-100
v80h-33v-113h166v113h-100zM167 118v-113h166v113h-166zM300 38h-100v47h100v-47zM167 -18v-33h70l-70 -47v-33h166v33h-102l70 47h32v33h-166z" />
    <glyph glyph-name="fi" unicode="fi" horiz-adv-x="709" 
d="M649 0h-212v307h-143v-307h-211v307h-65v193h65v94q0 101 46 158.5t142 57.5q37 0 71 -7.5t53 -20.5v-217q-36 17 -63 17q-17 0 -27.5 -11t-10.5 -31v-40h355v-500zM456 581q-36 36 -36 86q0 51 35.5 86.5t86.5 35.5q52 0 87 -35t35 -87q0 -51 -35.5 -86.5t-86.5 -35.5
q-50 0 -86 36z" />
    <glyph glyph-name="fl" unicode="fl" horiz-adv-x="706" 
d="M304.5 571q-10.5 -11 -10.5 -31v-40h101v-193h-101v-307h-211v307h-65v193h65v94q0 101 46 158.5t142 57.5q37 0 71 -7.5t53 -20.5v-217q-36 17 -63 17q-17 0 -27.5 -11zM449 800h211v-800h-211v800z" />
    <glyph glyph-name=".notdef" horiz-adv-x="500" 
d="M410 -200h-317v1000h317v-1000zM168 733v-33h65v-37h-66v-33h166v33h-66v37h66v33h-165zM167 604v-104h166v34h-66v70h-100zM233 534h-33v36h33v-36zM167 473v-33h66v-37h-66v-33h100v70h66v33h-166zM300 413v-66h-133v-34h166v100h-33zM233 291v-56h34v23h33v-47h-100
v80h-33v-113h166v113h-100zM167 118v-113h166v113h-166zM300 38h-100v47h100v-47zM167 -18v-33h70l-70 -47v-33h166v33h-102l70 47h32v33h-166z" />
    <glyph glyph-name=".null" horiz-adv-x="0" 
 />
    <glyph glyph-name="nonmarkingreturn" horiz-adv-x="333" 
 />
    <glyph glyph-name="space" unicode=" " horiz-adv-x="302" 
 />
    <glyph glyph-name="exclam" unicode="!" horiz-adv-x="319" 
d="M36 700h246l-46 -453h-154zM80.5 20.5q-32.5 32.5 -32.5 79.5q0 46 32.5 79t79.5 33q46 0 78.5 -33t32.5 -79t-32.5 -79t-78.5 -33q-47 0 -79.5 32.5z" />
    <glyph glyph-name="quotedbl" unicode="&#x22;" horiz-adv-x="409" 
d="M374 421h-149l-20 243l-21 -243h-149l-23 279h386z" />
    <glyph glyph-name="numbersign" unicode="#" horiz-adv-x="626" 
d="M510 377l-13 -86h99v-158h-124l-21 -133h-154l21 133h-74l-21 -133h-153l21 133h-61v158h86l13 86h-99v158h124l26 165h153l-26 -165h74l26 165h154l-26 -165h61v-158h-86zM356 377h-74l-13 -86h74z" />
    <glyph glyph-name="dollar" unicode="$" horiz-adv-x="580" 
d="M311.5 453.5q15.5 -9.5 48.5 -22.5q57 -25 95.5 -48.5t69 -67t30.5 -107.5q0 -89 -58 -149t-162 -70v-57h-71v56q-66 6 -130 29.5t-109 57.5l103 189q35 -24 79.5 -41.5t71.5 -17.5q15 0 23 6t8 16q0 12 -14.5 20.5t-52.5 24.5q-56 23 -95 46t-68.5 66t-29.5 108
q0 86 57.5 146.5t156.5 72.5v60h71v-59q61 -5 117 -26.5t101 -51.5l-102 -188q-28 17 -66 31.5t-63 14.5q-26 0 -26 -19q0 -10 15.5 -19.5z" />
    <glyph glyph-name="percent" unicode="%" horiz-adv-x="715" 
d="M98.5 415q-36.5 22 -58.5 58.5t-22 78.5q0 44 21.5 80.5t58.5 57.5t79 21q44 0 80.5 -21t57.5 -57.5t21 -80.5q0 -43 -21 -79.5t-57.5 -58t-80.5 -21.5q-42 0 -78.5 22zM512 700h143l-448 -700h-142zM198.5 532.5q8.5 8.5 8.5 20.5t-8.5 20.5t-20.5 8.5t-20.5 -8.5
t-8.5 -20.5t8.5 -20.5t20.5 -8.5t20.5 8.5zM459.5 10q-36.5 22 -58.5 58.5t-22 78.5q0 44 22 80.5t58.5 57.5t78.5 21q44 0 81 -21t58 -57.5t21 -80.5q0 -42 -21.5 -78.5t-58 -58.5t-80.5 -22q-42 0 -78.5 22zM560.5 127.5q8.5 8.5 8.5 20.5t-8.5 20.5t-21.5 8.5
q-12 0 -20.5 -8.5t-8.5 -20.5t8.5 -20.5t20.5 -8.5q13 0 21.5 8.5z" />
    <glyph glyph-name="ampersand" unicode="&#x26;" horiz-adv-x="660" 
d="M469 0l-21 25q-71 -38 -153 -38q-76 0 -136 24t-94.5 70t-34.5 110t34.5 108t93.5 78q-30 39 -46 75t-16 80q0 46 24 87.5t69 67.5t106 26q58 0 102.5 -25.5t68.5 -67.5t24 -91q0 -65 -30.5 -110t-83.5 -84q-1 1 17 -20l26 -31q12 32 13 62h188q0 -131 -66 -225l102 -121
h-187zM286 443q38 21 38 44q0 13 -7.5 21.5t-21.5 8.5t-21.5 -8.5t-7.5 -21.5q0 -17 20 -44zM322 178l-57 69q-12 -16 -12 -36q0 -17 11.5 -27.5t30.5 -10.5q10 0 27 5z" />
    <glyph glyph-name="quotesingle" unicode="'" horiz-adv-x="219" 
d="M12 700h196l-24 -279h-149z" />
    <glyph glyph-name="parenleft" unicode="(" horiz-adv-x="309" 
d="M56 85.5q-16 110.5 -16 236.5q0 136 15.5 238.5t50.5 237.5h183q-25 -127 -36.5 -239t-11.5 -237q0 -234 48 -477h-183q-34 130 -50 240.5z" />
    <glyph glyph-name="parenright" unicode=")" horiz-adv-x="309" 
d="M20 -155q48 243 48 477q0 125 -11.5 237t-36.5 239h183q35 -135 50.5 -237.5t15.5 -238.5q0 -126 -16 -236.5t-50 -240.5h-183z" />
    <glyph glyph-name="asterisk" unicode="*" horiz-adv-x="324" 
d="M219 612l93 -18l-59 -103l-62 70l31 -88h-120l31 88l-62 -70l-59 103l93 18l-93 18l59 103l62 -70l-31 88h120l-31 -88l62 70l59 -103z" />
    <glyph glyph-name="plus" unicode="+" horiz-adv-x="438" 
d="M413 233h-129v-123h-139v123h-120v136h120v125h139v-125h129v-136z" />
    <glyph glyph-name="comma" unicode="," horiz-adv-x="245" 
d="M44 225h187l-91 -323h-125z" />
    <glyph glyph-name="hyphen" unicode="-" horiz-adv-x="374" 
d="M25 387h324v-174h-324v174z" />
    <glyph glyph-name="period" unicode="." horiz-adv-x="253" 
d="M47.5 20.5q-32.5 32.5 -32.5 79.5q0 46 32.5 79t79.5 33q46 0 78.5 -33t32.5 -79t-32.5 -79t-78.5 -33q-47 0 -79.5 32.5z" />
    <glyph glyph-name="slash" unicode="/" horiz-adv-x="412" 
d="M0 -120l211 920h201l-212 -920h-200z" />
    <glyph glyph-name="zero" unicode="0" horiz-adv-x="588" 
d="M93.5 86.5q-66.5 99.5 -66.5 262.5q0 162 67 262.5t201 100.5q135 0 200.5 -100t65.5 -263t-65.5 -262.5t-200.5 -99.5t-201.5 99.5zM334 349q0 133 -40 133q-19 0 -28.5 -31.5t-9.5 -101.5t9.5 -100.5t28.5 -30.5q40 0 40 131z" />
    <glyph glyph-name="one" unicode="1" horiz-adv-x="402" 
d="M357 701v-701h-220v442l-57 -19l-62 199l176 79h163z" />
    <glyph glyph-name="two" unicode="2" horiz-adv-x="576" 
d="M55 155l39 35q82 74 188 173q24 24 36 43t12 39q0 18 -12.5 31t-28.5 13q-27 0 -40.5 -23.5t-11.5 -53.5l-212 58q3 61 36.5 116.5t92.5 90.5t133 35q77 0 137 -31.5t93 -84.5t33 -113q0 -67 -31.5 -121t-91.5 -109q-42 -39 -45 -42h163v-211h-490v155z" />
    <glyph glyph-name="three" unicode="3" horiz-adv-x="577" 
d="M517 333.5q34 -53.5 34 -113.5q0 -64 -33 -117t-92 -84.5t-132 -31.5q-104 0 -171.5 52t-96.5 132l181 101q11 -28 32.5 -46.5t47.5 -18.5q20 0 34.5 13t14.5 32t-14 31t-33 12q-23 0 -44 -14l-72 105l122 102h-222v212h436v-205l-88 -80q62 -28 96 -81.5z" />
    <glyph glyph-name="four" unicode="4" horiz-adv-x="541" 
d="M526 91h-58v-91h-202v91h-264v174l206 435h260v-426h58v-183zM266 274v195l-75 -195h75z" />
    <glyph glyph-name="five" unicode="5" horiz-adv-x="559" 
d="M419 417.5q56 -32.5 85 -85.5t29 -112q0 -64 -31 -117.5t-87.5 -84.5t-129.5 -31q-103 0 -167 51.5t-92 132.5l194 81q18 -44 55 -44q18 0 31 12.5t13 32.5q0 21 -15.5 34.5t-38.5 13.5q-39 0 -71 -27l-150 56l90 370h349v-210l-209 -1l-13 -41q16 2 24 2q78 0 134 -32.5
z" />
    <glyph glyph-name="six" unicode="6" horiz-adv-x="573" 
d="M442.5 432q50.5 -35 77 -87.5t26.5 -111.5q0 -64 -31.5 -120t-90.5 -90.5t-138 -34.5q-76 0 -135 32.5t-92 90t-33 128.5q0 54 15.5 103t41.5 107q14 31 54 115q11 23 32 66.5t33 69.5h231l-109 -225q68 -8 118.5 -43zM317.5 221q12.5 13 12.5 31t-12.5 31t-31.5 13
t-31.5 -13t-12.5 -31t12.5 -31t31.5 -13t31.5 13z" />
    <glyph glyph-name="seven" unicode="7" horiz-adv-x="466" 
d="M464 552l-150 -552h-230l152 490h-229v211l457 -1v-148z" />
    <glyph glyph-name="eight" unicode="8" horiz-adv-x="579" 
d="M531.5 309q20.5 -41 20.5 -85q0 -68 -32 -122t-91.5 -84.5t-138.5 -30.5t-139 30.5t-92 84.5t-32 122q0 45 20 86t54 70q-44 55 -44 128q0 53 29.5 100t82.5 75.5t121 28.5t121 -28.5t82.5 -75.5t29.5 -100q0 -75 -46 -129q34 -29 54.5 -70zM264.5 471q-9.5 -10 -9.5 -25
q0 -14 9.5 -24t25.5 -10q15 0 25 10.5t10 23.5q0 15 -10 25t-25 10q-16 0 -25.5 -10zM322 220.5q12 12.5 12 30.5t-12 30.5t-32 12.5q-19 0 -32 -12.5t-13 -30.5t13 -30.5t32 -12.5q20 0 32 12.5z" />
    <glyph glyph-name="nine" unicode="9" horiz-adv-x="549" 
d="M422 679.5q59 -32.5 92 -90t33 -128.5q0 -54 -15.5 -103t-41.5 -107q-14 -31 -54 -115q-11 -23 -32 -66.5t-33 -69.5h-231l109 225q-68 8 -118.5 43t-77 87.5t-26.5 111.5q0 64 31.5 120t90.5 90.5t138 34.5q76 0 135 -32.5zM255.5 479q-12.5 -13 -12.5 -31t12.5 -31
t31.5 -13t31.5 13t12.5 31t-12.5 31t-31.5 13t-31.5 -13z" />
    <glyph glyph-name="colon" unicode=":" horiz-adv-x="310" 
d="M77.5 20.5q-32.5 32.5 -32.5 79.5q0 46 32.5 79t79.5 33q46 0 78.5 -33t32.5 -79t-32.5 -79t-78.5 -33q-47 0 -79.5 32.5zM77.5 323.5q-32.5 32.5 -32.5 79.5q0 46 32.5 79t79.5 33q46 0 78.5 -33t32.5 -79t-32.5 -79t-78.5 -33q-47 0 -79.5 32.5z" />
    <glyph glyph-name="semicolon" unicode=";" horiz-adv-x="253" 
d="M51 225h187l-91 -323h-125zM47.5 318.5q-32.5 32.5 -32.5 79.5q0 46 32.5 79t79.5 33q46 0 78.5 -33t32.5 -79t-32.5 -79t-78.5 -33q-47 0 -79.5 32.5z" />
    <glyph glyph-name="less" unicode="&#x3c;" horiz-adv-x="398" 
d="M373 399l-204 -72l204 -72v-186l-348 153v219l348 153v-195z" />
    <glyph glyph-name="equal" unicode="=" horiz-adv-x="438" 
d="M25 455h388v-136h-388v136zM25 277h388v-136h-388v136z" />
    <glyph glyph-name="greater" unicode="&#x3e;" horiz-adv-x="398" 
d="M373 441v-219l-348 -153v186l204 72l-204 72v195z" />
    <glyph glyph-name="question" unicode="?" horiz-adv-x="502" 
d="M172 363q53 11 83 31t30 46q0 14 -9.5 24t-22.5 10q-20 0 -30.5 -19t-9.5 -42l-206 49q2 68 32.5 125.5t86.5 91t130 33.5q73 0 127.5 -30.5t83 -82.5t28.5 -116q0 -72 -43 -128.5t-112 -76.5l-4 -41h-155zM178.5 20.5q-32.5 32.5 -32.5 79.5q0 46 32.5 79t79.5 33
q46 0 78.5 -33t32.5 -79t-32.5 -79t-78.5 -33q-47 0 -79.5 32.5z" />
    <glyph glyph-name="at" unicode="@" horiz-adv-x="982" 
d="M727 711q104 -62 161.5 -166t57.5 -227q0 -103 -51 -167t-142 -64q-52 0 -92 21t-61 62q-22 -39 -59 -60.5t-89 -21.5q-56 0 -100.5 30t-69.5 81t-25 111q0 59 25 110.5t70 82.5t100 31q84 0 131 -58v38h131l-2 -214q-1 -43 13.5 -64.5t38.5 -21.5q54 0 54 104
q0 89 -42 164.5t-116.5 120t-168.5 44.5t-169 -45t-117 -120.5t-42 -163.5t42 -163.5t117 -120.5t169 -45q60 0 115.5 17.5t100.5 49.5v-144q-46 -22 -104 -35.5t-112 -13.5q-132 0 -236 61.5t-161.5 166t-57.5 227.5t57.5 227t161.5 166t236 62t236 -62zM557 245.5
q26 27.5 26 67.5q0 39 -26 66t-67 27q-40 0 -66.5 -28t-26.5 -65q0 -39 26.5 -67t66.5 -28q41 0 67 27.5z" />
    <glyph glyph-name="A" unicode="A" horiz-adv-x="681" 
d="M425 82h-167l-18 -82h-238l205 701h271l201 -701h-236zM388 257l-46 212l-46 -212h92z" />
    <glyph glyph-name="B" unicode="B" horiz-adv-x="655" 
d="M596.5 303q28.5 -44 28.5 -106q0 -53 -26 -98t-76.5 -72t-119.5 -27h-353v700h323q69 0 117 -26t72 -69t24 -94q0 -88 -70 -142q52 -22 80.5 -66zM271 490v-63h53q18 0 29 9t11 22q0 15 -10.5 23.5t-28.5 8.5h-54zM373 218q11 10 11 26q0 15 -11 25.5t-31 10.5h-71v-72
h71q20 0 31 10z" />
    <glyph glyph-name="C" unicode="C" horiz-adv-x="571" 
d="M217 34q-84 44 -132.5 125.5t-48.5 189.5t48.5 190t132.5 126t190 44q37 0 74 -6t64 -17l1 -229q-56 32 -127 32q-65 0 -109 -39.5t-44 -100.5q0 -39 20.5 -71t55.5 -50t77 -18q71 0 127 32l-1 -229q-27 -11 -64 -17t-74 -6q-106 0 -190 44z" />
    <glyph glyph-name="D" unicode="D" horiz-adv-x="680" 
d="M475 654.5q81 -45.5 125 -125t44 -176.5q0 -98 -44 -178.5t-125 -127.5t-189 -47h-236v700h236q108 0 189 -45.5zM381.5 251.5q32.5 40.5 32.5 101.5t-32.5 98.5t-91.5 37.5h-19v-278h19q59 0 91.5 40.5z" />
    <glyph glyph-name="E" unicode="E" horiz-adv-x="545" 
d="M271 489v-47h183v-181h-183v-50h243v-211h-464v700h464v-211h-243z" />
    <glyph glyph-name="F" unicode="F" horiz-adv-x="498" 
d="M271 489v-85h152v-202h-152v-202h-221v700h443v-211h-222z" />
    <glyph glyph-name="G" unicode="G" horiz-adv-x="720" 
d="M680 419v-327q-48 -49 -119 -77t-154 -28q-113 0 -197.5 49.5t-129 132.5t-44.5 181t44.5 181t129 132.5t197.5 49.5q79 0 145 -27.5t114 -77.5l-153 -158q-47 42 -109 42q-61 0 -99.5 -41t-38.5 -101q0 -62 39 -102t101 -40q40 0 75 14v44h-96v153h295z" />
    <glyph glyph-name="H" unicode="H" horiz-adv-x="694" 
d="M644 700v-700h-221v239h-152v-239h-221v700h221v-250h152v250h221z" />
    <glyph glyph-name="I" unicode="I" horiz-adv-x="321" 
d="M50 700h221v-700h-221v700z" />
    <glyph glyph-name="J" unicode="J" horiz-adv-x="481" 
d="M102 8q-51 20 -95 61l120 170q32 -30 59 -30q34 0 34 39v452h221v-487q0 -103 -58 -164t-163 -61q-67 0 -118 20z" />
    <glyph glyph-name="K" unicode="K" horiz-adv-x="667" 
d="M407 0l-136 257v-257h-221v700h221v-261l131 261h256l-204 -355l207 -345h-254z" />
    <glyph glyph-name="L" unicode="L" horiz-adv-x="475" 
d="M468 211v-211h-418v700h221v-489h197z" />
    <glyph glyph-name="M" unicode="M" horiz-adv-x="888" 
d="M643 0l-49 288l-127 -291h-47l-125 288l-47 -285h-238l144 701h178l112 -284l111 284h179l144 -701h-235z" />
    <glyph glyph-name="N" unicode="N" horiz-adv-x="728" 
d="M677 700v-701h-226l-180 293v-292h-221v701h226l181 -300v299h220z" />
    <glyph glyph-name="O" unicode="O" horiz-adv-x="808" 
d="M211 37q-84 49 -129.5 132t-45.5 181t45.5 180.5t129.5 132t193 49.5t192.5 -49.5t129.5 -132.5t46 -180q0 -98 -46 -181t-129.5 -132t-192.5 -49t-193 49zM476.5 229q31.5 20 48.5 52.5t17 68.5t-17 68.5t-48.5 52.5t-72.5 20t-72.5 -20t-48.5 -52.5t-17 -68.5t17 -68.5
t48.5 -52.5t72.5 -20t72.5 20z" />
    <glyph glyph-name="P" unicode="P" horiz-adv-x="610" 
d="M471.5 664.5q60.5 -35.5 94 -96.5t33.5 -133q0 -74 -33.5 -133t-93.5 -92.5t-137 -33.5h-64v-176h-221v700h283q78 0 138.5 -35.5zM356 397q16 15 16 38q0 22 -16.5 38t-42.5 16h-42v-107h42q27 0 43 15z" />
    <glyph glyph-name="Q" unicode="Q" horiz-adv-x="834" 
d="M607 0l-21 31q-83 -43 -182 -43q-109 0 -193 49t-129.5 132t-45.5 181t45.5 180.5t129.5 132t193 49.5t192.5 -49.5t129.5 -132.5t46 -180q0 -61 -18 -117t-53 -102l94 -131h-188zM456 219l-78 113h163q1 6 1 18q0 36 -17 68.5t-48.5 52.5t-72.5 20t-72.5 -20
t-48.5 -52.5t-17 -68.5t17 -68.5t48.5 -52.5t72.5 -20q31 0 52 10z" />
    <glyph glyph-name="R" unicode="R" horiz-adv-x="657" 
d="M303 182h-32v-182h-221v700h283q78 0 140.5 -35t98 -94.5t35.5 -131.5q0 -64 -26.5 -116.5t-74.5 -87.5l136 -235h-254zM271 489v-100h50q26 0 42.5 14.5t16.5 35.5t-16 35.5t-43 14.5h-50z" />
    <glyph glyph-name="S" unicode="S" horiz-adv-x="580" 
d="M151.5 11.5q-74.5 24.5 -126.5 63.5l103 189q35 -24 79.5 -41.5t71.5 -17.5q15 0 23 6t8 16q0 12 -14.5 20.5t-52.5 24.5q-56 23 -95 46t-68.5 66t-29.5 108q0 62 31.5 112.5t89.5 79.5t136 29q68 0 131.5 -22.5t114.5 -56.5l-102 -188q-28 17 -66 31.5t-63 14.5
q-26 0 -26 -19q0 -10 15.5 -19.5t48.5 -22.5q57 -25 95.5 -48.5t69 -67t30.5 -107.5q0 -63 -30 -113t-88 -79t-138 -29q-73 0 -147.5 24.5z" />
    <glyph glyph-name="T" unicode="T" horiz-adv-x="529" 
d="M522 489h-146v-489h-221v489h-148v211h515v-211z" />
    <glyph glyph-name="U" unicode="U" horiz-adv-x="640" 
d="M173.5 18q-63.5 31 -98.5 90t-35 139v453h221v-429q0 -30 17 -46.5t42 -16.5q26 0 43 16.5t17 46.5v429h220v-453q0 -80 -34.5 -139t-98 -90t-147.5 -31q-83 0 -146.5 31z" />
    <glyph glyph-name="V" unicode="V" horiz-adv-x="650" 
d="M648 700l-183 -701h-281l-182 701h226l96 -474l98 474h226z" />
    <glyph glyph-name="W" unicode="W" horiz-adv-x="1102" 
d="M1101 700l-272 -701h-229l-50 152l-51 -152h-228l-270 701l235 1l177 -468l30 87l-135 380l192 1l50 -175l49 175l195 -1l-136 -381l30 -86l177 468z" />
    <glyph glyph-name="X" unicode="X" horiz-adv-x="671" 
d="M408 0l-73 187l-72 -187h-258l164 343l-155 357h253l68 -193l69 193h252l-156 -357l165 -343h-257z" />
    <glyph glyph-name="Y" unicode="Y" horiz-adv-x="652" 
d="M441 203v-203h-230v203l-209 497l244 1l80 -268l80 268l244 -1z" />
    <glyph glyph-name="Z" unicode="Z" horiz-adv-x="557" 
d="M537 690l-203 -479h191v-211h-505v10l210 479h-207v211h514v-10z" />
    <glyph glyph-name="bracketleft" unicode="[" horiz-adv-x="346" 
d="M243 615v-586h83v-184h-276v953h276v-183h-83z" />
    <glyph glyph-name="backslash" unicode="\" horiz-adv-x="412" 
d="M0 800h201l211 -920h-200z" />
    <glyph glyph-name="bracketright" unicode="]" horiz-adv-x="346" 
d="M296 -155h-276v184h83v586h-83v183h276v-953z" />
    <glyph glyph-name="asciicircum" unicode="^" horiz-adv-x="533" 
d="M329 383l-62 174l-62 -174h-193l138 317h233l139 -317h-193z" />
    <glyph glyph-name="underscore" unicode="_" horiz-adv-x="467" 
d="M15 -30h438v-120h-438v120z" />
    <glyph glyph-name="grave" unicode="`" horiz-adv-x="290" 
d="M12 768h211l56 -212h-148z" />
    <glyph glyph-name="a" unicode="a" horiz-adv-x="611" 
d="M567 500v-500h-212v51q-49 -57 -125 -57q-65 0 -111 34.5t-69.5 93.5t-23.5 130q0 72 23.5 130t69.5 92.5t111 34.5q78 0 125 -57v48h212zM340 215.5q15 15.5 15 36.5q0 23 -15 38.5t-38 15.5t-37.5 -15.5t-14.5 -38.5q0 -22 14.5 -37t37.5 -15t38 15.5z" />
    <glyph glyph-name="b" unicode="b" horiz-adv-x="611" 
d="M493 474.5q46 -34.5 69.5 -93.5t23.5 -130q0 -72 -23.5 -130t-69.5 -92.5t-111 -34.5q-76 0 -126 58v-52h-211v800h211v-349q50 58 126 58q65 0 111 -34.5zM347.5 212.5q14.5 15.5 14.5 38.5q0 22 -14.5 37t-37.5 15t-38 -15.5t-15 -36.5q0 -23 15 -38.5t38 -15.5
t37.5 15.5z" />
    <glyph glyph-name="c" unicode="c" horiz-adv-x="474" 
d="M155.5 24q-61.5 34 -95.5 93.5t-34 132.5t34 132.5t95.5 93.5t141.5 34q78 0 145 -30v-211q-74 27 -135 27q-30 0 -47.5 -12.5t-17.5 -33.5t17.5 -33.5t47.5 -12.5q61 0 135 27v-211q-67 -30 -145 -30q-80 0 -141.5 34z" />
    <glyph glyph-name="d" unicode="d" horiz-adv-x="611" 
d="M566 800v-800h-211v51q-49 -57 -125 -57q-65 0 -111 34.5t-69.5 93.5t-23.5 130q0 72 23.5 130t69.5 92.5t111 34.5q78 0 125 -57v348h211zM340 215.5q15 15.5 15 36.5q0 23 -15 38.5t-38 15.5t-37.5 -15.5t-14.5 -38.5q0 -22 14.5 -37t37.5 -15t38 15.5z" />
    <glyph glyph-name="e" unicode="e" horiz-adv-x="548" 
d="M413 474.5q55 -35.5 83.5 -98t28.5 -140.5q0 -18 -1 -28h-297q19 -42 84 -42q32 0 73 7.5t78 18.5l3 -168q-75 -32 -173 -32q-82 0 -142 34.5t-92 93t-32 130.5q0 70 31 129.5t89 95t135 35.5t132 -35.5zM248.5 320q-14.5 -11 -22.5 -30h112q-7 19 -22 30t-32 11
q-21 0 -35.5 -11z" />
    <glyph glyph-name="f" unicode="f" horiz-adv-x="404" 
d="M304.5 571q-10.5 -11 -10.5 -31v-40h101v-193h-101v-307h-211v307h-65v193h65v94q0 101 46 158.5t142 57.5q37 0 71 -7.5t53 -20.5v-217q-36 17 -63 17q-17 0 -27.5 -11z" />
    <glyph glyph-name="g" unicode="g" horiz-adv-x="611" 
d="M566 42q0 -78 -35.5 -135.5t-100 -88.5t-150.5 -31q-101 0 -194 32l1 178q39 -22 70 -31t69 -9q52 0 91 24.5t39 70.5q-50 -58 -126 -58q-65 0 -111 34.5t-69.5 93.5t-23.5 130q0 72 23.5 130t69.5 92.5t111 34.5q76 0 124 -56v47h211zM340 215.5q15 15.5 15 36.5
q0 23 -15 38.5t-38 15.5t-37.5 -15.5t-14.5 -38.5q0 -22 14.5 -37t37.5 -15t38 15.5z" />
    <glyph glyph-name="h" unicode="h" horiz-adv-x="581" 
d="M507 463q34 -46 34 -128v-335h-212v261q0 19 -10.5 31.5t-25.5 12.5t-25.5 -12.5t-10.5 -31.5h-1v-261h-211v800h211v-364q29 34 66.5 53.5t80.5 19.5q70 0 104 -46z" />
    <glyph glyph-name="i" unicode="i" horiz-adv-x="334" 
d="M81 581q-36 36 -36 86q0 51 35.5 86.5t86.5 35.5q52 0 87 -35t35 -87q0 -51 -35.5 -86.5t-86.5 -35.5q-50 0 -86 36zM62 500h212v-500h-212v500z" />
    <glyph glyph-name="j" unicode="j" horiz-adv-x="334" 
d="M81 580q-36 36 -36 86q0 51 35.5 86.5t86.5 35.5q52 0 87 -35t35 -87q0 -51 -35.5 -86.5t-86.5 -35.5q-50 0 -86 36zM59 500h211v-700h-211v700z" />
    <glyph glyph-name="k" unicode="k" horiz-adv-x="595" 
d="M342 0l-86 182v-182h-211v800h211v-488l80 188h242l-123 -250l136 -250h-249z" />
    <glyph glyph-name="l" unicode="l" horiz-adv-x="302" 
d="M45 800h211v-800h-211v800z" />
    <glyph glyph-name="m" unicode="m" horiz-adv-x="856" 
d="M781 459.5q34 -49.5 34 -132.5v-327h-211v261q0 20 -9.5 32t-24.5 12q-14 0 -24 -12t-10 -32v-261h-211v261q0 21 -9.5 32.5t-24.5 11.5q-14 0 -24 -12t-10 -32v-261h-212v500h212v-65q62 74 140 74q86 0 120 -77q29 36 69 56.5t90 20.5q71 0 105 -49.5z" />
    <glyph glyph-name="n" unicode="n" horiz-adv-x="581" 
d="M507 463q34 -46 34 -128v-335h-212v261q0 19 -10.5 31.5t-25.5 12.5t-25.5 -12.5t-10.5 -31.5v-261h-212v500h212v-63q63 72 146 72q70 0 104 -46z" />
    <glyph glyph-name="o" unicode="o" horiz-adv-x="581" 
d="M154 24q-60 36 -94 96t-34 131t34 131t94 96t136 36t136.5 -36t94.5 -96t34 -131t-34 -131t-94.5 -96t-136.5 -36t-136 36zM326 215.5q14 14.5 14 36.5q0 20 -14.5 34.5t-35.5 14.5t-35 -15t-14 -34q0 -21 14 -36t35 -15q22 0 36 14.5z" />
    <glyph glyph-name="p" unicode="p" horiz-adv-x="611" 
d="M493 474.5q46 -34.5 69.5 -93.5t23.5 -130q0 -72 -23.5 -130t-69.5 -92.5t-111 -34.5q-76 0 -126 58v-252h-211v700h211v-49q50 58 126 58q65 0 111 -34.5zM347.5 212.5q14.5 15.5 14.5 38.5q0 22 -14.5 37t-37.5 15t-38 -15.5t-15 -36.5q0 -23 15 -38.5t38 -15.5
t37.5 15.5z" />
    <glyph glyph-name="q" unicode="q" horiz-adv-x="611" 
d="M566 500v-700h-211v252q-50 -58 -126 -58q-65 0 -111 34.5t-69.5 92.5t-23.5 130q0 71 23.5 130t69.5 93.5t111 34.5q76 0 126 -58v49h211zM339 212.5q15 15.5 15 38.5q0 21 -15 36.5t-38 15.5t-37.5 -15t-14.5 -37q0 -23 14.5 -38.5t37.5 -15.5t38 15.5z" />
    <glyph glyph-name="r" unicode="r" horiz-adv-x="392" 
d="M382 509v-232q-27 5 -46 5q-79 0 -79 -79v-203h-212v500h212v-60q53 69 125 69z" />
    <glyph glyph-name="s" unicode="s" horiz-adv-x="461" 
d="M124.5 10q-58.5 19 -100.5 51l67 139q29 -20 72.5 -36t67.5 -16q17 0 17 12q0 6 -10.5 11t-33.5 12q-45 14 -78.5 30.5t-59.5 50t-26 85.5q0 47 24.5 84t69.5 58t104 21q52 0 102.5 -17t84.5 -42l-73 -141q-22 12 -55.5 23.5t-55.5 11.5q-7 0 -12 -3t-5 -9t11 -10.5
t33 -10.5q46 -13 80.5 -29t61.5 -49.5t27 -85.5q0 -46 -24 -82t-69 -56.5t-105 -20.5q-56 0 -114.5 19z" />
    <glyph glyph-name="t" unicode="t" horiz-adv-x="394" 
d="M384 307h-92v-307h-212v307h-62v193h62v134h212v-134h92v-193z" />
    <glyph glyph-name="u" unicode="u" horiz-adv-x="581" 
d="M536 500v-500h-212v63q-63 -72 -146 -72q-70 0 -104 46t-34 128v335h212v-261q0 -19 10.5 -31.5t25.5 -12.5t25.5 12.5t10.5 31.5v261h212z" />
    <glyph glyph-name="v" unicode="v" horiz-adv-x="530" 
d="M525 500l-124 -502h-273l-124 502h214l47 -294l47 294h213z" />
    <glyph glyph-name="w" unicode="w" horiz-adv-x="908" 
d="M906 500l-177 -500h-240l-36 135l-34 -135h-240l-177 500h221l100 -316l19 76l-71 240h151l32 -127l32 127h151l-71 -240l19 -76l100 316h221z" />
    <glyph glyph-name="x" unicode="x" horiz-adv-x="561" 
d="M424 247l133 -247h-228l-48 131l-48 -131h-229l131 247l-131 253h220l57 -144l56 144h220z" />
    <glyph glyph-name="y" unicode="y" horiz-adv-x="559" 
d="M554 500l-235 -700h-212l69 196l-172 504h217l58 -263l58 263h217z" />
    <glyph glyph-name="z" unicode="z" horiz-adv-x="473" 
d="M459 488l-149 -295h133v-193h-429v14l150 293h-142v193h437v-12z" />
    <glyph glyph-name="braceleft" unicode="{" horiz-adv-x="360" 
d="M222 321q46 -38 46 -114v-81q0 -39 21 -67.5t63 -31.5v-183q-131 0 -204 55.5t-73 175.5v152q0 26 -14 50.5t-37 40.5v6q23 16 37 40t14 50v152q0 120 73 175.5t204 55.5v-183q-42 -3 -63 -31.5t-21 -67.5v-81q0 -75 -46 -113z" />
    <glyph glyph-name="bar" unicode="|" horiz-adv-x="321" 
d="M50 800h221v-900h-221v900z" />
    <glyph glyph-name="braceright" unicode="}" horiz-adv-x="360" 
d="M299 364q14 -24 37 -40v-6q-23 -16 -37 -40.5t-14 -50.5v-152q0 -120 -73 -175.5t-204 -55.5v183q42 3 63 31.5t21 67.5v81q0 76 46 114q-46 38 -46 113v81q0 39 -21 67.5t-63 31.5v183q131 0 204 -55.5t73 -175.5v-152q0 -26 14 -50z" />
    <glyph glyph-name="asciitilde" unicode="~" horiz-adv-x="388" 
d="M25 381q18 12 44 20t56 8q20 0 33.5 -3t36.5 -10q35 -13 68 -13q29 0 51 6.5t48 19.5v-173q-17 -13 -43 -21t-57 -8q-20 0 -35 3.5t-34 9.5q-38 12 -68 12t-52.5 -6t-47.5 -19v174z" />
    <glyph glyph-name="exclamdown" unicode="&#xa1;" horiz-adv-x="319" 
d="M238.5 522.5q32.5 -32.5 32.5 -79.5q0 -46 -32.5 -79t-79.5 -33q-46 0 -78.5 33t-32.5 79t32.5 79t78.5 33q47 0 79.5 -32.5zM283 -157h-246l46 453h154z" />
    <glyph glyph-name="cent" unicode="&#xa2;" horiz-adv-x="474" 
d="M259.5 387.5q-17.5 -12.5 -17.5 -33.5t17.5 -33.5t47.5 -12.5q61 0 135 27v-211q-65 -29 -137 -30v-94h-71v100q-95 19 -151.5 89t-56.5 165t56.5 165t151.5 89v92h71v-86q72 -1 137 -30v-211q-74 27 -135 27q-30 0 -47.5 -12.5z" />
    <glyph glyph-name="sterling" unicode="&#xa3;" horiz-adv-x="542" 
d="M267 211h233v-211h-457v106q29 28 45 64t16 66q0 21 -7 45h-70v67h38q-19 36 -29 67.5t-10 72.5q0 56 29 107.5t83.5 84t128.5 32.5q73 0 129 -33t87 -88t34 -119l-208 -62q1 25 -10.5 44.5t-31.5 19.5q-13 0 -22.5 -10t-9.5 -25q0 -16 5 -30t15 -32l13 -29h123v-67h-112
q-2 -40 -12 -70z" />
    <glyph glyph-name="currency" unicode="&#xa4;" horiz-adv-x="571" 
d="M499 188l50 -50l-50 -49l-51 51q-69 -50 -158 -50q-94 0 -165 55l-56 -56l-49 49l57 57q-51 72 -51 158q0 89 51 157l-57 57l49 50l56 -56q71 55 165 55q89 0 158 -50l51 51l50 -50l-50 -50q27 -34 41.5 -76t14.5 -88q0 -93 -56 -165zM326 317.5q14 14.5 14 36.5
q0 20 -14.5 34.5t-35.5 14.5t-35 -15t-14 -34q0 -21 14 -36t35 -15q22 0 36 14.5z" />
    <glyph glyph-name="yen" unicode="&#xa5;" horiz-adv-x="652" 
d="M467 265h81v-69h-107v-32h107v-69h-107v-95h-230v95h-101v69h101v32h-101v69h75l-183 435l244 1l80 -268l80 268l244 -1z" />
    <glyph glyph-name="brokenbar" unicode="&#xa6;" horiz-adv-x="321" 
d="M50 800h221v-363h-221v363zM50 263h221v-363h-221v363z" />
    <glyph glyph-name="section" unicode="&#xa7;" horiz-adv-x="549" 
d="M289 475q12 -6 43 -18q52 -18 92 -39t70 -61t30 -101q0 -29 -10 -59.5t-27 -53.5q33 -41 33 -101q0 -57 -29.5 -102t-84.5 -70.5t-129 -25.5q-67 0 -134 22t-118 56l95 179q33 -21 73 -34.5t67 -13.5q11 0 17.5 4.5t6.5 12.5q0 11 -13.5 18t-47.5 20q-51 18 -87 37.5
t-63.5 58.5t-27.5 99q0 62 37 110q-34 40 -34 103q0 55 30.5 99.5t85.5 70.5t125 26q114 0 229 -72l-95 -173q-24 14 -60.5 25t-61.5 11q-24 0 -24 -15q0 -7 12 -13zM260 268q21 -15 64 -32q2 10 2 15q0 24 -21 39.5t-63 31.5q-3 -7 -3 -16q0 -23 21 -38z" />
    <glyph glyph-name="dieresis" unicode="&#xa8;" horiz-adv-x="481" 
d="M434.5 753q35.5 -35 35.5 -87q0 -50 -35.5 -86t-86.5 -36q-33 0 -62 17t-45 46q-16 -29 -44 -46t-63 -17q-50 0 -86 36t-36 86q0 51 35.5 86.5t86.5 35.5q35 0 63 -16.5t44 -45.5q16 29 44.5 45.5t62.5 16.5q51 0 86.5 -35z" />
    <glyph glyph-name="copyright" unicode="&#xa9;" horiz-adv-x="790" 
d="M207 35.5q-82 49.5 -126.5 133t-44.5 181.5t44.5 181t126.5 132.5t189 49.5q106 0 187.5 -49.5t126.5 -133t45 -180.5q0 -98 -45 -181.5t-126.5 -133t-187.5 -49.5q-107 0 -189 49.5zM526.5 126.5q57.5 35.5 89 95t31.5 128.5t-31.5 128t-89 94.5t-130.5 35.5
t-130.5 -35.5t-89.5 -94.5t-32 -128t32 -128.5t89.5 -95t130.5 -35.5t130.5 35.5zM309 194.5q-41 24.5 -63 66t-22 90.5t22 90t63 65.5t93 24.5q34 0 64.5 -12t52.5 -31v-118q-27 19 -53.5 31t-57.5 12q-29 0 -48 -18.5t-19 -43.5t19 -43.5t48 -18.5q50 0 111 43v-119
q-20 -19 -51 -31t-66 -12q-52 0 -93 24.5z" />
    <glyph glyph-name="ordfeminine" unicode="&#xaa;" horiz-adv-x="320" 
d="M309 700v-245h-109v29q-30 -35 -74 -35q-52 0 -83 37t-31 92q0 54 31 91t83 37q44 0 74 -35v29h109zM192 557.5q8 8.5 8 20.5t-8 20.5t-20 8.5t-19.5 -8.5t-7.5 -20.5t7.5 -20.5t19.5 -8.5t20 8.5z" />
    <glyph glyph-name="guillemotleft" unicode="&#xab;" horiz-adv-x="586" 
d="M202 290l139 -210h-184l-132 208v4l132 208h184zM443 290l139 -210h-184l-132 208v4l132 208h184z" />
    <glyph glyph-name="logicalnot" unicode="&#xac;" horiz-adv-x="489" 
d="M444 90h-177v152h-242v173h419v-325z" />
    <glyph glyph-name="uni00AD" unicode="&#xad;" horiz-adv-x="374" 
d="M25 387h324v-174h-324v174z" />
    <glyph glyph-name="registered" unicode="&#xae;" horiz-adv-x="790" 
d="M583.5 663.5q81.5 -49.5 126.5 -133t45 -180.5q0 -98 -45 -181.5t-126.5 -133t-187.5 -49.5q-107 0 -189 49.5t-126.5 133t-44.5 181.5t44.5 181t126.5 132.5t189 49.5q106 0 187.5 -49.5zM526.5 126.5q57.5 35.5 89 95t31.5 128.5t-31.5 128t-89 94.5t-130.5 35.5
t-130.5 -35.5t-89.5 -94.5t-32 -128t32 -128.5t89.5 -95t130.5 -35.5t130.5 35.5zM538.5 338q-16.5 -29 -46.5 -45l75 -117h-119l-51 98h-28v-100h-103v357h145q65 0 104.5 -36.5t39.5 -92.5q0 -35 -16.5 -64zM369 370h40q15 0 25.5 9t10.5 23t-10.5 23t-25.5 9h-40v-64z
" />
    <glyph glyph-name="macron" unicode="&#xaf;" horiz-adv-x="350" 
d="M12 739h327v-136h-327v136z" />
    <glyph glyph-name="degree" unicode="&#xb0;" horiz-adv-x="378" 
d="M101 382.5q-41 24.5 -65 65.5t-24 88q0 48 24 89t65 64.5t88 23.5q49 0 90 -23.5t64.5 -64t23.5 -89.5q0 -47 -23.5 -88t-64.5 -65.5t-90 -24.5q-47 0 -88 24.5zM214 510.5q11 10.5 11 25.5t-10.5 25t-25.5 10t-25.5 -10t-10.5 -25t11 -25.5t25 -10.5t25 10.5z" />
    <glyph glyph-name="plusminus" unicode="&#xb1;" horiz-adv-x="397" 
d="M372 469v-155h-100v-96h-147v96h-100v155h100v96h147v-96h100zM25 185h347v-127h-347v127z" />
    <glyph glyph-name="uni00B2" unicode="&#xb2;" horiz-adv-x="278" 
d="M25 579q30 26 37 31l60 52q27 25 27 41q0 7 -3.5 11.5t-10.5 4.5q-15 0 -19 -24l-105 32q6 42 40 72t86 30q56 0 91.5 -30t35.5 -80q0 -35 -18 -59t-49 -49l-5 -5h72v-106h-240z" />
    <glyph glyph-name="uni00B3" unicode="&#xb3;" horiz-adv-x="276" 
d="M246 658q17 -25 17 -56q0 -47 -35 -78t-90 -31q-44 0 -77.5 23.5t-49.5 65.5l88 46q14 -27 37 -27q9 0 14.5 5.5t5.5 13.5t-5.5 13t-13.5 5q-9 0 -13 -2l-46 41l42 39h-90v106h212v-92l-41 -33q28 -14 45 -39z" />
    <glyph glyph-name="acute" unicode="&#xb4;" horiz-adv-x="290" 
d="M12 556l56 212h211l-119 -212h-148z" />
    <glyph glyph-name="uni00B5" unicode="&#xb5;" horiz-adv-x="582" 
d="M537 500v-500h-212v63q-33 -37 -73 -56v-207h-211v700h212v-261q0 -19 10.5 -31.5t25.5 -12.5t25.5 12.5t10.5 31.5v261h212z" />
    <glyph glyph-name="paragraph" unicode="&#xb6;" horiz-adv-x="810" 
d="M484 700v-842h-221v324h-2q-74 0 -131.5 34t-88.5 91.5t-31 125.5q0 70 30 131t87.5 98.5t135.5 37.5h221zM760 700v-842h-221v842h221z" />
    <glyph glyph-name="periodcentered" unicode="&#xb7;" horiz-adv-x="314" 
d="M77.5 238.5q-32.5 32.5 -32.5 79.5q0 46 32.5 79t79.5 33q46 0 78.5 -33t32.5 -79t-32.5 -79t-78.5 -33q-47 0 -79.5 32.5z" />
    <glyph glyph-name="cedilla" unicode="&#xb8;" horiz-adv-x="251" 
d="M219.5 -52.5q20.5 -23.5 20.5 -57.5q0 -47 -34.5 -75t-87.5 -28q-26 0 -56.5 6.5t-49.5 15.5v125q41 -22 83 -22q13 0 21 5t8 11q0 16 -29 16q-18 0 -39 -6l-4 2l20 66h99l-2 -27q30 -8 50.5 -31.5z" />
    <glyph glyph-name="uni00B9" unicode="&#xb9;" horiz-adv-x="221" 
d="M193 822v-322h-111v191l-29 -13l-39 96l96 48h83z" />
    <glyph glyph-name="ordmasculine" unicode="&#xba;" horiz-adv-x="284" 
d="M47.5 486.5q-35.5 37.5 -35.5 91.5q0 53 35.5 90.5t94.5 37.5q60 0 95.5 -37.5t35.5 -90.5q0 -54 -35.5 -91.5t-95.5 -37.5q-59 0 -94.5 37.5zM162 558q8 8 8 20t-8 20t-20 8t-19.5 -8t-7.5 -20t7.5 -20t19.5 -8t20 8z" />
    <glyph glyph-name="guillemotright" unicode="&#xbb;" horiz-adv-x="586" 
d="M188 80h-184l139 210l-139 210h184l132 -208v-4zM561 292v-4l-132 -208h-184l139 210l-139 210h184z" />
    <glyph glyph-name="onequarter" unicode="&#xbc;" horiz-adv-x="606" 
d="M193 700v-322h-111v191l-29 -13l-39 96l96 48h83zM452 700h97l-409 -700h-96zM596 39h-26v-39h-102v39h-137v68l102 215h137v-197h26v-86zM468 125v87l-31 -87h31z" />
    <glyph glyph-name="onehalf" unicode="&#xbd;" horiz-adv-x="638" 
d="M193 700v-322h-111v191l-29 -13l-39 96l96 48h83zM452 700h97l-409 -700h-96zM385 79q30 26 37 31l60 52q27 25 27 41q0 7 -3.5 11.5t-10.5 4.5q-15 0 -19 -24l-105 32q6 42 40 72t86 30q56 0 91.5 -30t35.5 -80q0 -35 -18 -59t-49 -49l-5 -5h72v-106h-240z" />
    <glyph glyph-name="threequarters" unicode="&#xbe;" horiz-adv-x="651" 
d="M246 536q17 -25 17 -56q0 -47 -35 -78t-90 -31q-44 0 -77.5 23.5t-49.5 65.5l88 46q14 -27 37 -27q9 0 14.5 5.5t5.5 13.5t-5.5 13t-13.5 5q-9 0 -13 -2l-46 41l42 39h-90v106h212v-92l-41 -33q28 -14 45 -39zM496 700h97l-409 -700h-96zM641 39h-26v-39h-102v39h-137v68
l102 215h137v-197h26v-86zM513 125v87l-31 -87h31z" />
    <glyph glyph-name="questiondown" unicode="&#xbf;" horiz-adv-x="510" 
d="M331.5 520.5q32.5 -32.5 32.5 -79.5q0 -46 -32.5 -79t-79.5 -33q-46 0 -78.5 33t-32.5 79t32.5 79t78.5 33q47 0 79.5 -32.5zM338 178q-53 -11 -83 -31t-30 -46q0 -14 9.5 -24t22.5 -10q20 0 30.5 19t9.5 42l206 -49q-2 -68 -32.5 -125.5t-86.5 -91t-130 -33.5
q-73 0 -127.5 30.5t-83 82.5t-28.5 116q0 72 43 128.5t112 76.5l4 41h155z" />
    <glyph glyph-name="Agrave" unicode="&#xc0;" horiz-adv-x="681" 
d="M425 82h-167l-18 -82h-238l205 701h271l201 -701h-236zM388 257l-46 212l-46 -212h92zM150 968h211l56 -212h-148z" />
    <glyph glyph-name="Aacute" unicode="&#xc1;" horiz-adv-x="681" 
d="M425 82h-167l-18 -82h-238l205 701h271l201 -701h-236zM388 257l-46 212l-46 -212h92zM265 756l56 212h211l-119 -212h-148z" />
    <glyph glyph-name="Acircumflex" unicode="&#xc2;" horiz-adv-x="681" 
d="M425 82h-167l-18 -82h-238l205 701h271l201 -701h-236zM388 257l-46 212l-46 -212h92zM374 752l-32 107l-32 -107h-183l108 213h213l109 -213h-183z" />
    <glyph glyph-name="Atilde" unicode="&#xc3;" horiz-adv-x="681" 
d="M425 82h-167l-18 -82h-238l205 701h271l201 -701h-236zM388 257l-46 212l-46 -212h92zM173 949q18 12 44 20t56 8q20 0 33.5 -3t36.5 -10q35 -13 68 -13q29 0 51 6.5t48 19.5v-173q-17 -13 -43 -21t-57 -8q-20 0 -35 3.5t-34 9.5q-38 12 -68 12t-52.5 -6t-47.5 -19v174z
" />
    <glyph glyph-name="Adieresis" unicode="&#xc4;" horiz-adv-x="681" 
d="M425 82h-167l-18 -82h-238l205 701h271l201 -701h-236zM388 257l-46 212l-46 -212h92zM536.5 953q35.5 -35 35.5 -87q0 -50 -35.5 -86t-86.5 -36q-33 0 -62 17t-45 46q-16 -29 -44 -46t-63 -17q-50 0 -86 36t-36 86q0 51 35.5 86.5t86.5 35.5q35 0 63 -16.5t44 -45.5
q16 29 44.5 45.5t62.5 16.5q51 0 86.5 -35z" />
    <glyph glyph-name="Aring" unicode="&#xc5;" horiz-adv-x="681" 
d="M425 82h-167l-18 -82h-238l205 701h271l201 -701h-236zM388 257l-46 212l-46 -212h92zM271 751.5q-33 19.5 -52.5 52.5t-19.5 71q0 39 19.5 72t52.5 52t71 19q39 0 72 -19t52 -52t19 -72q0 -38 -19 -71t-52 -52.5t-72 -19.5q-38 0 -71 19.5zM357 861q6 6 6 14q0 9 -6 15
t-15 6t-15 -6t-6 -15q0 -8 6 -14t15 -6t15 6z" />
    <glyph glyph-name="AE" unicode="&#xc6;" horiz-adv-x="898" 
d="M624 489v-47h183v-181h-183v-50h243v-211h-464v82h-131l-26 -82h-244l255 700h610v-211h-243zM403 257v236l-75 -236h75z" />
    <glyph glyph-name="Ccedilla" unicode="&#xc7;" horiz-adv-x="571" 
d="M286.5 278q20.5 -32 55.5 -50t77 -18q71 0 127 32l-1 -229q-51 -20 -118 -23l-1 -11q30 -8 50.5 -31.5t20.5 -57.5q0 -47 -34.5 -75t-87.5 -28q-26 0 -56.5 6.5t-49.5 15.5v125q41 -22 83 -22q13 0 21 5t8 11q0 16 -29 16q-18 0 -39 -6l-4 2l17 57q-85 16 -150.5 63
t-102.5 121t-37 168q0 108 48.5 190t132.5 126t190 44q37 0 74 -6t64 -17l1 -229q-56 32 -127 32q-65 0 -109 -39.5t-44 -100.5q0 -39 20.5 -71z" />
    <glyph glyph-name="Egrave" unicode="&#xc8;" horiz-adv-x="545" 
d="M271 489v-47h183v-181h-183v-50h243v-211h-464v700h464v-211h-243zM91 968h211l56 -212h-148z" />
    <glyph glyph-name="Eacute" unicode="&#xc9;" horiz-adv-x="545" 
d="M271 489v-47h183v-181h-183v-50h243v-211h-464v700h464v-211h-243zM206 756l56 212h211l-119 -212h-148z" />
    <glyph glyph-name="Ecircumflex" unicode="&#xca;" horiz-adv-x="545" 
d="M271 489v-47h183v-181h-183v-50h243v-211h-464v700h464v-211h-243zM315 752l-32 107l-32 -107h-183l108 213h213l109 -213h-183z" />
    <glyph glyph-name="Edieresis" unicode="&#xcb;" horiz-adv-x="545" 
d="M271 489v-47h183v-181h-183v-50h243v-211h-464v700h464v-211h-243zM477.5 953q35.5 -35 35.5 -87q0 -50 -35.5 -86t-86.5 -36q-33 0 -62 17t-45 46q-16 -29 -44 -46t-63 -17q-50 0 -86 36t-36 86q0 51 35.5 86.5t86.5 35.5q35 0 63 -16.5t44 -45.5q16 29 44.5 45.5
t62.5 16.5q51 0 86.5 -35z" />
    <glyph glyph-name="Igrave" unicode="&#xcc;" horiz-adv-x="321" 
d="M50 700h221v-700h-221v700zM-31 968h211l56 -212h-148z" />
    <glyph glyph-name="Iacute" unicode="&#xcd;" horiz-adv-x="321" 
d="M50 700h221v-700h-221v700zM84 756l56 212h211l-119 -212h-148z" />
    <glyph glyph-name="Icircumflex" unicode="&#xce;" horiz-adv-x="321" 
d="M50 700h221v-700h-221v700zM193 752l-32 107l-32 -107h-183l108 213h213l109 -213h-183z" />
    <glyph glyph-name="Idieresis" unicode="&#xcf;" horiz-adv-x="321" 
d="M50 700h221v-700h-221v700zM355.5 953q35.5 -35 35.5 -87q0 -50 -35.5 -86t-86.5 -36q-33 0 -62 17t-45 46q-16 -29 -44 -46t-63 -17q-50 0 -86 36t-36 86q0 51 35.5 86.5t86.5 35.5q35 0 63 -16.5t44 -45.5q16 29 44.5 45.5t62.5 16.5q51 0 86.5 -35z" />
    <glyph glyph-name="Eth" unicode="&#xd0;" horiz-adv-x="680" 
d="M475 654.5q81 -45.5 125 -125t44 -176.5q0 -98 -44 -178.5t-125 -127.5t-189 -47h-236v263h-69v175h69v262h236q108 0 189 -45.5zM381.5 251.5q32.5 40.5 32.5 101.5t-32.5 98.5t-91.5 37.5h-19v-51h77v-175h-77v-52h19q59 0 91.5 40.5z" />
    <glyph glyph-name="Ntilde" unicode="&#xd1;" horiz-adv-x="728" 
d="M677 700v-701h-226l-180 293v-292h-221v701h226l181 -300v299h220zM196 949q18 12 44 20t56 8q20 0 33.5 -3t36.5 -10q35 -13 68 -13q29 0 51 6.5t48 19.5v-173q-17 -13 -43 -21t-57 -8q-20 0 -35 3.5t-34 9.5q-38 12 -68 12t-52.5 -6t-47.5 -19v174z" />
    <glyph glyph-name="Ograve" unicode="&#xd2;" horiz-adv-x="808" 
d="M211 37q-84 49 -129.5 132t-45.5 181t45.5 180.5t129.5 132t193 49.5t192.5 -49.5t129.5 -132.5t46 -180q0 -98 -46 -181t-129.5 -132t-192.5 -49t-193 49zM476.5 229q31.5 20 48.5 52.5t17 68.5t-17 68.5t-48.5 52.5t-72.5 20t-72.5 -20t-48.5 -52.5t-17 -68.5t17 -68.5
t48.5 -52.5t72.5 -20t72.5 20zM212 968h211l56 -212h-148z" />
    <glyph glyph-name="Oacute" unicode="&#xd3;" horiz-adv-x="808" 
d="M211 37q-84 49 -129.5 132t-45.5 181t45.5 180.5t129.5 132t193 49.5t192.5 -49.5t129.5 -132.5t46 -180q0 -98 -46 -181t-129.5 -132t-192.5 -49t-193 49zM476.5 229q31.5 20 48.5 52.5t17 68.5t-17 68.5t-48.5 52.5t-72.5 20t-72.5 -20t-48.5 -52.5t-17 -68.5t17 -68.5
t48.5 -52.5t72.5 -20t72.5 20zM327 756l56 212h211l-119 -212h-148z" />
    <glyph glyph-name="Ocircumflex" unicode="&#xd4;" horiz-adv-x="808" 
d="M211 37q-84 49 -129.5 132t-45.5 181t45.5 180.5t129.5 132t193 49.5t192.5 -49.5t129.5 -132.5t46 -180q0 -98 -46 -181t-129.5 -132t-192.5 -49t-193 49zM476.5 229q31.5 20 48.5 52.5t17 68.5t-17 68.5t-48.5 52.5t-72.5 20t-72.5 -20t-48.5 -52.5t-17 -68.5t17 -68.5
t48.5 -52.5t72.5 -20t72.5 20zM436 752l-32 107l-32 -107h-183l108 213h213l109 -213h-183z" />
    <glyph glyph-name="Otilde" unicode="&#xd5;" horiz-adv-x="808" 
d="M211 37q-84 49 -129.5 132t-45.5 181t45.5 180.5t129.5 132t193 49.5t192.5 -49.5t129.5 -132.5t46 -180q0 -98 -46 -181t-129.5 -132t-192.5 -49t-193 49zM476.5 229q31.5 20 48.5 52.5t17 68.5t-17 68.5t-48.5 52.5t-72.5 20t-72.5 -20t-48.5 -52.5t-17 -68.5t17 -68.5
t48.5 -52.5t72.5 -20t72.5 20zM235 949q18 12 44 20t56 8q20 0 33.5 -3t36.5 -10q35 -13 68 -13q29 0 51 6.5t48 19.5v-173q-17 -13 -43 -21t-57 -8q-20 0 -35 3.5t-34 9.5q-38 12 -68 12t-52.5 -6t-47.5 -19v174z" />
    <glyph glyph-name="Odieresis" unicode="&#xd6;" horiz-adv-x="808" 
d="M211 37q-84 49 -129.5 132t-45.5 181t45.5 180.5t129.5 132t193 49.5t192.5 -49.5t129.5 -132.5t46 -180q0 -98 -46 -181t-129.5 -132t-192.5 -49t-193 49zM476.5 229q31.5 20 48.5 52.5t17 68.5t-17 68.5t-48.5 52.5t-72.5 20t-72.5 -20t-48.5 -52.5t-17 -68.5t17 -68.5
t48.5 -52.5t72.5 -20t72.5 20zM598.5 953q35.5 -35 35.5 -87q0 -50 -35.5 -86t-86.5 -36q-33 0 -62 17t-45 46q-16 -29 -44 -46t-63 -17q-50 0 -86 36t-36 86q0 51 35.5 86.5t86.5 35.5q35 0 63 -16.5t44 -45.5q16 29 44.5 45.5t62.5 16.5q51 0 86.5 -35z" />
    <glyph glyph-name="multiply" unicode="&#xd7;" horiz-adv-x="481" 
d="M347 296l109 -100l-107 -108l-108 109l-109 -109l-107 108l109 100l-109 100l107 107l109 -108l108 108l107 -107z" />
    <glyph glyph-name="Oslash" unicode="&#xd8;" horiz-adv-x="808" 
d="M747.5 485q24.5 -64 24.5 -135q0 -98 -46 -181t-129.5 -132t-192.5 -49q-88 0 -158 32l-15 -20h-172l73 99q-46 50 -71 114.5t-25 136.5q0 98 45.5 180.5t129.5 132t193 49.5q88 0 158 -32l15 20h174l-75 -101q47 -50 71.5 -114zM277 294l145 196q-6 1 -18 1
q-41 0 -72.5 -20t-48.5 -52.5t-17 -68.5q0 -28 11 -56zM476.5 229q31.5 20 48.5 52.5t17 68.5q0 27 -11 54l-144 -194q5 -1 17 -1q41 0 72.5 20z" />
    <glyph glyph-name="Ugrave" unicode="&#xd9;" horiz-adv-x="640" 
d="M173.5 18q-63.5 31 -98.5 90t-35 139v453h221v-429q0 -30 17 -46.5t42 -16.5q26 0 43 16.5t17 46.5v429h220v-453q0 -80 -34.5 -139t-98 -90t-147.5 -31q-83 0 -146.5 31zM128 968h211l56 -212h-148z" />
    <glyph glyph-name="Uacute" unicode="&#xda;" horiz-adv-x="640" 
d="M173.5 18q-63.5 31 -98.5 90t-35 139v453h221v-429q0 -30 17 -46.5t42 -16.5q26 0 43 16.5t17 46.5v429h220v-453q0 -80 -34.5 -139t-98 -90t-147.5 -31q-83 0 -146.5 31zM243 756l56 212h211l-119 -212h-148z" />
    <glyph glyph-name="Ucircumflex" unicode="&#xdb;" horiz-adv-x="640" 
d="M173.5 18q-63.5 31 -98.5 90t-35 139v453h221v-429q0 -30 17 -46.5t42 -16.5q26 0 43 16.5t17 46.5v429h220v-453q0 -80 -34.5 -139t-98 -90t-147.5 -31q-83 0 -146.5 31zM352 752l-32 107l-32 -107h-183l108 213h213l109 -213h-183z" />
    <glyph glyph-name="Udieresis" unicode="&#xdc;" horiz-adv-x="640" 
d="M173.5 18q-63.5 31 -98.5 90t-35 139v453h221v-429q0 -30 17 -46.5t42 -16.5q26 0 43 16.5t17 46.5v429h220v-453q0 -80 -34.5 -139t-98 -90t-147.5 -31q-83 0 -146.5 31zM514.5 953q35.5 -35 35.5 -87q0 -50 -35.5 -86t-86.5 -36q-33 0 -62 17t-45 46q-16 -29 -44 -46
t-63 -17q-50 0 -86 36t-36 86q0 51 35.5 86.5t86.5 35.5q35 0 63 -16.5t44 -45.5q16 29 44.5 45.5t62.5 16.5q51 0 86.5 -35z" />
    <glyph glyph-name="Yacute" unicode="&#xdd;" horiz-adv-x="652" 
d="M441 203v-203h-230v203l-209 497l244 1l80 -268l80 268l244 -1zM248 756l56 212h211l-119 -212h-148z" />
    <glyph glyph-name="Thorn" unicode="&#xde;" horiz-adv-x="610" 
d="M472 593.5q61 -35.5 94.5 -96t33.5 -132.5q0 -75 -33.5 -134t-93.5 -92.5t-137 -33.5h-65v-105h-221v700h221v-71h63q77 0 138 -35.5zM357 327q16 15 16 38q0 21 -16.5 36.5t-42.5 15.5h-43v-105h43q27 0 43 15z" />
    <glyph glyph-name="germandbls" unicode="&#xdf;" horiz-adv-x="628" 
d="M571 301q27 -44 27 -104q0 -54 -24.5 -98.5t-73 -71.5t-117.5 -27h-84v205h24q21 0 33 12t12 29q0 16 -12 28t-33 12h-24v130h11q16 0 26.5 11t10.5 25q0 15 -10.5 25.5t-26.5 10.5q-23 0 -33.5 -16.5t-10.5 -41.5v-430h-216v486q0 103 65 164t191 61q82 0 139.5 -27
t86.5 -72.5t29 -100.5q0 -44 -17.5 -80.5t-49.5 -62.5q50 -23 77 -67z" />
    <glyph glyph-name="agrave" unicode="&#xe0;" horiz-adv-x="611" 
d="M567 500v-500h-212v51q-49 -57 -125 -57q-65 0 -111 34.5t-69.5 93.5t-23.5 130q0 72 23.5 130t69.5 92.5t111 34.5q78 0 125 -57v48h212zM340 215.5q15 15.5 15 36.5q0 23 -15 38.5t-38 15.5t-37.5 -15.5t-14.5 -38.5q0 -22 14.5 -37t37.5 -15t38 15.5zM137 768h211
l56 -212h-148z" />
    <glyph glyph-name="aacute" unicode="&#xe1;" horiz-adv-x="611" 
d="M567 500v-500h-212v51q-49 -57 -125 -57q-65 0 -111 34.5t-69.5 93.5t-23.5 130q0 72 23.5 130t69.5 92.5t111 34.5q78 0 125 -57v48h212zM340 215.5q15 15.5 15 36.5q0 23 -15 38.5t-38 15.5t-37.5 -15.5t-14.5 -38.5q0 -22 14.5 -37t37.5 -15t38 15.5zM252 556l56 212
h211l-119 -212h-148z" />
    <glyph glyph-name="acircumflex" unicode="&#xe2;" horiz-adv-x="611" 
d="M567 500v-500h-212v51q-49 -57 -125 -57q-65 0 -111 34.5t-69.5 93.5t-23.5 130q0 72 23.5 130t69.5 92.5t111 34.5q78 0 125 -57v48h212zM340 215.5q15 15.5 15 36.5q0 23 -15 38.5t-38 15.5t-37.5 -15.5t-14.5 -38.5q0 -22 14.5 -37t37.5 -15t38 15.5zM361 552l-32 107
l-32 -107h-183l108 213h213l109 -213h-183z" />
    <glyph glyph-name="atilde" unicode="&#xe3;" horiz-adv-x="611" 
d="M567 500v-500h-212v51q-49 -57 -125 -57q-65 0 -111 34.5t-69.5 93.5t-23.5 130q0 72 23.5 130t69.5 92.5t111 34.5q78 0 125 -57v48h212zM340 215.5q15 15.5 15 36.5q0 23 -15 38.5t-38 15.5t-37.5 -15.5t-14.5 -38.5q0 -22 14.5 -37t37.5 -15t38 15.5zM160 749
q18 12 44 20t56 8q20 0 33.5 -3t36.5 -10q35 -13 68 -13q29 0 51 6.5t48 19.5v-173q-17 -13 -43 -21t-57 -8q-20 0 -35 3.5t-34 9.5q-38 12 -68 12t-52.5 -6t-47.5 -19v174z" />
    <glyph glyph-name="adieresis" unicode="&#xe4;" horiz-adv-x="611" 
d="M567 500v-500h-212v51q-49 -57 -125 -57q-65 0 -111 34.5t-69.5 93.5t-23.5 130q0 72 23.5 130t69.5 92.5t111 34.5q78 0 125 -57v48h212zM340 215.5q15 15.5 15 36.5q0 23 -15 38.5t-38 15.5t-37.5 -15.5t-14.5 -38.5q0 -22 14.5 -37t37.5 -15t38 15.5zM523.5 753
q35.5 -35 35.5 -87q0 -50 -35.5 -86t-86.5 -36q-33 0 -62 17t-45 46q-16 -29 -44 -46t-63 -17q-50 0 -86 36t-36 86q0 51 35.5 86.5t86.5 35.5q35 0 63 -16.5t44 -45.5q16 29 44.5 45.5t62.5 16.5q51 0 86.5 -35z" />
    <glyph glyph-name="aring" unicode="&#xe5;" horiz-adv-x="611" 
d="M567 500v-500h-212v51q-49 -57 -125 -57q-65 0 -111 34.5t-69.5 93.5t-23.5 130q0 72 23.5 130t69.5 92.5t111 34.5q78 0 125 -57v48h212zM340 215.5q15 15.5 15 36.5q0 23 -15 38.5t-38 15.5t-37.5 -15.5t-14.5 -38.5q0 -22 14.5 -37t37.5 -15t38 15.5zM258 551.5
q-33 19.5 -52.5 52.5t-19.5 71q0 39 19.5 72t52.5 52t71 19q39 0 72 -19t52 -52t19 -72q0 -38 -19 -71t-52 -52.5t-72 -19.5q-38 0 -71 19.5zM344 661q6 6 6 14q0 9 -6 15t-15 6t-15 -6t-6 -15q0 -8 6 -14t15 -6t15 6z" />
    <glyph glyph-name="ae" unicode="&#xe6;" horiz-adv-x="1017" 
d="M882 474.5q55 -35.5 83.5 -98t28.5 -140.5q0 -18 -1 -28h-297q19 -42 84 -42q32 0 73 7.5t78 18.5l3 -168q-75 -32 -173 -32q-64 0 -115.5 22t-87.5 61v-75h-203v52q-49 -57 -125 -57q-65 0 -111 34.5t-69.5 93.5t-23.5 130q0 72 23.5 130t69.5 92.5t111 34.5
q78 0 125 -57v47h203v-74q34 40 83 62t109 22q77 0 132 -35.5zM717.5 320q-14.5 -11 -22.5 -30h112q-7 19 -22 30t-32 11q-21 0 -35.5 -11zM340 216.5q15 15.5 15 36.5q0 23 -15 38.5t-38 15.5t-37.5 -15.5t-14.5 -38.5q0 -22 14.5 -37t37.5 -15t38 15.5z" />
    <glyph glyph-name="ccedilla" unicode="&#xe7;" horiz-adv-x="474" 
d="M259.5 283.5q-17.5 -12.5 -17.5 -33.5t17.5 -33.5t47.5 -12.5q61 0 135 27v-211q-54 -24 -115 -29l-1 -12q30 -8 50.5 -31.5t20.5 -57.5q0 -47 -34.5 -75t-87.5 -28q-26 0 -56.5 6.5t-49.5 15.5v125q41 -22 83 -22q14 0 21.5 5t7.5 11q0 16 -29 16q-18 0 -39 -6l-4 2
l17 58q-91 21 -145.5 90t-54.5 162q0 73 34 132.5t95.5 93.5t141.5 34q78 0 145 -30v-211q-74 27 -135 27q-30 0 -47.5 -12.5z" />
    <glyph glyph-name="egrave" unicode="&#xe8;" horiz-adv-x="548" 
d="M413 474.5q55 -35.5 83.5 -98t28.5 -140.5q0 -18 -1 -28h-297q19 -42 84 -42q32 0 73 7.5t78 18.5l3 -168q-75 -32 -173 -32q-82 0 -142 34.5t-92 93t-32 130.5q0 70 31 129.5t89 95t135 35.5t132 -35.5zM248.5 320q-14.5 -11 -22.5 -30h112q-7 19 -22 30t-32 11
q-21 0 -35.5 -11zM86 768h211l56 -212h-148z" />
    <glyph glyph-name="eacute" unicode="&#xe9;" horiz-adv-x="548" 
d="M413 474.5q55 -35.5 83.5 -98t28.5 -140.5q0 -18 -1 -28h-297q19 -42 84 -42q32 0 73 7.5t78 18.5l3 -168q-75 -32 -173 -32q-82 0 -142 34.5t-92 93t-32 130.5q0 70 31 129.5t89 95t135 35.5t132 -35.5zM248.5 320q-14.5 -11 -22.5 -30h112q-7 19 -22 30t-32 11
q-21 0 -35.5 -11zM201 556l56 212h211l-119 -212h-148z" />
    <glyph glyph-name="ecircumflex" unicode="&#xea;" horiz-adv-x="548" 
d="M413 474.5q55 -35.5 83.5 -98t28.5 -140.5q0 -18 -1 -28h-297q19 -42 84 -42q32 0 73 7.5t78 18.5l3 -168q-75 -32 -173 -32q-82 0 -142 34.5t-92 93t-32 130.5q0 70 31 129.5t89 95t135 35.5t132 -35.5zM248.5 320q-14.5 -11 -22.5 -30h112q-7 19 -22 30t-32 11
q-21 0 -35.5 -11zM310 552l-32 107l-32 -107h-183l108 213h213l109 -213h-183z" />
    <glyph glyph-name="edieresis" unicode="&#xeb;" horiz-adv-x="548" 
d="M413 474.5q55 -35.5 83.5 -98t28.5 -140.5q0 -18 -1 -28h-297q19 -42 84 -42q32 0 73 7.5t78 18.5l3 -168q-75 -32 -173 -32q-82 0 -142 34.5t-92 93t-32 130.5q0 70 31 129.5t89 95t135 35.5t132 -35.5zM248.5 320q-14.5 -11 -22.5 -30h112q-7 19 -22 30t-32 11
q-21 0 -35.5 -11zM472.5 753q35.5 -35 35.5 -87q0 -50 -35.5 -86t-86.5 -36q-33 0 -62 17t-45 46q-16 -29 -44 -46t-63 -17q-50 0 -86 36t-36 86q0 51 35.5 86.5t86.5 35.5q35 0 63 -16.5t44 -45.5q16 29 44.5 45.5t62.5 16.5q51 0 86.5 -35z" />
    <glyph glyph-name="igrave" unicode="&#xec;" horiz-adv-x="350" 
d="M126 556l-119 212h211l56 -212h-148zM306 500v-500h-212v500h212z" />
    <glyph glyph-name="iacute" unicode="&#xed;" horiz-adv-x="269" 
d="M29 500h212v-500h-212v500zM57 556l56 212h211l-119 -212h-148z" />
    <glyph glyph-name="icircumflex" unicode="&#xee;" horiz-adv-x="444" 
d="M190 552h-183l108 213h213l109 -213h-183l-32 107zM117 500h212v-500h-212v500z" />
    <glyph glyph-name="idieresis" unicode="&#xef;" horiz-adv-x="472" 
d="M429.5 753q35.5 -35 35.5 -87q0 -50 -35.5 -86t-86.5 -36q-33 0 -62 17t-45 46q-16 -29 -44 -46t-63 -17q-50 0 -86 36t-36 86q0 51 35.5 86.5t86.5 35.5q35 0 63 -16.5t44 -45.5q16 29 44.5 45.5t62.5 16.5q51 0 86.5 -35zM122 500h212v-500h-212v500z" />
    <glyph glyph-name="eth" unicode="&#xf0;" horiz-adv-x="591" 
d="M533.5 468.5q31.5 -86.5 31.5 -179.5q0 -72 -28 -141t-89.5 -114.5t-157.5 -45.5q-76 0 -136 36t-94 96t-34 131t34 131t94 96t136 36q18 0 36 -3q-23 27 -50 51l-115 -46v68l53 21q-47 29 -112 51l97 160q114 -43 202 -136l90 36v-69l-46 -18q57 -74 88.5 -160.5z
M324.5 217q13.5 14 13.5 35q0 19 -13.5 33t-34.5 14q-20 0 -33.5 -14t-13.5 -33q0 -21 13 -35t34 -14t34.5 14z" />
    <glyph glyph-name="ntilde" unicode="&#xf1;" horiz-adv-x="581" 
d="M507 463q34 -46 34 -128v-335h-212v261q0 19 -10.5 31.5t-25.5 12.5t-25.5 -12.5t-10.5 -31.5v-261h-212v500h212v-63q63 72 146 72q70 0 104 -46zM116 749q18 12 44 20t56 8q20 0 33.5 -3t36.5 -10q35 -13 68 -13q29 0 51 6.5t48 19.5v-173q-17 -13 -43 -21t-57 -8
q-20 0 -35 3.5t-34 9.5q-38 12 -68 12t-52.5 -6t-47.5 -19v174z" />
    <glyph glyph-name="ograve" unicode="&#xf2;" horiz-adv-x="581" 
d="M154 24q-60 36 -94 96t-34 131t34 131t94 96t136 36t136.5 -36t94.5 -96t34 -131t-34 -131t-94.5 -96t-136.5 -36t-136 36zM326 215.5q14 14.5 14 36.5q0 20 -14.5 34.5t-35.5 14.5t-35 -15t-14 -34q0 -21 14 -36t35 -15q22 0 36 14.5zM98 768h211l56 -212h-148z" />
    <glyph glyph-name="oacute" unicode="&#xf3;" horiz-adv-x="581" 
d="M154 24q-60 36 -94 96t-34 131t34 131t94 96t136 36t136.5 -36t94.5 -96t34 -131t-34 -131t-94.5 -96t-136.5 -36t-136 36zM326 215.5q14 14.5 14 36.5q0 20 -14.5 34.5t-35.5 14.5t-35 -15t-14 -34q0 -21 14 -36t35 -15q22 0 36 14.5zM213 556l56 212h211l-119 -212
h-148z" />
    <glyph glyph-name="ocircumflex" unicode="&#xf4;" horiz-adv-x="581" 
d="M154 24q-60 36 -94 96t-34 131t34 131t94 96t136 36t136.5 -36t94.5 -96t34 -131t-34 -131t-94.5 -96t-136.5 -36t-136 36zM326 215.5q14 14.5 14 36.5q0 20 -14.5 34.5t-35.5 14.5t-35 -15t-14 -34q0 -21 14 -36t35 -15q22 0 36 14.5zM322 552l-32 107l-32 -107h-183
l108 213h213l109 -213h-183z" />
    <glyph glyph-name="otilde" unicode="&#xf5;" horiz-adv-x="581" 
d="M154 24q-60 36 -94 96t-34 131t34 131t94 96t136 36t136.5 -36t94.5 -96t34 -131t-34 -131t-94.5 -96t-136.5 -36t-136 36zM326 215.5q14 14.5 14 36.5q0 20 -14.5 34.5t-35.5 14.5t-35 -15t-14 -34q0 -21 14 -36t35 -15q22 0 36 14.5zM121 749q18 12 44 20t56 8
q20 0 33.5 -3t36.5 -10q35 -13 68 -13q29 0 51 6.5t48 19.5v-173q-17 -13 -43 -21t-57 -8q-20 0 -35 3.5t-34 9.5q-38 12 -68 12t-52.5 -6t-47.5 -19v174z" />
    <glyph glyph-name="odieresis" unicode="&#xf6;" horiz-adv-x="581" 
d="M154 24q-60 36 -94 96t-34 131t34 131t94 96t136 36t136.5 -36t94.5 -96t34 -131t-34 -131t-94.5 -96t-136.5 -36t-136 36zM326 215.5q14 14.5 14 36.5q0 20 -14.5 34.5t-35.5 14.5t-35 -15t-14 -34q0 -21 14 -36t35 -15q22 0 36 14.5zM484.5 753q35.5 -35 35.5 -87
q0 -50 -35.5 -86t-86.5 -36q-33 0 -62 17t-45 46q-16 -29 -44 -46t-63 -17q-50 0 -86 36t-36 86q0 51 35.5 86.5t86.5 35.5q35 0 63 -16.5t44 -45.5q16 29 44.5 45.5t62.5 16.5q51 0 86.5 -35z" />
    <glyph glyph-name="divide" unicode="&#xf7;" horiz-adv-x="438" 
d="M158.5 421q-23.5 24 -23.5 57q0 34 23.5 58t57.5 24q33 0 56.5 -24t23.5 -58q0 -33 -23.5 -57t-56.5 -24q-34 0 -57.5 24zM25 368h388v-136h-388v136zM158.5 66q-23.5 24 -23.5 57q0 34 23.5 58t57.5 24q33 0 56.5 -24t23.5 -58q0 -33 -23.5 -57t-56.5 -24
q-34 0 -57.5 24z" />
    <glyph glyph-name="oslash" unicode="&#xf8;" horiz-adv-x="583" 
d="M538 351q19 -48 19 -100q0 -71 -34 -131t-94.5 -96t-136.5 -36q-90 0 -159 51l-34 -39h-65l63 71q-33 36 -51 82.5t-18 97.5q0 71 34 131t94 96t136 36q89 0 156 -48l31 34h63l-58 -65q35 -36 54 -84zM245 237l56 63q-3 1 -9 1q-21 0 -35 -15t-14 -34q0 -5 2 -15z
M328 215.5q14 14.5 14 36.5q0 11 -4 18l-59 -67q8 -2 13 -2q22 0 36 14.5z" />
    <glyph glyph-name="ugrave" unicode="&#xf9;" horiz-adv-x="581" 
d="M536 500v-500h-212v63q-63 -72 -146 -72q-70 0 -104 46t-34 128v335h212v-261q0 -19 10.5 -31.5t25.5 -12.5t25.5 12.5t10.5 31.5v261h212zM92 768h211l56 -212h-148z" />
    <glyph glyph-name="uacute" unicode="&#xfa;" horiz-adv-x="581" 
d="M536 500v-500h-212v63q-63 -72 -146 -72q-70 0 -104 46t-34 128v335h212v-261q0 -19 10.5 -31.5t25.5 -12.5t25.5 12.5t10.5 31.5v261h212zM207 556l56 212h211l-119 -212h-148z" />
    <glyph glyph-name="ucircumflex" unicode="&#xfb;" horiz-adv-x="581" 
d="M536 500v-500h-212v63q-63 -72 -146 -72q-70 0 -104 46t-34 128v335h212v-261q0 -19 10.5 -31.5t25.5 -12.5t25.5 12.5t10.5 31.5v261h212zM316 552l-32 107l-32 -107h-183l108 213h213l109 -213h-183z" />
    <glyph glyph-name="udieresis" unicode="&#xfc;" horiz-adv-x="581" 
d="M536 500v-500h-212v63q-63 -72 -146 -72q-70 0 -104 46t-34 128v335h212v-261q0 -19 10.5 -31.5t25.5 -12.5t25.5 12.5t10.5 31.5v261h212zM478.5 753q35.5 -35 35.5 -87q0 -50 -35.5 -86t-86.5 -36q-33 0 -62 17t-45 46q-16 -29 -44 -46t-63 -17q-50 0 -86 36t-36 86
q0 51 35.5 86.5t86.5 35.5q35 0 63 -16.5t44 -45.5q16 29 44.5 45.5t62.5 16.5q51 0 86.5 -35z" />
    <glyph glyph-name="yacute" unicode="&#xfd;" horiz-adv-x="559" 
d="M554 500l-235 -700h-212l69 196l-172 504h217l58 -263l58 263h217zM202 556l56 212h211l-119 -212h-148z" />
    <glyph glyph-name="thorn" unicode="&#xfe;" horiz-adv-x="611" 
d="M493 474.5q46 -34.5 69.5 -93.5t23.5 -130q0 -72 -23.5 -130t-69.5 -92.5t-111 -34.5q-78 0 -125 57v-251h-212v900h212v-248q49 57 125 57q65 0 111 -34.5zM347.5 212.5q14.5 15.5 14.5 38.5q0 22 -14.5 37t-37.5 15t-38 -15.5t-15 -36.5q0 -23 15 -38.5t38 -15.5
t37.5 15.5z" />
    <glyph glyph-name="ydieresis" unicode="&#xff;" horiz-adv-x="559" 
d="M554 500l-235 -700h-212l69 196l-172 504h217l58 -263l58 263h217zM473.5 753q35.5 -35 35.5 -87q0 -50 -35.5 -86t-86.5 -36q-33 0 -62 17t-45 46q-16 -29 -44 -46t-63 -17q-50 0 -86 36t-36 86q0 51 35.5 86.5t86.5 35.5q35 0 63 -16.5t44 -45.5q16 29 44.5 45.5
t62.5 16.5q51 0 86.5 -35z" />
    <glyph glyph-name="Amacron" unicode="&#x100;" horiz-adv-x="681" 
d="M425 82h-167l-18 -82h-238l205 701h271l201 -701h-236zM388 257l-46 212l-46 -212h92zM178 939h327v-136h-327v136z" />
    <glyph glyph-name="amacron" unicode="&#x101;" horiz-adv-x="611" 
d="M567 500v-500h-212v51q-49 -57 -125 -57q-65 0 -111 34.5t-69.5 93.5t-23.5 130q0 72 23.5 130t69.5 92.5t111 34.5q78 0 125 -57v48h212zM340 215.5q15 15.5 15 36.5q0 23 -15 38.5t-38 15.5t-37.5 -15.5t-14.5 -38.5q0 -22 14.5 -37t37.5 -15t38 15.5zM165 739h327
v-136h-327v136z" />
    <glyph glyph-name="Abreve" unicode="&#x102;" horiz-adv-x="681" 
d="M425 82h-167l-18 -82h-238l205 701h271l201 -701h-236zM388 257l-46 212l-46 -212h92zM249.5 790.5q-40.5 22.5 -63 62t-22.5 88.5h141q1 -15 11 -25t26 -10t26 10t11 25h140q0 -49 -22 -88.5t-62.5 -62t-92.5 -22.5t-92.5 22.5z" />
    <glyph glyph-name="abreve" unicode="&#x103;" horiz-adv-x="611" 
d="M567 500v-500h-212v51q-49 -57 -125 -57q-65 0 -111 34.5t-69.5 93.5t-23.5 130q0 72 23.5 130t69.5 92.5t111 34.5q78 0 125 -57v48h212zM340 215.5q15 15.5 15 36.5q0 23 -15 38.5t-38 15.5t-37.5 -15.5t-14.5 -38.5q0 -22 14.5 -37t37.5 -15t38 15.5zM236.5 590.5
q-40.5 22.5 -63 62t-22.5 88.5h141q1 -15 11 -25t26 -10t26 10t11 25h140q0 -49 -22 -88.5t-62.5 -62t-92.5 -22.5t-92.5 22.5z" />
    <glyph glyph-name="Aogonek" unicode="&#x104;" horiz-adv-x="681" 
d="M425 82h-167l-18 -82h-238l205 701h271l201 -701h-236zM388 257l-46 212l-46 -212h92zM479 -186q-39 27 -39 80q0 30 11.5 58t29.5 48h198q-24 -24 -24 -43q0 -7 3.5 -11t9.5 -4q9 0 23 7v-136q-18 -10 -49 -18t-66 -8q-58 0 -97 27z" />
    <glyph glyph-name="aogonek" unicode="&#x105;" horiz-adv-x="611" 
d="M578 -51v-136q-18 -10 -49 -18t-66 -8q-58 0 -97 27t-39 80q0 30 11.5 58t29.5 48h-13v51q-49 -57 -125 -57q-65 0 -111 34.5t-69.5 93.5t-23.5 130q0 72 23.5 130t69.5 92.5t111 34.5q78 0 125 -57v48h212v-500h-1q-24 -24 -24 -43q0 -7 3.5 -11t9.5 -4q9 0 23 7z
M340 215.5q15 15.5 15 36.5q0 23 -15 38.5t-38 15.5t-37.5 -15.5t-14.5 -38.5q0 -22 14.5 -37t37.5 -15t38 15.5z" />
    <glyph glyph-name="Cacute" unicode="&#x106;" horiz-adv-x="571" 
d="M217 34q-84 44 -132.5 125.5t-48.5 189.5t48.5 190t132.5 126t190 44q37 0 74 -6t64 -17l1 -229q-56 32 -127 32q-65 0 -109 -39.5t-44 -100.5q0 -39 20.5 -71t55.5 -50t77 -18q71 0 127 32l-1 -229q-27 -11 -64 -17t-74 -6q-106 0 -190 44zM273 756l56 212h211
l-119 -212h-148z" />
    <glyph glyph-name="cacute" unicode="&#x107;" horiz-adv-x="474" 
d="M155.5 24q-61.5 34 -95.5 93.5t-34 132.5t34 132.5t95.5 93.5t141.5 34q78 0 145 -30v-211q-74 27 -135 27q-30 0 -47.5 -12.5t-17.5 -33.5t17.5 -33.5t47.5 -12.5q61 0 135 27v-211q-67 -30 -145 -30q-80 0 -141.5 34zM199 556l56 212h211l-119 -212h-148z" />
    <glyph glyph-name="Cdotaccent" unicode="&#x10a;" horiz-adv-x="571" 
d="M217 34q-84 44 -132.5 125.5t-48.5 189.5t48.5 190t132.5 126t190 44q37 0 74 -6t64 -17l1 -229q-56 32 -127 32q-65 0 -109 -39.5t-44 -100.5q0 -39 20.5 -71t55.5 -50t77 -18q71 0 127 32l-1 -229q-27 -11 -64 -17t-74 -6q-106 0 -190 44zM264 780q-36 36 -36 86
q0 51 35.5 86.5t86.5 35.5q52 0 87 -35t35 -87q0 -51 -35.5 -86.5t-86.5 -35.5q-50 0 -86 36z" />
    <glyph glyph-name="cdotaccent" unicode="&#x10b;" horiz-adv-x="474" 
d="M155.5 24q-61.5 34 -95.5 93.5t-34 132.5t34 132.5t95.5 93.5t141.5 34q78 0 145 -30v-211q-74 27 -135 27q-30 0 -47.5 -12.5t-17.5 -33.5t17.5 -33.5t47.5 -12.5q61 0 135 27v-211q-67 -30 -145 -30q-80 0 -141.5 34zM190 580q-36 36 -36 86q0 51 35.5 86.5t86.5 35.5
q52 0 87 -35t35 -87q0 -51 -35.5 -86.5t-86.5 -35.5q-50 0 -86 36z" />
    <glyph glyph-name="Ccaron" unicode="&#x10c;" horiz-adv-x="571" 
d="M217 34q-84 44 -132.5 125.5t-48.5 189.5t48.5 190t132.5 126t190 44q37 0 74 -6t64 -17l1 -229q-56 32 -127 32q-65 0 -109 -39.5t-44 -100.5q0 -39 20.5 -71t55.5 -50t77 -18q71 0 127 32l-1 -229q-27 -11 -64 -17t-74 -6q-106 0 -190 44zM565 967l-109 -213h-213
l-108 213h183l32 -106l32 106h183z" />
    <glyph glyph-name="ccaron" unicode="&#x10d;" horiz-adv-x="474" 
d="M155.5 24q-61.5 34 -95.5 93.5t-34 132.5t34 132.5t95.5 93.5t141.5 34q78 0 145 -30v-211q-74 27 -135 27q-30 0 -47.5 -12.5t-17.5 -33.5t17.5 -33.5t47.5 -12.5q61 0 135 27v-211q-67 -30 -145 -30q-80 0 -141.5 34zM491 767l-109 -213h-213l-108 213h183l32 -106
l32 106h183z" />
    <glyph glyph-name="Dcaron" unicode="&#x10e;" horiz-adv-x="680" 
d="M475 654.5q81 -45.5 125 -125t44 -176.5q0 -98 -44 -178.5t-125 -127.5t-189 -47h-236v700h236q108 0 189 -45.5zM381.5 251.5q32.5 40.5 32.5 101.5t-32.5 98.5t-91.5 37.5h-19v-278h19q59 0 91.5 40.5zM524 967l-109 -213h-213l-108 213h183l32 -106l32 106h183z" />
    <glyph glyph-name="dcaron" unicode="&#x10f;" horiz-adv-x="789" 
d="M355 800h211v-800h-211v51q-49 -57 -125 -57q-65 0 -111 34.5t-69.5 93.5t-23.5 130q0 72 23.5 130t69.5 92.5t111 34.5q78 0 125 -57v348zM779 741l-62 -232l-113 16l24 239zM340 215.5q15 15.5 15 36.5q0 23 -15 38.5t-38 15.5t-37.5 -15.5t-14.5 -38.5q0 -22 14.5 -37
t37.5 -15t38 15.5z" />
    <glyph glyph-name="Dcroat" unicode="&#x110;" horiz-adv-x="680" 
d="M475 654.5q81 -45.5 125 -125t44 -176.5q0 -98 -44 -178.5t-125 -127.5t-189 -47h-236v263h-69v175h69v262h236q108 0 189 -45.5zM381.5 251.5q32.5 40.5 32.5 101.5t-32.5 98.5t-91.5 37.5h-19v-51h77v-175h-77v-52h19q59 0 91.5 40.5z" />
    <glyph glyph-name="dcroat" unicode="&#x111;" horiz-adv-x="661" 
d="M652 526h-86v-526h-211v51q-49 -57 -125 -57q-65 0 -111 34.5t-69.5 93.5t-23.5 130q0 72 23.5 130t69.5 92.5t111 34.5q78 0 125 -57v74h-70v175h70v99h211v-99h86v-175zM340 215.5q15 15.5 15 36.5q0 23 -15 38.5t-38 15.5t-37.5 -15.5t-14.5 -38.5q0 -22 14.5 -37
t37.5 -15t38 15.5z" />
    <glyph glyph-name="Emacron" unicode="&#x112;" horiz-adv-x="545" 
d="M271 489v-47h183v-181h-183v-50h243v-211h-464v700h464v-211h-243zM119 939h327v-136h-327v136z" />
    <glyph glyph-name="emacron" unicode="&#x113;" horiz-adv-x="548" 
d="M413 474.5q55 -35.5 83.5 -98t28.5 -140.5q0 -18 -1 -28h-297q19 -42 84 -42q32 0 73 7.5t78 18.5l3 -168q-75 -32 -173 -32q-82 0 -142 34.5t-92 93t-32 130.5q0 70 31 129.5t89 95t135 35.5t132 -35.5zM248.5 320q-14.5 -11 -22.5 -30h112q-7 19 -22 30t-32 11
q-21 0 -35.5 -11zM114 739h327v-136h-327v136z" />
    <glyph glyph-name="Edotaccent" unicode="&#x116;" horiz-adv-x="545" 
d="M271 489v-47h183v-181h-183v-50h243v-211h-464v700h464v-211h-243zM197 780q-36 36 -36 86q0 51 35.5 86.5t86.5 35.5q52 0 87 -35t35 -87q0 -51 -35.5 -86.5t-86.5 -35.5q-50 0 -86 36z" />
    <glyph glyph-name="edotaccent" unicode="&#x117;" horiz-adv-x="548" 
d="M413 474.5q55 -35.5 83.5 -98t28.5 -140.5q0 -18 -1 -28h-297q19 -42 84 -42q32 0 73 7.5t78 18.5l3 -168q-75 -32 -173 -32q-82 0 -142 34.5t-92 93t-32 130.5q0 70 31 129.5t89 95t135 35.5t132 -35.5zM248.5 320q-14.5 -11 -22.5 -30h112q-7 19 -22 30t-32 11
q-21 0 -35.5 -11zM192 580q-36 36 -36 86q0 51 35.5 86.5t86.5 35.5q52 0 87 -35t35 -87q0 -51 -35.5 -86.5t-86.5 -35.5q-50 0 -86 36z" />
    <glyph glyph-name="Eogonek" unicode="&#x118;" horiz-adv-x="545" 
d="M271 489v-47h183v-181h-183v-50h243v-211h-464v700h464v-211h-243zM314 -186q-39 27 -39 80q0 30 11.5 58t29.5 48h198q-24 -24 -24 -43q0 -7 3.5 -11t9.5 -4q9 0 23 7v-136q-18 -10 -49 -18t-66 -8q-58 0 -97 27z" />
    <glyph glyph-name="eogonek" unicode="&#x119;" horiz-adv-x="527" 
d="M413 474.5q55 -35.5 83.5 -98t28.5 -140.5q0 -18 -1 -28h-297q19 -42 84 -42q32 0 73 7.5t78 18.5l3 -168q-20 -21 -27.5 -31.5t-7.5 -25.5q0 -11 6 -17t14 -6q14 0 27 7v-138q-17 -10 -52 -18t-69 -8q-61 0 -101 27.5t-40 80.5q0 51 45 99q-73 6 -125.5 41.5t-80.5 91.5
t-28 123q0 70 31 129.5t89 95t135 35.5t132 -35.5zM248.5 320q-14.5 -11 -22.5 -30h112q-7 19 -22 30t-32 11q-21 0 -35.5 -11z" />
    <glyph glyph-name="Ecaron" unicode="&#x11a;" horiz-adv-x="545" 
d="M271 489v-47h183v-181h-183v-50h243v-211h-464v700h464v-211h-243zM498 967l-109 -213h-213l-108 213h183l32 -106l32 106h183z" />
    <glyph glyph-name="ecaron" unicode="&#x11b;" horiz-adv-x="548" 
d="M413 474.5q55 -35.5 83.5 -98t28.5 -140.5q0 -18 -1 -28h-297q19 -42 84 -42q32 0 73 7.5t78 18.5l3 -168q-75 -32 -173 -32q-82 0 -142 34.5t-92 93t-32 130.5q0 70 31 129.5t89 95t135 35.5t132 -35.5zM248.5 320q-14.5 -11 -22.5 -30h112q-7 19 -22 30t-32 11
q-21 0 -35.5 -11zM493 767l-109 -213h-213l-108 213h183l32 -106l32 106h183z" />
    <glyph glyph-name="Gbreve" unicode="&#x11e;" horiz-adv-x="720" 
d="M680 419v-327q-48 -49 -119 -77t-154 -28q-113 0 -197.5 49.5t-129 132.5t-44.5 181t44.5 181t129 132.5t197.5 49.5q79 0 145 -27.5t114 -77.5l-153 -158q-47 42 -109 42q-61 0 -99.5 -41t-38.5 -101q0 -62 39 -102t101 -40q40 0 75 14v44h-96v153h295zM301.5 790.5
q-40.5 22.5 -63 62t-22.5 88.5h141q1 -15 11 -25t26 -10t26 10t11 25h140q0 -49 -22 -88.5t-62.5 -62t-92.5 -22.5t-92.5 22.5z" />
    <glyph glyph-name="gbreve" unicode="&#x11f;" horiz-adv-x="611" 
d="M566 42q0 -78 -35.5 -135.5t-100 -88.5t-150.5 -31q-101 0 -194 32l1 178q39 -22 70 -31t69 -9q52 0 91 24.5t39 70.5q-50 -58 -126 -58q-65 0 -111 34.5t-69.5 93.5t-23.5 130q0 72 23.5 130t69.5 92.5t111 34.5q76 0 124 -56v47h211zM340 215.5q15 15.5 15 36.5
q0 23 -15 38.5t-38 15.5t-37.5 -15.5t-14.5 -38.5q0 -22 14.5 -37t37.5 -15t38 15.5zM222.5 590.5q-40.5 22.5 -63 62t-22.5 88.5h141q1 -15 11 -25t26 -10t26 10t11 25h140q0 -49 -22 -88.5t-62.5 -62t-92.5 -22.5t-92.5 22.5z" />
    <glyph glyph-name="Gdotaccent" unicode="&#x120;" horiz-adv-x="720" 
d="M680 419v-327q-48 -49 -119 -77t-154 -28q-113 0 -197.5 49.5t-129 132.5t-44.5 181t44.5 181t129 132.5t197.5 49.5q79 0 145 -27.5t114 -77.5l-153 -158q-47 42 -109 42q-61 0 -99.5 -41t-38.5 -101q0 -62 39 -102t101 -40q40 0 75 14v44h-96v153h295zM308 780
q-36 36 -36 86q0 51 35.5 86.5t86.5 35.5q52 0 87 -35t35 -87q0 -51 -35.5 -86.5t-86.5 -35.5q-50 0 -86 36z" />
    <glyph glyph-name="gdotaccent" unicode="&#x121;" horiz-adv-x="611" 
d="M566 42q0 -78 -35.5 -135.5t-100 -88.5t-150.5 -31q-101 0 -194 32l1 178q39 -22 70 -31t69 -9q52 0 91 24.5t39 70.5q-50 -58 -126 -58q-65 0 -111 34.5t-69.5 93.5t-23.5 130q0 72 23.5 130t69.5 92.5t111 34.5q76 0 124 -56v47h211zM340 215.5q15 15.5 15 36.5
q0 23 -15 38.5t-38 15.5t-37.5 -15.5t-14.5 -38.5q0 -22 14.5 -37t37.5 -15t38 15.5zM229 580q-36 36 -36 86q0 51 35.5 86.5t86.5 35.5q52 0 87 -35t35 -87q0 -51 -35.5 -86.5t-86.5 -35.5q-50 0 -86 36z" />
    <glyph glyph-name="Gcommaaccent" unicode="&#x122;" horiz-adv-x="720" 
d="M680 419v-327q-48 -49 -119 -77t-154 -28q-113 0 -197.5 49.5t-129 132.5t-44.5 181t44.5 181t129 132.5t197.5 49.5q79 0 145 -27.5t114 -77.5l-153 -158q-47 42 -109 42q-61 0 -99.5 -41t-38.5 -101q0 -62 39 -102t101 -40q40 0 75 14v44h-96v153h295zM319 -52h182
l-91 -170h-137z" />
    <glyph glyph-name="gcommaaccent" unicode="&#x123;" horiz-adv-x="611" 
d="M566 42q0 -78 -35.5 -135.5t-100 -88.5t-150.5 -31q-101 0 -194 32l1 178q39 -22 70 -31t69 -9q52 0 91 24.5t39 70.5q-50 -58 -126 -58q-65 0 -111 34.5t-69.5 93.5t-23.5 130q0 72 23.5 130t69.5 92.5t111 34.5q76 0 124 -56v47h211zM340 215.5q15 15.5 15 36.5
q0 23 -15 38.5t-38 15.5t-37.5 -15.5t-14.5 -38.5q0 -22 14.5 -37t37.5 -15t38 15.5zM288 756h137l-39 -173h-182z" />
    <glyph glyph-name="Hbar" unicode="&#x126;" horiz-adv-x="694" 
d="M683 510h-39v-510h-221v239h-152v-239h-221v510h-41v137h41v53h221v-53h152v53h221v-53h39v-137zM423 510h-152v-60h152v60z" />
    <glyph glyph-name="hbar" unicode="&#x127;" horiz-adv-x="619" 
d="M545 463q34 -46 34 -128v-335h-212v261q0 19 -10.5 31.5t-25.5 12.5t-25.5 -12.5t-10.5 -31.5h-1v-261h-211v550h-65v175h65v75h211v-75h91v-175h-91v-114q29 34 66.5 53.5t80.5 19.5q70 0 104 -46z" />
    <glyph glyph-name="Imacron" unicode="&#x12a;" horiz-adv-x="321" 
d="M50 700h221v-700h-221v700zM-3 939h327v-136h-327v136z" />
    <glyph glyph-name="imacron" unicode="&#x12b;" horiz-adv-x="342" 
d="M334 739v-136h-327v136h327zM66 500h212v-500h-212v500z" />
    <glyph glyph-name="Iogonek" unicode="&#x12e;" horiz-adv-x="321" 
d="M50 700h221v-700h-221v700zM71 -186q-39 27 -39 80q0 30 11.5 58t29.5 48h198q-24 -24 -24 -43q0 -7 3.5 -11t9.5 -4q9 0 23 7v-136q-18 -10 -49 -18t-66 -8q-58 0 -97 27z" />
    <glyph glyph-name="iogonek" unicode="&#x12f;" horiz-adv-x="269" 
d="M48 580q-36 36 -36 86q0 51 35.5 86.5t86.5 35.5q52 0 87 -35t35 -87q0 -51 -35.5 -86.5t-86.5 -35.5q-50 0 -86 36zM219.5 -54q3.5 -4 9.5 -4q9 0 23 7v-136q-18 -10 -49 -18t-66 -8q-58 0 -97 27t-39 80q0 30 11.5 58t29.5 48h-13v500h212v-500h-1q-24 -24 -24 -43
q0 -7 3.5 -11z" />
    <glyph glyph-name="Idotaccent" unicode="&#x130;" horiz-adv-x="321" 
d="M50 700h221v-700h-221v700zM75 780q-36 36 -36 86q0 51 35.5 86.5t86.5 35.5q52 0 87 -35t35 -87q0 -51 -35.5 -86.5t-86.5 -35.5q-50 0 -86 36z" />
    <glyph glyph-name="dotlessi" unicode="&#x131;" horiz-adv-x="269" 
d="M29 500h212v-500h-212v500z" />
    <glyph glyph-name="Kcommaaccent" unicode="&#x136;" horiz-adv-x="667" 
d="M407 0l-136 257v-257h-221v700h221v-261l131 261h256l-204 -355l207 -345h-254zM272 -52h182l-91 -170h-137z" />
    <glyph glyph-name="kcommaaccent" unicode="&#x137;" horiz-adv-x="595" 
d="M342 0l-86 182v-182h-211v800h211v-488l80 188h242l-123 -250l136 -250h-249zM229 -52h182l-91 -170h-137z" />
    <glyph glyph-name="Lacute" unicode="&#x139;" horiz-adv-x="475" 
d="M468 211v-211h-418v700h221v-489h197zM87 756l56 212h211l-119 -212h-148z" />
    <glyph glyph-name="lacute" unicode="&#x13a;" horiz-adv-x="302" 
d="M45 800h211v-800h-211v800zM74 856l56 212h211l-119 -212h-148z" />
    <glyph glyph-name="Lcommaaccent" unicode="&#x13b;" horiz-adv-x="475" 
d="M468 211v-211h-418v700h221v-489h197zM182 -52h182l-91 -170h-137z" />
    <glyph glyph-name="lcommaaccent" unicode="&#x13c;" horiz-adv-x="302" 
d="M45 800h211v-800h-211v800zM83 -52h182l-91 -170h-137z" />
    <glyph glyph-name="Lcaron" unicode="&#x13d;" horiz-adv-x="475" 
d="M468 211v-211h-418v700h221v-489h197zM318 525l24 239l151 -23l-62 -232z" />
    <glyph glyph-name="lcaron" unicode="&#x13e;" horiz-adv-x="468" 
d="M45 800h211v-800h-211v800zM456 741l-62 -232l-113 16l24 239z" />
    <glyph glyph-name="Lslash" unicode="&#x141;" horiz-adv-x="525" 
d="M518 211v-211h-418v272l-82 -21v204l82 21v224h221v-168l99 25v-205l-99 -25v-116h197z" />
    <glyph glyph-name="lslash" unicode="&#x142;" horiz-adv-x="365" 
d="M348 308l-55 -20v-288h-211v209l-64 -24v205l64 24v386h211v-307l55 20v-205z" />
    <glyph glyph-name="Nacute" unicode="&#x143;" horiz-adv-x="728" 
d="M677 700v-701h-226l-180 293v-292h-221v701h226l181 -300v299h220zM288 756l56 212h211l-119 -212h-148z" />
    <glyph glyph-name="nacute" unicode="&#x144;" horiz-adv-x="581" 
d="M507 463q34 -46 34 -128v-335h-212v261q0 19 -10.5 31.5t-25.5 12.5t-25.5 -12.5t-10.5 -31.5v-261h-212v500h212v-63q63 72 146 72q70 0 104 -46zM208 556l56 212h211l-119 -212h-148z" />
    <glyph glyph-name="Ncommaaccent" unicode="&#x145;" horiz-adv-x="728" 
d="M677 700v-701h-226l-180 293v-292h-221v701h226l181 -300v299h220zM297 -52h182l-91 -170h-137z" />
    <glyph glyph-name="ncommaaccent" unicode="&#x146;" horiz-adv-x="581" 
d="M507 463q34 -46 34 -128v-335h-212v261q0 19 -10.5 31.5t-25.5 12.5t-25.5 -12.5t-10.5 -31.5v-261h-212v500h212v-63q63 72 146 72q70 0 104 -46zM217 -52h182l-91 -170h-137z" />
    <glyph glyph-name="Ncaron" unicode="&#x147;" horiz-adv-x="728" 
d="M677 700v-701h-226l-180 293v-292h-221v701h226l181 -300v299h220zM580 967l-109 -213h-213l-108 213h183l32 -106l32 106h183z" />
    <glyph glyph-name="ncaron" unicode="&#x148;" horiz-adv-x="581" 
d="M507 463q34 -46 34 -128v-335h-212v261q0 19 -10.5 31.5t-25.5 12.5t-25.5 -12.5t-10.5 -31.5v-261h-212v500h212v-63q63 72 146 72q70 0 104 -46zM500 767l-109 -213h-213l-108 213h183l32 -106l32 106h183z" />
    <glyph glyph-name="Eng" unicode="&#x14a;" horiz-adv-x="728" 
d="M677 -28q0 -79 -39.5 -128t-135.5 -49q-57 0 -117 20v148q16 -6 25.5 -8.5t22.5 -2.5q29 0 29 35v12h-11l-180 293v-292h-221v701h226l181 -300v299h220v-728z" />
    <glyph glyph-name="eng" unicode="&#x14b;" horiz-adv-x="586" 
d="M507 463q34 -46 34 -128v-363q0 -79 -40 -128t-136 -49q-53 0 -113 20v148q16 -6 25.5 -8.5t22.5 -2.5q29 0 29 35v274q0 19 -10.5 31.5t-25.5 12.5t-25.5 -12.5t-10.5 -31.5v-261h-212v500h212v-63q63 72 146 72q70 0 104 -46z" />
    <glyph glyph-name="Omacron" unicode="&#x14c;" horiz-adv-x="808" 
d="M211 37q-84 49 -129.5 132t-45.5 181t45.5 180.5t129.5 132t193 49.5t192.5 -49.5t129.5 -132.5t46 -180q0 -98 -46 -181t-129.5 -132t-192.5 -49t-193 49zM476.5 229q31.5 20 48.5 52.5t17 68.5t-17 68.5t-48.5 52.5t-72.5 20t-72.5 -20t-48.5 -52.5t-17 -68.5t17 -68.5
t48.5 -52.5t72.5 -20t72.5 20zM240 939h327v-136h-327v136z" />
    <glyph glyph-name="omacron" unicode="&#x14d;" horiz-adv-x="581" 
d="M154 24q-60 36 -94 96t-34 131t34 131t94 96t136 36t136.5 -36t94.5 -96t34 -131t-34 -131t-94.5 -96t-136.5 -36t-136 36zM326 215.5q14 14.5 14 36.5q0 20 -14.5 34.5t-35.5 14.5t-35 -15t-14 -34q0 -21 14 -36t35 -15q22 0 36 14.5zM126 739h327v-136h-327v136z" />
    <glyph glyph-name="Ohungarumlaut" unicode="&#x150;" horiz-adv-x="808" 
d="M211 37q-84 49 -129.5 132t-45.5 181t45.5 180.5t129.5 132t193 49.5t192.5 -49.5t129.5 -132.5t46 -180q0 -98 -46 -181t-129.5 -132t-192.5 -49t-193 49zM476.5 229q31.5 20 48.5 52.5t17 68.5t-17 68.5t-48.5 52.5t-72.5 20t-72.5 -20t-48.5 -52.5t-17 -68.5t17 -68.5
t48.5 -52.5t72.5 -20t72.5 20zM204 756l56 212h211l-119 -212h-148zM484 968h211l-119 -212h-148z" />
    <glyph glyph-name="ohungarumlaut" unicode="&#x151;" horiz-adv-x="581" 
d="M154 24q-60 36 -94 96t-34 131t34 131t94 96t136 36t136.5 -36t94.5 -96t34 -131t-34 -131t-94.5 -96t-136.5 -36t-136 36zM326 215.5q14 14.5 14 36.5q0 20 -14.5 34.5t-35.5 14.5t-35 -15t-14 -34q0 -21 14 -36t35 -15q22 0 36 14.5zM90 556l56 212h211l-119 -212h-148
zM370 768h211l-119 -212h-148z" />
    <glyph glyph-name="OE" unicode="&#x152;" horiz-adv-x="1144" 
d="M871 489v-47h183v-181h-183v-50h243v-211h-464v75q-48 -42 -110.5 -64.5t-135.5 -22.5q-109 0 -193 49t-129.5 132t-45.5 181t45.5 180.5t129.5 132t193 49.5q73 0 135.5 -22.5t110.5 -64.5v75h464v-211h-243zM476.5 229q31.5 20 48.5 52.5t17 68.5t-17 68.5t-48.5 52.5
t-72.5 20t-72.5 -20t-48.5 -52.5t-17 -68.5t17 -68.5t48.5 -52.5t72.5 -20t72.5 20z" />
    <glyph glyph-name="oe" unicode="&#x153;" horiz-adv-x="895" 
d="M760 474.5q55 -35.5 83.5 -98t28.5 -140.5q0 -18 -1 -28h-297q19 -42 84 -42q32 0 73 7.5t78 18.5l3 -168q-75 -32 -173 -32q-104 0 -176 57q-34 -29 -78.5 -45t-94.5 -16q-76 0 -136 36t-94 96t-34 131t34 131t94 96t136 36q50 0 94.5 -16t78.5 -45q68 57 165 57
q77 0 132 -35.5zM595.5 320q-14.5 -11 -22.5 -30h112q-7 19 -22 30t-32 11q-21 0 -35.5 -11zM326 215.5q14 14.5 14 36.5q0 20 -14.5 34.5t-35.5 14.5t-35 -15t-14 -34q0 -21 14 -36t35 -15q22 0 36 14.5z" />
    <glyph glyph-name="Racute" unicode="&#x154;" horiz-adv-x="657" 
d="M303 182h-32v-182h-221v700h283q78 0 140.5 -35t98 -94.5t35.5 -131.5q0 -64 -26.5 -116.5t-74.5 -87.5l136 -235h-254zM271 489v-100h50q26 0 42.5 14.5t16.5 35.5t-16 35.5t-43 14.5h-50zM229 756l56 212h211l-119 -212h-148z" />
    <glyph glyph-name="racute" unicode="&#x155;" horiz-adv-x="392" 
d="M382 509v-232q-27 5 -46 5q-79 0 -79 -79v-203h-212v500h212v-60q53 69 125 69zM124 556l56 212h211l-119 -212h-148z" />
    <glyph glyph-name="Rcommaaccent" unicode="&#x156;" horiz-adv-x="657" 
d="M303 182h-32v-182h-221v700h283q78 0 140.5 -35t98 -94.5t35.5 -131.5q0 -64 -26.5 -116.5t-74.5 -87.5l136 -235h-254zM271 489v-100h50q26 0 42.5 14.5t16.5 35.5t-16 35.5t-43 14.5h-50zM263 -52h182l-91 -170h-137z" />
    <glyph glyph-name="rcommaaccent" unicode="&#x157;" horiz-adv-x="392" 
d="M382 509v-232q-27 5 -46 5q-79 0 -79 -79v-203h-212v500h212v-60q53 69 125 69zM110 -52h182l-91 -170h-137z" />
    <glyph glyph-name="Rcaron" unicode="&#x158;" horiz-adv-x="657" 
d="M303 182h-32v-182h-221v700h283q78 0 140.5 -35t98 -94.5t35.5 -131.5q0 -64 -26.5 -116.5t-74.5 -87.5l136 -235h-254zM271 489v-100h50q26 0 42.5 14.5t16.5 35.5t-16 35.5t-43 14.5h-50zM521 967l-109 -213h-213l-108 213h183l32 -106l32 106h183z" />
    <glyph glyph-name="rcaron" unicode="&#x159;" horiz-adv-x="392" 
d="M382 509v-232q-27 5 -46 5q-79 0 -79 -79v-203h-212v500h212v-60q53 69 125 69zM416 767l-109 -213h-213l-108 213h183l32 -106l32 106h183z" />
    <glyph glyph-name="Sacute" unicode="&#x15a;" horiz-adv-x="580" 
d="M151.5 11.5q-74.5 24.5 -126.5 63.5l103 189q35 -24 79.5 -41.5t71.5 -17.5q15 0 23 6t8 16q0 12 -14.5 20.5t-52.5 24.5q-56 23 -95 46t-68.5 66t-29.5 108q0 62 31.5 112.5t89.5 79.5t136 29q68 0 131.5 -22.5t114.5 -56.5l-102 -188q-28 17 -66 31.5t-63 14.5
q-26 0 -26 -19q0 -10 15.5 -19.5t48.5 -22.5q57 -25 95.5 -48.5t69 -67t30.5 -107.5q0 -63 -30 -113t-88 -79t-138 -29q-73 0 -147.5 24.5zM218 756l56 212h211l-119 -212h-148z" />
    <glyph glyph-name="sacute" unicode="&#x15b;" horiz-adv-x="461" 
d="M124.5 10q-58.5 19 -100.5 51l67 139q29 -20 72.5 -36t67.5 -16q17 0 17 12q0 6 -10.5 11t-33.5 12q-45 14 -78.5 30.5t-59.5 50t-26 85.5q0 47 24.5 84t69.5 58t104 21q52 0 102.5 -17t84.5 -42l-73 -141q-22 12 -55.5 23.5t-55.5 11.5q-7 0 -12 -3t-5 -9t11 -10.5
t33 -10.5q46 -13 80.5 -29t61.5 -49.5t27 -85.5q0 -46 -24 -82t-69 -56.5t-105 -20.5q-56 0 -114.5 19zM156 556l56 212h211l-119 -212h-148z" />
    <glyph glyph-name="Scedilla" unicode="&#x15e;" horiz-adv-x="580" 
d="M311.5 453.5q15.5 -9.5 48.5 -22.5q57 -25 95.5 -48.5t69 -67t30.5 -107.5q0 -85 -53.5 -144.5t-148.5 -72.5l-1 -12q30 -8 50.5 -31.5t20.5 -57.5q0 -47 -34.5 -75t-87.5 -28q-26 0 -56.5 6.5t-49.5 15.5v125q41 -22 83 -22q13 0 21 5t8 11q0 16 -29 16q-18 0 -39 -6
l-4 2l15 50q-63 7 -122.5 30t-102.5 55l103 189q35 -24 79.5 -41.5t71.5 -17.5q15 0 23 6t8 16q0 12 -14.5 20.5t-52.5 24.5q-56 23 -95 46t-68.5 66t-29.5 108q0 62 31.5 112.5t89.5 79.5t136 29q68 0 131.5 -22.5t114.5 -56.5l-102 -188q-28 17 -66 31.5t-63 14.5
q-26 0 -26 -19q0 -10 15.5 -19.5z" />
    <glyph glyph-name="scedilla" unicode="&#x15f;" horiz-adv-x="461" 
d="M235 324.5q11 -4.5 33 -10.5q46 -13 80.5 -29t61.5 -49.5t27 -85.5q0 -61 -41 -103t-112 -53l-1 -15q30 -8 50.5 -31.5t20.5 -57.5q0 -47 -34.5 -75t-87.5 -28q-26 0 -56.5 6.5t-49.5 15.5v125q41 -22 83 -22q14 0 21.5 5t7.5 11q0 16 -29 16q-18 0 -39 -6l-4 2l17 56
q-44 8 -86 24.5t-73 40.5l67 139q29 -20 72.5 -36t67.5 -16q17 0 17 12q0 6 -10.5 11t-33.5 12q-45 14 -78.5 30.5t-59.5 50t-26 85.5q0 47 24.5 84t69.5 58t104 21q52 0 102.5 -17t84.5 -42l-73 -141q-22 12 -55.5 23.5t-55.5 11.5q-7 0 -12 -3t-5 -9t11 -10.5z" />
    <glyph glyph-name="Scaron" unicode="&#x160;" horiz-adv-x="580" 
d="M151.5 11.5q-74.5 24.5 -126.5 63.5l103 189q35 -24 79.5 -41.5t71.5 -17.5q15 0 23 6t8 16q0 12 -14.5 20.5t-52.5 24.5q-56 23 -95 46t-68.5 66t-29.5 108q0 62 31.5 112.5t89.5 79.5t136 29q68 0 131.5 -22.5t114.5 -56.5l-102 -188q-28 17 -66 31.5t-63 14.5
q-26 0 -26 -19q0 -10 15.5 -19.5t48.5 -22.5q57 -25 95.5 -48.5t69 -67t30.5 -107.5q0 -63 -30 -113t-88 -79t-138 -29q-73 0 -147.5 24.5zM510 967l-109 -213h-213l-108 213h183l32 -106l32 106h183z" />
    <glyph glyph-name="scaron" unicode="&#x161;" horiz-adv-x="461" 
d="M124.5 10q-58.5 19 -100.5 51l67 139q29 -20 72.5 -36t67.5 -16q17 0 17 12q0 6 -10.5 11t-33.5 12q-45 14 -78.5 30.5t-59.5 50t-26 85.5q0 47 24.5 84t69.5 58t104 21q52 0 102.5 -17t84.5 -42l-73 -141q-22 12 -55.5 23.5t-55.5 11.5q-7 0 -12 -3t-5 -9t11 -10.5
t33 -10.5q46 -13 80.5 -29t61.5 -49.5t27 -85.5q0 -46 -24 -82t-69 -56.5t-105 -20.5q-56 0 -114.5 19zM448 767l-109 -213h-213l-108 213h183l32 -106l32 106h183z" />
    <glyph glyph-name="uni0162" unicode="&#x162;" horiz-adv-x="529" 
d="M522 489h-146v-489h-221v489h-148v211h515v-211zM365.5 -52.5q20.5 -23.5 20.5 -57.5q0 -47 -34.5 -75t-87.5 -28q-26 0 -56.5 6.5t-49.5 15.5v125q41 -22 83 -22q13 0 21 5t8 11q0 16 -29 16q-18 0 -39 -6l-4 2l20 66h99l-2 -27q30 -8 50.5 -31.5z" />
    <glyph glyph-name="uni0163" unicode="&#x163;" horiz-adv-x="394" 
d="M237 0l-1 -21q30 -8 50.5 -31.5t20.5 -57.5q0 -47 -34.5 -75t-87.5 -28q-26 0 -56.5 6.5t-49.5 15.5v125q41 -22 83 -22q14 0 21.5 5t7.5 11q0 16 -29 16q-18 0 -39 -6l-4 2l18 60h-57v307h-62v193h62v134h212v-134h92v-193h-92v-307h-55z" />
    <glyph glyph-name="Tcaron" unicode="&#x164;" horiz-adv-x="529" 
d="M522 489h-146v-489h-221v489h-148v211h515v-211zM480 967l-109 -213h-213l-108 213h183l32 -106l32 106h183z" />
    <glyph glyph-name="tcaron" unicode="&#x165;" horiz-adv-x="394" 
d="M384 307h-92v-307h-212v307h-62v193h62v134h212v-134h92v-193zM325 529l24 239l151 -23l-62 -232z" />
    <glyph glyph-name="Tbar" unicode="&#x166;" horiz-adv-x="529" 
d="M376 489v-113h110v-175h-110v-201h-221v201h-112v175h112v113h-148v211h515v-211h-146z" />
    <glyph glyph-name="tbar" unicode="&#x167;" horiz-adv-x="394" 
d="M385 95h-93v-95h-212v95h-62v175h62v37h-62v193h62v134h212v-134h92v-193h-92v-37h93v-175z" />
    <glyph glyph-name="Umacron" unicode="&#x16a;" horiz-adv-x="640" 
d="M173.5 18q-63.5 31 -98.5 90t-35 139v453h221v-429q0 -30 17 -46.5t42 -16.5q26 0 43 16.5t17 46.5v429h220v-453q0 -80 -34.5 -139t-98 -90t-147.5 -31q-83 0 -146.5 31zM156 939h327v-136h-327v136z" />
    <glyph glyph-name="umacron" unicode="&#x16b;" horiz-adv-x="581" 
d="M536 500v-500h-212v63q-63 -72 -146 -72q-70 0 -104 46t-34 128v335h212v-261q0 -19 10.5 -31.5t25.5 -12.5t25.5 12.5t10.5 31.5v261h212zM120 739h327v-136h-327v136z" />
    <glyph glyph-name="Uring" unicode="&#x16e;" horiz-adv-x="640" 
d="M173.5 18q-63.5 31 -98.5 90t-35 139v453h221v-429q0 -30 17 -46.5t42 -16.5q26 0 43 16.5t17 46.5v429h220v-453q0 -80 -34.5 -139t-98 -90t-147.5 -31q-83 0 -146.5 31zM249 751.5q-33 19.5 -52.5 52.5t-19.5 71q0 39 19.5 72t52.5 52t71 19q39 0 72 -19t52 -52t19 -72
q0 -38 -19 -71t-52 -52.5t-72 -19.5q-38 0 -71 19.5zM335 861q6 6 6 14q0 9 -6 15t-15 6t-15 -6t-6 -15q0 -8 6 -14t15 -6t15 6z" />
    <glyph glyph-name="uring" unicode="&#x16f;" horiz-adv-x="581" 
d="M536 500v-500h-212v63q-63 -72 -146 -72q-70 0 -104 46t-34 128v335h212v-261q0 -19 10.5 -31.5t25.5 -12.5t25.5 12.5t10.5 31.5v261h212zM213 551.5q-33 19.5 -52.5 52.5t-19.5 71q0 39 19.5 72t52.5 52t71 19q39 0 72 -19t52 -52t19 -72q0 -38 -19 -71t-52 -52.5
t-72 -19.5q-38 0 -71 19.5zM299 661q6 6 6 14q0 9 -6 15t-15 6t-15 -6t-6 -15q0 -8 6 -14t15 -6t15 6z" />
    <glyph glyph-name="Uhungarumlaut" unicode="&#x170;" horiz-adv-x="640" 
d="M173.5 18q-63.5 31 -98.5 90t-35 139v453h221v-429q0 -30 17 -46.5t42 -16.5q26 0 43 16.5t17 46.5v429h220v-453q0 -80 -34.5 -139t-98 -90t-147.5 -31q-83 0 -146.5 31zM120 756l56 212h211l-119 -212h-148zM400 968h211l-119 -212h-148z" />
    <glyph glyph-name="uhungarumlaut" unicode="&#x171;" horiz-adv-x="581" 
d="M536 500v-500h-212v63q-63 -72 -146 -72q-70 0 -104 46t-34 128v335h212v-261q0 -19 10.5 -31.5t25.5 -12.5t25.5 12.5t10.5 31.5v261h212zM84 556l56 212h211l-119 -212h-148zM364 768h211l-119 -212h-148z" />
    <glyph glyph-name="Uogonek" unicode="&#x172;" horiz-adv-x="615" 
d="M600 700v-453q0 -76 -31 -132.5t-88 -89.5q-19 -11 -29.5 -27.5t-10.5 -29.5q0 -11 6.5 -17.5t15.5 -6.5q11 0 25 7v-138q-16 -10 -51.5 -18t-69.5 -8q-61 0 -100.5 27.5t-39.5 80.5q0 24 10.5 48.5t30.5 46.5q-105 14 -166.5 81.5t-61.5 175.5v453h221v-429
q0 -30 17 -46.5t42 -16.5q26 0 43 16.5t17 46.5v429h220z" />
    <glyph glyph-name="uogonek" unicode="&#x173;" horiz-adv-x="581" 
d="M545 -51v-136q-18 -10 -49 -18t-66 -8q-58 0 -97 27t-39 80q0 30 11.5 58t29.5 48h-11v63q-63 -72 -146 -72q-70 0 -104 46t-34 128v335h212v-261q0 -19 10.5 -31.5t25.5 -12.5t25.5 12.5t10.5 31.5v261h212v-500h-3q-24 -24 -24 -43q0 -7 3.5 -11t9.5 -4q9 0 23 7z" />
    <glyph glyph-name="Wcircumflex" unicode="&#x174;" horiz-adv-x="1102" 
d="M1101 700l-272 -701h-229l-50 152l-51 -152h-228l-270 701l235 1l177 -468l30 87l-135 380l192 1l50 -175l49 175l195 -1l-136 -381l30 -86l177 468zM583 752l-32 107l-32 -107h-183l108 213h213l109 -213h-183z" />
    <glyph glyph-name="wcircumflex" unicode="&#x175;" horiz-adv-x="908" 
d="M906 500l-177 -500h-240l-36 135l-34 -135h-240l-177 500h221l100 -316l19 76l-71 240h151l32 -127l32 127h151l-71 -240l19 -76l100 316h221zM486 552l-32 107l-32 -107h-183l108 213h213l109 -213h-183z" />
    <glyph glyph-name="Ycircumflex" unicode="&#x176;" horiz-adv-x="652" 
d="M441 203v-203h-230v203l-209 497l244 1l80 -268l80 268l244 -1zM357 752l-32 107l-32 -107h-183l108 213h213l109 -213h-183z" />
    <glyph glyph-name="ycircumflex" unicode="&#x177;" horiz-adv-x="559" 
d="M554 500l-235 -700h-212l69 196l-172 504h217l58 -263l58 263h217zM311 552l-32 107l-32 -107h-183l108 213h213l109 -213h-183z" />
    <glyph glyph-name="Ydieresis" unicode="&#x178;" horiz-adv-x="652" 
d="M441 203v-203h-230v203l-209 497l244 1l80 -268l80 268l244 -1zM519.5 953q35.5 -35 35.5 -87q0 -50 -35.5 -86t-86.5 -36q-33 0 -62 17t-45 46q-16 -29 -44 -46t-63 -17q-50 0 -86 36t-36 86q0 51 35.5 86.5t86.5 35.5q35 0 63 -16.5t44 -45.5q16 29 44.5 45.5
t62.5 16.5q51 0 86.5 -35z" />
    <glyph glyph-name="Zacute" unicode="&#x179;" horiz-adv-x="557" 
d="M537 690l-203 -479h191v-211h-505v10l210 479h-207v211h514v-10zM194 756l56 212h211l-119 -212h-148z" />
    <glyph glyph-name="zacute" unicode="&#x17a;" horiz-adv-x="473" 
d="M459 488l-149 -295h133v-193h-429v14l150 293h-142v193h437v-12zM162 556l56 212h211l-119 -212h-148z" />
    <glyph glyph-name="Zdotaccent" unicode="&#x17b;" horiz-adv-x="557" 
d="M537 690l-203 -479h191v-211h-505v10l210 479h-207v211h514v-10zM185 780q-36 36 -36 86q0 51 35.5 86.5t86.5 35.5q52 0 87 -35t35 -87q0 -51 -35.5 -86.5t-86.5 -35.5q-50 0 -86 36z" />
    <glyph glyph-name="zdotaccent" unicode="&#x17c;" horiz-adv-x="473" 
d="M459 488l-149 -295h133v-193h-429v14l150 293h-142v193h437v-12zM153 580q-36 36 -36 86q0 51 35.5 86.5t86.5 35.5q52 0 87 -35t35 -87q0 -51 -35.5 -86.5t-86.5 -35.5q-50 0 -86 36z" />
    <glyph glyph-name="Zcaron" unicode="&#x17d;" horiz-adv-x="557" 
d="M537 690l-203 -479h191v-211h-505v10l210 479h-207v211h514v-10zM486 967l-109 -213h-213l-108 213h183l32 -106l32 106h183z" />
    <glyph glyph-name="zcaron" unicode="&#x17e;" horiz-adv-x="473" 
d="M459 488l-149 -295h133v-193h-429v14l150 293h-142v193h437v-12zM454 767l-109 -213h-213l-108 213h183l32 -106l32 106h183z" />
    <glyph glyph-name="florin" unicode="&#x192;" horiz-adv-x="464" 
d="M404 491q-48 0 -54 -58l-3 -28h63v-71h-72l-23 -184q-9 -81 -61.5 -122t-126.5 -41q-57 0 -118 25v205q29 -10 50 -10q26 0 39 15t16 43l8 69h-68v71h77q1 6 10 77l8 66q10 81 61.5 122t125.5 41q57 0 118 -25v-205q-29 10 -50 10z" />
    <glyph glyph-name="Scommaaccent" unicode="&#x218;" horiz-adv-x="580" 
d="M151.5 11.5q-74.5 24.5 -126.5 63.5l103 189q35 -24 79.5 -41.5t71.5 -17.5q15 0 23 6t8 16q0 12 -14.5 20.5t-52.5 24.5q-56 23 -95 46t-68.5 66t-29.5 108q0 62 31.5 112.5t89.5 79.5t136 29q68 0 131.5 -22.5t114.5 -56.5l-102 -188q-28 17 -66 31.5t-63 14.5
q-26 0 -26 -19q0 -10 15.5 -19.5t48.5 -22.5q57 -25 95.5 -48.5t69 -67t30.5 -107.5q0 -63 -30 -113t-88 -79t-138 -29q-73 0 -147.5 24.5zM234 -52h182l-91 -170h-137z" />
    <glyph glyph-name="scommaaccent" unicode="&#x219;" horiz-adv-x="461" 
d="M124.5 10q-58.5 19 -100.5 51l67 139q29 -20 72.5 -36t67.5 -16q17 0 17 12q0 6 -10.5 11t-33.5 12q-45 14 -78.5 30.5t-59.5 50t-26 85.5q0 47 24.5 84t69.5 58t104 21q52 0 102.5 -17t84.5 -42l-73 -141q-22 12 -55.5 23.5t-55.5 11.5q-7 0 -12 -3t-5 -9t11 -10.5
t33 -10.5q46 -13 80.5 -29t61.5 -49.5t27 -85.5q0 -46 -24 -82t-69 -56.5t-105 -20.5q-56 0 -114.5 19zM165 -52h182l-91 -170h-137z" />
    <glyph glyph-name="uni021A" unicode="&#x21a;" horiz-adv-x="529" 
d="M522 489h-146v-489h-221v489h-148v211h515v-211zM197 -52h182l-91 -170h-137z" />
    <glyph glyph-name="uni021B" unicode="&#x21b;" horiz-adv-x="394" 
d="M384 307h-92v-307h-212v307h-62v193h62v134h212v-134h92v-193zM118 -52h182l-91 -170h-137z" />
    <glyph glyph-name="uni0237" unicode="&#x237;" horiz-adv-x="212" 
d="M-2 500h211v-700h-211v700z" />
    <glyph glyph-name="circumflex" unicode="&#x2c6;" horiz-adv-x="453" 
d="M259 552l-32 107l-32 -107h-183l108 213h213l109 -213h-183z" />
    <glyph glyph-name="caron" unicode="&#x2c7;" horiz-adv-x="453" 
d="M442 767l-109 -213h-213l-108 213h183l32 -106l32 106h183z" />
    <glyph glyph-name="breve" unicode="&#x2d8;" horiz-adv-x="378" 
d="M97.5 590.5q-40.5 22.5 -63 62t-22.5 88.5h141q1 -15 11 -25t26 -10t26 10t11 25h140q0 -49 -22 -88.5t-62.5 -62t-92.5 -22.5t-92.5 22.5z" />
    <glyph glyph-name="dotaccent" unicode="&#x2d9;" horiz-adv-x="267" 
d="M48 580q-36 36 -36 86q0 51 35.5 86.5t86.5 35.5q52 0 87 -35t35 -87q0 -51 -35.5 -86.5t-86.5 -35.5q-50 0 -86 36z" />
    <glyph glyph-name="ring" unicode="&#x2da;" horiz-adv-x="309" 
d="M84 551.5q-33 19.5 -52.5 52.5t-19.5 71q0 39 19.5 72t52.5 52t71 19q39 0 72 -19t52 -52t19 -72q0 -38 -19 -71t-52 -52.5t-72 -19.5q-38 0 -71 19.5zM170 661q6 6 6 14q0 9 -6 15t-15 6t-15 -6t-6 -15q0 -8 6 -14t15 -6t15 6z" />
    <glyph glyph-name="ogonek" unicode="&#x2db;" horiz-adv-x="274" 
d="M51 -186q-39 27 -39 80q0 30 11.5 58t29.5 48h198q-24 -24 -24 -43q0 -7 3.5 -11t9.5 -4q9 0 23 7v-136q-18 -10 -49 -18t-66 -8q-58 0 -97 27z" />
    <glyph glyph-name="tilde" unicode="&#x2dc;" horiz-adv-x="361" 
d="M12 749q18 12 44 20t56 8q20 0 33.5 -3t36.5 -10q35 -13 68 -13q29 0 51 6.5t48 19.5v-173q-17 -13 -43 -21t-57 -8q-20 0 -35 3.5t-34 9.5q-38 12 -68 12t-52.5 -6t-47.5 -19v174z" />
    <glyph glyph-name="hungarumlaut" unicode="&#x2dd;" horiz-adv-x="514" 
d="M12 556l56 212h211l-119 -212h-148zM292 768h211l-119 -212h-148z" />
    <glyph glyph-name="gravecomb" unicode="&#x300;" horiz-adv-x="0" 
d="M-267 768h211l56 -212h-148z" />
    <glyph glyph-name="acutecomb" unicode="&#x301;" horiz-adv-x="0" 
d="M-267 556l56 212h211l-119 -212h-148z" />
    <glyph glyph-name="uni0302" unicode="&#x302;" horiz-adv-x="0" 
d="M-183 552l-32 107l-32 -107h-183l108 213h213l109 -213h-183z" />
    <glyph glyph-name="tildecomb" unicode="&#x303;" horiz-adv-x="0" 
d="M-337 749q18 12 44 20t56 8q20 0 33.5 -3t36.5 -10q35 -13 68 -13q29 0 51 6.5t48 19.5v-173q-17 -13 -43 -21t-57 -8q-20 0 -35 3.5t-34 9.5q-38 12 -68 12t-52.5 -6t-47.5 -19v174z" />
    <glyph glyph-name="uni0304" unicode="&#x304;" horiz-adv-x="0" 
d="M-327 739h327v-136h-327v136z" />
    <glyph glyph-name="uni0306" unicode="&#x306;" horiz-adv-x="0" 
d="M-269.5 590.5q-40.5 22.5 -63 62t-22.5 88.5h141q1 -15 11 -25t26 -10t26 10t11 25h140q0 -49 -22 -88.5t-62.5 -62t-92.5 -22.5t-92.5 22.5z" />
    <glyph glyph-name="uni0307" unicode="&#x307;" horiz-adv-x="0" 
d="M-208 580q-36 36 -36 86q0 51 35.5 86.5t86.5 35.5q52 0 87 -35t35 -87q0 -51 -35.5 -86.5t-86.5 -35.5q-50 0 -86 36z" />
    <glyph glyph-name="uni0308" unicode="&#x308;" horiz-adv-x="0" 
d="M-35.5 753q35.5 -35 35.5 -87q0 -50 -35.5 -86t-86.5 -36q-33 0 -62 17t-45 46q-16 -29 -44 -46t-63 -17q-50 0 -86 36t-36 86q0 51 35.5 86.5t86.5 35.5q35 0 63 -16.5t44 -45.5q16 29 44.5 45.5t62.5 16.5q51 0 86.5 -35z" />
    <glyph glyph-name="uni030A" unicode="&#x30a;" horiz-adv-x="0" 
d="M-214 551.5q-33 19.5 -52.5 52.5t-19.5 71q0 39 19.5 72t52.5 52t71 19q39 0 72 -19t52 -52t19 -72q0 -38 -19 -71t-52 -52.5t-72 -19.5q-38 0 -71 19.5zM-128 661q6 6 6 14q0 9 -6 15t-15 6t-15 -6t-6 -15q0 -8 6 -14t15 -6t15 6z" />
    <glyph glyph-name="uni030B" unicode="&#x30b;" horiz-adv-x="0" 
d="M-491 556l56 212h211l-119 -212h-148zM-211 768h211l-119 -212h-148z" />
    <glyph glyph-name="uni030C" unicode="&#x30c;" horiz-adv-x="0" 
d="M0 767l-109 -213h-213l-108 213h183l32 -106l32 106h183z" />
    <glyph glyph-name="uni0312" unicode="&#x312;" horiz-adv-x="0" 
d="M-137 756h137l-39 -173h-182z" />
    <glyph glyph-name="uni0326" unicode="&#x326;" horiz-adv-x="0" 
d="M-182 -52h182l-91 -170h-137z" />
    <glyph glyph-name="uni0327" unicode="&#x327;" horiz-adv-x="0" 
d="M-20.5 -52.5q20.5 -23.5 20.5 -57.5q0 -47 -34.5 -75t-87.5 -28q-26 0 -56.5 6.5t-49.5 15.5v125q41 -22 83 -22q13 0 21 5t8 11q0 16 -29 16q-18 0 -39 -6l-4 2l20 66h99l-2 -27q30 -8 50.5 -31.5z" />
    <glyph glyph-name="uni0328" unicode="&#x328;" horiz-adv-x="0" 
d="M-212 -186q-39 27 -39 80q0 30 11.5 58t29.5 48h198q-24 -24 -24 -43q0 -7 3.5 -11t9.5 -4q9 0 23 7v-136q-18 -10 -49 -18t-66 -8q-58 0 -97 27z" />
    <glyph glyph-name="uni0335" unicode="&#x335;" horiz-adv-x="0" 
d="M-367 342h367v-175h-367v175z" />
    <glyph glyph-name="uni0336" unicode="&#x336;" horiz-adv-x="0" 
d="M-674 323h674v-137h-674v137z" />
    <glyph glyph-name="uni0337" unicode="&#x337;" horiz-adv-x="0" 
d="M-402 448l402 102v-205l-402 -101v204z" />
    <glyph glyph-name="uni0338" unicode="&#x338;" horiz-adv-x="0" 
d="M-174 700h174l-520 -700h-172z" />
    <glyph glyph-name="uni0394" unicode="&#x394;" horiz-adv-x="686" 
d="M684 10v-10h-682v10l235 690h212zM397 220l-54 182l-54 -182h108z" />
    <glyph glyph-name="uni03A9" unicode="&#x3a9;" horiz-adv-x="732" 
d="M684.5 323q-22.5 -54 -61.5 -103h67v-220h-298l1 207q46 40 69 76.5t23 83.5q0 48 -33.5 81t-85.5 33t-85.5 -33t-33.5 -81q0 -47 23 -83.5t69 -76.5l1 -207h-298v220h67q-39 49 -61.5 103t-22.5 109q0 84 42.5 147t120 98t178.5 35t178.5 -35t120 -98t42.5 -147
q0 -55 -22.5 -109z" />
    <glyph glyph-name="uni03BC" unicode="&#x3bc;" horiz-adv-x="582" 
d="M537 500v-500h-212v63q-33 -37 -73 -56v-207h-211v700h212v-261q0 -19 10.5 -31.5t25.5 -12.5t25.5 12.5t10.5 31.5v261h212z" />
    <glyph glyph-name="pi" unicode="&#x3c0;" horiz-adv-x="676" 
d="M569 412v-157q0 -34 28 -34q13 0 24 3t23 8v-220q-63 -21 -112 -21q-94 0 -129.5 47.5t-35.5 128.5v245h-71v-412h-203v412h-75v221h626v-221h-75z" />
    <glyph glyph-name="Wgrave" unicode="&#x1e80;" horiz-adv-x="1102" 
d="M1101 700l-272 -701h-229l-50 152l-51 -152h-228l-270 701l235 1l177 -468l30 87l-135 380l192 1l50 -175l49 175l195 -1l-136 -381l30 -86l177 468zM359 968h211l56 -212h-148z" />
    <glyph glyph-name="wgrave" unicode="&#x1e81;" horiz-adv-x="908" 
d="M906 500l-177 -500h-240l-36 135l-34 -135h-240l-177 500h221l100 -316l19 76l-71 240h151l32 -127l32 127h151l-71 -240l19 -76l100 316h221zM262 768h211l56 -212h-148z" />
    <glyph glyph-name="Wacute" unicode="&#x1e82;" horiz-adv-x="1102" 
d="M1101 700l-272 -701h-229l-50 152l-51 -152h-228l-270 701l235 1l177 -468l30 87l-135 380l192 1l50 -175l49 175l195 -1l-136 -381l30 -86l177 468zM474 756l56 212h211l-119 -212h-148z" />
    <glyph glyph-name="wacute" unicode="&#x1e83;" horiz-adv-x="908" 
d="M906 500l-177 -500h-240l-36 135l-34 -135h-240l-177 500h221l100 -316l19 76l-71 240h151l32 -127l32 127h151l-71 -240l19 -76l100 316h221zM377 556l56 212h211l-119 -212h-148z" />
    <glyph glyph-name="Wdieresis" unicode="&#x1e84;" horiz-adv-x="1102" 
d="M1101 700l-272 -701h-229l-50 152l-51 -152h-228l-270 701l235 1l177 -468l30 87l-135 380l192 1l50 -175l49 175l195 -1l-136 -381l30 -86l177 468zM745.5 953q35.5 -35 35.5 -87q0 -50 -35.5 -86t-86.5 -36q-33 0 -62 17t-45 46q-16 -29 -44 -46t-63 -17q-50 0 -86 36
t-36 86q0 51 35.5 86.5t86.5 35.5q35 0 63 -16.5t44 -45.5q16 29 44.5 45.5t62.5 16.5q51 0 86.5 -35z" />
    <glyph glyph-name="wdieresis" unicode="&#x1e85;" horiz-adv-x="908" 
d="M906 500l-177 -500h-240l-36 135l-34 -135h-240l-177 500h221l100 -316l19 76l-71 240h151l32 -127l32 127h151l-71 -240l19 -76l100 316h221zM648.5 753q35.5 -35 35.5 -87q0 -50 -35.5 -86t-86.5 -36q-33 0 -62 17t-45 46q-16 -29 -44 -46t-63 -17q-50 0 -86 36t-36 86
q0 51 35.5 86.5t86.5 35.5q35 0 63 -16.5t44 -45.5q16 29 44.5 45.5t62.5 16.5q51 0 86.5 -35z" />
    <glyph glyph-name="Ygrave" unicode="&#x1ef2;" horiz-adv-x="652" 
d="M441 203v-203h-230v203l-209 497l244 1l80 -268l80 268l244 -1zM133 968h211l56 -212h-148z" />
    <glyph glyph-name="ygrave" unicode="&#x1ef3;" horiz-adv-x="559" 
d="M554 500l-235 -700h-212l69 196l-172 504h217l58 -263l58 263h217zM87 768h211l56 -212h-148z" />
    <glyph glyph-name="endash" unicode="&#x2013;" horiz-adv-x="478" 
d="M25 397h428v-174h-428v174z" />
    <glyph glyph-name="emdash" unicode="&#x2014;" horiz-adv-x="750" 
d="M25 397h700v-174h-700v174z" />
    <glyph glyph-name="quoteleft" unicode="&#x2018;" horiz-adv-x="245" 
d="M85 700h148l-26 -279h-198z" />
    <glyph glyph-name="quoteright" unicode="&#x2019;" horiz-adv-x="245" 
d="M160 421h-148l26 279h198z" />
    <glyph glyph-name="quotesinglbase" unicode="&#x201a;" horiz-adv-x="245" 
d="M44 225h187l-91 -323h-125z" />
    <glyph glyph-name="quotedblleft" unicode="&#x201c;" horiz-adv-x="440" 
d="M428 700l-26 -279h-393l76 279h148l-24 -262l71 262h148z" />
    <glyph glyph-name="quotedblright" unicode="&#x201d;" horiz-adv-x="440" 
d="M355 421h-148l24 262l-71 -262h-148l26 279h393z" />
    <glyph glyph-name="quotedblbase" unicode="&#x201e;" horiz-adv-x="245" 
d="M231 225l-91 -323h-125l29 323h187z" />
    <glyph glyph-name="dagger" unicode="&#x2020;" horiz-adv-x="317" 
d="M305 522h-86v-190h-120v190h-87v122h87v125h120v-125h86v-122z" />
    <glyph glyph-name="daggerdbl" unicode="&#x2021;" horiz-adv-x="317" 
d="M219 576v-54h86v-122h-86v-68h-120v68h-87v122h87v54h-87v122h87v71h120v-71h86v-122h-86z" />
    <glyph glyph-name="bullet" unicode="&#x2022;" horiz-adv-x="403" 
d="M124 184.5q-37 21.5 -58 58t-21 79.5t21.5 80t58 58.5t80.5 21.5q43 0 79 -22t57.5 -58.5t21.5 -79.5t-21.5 -79.5t-57.5 -58t-79 -21.5q-44 0 -81 21.5z" />
    <glyph glyph-name="ellipsis" unicode="&#x2026;" horiz-adv-x="863" 
d="M351.5 20.5q-32.5 32.5 -32.5 79.5q0 46 32.5 79t79.5 33q46 0 78.5 -33t32.5 -79t-32.5 -79t-78.5 -33q-47 0 -79.5 32.5zM657.5 20.5q-32.5 32.5 -32.5 79.5q0 46 32.5 79t79.5 33q46 0 78.5 -33t32.5 -79t-32.5 -79t-78.5 -33q-47 0 -79.5 32.5zM47.5 20.5
q-32.5 32.5 -32.5 79.5q0 46 32.5 79t79.5 33q46 0 78.5 -33t32.5 -79t-32.5 -79t-78.5 -33q-47 0 -79.5 32.5z" />
    <glyph glyph-name="perthousand" unicode="&#x2030;" horiz-adv-x="992" 
d="M46.5 417q-32.5 46 -32.5 121q0 77 32 123t99 46q66 0 98 -46t32 -123q0 -75 -32 -121t-98 -46t-98.5 46zM164 538q0 61 -19 61t-19 -61q0 -67 19 -67t19 67zM508 700h97l-409 -700h-96zM462.5 39q-32.5 46 -32.5 121q0 77 32 123t99 46q66 0 98 -46t32 -123
q0 -75 -32 -121t-98 -46t-98.5 46zM580 160q0 61 -19 61t-19 -61q0 -67 19 -67t19 67zM750.5 39q-32.5 46 -32.5 121q0 77 32 123t99 46q66 0 98 -46t32 -123q0 -75 -32 -121t-98 -46t-98.5 46zM868 160q0 61 -19 61t-19 -61q0 -67 19 -67t19 67z" />
    <glyph glyph-name="guilsinglleft" unicode="&#x2039;" horiz-adv-x="345" 
d="M202 290l139 -210h-184l-132 208v4l132 208h184z" />
    <glyph glyph-name="guilsinglright" unicode="&#x203a;" horiz-adv-x="345" 
d="M320 292v-4l-132 -208h-184l139 210l-139 210h184z" />
    <glyph glyph-name="fraction" unicode="&#x2044;" horiz-adv-x="128" 
d="M220 700h97l-409 -700h-96z" />
    <glyph glyph-name="Euro" unicode="&#x20ac;" horiz-adv-x="558" 
d="M373.5 230q26.5 -12 56.5 -12q34 0 56 8t47 24l-1 -237q-24 -10 -58 -16.5t-66 -6.5q-81 0 -149.5 33t-115.5 95t-63 146h-62v69h54v16v16h-54v70h62q17 84 63.5 146t115.5 95t149 33q32 0 66 -6.5t58 -16.5l1 -237q-25 16 -47 23.5t-56 7.5q-30 0 -56 -11.5t-44 -33.5
h126v-70h-153q-1 -5 -1 -16t1 -16h153v-69h-126q17 -22 43.5 -34z" />
    <glyph glyph-name="trademark" unicode="&#x2122;" horiz-adv-x="564" 
d="M167 615v-145h-89v145h-66v85h222v-85h-67zM553 470h-91l-16 93l-54 -95h-5l-52 95l-16 -93h-91l41 230h67l54 -89l54 89h68z" />
    <glyph glyph-name="oneeighth" unicode="&#x215b;" horiz-adv-x="636" 
d="M193 700v-322h-111v191l-29 -13l-39 96l96 48h83zM452 700h97l-409 -700h-96zM623 94q0 -47 -36.5 -73.5t-88.5 -26.5t-88 26.5t-36 73.5q0 26 11.5 45t32.5 31q-26 26 -26 64q0 40 31 67.5t75 27.5t75.5 -27.5t31.5 -67.5q0 -38 -26 -64q44 -27 44 -76zM486 220.5
q-5 -4.5 -5 -11.5t5 -12t12 -5t12.5 5t5.5 12t-5 11.5t-13 4.5q-7 0 -12 -4.5zM513 101.5q6 5.5 6 13.5q0 9 -6 14.5t-15 5.5t-15 -5.5t-6 -14.5q0 -8 6.5 -13.5t14.5 -5.5q9 0 15 5.5z" />
    <glyph glyph-name="threeeighths" unicode="&#x215c;" horiz-adv-x="680" 
d="M246 536q17 -25 17 -56q0 -47 -35 -78t-90 -31q-44 0 -77.5 23.5t-49.5 65.5l88 46q14 -27 37 -27q9 0 14.5 5.5t5.5 13.5t-5.5 13t-13.5 5q-9 0 -13 -2l-46 41l42 39h-90v106h212v-92l-41 -33q28 -14 45 -39zM496 700h97l-409 -700h-96zM667 94q0 -47 -36.5 -73.5
t-88.5 -26.5t-88 26.5t-36 73.5q0 26 11.5 45t32.5 31q-26 26 -26 64q0 40 31 67.5t75 27.5t75.5 -27.5t31.5 -67.5q0 -38 -26 -64q44 -27 44 -76zM530 220.5q-5 -4.5 -5 -11.5t5 -12t12 -5t12.5 5t5.5 12t-5 11.5t-13 4.5q-7 0 -12 -4.5zM557 101.5q6 5.5 6 13.5
q0 9 -6 14.5t-15 5.5t-15 -5.5t-6 -14.5q0 -8 6.5 -13.5t14.5 -5.5q9 0 15 5.5z" />
    <glyph glyph-name="fiveeighths" unicode="&#x215d;" horiz-adv-x="678" 
d="M227.5 552.5q33.5 -29.5 33.5 -74.5q0 -44 -34.5 -75.5t-92.5 -31.5q-45 0 -77 23.5t-46 57.5l93 42q11 -19 29 -19q8 0 14.5 5.5t6.5 12.5q0 9 -6.5 14.5t-18.5 5.5q-16 0 -30 -9l-77 16l45 180h171v-104h-104l-4 -14h6q58 0 91.5 -29.5zM494 700h97l-409 -700h-96z
M665 94q0 -47 -36.5 -73.5t-88.5 -26.5t-88 26.5t-36 73.5q0 26 11.5 45t32.5 31q-26 26 -26 64q0 40 31 67.5t75 27.5t75.5 -27.5t31.5 -67.5q0 -38 -26 -64q44 -27 44 -76zM528 220.5q-5 -4.5 -5 -11.5t5 -12t12 -5t12.5 5t5.5 12t-5 11.5t-13 4.5q-7 0 -12 -4.5z
M555 101.5q6 5.5 6 13.5q0 9 -6 14.5t-15 5.5t-15 -5.5t-6 -14.5q0 -8 6.5 -13.5t14.5 -5.5q9 0 15 5.5z" />
    <glyph glyph-name="seveneighths" unicode="&#x215e;" horiz-adv-x="638" 
d="M230 646l-75 -268h-112l74 218h-109v104h222v-54zM454 700h97l-409 -700h-96zM625 94q0 -47 -36.5 -73.5t-88.5 -26.5t-88 26.5t-36 73.5q0 26 11.5 45t32.5 31q-26 26 -26 64q0 40 31 67.5t75 27.5t75.5 -27.5t31.5 -67.5q0 -38 -26 -64q44 -27 44 -76zM488 220.5
q-5 -4.5 -5 -11.5t5 -12t12 -5t12.5 5t5.5 12t-5 11.5t-13 4.5q-7 0 -12 -4.5zM515 101.5q6 5.5 6 13.5q0 9 -6 14.5t-15 5.5t-15 -5.5t-6 -14.5q0 -8 6.5 -13.5t14.5 -5.5q9 0 15 5.5z" />
    <glyph glyph-name="arrowleft" unicode="&#x2190;" horiz-adv-x="714" 
d="M689 231h-447v-130l-217 217l217 218v-131h447v-174z" />
    <glyph glyph-name="arrowup" unicode="&#x2191;" horiz-adv-x="486" 
d="M330 457v-447h-174v447h-131l218 217l217 -217h-130z" />
    <glyph glyph-name="arrowright" unicode="&#x2192;" horiz-adv-x="714" 
d="M472 101v130h-447v174h447v131l217 -218z" />
    <glyph glyph-name="arrowdown" unicode="&#x2193;" horiz-adv-x="486" 
d="M460 221l-217 -217l-218 217h131v447h174v-447h130z" />
    <glyph glyph-name="arrowboth" unicode="&#x2194;" horiz-adv-x="871" 
d="M629 110v121h-387v-130l-217 217l217 218v-131h387v140l217 -218z" />
    <glyph glyph-name="arrowupdn" unicode="&#x2195;" horiz-adv-x="495" 
d="M470 151l-218 -217l-217 217h121v387h-130l217 217l218 -217h-131v-387h140z" />
    <glyph glyph-name="uni2196" unicode="&#x2196;" horiz-adv-x="582" 
d="M433 97l-316 316l-92 -92v307l308 1l-93 -93l316 -316z" />
    <glyph glyph-name="uni2197" unicode="&#x2197;" horiz-adv-x="582" 
d="M557 321l-92 92l-316 -316l-123 123l316 316l-93 93l308 -1v-307z" />
    <glyph glyph-name="uni2198" unicode="&#x2198;" horiz-adv-x="582" 
d="M557 418v-307l-308 -1l93 93l-316 316l123 123l316 -316z" />
    <glyph glyph-name="uni2199" unicode="&#x2199;" horiz-adv-x="582" 
d="M240 203l93 -93l-308 1v307l92 -92l316 316l123 -123z" />
    <glyph glyph-name="partialdiff" unicode="&#x2202;" horiz-adv-x="591" 
d="M422.5 638.5q72.5 -76.5 107 -166t34.5 -181.5q0 -72 -30 -140.5t-91.5 -112.5t-150.5 -44q-77 0 -137.5 33t-94.5 91.5t-34 132.5q0 69 29 125t81.5 90.5t120.5 40.5q-58 48 -142 91l127 168q108 -51 180.5 -127.5zM262.5 216q13.5 -14 34.5 -14q20 0 33.5 14.5
t13.5 34.5q0 19 -13.5 33t-33.5 14q-21 0 -34.5 -14t-13.5 -33q0 -21 13.5 -35z" />
    <glyph glyph-name="emptyset" unicode="&#x2205;" horiz-adv-x="642" 
d="M542 470q33 -38 51 -87.5t18 -103.5q0 -78 -36.5 -144.5t-103 -106t-150.5 -39.5q-82 0 -151 40l-24 -29h-120l74 88q-33 38 -51 87.5t-18 103.5q0 78 37 144.5t103 106t150 39.5q82 0 151 -40l24 29h120zM228 240l117 138q-12 3 -24 3q-43 0 -72 -30.5t-29 -71.5
q0 -20 8 -39zM415 319l-118 -139q12 -3 24 -3q44 0 73 30t29 72q0 21 -8 40z" />
    <glyph glyph-name="product" unicode="&#x220f;" horiz-adv-x="706" 
d="M699 526h-89v-668h-221v668h-64v-668h-221v668h-96v174h691v-174z" />
    <glyph glyph-name="summation" unicode="&#x2211;" horiz-adv-x="476" 
d="M456 480h-180l107 -197v-8l-107 -197h180v-220h-436v193l137 228l-137 228v193h436v-220z" />
    <glyph glyph-name="minus" unicode="&#x2212;" horiz-adv-x="438" 
d="M25 368h388v-136h-388v136z" />
    <glyph glyph-name="radical" unicode="&#x221a;" horiz-adv-x="713" 
d="M706 480h-159l-149 -622h-278l-116 432h193l56 -241l145 651h308v-220z" />
    <glyph glyph-name="infinity" unicode="&#x221e;" horiz-adv-x="875" 
d="M125.5 92q-48.5 30 -74 78t-25.5 100t25.5 100t74 78.5t112.5 30.5q65 0 113 -27.5t87 -74.5q39 47 87 74.5t113 27.5q64 0 111.5 -30.5t73 -78.5t25.5 -100t-25 -100t-73 -78t-112 -30q-65 0 -113 28t-87 75q-39 -47 -87 -75t-113 -28q-64 0 -112.5 30zM330.5 238.5
q15.5 11.5 31.5 33.5q-17 22 -32 33.5t-32 11.5q-19 0 -33 -13.5t-14 -32.5q0 -17 14 -30.5t33 -13.5q17 0 32.5 11.5zM610.5 239.5q13.5 12.5 13.5 31.5t-14 32.5t-32 13.5q-17 0 -31.5 -11.5t-32.5 -33.5q17 -22 32 -33.5t32 -11.5q19 0 32.5 12.5z" />
    <glyph glyph-name="integral" unicode="&#x222b;" horiz-adv-x="475" 
d="M9 76q31 -11 50 -11q23 0 34.5 15t14.5 43l50 426q9 79 61.5 120.5t128.5 41.5q59 0 118 -25v-205q-31 11 -50 11q-23 0 -34.5 -15t-14.5 -43l-50 -427q-10 -80 -62.5 -121t-127.5 -41q-57 0 -118 25v206z" />
    <glyph glyph-name="approxequal" unicode="&#x2248;" horiz-adv-x="398" 
d="M25 439q18 12 45 20.5t58 8.5q20 0 34 -3t37 -10q37 -13 70 -13q31 0 54 6t49 20v-133q-40 -28 -103 -28q-21 0 -37 3.5t-35 9.5q-20 6 -35 9t-35 3q-30 0 -53 -6t-49 -19v132zM25 269q18 12 45 20.5t58 8.5q20 0 34 -3t37 -10q37 -13 70 -13q31 0 54 6t49 20v-133
q-40 -28 -103 -28q-21 0 -37 3.5t-35 9.5q-20 6 -35 9t-35 3q-30 0 -53 -6t-49 -19v132z" />
    <glyph glyph-name="notequal" unicode="&#x2260;" horiz-adv-x="438" 
d="M273 319l-17 -42h157v-136h-212l-32 -77h-93l32 77h-83v136h138l17 42h-155v136h211l33 80h93l-33 -80h84v-136h-140z" />
    <glyph glyph-name="lessequal" unicode="&#x2264;" horiz-adv-x="399" 
d="M374 433l-192 -35l192 -35v-155l-349 121v146l349 121v-163zM25 185h349v-127h-349v127z" />
    <glyph glyph-name="greaterequal" unicode="&#x2265;" horiz-adv-x="399" 
d="M374 475v-146l-349 -121v155l192 35l-192 35v163zM25 185h349v-127h-349v127z" />
    <glyph glyph-name="lozenge" unicode="&#x25ca;" horiz-adv-x="540" 
d="M523 350l-142 -350h-222l-142 350l142 350h222zM270 194l56 156l-56 156l-56 -156z" />
    <glyph glyph-name="i.loclTRK" horiz-adv-x="334" 
d="M81 580q-36 36 -36 86q0 51 35.5 86.5t86.5 35.5q52 0 87 -35t35 -87q0 -51 -35.5 -86.5t-86.5 -35.5q-50 0 -86 36zM62 500h212v-500h-212v500z" />
    <glyph glyph-name="zero.lf" horiz-adv-x="588" 
d="M93.5 86.5q-66.5 99.5 -66.5 262.5q0 162 67 262.5t201 100.5q135 0 200.5 -100t65.5 -263t-65.5 -262.5t-200.5 -99.5t-201.5 99.5zM334 349q0 133 -40 133q-19 0 -28.5 -31.5t-9.5 -101.5t9.5 -100.5t28.5 -30.5q40 0 40 131z" />
    <glyph glyph-name="one.lf" horiz-adv-x="402" 
d="M357 701v-701h-220v442l-57 -19l-62 199l176 79h163z" />
    <glyph glyph-name="two.lf" horiz-adv-x="576" 
d="M55 155l39 35q82 74 188 173q24 24 36 43t12 39q0 18 -12.5 31t-28.5 13q-27 0 -40.5 -23.5t-11.5 -53.5l-212 58q3 61 36.5 116.5t92.5 90.5t133 35q77 0 137 -31.5t93 -84.5t33 -113q0 -67 -31.5 -121t-91.5 -109q-42 -39 -45 -42h163v-211h-490v155z" />
    <glyph glyph-name="three.lf" horiz-adv-x="577" 
d="M517 333.5q34 -53.5 34 -113.5q0 -64 -33 -117t-92 -84.5t-132 -31.5q-104 0 -171.5 52t-96.5 132l181 101q11 -28 32.5 -46.5t47.5 -18.5q20 0 34.5 13t14.5 32t-14 31t-33 12q-23 0 -44 -14l-72 105l122 102h-222v212h436v-205l-88 -80q62 -28 96 -81.5z" />
    <glyph glyph-name="four.lf" horiz-adv-x="541" 
d="M526 91h-58v-91h-202v91h-264v174l206 435h260v-426h58v-183zM266 274v195l-75 -195h75z" />
    <glyph glyph-name="five.lf" horiz-adv-x="559" 
d="M419 417.5q56 -32.5 85 -85.5t29 -112q0 -64 -31 -117.5t-87.5 -84.5t-129.5 -31q-103 0 -167 51.5t-92 132.5l194 81q18 -44 55 -44q18 0 31 12.5t13 32.5q0 21 -15.5 34.5t-38.5 13.5q-39 0 -71 -27l-150 56l90 370h349v-210l-209 -1l-13 -41q16 2 24 2q78 0 134 -32.5
z" />
    <glyph glyph-name="six.lf" horiz-adv-x="573" 
d="M442.5 432q50.5 -35 77 -87.5t26.5 -111.5q0 -64 -31.5 -120t-90.5 -90.5t-138 -34.5q-76 0 -135 32.5t-92 90t-33 128.5q0 54 15.5 103t41.5 107q14 31 54 115q11 23 32 66.5t33 69.5h231l-109 -225q68 -8 118.5 -43zM317.5 221q12.5 13 12.5 31t-12.5 31t-31.5 13
t-31.5 -13t-12.5 -31t12.5 -31t31.5 -13t31.5 13z" />
    <glyph glyph-name="seven.lf" horiz-adv-x="466" 
d="M464 552l-150 -552h-230l152 490h-229v211l457 -1v-148z" />
    <glyph glyph-name="eight.lf" horiz-adv-x="579" 
d="M531.5 309q20.5 -41 20.5 -85q0 -68 -32 -122t-91.5 -84.5t-138.5 -30.5t-139 30.5t-92 84.5t-32 122q0 45 20 86t54 70q-44 55 -44 128q0 53 29.5 100t82.5 75.5t121 28.5t121 -28.5t82.5 -75.5t29.5 -100q0 -75 -46 -129q34 -29 54.5 -70zM264.5 471q-9.5 -10 -9.5 -25
q0 -14 9.5 -24t25.5 -10q15 0 25 10.5t10 23.5q0 15 -10 25t-25 10q-16 0 -25.5 -10zM322 220.5q12 12.5 12 30.5t-12 30.5t-32 12.5q-19 0 -32 -12.5t-13 -30.5t13 -30.5t32 -12.5q20 0 32 12.5z" />
    <glyph glyph-name="nine.lf" horiz-adv-x="549" 
d="M422 679.5q59 -32.5 92 -90t33 -128.5q0 -54 -15.5 -103t-41.5 -107q-14 -31 -54 -115q-11 -23 -32 -66.5t-33 -69.5h-231l109 225q-68 8 -118.5 43t-77 87.5t-26.5 111.5q0 64 31.5 120t90.5 90.5t138 34.5q76 0 135 -32.5zM255.5 479q-12.5 -13 -12.5 -31t12.5 -31
t31.5 -13t31.5 13t12.5 31t-12.5 31t-31.5 13t-31.5 -13z" />
    <glyph glyph-name="zero.osf" horiz-adv-x="538" 
d="M85 59q-59 74 -59 188q0 68 25 127.5t79.5 97.5t138.5 38t138.5 -38t79.5 -97.5t25 -127.5q0 -114 -59 -188t-184 -74t-184 74zM300 247q0 83 -31 83q-14 0 -22.5 -20.5t-8.5 -62.5t8.5 -62t22.5 -20q31 0 31 82z" />
    <glyph glyph-name="one.osf" horiz-adv-x="400" 
d="M354 501v-501h-211v282l-72 -24l-53 171l192 72h144z" />
    <glyph glyph-name="two.osf" horiz-adv-x="531" 
d="M63 159l37 20q23 13 57 31.5t86 47.5q26 15 39 25.5t13 23.5q0 10 -7 17t-20 7q-18 0 -30 -15.5t-12 -36.5l-181 37q2 48 27 93.5t74.5 75.5t121.5 30t122 -25.5t74.5 -64t24.5 -78.5q0 -110 -129 -160l-13 -5h143v-182h-427v159z" />
    <glyph glyph-name="three.osf" horiz-adv-x="515" 
d="M455.5 187q33.5 -49 33.5 -111q0 -58 -30 -106t-83 -75.5t-117 -27.5q-92 0 -155 52t-86 127l163 82q11 -28 28.5 -46t41.5 -18q19 0 32 11.5t13 27.5q0 17 -12.5 28t-29.5 11q-22 0 -39 -12l-60 98l-10 13l112 77h-197v182h390v-170l-86 -70q58 -24 91.5 -73z" />
    <glyph glyph-name="four.osf" horiz-adv-x="482" 
d="M472 0h-55v-128h-178v128h-235v154l154 346h259v-318h55v-182zM239 182v149l-54 -149h54z" />
    <glyph glyph-name="five.osf" horiz-adv-x="495" 
d="M358.5 257q50.5 -27 80.5 -74.5t30 -107.5t-30 -107.5t-80.5 -74t-110.5 -26.5q-87 0 -149.5 47t-80.5 122l174 58q3 -18 16 -30.5t31 -12.5t30.5 12t12.5 29q0 19 -13.5 31t-32.5 12q-14 0 -25.5 -4t-24.5 -12l-145 38l80 343h303v-182h-188l-10 -35q7 1 22 1
q60 0 110.5 -27z" />
    <glyph glyph-name="six.osf" horiz-adv-x="530" 
d="M408 392q46 -30 70.5 -76t24.5 -99q0 -59 -29 -112t-83.5 -85.5t-125.5 -32.5t-125.5 32.5t-84 85.5t-29.5 112v1q0 55 15.5 97.5t45.5 99.5l105 209h222l-114 -195q62 -7 108 -37zM295 187.5q12 12.5 12 30.5q0 17 -12 29.5t-30 12.5t-30.5 -12.5t-12.5 -29.5
q0 -18 12.5 -30.5t30.5 -12.5t30 12.5z" />
    <glyph glyph-name="seven.osf" horiz-adv-x="447" 
d="M443 348l-152 -476h-211l161 446h-223v182h425v-152z" />
    <glyph glyph-name="eight.osf" horiz-adv-x="519" 
d="M471.5 277q21.5 -40 21.5 -88q0 -56 -29.5 -102t-83 -73t-121.5 -27t-121 27t-82.5 73t-29.5 102q0 48 21.5 88t60.5 66q-23 24 -35.5 53t-12.5 61q0 48 25 89t70.5 65t103.5 24t104 -24t71 -65t25 -89q0 -66 -48 -114q39 -26 60.5 -66zM232 454q-11 -11 -11 -25
q0 -15 11 -25.5t27 -10.5q17 0 27.5 10.5t10.5 25.5t-10.5 25.5t-27.5 10.5q-16 0 -27 -11zM289 189q12 12 12 29t-12 29.5t-30 12.5q-17 0 -29 -12.5t-12 -29.5t12 -29t29 -12q18 0 30 12z" />
    <glyph glyph-name="nine.osf" horiz-adv-x="530" 
d="M504 277q0 -55 -15.5 -97.5t-45.5 -99.5l-105 -209h-222l114 195q-62 7 -108 37t-70.5 76t-24.5 99q0 59 29 112t83.5 85.5t125.5 32.5t125.5 -32.5t84 -85.5t29.5 -112v-1zM235 307.5q-12 -12.5 -12 -30.5q0 -17 12 -29.5t30 -12.5t30.5 12.5t12.5 29.5q0 18 -12.5 30.5
t-30.5 12.5t-30 -12.5z" />
    <glyph glyph-name="zero.tf" 
d="M99.5 86.5q-66.5 99.5 -66.5 262.5q0 162 67 262.5t201 100.5q135 0 200.5 -100t65.5 -263t-65.5 -262.5t-200.5 -99.5t-201.5 99.5zM340 349q0 133 -40 133q-19 0 -28.5 -31.5t-9.5 -101.5t9.5 -100.5t28.5 -30.5q40 0 40 131z" />
    <glyph glyph-name="one.tf" 
d="M517 211v-211h-418v211h101v231l-57 -19l-62 199l176 79h163v-490h97z" />
    <glyph glyph-name="two.tf" 
d="M65 155l39 35q82 74 188 173q24 24 36 43t12 39q0 18 -12.5 31t-28.5 13q-27 0 -40.5 -23.5t-11.5 -53.5l-212 58q3 61 36.5 116.5t92.5 90.5t133 35q77 0 137 -31.5t93 -84.5t33 -113q0 -67 -31.5 -121t-91.5 -109q-42 -39 -45 -42h163v-211h-490v155z" />
    <glyph glyph-name="three.tf" 
d="M528 333.5q34 -53.5 34 -113.5q0 -64 -33 -117t-92 -84.5t-132 -31.5q-104 0 -171.5 52t-96.5 132l181 101q11 -28 32.5 -46.5t47.5 -18.5q20 0 34.5 13t14.5 32t-14 31t-33 12q-23 0 -44 -14l-72 105l122 102h-222v212h436v-205l-88 -80q62 -28 96 -81.5z" />
    <glyph glyph-name="four.tf" 
d="M562 91h-58v-91h-202v91h-264v174l206 435h260v-426h58v-183zM302 274v195l-75 -195h75z" />
    <glyph glyph-name="five.tf" 
d="M440 417.5q56 -32.5 85 -85.5t29 -112q0 -64 -31 -117.5t-87.5 -84.5t-129.5 -31q-103 0 -167 51.5t-92 132.5l194 81q18 -44 55 -44q18 0 31 12.5t13 32.5q0 21 -15.5 34.5t-38.5 13.5q-39 0 -71 -27l-150 56l90 370h349v-210l-209 -1l-13 -41q16 2 24 2q78 0 134 -32.5
z" />
    <glyph glyph-name="six.tf" 
d="M456.5 432q50.5 -35 77 -87.5t26.5 -111.5q0 -64 -31.5 -120t-90.5 -90.5t-138 -34.5q-76 0 -135 32.5t-92 90t-33 128.5q0 54 15.5 103t41.5 107q14 31 54 115q11 23 32 66.5t33 69.5h231l-109 -225q68 -8 118.5 -43zM331.5 221q12.5 13 12.5 31t-12.5 31t-31.5 13
t-31.5 -13t-12.5 -31t12.5 -31t31.5 -13t31.5 13z" />
    <glyph glyph-name="seven.tf" 
d="M527 552l-150 -552h-230l152 490h-229v211l457 -1v-148z" />
    <glyph glyph-name="eight.tf" 
d="M542.5 309q20.5 -41 20.5 -85q0 -68 -32 -122t-91.5 -84.5t-138.5 -30.5t-139 30.5t-92 84.5t-32 122q0 45 20 86t54 70q-44 55 -44 128q0 53 29.5 100t82.5 75.5t121 28.5t121 -28.5t82.5 -75.5t29.5 -100q0 -75 -46 -129q34 -29 54.5 -70zM275.5 471q-9.5 -10 -9.5 -25
q0 -14 9.5 -24t25.5 -10q15 0 25 10.5t10 23.5q0 15 -10 25t-25 10q-16 0 -25.5 -10zM333 220.5q12 12.5 12 30.5t-12 30.5t-32 12.5q-19 0 -32 -12.5t-13 -30.5t13 -30.5t32 -12.5q20 0 32 12.5z" />
    <glyph glyph-name="nine.tf" 
d="M436 679.5q59 -32.5 92 -90t33 -128.5q0 -54 -15.5 -103t-41.5 -107q-14 -31 -54 -115q-11 -23 -32 -66.5t-33 -69.5h-231l109 225q-68 8 -118.5 43t-77 87.5t-26.5 111.5q0 64 31.5 120t90.5 90.5t138 34.5q76 0 135 -32.5zM269.5 479q-12.5 -13 -12.5 -31t12.5 -31
t31.5 -13t31.5 13t12.5 31t-12.5 31t-31.5 13t-31.5 -13z" />
    <glyph glyph-name="zero.tosf" 
d="M110 59q-59 74 -59 188q0 68 25 127.5t79.5 97.5t138.5 38t138.5 -38t79.5 -97.5t25 -127.5q0 -114 -59 -188t-184 -74t-184 74zM325 247q0 83 -31 83q-14 0 -22.5 -20.5t-8.5 -62.5t8.5 -62t22.5 -20q31 0 31 82z" />
    <glyph glyph-name="one.tosf" 
d="M514 182v-182h-414v182h109v100l-72 -24l-53 171l192 72h144v-319h94z" />
    <glyph glyph-name="two.tosf" 
d="M111 159l37 20q23 13 57 31.5t86 47.5q26 15 39 25.5t13 23.5q0 10 -7 17t-20 7q-18 0 -30 -15.5t-12 -36.5l-181 37q2 48 27 93.5t74.5 75.5t121.5 30t122 -25.5t74.5 -64t24.5 -78.5q0 -110 -129 -160l-13 -5h143v-182h-427v159z" />
    <glyph glyph-name="three.tosf" 
d="M505.5 187q33.5 -49 33.5 -111q0 -58 -30 -106t-83 -75.5t-117 -27.5q-92 0 -155 52t-86 127l163 82q11 -28 28.5 -46t41.5 -18q19 0 32 11.5t13 27.5q0 17 -12.5 28t-29.5 11q-22 0 -39 -12l-60 98l-10 13l112 77h-197v182h390v-170l-86 -70q58 -24 91.5 -73z" />
    <glyph glyph-name="four.tosf" 
d="M532 0h-55v-128h-178v128h-235v154l154 346h259v-318h55v-182zM299 182v149l-54 -149h54z" />
    <glyph glyph-name="five.tosf" 
d="M416.5 257q50.5 -27 80.5 -74.5t30 -107.5t-30 -107.5t-80.5 -74t-110.5 -26.5q-87 0 -149.5 47t-80.5 122l174 58q3 -18 16 -30.5t31 -12.5t30.5 12t12.5 29q0 19 -13.5 31t-32.5 12q-14 0 -25.5 -4t-24.5 -12l-145 38l80 343h303v-182h-188l-10 -35q7 1 22 1
q60 0 110.5 -27z" />
    <glyph glyph-name="six.tosf" 
d="M453 392q46 -30 70.5 -76t24.5 -99q0 -59 -29 -112t-83.5 -85.5t-125.5 -32.5t-125.5 32.5t-84 85.5t-29.5 112v1q0 55 15.5 97.5t45.5 99.5l105 209h222l-114 -195q62 -7 108 -37zM340 187.5q12 12.5 12 30.5q0 17 -12 29.5t-30 12.5t-30.5 -12.5t-12.5 -29.5
q0 -18 12.5 -30.5t30.5 -12.5t30 12.5z" />
    <glyph glyph-name="seven.tosf" 
d="M520 348l-152 -476h-211l161 446h-223v182h425v-152z" />
    <glyph glyph-name="eight.tosf" 
d="M512.5 277q21.5 -40 21.5 -88q0 -56 -29.5 -102t-83 -73t-121.5 -27t-121 27t-82.5 73t-29.5 102q0 48 21.5 88t60.5 66q-23 24 -35.5 53t-12.5 61q0 48 25 89t70.5 65t103.5 24t104 -24t71 -65t25 -89q0 -66 -48 -114q39 -26 60.5 -66zM273 454q-11 -11 -11 -25
q0 -15 11 -25.5t27 -10.5q17 0 27.5 10.5t10.5 25.5t-10.5 25.5t-27.5 10.5q-16 0 -27 -11zM330 189q12 12 12 29t-12 29.5t-30 12.5q-17 0 -29 -12.5t-12 -29.5t12 -29t29 -12q18 0 30 12z" />
    <glyph glyph-name="nine.tosf" 
d="M573 277q0 -55 -15.5 -97.5t-45.5 -99.5l-105 -209h-222l114 195q-62 7 -108 37t-70.5 76t-24.5 99q0 59 29 112t83.5 85.5t125.5 32.5t125.5 -32.5t84 -85.5t29.5 -112v-1zM304 307.5q-12 -12.5 -12 -30.5q0 -17 12 -29.5t30 -12.5t30.5 12.5t12.5 29.5q0 18 -12.5 30.5
t-30.5 12.5t-30 -12.5z" />
    <glyph glyph-name="zero.subs" horiz-adv-x="288" 
d="M46.5 -81q-32.5 46 -32.5 121q0 77 32 123t99 46q66 0 98 -46t32 -123q0 -75 -32 -121t-98 -46t-98.5 46zM164 40q0 61 -19 61t-19 -61q0 -67 19 -67t19 67z" />
    <glyph glyph-name="one.subs" horiz-adv-x="221" 
d="M193 202v-322h-111v191l-29 -13l-39 96l96 48h83z" />
    <glyph glyph-name="two.subs" horiz-adv-x="278" 
d="M25 -41q30 26 37 31l60 52q27 25 27 41q0 7 -3.5 11.5t-10.5 4.5q-15 0 -19 -24l-105 32q6 42 40 72t86 30q56 0 91.5 -30t35.5 -80q0 -35 -18 -59t-49 -49l-5 -5h72v-106h-240z" />
    <glyph glyph-name="three.subs" horiz-adv-x="276" 
d="M246 38q17 -25 17 -56q0 -47 -35 -78t-90 -31q-44 0 -77.5 23.5t-49.5 65.5l88 46q14 -27 37 -27q9 0 14.5 5.5t5.5 13.5t-5.5 13t-13.5 5q-9 0 -13 -2l-46 41l42 39h-90v106h212v-92l-41 -33q28 -14 45 -39z" />
    <glyph glyph-name="four.subs" horiz-adv-x="279" 
d="M269 -81h-26v-39h-102v39h-137v68l102 215h137v-197h26v-86zM141 5v87l-31 -87h31z" />
    <glyph glyph-name="five.subs" horiz-adv-x="274" 
d="M227.5 54.5q33.5 -29.5 33.5 -74.5q0 -44 -34.5 -75.5t-92.5 -31.5q-45 0 -77 23.5t-46 57.5l93 42q11 -19 29 -19q8 0 14.5 5.5t6.5 12.5q0 9 -6.5 14.5t-18.5 5.5q-16 0 -30 -9l-77 16l45 180h171v-104h-104l-4 -14h6q58 0 91.5 -29.5z" />
    <glyph glyph-name="six.subs" horiz-adv-x="272" 
d="M232.5 67.5q28.5 -32.5 28.5 -75.5q0 -30 -15 -57.5t-43 -44.5t-66 -17q-36 0 -65 17t-45 44.5t-16 59.5q0 25 6 46t18 47l30 60q11 20 28 55h114l-54 -98q51 -4 79.5 -36.5zM151.5 -17.5q6.5 6.5 6.5 14.5q0 9 -6.5 15t-14.5 6q-10 0 -15.5 -6t-5.5 -15t6 -15t15 -6
q8 0 14.5 6.5z" />
    <glyph glyph-name="seven.subs" horiz-adv-x="234" 
d="M230 148l-75 -268h-112l74 218h-109v104h222v-54z" />
    <glyph glyph-name="eight.subs" horiz-adv-x="276" 
d="M263 -26q0 -47 -36.5 -73.5t-88.5 -26.5t-88 26.5t-36 73.5q0 26 11.5 45t32.5 31q-26 26 -26 64q0 40 31 67.5t75 27.5t75.5 -27.5t31.5 -67.5q0 -38 -26 -64q44 -27 44 -76zM126 100.5q-5 -4.5 -5 -11.5t5 -12t12 -5t12.5 5t5.5 12t-5 11.5t-13 4.5q-7 0 -12 -4.5z
M153 -18.5q6 5.5 6 13.5q0 9 -6 14.5t-15 5.5t-15 -5.5t-6 -14.5q0 -8 6.5 -13.5t14.5 -5.5q9 0 15 5.5z" />
    <glyph glyph-name="nine.subs" horiz-adv-x="272" 
d="M200 192q29 -17 45 -44.5t16 -59.5q0 -25 -6 -46t-18 -47l-30 -60q-11 -20 -28 -55h-114l54 98q-51 4 -79.5 36.5t-28.5 75.5q0 30 15 57.5t43 44.5t66 17q36 0 65 -17zM120.5 99.5q-6.5 -6.5 -6.5 -14.5q0 -9 6.5 -15t14.5 -6q10 0 15.5 6t5.5 15t-6 15t-15 6
q-8 0 -14.5 -6.5z" />
    <glyph glyph-name="zero.dnom" horiz-adv-x="288" 
d="M46.5 39q-32.5 46 -32.5 121q0 77 32 123t99 46q66 0 98 -46t32 -123q0 -75 -32 -121t-98 -46t-98.5 46zM164 160q0 61 -19 61t-19 -61q0 -67 19 -67t19 67z" />
    <glyph glyph-name="one.dnom" horiz-adv-x="221" 
d="M193 322v-322h-111v191l-29 -13l-39 96l96 48h83z" />
    <glyph glyph-name="two.dnom" horiz-adv-x="278" 
d="M25 79q30 26 37 31l60 52q27 25 27 41q0 7 -3.5 11.5t-10.5 4.5q-15 0 -19 -24l-105 32q6 42 40 72t86 30q56 0 91.5 -30t35.5 -80q0 -35 -18 -59t-49 -49l-5 -5h72v-106h-240z" />
    <glyph glyph-name="three.dnom" horiz-adv-x="276" 
d="M246 158q17 -25 17 -56q0 -47 -35 -78t-90 -31q-44 0 -77.5 23.5t-49.5 65.5l88 46q14 -27 37 -27q9 0 14.5 5.5t5.5 13.5t-5.5 13t-13.5 5q-9 0 -13 -2l-46 41l42 39h-90v106h212v-92l-41 -33q28 -14 45 -39z" />
    <glyph glyph-name="four.dnom" horiz-adv-x="279" 
d="M269 39h-26v-39h-102v39h-137v68l102 215h137v-197h26v-86zM141 125v87l-31 -87h31z" />
    <glyph glyph-name="five.dnom" horiz-adv-x="274" 
d="M227.5 174.5q33.5 -29.5 33.5 -74.5q0 -44 -34.5 -75.5t-92.5 -31.5q-45 0 -77 23.5t-46 57.5l93 42q11 -19 29 -19q8 0 14.5 5.5t6.5 12.5q0 9 -6.5 14.5t-18.5 5.5q-16 0 -30 -9l-77 16l45 180h171v-104h-104l-4 -14h6q58 0 91.5 -29.5z" />
    <glyph glyph-name="six.dnom" horiz-adv-x="272" 
d="M232.5 187.5q28.5 -32.5 28.5 -75.5q0 -30 -15 -57.5t-43 -44.5t-66 -17q-36 0 -65 17t-45 44.5t-16 59.5q0 25 6 46t18 47l30 60q11 20 28 55h114l-54 -98q51 -4 79.5 -36.5zM151.5 102.5q6.5 6.5 6.5 14.5q0 9 -6.5 15t-14.5 6q-10 0 -15.5 -6t-5.5 -15t6 -15t15 -6
q8 0 14.5 6.5z" />
    <glyph glyph-name="seven.dnom" horiz-adv-x="234" 
d="M230 268l-75 -268h-112l74 218h-109v104h222v-54z" />
    <glyph glyph-name="eight.dnom" horiz-adv-x="276" 
d="M263 94q0 -47 -36.5 -73.5t-88.5 -26.5t-88 26.5t-36 73.5q0 26 11.5 45t32.5 31q-26 26 -26 64q0 40 31 67.5t75 27.5t75.5 -27.5t31.5 -67.5q0 -38 -26 -64q44 -27 44 -76zM126 220.5q-5 -4.5 -5 -11.5t5 -12t12 -5t12.5 5t5.5 12t-5 11.5t-13 4.5q-7 0 -12 -4.5z
M153 101.5q6 5.5 6 13.5q0 9 -6 14.5t-15 5.5t-15 -5.5t-6 -14.5q0 -8 6.5 -13.5t14.5 -5.5q9 0 15 5.5z" />
    <glyph glyph-name="nine.dnom" horiz-adv-x="272" 
d="M200 312q29 -17 45 -44.5t16 -59.5q0 -25 -6 -46t-18 -47l-30 -60q-11 -20 -28 -55h-114l54 98q-51 4 -79.5 36.5t-28.5 75.5q0 30 15 57.5t43 44.5t66 17q36 0 65 -17zM120.5 219.5q-6.5 -6.5 -6.5 -14.5q0 -9 6.5 -15t14.5 -6q10 0 15.5 6t5.5 15t-6 15t-15 6
q-8 0 -14.5 -6.5z" />
    <glyph glyph-name="zero.numr" horiz-adv-x="288" 
d="M46.5 417q-32.5 46 -32.5 121q0 77 32 123t99 46q66 0 98 -46t32 -123q0 -75 -32 -121t-98 -46t-98.5 46zM164 538q0 61 -19 61t-19 -61q0 -67 19 -67t19 67z" />
    <glyph glyph-name="one.numr" horiz-adv-x="221" 
d="M193 700v-322h-111v191l-29 -13l-39 96l96 48h83z" />
    <glyph glyph-name="two.numr" horiz-adv-x="278" 
d="M25 457q30 26 37 31l60 52q27 25 27 41q0 7 -3.5 11.5t-10.5 4.5q-15 0 -19 -24l-105 32q6 42 40 72t86 30q56 0 91.5 -30t35.5 -80q0 -35 -18 -59t-49 -49l-5 -5h72v-106h-240z" />
    <glyph glyph-name="three.numr" horiz-adv-x="276" 
d="M246 536q17 -25 17 -56q0 -47 -35 -78t-90 -31q-44 0 -77.5 23.5t-49.5 65.5l88 46q14 -27 37 -27q9 0 14.5 5.5t5.5 13.5t-5.5 13t-13.5 5q-9 0 -13 -2l-46 41l42 39h-90v106h212v-92l-41 -33q28 -14 45 -39z" />
    <glyph glyph-name="four.numr" horiz-adv-x="279" 
d="M269 417h-26v-39h-102v39h-137v68l102 215h137v-197h26v-86zM141 503v87l-31 -87h31z" />
    <glyph glyph-name="five.numr" horiz-adv-x="274" 
d="M227.5 552.5q33.5 -29.5 33.5 -74.5q0 -44 -34.5 -75.5t-92.5 -31.5q-45 0 -77 23.5t-46 57.5l93 42q11 -19 29 -19q8 0 14.5 5.5t6.5 12.5q0 9 -6.5 14.5t-18.5 5.5q-16 0 -30 -9l-77 16l45 180h171v-104h-104l-4 -14h6q58 0 91.5 -29.5z" />
    <glyph glyph-name="six.numr" horiz-adv-x="272" 
d="M232.5 565.5q28.5 -32.5 28.5 -75.5q0 -30 -15 -57.5t-43 -44.5t-66 -17q-36 0 -65 17t-45 44.5t-16 59.5q0 25 6 46t18 47l30 60q11 20 28 55h114l-54 -98q51 -4 79.5 -36.5zM151.5 480.5q6.5 6.5 6.5 14.5q0 9 -6.5 15t-14.5 6q-10 0 -15.5 -6t-5.5 -15t6 -15t15 -6
q8 0 14.5 6.5z" />
    <glyph glyph-name="seven.numr" horiz-adv-x="234" 
d="M230 646l-75 -268h-112l74 218h-109v104h222v-54z" />
    <glyph glyph-name="eight.numr" horiz-adv-x="276" 
d="M263 472q0 -47 -36.5 -73.5t-88.5 -26.5t-88 26.5t-36 73.5q0 26 11.5 45t32.5 31q-26 26 -26 64q0 40 31 67.5t75 27.5t75.5 -27.5t31.5 -67.5q0 -38 -26 -64q44 -27 44 -76zM126 598.5q-5 -4.5 -5 -11.5t5 -12t12 -5t12.5 5t5.5 12t-5 11.5t-13 4.5q-7 0 -12 -4.5z
M153 479.5q6 5.5 6 13.5q0 9 -6 14.5t-15 5.5t-15 -5.5t-6 -14.5q0 -8 6.5 -13.5t14.5 -5.5q9 0 15 5.5z" />
    <glyph glyph-name="nine.numr" horiz-adv-x="272" 
d="M200 690q29 -17 45 -44.5t16 -59.5q0 -25 -6 -46t-18 -47l-30 -60q-11 -20 -28 -55h-114l54 98q-51 4 -79.5 36.5t-28.5 75.5q0 30 15 57.5t43 44.5t66 17q36 0 65 -17zM120.5 597.5q-6.5 -6.5 -6.5 -14.5q0 -9 6.5 -15t14.5 -6q10 0 15.5 6t5.5 15t-6 15t-15 6
q-8 0 -14.5 -6.5z" />
    <glyph glyph-name="zero.sups" horiz-adv-x="288" 
d="M46.5 539q-32.5 46 -32.5 121q0 77 32 123t99 46q66 0 98 -46t32 -123q0 -75 -32 -121t-98 -46t-98.5 46zM164 660q0 61 -19 61t-19 -61q0 -67 19 -67t19 67z" />
    <glyph glyph-name="one.sups" horiz-adv-x="221" 
d="M193 822v-322h-111v191l-29 -13l-39 96l96 48h83z" />
    <glyph glyph-name="two.sups" horiz-adv-x="278" 
d="M25 579q30 26 37 31l60 52q27 25 27 41q0 7 -3.5 11.5t-10.5 4.5q-15 0 -19 -24l-105 32q6 42 40 72t86 30q56 0 91.5 -30t35.5 -80q0 -35 -18 -59t-49 -49l-5 -5h72v-106h-240z" />
    <glyph glyph-name="three.sups" horiz-adv-x="276" 
d="M246 658q17 -25 17 -56q0 -47 -35 -78t-90 -31q-44 0 -77.5 23.5t-49.5 65.5l88 46q14 -27 37 -27q9 0 14.5 5.5t5.5 13.5t-5.5 13t-13.5 5q-9 0 -13 -2l-46 41l42 39h-90v106h212v-92l-41 -33q28 -14 45 -39z" />
    <glyph glyph-name="four.sups" horiz-adv-x="279" 
d="M269 539h-26v-39h-102v39h-137v68l102 215h137v-197h26v-86zM141 625v87l-31 -87h31z" />
    <glyph glyph-name="five.sups" horiz-adv-x="274" 
d="M227.5 674.5q33.5 -29.5 33.5 -74.5q0 -44 -34.5 -75.5t-92.5 -31.5q-45 0 -77 23.5t-46 57.5l93 42q11 -19 29 -19q8 0 14.5 5.5t6.5 12.5q0 9 -6.5 14.5t-18.5 5.5q-16 0 -30 -9l-77 16l45 180h171v-104h-104l-4 -14h6q58 0 91.5 -29.5z" />
    <glyph glyph-name="six.sups" horiz-adv-x="272" 
d="M232.5 687.5q28.5 -32.5 28.5 -75.5q0 -30 -15 -57.5t-43 -44.5t-66 -17q-36 0 -65 17t-45 44.5t-16 59.5q0 25 6 46t18 47l30 60q11 20 28 55h114l-54 -98q51 -4 79.5 -36.5zM151.5 602.5q6.5 6.5 6.5 14.5q0 9 -6.5 15t-14.5 6q-10 0 -15.5 -6t-5.5 -15t6 -15t15 -6
q8 0 14.5 6.5z" />
    <glyph glyph-name="seven.sups" horiz-adv-x="234" 
d="M230 768l-75 -268h-112l74 218h-109v104h222v-54z" />
    <glyph glyph-name="eight.sups" horiz-adv-x="276" 
d="M263 594q0 -47 -36.5 -73.5t-88.5 -26.5t-88 26.5t-36 73.5q0 26 11.5 45t32.5 31q-26 26 -26 64q0 40 31 67.5t75 27.5t75.5 -27.5t31.5 -67.5q0 -38 -26 -64q44 -27 44 -76zM126 720.5q-5 -4.5 -5 -11.5t5 -12t12 -5t12.5 5t5.5 12t-5 11.5t-13 4.5q-7 0 -12 -4.5z
M153 601.5q6 5.5 6 13.5q0 9 -6 14.5t-15 5.5t-15 -5.5t-6 -14.5q0 -8 6.5 -13.5t14.5 -5.5q9 0 15 5.5z" />
    <glyph glyph-name="nine.sups" horiz-adv-x="272" 
d="M200 812q29 -17 45 -44.5t16 -59.5q0 -25 -6 -46t-18 -47l-30 -60q-11 -20 -28 -55h-114l54 98q-51 4 -79.5 36.5t-28.5 75.5q0 30 15 57.5t43 44.5t66 17q36 0 65 -17zM120.5 719.5q-6.5 -6.5 -6.5 -14.5q0 -9 6.5 -15t14.5 -6q10 0 15.5 6t5.5 15t-6 15t-15 6
q-8 0 -14.5 -6.5z" />
    <glyph glyph-name="space.tf" 
 />
    <glyph glyph-name="cent.tf" 
d="M318.5 387.5q-17.5 -12.5 -17.5 -33.5t17.5 -33.5t47.5 -12.5q61 0 135 27v-211q-65 -29 -137 -30v-94h-71v100q-95 19 -151.5 89t-56.5 165t56.5 165t151.5 89v92h71v-86q72 -1 137 -30v-211q-74 27 -135 27q-30 0 -47.5 -12.5z" />
    <glyph glyph-name="currency.tf" 
d="M511 188l50 -50l-50 -49l-51 51q-69 -50 -158 -50q-94 0 -165 55l-56 -56l-49 49l57 57q-51 72 -51 158q0 89 51 157l-57 57l49 50l56 -56q71 55 165 55q89 0 158 -50l51 51l50 -50l-50 -50q27 -34 41.5 -76t14.5 -88q0 -93 -56 -165zM338 317.5q14 14.5 14 36.5
q0 20 -14.5 34.5t-35.5 14.5t-35 -15t-14 -34q0 -21 14 -36t35 -15q22 0 36 14.5z" />
    <glyph glyph-name="dollar.tf" 
d="M323.5 453.5q15.5 -9.5 48.5 -22.5q57 -25 95.5 -48.5t69 -67t30.5 -107.5q0 -89 -58 -149t-162 -70v-57h-71v56q-66 6 -130 29.5t-109 57.5l103 189q35 -24 79.5 -41.5t71.5 -17.5q15 0 23 6t8 16q0 12 -14.5 20.5t-52.5 24.5q-56 23 -95 46t-68.5 66t-29.5 108
q0 86 57.5 146.5t156.5 72.5v60h71v-59q61 -5 117 -26.5t101 -51.5l-102 -188q-28 17 -66 31.5t-63 14.5q-26 0 -26 -19q0 -10 15.5 -19.5z" />
    <glyph glyph-name="Euro.tf" 
d="M383.5 230q26.5 -12 56.5 -12q34 0 56 8t47 24l-1 -237q-24 -10 -58 -16.5t-66 -6.5q-81 0 -149.5 33t-115.5 95t-63 146h-62v69h54v16v16h-54v70h62q17 84 63.5 146t115.5 95t149 33q32 0 66 -6.5t58 -16.5l1 -237q-25 16 -47 23.5t-56 7.5q-30 0 -56 -11.5t-44 -33.5
h126v-70h-153q-1 -5 -1 -16t1 -16h153v-69h-126q17 -22 43.5 -34z" />
    <glyph glyph-name="florin.tf" 
d="M472 491q-48 0 -54 -58l-3 -28h63v-71h-72l-23 -184q-9 -81 -61.5 -122t-126.5 -41q-57 0 -118 25v205q29 -10 50 -10q26 0 39 15t16 43l8 69h-68v71h77q1 6 10 77l8 66q10 81 61.5 122t125.5 41q57 0 118 -25v-205q-29 10 -50 10z" />
    <glyph glyph-name="sterling.tf" 
d="M302 211h233v-211h-457v106q29 28 45 64t16 66q0 21 -7 45h-70v67h38q-19 36 -29 67.5t-10 72.5q0 56 29 107.5t83.5 84t128.5 32.5q73 0 129 -33t87 -88t34 -119l-208 -62q1 25 -10.5 44.5t-31.5 19.5q-13 0 -22.5 -10t-9.5 -25q0 -16 5 -30t15 -32l13 -29h123v-67h-112
q-2 -40 -12 -70z" />
    <glyph glyph-name="yen.tf" 
d="M439 265h81v-69h-107v-32h107v-69h-107v-95h-230v95h-101v69h101v32h-101v69h75l-183 435l244 1l80 -268l80 268l244 -1z" />
    <glyph glyph-name="caroncomb.alt" horiz-adv-x="0" 
d="M-175 525l24 239l151 -23l-62 -232z" />
    </font>
</defs>
</svg>
