<?xml version="1.0" encoding="utf-8"?>
<!-- Generator: Adobe Illustrator 16.0.0, SVG Export Plug-In . SVG Version: 6.00 Build 0)  -->
<!DOCTYPE svg PUBLIC "-//W3C//DTD SVG 1.1//EN" "http://www.w3.org/Graphics/SVG/1.1/DTD/svg11.dtd">
<svg version="1.1" id="Layer_1" xmlns="http://www.w3.org/2000/svg" xmlns:xlink="http://www.w3.org/1999/xlink" x="0px" y="0px"
	 width="208px" height="280px" viewBox="0 0 208 280" enable-background="new 0 0 208 280" xml:space="preserve">
<path fill="#FFFFFF" d="M16.547,268.887c0.308-0.308,0.616-0.616,0.822-0.926c0.206-0.308,0.411-0.719,0.617-1.13
	c0.103-0.412,0.308-0.822,0.308-1.234c0.103-0.411,0.103-0.822,0.103-1.131c0-0.822-0.206-1.646-0.514-2.468
	c-0.309-0.822-0.72-1.439-1.336-2.057c-0.514-0.616-1.234-1.028-2.057-1.336c-0.823-0.309-1.645-0.515-2.57-0.515
	c-0.926,0-1.749,0.206-2.571,0.515c-0.823,0.308-1.44,0.822-2.056,1.336c-0.514,0.617-1.028,1.234-1.337,2.057
	s-0.412,1.646-0.412,2.468c0,0.925,0.206,1.748,0.514,2.57c0.309,0.823,0.823,1.439,1.336,2.057
	c0.617,0.617,1.234,1.028,2.057,1.337c0.72,0.308,1.542,0.514,2.468,0.514c0.514,0,1.028-0.103,1.542-0.206
	c0.514-0.102,1.131-0.41,1.542-0.72l-3.599-3.599h2.467 M17.987,272.691l-1.337-1.439c-0.616,0.411-1.336,0.822-2.159,1.028
	c-0.823,0.206-1.542,0.411-2.365,0.411c-1.131,0-2.262-0.205-3.188-0.617c-1.028-0.411-1.851-1.028-2.673-1.747
	c-0.72-0.72-1.337-1.646-1.748-2.57C4.106,266.729,3.9,265.7,3.9,264.466c0-1.132,0.206-2.159,0.617-3.188s1.028-1.851,1.748-2.673
	c0.719-0.721,1.645-1.337,2.673-1.749c1.028-0.41,2.057-0.616,3.188-0.616c1.131,0,2.16,0.206,3.188,0.616
	c1.028,0.412,1.851,1.028,2.674,1.749c0.719,0.72,1.336,1.645,1.748,2.673c0.412,1.028,0.617,2.056,0.617,3.188
	c0,1.131-0.205,2.159-0.617,3.188c-0.411,1.028-1.028,1.851-1.851,2.674l2.467,2.467L17.987,272.691L17.987,272.691z"/>
<path fill="#FFFFFF" d="M37.934,256.549v9.356c0,0.617,0.103,1.233,0.206,1.852c0.103,0.616,0.308,1.13,0.617,1.645
	c0.309,0.411,0.72,0.822,1.131,1.131c0.514,0.309,1.131,0.411,1.851,0.411s1.336-0.103,1.851-0.411s0.925-0.617,1.131-1.131
	c0.308-0.515,0.514-1.028,0.617-1.645c0.103-0.618,0.206-1.234,0.206-1.852v-9.356h1.954v9.974c0,0.822-0.103,1.645-0.411,2.467
	c-0.309,0.721-0.617,1.44-1.131,1.954c-0.514,0.515-1.131,1.028-1.851,1.337c-0.72,0.308-1.542,0.514-2.468,0.514
	s-1.748-0.206-2.467-0.514c-0.72-0.309-1.337-0.72-1.851-1.337c-0.514-0.514-0.925-1.233-1.131-1.954
	c-0.308-0.719-0.411-1.542-0.411-2.467v-9.974"/>
<path fill="#FFFFFF" d="M70.117,260.147l-2.776,6.375h5.655 M66.518,268.373l-1.851,4.011h-2.056l7.608-16.555l7.609,16.555h-2.159
	l-1.851-4.011H66.518z"/>
<path fill="#FFFFFF" d="M94.485,270.532h0.72c1.028,0,1.954-0.103,2.879-0.309s1.748-0.514,2.365-1.028
	c0.72-0.514,1.234-1.131,1.645-1.851c0.411-0.822,0.617-1.748,0.617-2.879c0-1.132-0.206-2.159-0.617-2.879
	c-0.411-0.823-0.925-1.439-1.645-1.852c-0.719-0.514-1.439-0.822-2.365-1.028c-0.925-0.204-1.851-0.308-2.879-0.308h-0.72
	 M92.532,256.549h3.29c1.234,0,2.365,0.206,3.394,0.514c1.028,0.309,2.056,0.822,2.776,1.44c0.823,0.616,1.439,1.438,1.954,2.467
	s0.719,2.16,0.719,3.496c0,1.337-0.205,2.57-0.719,3.495c-0.412,1.028-1.131,1.852-1.851,2.469
	c-0.822,0.616-1.748,1.131-2.878,1.439c-1.131,0.309-2.262,0.515-3.496,0.515h-3.188V256.549L92.532,256.549z"/>
<path fill="#FFFFFF" d="M122.35,264.055h0.617c0.515,0,1.028,0,1.542-0.103c0.515-0.104,0.925-0.206,1.337-0.412
	s0.72-0.514,1.028-0.925c0.206-0.411,0.411-0.926,0.411-1.542c0-0.617-0.104-1.132-0.411-1.44c-0.309-0.411-0.616-0.616-1.028-0.822
	c-0.412-0.205-0.926-0.308-1.337-0.411c-0.514-0.103-1.027-0.103-1.542-0.103h-0.514 M130.267,272.384h-2.364l-4.627-6.684h-0.822
	v6.684h-1.954v-15.835h2.364c0.72,0,1.44,0,2.16,0.103c0.72,0.104,1.438,0.309,2.057,0.617c0.72,0.411,1.233,0.925,1.542,1.645
	s0.514,1.44,0.514,2.16c0,0.616-0.103,1.131-0.308,1.645c-0.206,0.515-0.412,0.926-0.72,1.337c-0.309,0.411-0.721,0.72-1.234,1.028
	c-0.515,0.308-1.028,0.411-1.542,0.514L130.267,272.384z"/>
<path fill="#FFFFFF" d="M150.316,260.147l-2.776,6.375h5.655 M146.718,268.373l-1.851,4.011h-2.056l7.608-16.555l7.608,16.555
	h-2.159l-1.851-4.011H146.718z"/>
<polyline fill="#FFFFFF" points="170.675,255.727 182.604,268.271 182.604,256.549 184.556,256.549 184.556,273 172.629,260.559 
	172.629,272.384 170.675,272.384 "/>
<polyline fill="#FFFFFF" points="204.298,272.384 202.345,272.384 202.345,258.297 198.54,258.297 198.54,256.549 208,256.549 
	208,258.297 204.298,258.297 "/>
<rect x="87.3" y="238.8" fill="#FFFFFF" width="32.101" height="1.3"/>
<g>
	<polyline fill="#A8802B" points="201.6,206.8 93.1,98.1 97.1,94.1 205.6,202.8 	"/>
	<g>
		<g>
			<g>
				<g>
					<defs>
						<rect id="SVGID_1_" x="104" y="103.7" width="122.8" height="116.2"/>
					</defs>
					<clipPath id="SVGID_2_">
						<use xlink:href="#SVGID_1_"  overflow="visible"/>
					</clipPath>
					<path clip-path="url(#SVGID_2_)" fill="#A8802B" d="M104.4,11.5c-51.9,0-94.2,42.2-94.2,94.1s42.2,94.2,94.2,94.2
						c51.5,0,93.5-41.6,94.2-92.9v-1.3C198.6,53.7,156.4,11.5,104.4,11.5 M104.4,205.4c-55,0-99.8-44.801-99.8-99.8
						c0-55,44.8-99.8,99.8-99.8c54.1,0,98.3,43.2,99.8,97l0,0v2.8C204.3,160.6,159.5,205.4,104.4,205.4"/>
				</g>
			</g>
		</g>
		<g>
			<g>
				<g>
					<defs>
						<rect id="SVGID_3_" x="104" y="103.7" width="122.8" height="116.2"/>
					</defs>
					<clipPath id="SVGID_4_">
						<use xlink:href="#SVGID_3_"  overflow="visible"/>
					</clipPath>
					<path clip-path="url(#SVGID_4_)" fill="#A8802B" d="M104.4,32c-40.6,0-73.6,33-73.6,73.6s33,73.6,73.6,73.6
						c40.3,0,73.1-32.5,73.6-72.6v-1C178.1,65,145,32,104.4,32 M104.4,184.7c-43.6,0-79.1-35.5-79.1-79.1s35.5-79.1,79.1-79.1
						c42.9,0,77.9,34.3,79.1,76.9l0,0v2.2C183.6,149.2,148.1,184.7,104.4,184.7"/>
				</g>
			</g>
		</g>
		<g>
			<g>
				<g>
					<defs>
						<rect id="SVGID_5_" x="104" y="103.7" width="122.8" height="116.2"/>
					</defs>
					<clipPath id="SVGID_6_">
						<use xlink:href="#SVGID_5_"  overflow="visible"/>
					</clipPath>
					<path clip-path="url(#SVGID_6_)" fill="#A8802B" d="M104.4,52.8c-29.1,0-52.9,23.7-52.9,52.8s23.7,52.9,52.9,52.9
						c28.9,0,52.5-23.3,52.9-52.2v-0.7C157.3,76.5,133.6,52.8,104.4,52.8 M104.4,163.9c-32.1,0-58.3-26.2-58.3-58.3
						s26.1-58.3,58.3-58.3c31.6,0,57.4,25.3,58.3,56.6l0,0v1.7C162.7,137.7,136.6,163.9,104.4,163.9"/>
				</g>
			</g>
		</g>
		<g>
			<g>
				<g>
					<defs>
						<rect id="SVGID_7_" x="104" y="103.7" width="122.8" height="116.2"/>
					</defs>
					<clipPath id="SVGID_8_">
						<use xlink:href="#SVGID_7_"  overflow="visible"/>
					</clipPath>
					<path clip-path="url(#SVGID_8_)" fill="#A8802B" d="M104.4,73.4c-17.8,0-32.3,14.5-32.3,32.2c0,17.8,14.5,32.3,32.3,32.3
						c17.6,0,32-14.2,32.3-31.8v-0.4C136.7,87.8,122.2,73.4,104.4,73.4 M104.4,143.3c-20.8,0-37.7-16.9-37.7-37.7
						c0-20.8,16.9-37.7,37.7-37.7c20.4,0,37.1,16.3,37.7,36.6l0,0v1.1C142.2,126.4,125.2,143.3,104.4,143.3"/>
				</g>
			</g>
		</g>
		<g>
			<g>
				<g>
					<defs>
						<rect id="SVGID_9_" x="104" y="103.7" width="122.8" height="116.2"/>
					</defs>
					<clipPath id="SVGID_10_">
						<use xlink:href="#SVGID_9_"  overflow="visible"/>
					</clipPath>
					<path clip-path="url(#SVGID_10_)" fill="#A8802B" d="M104.4,94.1c-6.3,0-11.5,5.1-11.5,11.5c0,6.3,5.1,11.5,11.5,11.5
						c6.3,0,11.4-5.1,11.5-11.3v-0.2C115.9,99.3,110.8,94.1,104.4,94.1 M104.4,122.6c-9.3,0-16.9-7.6-16.9-16.9
						c0-9.3,7.6-16.9,16.9-16.9c9.2,0,16.7,7.3,16.9,16.5l0,0v0.5C121.4,114.9,113.8,122.6,104.4,122.6"/>
				</g>
			</g>
		</g>
	</g>
	<g>
		<g>
			<g>
				<g>
					<defs>
						<path id="SVGID_11_" d="M3.8,105.2c0,55.3,44.9,100.2,100.2,100.2V105.2"/>
					</defs>
					<clipPath id="SVGID_12_">
						<use xlink:href="#SVGID_11_"  overflow="visible"/>
					</clipPath>
					<path clip-path="url(#SVGID_12_)" fill="#CAA367" d="M53.1,175.3c2.7,2.2,5.8,4,9.6,4c3.8,0,5.8-1.8,8.5-4
						c2.8-2.3,6.2-5.2,12-5.2c5.7,0,9.4,2.9,12.4,5.2c2.6,2.101,5,3.8,8.5,4V164c-5.3-0.2-8.9-2.9-11.8-5.1c-2.7-2.101-5.2-4-9-4
						c-3.7,0-5.8,1.8-8.5,4c-2.8,2.3-6.2,5.199-12,5.199c-5.7,0-10.2-2.899-13.1-5.3c-2.7-2.2-6.2-3.899-9.9-3.899
						c-3.8,0-6.2,1.899-9,4.1c-2,1.5-5,3.3-8.4,4.3c2.5,3.5,5.2,6.8,8.1,10c2.5-1.6,5.4-3,9.4-3C45.5,170.1,50.4,173,53.1,175.3"/>
				</g>
			</g>
		</g>
		<g>
			<g>
				<g>
					<defs>
						<path id="SVGID_13_" d="M3.8,105.2c0,55.3,44.9,100.2,100.2,100.2V105.2"/>
					</defs>
					<clipPath id="SVGID_14_">
						<use xlink:href="#SVGID_13_"  overflow="visible"/>
					</clipPath>
					<path clip-path="url(#SVGID_14_)" fill="#CAA367" d="M83.1,134.2c-3.7,0-5.8,1.8-8.5,4c-2.8,2.3-6.2,5.2-12,5.2
						c-5.7,0-10.2-2.9-13.1-5.3c-2.7-2.2-6.2-4-9.9-4c-3.8,0-6.2,1.9-9,4.1c-3,2.3-8.2,5.2-13.9,5.2c-2.1,0-4.1-0.4-5.9-1
						C13,148,15.7,153.3,18.9,158.3c3.1-0.6,6.2-2.1,8.3-3.8c3-2.3,6.7-5.2,12.4-5.2c5.7,0,10.6,2.9,13.4,5.2c2.7,2.2,5.8,4,9.6,4
						c3.8,0,5.8-1.8,8.5-4c2.8-2.3,6.2-5.2,12-5.2c5.7,0,9.4,2.9,12.4,5.2c2.6,2.1,5,3.8,8.5,4v-15.1c-5.3-0.2-8.9-2.9-11.8-5.101
						C89.5,136.1,87,134.2,83.1,134.2"/>
				</g>
			</g>
		</g>
		<g>
			<g>
				<g>
					<defs>
						<path id="SVGID_15_" d="M3.8,105.2c0,55.3,44.9,100.2,100.2,100.2V105.2"/>
					</defs>
					<clipPath id="SVGID_16_">
						<use xlink:href="#SVGID_15_"  overflow="visible"/>
					</clipPath>
					<path clip-path="url(#SVGID_16_)" fill="#CAA367" d="M95.5,195.8c2.6,2.101,5,3.8,8.5,4v-15c-5.3-0.2-8.9-2.899-11.8-5.1
						c-2.7-2.101-5.2-4-9-4c-3.7,0-5.8,1.8-8.5,4c-2.8,2.3-6.2,5.2-12,5.2c-5.7,0-10.2-2.9-13.1-5.301
						c-2.6-2.199-6.2-3.899-9.9-3.899c-2.2,0-3.9,0.6-5.5,1.6c9.5,9.2,20.8,16.5,33.3,21.4c1.2-0.7,2.4-1.601,3.6-2.7
						c2.8-2.4,6.2-5.2,12-5.2C88.8,190.6,92.5,193.5,95.5,195.8"/>
				</g>
			</g>
		</g>
		<g>
			<g>
				<g>
					<defs>
						<path id="SVGID_17_" d="M3.8,105.2c0,55.3,44.9,100.2,100.2,100.2V105.2"/>
					</defs>
					<clipPath id="SVGID_18_">
						<use xlink:href="#SVGID_17_"  overflow="visible"/>
					</clipPath>
					<path clip-path="url(#SVGID_18_)" fill="#CAA367" d="M16.8,117.1c3.8,0,7.9-2,10.6-4c3-2.3,6.7-5.2,12.4-5.2
						c5.7,0,10.6,2.9,13.4,5.2c2.7,2.2,5.8,4,9.6,4c3.8,0,5.8-1.8,8.5-4c2.8-2.3,6.2-5.2,12-5.2c5.7,0,9.4,2.9,12.4,5.2
						c2.6,2.1,5,3.8,8.5,4v-11.9H3.8c0,1.6,0,3.1,0.1,4.6C5.3,111.5,10.3,117.1,16.8,117.1"/>
				</g>
			</g>
		</g>
		<g>
			<g>
				<g>
					<defs>
						<path id="SVGID_19_" d="M3.8,105.2c0,55.3,44.9,100.2,100.2,100.2V105.2"/>
					</defs>
					<clipPath id="SVGID_20_">
						<use xlink:href="#SVGID_19_"  overflow="visible"/>
					</clipPath>
					<path clip-path="url(#SVGID_20_)" fill="#CAA367" d="M92.2,200.1c-2.7-2.1-5.2-4-9-4c-3.7,0-5.8,1.801-8.5,4
						c-0.3,0.2-0.6,0.5-0.9,0.7c9.5,3,19.7,4.601,30.2,4.601v-0.2C98.7,205,95.1,202.3,92.2,200.1"/>
				</g>
			</g>
		</g>
		<g>
			<g>
				<g>
					<defs>
						<path id="SVGID_21_" d="M3.8,105.2c0,55.3,44.9,100.2,100.2,100.2V105.2"/>
					</defs>
					<clipPath id="SVGID_22_">
						<use xlink:href="#SVGID_21_"  overflow="visible"/>
					</clipPath>
					<path clip-path="url(#SVGID_22_)" fill="#CAA367" d="M83.1,113.4c-3.7,0-5.8,1.7-8.5,4c-2.8,2.3-6.2,5.2-12,5.2
						c-5.7,0-10.2-2.9-13.1-5.2c-2.7-2.2-6.2-3.9-9.9-3.9c-3.8,0-6.2,1.9-9,4c-3,2.3-8.2,5.1-13.9,5.1c-5,0-9.1-2.1-12.1-4.4
						c0.7,5.7,1.9,11.2,3.6,16.6c2.3,1.7,5.2,3.2,8.6,3.2c3.8,0,7.9-2,10.6-4c3-2.3,6.7-5.1,12.4-5.1c5.7,0,10.6,2.9,13.4,5.2
						c2.7,2.2,5.8,4,9.6,4c3.8,0,5.8-1.7,8.5-4c2.8-2.4,6.2-5.2,12-5.2c5.7,0,9.4,2.9,12.4,5.1c2.6,2.1,5,3.8,8.5,4v-15.3
						c-5.3-0.2-8.9-2.9-11.8-5.1C89.5,115.3,87,113.4,83.1,113.4"/>
				</g>
			</g>
		</g>
	</g>
	<path fill="#CAA367" d="M139.6,53.6c-0.8-1.1-1.899-1.8-3.199-1.9c-1.5-0.2-3.2,0.5-4.5,1.8c-1.4,1.4-2.101,3.3-1.801,5.1
		c0.2,2.3,1.601,4.5,3.7,5.9c2.101,1.5,4.601,1.9,6.9,1.3c2.899-0.6,5.5-2.4,7.2-5c1.699-2.7,2.3-5.7,1.6-8.6
		c-1.3-7-7.9-12.5-15-12.5h-0.1c-7.801,0-15.4,5.5-18.2,12.9c-0.2,0.6-0.4,1.2-0.601,1.8l-0.3,1l-1.1,1.2c-1.601,1-3.3,1.9-5,0.9
		c-1.5-0.9-3.3-1.4-5.3-1.5v28.2c2-0.2,4-0.8,5.8-1.9l1.3-0.8l4.8,2.2l0.2,1.5c0.8,5.1,5.3,8.6,10.9,8.6h0.1
		c5.5,0,10.2-4.6,11.9-7.7c0.1-0.2,0.199-0.4,0.3-0.6c-0.4-2.3-0.101-4.8,1-7.2c1.399-2.9,3.8-5.1,6.6-6.1c2.5-1,5.5-0.9,8.101,0.5
		c2.6,1.4,4.5,3.7,5.1,6.3c0.7,2.4,0.2,4.9-1.4,7.1l-4.6-3.3c0.6-0.8,0.7-1.6,0.5-2.3c-0.3-1.1-1.1-2.1-2.3-2.7
		c-1.2-0.6-2.4-0.7-3.5-0.2c-1.5,0.5-2.8,1.7-3.5,3.2s-0.8,3.2-0.3,4.6c1.199,3.8,5.5,6.5,9.3,6c4.399-0.6,8.6-4.3,9.6-8.7l0.3-1.2
		l1.101-0.6c3.399-1.8,4.1-2.2,5.399-1.8l0.801,0.3l0.5,0.7c0.399,0.5,0.8,0.9,1.199,1.3c0.801,0.8,1.801,1.4,2.9,1.8
		c0.6,0.3,1.3,0.5,2,0.6c2.6,0.5,5.2-0.1,7.4-1.6c2.199-1.5,3.6-3.8,4.1-6.4c0.4-2.6-0.1-5.2-1.7-7.4c-2.5-3.6-6.899-5.1-11.1-3.8
		l-1.8,0.6l-4-5l1-1.7c1.5-2.6,1.399-5.8-0.301-8.3c-1.199-1.7-2.899-2.8-4.899-3.2c-2.4-0.4-6.9-0.1-8.9,1.5
		c-0.899,0.7-1.6,1.5-2,2.3c-0.399,0.7-0.5,1.4-0.6,2.2c0.3,3.7-0.5,7.4-2.7,10.8c-2.5,3.9-6.4,6.7-10.6,7.5
		c-3.7,1-7.9,0.3-11.4-2.1c-3.5-2.4-5.8-6.1-6.1-9.9c-0.5-3.5,0.8-7.1,3.399-9.8c2.5-2.5,6-3.9,9.101-3.4c2.899,0.2,5.6,1.9,7.3,4.4
		c1.6,2.4,2.1,5.2,1.3,7.5l-5.4-1.7C140.5,55.6,140.3,54.6,139.6,53.6"/>
	<path fill="#CAA367" d="M104,5v45.3c2.3,0.1,4.6,0.5,6.6,1.5c0.101-0.4,0.2-0.8,0.4-1.2C114.5,41,124.4,34,134.4,34h0.1
		c7.8,0,15,4.7,18.5,11.4c0.5-0.5,0.9-1,1.5-1.4c3.8-2.9,10.1-3.2,13.4-2.6c3.5,0.6,6.5,2.6,8.6,5.5c2.4,3.4,3,7.7,1.8,11.6
		c5.601-0.6,11.101,1.8,14.4,6.6c2.399,3.4,3.3,7.5,2.6,11.6c-0.8,4.1-3,7.7-6.399,10.1c-3.4,2.4-7.601,3.3-11.601,2.6
		c-1.1-0.2-2.1-0.5-3.1-0.9c-1.7-0.7-3.3-1.7-4.7-3c-0.1-0.1-0.2-0.2-0.2-0.2c-0.1,0-0.1,0.1-0.2,0.1c-2,6.1-7.699,11-14.1,11.8
		c-0.5,0.1-1.1,0.1-1.6,0.1c-4.4,0-8.7-2.2-11.4-5.6c-3,3.7-8.2,7.9-14.9,7.9H127c-7.5,0-14-4.7-16-11.4c-2.1,1-4.4,1.6-6.8,1.7
		c-0.1,0-0.1,0-0.2,0v15.3h100.2C204.2,49.9,159.3,5,104,5"/>
	<g>
		<g>
			<g>
				<g>
					<defs>
						<path id="SVGID_23_" d="M3.8,105.2H104V5C48.7,5,3.8,49.9,3.8,105.2"/>
					</defs>
					<clipPath id="SVGID_24_">
						<use xlink:href="#SVGID_23_"  overflow="visible"/>
					</clipPath>
					<path clip-path="url(#SVGID_24_)" fill="#A8802B" d="M142,103.9c0,0.2,0,1.1,0,1.2c0,20.9-17,38-38,38c-20.9,0-38-17-38-38
						c0-20.9,17-37.9,38-37.9C124.5,67.2,141.3,83.6,142,103.9L142,103.9 M104,55.9c-27.2,0-49.3,22.1-49.3,49.3
						c0,27.2,22.1,49.3,49.3,49.3c27,0,49-21.8,49.3-49.3C153.3,78,131.2,55.9,104,55.9"/>
				</g>
			</g>
		</g>
		<g>
			<g>
				<g>
					<defs>
						<path id="SVGID_25_" d="M3.8,105.2H104V5C48.7,5,3.8,49.9,3.8,105.2"/>
					</defs>
					<clipPath id="SVGID_26_">
						<use xlink:href="#SVGID_25_"  overflow="visible"/>
					</clipPath>
					<path clip-path="url(#SVGID_26_)" fill="#A8802B" d="M158.9,103.4c0,0.1,0,1.6,0,1.8c0,30.3-24.601,54.899-54.9,54.899
						S49.1,135.5,49.1,105.2c0-30.3,24.6-54.9,54.9-54.9C133.7,50.3,158,73.9,158.9,103.4L158.9,103.4 M104,38.9
						c-36.5,0-66.2,29.7-66.2,66.2c0,36.5,29.7,66.3,66.2,66.3c36.2,0,65.8-29.2,66.3-66.2C170.3,68.6,140.5,38.9,104,38.9"/>
				</g>
			</g>
		</g>
		<g>
			<g>
				<g>
					<defs>
						<path id="SVGID_27_" d="M3.8,105.2H104V5C48.7,5,3.8,49.9,3.8,105.2"/>
					</defs>
					<clipPath id="SVGID_28_">
						<use xlink:href="#SVGID_27_"  overflow="visible"/>
					</clipPath>
					<path clip-path="url(#SVGID_28_)" fill="#A8802B" d="M104,126.2c-11.6,0-21-9.4-21-21c0-11.6,9.4-21,21-21c11.6,0,21,9.4,21,21
						C125,116.7,115.6,126.2,104,126.2 M104,72.9c-17.8,0-32.3,14.5-32.3,32.3c0,17.8,14.5,32.3,32.3,32.3
						c17.7,0,32.1-14.3,32.3-32.3C136.3,87.4,121.8,72.9,104,72.9"/>
				</g>
			</g>
		</g>
		<g>
			<g>
				<g>
					<defs>
						<path id="SVGID_29_" d="M3.8,105.2H104V5C48.7,5,3.8,49.9,3.8,105.2"/>
					</defs>
					<clipPath id="SVGID_30_">
						<use xlink:href="#SVGID_29_"  overflow="visible"/>
					</clipPath>
					<path clip-path="url(#SVGID_30_)" fill="#A8802B" d="M104,89.9c-8.4,0-15.3,6.9-15.3,15.3c0,8.4,6.9,15.3,15.3,15.3
						c8.4,0,15.3-6.9,15.3-15.3C119.3,96.7,112.5,89.9,104,89.9"/>
				</g>
			</g>
		</g>
		<g>
			<g>
				<g>
					<defs>
						<path id="SVGID_31_" d="M3.8,105.2H104V5C48.7,5,3.8,49.9,3.8,105.2"/>
					</defs>
					<clipPath id="SVGID_32_">
						<use xlink:href="#SVGID_31_"  overflow="visible"/>
					</clipPath>
					<path clip-path="url(#SVGID_32_)" fill="#A8802B" d="M104,177.1c-39.6,0-71.9-32.3-71.9-71.899c0-39.6,32.3-71.9,71.9-71.9
						c38.9,0,70.7,31,71.9,69.6l0,0c0,0.1,0,2.2,0,2.3C175.9,144.8,143.7,177.1,104,177.1 M104,22c-45.9,0-83.2,37.3-83.2,83.2
						c0,45.899,37.3,83.2,83.2,83.2c45.5,0,82.6-36.7,83.2-82v-1.2C187.2,59.3,149.9,22,104,22"/>
				</g>
			</g>
		</g>
		<g>
			<g>
				<g>
					<defs>
						<path id="SVGID_33_" d="M3.8,105.2H104V5C48.7,5,3.8,49.9,3.8,105.2"/>
					</defs>
					<clipPath id="SVGID_34_">
						<use xlink:href="#SVGID_33_"  overflow="visible"/>
					</clipPath>
					<path clip-path="url(#SVGID_34_)" fill="#A8802B" d="M104,194c-49,0-88.9-39.9-88.9-88.9c0-49,39.9-88.9,88.9-88.9
						c48.1,0,87.3,38.3,88.8,86l0,0v2.8C192.9,154.2,153,194,104,194 M204.2,105.2C204.2,49.9,159.3,5,104,5S3.8,49.9,3.8,105.2
						c0,55.3,44.9,100.2,100.2,100.2C159.4,205.4,204.2,160.5,204.2,105.2L204.2,105.2z"/>
				</g>
			</g>
		</g>
	</g>
</g>
</svg>
